<svg width="429px" height="547px" xmlns="http://www.w3.org/2000/svg"><path d="M171 492 172 494 175 496 " style="stroke:gray;fill:none"/><path d="M141 491 " style="stroke:gray;fill:none"/><path d="M144 490 146 491 148 494 152 497 154 497 157 499 162 499 165 497 168 496 171 496 167 496 164 497 161 499 157 499 153 497 149 494 146 490 " style="stroke:gray;fill:none"/><path d="M144 482 144 484 145 486 143 488 139 489 139 495 140 498 144 506 147 509 146 507 147 504 147 499 152 499 155 501 158 502 164 502 167 501 170 498 175 499 176 501 173 501 171 501 167 505 156 504 152 504 150 505 149 507 149 510 151 513 157 519 161 522 163 523 166 524 170 524 172 523 175 520 176 518 177 514 177 505 176 500 175 498 170 498 168 499 166 501 164 502 158 502 155 501 152 499 146 499 147 504 146 507 143 504 143 502 141 500 140 498 139 495 140 489 143 488 145 487 145 485 " style="stroke:gray;fill:none"/><path d="M174 502 177 505 177 514 176 518 171 523 169 524 167 524 164 523 162 522 158 519 151 512 149 509 149 507 152 504 156 504 167 505 169 504 " style="stroke:gray;fill:none"/><path d="M180 478 183 476 " style="stroke:gray;fill:none"/><path d="M281 476 282 482 286 481 285 475 " style="stroke:gray;fill:none"/><path d="M284 475 286 477 286 480 283 482 281 480 281 477 " style="stroke:gray;fill:none"/><path d="M125 475 126 477 128 479 130 482 130 485 128 488 127 490 124 487 120 487 115 490 104 490 100 488 97 485 96 483 94 482 91 483 90 486 89 488 88 492 88 502 89 504 91 506 93 507 96 507 100 506 103 505 106 504 108 503 110 502 111 500 114 500 118 498 121 496 123 494 125 492 128 490 129 487 130 485 130 482 129 480 126 477 " style="stroke:gray;fill:none"/><path d="M94 482 98 487 101 489 104 490 115 490 120 487 124 487 125 492 123 494 120 496 117 498 115 499 113 500 110 500 108 502 103 505 100 506 96 507 94 507 92 506 88 502 88 492 89 488 92 483 " style="stroke:gray;fill:none"/><path d="M101 475 104 476 107 478 108 478 111 481 115 484 118 484 122 483 123 482 125 482 127 484 125 482 123 482 119 483 118 484 115 484 114 482 110 479 106 476 103 475 " style="stroke:gray;fill:none"/><path d="M161 480 159 484 161 490 159 488 159 485 161 481 168 474 " style="stroke:gray;fill:none"/><path d="M104 473 " style="stroke:gray;fill:none"/><path d="M104 470 102 471 100 472 97 474 94 477 94 479 92 481 94 480 94 478 100 472 102 471 " style="stroke:gray;fill:none"/><path d="M29 470 26 473 26 477 33 476 33 473 " style="stroke:gray;fill:none"/><path d="M28 472 30 472 32 473 33 475 31 477 26 476 26 474 " style="stroke:gray;fill:none"/><path d="M29 470 29 473 " style="stroke:gray;fill:none"/><path d="M178 463 179 469 178 467 178 464 181 462 " style="stroke:gray;fill:none"/><path d="M191 460 189 462 191 460 194 459 " style="stroke:gray;fill:none"/><path d="M178 460 175 461 173 463 173 467 178 472 181 473 186 473 189 470 189 465 185 461 183 460 181 460 " style="stroke:gray;fill:none"/><path d="M181 460 183 460 189 466 189 469 185 473 181 473 179 472 173 466 173 464 177 460 " style="stroke:gray;fill:none"/><path d="M184 458 " style="stroke:gray;fill:none"/><path d="M174 458 " style="stroke:gray;fill:none"/><path d="M120 457 122 459 122 466 121 469 118 472 121 470 122 466 " style="stroke:gray;fill:none"/><path d="M117 449 " style="stroke:gray;fill:none"/><path d="M112 447 " style="stroke:gray;fill:none"/><path d="M102 447 102 460 103 463 104 466 110 472 112 473 115 474 119 475 118 480 113 479 116 479 121 480 122 479 125 479 121 478 121 476 122 479 119 479 120 474 122 474 125 473 127 471 130 465 131 459 131 457 128 454 125 454 118 454 115 453 113 452 109 449 107 446 " style="stroke:gray;fill:none"/><path d="M104 446 107 447 109 449 112 452 115 453 118 454 125 454 127 453 131 457 131 459 130 465 129 467 127 470 124 473 122 474 119 475 115 474 111 472 104 465 103 463 102 460 102 448 " style="stroke:gray;fill:none"/><path d="M124 441 122 443 120 446 122 445 " style="stroke:gray;fill:none"/><path d="M353 436 352 439 352 441 354 443 357 443 356 436 " style="stroke:gray;fill:none"/><path d="M355 436 357 438 355 443 355 441 353 437 " style="stroke:gray;fill:none"/><path d="M114 434 112 435 110 437 110 442 115 447 119 448 123 448 127 444 127 441 126 439 122 435 120 434 " style="stroke:gray;fill:none"/><path d="M114 434 120 434 127 441 127 443 126 445 124 447 122 448 119 448 116 447 110 441 110 438 " style="stroke:gray;fill:none"/><path d="M109 434 " style="stroke:gray;fill:none"/><path d="M104 433 105 435 105 441 103 443 105 442 " style="stroke:gray;fill:none"/><path d="M112 433 " style="stroke:gray;fill:none"/><path d="M203 432 211 431 " style="stroke:gray;fill:none"/><path d="M114 432 " style="stroke:gray;fill:none"/><path d="M119 430 119 432 " style="stroke:gray;fill:none"/><path d="M179 429 175 430 171 434 169 438 168 443 168 452 169 454 171 454 168 451 168 443 169 439 171 435 176 430 180 429 187 429 190 430 194 432 197 436 197 434 195 432 191 430 188 429 " style="stroke:gray;fill:none"/><path d="M158 428 " style="stroke:gray;fill:none"/><path d="M148 426 150 424 " style="stroke:gray;fill:none"/><path d="M147 423 " style="stroke:gray;fill:none"/><path d="M108 402 " style="stroke:gray;fill:none"/><path d="M279 386 280 391 284 390 283 386 " style="stroke:gray;fill:none"/><path d="M280 386 284 387 284 389 281 391 279 389 " style="stroke:gray;fill:none"/><path d="M218 385 221 385 " style="stroke:gray;fill:none"/><path d="M107 384 106 386 105 390 105 395 107 397 109 398 107 400 104 398 103 400 103 402 106 405 106 407 107 409 106 407 106 404 104 403 104 399 106 399 109 399 109 397 111 394 112 391 112 386 111 384 " style="stroke:gray;fill:none"/><path d="M108 384 110 384 112 386 112 391 110 395 107 397 105 395 105 390 106 386 " style="stroke:gray;fill:none"/><path d="M182 382 " style="stroke:gray;fill:none"/><path d="M169 381 169 383 " style="stroke:gray;fill:none"/><path d="M220 380 223 384 222 389 217 388 217 390 216 392 216 395 214 401 212 405 211 409 210 413 209 417 208 420 207 425 208 428 211 429 213 427 214 425 215 421 216 417 217 412 217 408 218 404 219 403 219 397 221 395 221 391 223 389 223 383 " style="stroke:gray;fill:none"/><path d="M217 395 219 397 219 403 218 407 217 412 216 417 215 421 214 425 211 428 209 428 208 424 208 420 209 417 210 413 211 409 212 405 213 402 214 399 215 397 " style="stroke:gray;fill:none"/><path d="M219 387 221 388 221 391 221 395 219 397 216 395 216 392 217 389 " style="stroke:gray;fill:none"/><path d="M107 380 107 382 110 379 111 381 115 381 113 382 110 379 " style="stroke:gray;fill:none"/><path d="M189 377 " style="stroke:gray;fill:none"/><path d="M137 377 134 380 132 383 132 391 133 393 135 396 142 403 146 406 156 411 159 412 163 413 167 414 184 414 188 413 192 412 195 410 197 410 200 409 202 408 203 406 201 408 199 409 196 410 194 410 191 412 188 413 184 414 168 414 164 413 160 412 157 411 147 406 143 403 135 395 133 392 132 390 132 384 134 381 139 377 " style="stroke:gray;fill:none"/><path d="M187 377 " style="stroke:gray;fill:none"/><path d="M107 376 109 377 111 377 113 376 111 377 109 377 " style="stroke:gray;fill:none"/><path d="M118 376 " style="stroke:gray;fill:none"/><path d="M155 371 155 374 " style="stroke:gray;fill:none"/><path d="M158 369 " style="stroke:gray;fill:none"/><path d="M27 367 25 369 25 373 27 375 31 375 33 373 33 371 29 367 " style="stroke:gray;fill:none"/><path d="M29 367 33 372 30 375 28 375 25 372 25 370 " style="stroke:gray;fill:none"/><path d="M168 366 168 369 " style="stroke:gray;fill:none"/><path d="M127 366 129 366 " style="stroke:gray;fill:none"/><path d="M118 366 116 369 112 371 110 371 113 371 117 369 " style="stroke:gray;fill:none"/><path d="M142 365 142 368 147 373 150 374 152 375 150 374 148 373 142 367 " style="stroke:gray;fill:none"/><path d="M127 364 131 365 " style="stroke:gray;fill:none"/><path d="M152 363 151 367 154 367 154 364 " style="stroke:gray;fill:none"/><path d="M152 363 153 367 150 365 " style="stroke:gray;fill:none"/><path d="M134 362 136 365 " style="stroke:gray;fill:none"/><path d="M170 360 " style="stroke:gray;fill:none"/><path d="M140 358 142 361 139 364 138 366 142 362 142 360 " style="stroke:gray;fill:none"/><path d="M189 355 188 357 " style="stroke:gray;fill:none"/><path d="M194 352 186 353 194 352 196 353 198 355 199 357 199 359 198 365 197 370 193 374 190 374 188 372 188 369 186 368 187 363 187 359 190 360 190 362 188 365 188 367 188 365 190 363 190 359 186 359 186 367 184 370 184 373 185 375 181 379 165 379 162 378 159 376 157 373 159 371 161 370 163 370 170 371 170 367 171 363 172 358 176 354 178 353 181 353 184 354 186 357 186 355 184 354 181 353 178 353 174 355 172 357 172 362 171 366 169 371 164 371 162 369 161 365 160 368 161 365 162 369 160 371 157 373 157 375 160 377 162 378 165 379 182 379 184 377 185 375 185 373 184 370 186 368 188 370 188 372 190 374 192 375 194 374 196 372 197 370 198 365 199 359 199 356 198 354 " style="stroke:gray;fill:none"/><path d="M139 351 " style="stroke:gray;fill:none"/><path d="M198 350 202 350 201 354 202 349 " style="stroke:gray;fill:none"/><path d="M190 349 191 351 " style="stroke:gray;fill:none"/><path d="M154 346 152 348 150 351 148 352 150 351 " style="stroke:gray;fill:none"/><path d="M110 345 " style="stroke:gray;fill:none"/><path d="M140 345 143 344 146 346 147 350 146 352 147 350 147 346 144 344 " style="stroke:gray;fill:none"/><path d="M138 343 " style="stroke:gray;fill:none"/><path d="M110 341 112 341 " style="stroke:gray;fill:none"/><path d="M110 338 112 338 " style="stroke:gray;fill:none"/><path d="M332 337 330 338 331 342 335 342 334 337 " style="stroke:gray;fill:none"/><path d="M333 337 335 339 334 342 332 342 330 339 " style="stroke:gray;fill:none"/><path d="M182 336 182 338 " style="stroke:gray;fill:none"/><path d="M177 336 177 338 " style="stroke:gray;fill:none"/><path d="M161 337 " style="stroke:gray;fill:none"/><path d="M110 336 112 336 " style="stroke:gray;fill:none"/><path d="M156 335 156 337 " style="stroke:gray;fill:none"/><path d="M194 334 194 336 " style="stroke:gray;fill:none"/><path d="M145 332 146 334 150 334 153 338 150 339 149 341 151 343 150 339 153 338 153 335 150 334 " style="stroke:gray;fill:none"/><path d="M104 331 99 336 96 340 96 342 93 347 92 351 92 357 93 360 94 364 100 370 104 372 108 373 113 374 116 373 119 372 122 369 122 366 119 363 111 356 110 353 105 348 105 346 107 344 108 342 108 331 " style="stroke:gray;fill:none"/><path d="M105 331 108 332 108 342 106 344 105 346 105 348 106 350 110 354 111 357 118 363 122 368 118 372 116 373 113 374 108 373 104 372 101 370 94 363 93 360 92 357 92 351 93 347 96 341 99 337 " style="stroke:gray;fill:none"/><path d="M100 331 " style="stroke:gray;fill:none"/><path d="M210 330 " style="stroke:gray;fill:none"/><path d="M208 330 " style="stroke:gray;fill:none"/><path d="M140 331 139 339 140 331 142 329 " style="stroke:gray;fill:none"/><path d="M244 327 239 328 236 329 226 334 223 336 220 338 209 350 221 338 224 336 227 334 237 329 240 328 244 327 246 327 248 329 250 331 250 329 248 328 246 327 " style="stroke:gray;fill:none"/><path d="M213 328 " style="stroke:gray;fill:none"/><path d="M214 326 " style="stroke:gray;fill:none"/><path d="M127 326 121 327 118 328 115 331 114 333 114 349 115 352 116 354 120 358 123 359 126 360 131 360 134 359 140 354 142 351 141 349 138 348 135 345 135 342 136 339 137 338 137 329 135 327 132 326 " style="stroke:gray;fill:none"/><path d="M127 326 132 326 134 327 137 330 137 338 136 341 135 342 135 346 139 348 141 350 141 352 139 355 137 357 131 360 126 360 123 359 121 358 115 352 114 349 114 333 119 328 121 327 " style="stroke:gray;fill:none"/><path d="M216 325 " style="stroke:gray;fill:none"/><path d="M136 324 " style="stroke:gray;fill:none"/><path d="M219 324 " style="stroke:gray;fill:none"/><path d="M133 324 " style="stroke:gray;fill:none"/><path d="M253 321 " style="stroke:gray;fill:none"/><path d="M223 320 222 322 " style="stroke:gray;fill:none"/><path d="M141 320 " style="stroke:gray;fill:none"/><path d="M248 319 249 321 " style="stroke:gray;fill:none"/><path d="M117 319 113 323 111 324 109 324 107 325 104 328 109 324 111 324 114 323 119 320 " style="stroke:gray;fill:none"/><path d="M131 318 " style="stroke:gray;fill:none"/><path d="M201 316 196 323 193 325 190 327 184 330 182 330 180 331 182 331 185 330 191 327 194 325 197 323 202 318 " style="stroke:gray;fill:none"/><path d="M177 316 " style="stroke:gray;fill:none"/><path d="M234 315 232 316 223 325 219 328 216 330 206 335 203 336 199 337 195 338 190 337 190 335 191 338 184 340 161 339 156 339 154 341 154 343 156 345 158 345 162 346 163 347 173 348 166 352 160 351 157 351 155 353 152 353 149 355 147 355 145 356 144 358 144 360 145 358 148 355 150 355 152 356 154 359 156 359 157 356 161 357 161 360 163 360 164 356 167 356 167 354 173 352 173 349 175 347 180 348 180 351 180 349 182 347 183 351 183 349 185 347 193 347 199 346 200 345 202 345 206 349 206 354 205 359 204 364 203 370 202 374 200 377 197 380 194 382 191 383 188 384 184 385 165 385 161 384 157 383 154 382 144 377 140 374 138 372 132 368 131 368 122 376 119 379 117 384 114 385 117 386 118 389 118 394 117 397 115 400 113 402 112 405 110 407 110 409 108 411 107 414 106 417 105 420 104 424 104 428 105 430 108 430 110 430 112 428 121 428 125 430 130 436 133 439 135 440 138 441 137 444 135 444 133 445 132 447 132 453 132 447 135 444 138 443 137 440 139 438 142 434 144 431 145 429 145 424 144 422 144 419 147 419 154 423 157 424 162 425 162 427 163 425 163 429 161 429 158 432 157 435 157 450 156 455 155 459 154 462 153 465 152 468 151 470 149 472 148 475 147 478 147 484 148 486 150 488 152 490 154 492 156 493 161 493 165 492 171 489 174 487 178 483 178 479 175 476 168 470 167 468 167 466 167 463 168 460 172 456 175 454 184 454 186 455 188 457 190 457 194 455 196 451 197 448 198 444 199 440 200 436 201 430 201 424 202 420 203 417 204 413 205 409 206 405 207 402 208 398 209 394 210 390 211 387 213 383 219 377 233 364 238 358 241 354 243 351 244 348 246 346 247 343 249 341 249 339 251 336 251 334 253 331 253 327 252 325 249 324 245 322 242 320 238 316 236 315 " style="stroke:gray;fill:none"/><path d="M162 356 162 360 " style="stroke:gray;fill:none"/><path d="M157 351 160 351 167 353 166 356 163 357 161 357 156 356 155 359 153 356 150 355 152 353 155 353 " style="stroke:gray;fill:none"/><path d="M234 315 236 315 241 320 244 322 246 323 248 323 250 324 252 326 253 328 253 331 251 334 251 336 247 344 244 347 243 350 241 353 238 357 233 363 218 377 213 382 212 384 211 387 210 390 209 394 208 398 207 402 206 405 205 409 204 413 203 417 202 420 201 424 201 430 200 436 199 440 198 444 197 448 196 451 195 453 192 456 189 457 187 455 184 454 175 454 171 456 168 459 167 461 167 463 167 466 167 468 168 471 174 476 178 480 178 482 173 487 170 489 167 491 165 492 161 493 156 493 152 490 150 488 147 484 147 478 149 475 149 473 152 468 153 465 154 462 155 459 156 455 157 450 157 435 158 433 162 429 164 429 164 425 162 425 157 424 154 423 147 419 143 419 143 421 145 424 145 428 144 430 142 433 139 437 135 440 130 435 127 431 131 429 132 427 132 420 131 417 129 413 126 410 123 408 120 407 114 407 119 407 122 408 125 410 129 414 131 418 132 421 132 426 131 428 129 430 127 431 125 430 121 428 112 428 109 430 107 431 104 428 104 424 105 420 106 417 107 414 108 412 110 410 110 408 111 406 113 404 115 401 117 398 118 395 117 388 117 383 119 380 123 376 133 367 138 372 140 374 142 376 154 382 157 383 161 384 165 385 184 385 188 384 191 383 194 382 198 380 200 378 202 374 203 370 204 364 205 359 206 354 206 348 203 345 200 345 194 346 193 347 184 348 182 347 179 347 172 347 163 347 159 346 157 345 154 342 157 339 161 339 184 340 190 339 195 338 199 337 203 336 206 335 209 333 211 333 215 331 218 329 221 327 224 325 " style="stroke:gray;fill:none"/><path d="M179 315 182 315 " style="stroke:gray;fill:none"/><path d="M147 315 " style="stroke:gray;fill:none"/><path d="M145 315 " style="stroke:gray;fill:none"/><path d="M137 315 139 315 " style="stroke:gray;fill:none"/><path d="M231 314 " style="stroke:gray;fill:none"/><path d="M189 314 " style="stroke:gray;fill:none"/><path d="M143 315 " style="stroke:gray;fill:none"/><path d="M235 313 233 313 235 313 237 312 " style="stroke:gray;fill:none"/><path d="M197 312 " style="stroke:gray;fill:none"/><path d="M231 312 " style="stroke:gray;fill:none"/><path d="M123 311 126 314 126 316 126 313 " style="stroke:gray;fill:none"/><path d="M407 309 " style="stroke:gray;fill:none"/><path d="M405 307 404 309 405 311 409 313 411 313 412 310 411 307 " style="stroke:gray;fill:none"/><path d="M406 307 410 307 412 309 411 311 407 312 404 309 " style="stroke:gray;fill:none"/><path d="M212 307 " style="stroke:gray;fill:none"/><path d="M261 306 262 309 264 310 271 310 265 310 262 308 " style="stroke:gray;fill:none"/><path d="M215 306 " style="stroke:gray;fill:none"/><path d="M254 304 252 305 " style="stroke:gray;fill:none"/><path d="M249 303 250 305 " style="stroke:gray;fill:none"/><path d="M246 303 " style="stroke:gray;fill:none"/><path d="M242 304 240 304 238 306 238 310 238 308 238 306 240 304 242 304 244 303 " style="stroke:gray;fill:none"/><path d="M254 302 " style="stroke:gray;fill:none"/><path d="M258 301 " style="stroke:gray;fill:none"/><path d="M130 300 131 302 " style="stroke:gray;fill:none"/><path d="M108 300 104 300 108 300 112 297 " style="stroke:gray;fill:none"/><path d="M255 295 257 296 " style="stroke:gray;fill:none"/><path d="M228 296 230 294 " style="stroke:gray;fill:none"/><path d="M183 296 186 294 " style="stroke:gray;fill:none"/><path d="M104 294 " style="stroke:gray;fill:none"/><path d="M248 291 245 292 244 294 244 296 245 298 247 300 250 301 252 300 253 298 253 295 250 292 " style="stroke:gray;fill:none"/><path d="M248 291 253 296 253 298 249 301 244 296 244 294 246 292 " style="stroke:gray;fill:none"/><path d="M201 289 198 292 201 293 198 292 " style="stroke:gray;fill:none"/><path d="M103 288 103 290 " style="stroke:gray;fill:none"/><path d="M230 287 " style="stroke:gray;fill:none"/><path d="M108 287 110 287 " style="stroke:gray;fill:none"/><path d="M252 286 250 289 245 289 250 289 252 288 " style="stroke:gray;fill:none"/><path d="M123 286 " style="stroke:gray;fill:none"/><path d="M211 282 209 284 208 286 " style="stroke:gray;fill:none"/><path d="M207 282 206 284 204 286 206 284 " style="stroke:gray;fill:none"/><path d="M260 281 257 282 255 284 255 287 256 290 258 292 260 295 261 298 261 302 256 307 244 307 242 309 242 311 247 316 249 317 252 318 255 319 261 319 264 318 267 317 269 316 275 310 276 307 278 305 279 301 279 294 278 291 277 288 273 284 269 282 266 281 " style="stroke:gray;fill:none"/><path d="M260 281 266 281 269 282 272 284 277 289 278 291 279 294 279 301 278 304 277 306 275 309 268 316 264 318 261 319 255 319 252 318 248 316 242 310 245 307 257 307 260 304 261 302 261 298 260 295 258 291 256 289 255 287 255 285 258 282 " style="stroke:gray;fill:none"/><path d="M208 280 " style="stroke:gray;fill:none"/><path d="M106 280 " style="stroke:gray;fill:none"/><path d="M98 280 99 282 101 282 " style="stroke:gray;fill:none"/><path d="M209 278 " style="stroke:gray;fill:none"/><path d="M106 278 " style="stroke:gray;fill:none"/><path d="M261 277 259 278 257 279 259 278 261 277 264 277 " style="stroke:gray;fill:none"/><path d="M120 277 120 279 121 282 121 280 " style="stroke:gray;fill:none"/><path d="M249 276 253 276 " style="stroke:gray;fill:none"/><path d="M245 275 " style="stroke:gray;fill:none"/><path d="M206 277 206 279 203 283 198 289 196 290 196 288 196 290 193 291 192 293 190 293 188 296 190 293 193 292 194 294 191 296 194 295 194 292 196 290 203 284 205 281 207 276 209 274 " style="stroke:gray;fill:none"/><path d="M211 274 213 274 212 280 213 274 " style="stroke:gray;fill:none"/><path d="M245 273 " style="stroke:gray;fill:none"/><path d="M138 272 136 274 136 278 137 281 144 280 145 278 145 275 142 272 " style="stroke:gray;fill:none"/><path d="M139 272 141 272 145 276 145 278 142 281 138 281 136 279 135 276 " style="stroke:gray;fill:none"/><path d="M209 272 " style="stroke:gray;fill:none"/><path d="M207 271 204 275 202 278 201 281 199 284 197 286 200 283 201 280 203 277 205 274 " style="stroke:gray;fill:none"/><path d="M109 271 109 273 110 275 110 280 111 282 112 284 111 282 110 279 110 275 " style="stroke:gray;fill:none"/><path d="M236 271 235 275 238 282 239 275 238 270 " style="stroke:gray;fill:none"/><path d="M239 271 239 275 235 282 235 275 " style="stroke:gray;fill:none"/><path d="M252 269 " style="stroke:gray;fill:none"/><path d="M231 269 " style="stroke:gray;fill:none"/><path d="M268 268 272 268 " style="stroke:gray;fill:none"/><path d="M105 269 107 268 " style="stroke:gray;fill:none"/><path d="M209 267 208 269 209 267 210 269 " style="stroke:gray;fill:none"/><path d="M120 267 " style="stroke:gray;fill:none"/><path d="M113 267 " style="stroke:gray;fill:none"/><path d="M266 266 264 271 265 273 270 272 272 272 270 272 266 273 264 271 " style="stroke:gray;fill:none"/><path d="M207 266 " style="stroke:gray;fill:none"/><path d="M210 265 212 266 " style="stroke:gray;fill:none"/><path d="M120 264 " style="stroke:gray;fill:none"/><path d="M232 263 231 266 " style="stroke:gray;fill:none"/><path d="M153 262 160 262 " style="stroke:gray;fill:none"/><path d="M106 261 " style="stroke:gray;fill:none"/><path d="M98 261 97 264 96 267 95 268 95 281 96 285 97 288 98 291 99 293 100 295 102 297 104 298 107 297 108 295 107 292 104 284 103 279 104 277 103 266 102 262 " style="stroke:gray;fill:none"/><path d="M97 263 102 263 103 266 104 277 103 279 105 283 106 291 107 292 108 295 105 298 103 297 102 295 100 293 97 288 96 285 95 281 95 268 96 265 " style="stroke:gray;fill:none"/><path d="M209 260 208 262 208 264 208 262 " style="stroke:gray;fill:none"/><path d="M99 259 101 259 " style="stroke:gray;fill:none"/><path d="M244 257 245 260 " style="stroke:gray;fill:none"/><path d="M231 257 " style="stroke:gray;fill:none"/><path d="M267 254 " style="stroke:gray;fill:none"/><path d="M114 255 " style="stroke:gray;fill:none"/><path d="M229 253 " style="stroke:gray;fill:none"/><path d="M251 251 249 252 " style="stroke:gray;fill:none"/><path d="M119 250 " style="stroke:gray;fill:none"/><path d="M112 250 110 253 109 255 108 260 108 265 109 267 112 270 113 273 113 275 113 278 114 280 114 285 113 292 114 295 115 298 118 304 122 308 128 307 128 303 124 296 124 294 123 291 121 289 121 287 116 282 116 276 115 272 114 270 117 267 117 264 116 256 116 253 114 251 " style="stroke:gray;fill:none"/><path d="M113 269 115 272 116 276 116 282 117 284 121 288 123 292 124 295 124 297 128 304 128 306 126 308 123 308 117 302 115 298 114 295 113 292 113 287 114 280 113 278 113 275 113 273 " style="stroke:gray;fill:none"/><path d="M113 250 116 256 117 264 117 266 114 269 112 269 108 265 108 260 109 255 111 252 " style="stroke:gray;fill:none"/><path d="M243 248 " style="stroke:gray;fill:none"/><path d="M285 248 " style="stroke:gray;fill:none"/><path d="M113 246 111 248 115 247 117 247 119 248 117 247 115 246 " style="stroke:gray;fill:none"/><path d="M227 244 " style="stroke:gray;fill:none"/><path d="M238 243 238 245 239 250 239 245 " style="stroke:gray;fill:none"/><path d="M116 243 " style="stroke:gray;fill:none"/><path d="M26 243 25 245 26 248 30 247 30 243 " style="stroke:gray;fill:none"/><path d="M27 243 30 244 30 246 27 248 25 245 " style="stroke:gray;fill:none"/><path d="M240 241 " style="stroke:gray;fill:none"/><path d="M237 241 " style="stroke:gray;fill:none"/><path d="M120 241 " style="stroke:gray;fill:none"/><path d="M390 239 388 242 390 241 " style="stroke:gray;fill:none"/><path d="M231 240 231 242 232 245 233 248 234 250 236 250 236 246 236 243 234 241 " style="stroke:gray;fill:none"/><path d="M234 240 235 242 236 246 235 250 233 248 232 245 231 242 " style="stroke:gray;fill:none"/><path d="M253 238 253 240 " style="stroke:gray;fill:none"/><path d="M112 237 113 241 117 241 114 241 112 239 " style="stroke:gray;fill:none"/><path d="M388 236 386 237 385 239 385 242 386 244 392 243 392 237 390 236 " style="stroke:gray;fill:none"/><path d="M388 236 390 236 392 238 392 242 390 244 386 243 386 239 386 238 " style="stroke:gray;fill:none"/><path d="M243 236 243 242 244 245 245 248 246 249 247 252 248 257 247 260 248 273 253 273 253 271 254 268 255 267 255 254 254 249 253 245 250 239 247 236 " style="stroke:gray;fill:none"/><path d="M244 236 246 236 251 241 253 245 254 249 255 254 255 267 254 270 253 272 248 272 247 260 248 257 247 252 246 249 245 246 244 245 243 242 " style="stroke:gray;fill:none"/><path d="M128 238 124 241 121 244 120 246 122 244 122 247 122 270 123 275 124 280 125 284 126 288 131 298 133 300 135 304 136 306 134 303 132 298 130 296 127 290 126 287 125 283 124 279 123 274 122 269 122 248 123 245 124 243 123 245 123 241 125 241 129 238 131 236 " style="stroke:gray;fill:none"/><path d="M235 235 240 237 237 236 " style="stroke:gray;fill:none"/><path d="M152 234 149 235 147 236 143 240 141 244 140 247 140 249 141 253 142 256 143 258 148 263 151 264 162 264 166 262 169 259 171 255 172 252 172 246 171 243 169 239 167 237 164 235 161 234 " style="stroke:gray;fill:none"/><path d="M152 234 161 234 165 236 169 240 171 243 172 246 172 252 170 255 170 257 164 263 162 264 151 264 149 263 146 261 144 259 142 256 141 253 140 249 140 247 141 244 142 242 149 235 " style="stroke:gray;fill:none"/><path d="M231 233 230 235 228 241 229 245 230 248 231 250 235 254 236 263 236 267 234 269 233 272 232 281 232 285 235 288 236 290 234 292 232 293 236 291 240 286 241 283 242 278 241 271 242 268 245 268 242 268 241 257 242 250 243 253 243 250 241 251 241 257 241 269 239 267 240 260 238 256 238 252 238 256 240 260 239 267 241 269 242 272 242 278 241 282 240 285 236 289 232 285 232 281 233 272 234 269 236 267 236 263 235 254 231 250 230 248 229 245 228 241 228 237 231 234 233 236 " style="stroke:gray;fill:none"/><path d="M296 233 " style="stroke:gray;fill:none"/><path d="M244 232 241 234 244 232 246 233 " style="stroke:gray;fill:none"/><path d="M226 232 229 233 " style="stroke:gray;fill:none"/><path d="M223 232 " style="stroke:gray;fill:none"/><path d="M296 229 293 231 292 233 290 237 288 240 283 245 281 249 281 251 279 255 276 258 275 261 270 265 268 263 267 261 267 259 267 256 266 259 268 263 269 265 272 265 275 262 275 260 279 256 279 254 281 251 281 249 282 247 287 242 290 238 292 235 292 233 295 230 299 230 299 234 297 237 293 241 292 244 290 246 288 251 285 254 283 257 281 260 279 263 277 266 277 268 275 270 275 273 272 276 269 276 269 278 271 280 270 276 273 276 275 274 275 271 278 265 281 262 282 259 284 256 287 253 289 248 291 246 292 243 296 239 298 236 299 234 298 229 " style="stroke:gray;fill:none"/><path d="M139 228 " style="stroke:gray;fill:none"/><path d="M220 227 222 229 224 229 222 228 " style="stroke:gray;fill:none"/><path d="M218 226 " style="stroke:gray;fill:none"/><path d="M143 226 " style="stroke:gray;fill:none"/><path d="M146 225 " style="stroke:gray;fill:none"/><path d="M304 224 " style="stroke:gray;fill:none"/><path d="M152 223 " style="stroke:gray;fill:none"/><path d="M155 222 " style="stroke:gray;fill:none"/><path d="M203 221 " style="stroke:gray;fill:none"/><path d="M158 221 " style="stroke:gray;fill:none"/><path d="M244 220 242 222 243 225 247 224 246 221 " style="stroke:gray;fill:none"/><path d="M244 220 246 221 246 225 242 224 242 222 " style="stroke:gray;fill:none"/><path d="M227 220 226 227 226 230 227 227 229 230 228 228 " style="stroke:gray;fill:none"/><path d="M195 220 199 220 " style="stroke:gray;fill:none"/><path d="M167 220 " style="stroke:gray;fill:none"/><path d="M183 219 182 221 168 222 165 220 163 223 158 223 155 225 152 225 149 227 146 227 141 230 139 230 137 232 135 232 132 234 134 233 136 232 138 232 140 230 142 229 144 229 147 227 149 227 152 225 156 224 159 223 164 222 169 221 191 221 197 222 202 223 206 224 209 225 212 226 216 228 221 233 222 235 222 237 224 240 225 243 226 247 226 252 227 256 228 257 229 262 229 269 228 274 228 282 227 289 226 292 224 296 219 301 209 306 206 307 203 308 200 309 197 310 193 310 190 311 189 312 179 313 148 312 158 311 162 310 165 309 168 308 178 303 181 300 185 298 195 298 199 297 205 294 212 287 215 281 216 277 216 267 211 261 210 255 210 248 209 244 206 238 204 235 199 230 196 228 192 226 188 225 168 225 164 226 163 227 157 227 153 228 150 229 147 230 144 231 139 234 137 234 135 235 133 236 135 235 137 234 139 234 144 231 147 230 150 229 153 228 157 227 163 227 167 226 168 225 188 225 192 226 194 227 197 229 205 237 207 240 209 244 210 248 210 255 211 261 212 264 215 265 216 267 216 277 215 281 213 285 203 295 199 297 195 298 185 298 179 301 176 304 168 308 165 309 162 310 158 311 148 312 143 312 139 310 137 308 135 308 132 304 134 307 132 308 130 310 131 313 135 316 132 316 129 315 129 318 126 318 124 317 121 317 124 318 122 319 127 319 129 320 130 322 128 324 125 324 123 323 121 321 123 323 125 324 128 324 130 323 131 321 128 319 128 317 130 315 132 316 134 321 137 321 142 325 147 330 150 331 153 332 157 333 161 334 186 334 191 333 195 332 198 331 201 330 204 329 214 324 217 322 220 320 229 311 231 308 232 306 233 300 231 299 235 297 237 302 236 304 237 302 235 296 235 294 234 297 233 295 231 297 230 299 233 301 228 302 226 302 224 304 221 305 219 307 213 310 210 311 207 312 204 313 201 314 198 315 194 316 189 317 184 318 175 319 153 319 142 318 141 317 139 317 137 318 134 314 131 309 134 307 136 308 138 310 142 312 149 313 179 313 189 312 193 310 195 313 194 311 197 310 201 309 204 307 207 306 210 308 211 305 214 304 216 302 219 301 222 301 224 297 225 294 227 294 226 290 227 283 228 282 228 274 231 272 229 269 229 262 228 257 227 253 226 252 225 245 226 242 224 242 224 240 222 237 224 235 221 234 221 232 217 228 215 228 212 226 210 226 208 225 208 223 203 224 198 223 192 222 191 221 " style="stroke:gray;fill:none"/><path d="M135 316 138 319 135 321 133 318 " style="stroke:gray;fill:none"/><path d="M230 301 232 303 232 305 231 307 229 310 219 320 215 323 212 325 204 329 201 330 198 331 195 332 191 333 186 334 161 334 157 333 153 332 150 331 148 330 142 325 137 320 138 318 141 317 152 318 153 319 175 319 184 318 189 317 194 316 198 315 201 314 204 313 207 312 210 311 213 310 225 304 227 302 " style="stroke:gray;fill:none"/><path d="M276 215 276 221 275 226 274 230 272 231 272 235 271 240 270 245 267 252 269 253 269 255 269 246 270 241 271 236 272 232 274 231 274 227 275 222 276 221 " style="stroke:gray;fill:none"/><path d="M274 210 275 213 272 215 271 217 270 220 270 232 268 233 267 236 267 238 266 241 265 242 265 252 264 258 262 261 261 265 260 269 260 272 264 275 260 272 260 269 261 265 262 261 264 258 265 252 265 242 266 239 267 236 268 234 270 232 270 220 271 217 276 213 277 210 " style="stroke:gray;fill:none"/><path d="M274 212 " style="stroke:gray;fill:none"/><path d="M256 209 " style="stroke:gray;fill:none"/><path d="M214 207 216 209 219 207 217 207 216 209 " style="stroke:gray;fill:none"/><path d="M254 205 253 207 253 209 253 212 253 214 253 217 253 225 253 228 253 231 251 236 252 232 253 228 255 226 258 227 258 232 255 234 254 236 258 233 258 205 " style="stroke:gray;fill:none"/><path d="M255 215 258 216 257 226 253 225 253 217 " style="stroke:gray;fill:none"/><path d="M255 205 258 206 257 215 253 214 253 212 253 209 253 207 " style="stroke:gray;fill:none"/><path d="M275 204 279 204 " style="stroke:gray;fill:none"/><path d="M298 204 " style="stroke:gray;fill:none"/><path d="M293 206 292 208 293 206 294 203 " style="stroke:gray;fill:none"/><path d="M256 202 " style="stroke:gray;fill:none"/><path d="M242 202 244 203 " style="stroke:gray;fill:none"/><path d="M164 202 168 202 172 203 176 204 179 205 185 208 188 210 190 212 190 214 192 212 189 210 186 208 182 206 180 206 177 204 173 203 169 202 " style="stroke:gray;fill:none"/><path d="M304 201 " style="stroke:gray;fill:none"/><path d="M202 201 " style="stroke:gray;fill:none"/><path d="M200 200 " style="stroke:gray;fill:none"/><path d="M243 199 " style="stroke:gray;fill:none"/><path d="M166 199 162 201 157 201 153 202 150 203 147 205 145 205 135 210 131 213 120 224 118 227 115 233 116 238 119 238 122 235 125 233 128 231 131 229 145 222 148 221 151 220 155 219 159 218 164 217 171 216 191 216 194 217 195 218 202 218 206 219 210 220 213 221 214 222 217 223 219 223 223 223 224 220 223 218 218 213 214 210 211 208 203 204 201 204 198 202 195 201 191 200 187 199 " style="stroke:gray;fill:none"/><path d="M166 199 187 199 191 200 195 201 198 202 201 204 203 204 207 206 210 208 213 210 217 213 223 219 224 221 219 223 217 223 214 222 211 221 210 220 206 219 202 218 195 218 192 217 191 216 171 216 164 217 159 218 155 219 151 220 148 221 145 222 132 229 130 229 127 231 125 233 122 235 117 238 115 236 115 233 117 231 118 228 120 225 132 213 136 210 139 208 145 205 147 205 150 203 153 202 157 201 162 201 " style="stroke:gray;fill:none"/><path d="M317 198 315 199 308 203 305 204 302 204 306 204 309 203 315 200 " style="stroke:gray;fill:none"/><path d="M255 198 257 199 261 200 258 200 " style="stroke:gray;fill:none"/><path d="M191 198 " style="stroke:gray;fill:none"/><path d="M242 197 239 197 240 208 241 197 244 196 246 198 245 214 242 213 243 208 242 206 242 209 243 214 246 213 246 198 244 196 " style="stroke:gray;fill:none"/><path d="M300 195 297 197 " style="stroke:gray;fill:none"/><path d="M248 195 " style="stroke:gray;fill:none"/><path d="M238 195 " style="stroke:gray;fill:none"/><path d="M169 196 171 195 176 195 187 196 189 197 187 196 176 195 " style="stroke:gray;fill:none"/><path d="M244 194 " style="stroke:gray;fill:none"/><path d="M170 193 " style="stroke:gray;fill:none"/><path d="M240 194 241 189 " style="stroke:gray;fill:none"/><path d="M327 181 " style="stroke:gray;fill:none"/><path d="M329 180 " style="stroke:gray;fill:none"/><path d="M190 179 194 180 " style="stroke:gray;fill:none"/><path d="M322 174 323 176 320 178 323 176 325 175 " style="stroke:gray;fill:none"/><path d="M286 175 294 175 " style="stroke:gray;fill:none"/><path d="M332 173 330 175 327 178 325 178 321 181 323 179 320 181 322 182 321 184 " style="stroke:gray;fill:none"/><path d="M195 173 192 175 188 178 188 182 194 183 197 182 199 181 201 180 202 178 201 176 198 174 " style="stroke:gray;fill:none"/><path d="M195 173 198 174 202 178 199 181 197 182 194 183 190 183 187 179 191 175 193 174 " style="stroke:gray;fill:none"/><path d="M73 174 72 177 73 181 78 180 77 173 " style="stroke:gray;fill:none"/><path d="M76 173 78 175 78 179 76 181 74 181 73 177 73 175 " style="stroke:gray;fill:none"/><path d="M344 172 " style="stroke:gray;fill:none"/><path d="M334 171 " style="stroke:gray;fill:none"/><path d="M328 170 " style="stroke:gray;fill:none"/><path d="M338 169 " style="stroke:gray;fill:none"/><path d="M332 169 329 172 326 173 323 171 320 171 323 171 328 172 331 170 334 169 " style="stroke:gray;fill:none"/><path d="M289 169 " style="stroke:gray;fill:none"/><path d="M298 168 " style="stroke:gray;fill:none"/><path d="M294 168 " style="stroke:gray;fill:none"/><path d="M226 171 229 170 230 168 " style="stroke:gray;fill:none"/><path d="M312 167 " style="stroke:gray;fill:none"/><path d="M310 167 " style="stroke:gray;fill:none"/><path d="M304 168 " style="stroke:gray;fill:none"/><path d="M222 167 " style="stroke:gray;fill:none"/><path d="M333 166 327 167 321 168 320 169 310 170 300 170 291 171 290 172 283 172 247 171 235 169 232 170 231 172 231 175 234 179 241 186 246 190 249 192 252 193 254 195 256 195 259 197 261 197 264 199 267 200 271 201 294 201 299 200 301 199 299 200 294 201 271 201 267 200 264 199 261 197 259 197 255 195 253 193 250 192 247 190 243 187 234 178 231 174 231 172 233 170 235 169 247 171 283 172 290 172 299 171 300 170 310 170 320 169 327 168 328 167 334 166 338 166 341 169 339 171 337 174 337 175 325 187 321 190 318 192 310 196 307 197 304 198 302 196 304 194 307 192 309 192 311 191 315 188 319 184 318 181 316 180 308 180 306 178 304 178 302 177 302 173 300 176 298 176 296 173 298 176 301 177 303 177 307 179 295 179 296 177 295 179 291 179 287 178 285 177 284 174 284 177 286 177 290 178 295 179 296 180 316 180 318 182 318 184 314 188 310 191 305 193 302 196 303 198 305 198 308 197 311 195 313 195 319 192 322 190 326 187 337 176 339 173 340 171 341 169 340 167 " style="stroke:gray;fill:none"/><path d="M227 166 229 166 " style="stroke:gray;fill:none"/><path d="M222 165 " style="stroke:gray;fill:none"/><path d="M333 164 " style="stroke:gray;fill:none"/><path d="M215 164 217 164 " style="stroke:gray;fill:none"/><path d="M199 164 198 167 200 169 203 170 206 171 209 172 213 172 213 169 212 172 209 172 206 171 203 170 201 169 " style="stroke:gray;fill:none"/><path d="M295 163 " style="stroke:gray;fill:none"/><path d="M279 163 281 163 " style="stroke:gray;fill:none"/><path d="M247 163 260 163 " style="stroke:gray;fill:none"/><path d="M212 163 " style="stroke:gray;fill:none"/><path d="M354 162 352 163 350 165 350 167 347 173 343 178 339 182 337 184 328 193 325 195 324 195 322 197 319 200 318 202 320 205 321 207 321 209 322 211 325 215 335 225 340 225 340 222 343 219 349 219 352 219 349 219 343 219 341 220 340 222 339 225 336 225 334 224 332 222 324 213 321 209 321 207 320 205 318 202 319 200 322 197 325 195 328 193 329 193 339 184 343 179 346 175 350 166 353 163 355 162 358 163 360 165 362 168 366 176 367 180 367 197 366 200 365 203 361 211 357 215 355 217 354 220 352 222 349 224 345 227 343 228 340 229 335 230 320 229 322 227 322 224 320 221 320 218 318 214 314 212 308 212 306 211 304 209 301 208 298 206 296 207 294 210 294 212 298 216 301 217 304 219 312 227 306 220 303 218 300 217 294 210 298 206 300 207 302 208 304 210 307 212 314 212 316 213 319 216 320 218 320 221 322 224 322 226 320 229 317 230 314 228 311 229 308 228 305 226 302 226 300 224 290 213 289 211 289 205 287 204 285 204 287 204 289 206 289 212 290 214 300 225 304 226 307 227 308 228 311 229 317 230 335 230 340 229 343 228 347 226 350 223 353 222 354 219 357 217 361 212 361 210 363 208 365 204 366 200 367 197 367 180 366 176 365 173 363 169 361 167 360 164 356 162 " style="stroke:gray;fill:none"/><path d="M303 162 306 162 " style="stroke:gray;fill:none"/><path d="M238 162 " style="stroke:gray;fill:none"/><path d="M341 163 343 161 " style="stroke:gray;fill:none"/><path d="M311 161 315 161 " style="stroke:gray;fill:none"/><path d="M230 161 " style="stroke:gray;fill:none"/><path d="M205 161 " style="stroke:gray;fill:none"/><path d="M349 160 349 163 346 166 343 166 348 165 349 163 " style="stroke:gray;fill:none"/><path d="M322 160 " style="stroke:gray;fill:none"/><path d="M223 160 226 160 " style="stroke:gray;fill:none"/><path d="M200 160 202 160 " style="stroke:gray;fill:none"/><path d="M327 159 " style="stroke:gray;fill:none"/><path d="M217 159 " style="stroke:gray;fill:none"/><path d="M198 159 " style="stroke:gray;fill:none"/><path d="M356 158 358 161 " style="stroke:gray;fill:none"/><path d="M330 158 333 158 " style="stroke:gray;fill:none"/><path d="M213 158 " style="stroke:gray;fill:none"/><path d="M337 157 " style="stroke:gray;fill:none"/><path d="M342 156 " style="stroke:gray;fill:none"/><path d="M194 156 " style="stroke:gray;fill:none"/><path d="M346 155 " style="stroke:gray;fill:none"/><path d="M350 154 " style="stroke:gray;fill:none"/><path d="M210 154 211 157 " style="stroke:gray;fill:none"/><path d="M353 153 " style="stroke:gray;fill:none"/><path d="M249 152 246 152 249 152 262 151 263 152 270 152 263 152 " style="stroke:gray;fill:none"/><path d="M229 151 " style="stroke:gray;fill:none"/><path d="M204 151 204 153 199 152 205 153 " style="stroke:gray;fill:none"/><path d="M312 149 " style="stroke:gray;fill:none"/><path d="M203 149 " style="stroke:gray;fill:none"/><path d="M195 149 197 151 " style="stroke:gray;fill:none"/><path d="M322 148 " style="stroke:gray;fill:none"/><path d="M217 149 215 149 217 149 219 148 220 150 224 150 221 150 219 148 " style="stroke:gray;fill:none"/><path d="M366 147 " style="stroke:gray;fill:none"/><path d="M331 147 " style="stroke:gray;fill:none"/><path d="M368 146 " style="stroke:gray;fill:none"/><path d="M195 145 " style="stroke:gray;fill:none"/><path d="M188 145 187 148 188 151 188 149 " style="stroke:gray;fill:none"/><path d="M345 144 " style="stroke:gray;fill:none"/><path d="M318 143 " style="stroke:gray;fill:none"/><path d="M305 143 " style="stroke:gray;fill:none"/><path d="M2 143 1 145 1 147 2 149 7 148 7 143 " style="stroke:gray;fill:none"/><path d="M2 144 7 144 7 147 5 149 2 148 1 146 " style="stroke:gray;fill:none"/><path d="M359 141 " style="stroke:gray;fill:none"/><path d="M351 141 353 143 " style="stroke:gray;fill:none"/><path d="M200 141 202 142 202 147 " style="stroke:gray;fill:none"/><path d="M329 140 333 141 " style="stroke:gray;fill:none"/><path d="M191 140 189 142 " style="stroke:gray;fill:none"/><path d="M176 140 174 142 " style="stroke:gray;fill:none"/><path d="M375 140 " style="stroke:gray;fill:none"/><path d="M361 139 " style="stroke:gray;fill:none"/><path d="M352 139 " style="stroke:gray;fill:none"/><path d="M216 140 " style="stroke:gray;fill:none"/><path d="M207 139 " style="stroke:gray;fill:none"/><path d="M346 137 " style="stroke:gray;fill:none"/><path d="M213 137 213 139 " style="stroke:gray;fill:none"/><path d="M182 138 184 137 " style="stroke:gray;fill:none"/><path d="M149 137 150 139 151 141 153 144 156 147 160 147 161 147 164 147 164 149 161 147 158 148 151 141 150 139 " style="stroke:gray;fill:none"/><path d="M197 136 " style="stroke:gray;fill:none"/><path d="M356 135 " style="stroke:gray;fill:none"/><path d="M367 133 365 135 367 133 369 133 " style="stroke:gray;fill:none"/><path d="M354 133 354 135 353 137 354 135 " style="stroke:gray;fill:none"/><path d="M184 132 " style="stroke:gray;fill:none"/><path d="M209 131 207 132 " style="stroke:gray;fill:none"/><path d="M197 130 " style="stroke:gray;fill:none"/><path d="M424 128 " style="stroke:gray;fill:none"/><path d="M360 128 358 129 357 132 362 136 363 141 361 143 358 144 355 145 351 146 347 147 342 148 337 148 333 149 332 150 322 150 314 152 311 151 298 153 280 154 232 153 230 153 227 153 222 152 216 152 211 151 208 150 206 148 205 146 206 144 208 143 211 140 210 135 206 135 203 136 201 137 199 139 194 141 192 143 191 146 191 148 192 151 195 154 203 158 206 159 209 160 213 161 218 162 223 163 231 164 239 165 248 166 250 166 254 165 288 166 289 165 293 165 296 165 306 165 315 164 322 163 326 162 327 161 332 161 337 160 342 159 346 158 350 157 353 155 356 155 359 153 362 153 372 148 378 142 378 137 373 132 369 130 366 129 363 128 " style="stroke:gray;fill:none"/><path d="M360 128 363 128 366 129 369 130 371 131 378 138 378 141 371 148 361 153 358 154 355 155 353 155 350 157 346 158 342 159 337 160 332 161 327 161 323 162 322 163 315 164 306 165 296 165 293 165 289 165 255 166 254 165 250 166 248 166 239 165 231 164 223 163 218 162 213 161 209 160 206 159 203 158 199 156 196 154 192 150 191 148 191 146 192 144 195 141 198 139 206 135 209 135 211 137 211 139 206 143 205 145 205 147 206 149 211 151 216 152 222 152 227 153 230 153 232 153 280 154 298 153 311 151 314 152 322 150 332 150 336 149 337 148 342 148 347 147 351 146 355 145 358 144 363 142 364 140 364 138 363 136 357 131 " style="stroke:gray;fill:none"/><path d="M197 128 " style="stroke:gray;fill:none"/><path d="M192 129 190 130 188 130 190 130 193 130 191 132 188 134 182 135 180 136 182 135 184 134 186 136 188 134 191 132 192 132 195 130 192 129 194 128 " style="stroke:gray;fill:none"/><path d="M346 127 346 135 348 135 346 134 " style="stroke:gray;fill:none"/><path d="M352 126 355 129 353 128 " style="stroke:gray;fill:none"/><path d="M204 126 203 128 " style="stroke:gray;fill:none"/><path d="M419 124 420 130 422 131 424 131 426 130 426 127 425 124 " style="stroke:gray;fill:none"/><path d="M420 124 425 125 426 127 426 129 424 131 422 131 419 128 " style="stroke:gray;fill:none"/><path d="M201 121 " style="stroke:gray;fill:none"/><path d="M207 120 " style="stroke:gray;fill:none"/><path d="M205 119 " style="stroke:gray;fill:none"/><path d="M245 116 " style="stroke:gray;fill:none"/><path d="M203 116 202 119 203 121 206 123 209 123 211 125 211 127 209 129 208 127 207 125 208 128 206 130 204 130 201 131 191 136 187 140 185 144 185 146 185 149 186 151 186 153 191 158 194 160 198 162 200 162 202 164 204 165 208 166 211 166 216 167 218 168 220 170 222 172 224 174 226 177 226 178 228 181 236 189 236 192 235 194 232 197 228 200 225 202 222 204 215 204 213 203 211 201 207 199 205 199 202 197 199 196 196 195 193 194 187 194 184 193 183 192 175 192 173 191 168 186 167 183 165 181 164 178 163 174 162 168 162 163 163 156 164 152 166 150 168 153 170 153 172 151 174 151 175 149 172 148 171 146 171 148 169 149 171 148 171 152 169 153 166 150 167 148 169 144 171 142 172 144 175 145 173 144 171 141 176 136 177 135 184 129 188 127 191 126 194 125 197 124 204 124 197 124 194 125 191 126 188 127 182 130 177 134 171 140 169 143 166 150 164 152 163 156 162 163 162 168 163 175 164 179 168 187 172 191 174 192 183 192 186 193 187 194 193 194 196 195 199 196 202 197 204 199 207 199 209 200 212 203 215 204 222 204 226 202 229 200 233 197 235 195 236 192 236 188 228 180 226 177 224 174 222 170 219 168 217 167 212 166 209 166 205 165 200 162 198 162 195 160 192 158 186 152 185 149 185 146 185 144 186 142 193 135 201 131 204 130 206 130 210 129 212 127 211 123 209 123 206 123 202 119 203 117 205 115 " style="stroke:gray;fill:none"/><path d="M175 149 173 151 " style="stroke:gray;fill:none"/><path d="M177 137 " style="stroke:gray;fill:none"/><path d="M217 114 218 116 218 118 216 120 212 119 210 119 212 119 216 121 217 123 217 125 216 129 215 133 213 133 215 133 216 129 217 125 217 123 216 120 218 118 220 114 " style="stroke:gray;fill:none"/><path d="M245 113 248 116 270 127 272 127 279 131 282 132 284 132 289 135 292 136 294 136 297 138 299 138 302 140 304 140 308 142 310 143 308 142 304 140 302 140 299 138 297 138 294 136 292 136 289 135 284 132 282 132 279 131 272 127 270 127 250 117 247 114 " style="stroke:gray;fill:none"/><path d="M204 113 " style="stroke:gray;fill:none"/><path d="M200 111 202 113 " style="stroke:gray;fill:none"/><path d="M341 107 341 109 343 112 343 116 344 119 345 120 345 122 345 120 344 117 343 116 343 112 341 109 " style="stroke:gray;fill:none"/><path d="M246 105 250 105 258 109 260 111 270 116 272 116 281 121 283 121 286 123 289 124 291 124 296 127 298 127 301 128 306 131 308 131 311 133 313 133 320 137 322 137 324 139 323 142 325 139 326 142 326 139 324 138 322 137 320 137 313 133 311 133 308 131 306 131 301 128 299 128 296 127 291 124 289 124 286 123 283 121 281 121 272 116 270 116 262 112 260 110 250 105 " style="stroke:gray;fill:none"/><path d="M336 102 " style="stroke:gray;fill:none"/><path d="M246 102 " style="stroke:gray;fill:none"/><path d="M190 103 " style="stroke:gray;fill:none"/><path d="M187 93 " style="stroke:gray;fill:none"/><path d="M159 92 156 95 " style="stroke:gray;fill:none"/><path d="M162 91 " style="stroke:gray;fill:none"/><path d="M175 90 " style="stroke:gray;fill:none"/><path d="M160 90 " style="stroke:gray;fill:none"/><path d="M251 89 " style="stroke:gray;fill:none"/><path d="M369 88 " style="stroke:gray;fill:none"/><path d="M197 88 195 91 199 87 201 87 " style="stroke:gray;fill:none"/><path d="M169 87 " style="stroke:gray;fill:none"/><path d="M154 92 152 95 150 99 149 102 148 105 147 109 147 124 148 128 149 132 151 134 153 139 155 142 159 144 162 143 164 141 168 136 168 135 174 129 178 126 181 124 187 121 191 120 195 120 199 116 198 112 191 106 185 101 182 99 181 99 177 95 173 92 170 91 167 88 165 87 162 87 " style="stroke:gray;fill:none"/><path d="M162 87 165 87 169 90 172 92 176 95 180 98 184 101 190 106 197 112 199 114 199 116 195 120 191 120 187 121 179 125 176 127 173 129 168 134 165 138 165 139 161 143 159 144 157 143 154 140 152 137 149 131 148 128 147 124 147 109 148 105 149 102 152 96 154 93 159 87 " style="stroke:gray;fill:none"/><path d="M166 85 " style="stroke:gray;fill:none"/><path d="M369 84 367 85 367 91 369 91 371 90 372 86 371 84 " style="stroke:gray;fill:none"/><path d="M370 84 372 86 372 88 368 91 366 89 366 87 " style="stroke:gray;fill:none"/><path d="M164 83 " style="stroke:gray;fill:none"/><path d="M172 82 " style="stroke:gray;fill:none"/><path d="M259 79 256 81 259 80 264 83 267 84 270 85 273 86 276 87 279 88 282 89 285 90 288 91 291 92 294 93 297 94 299 94 302 95 305 96 308 97 311 98 314 99 317 100 320 101 323 102 326 103 329 104 332 105 336 107 339 111 339 115 337 117 335 117 332 116 329 115 326 114 323 113 320 112 317 111 314 110 311 109 308 108 304 107 301 105 298 105 295 104 292 103 289 101 286 100 283 100 280 99 277 97 275 97 272 96 269 95 266 94 263 93 260 91 258 91 255 90 252 87 252 85 252 87 253 89 255 90 257 90 260 91 263 93 265 93 268 94 271 95 274 96 277 97 280 99 283 100 286 100 289 101 292 103 295 104 298 105 301 105 304 107 307 107 310 108 313 109 316 110 319 111 322 112 325 113 328 114 331 115 334 116 337 117 340 119 342 121 343 123 343 136 344 138 343 136 343 122 342 120 339 118 337 117 339 116 339 110 335 106 338 104 336 104 332 105 330 105 327 104 324 103 321 102 318 101 315 100 312 99 309 98 306 97 303 96 300 95 297 94 294 93 291 92 288 91 285 90 282 89 279 88 276 87 273 86 270 85 267 84 264 83 261 81 " style="stroke:gray;fill:none"/><path d="M162 76 " style="stroke:gray;fill:none"/><path d="M179 77 177 78 180 79 179 77 181 74 " style="stroke:gray;fill:none"/><path d="M156 74 " style="stroke:gray;fill:none"/><path d="M254 74 251 75 253 74 254 74 256 73 " style="stroke:gray;fill:none"/><path d="M151 73 150 75 152 75 " style="stroke:gray;fill:none"/><path d="M258 73 " style="stroke:gray;fill:none"/><path d="M187 72 183 74 183 78 186 81 190 84 194 84 195 82 195 78 194 76 191 73 189 72 " style="stroke:gray;fill:none"/><path d="M187 72 189 72 195 78 195 82 193 84 191 84 187 81 183 77 183 75 185 73 " style="stroke:gray;fill:none"/><path d="M276 70 271 71 267 72 263 73 260 74 257 76 255 77 254 80 252 81 250 83 249 85 249 87 247 90 247 93 245 96 244 99 243 105 242 113 242 126 243 130 244 134 245 137 246 140 248 144 251 147 231 148 223 147 219 143 218 141 218 129 219 123 220 119 221 116 222 113 228 101 231 97 247 81 250 79 252 78 249 79 246 81 231 96 228 100 228 102 226 104 226 106 222 113 222 115 220 118 219 123 218 129 218 142 219 144 222 147 231 148 255 149 263 149 287 148 304 147 312 146 315 146 318 146 324 145 325 144 332 144 338 143 343 142 347 141 349 139 350 137 350 124 349 120 348 116 347 113 345 110 345 108 343 106 341 101 339 98 336 94 332 89 329 86 325 83 321 80 309 74 306 73 302 72 298 71 293 70 " style="stroke:gray;fill:none"/><path d="M277 70 292 70 297 71 301 72 305 73 308 74 320 80 324 83 328 86 332 90 336 95 339 99 341 102 343 105 347 113 348 116 349 120 350 124 350 136 349 138 346 141 343 142 338 143 332 144 325 144 319 145 318 146 315 146 312 146 303 147 287 148 263 149 255 149 251 147 247 142 246 140 245 137 244 134 243 130 242 126 242 113 243 106 244 99 245 96 247 93 247 90 249 87 249 85 255 79 259 76 261 74 264 73 268 72 272 71 " style="stroke:gray;fill:none"/><path d="M151 70 149 71 147 73 146 75 148 79 146 81 147 83 148 85 151 85 153 84 154 82 151 85 149 85 147 83 146 81 148 79 152 79 155 77 159 77 164 80 166 80 170 83 175 87 179 90 183 93 187 96 192 100 198 105 204 111 210 116 215 115 215 113 214 111 203 100 197 95 194 93 190 90 186 87 183 85 180 83 175 81 173 79 170 78 168 76 162 73 160 73 157 71 154 70 " style="stroke:gray;fill:none"/><path d="M151 70 154 70 159 73 161 73 171 78 173 80 178 82 181 84 184 86 188 89 192 92 196 95 202 100 211 109 214 112 215 114 213 116 211 116 206 111 199 105 193 100 188 96 184 93 180 90 176 87 172 84 168 81 160 77 154 77 152 79 149 79 147 77 146 75 " style="stroke:gray;fill:none"/><path d="M266 69 " style="stroke:gray;fill:none"/><path d="M197 69 196 72 194 73 196 72 " style="stroke:gray;fill:none"/><path d="M273 68 " style="stroke:gray;fill:none"/><path d="M282 66 285 67 " style="stroke:gray;fill:none"/><path d="M60 60 60 62 62 66 64 66 67 65 67 60 65 59 " style="stroke:gray;fill:none"/><path d="M62 59 65 59 67 61 66 65 64 66 61 65 61 63 60 61 " style="stroke:gray;fill:none"/><path d="M257 31 257 33 264 38 271 45 273 50 275 52 276 54 276 56 277 58 279 60 279 58 276 56 276 54 274 50 272 48 272 46 271 44 265 38 259 33 " style="stroke:gray;fill:none"/><path d="M235 25 231 26 228 27 225 28 217 32 213 35 208 40 206 43 205 46 203 48 202 50 201 53 200 56 199 60 199 74 200 78 201 81 204 86 204 88 206 91 210 96 212 98 216 101 221 101 224 98 227 94 227 93 232 87 235 84 241 79 244 77 248 74 251 72 253 71 255 71 258 69 261 68 264 67 271 65 277 65 279 64 281 63 282 61 282 58 281 54 278 49 278 47 276 44 274 41 266 33 263 31 261 31 259 30 257 28 255 27 252 26 248 25 " style="stroke:gray;fill:none"/><path d="M236 25 247 25 251 26 254 27 262 31 265 33 274 42 277 46 281 54 282 58 282 60 279 63 277 65 271 65 264 67 261 68 258 69 255 71 253 71 249 73 246 75 243 77 239 80 234 84 232 86 227 92 225 95 225 96 220 101 217 101 213 98 210 95 206 90 204 87 201 81 200 78 199 74 199 60 200 56 201 53 204 47 206 44 208 41 214 35 218 32 226 28 229 27 232 26 " style="stroke:gray;fill:none"/><path d="M338 24 338 29 344 28 343 24 " style="stroke:gray;fill:none"/><path d="M339 24 342 24 344 27 342 29 338 28 " style="stroke:gray;fill:none"/></svg>