<svg width="429px" height="547px" xmlns="http://www.w3.org/2000/svg"><path d="M155 522 155 524 157 524 157 522 " style="stroke:gray;fill:none"/><path d="M156 524 " style="stroke:gray;fill:none"/><path d="M90 512 92 513 90 512 92 511 " style="stroke:gray;fill:none"/><path d="M84 500 83 502 84 500 85 502 " style="stroke:gray;fill:none"/><path d="M179 487 178 490 179 487 180 489 " style="stroke:gray;fill:none"/><path d="M145 485 143 488 141 488 139 489 138 491 138 493 140 495 140 497 144 505 146 508 158 520 161 522 165 524 170 524 172 523 174 522 175 520 175 518 176 515 177 514 177 504 176 501 175 497 173 494 171 492 173 495 169 496 166 497 165 498 162 499 156 499 153 498 151 497 145 491 143 490 141 491 139 494 138 491 141 488 143 488 145 487 " style="stroke:gray;fill:none"/><path d="M174 501 177 504 177 514 176 517 172 522 170 524 166 524 162 522 159 520 149 510 149 507 153 503 157 505 166 505 170 503 " style="stroke:gray;fill:none"/><path d="M143 490 149 496 153 498 156 499 162 499 165 498 166 497 169 496 173 496 175 498 174 501 172 500 168 504 166 505 157 505 153 503 151 504 149 506 148 510 147 508 146 506 144 504 140 496 140 493 " style="stroke:gray;fill:none"/><path d="M142 485 " style="stroke:gray;fill:none"/><path d="M138 484 140 485 " style="stroke:gray;fill:none"/><path d="M133 482 133 491 135 491 135 485 133 484 " style="stroke:gray;fill:none"/><path d="M134 488 134 491 " style="stroke:gray;fill:none"/><path d="M134 485 134 488 " style="stroke:gray;fill:none"/><path d="M136 483 137 481 141 481 143 482 " style="stroke:gray;fill:none"/><path d="M283 477 284 479 " style="stroke:gray;fill:none"/><path d="M286 477 " style="stroke:gray;fill:none"/><path d="M130 474 133 479 141 479 141 477 136 477 133 474 " style="stroke:gray;fill:none"/><path d="M130 475 133 474 135 477 141 478 134 479 " style="stroke:gray;fill:none"/><path d="M27 473 25 475 27 477 31 477 33 476 32 473 30 475 30 473 " style="stroke:gray;fill:none"/><path d="M26 476 " style="stroke:gray;fill:none"/><path d="M30 474 31 476 27 476 " style="stroke:gray;fill:none"/><path d="M104 470 102 471 100 473 98 473 92 479 93 481 90 485 89 488 88 491 88 502 91 505 93 507 97 507 101 506 104 505 118 498 121 496 123 495 126 491 129 488 129 481 126 479 124 479 116 480 112 479 108 477 106 475 103 474 101 472 " style="stroke:gray;fill:none"/><path d="M94 481 97 484 101 489 105 490 114 490 117 489 121 487 123 486 127 490 125 491 123 493 119 496 117 498 103 505 100 506 97 507 94 507 92 506 89 503 88 501 88 491 89 488 90 485 " style="stroke:gray;fill:none"/><path d="M99 473 102 473 104 474 106 476 112 479 116 480 123 480 125 479 128 481 129 487 127 490 126 488 124 487 121 487 117 489 114 490 105 490 102 489 96 482 94 481 92 480 " style="stroke:gray;fill:none"/><path d="M178 464 177 466 179 469 177 466 178 464 180 462 " style="stroke:gray;fill:none"/><path d="M179 459 176 460 173 463 173 467 176 470 178 472 182 473 186 473 188 471 189 469 189 466 188 464 185 461 181 459 " style="stroke:gray;fill:none"/><path d="M179 459 181 459 183 460 189 466 189 469 185 473 182 473 179 472 176 470 174 468 173 466 173 464 177 460 " style="stroke:gray;fill:none"/><path d="M121 457 122 459 122 465 121 469 118 472 121 470 122 465 " style="stroke:gray;fill:none"/><path d="M102 447 101 449 102 460 103 464 104 466 110 472 112 473 115 474 122 474 125 473 128 470 129 468 130 464 131 459 131 456 130 454 125 453 118 454 115 453 113 452 110 450 106 446 " style="stroke:gray;fill:none"/><path d="M105 446 109 450 112 452 114 453 118 454 125 453 128 453 130 455 131 457 131 459 130 464 129 467 128 469 124 473 122 474 115 474 111 472 104 465 103 463 102 460 101 449 " style="stroke:gray;fill:none"/><path d="M123 440 123 443 120 446 122 445 " style="stroke:gray;fill:none"/><path d="M353 437 353 439 355 437 357 439 355 440 353 441 356 443 354 443 357 443 356 437 " style="stroke:gray;fill:none"/><path d="M116 434 114 434 112 435 110 437 110 442 115 447 119 448 124 448 126 446 127 444 127 441 126 439 121 434 119 434 " style="stroke:gray;fill:none"/><path d="M116 434 120 434 127 441 127 443 126 445 123 448 119 448 116 447 110 441 110 438 113 435 " style="stroke:gray;fill:none"/><path d="M181 428 178 429 174 431 171 434 169 438 168 442 168 452 170 454 168 452 168 442 169 438 170 436 176 430 178 429 181 428 183 428 188 429 191 430 193 431 197 435 195 432 191 430 188 429 183 428 " style="stroke:gray;fill:none"/><path d="M98 401 100 402 98 401 100 400 " style="stroke:gray;fill:none"/><path d="M103 399 103 401 108 401 " style="stroke:gray;fill:none"/><path d="M279 387 279 390 283 390 283 386 " style="stroke:gray;fill:none"/><path d="M283 387 282 390 279 388 " style="stroke:gray;fill:none"/><path d="M217 387 216 389 215 392 216 394 215 397 213 401 213 404 212 408 211 409 210 413 209 416 208 420 207 424 207 427 209 429 212 429 213 427 214 425 215 421 216 417 217 412 217 408 218 404 219 399 220 394 222 392 223 388 220 386 " style="stroke:gray;fill:none"/><path d="M218 393 220 395 220 398 219 403 218 407 217 412 216 417 215 421 214 424 212 428 210 429 207 426 207 424 208 420 209 416 210 413 211 409 212 405 213 401 214 398 215 395 " style="stroke:gray;fill:none"/><path d="M220 386 222 388 222 391 221 393 218 393 215 392 216 389 " style="stroke:gray;fill:none"/><path d="M226 384 226 386 228 386 228 384 " style="stroke:gray;fill:none"/><path d="M227 386 " style="stroke:gray;fill:none"/><path d="M107 383 106 385 106 389 105 394 104 395 105 398 108 399 110 397 111 395 112 392 112 386 111 383 " style="stroke:gray;fill:none"/><path d="M108 383 111 384 112 386 112 392 110 396 108 398 106 398 105 394 105 390 106 385 " style="stroke:gray;fill:none"/><path d="M228 380 " style="stroke:gray;fill:none"/><path d="M225 377 226 380 225 377 227 376 " style="stroke:gray;fill:none"/><path d="M189 376 187 377 " style="stroke:gray;fill:none"/><path d="M139 376 137 377 133 381 132 383 132 385 132 388 132 390 135 396 137 399 139 401 143 404 146 406 156 411 160 412 164 413 169 414 180 414 187 413 191 412 194 411 197 410 200 408 203 407 204 405 201 408 197 410 194 411 191 412 187 413 180 414 169 414 164 413 160 412 156 411 148 407 145 405 141 402 136 397 134 394 132 390 132 388 132 385 132 383 " style="stroke:gray;fill:none"/><path d="M27 367 25 369 25 373 27 375 31 375 33 373 33 370 31 368 29 367 " style="stroke:gray;fill:none"/><path d="M29 367 33 372 30 375 28 375 25 372 25 370 " style="stroke:gray;fill:none"/><path d="M159 368 161 366 " style="stroke:gray;fill:none"/><path d="M118 366 115 370 112 371 110 371 112 371 115 370 117 369 " style="stroke:gray;fill:none"/><path d="M152 363 151 367 155 367 154 364 " style="stroke:gray;fill:none"/><path d="M152 363 154 364 154 367 150 365 " style="stroke:gray;fill:none"/><path d="M186 359 185 361 186 365 185 361 188 359 190 362 188 365 190 363 189 359 " style="stroke:gray;fill:none"/><path d="M172 353 170 354 169 356 169 358 168 360 163 361 161 359 159 356 156 359 154 359 152 357 148 357 145 358 144 361 142 363 139 365 137 366 134 362 135 365 138 366 141 363 142 366 143 368 147 372 153 375 155 376 153 375 149 373 142 366 142 364 144 360 147 357 150 356 153 359 157 359 161 357 161 359 163 361 168 361 168 359 169 356 " style="stroke:gray;fill:none"/><path d="M139 352 " style="stroke:gray;fill:none"/><path d="M247 350 249 351 247 350 249 349 " style="stroke:gray;fill:none"/><path d="M190 349 191 352 177 353 173 355 171 359 171 364 169 371 165 371 159 370 157 372 157 375 159 377 162 378 165 379 183 379 185 377 185 373 184 371 187 368 188 372 189 374 191 375 193 375 196 372 197 370 198 365 199 359 199 356 195 352 190 351 " style="stroke:gray;fill:none"/><path d="M191 352 194 352 196 353 198 355 199 357 199 359 198 365 197 370 191 375 188 372 185 369 185 373 185 376 182 379 165 379 162 378 160 377 157 374 157 372 159 370 164 370 170 371 170 365 171 359 172 357 175 354 177 353 " style="stroke:gray;fill:none"/><path d="M330 339 331 342 335 341 333 339 " style="stroke:gray;fill:none"/><path d="M332 338 334 341 332 342 330 340 " style="stroke:gray;fill:none"/><path d="M103 331 98 337 96 340 94 344 93 347 92 351 92 358 93 361 94 364 101 371 103 372 108 373 117 373 119 372 122 369 122 366 121 364 118 363 111 356 109 353 109 352 105 348 105 346 107 344 108 342 107 330 " style="stroke:gray;fill:none"/><path d="M106 330 108 332 108 342 106 344 105 346 105 349 109 353 111 356 111 357 117 363 119 363 121 365 122 368 117 373 108 373 104 372 102 371 94 363 93 361 92 358 92 351 93 347 96 341 98 338 103 332 " style="stroke:gray;fill:none"/><path d="M243 327 239 328 236 329 224 335 221 337 216 341 210 347 209 350 218 340 223 336 226 334 236 329 239 328 243 327 246 327 248 328 250 331 248 328 246 327 " style="stroke:gray;fill:none"/><path d="M125 326 121 327 118 328 115 331 114 333 114 349 115 352 116 354 119 357 123 359 126 360 131 360 135 359 138 357 140 355 141 352 142 350 140 348 142 346 143 348 141 345 145 345 147 347 147 350 146 352 147 350 147 346 144 344 141 344 140 348 138 348 135 345 135 342 136 338 137 337 137 334 137 331 137 329 135 327 132 326 " style="stroke:gray;fill:none"/><path d="M125 326 132 326 134 327 137 330 137 334 137 337 136 341 135 342 135 346 137 348 140 348 141 353 136 358 134 359 131 360 126 360 123 359 120 357 115 352 114 349 114 334 115 332 119 328 121 327 " style="stroke:gray;fill:none"/><path d="M140 320 " style="stroke:gray;fill:none"/><path d="M202 316 202 318 198 322 194 325 191 327 187 329 185 329 182 331 180 331 182 331 185 329 187 329 193 326 196 324 200 321 202 319 " style="stroke:gray;fill:none"/><path d="M234 315 232 316 224 324 220 327 216 330 206 335 203 336 199 337 195 338 190 337 190 335 191 338 184 340 162 339 156 339 154 340 154 344 157 345 159 346 164 347 183 348 183 351 183 349 185 347 191 347 200 345 203 346 206 349 206 354 205 358 204 359 204 364 203 370 202 374 201 376 196 381 192 383 188 384 184 385 165 385 161 384 157 383 154 382 144 377 134 367 131 367 128 370 123 376 122 376 119 379 117 383 118 391 118 394 117 397 116 399 112 403 112 405 110 409 108 411 107 414 106 417 105 420 104 424 104 427 106 431 110 430 112 428 116 427 118 427 121 428 125 430 131 436 133 440 135 439 137 440 140 437 142 434 145 430 145 423 143 420 145 418 146 421 149 421 151 421 153 423 157 424 160 425 163 425 160 427 161 429 159 430 158 432 157 435 157 450 156 455 155 459 154 462 153 465 148 474 147 477 147 484 148 486 150 489 153 492 156 493 162 493 165 492 171 489 174 487 178 483 178 480 175 477 168 470 167 468 167 466 167 463 168 460 172 456 176 454 184 454 189 457 192 457 194 455 196 451 197 448 198 445 199 441 200 435 200 430 201 424 202 420 203 417 204 413 205 412 205 409 206 404 207 401 208 398 209 397 209 394 210 390 211 387 213 383 220 376 233 364 238 358 240 355 243 351 245 348 247 345 249 341 249 339 252 334 253 331 253 327 250 324 248 323 246 323 242 320 238 316 236 315 " style="stroke:gray;fill:none"/><path d="M234 315 236 315 241 320 244 322 246 323 248 323 253 328 253 331 251 334 251 336 247 344 245 347 243 350 240 354 238 357 233 363 219 376 213 382 212 384 211 387 210 390 209 394 209 397 208 400 207 401 206 404 205 409 205 412 204 416 203 417 202 420 201 424 200 430 200 435 199 441 198 445 197 448 196 451 195 453 191 457 189 457 187 455 184 454 176 454 173 455 171 456 168 459 167 461 167 463 167 466 167 468 168 471 170 473 167 474 164 477 161 480 159 484 159 488 162 490 159 487 159 484 160 482 163 478 167 474 170 473 173 476 178 480 178 482 173 487 170 489 162 493 156 493 154 492 149 487 147 484 147 477 153 466 154 463 155 459 156 455 157 450 157 435 160 430 163 429 162 424 157 424 154 423 148 420 145 418 143 419 143 421 145 424 145 429 142 433 140 436 136 440 134 440 132 438 130 435 127 431 129 430 131 429 132 427 132 420 131 417 129 413 126 410 120 407 117 406 114 407 117 406 120 407 124 409 130 415 131 417 132 420 132 427 129 430 127 431 125 430 121 428 118 427 116 427 112 428 109 430 105 429 104 427 104 424 105 420 106 417 107 414 108 412 110 410 111 408 111 406 112 404 115 401 117 397 118 394 118 391 117 383 118 381 124 376 128 372 133 367 143 377 145 378 147 378 154 382 157 383 161 384 165 385 184 385 188 384 192 383 195 382 197 381 201 377 202 374 203 370 204 364 204 359 205 356 206 355 206 348 204 346 200 345 192 346 185 347 182 347 164 347 159 346 155 344 154 341 156 339 162 339 184 340 190 339 195 338 199 337 203 336 206 335 218 329 221 327 225 324 " style="stroke:gray;fill:none"/><path d="M138 307 " style="stroke:gray;fill:none"/><path d="M229 301 226 302 224 304 221 305 219 307 215 309 213 309 210 311 207 312 204 313 201 314 198 315 194 316 189 317 184 318 174 319 154 319 141 318 137 317 136 316 133 316 131 318 132 320 134 321 137 321 142 325 147 330 150 331 153 332 157 333 160 334 177 335 177 338 178 334 184 334 191 333 194 332 198 331 201 330 204 329 211 325 213 325 216 323 220 320 229 311 231 308 233 304 233 302 231 300 " style="stroke:gray;fill:none"/><path d="M133 316 136 316 138 318 137 320 134 321 131 318 " style="stroke:gray;fill:none"/><path d="M228 301 231 301 233 304 231 306 229 309 229 310 219 320 215 323 212 325 204 329 201 330 198 331 194 332 191 333 184 334 177 335 160 334 157 333 153 332 150 331 148 330 142 325 137 319 141 318 154 319 174 319 184 318 189 317 194 316 198 315 201 314 204 313 207 312 210 311 213 309 215 309 223 305 225 303 " style="stroke:gray;fill:none"/><path d="M239 299 239 301 241 301 241 299 " style="stroke:gray;fill:none"/><path d="M240 301 " style="stroke:gray;fill:none"/><path d="M92 292 " style="stroke:gray;fill:none"/><path d="M246 291 244 293 244 297 247 300 251 300 252 300 253 295 249 291 " style="stroke:gray;fill:none"/><path d="M248 291 253 296 253 298 249 301 244 296 244 294 " style="stroke:gray;fill:none"/><path d="M92 290 " style="stroke:gray;fill:none"/><path d="M102 282 99 283 " style="stroke:gray;fill:none"/><path d="M260 281 257 282 255 284 255 287 257 291 259 293 260 295 261 298 261 301 260 303 256 307 246 306 244 307 243 312 246 315 252 318 255 319 261 319 264 318 267 317 269 316 273 313 274 310 276 308 278 304 279 301 279 294 278 291 277 288 272 283 269 282 266 281 " style="stroke:gray;fill:none"/><path d="M260 281 266 281 269 282 271 283 277 289 278 291 279 294 279 301 278 304 277 306 274 309 274 311 272 313 268 316 264 318 261 319 255 319 252 318 248 316 242 310 246 306 257 307 259 305 261 307 262 309 264 310 271 310 264 310 259 305 261 301 261 298 260 294 259 292 256 289 255 287 255 285 258 282 " style="stroke:gray;fill:none"/><path d="M110 281 112 282 " style="stroke:gray;fill:none"/><path d="M232 276 232 287 233 289 236 289 239 286 237 287 234 289 232 287 " style="stroke:gray;fill:none"/><path d="M139 272 137 273 137 281 144 280 145 278 145 276 144 274 141 272 " style="stroke:gray;fill:none"/><path d="M139 272 141 272 144 275 144 279 142 281 138 281 136 279 136 275 " style="stroke:gray;fill:none"/><path d="M235 270 234 272 233 274 235 274 235 276 234 283 235 285 237 285 240 282 240 280 239 275 241 273 241 271 239 269 " style="stroke:gray;fill:none"/><path d="M238 269 241 272 239 275 239 279 240 281 236 285 234 283 235 276 234 273 235 271 " style="stroke:gray;fill:none"/><path d="M97 262 97 264 96 267 95 268 95 281 96 285 97 288 98 291 100 295 102 297 104 298 107 297 107 292 106 288 105 283 104 282 103 276 103 270 101 262 " style="stroke:gray;fill:none"/><path d="M97 263 100 262 102 264 102 269 103 276 104 282 105 287 106 288 107 292 107 296 105 298 103 297 100 294 97 288 96 285 95 281 95 268 96 265 " style="stroke:gray;fill:none"/><path d="M234 255 235 257 234 260 235 267 234 260 235 257 " style="stroke:gray;fill:none"/><path d="M249 253 252 253 " style="stroke:gray;fill:none"/><path d="M273 252 272 254 273 252 274 254 " style="stroke:gray;fill:none"/><path d="M111 251 111 253 109 255 108 259 108 265 109 268 112 271 112 278 114 281 114 285 112 287 112 290 113 293 115 296 115 298 116 301 117 303 119 306 122 308 128 307 129 305 128 302 126 300 124 296 124 294 123 291 121 287 119 284 117 283 116 281 115 274 115 269 117 267 117 253 114 250 " style="stroke:gray;fill:none"/><path d="M113 250 117 254 117 266 115 268 115 275 116 282 117 284 119 286 122 289 123 291 124 294 124 296 128 303 129 305 126 308 123 308 121 306 119 304 117 302 115 298 115 296 113 293 112 290 112 288 114 286 114 280 112 277 112 270 109 267 108 265 108 259 109 256 111 252 " style="stroke:gray;fill:none"/><path d="M124 245 " style="stroke:gray;fill:none"/><path d="M118 244 " style="stroke:gray;fill:none"/><path d="M26 245 28 243 29 247 26 247 30 247 29 243 " style="stroke:gray;fill:none"/><path d="M116 244 118 242 " style="stroke:gray;fill:none"/><path d="M131 238 " style="stroke:gray;fill:none"/><path d="M230 237 230 241 230 244 231 249 234 252 236 252 238 254 239 258 240 267 239 258 238 254 237 252 239 250 239 248 238 245 236 243 236 240 233 237 " style="stroke:gray;fill:none"/><path d="M232 237 236 241 236 244 238 246 239 249 235 252 231 248 230 243 229 239 " style="stroke:gray;fill:none"/><path d="M388 236 386 238 386 241 389 241 389 239 387 237 390 236 392 238 392 242 390 244 386 243 392 243 392 237 390 236 " style="stroke:gray;fill:none"/><path d="M386 240 " style="stroke:gray;fill:none"/><path d="M243 236 243 238 242 240 244 242 245 245 246 249 247 252 247 261 249 273 251 272 253 274 252 276 252 273 255 268 255 254 254 249 253 245 252 242 250 239 247 236 " style="stroke:gray;fill:none"/><path d="M243 237 246 236 250 240 252 243 253 245 254 249 255 254 255 267 254 270 252 272 250 273 248 271 247 261 247 252 246 249 245 245 243 241 242 239 " style="stroke:gray;fill:none"/><path d="M284 235 285 238 283 239 282 241 281 243 281 246 278 248 277 252 276 247 276 253 278 254 278 249 281 246 281 243 282 241 286 237 286 235 " style="stroke:gray;fill:none"/><path d="M285 235 285 238 " style="stroke:gray;fill:none"/><path d="M152 234 149 235 147 236 143 240 142 242 141 245 141 253 142 256 143 258 148 263 151 264 162 264 166 262 169 259 171 255 172 252 172 247 171 243 170 241 164 235 161 234 " style="stroke:gray;fill:none"/><path d="M152 234 161 234 163 235 171 243 172 247 172 252 171 255 170 257 165 262 162 264 151 264 149 263 142 256 141 253 141 245 142 242 149 235 " style="stroke:gray;fill:none"/><path d="M278 233 277 236 276 239 275 240 274 243 274 247 274 243 275 240 276 237 278 233 278 238 278 240 278 238 280 235 281 237 282 235 280 235 " style="stroke:gray;fill:none"/><path d="M310 230 304 233 302 234 302 236 306 236 308 238 312 237 314 237 324 238 325 237 329 237 342 238 343 239 350 239 350 235 348 233 342 230 334 230 332 231 329 234 326 234 319 230 " style="stroke:gray;fill:none"/><path d="M310 230 319 230 321 231 323 233 326 234 329 234 331 233 334 230 342 230 346 232 349 234 349 239 343 239 330 238 329 237 325 237 315 238 314 237 312 237 308 238 306 236 302 235 304 233 306 233 308 231 " style="stroke:gray;fill:none"/><path d="M238 231 " style="stroke:gray;fill:none"/><path d="M233 227 234 230 236 231 234 227 237 227 239 228 " style="stroke:gray;fill:none"/><path d="M113 227 116 228 115 226 " style="stroke:gray;fill:none"/><path d="M113 227 116 227 " style="stroke:gray;fill:none"/><path d="M169 225 165 226 164 227 157 227 154 228 147 231 146 230 142 233 140 234 138 234 135 236 133 237 135 236 138 234 140 234 145 231 148 230 151 229 154 228 157 227 164 227 168 226 169 225 189 225 192 226 194 227 197 229 206 238 209 244 210 248 211 254 211 258 211 261 211 263 211 266 210 268 210 270 209 273 207 276 203 276 201 280 200 282 201 280 202 278 207 276 206 278 205 280 202 284 200 286 199 284 200 287 197 290 193 292 191 293 188 297 186 298 184 298 182 300 179 301 176 304 168 308 166 308 163 310 160 311 155 312 148 313 142 312 140 311 137 309 135 307 136 305 132 298 128 290 128 288 127 286 127 283 126 281 127 283 127 286 128 288 128 290 135 303 136 305 133 305 129 296 128 294 129 296 129 298 131 302 133 305 136 309 139 311 141 312 148 313 155 312 160 311 163 310 166 308 169 308 171 306 178 303 181 300 185 300 191 300 184 299 186 298 189 296 196 298 199 296 204 294 207 292 210 289 212 286 215 280 216 275 216 268 213 265 211 263 211 261 211 258 211 254 210 248 209 244 208 241 206 239 205 236 199 230 196 228 192 226 189 225 " style="stroke:gray;fill:none"/><path d="M211 266 215 266 216 268 216 275 215 280 213 284 211 287 205 293 202 295 199 296 196 298 190 295 193 292 196 291 198 289 201 285 205 281 206 278 208 276 209 273 209 271 210 268 " style="stroke:gray;fill:none"/><path d="M169 221 164 222 159 223 156 224 153 225 150 226 147 227 138 232 136 232 132 232 134 233 132 234 130 236 127 238 126 238 123 241 122 243 122 245 122 248 123 265 122 270 121 267 121 269 123 271 122 274 124 277 123 279 124 284 123 279 126 279 123 276 122 274 123 271 125 273 124 271 122 270 123 264 123 248 122 245 122 243 129 239 125 243 128 238 131 235 147 227 150 226 153 225 156 224 159 223 164 222 169 221 190 221 193 222 194 223 199 223 204 224 208 225 212 226 214 227 217 229 221 233 221 235 223 238 224 241 225 245 226 249 227 254 228 260 228 282 227 288 226 291 225 294 224 296 220 300 215 302 213 304 211 305 208 306 205 307 202 308 198 309 195 310 191 311 186 312 178 313 165 314 159 314 157 313 159 314 165 314 178 313 186 312 191 311 195 310 199 309 202 308 205 307 208 306 211 305 213 304 216 304 217 301 219 301 221 300 223 298 225 295 226 292 227 288 228 282 229 275 229 273 229 270 228 260 227 254 226 249 225 245 224 241 223 238 221 235 221 233 220 231 217 229 217 227 214 227 212 226 209 226 204 224 207 223 205 223 199 223 203 222 200 222 194 223 191 222 190 221 " style="stroke:gray;fill:none"/><path d="M226 220 228 223 228 227 230 230 232 233 230 234 228 235 227 238 230 234 232 234 234 235 231 232 229 229 228 227 228 223 " style="stroke:gray;fill:none"/><path d="M266 219 266 221 268 221 268 219 " style="stroke:gray;fill:none"/><path d="M267 221 " style="stroke:gray;fill:none"/><path d="M263 219 262 228 264 227 262 227 263 219 264 224 266 226 264 223 " style="stroke:gray;fill:none"/><path d="M217 213 223 219 224 221 219 223 217 223 214 222 211 221 210 220 207 219 203 218 197 217 191 216 170 216 164 217 158 218 154 219 151 220 148 221 145 223 142 223 140 225 132 229 130 229 127 231 125 233 122 235 119 237 117 238 115 236 115 233 117 230 115 232 116 238 118 238 120 237 122 235 126 232 129 231 131 229 143 223 145 223 148 221 151 220 154 219 158 218 164 217 170 216 191 216 197 217 203 218 207 219 210 220 213 221 214 222 217 223 220 224 222 224 224 222 224 220 223 218 " style="stroke:gray;fill:none"/><path d="M363 212 362 215 354 222 354 224 356 226 367 225 367 217 365 212 " style="stroke:gray;fill:none"/><path d="M364 212 366 214 367 217 367 224 365 226 356 226 354 223 356 221 361 217 363 214 " style="stroke:gray;fill:none"/><path d="M216 208 217 210 221 210 221 208 " style="stroke:gray;fill:none"/><path d="M216 209 221 209 " style="stroke:gray;fill:none"/><path d="M280 203 278 205 276 205 278 207 276 206 278 205 280 203 283 203 286 206 282 207 280 206 282 208 282 210 283 208 283 212 281 212 278 215 277 217 277 222 279 224 284 224 289 227 291 228 289 227 284 224 279 224 277 222 277 217 278 215 280 213 283 212 285 211 287 213 289 213 292 216 293 219 293 227 293 219 292 216 291 214 288 213 286 212 284 210 284 208 286 207 285 204 283 203 " style="stroke:gray;fill:none"/><path d="M248 204 248 206 249 208 248 206 250 203 " style="stroke:gray;fill:none"/><path d="M167 202 170 202 174 203 177 204 180 205 186 208 189 210 191 212 191 214 191 211 188 209 180 205 177 204 174 203 170 202 " style="stroke:gray;fill:none"/><path d="M322 202 322 205 324 207 327 207 327 203 325 201 " style="stroke:gray;fill:none"/><path d="M325 201 327 203 325 207 322 203 " style="stroke:gray;fill:none"/><path d="M271 201 277 202 " style="stroke:gray;fill:none"/><path d="M264 201 262 202 262 204 268 204 270 203 268 202 " style="stroke:gray;fill:none"/><path d="M264 201 267 201 269 203 262 203 " style="stroke:gray;fill:none"/><path d="M250 199 " style="stroke:gray;fill:none"/><path d="M208 199 211 202 209 203 213 203 216 203 219 205 222 204 224 203 226 201 228 200 225 202 222 204 219 205 216 203 213 203 210 201 " style="stroke:gray;fill:none"/><path d="M166 199 163 201 157 201 153 202 150 203 147 205 145 205 135 210 131 213 127 216 122 221 119 225 118 228 119 226 122 222 128 216 132 213 136 210 139 208 145 205 147 205 150 203 153 202 157 201 163 201 166 199 170 199 " style="stroke:gray;fill:none"/><path d="M255 198 256 200 " style="stroke:gray;fill:none"/><path d="M175 199 179 198 187 199 191 200 195 201 198 202 201 204 203 204 207 206 210 208 213 210 215 212 214 210 211 208 203 204 201 204 198 202 195 201 191 200 187 199 179 198 " style="stroke:gray;fill:none"/><path d="M252 197 254 200 " style="stroke:gray;fill:none"/><path d="M248 198 250 197 " style="stroke:gray;fill:none"/><path d="M371 196 370 200 369 204 371 204 371 202 368 202 370 200 371 196 372 200 " style="stroke:gray;fill:none"/><path d="M233 198 230 201 231 204 233 205 238 205 238 203 237 198 236 201 238 204 233 205 231 204 230 201 232 199 237 196 " style="stroke:gray;fill:none"/><path d="M167 193 " style="stroke:gray;fill:none"/><path d="M361 193 361 197 361 198 365 198 365 196 364 192 " style="stroke:gray;fill:none"/><path d="M364 193 364 195 365 197 363 199 361 193 " style="stroke:gray;fill:none"/><path d="M182 193 180 193 182 193 185 193 187 194 191 194 195 195 198 196 202 197 204 198 206 200 207 202 205 198 203 198 199 197 196 196 195 195 191 194 187 194 185 193 " style="stroke:gray;fill:none"/><path d="M165 193 " style="stroke:gray;fill:none"/><path d="M173 191 " style="stroke:gray;fill:none"/><path d="M241 189 240 191 242 192 240 191 243 190 " style="stroke:gray;fill:none"/><path d="M245 188 248 191 251 192 253 194 259 197 261 197 264 199 267 199 264 199 261 197 259 197 255 195 253 193 250 192 247 190 " style="stroke:gray;fill:none"/><path d="M163 186 162 195 168 195 171 197 175 196 176 193 177 196 178 194 176 193 171 193 169 191 167 191 166 189 164 188 " style="stroke:gray;fill:none"/><path d="M163 186 164 188 167 191 169 191 171 193 175 194 174 197 171 197 168 195 162 194 163 190 " style="stroke:gray;fill:none"/><path d="M239 183 242 186 " style="stroke:gray;fill:none"/><path d="M235 183 235 185 237 185 237 183 " style="stroke:gray;fill:none"/><path d="M236 185 " style="stroke:gray;fill:none"/><path d="M330 179 327 182 324 183 322 185 320 187 318 189 320 188 322 186 324 183 327 182 " style="stroke:gray;fill:none"/><path d="M381 178 379 180 380 188 384 188 383 178 " style="stroke:gray;fill:none"/><path d="M381 178 384 179 383 188 379 187 379 180 " style="stroke:gray;fill:none"/><path d="M371 174 372 178 372 180 372 178 " style="stroke:gray;fill:none"/><path d="M297 174 297 176 299 176 302 177 303 178 306 178 303 178 300 177 " style="stroke:gray;fill:none"/><path d="M73 174 74 181 75 179 76 181 78 179 77 173 " style="stroke:gray;fill:none"/><path d="M76 176 78 178 76 180 74 180 73 178 " style="stroke:gray;fill:none"/><path d="M76 173 77 177 74 177 73 175 " style="stroke:gray;fill:none"/><path d="M368 171 368 180 371 184 369 183 368 179 368 172 370 172 " style="stroke:gray;fill:none"/><path d="M318 171 " style="stroke:gray;fill:none"/><path d="M340 169 339 171 337 174 337 175 324 188 320 191 317 193 309 197 306 198 302 199 300 197 303 194 312 190 316 189 317 186 320 184 319 181 316 180 314 181 296 180 291 179 287 178 285 177 283 174 284 177 286 177 290 178 291 179 296 180 313 180 316 180 318 181 319 185 316 186 314 188 311 190 306 192 303 194 301 195 300 198 297 200 294 201 290 201 287 201 285 201 287 201 290 201 294 201 298 200 301 198 306 198 309 197 314 194 316 194 318 192 321 191 325 188 337 176 339 173 340 171 " style="stroke:gray;fill:none"/><path d="M332 169 330 171 326 173 323 173 321 172 323 173 328 173 " style="stroke:gray;fill:none"/><path d="M338 168 " style="stroke:gray;fill:none"/><path d="M222 167 224 169 227 169 224 169 222 167 225 167 227 167 225 166 " style="stroke:gray;fill:none"/><path d="M362 165 363 169 365 172 364 170 " style="stroke:gray;fill:none"/><path d="M354 165 354 168 357 171 359 175 359 177 361 181 362 183 364 183 365 180 365 178 364 175 361 172 361 170 359 167 357 165 " style="stroke:gray;fill:none"/><path d="M356 165 359 168 361 171 361 173 364 176 365 178 365 180 363 183 361 181 359 177 359 175 358 172 357 170 354 167 " style="stroke:gray;fill:none"/><path d="M211 163 207 164 204 164 206 164 209 165 210 166 215 166 217 167 219 169 222 170 222 172 225 176 227 179 231 183 236 189 235 193 236 189 235 187 233 185 230 181 226 177 224 174 224 173 222 171 220 169 218 167 215 166 209 165 211 163 213 164 " style="stroke:gray;fill:none"/><path d="M346 161 343 162 341 164 342 166 346 167 347 165 " style="stroke:gray;fill:none"/><path d="M346 161 347 165 345 167 342 166 341 164 343 162 " style="stroke:gray;fill:none"/><path d="M203 159 " style="stroke:gray;fill:none"/><path d="M201 159 201 161 203 161 " style="stroke:gray;fill:none"/><path d="M197 157 197 159 199 157 " style="stroke:gray;fill:none"/><path d="M198 159 " style="stroke:gray;fill:none"/><path d="M163 157 162 159 162 170 163 176 165 179 165 181 168 187 170 189 169 187 167 185 165 181 165 179 163 176 162 170 162 159 " style="stroke:gray;fill:none"/><path d="M367 154 365 154 361 155 359 156 357 157 357 159 359 161 361 162 365 162 370 157 368 158 366 161 364 162 361 162 357 158 359 156 361 155 365 154 367 154 369 153 372 155 370 154 " style="stroke:gray;fill:none"/><path d="M206 149 209 150 214 151 215 152 218 152 215 152 211 151 210 150 " style="stroke:gray;fill:none"/><path d="M158 150 156 150 155 155 157 157 161 156 162 154 163 152 162 150 160 149 " style="stroke:gray;fill:none"/><path d="M158 150 160 149 163 152 162 154 159 157 157 157 155 155 154 152 156 150 " style="stroke:gray;fill:none"/><path d="M377 145 376 149 377 153 378 155 381 156 383 154 383 152 381 149 379 146 " style="stroke:gray;fill:none"/><path d="M378 145 379 147 381 149 382 151 383 153 378 155 377 153 376 149 " style="stroke:gray;fill:none"/><path d="M205 145 205 147 " style="stroke:gray;fill:none"/><path d="M3 143 6 143 3 146 5 149 7 148 7 144 5 142 " style="stroke:gray;fill:none"/><path d="M7 145 5 148 3 146 " style="stroke:gray;fill:none"/><path d="M191 141 " style="stroke:gray;fill:none"/><path d="M187 141 186 143 185 146 185 149 187 154 190 157 194 160 196 161 195 166 197 167 200 169 204 171 206 171 208 173 215 172 219 172 215 172 209 173 206 171 204 171 202 170 200 168 197 167 195 165 199 162 196 161 192 158 186 152 185 149 185 146 185 144 " style="stroke:gray;fill:none"/><path d="M219 140 219 143 " style="stroke:gray;fill:none"/><path d="M193 140 " style="stroke:gray;fill:none"/><path d="M211 139 208 141 206 143 208 142 210 141 " style="stroke:gray;fill:none"/><path d="M0 139 0 142 0 145 0 147 0 149 3 149 1 148 0 142 " style="stroke:gray;fill:none"/><path d="M191 139 189 141 191 139 193 138 " style="stroke:gray;fill:none"/><path d="M146 138 145 140 145 149 144 151 146 153 148 153 151 151 152 143 151 141 148 138 " style="stroke:gray;fill:none"/><path d="M147 138 152 143 152 149 149 152 146 153 145 149 145 140 " style="stroke:gray;fill:none"/><path d="M354 136 353 139 349 141 349 143 354 143 357 142 359 141 361 140 361 138 359 137 357 136 " style="stroke:gray;fill:none"/><path d="M355 136 357 136 359 137 361 139 359 141 357 142 354 143 350 143 350 140 353 139 " style="stroke:gray;fill:none"/><path d="M206 135 203 137 201 137 196 141 194 143 191 145 191 149 192 151 195 154 198 155 196 154 192 150 191 148 191 146 198 139 204 136 207 135 209 135 " style="stroke:gray;fill:none"/><path d="M379 128 377 129 377 132 379 134 379 136 381 135 382 132 382 130 381 128 " style="stroke:gray;fill:none"/><path d="M380 133 380 136 " style="stroke:gray;fill:none"/><path d="M380 128 382 130 381 133 379 133 377 130 " style="stroke:gray;fill:none"/><path d="M360 128 362 128 366 129 372 132 378 138 378 140 377 142 372 147 369 149 361 153 358 154 355 155 352 156 349 157 345 158 341 159 337 160 331 161 326 162 320 163 313 164 302 165 289 165 282 166 279 166 261 166 258 166 255 165 250 165 247 165 244 165 241 165 238 164 230 163 223 163 218 162 213 161 209 160 208 159 205 158 208 159 212 160 217 161 218 162 223 163 230 163 238 164 242 166 241 170 235 169 233 170 231 172 228 172 231 173 231 175 234 179 237 181 233 177 231 174 231 172 233 170 235 169 247 171 249 169 250 165 255 165 259 167 258 171 250 171 283 172 286 172 303 171 315 170 321 169 327 168 328 167 336 166 339 166 335 166 328 167 322 168 321 169 315 170 303 171 286 172 283 172 281 171 280 168 282 166 289 165 302 165 313 164 320 163 326 162 331 161 337 160 341 159 345 158 349 157 352 156 355 155 358 154 361 153 364 152 370 149 373 147 375 145 377 143 378 141 378 138 377 136 373 132 371 131 369 131 366 129 362 128 " style="stroke:gray;fill:none"/><path d="M261 166 280 167 279 171 259 170 259 168 " style="stroke:gray;fill:none"/><path d="M244 165 247 165 249 167 249 169 247 171 242 169 242 167 " style="stroke:gray;fill:none"/><path d="M428 128 " style="stroke:gray;fill:none"/><path d="M421 123 419 124 418 127 422 131 424 131 426 129 424 131 421 129 423 128 422 125 419 128 418 126 421 123 423 123 425 125 423 123 " style="stroke:gray;fill:none"/><path d="M422 125 423 127 421 129 420 127 " style="stroke:gray;fill:none"/><path d="M214 121 214 124 213 128 211 131 211 133 212 136 213 137 213 142 211 144 208 145 208 147 210 148 213 148 218 149 219 150 221 150 221 147 218 146 216 143 216 141 219 136 217 130 216 120 " style="stroke:gray;fill:none"/><path d="M217 121 217 130 219 136 217 138 216 141 216 143 219 146 218 149 214 149 210 148 208 146 210 144 213 143 213 136 211 133 211 131 213 128 213 125 " style="stroke:gray;fill:none"/><path d="M348 119 348 121 349 125 350 126 349 138 350 126 349 122 348 121 " style="stroke:gray;fill:none"/><path d="M221 116 221 118 220 122 219 123 219 127 219 123 220 119 221 118 " style="stroke:gray;fill:none"/><path d="M202 113 202 120 205 123 199 124 194 125 190 126 187 127 185 129 182 130 178 133 171 140 169 143 166 149 165 152 166 149 168 147 169 144 171 141 179 133 184 129 187 128 190 126 195 125 199 124 205 123 207 123 209 125 208 129 206 129 203 131 201 131 199 132 195 135 191 136 193 135 196 135 199 132 201 131 206 131 206 129 209 128 209 125 207 123 204 122 202 119 " style="stroke:gray;fill:none"/><path d="M344 108 345 110 346 113 347 114 347 117 347 114 346 111 345 110 " style="stroke:gray;fill:none"/><path d="M215 103 214 107 216 112 217 114 221 113 223 109 224 105 220 104 " style="stroke:gray;fill:none"/><path d="M215 103 220 104 222 103 224 105 223 109 222 111 218 114 216 112 214 107 213 105 " style="stroke:gray;fill:none"/><path d="M213 97 " style="stroke:gray;fill:none"/><path d="M333 91 334 93 338 97 339 100 341 102 342 104 343 106 341 103 338 96 " style="stroke:gray;fill:none"/><path d="M199 92 202 96 204 98 206 98 209 102 211 104 211 101 211 99 204 92 202 91 " style="stroke:gray;fill:none"/><path d="M199 92 202 91 208 97 211 101 211 104 209 102 206 98 201 93 " style="stroke:gray;fill:none"/><path d="M160 89 160 91 157 94 160 92 " style="stroke:gray;fill:none"/><path d="M329 88 " style="stroke:gray;fill:none"/><path d="M252 86 253 89 255 90 257 90 260 92 262 92 265 93 268 95 271 96 274 97 277 98 280 99 283 100 286 100 289 101 292 103 295 104 298 105 301 106 303 106 306 107 307 108 310 108 313 109 316 111 319 112 322 113 325 113 328 115 331 115 334 116 337 117 339 118 343 122 344 124 344 138 346 140 343 141 340 143 338 142 332 144 324 145 313 145 303 147 301 146 303 147 313 145 324 145 332 144 340 143 343 141 346 140 344 137 344 124 337 117 334 116 331 115 328 115 325 113 322 113 319 112 316 111 313 109 310 108 307 108 304 107 301 106 298 105 295 104 292 103 289 101 286 100 283 100 280 99 277 98 274 97 271 96 268 95 265 93 263 93 260 92 257 90 255 90 " style="stroke:gray;fill:none"/><path d="M365 88 366 90 369 91 365 88 368 88 371 88 371 85 370 88 367 87 369 85 " style="stroke:gray;fill:none"/><path d="M159 86 157 90 152 94 149 100 148 103 147 106 146 112 146 122 147 126 148 131 149 134 150 136 154 140 155 142 156 145 160 145 162 144 164 142 166 139 166 138 176 128 179 126 182 124 184 124 186 122 190 120 194 119 197 119 199 118 199 113 196 109 193 108 188 104 183 100 179 96 175 93 174 93 169 88 167 88 166 86 163 86 " style="stroke:gray;fill:none"/><path d="M162 85 165 86 166 88 168 88 173 93 177 96 178 96 182 99 187 104 191 107 194 108 196 110 199 114 199 117 197 119 194 119 190 120 180 125 177 127 174 129 167 136 165 139 165 140 160 145 157 145 155 143 154 140 152 138 150 135 149 133 148 130 147 126 146 122 146 112 147 107 148 104 149 101 151 97 152 95 155 94 155 92 158 90 158 88 160 86 " style="stroke:gray;fill:none"/><path d="M349 83 347 85 347 91 346 93 343 95 343 99 348 109 349 112 349 115 350 117 352 119 352 125 353 127 356 128 358 127 360 125 363 125 363 122 361 120 356 117 356 115 353 112 352 109 350 108 353 111 354 114 355 117 355 120 357 120 359 119 362 125 360 125 358 126 355 128 352 125 352 118 349 115 349 112 348 109 347 106 345 104 345 102 343 100 342 97 346 93 347 91 347 85 349 83 352 84 352 91 349 96 350 104 350 106 350 104 349 96 350 94 352 92 351 83 " style="stroke:gray;fill:none"/><path d="M149 84 144 84 136 88 133 91 134 95 145 95 147 93 148 91 148 89 151 87 151 83 " style="stroke:gray;fill:none"/><path d="M149 84 152 84 151 87 148 89 148 91 146 94 135 95 133 92 138 87 142 85 145 84 " style="stroke:gray;fill:none"/><path d="M333 80 327 81 328 84 333 88 335 89 338 88 338 86 337 83 335 81 " style="stroke:gray;fill:none"/><path d="M333 80 335 81 337 83 338 86 337 89 335 89 330 85 327 82 " style="stroke:gray;fill:none"/><path d="M155 80 156 83 159 83 159 80 " style="stroke:gray;fill:none"/><path d="M155 81 157 83 " style="stroke:gray;fill:none"/><path d="M318 79 322 82 325 85 324 83 322 82 320 80 " style="stroke:gray;fill:none"/><path d="M172 79 174 80 178 82 181 84 184 86 188 89 191 91 196 95 203 102 208 106 211 108 209 106 207 104 205 102 197 95 193 92 189 89 185 86 182 84 179 82 175 80 " style="stroke:gray;fill:none"/><path d="M313 78 316 79 " style="stroke:gray;fill:none"/><path d="M161 78 163 79 166 81 167 81 170 83 174 86 178 89 182 92 186 95 191 99 198 106 205 112 210 116 215 115 213 116 211 116 206 112 200 106 192 99 187 95 183 92 179 89 175 86 172 84 169 82 165 79 163 78 " style="stroke:gray;fill:none"/><path d="M312 76 " style="stroke:gray;fill:none"/><path d="M165 75 167 77 170 78 168 77 " style="stroke:gray;fill:none"/><path d="M147 75 148 79 152 79 154 78 157 76 159 77 154 77 152 79 149 79 147 77 " style="stroke:gray;fill:none"/><path d="M306 74 308 74 310 75 " style="stroke:gray;fill:none"/><path d="M156 74 " style="stroke:gray;fill:none"/><path d="M185 72 183 73 181 74 180 76 179 78 181 80 179 78 181 76 182 78 184 80 187 82 191 85 195 84 194 77 196 75 192 73 190 72 " style="stroke:gray;fill:none"/><path d="M185 72 189 72 191 73 194 76 195 78 194 84 191 84 188 82 185 80 182 74 " style="stroke:gray;fill:none"/><path d="M173 72 171 74 172 76 174 77 177 76 177 73 175 72 " style="stroke:gray;fill:none"/><path d="M173 72 175 72 177 74 176 77 174 77 171 74 " style="stroke:gray;fill:none"/><path d="M298 71 " style="stroke:gray;fill:none"/><path d="M149 72 " style="stroke:gray;fill:none"/><path d="M152 70 155 71 " style="stroke:gray;fill:none"/><path d="M314 67 316 68 314 67 316 66 " style="stroke:gray;fill:none"/><path d="M294 66 294 68 296 69 298 68 302 71 305 72 307 72 309 71 310 67 308 66 303 65 " style="stroke:gray;fill:none"/><path d="M295 65 303 65 308 66 310 68 309 71 307 72 305 72 302 71 300 69 298 68 296 69 294 67 " style="stroke:gray;fill:none"/><path d="M199 65 199 74 201 77 201 80 204 85 204 87 205 89 208 92 206 90 201 80 201 77 199 74 " style="stroke:gray;fill:none"/><path d="M280 63 277 64 273 65 272 66 268 66 264 67 261 68 258 69 246 75 243 77 240 79 236 83 234 85 227 92 225 95 225 96 220 101 217 101 214 99 216 100 221 101 224 98 226 95 226 94 228 92 229 96 231 97 229 99 226 99 224 101 226 99 229 100 228 102 227 104 226 106 227 104 228 101 231 97 245 84 247 89 247 94 245 97 244 100 243 106 242 113 242 125 243 130 244 134 245 137 248 142 249 145 252 147 250 148 247 148 242 149 239 149 234 148 231 148 227 147 224 147 227 147 232 149 231 154 228 154 220 153 228 154 231 154 234 154 238 154 241 154 246 155 270 155 276 154 283 154 289 154 292 153 295 153 298 153 301 153 303 153 314 152 323 151 332 150 338 149 344 148 348 147 352 146 356 145 359 144 362 143 364 141 364 137 362 135 359 134 358 130 357 132 359 134 362 135 364 137 364 141 362 143 359 144 356 145 352 146 348 147 344 148 338 149 332 150 323 151 314 152 303 153 300 152 301 148 299 148 295 147 292 147 288 147 283 148 276 148 253 148 252 146 248 143 245 137 244 134 243 130 242 125 245 113 274 129 276 129 279 131 281 131 284 133 286 133 289 135 292 136 294 136 299 139 302 140 304 140 308 142 310 143 308 142 304 140 302 140 299 139 294 136 292 136 289 135 286 133 284 133 281 131 279 131 276 129 274 129 248 116 243 111 243 107 245 105 249 105 260 110 262 112 270 116 272 116 281 121 284 122 286 122 289 124 291 124 296 127 298 127 301 128 306 131 308 131 311 133 313 133 318 136 320 136 324 138 326 140 326 142 326 139 324 138 320 136 318 136 313 133 311 133 308 131 306 131 301 128 299 128 296 127 291 124 289 124 286 122 284 122 281 121 272 116 270 116 264 113 262 111 249 105 244 104 244 100 245 97 247 94 247 89 249 85 251 83 256 79 259 80 262 81 265 83 267 83 270 85 273 86 276 87 279 88 282 89 285 90 288 91 291 92 294 93 297 94 300 95 303 96 306 97 309 98 312 99 315 100 318 100 321 101 324 102 327 104 331 105 334 106 336 105 339 104 337 104 334 106 331 105 327 104 324 102 321 101 318 100 315 100 312 99 309 98 306 97 303 96 300 95 297 94 294 93 291 92 288 91 285 90 282 89 279 88 276 87 273 86 270 85 267 83 265 83 262 81 259 80 256 79 254 80 250 83 249 85 248 87 245 84 248 81 252 78 254 78 256 77 258 75 261 74 264 73 268 72 272 71 276 71 278 70 280 69 280 71 282 69 288 69 292 70 293 71 295 71 293 71 289 70 288 69 281 70 279 69 275 71 271 71 267 72 264 73 260 74 250 79 247 81 243 84 231 96 230 94 228 92 234 85 236 83 241 79 244 77 247 75 261 68 264 67 268 66 272 66 276 65 277 64 280 64 282 63 " style="stroke:gray;fill:none"/><path d="M281 149 279 154 277 152 277 150 " style="stroke:gray;fill:none"/><path d="M243 148 247 148 250 148 277 149 276 154 270 155 246 155 241 154 239 152 240 149 " style="stroke:gray;fill:none"/><path d="M234 148 239 149 238 154 234 154 232 152 232 150 " style="stroke:gray;fill:none"/><path d="M295 147 298 147 300 149 300 151 298 153 295 153 293 151 293 149 " style="stroke:gray;fill:none"/><path d="M288 147 293 148 292 153 289 154 283 154 281 152 281 150 283 148 " style="stroke:gray;fill:none"/><path d="M63 58 61 59 60 64 62 66 64 66 62 66 60 64 60 61 63 58 64 60 62 62 65 63 67 60 65 60 " style="stroke:gray;fill:none"/><path d="M64 60 62 62 " style="stroke:gray;fill:none"/><path d="M201 55 200 57 200 59 200 57 " style="stroke:gray;fill:none"/><path d="M206 45 " style="stroke:gray;fill:none"/><path d="M257 33 263 37 271 45 273 50 275 52 277 56 278 60 281 61 281 57 280 55 279 51 280 55 278 57 276 55 271 44 265 38 259 33 " style="stroke:gray;fill:none"/><path d="M280 55 281 57 282 59 280 61 278 60 277 58 " style="stroke:gray;fill:none"/><path d="M280 32 278 33 276 34 276 40 277 43 279 47 283 51 283 53 285 53 285 51 284 53 283 50 280 48 278 45 277 43 276 40 276 35 278 33 280 32 282 32 285 35 285 38 284 43 285 49 284 43 284 39 284 33 282 32 " style="stroke:gray;fill:none"/><path d="M221 30 223 30 " style="stroke:gray;fill:none"/><path d="M248 25 251 26 254 27 257 28 259 30 262 31 265 33 274 42 275 44 274 41 266 33 263 31 261 30 259 30 258 28 255 27 252 26 " style="stroke:gray;fill:none"/><path d="M235 25 233 26 235 26 242 25 " style="stroke:gray;fill:none"/><path d="M338 25 339 29 342 28 341 24 " style="stroke:gray;fill:none"/><path d="M340 24 342 27 340 29 338 26 " style="stroke:gray;fill:none"/><path d="M265 18 265 20 266 22 264 24 261 26 261 28 266 29 265 27 262 28 261 26 263 24 266 23 266 21 265 19 268 17 270 19 270 26 268 29 269 27 269 17 " style="stroke:gray;fill:none"/><path d="M243 16 241 17 239 19 240 22 243 23 245 24 248 22 254 21 256 21 254 21 248 22 245 24 243 23 241 22 239 20 243 16 249 16 252 17 253 18 255 18 257 19 255 18 253 18 250 17 249 16 " style="stroke:gray;fill:none"/><path d="M215 16 213 17 211 19 210 21 210 24 209 27 206 30 204 30 202 31 200 33 196 33 194 35 194 44 193 47 191 50 191 59 189 60 185 65 179 66 171 66 168 64 165 64 162 65 161 66 154 66 152 65 149 65 142 65 140 66 139 69 136 74 137 78 144 77 144 75 146 71 148 69 150 68 156 68 160 72 162 73 167 72 162 73 157 68 150 68 147 69 146 71 144 74 144 76 142 78 136 77 136 74 138 72 138 70 139 68 142 65 149 65 152 65 154 66 161 66 164 65 165 64 168 64 170 65 171 68 169 69 169 71 171 68 177 68 195 69 196 67 197 64 197 57 198 55 200 53 201 51 202 44 204 42 207 40 209 38 214 33 221 27 226 26 229 26 231 25 231 19 229 18 223 18 219 17 218 16 " style="stroke:gray;fill:none"/><path d="M171 67 175 67 " style="stroke:gray;fill:none"/><path d="M215 16 218 16 222 17 223 18 229 18 231 20 231 24 229 26 226 26 221 27 219 28 217 31 213 34 212 34 210 36 206 41 205 41 202 44 201 51 199 53 197 57 197 64 196 67 194 69 179 69 175 67 180 65 186 65 191 59 191 50 193 47 194 44 194 35 196 33 201 33 204 30 208 29 209 27 209 25 210 21 " style="stroke:gray;fill:none"/></svg>