<svg width="429px" height="547px" xmlns="http://www.w3.org/2000/svg"><path d="M94 509 " style="stroke:gray;fill:none"/><path d="M172 499 170 500 167 504 165 505 158 505 155 504 154 503 152 503 149 506 148 508 150 510 151 513 158 520 161 522 163 523 166 524 168 525 171 524 175 520 176 517 177 514 177 504 176 501 174 499 " style="stroke:gray;fill:none"/><path d="M173 499 176 502 177 504 177 514 176 517 175 519 170 524 168 525 165 523 162 522 159 520 151 512 149 509 148 507 152 503 154 503 157 504 158 505 165 505 169 503 " style="stroke:gray;fill:none"/><path d="M144 480 144 485 142 487 140 487 137 488 137 490 137 492 139 494 139 496 141 498 141 501 143 503 144 506 146 509 146 507 144 505 143 502 141 500 141 498 138 493 137 491 141 487 144 486 " style="stroke:gray;fill:none"/><path d="M128 480 129 482 129 485 129 489 130 484 130 482 " style="stroke:gray;fill:none"/><path d="M91 483 90 485 89 488 88 491 88 502 89 504 92 507 97 507 100 506 103 505 106 504 116 499 118 497 121 496 126 491 127 489 126 487 123 485 120 487 118 488 115 489 112 490 106 490 103 489 100 487 98 485 97 482 95 480 " style="stroke:gray;fill:none"/><path d="M95 480 97 482 98 485 101 488 103 489 106 490 112 490 115 489 118 488 121 486 123 485 127 489 120 496 117 498 114 499 112 501 108 503 106 503 103 505 100 506 97 507 93 507 88 502 88 491 89 488 90 485 " style="stroke:gray;fill:none"/><path d="M182 476 180 477 181 483 181 478 183 476 185 476 " style="stroke:gray;fill:none"/><path d="M281 475 282 482 284 483 286 481 285 475 " style="stroke:gray;fill:none"/><path d="M282 475 284 475 286 477 286 480 284 483 281 480 " style="stroke:gray;fill:none"/><path d="M101 472 95 476 92 478 94 478 98 473 100 473 102 471 104 470 " style="stroke:gray;fill:none"/><path d="M26 471 26 477 29 477 31 478 34 475 34 472 31 473 34 474 30 478 26 476 26 472 28 470 30 470 32 471 " style="stroke:gray;fill:none"/><path d="M177 460 175 461 173 463 172 465 173 467 176 470 178 472 181 473 186 473 189 470 189 466 188 464 185 461 183 460 " style="stroke:gray;fill:none"/><path d="M178 460 183 460 189 466 189 469 185 473 182 473 179 472 176 470 173 467 172 465 176 461 " style="stroke:gray;fill:none"/><path d="M102 447 102 461 105 467 110 472 112 473 115 474 122 474 126 472 128 470 128 468 130 465 131 459 131 456 130 454 127 453 118 454 115 453 113 452 107 446 " style="stroke:gray;fill:none"/><path d="M104 446 106 446 112 452 115 453 118 454 126 454 128 453 131 456 131 459 130 465 128 469 125 472 121 474 115 474 111 472 105 466 103 463 102 461 102 448 " style="stroke:gray;fill:none"/><path d="M353 436 352 438 352 440 354 444 358 443 358 439 357 437 355 435 " style="stroke:gray;fill:none"/><path d="M353 442 358 442 355 444 " style="stroke:gray;fill:none"/><path d="M355 435 357 437 357 441 354 441 352 439 " style="stroke:gray;fill:none"/><path d="M117 433 113 434 110 437 110 442 114 446 116 447 119 448 123 448 125 447 127 442 126 439 125 437 123 435 121 434 " style="stroke:gray;fill:none"/><path d="M117 433 120 434 122 435 126 439 127 442 126 445 124 447 122 448 119 448 116 447 110 441 110 438 114 434 " style="stroke:gray;fill:none"/><path d="M103 400 103 404 106 405 106 407 107 409 106 407 106 404 104 404 102 402 " style="stroke:gray;fill:none"/><path d="M219 388 217 389 216 391 216 393 215 396 214 397 214 400 213 404 212 408 211 409 210 412 209 416 208 420 207 424 208 428 211 429 213 427 214 425 215 422 216 417 217 412 218 408 219 403 220 399 221 394 221 390 " style="stroke:gray;fill:none"/><path d="M219 388 221 390 221 393 220 399 219 403 218 408 217 412 216 417 215 422 214 425 210 429 208 428 207 424 208 420 209 416 210 412 211 409 212 405 213 401 214 397 215 394 216 391 " style="stroke:gray;fill:none"/><path d="M278 387 278 390 280 391 284 390 283 386 " style="stroke:gray;fill:none"/><path d="M280 386 282 386 284 389 282 391 279 390 " style="stroke:gray;fill:none"/><path d="M107 383 106 385 106 388 105 393 104 394 104 397 105 399 109 399 110 397 111 395 112 392 112 385 110 383 " style="stroke:gray;fill:none"/><path d="M108 383 110 383 112 385 112 392 111 395 109 398 106 399 104 397 104 394 105 389 106 385 " style="stroke:gray;fill:none"/><path d="M221 379 221 382 223 384 223 389 223 383 221 381 " style="stroke:gray;fill:none"/><path d="M105 375 107 377 107 381 " style="stroke:gray;fill:none"/><path d="M186 369 184 371 185 373 187 373 " style="stroke:gray;fill:none"/><path d="M186 369 186 373 184 371 " style="stroke:gray;fill:none"/><path d="M27 367 25 369 25 373 27 375 31 375 33 373 33 370 32 368 30 367 " style="stroke:gray;fill:none"/><path d="M30 368 32 370 33 372 30 375 28 375 25 372 25 370 " style="stroke:gray;fill:none"/><path d="M188 359 186 361 189 362 " style="stroke:gray;fill:none"/><path d="M188 359 186 361 " style="stroke:gray;fill:none"/><path d="M138 350 140 350 " style="stroke:gray;fill:none"/><path d="M190 349 191 351 189 353 177 353 175 354 173 355 172 357 171 359 170 362 169 365 169 371 166 371 159 370 157 371 156 373 157 375 162 378 165 379 169 380 179 380 183 379 185 378 187 375 192 375 196 373 196 371 197 368 198 367 199 361 199 355 196 352 192 352 " style="stroke:gray;fill:none"/><path d="M190 352 195 352 199 356 199 361 198 367 197 370 196 372 194 374 192 375 186 375 183 379 179 380 169 380 165 379 162 378 160 377 156 373 159 370 166 371 170 370 169 365 171 362 171 359 172 357 175 354 177 353 " style="stroke:gray;fill:none"/><path d="M332 337 330 338 331 342 335 342 336 338 334 337 " style="stroke:gray;fill:none"/><path d="M335 338 335 341 " style="stroke:gray;fill:none"/><path d="M334 338 335 341 332 342 330 339 " style="stroke:gray;fill:none"/><path d="M144 331 145 334 147 335 147 340 148 337 148 334 152 337 149 339 149 341 150 344 152 344 153 346 151 348 149 348 147 345 144 343 142 343 140 345 138 343 140 345 144 343 147 347 152 345 150 342 149 340 152 337 152 335 150 335 145 333 " style="stroke:gray;fill:none"/><path d="M103 331 101 333 98 337 96 340 96 342 93 347 92 351 92 358 94 361 94 364 100 370 104 372 108 373 116 373 119 372 122 369 122 366 121 364 118 363 111 356 110 353 105 348 105 346 107 344 108 342 108 331 " style="stroke:gray;fill:none"/><path d="M104 331 108 332 108 341 107 343 105 345 105 348 106 350 110 354 111 357 117 363 120 364 122 366 122 368 118 372 115 373 108 373 105 372 101 370 94 363 94 361 92 358 92 351 93 347 96 341 98 338 101 334 " style="stroke:gray;fill:none"/><path d="M142 331 141 336 140 338 139 340 140 337 141 334 142 333 142 329 " style="stroke:gray;fill:none"/><path d="M125 326 121 327 118 328 115 331 114 333 114 349 115 352 116 354 120 358 122 358 125 360 131 360 134 359 138 357 140 355 142 352 143 349 141 347 137 347 135 345 135 343 136 339 137 335 138 334 138 332 137 329 135 327 132 326 " style="stroke:gray;fill:none"/><path d="M125 326 132 326 134 327 137 330 138 332 138 334 137 338 136 342 135 343 135 345 136 347 138 348 141 347 143 350 141 353 137 357 131 360 125 360 121 358 115 352 114 349 114 334 115 332 119 328 121 327 " style="stroke:gray;fill:none"/><path d="M119 317 115 319 113 321 111 323 108 324 104 328 109 324 112 323 115 321 117 318 119 317 124 317 " style="stroke:gray;fill:none"/><path d="M232 316 224 324 220 327 217 329 214 331 206 335 204 335 201 337 196 337 193 339 187 340 173 341 165 341 159 340 158 339 154 340 154 343 156 345 158 346 162 347 166 346 190 347 191 346 203 346 207 350 206 354 205 358 204 359 203 364 203 370 202 374 201 376 197 380 194 382 191 383 187 384 183 385 165 385 161 384 158 383 155 382 152 381 144 377 137 369 133 367 131 367 128 370 123 376 122 376 119 379 118 381 118 395 117 397 115 400 113 402 107 414 106 417 105 420 104 423 104 427 105 431 109 431 111 429 113 428 121 428 125 430 130 435 132 438 132 439 137 440 139 438 142 434 145 430 144 423 147 420 149 420 154 423 157 423 162 425 161 430 158 432 158 442 157 450 156 455 155 459 154 462 153 465 151 468 151 470 147 477 147 479 147 482 147 484 149 488 152 491 156 493 162 493 165 492 171 489 174 487 178 483 178 480 177 478 174 475 169 471 167 468 166 466 166 463 167 461 172 456 175 454 184 454 186 456 188 457 192 457 194 455 196 451 197 448 198 445 199 441 200 437 200 427 201 423 202 419 203 415 204 412 205 408 206 405 207 402 208 401 208 398 209 395 210 391 211 387 213 383 219 377 233 364 238 358 240 355 243 351 245 348 247 345 248 343 248 341 251 336 251 334 253 331 253 328 251 324 249 324 245 322 242 320 238 316 " style="stroke:gray;fill:none"/><path d="M233 316 237 316 241 320 250 324 252 326 253 328 253 331 248 340 248 342 247 344 245 347 243 350 240 354 238 357 233 363 218 377 213 382 212 384 211 387 210 391 209 395 208 398 208 401 207 404 206 405 205 408 204 412 203 415 202 419 201 423 200 427 200 437 199 441 198 445 197 448 196 451 195 453 191 457 189 457 184 454 175 454 171 456 168 459 166 462 166 466 169 472 172 475 178 480 178 482 173 487 170 489 167 491 165 492 162 493 156 493 154 492 149 487 147 484 147 482 147 479 147 477 152 468 153 465 154 462 155 459 156 455 157 450 158 442 158 433 162 429 167 429 167 426 165 425 166 429 162 428 163 425 161 424 158 424 154 423 152 421 149 420 146 419 144 419 144 423 145 429 142 433 139 437 136 440 134 440 132 438 130 435 130 434 126 430 124 430 121 428 113 428 108 431 105 430 104 427 104 423 105 420 106 417 107 414 109 410 111 408 111 406 113 404 114 401 116 399 118 395 118 381 124 376 128 372 134 368 135 368 137 370 143 377 149 380 152 381 155 382 158 383 161 384 165 385 183 385 187 384 191 383 194 382 198 380 201 377 202 374 203 370 203 364 204 359 205 355 206 354 207 350 206 348 204 346 191 346 167 347 166 346 162 347 158 346 154 341 156 339 158 339 164 340 165 341 173 341 187 340 193 339 196 337 201 337 204 335 206 335 211 332 213 332 215 330 218 329 221 327 225 324 " style="stroke:gray;fill:none"/><path d="M405 307 403 310 405 312 408 313 408 315 410 314 412 311 411 307 " style="stroke:gray;fill:none"/><path d="M406 307 410 307 412 309 412 311 409 314 406 312 404 309 " style="stroke:gray;fill:none"/><path d="M231 300 229 301 226 302 224 304 221 306 213 310 211 310 208 312 205 313 201 314 198 315 193 316 189 317 184 318 174 319 152 319 140 317 138 318 131 317 133 317 133 320 135 321 137 321 141 325 147 330 150 331 153 332 155 332 160 334 160 337 161 334 181 334 188 333 193 332 197 331 200 330 203 329 206 328 214 324 217 322 221 319 228 312 232 307 233 304 233 302 " style="stroke:gray;fill:none"/><path d="M231 300 233 302 233 304 232 306 229 310 219 320 215 323 212 325 208 327 206 327 203 329 200 330 197 331 193 332 188 333 181 334 160 334 156 333 153 332 150 331 148 330 143 325 138 321 135 321 134 317 137 317 140 317 152 319 174 319 184 318 189 317 193 316 198 315 201 314 205 313 208 312 211 310 213 310 223 305 225 303 229 301 " style="stroke:gray;fill:none"/><path d="M130 300 132 303 " style="stroke:gray;fill:none"/><path d="M242 292 241 294 241 297 243 300 241 296 241 294 " style="stroke:gray;fill:none"/><path d="M247 291 245 292 244 296 245 298 247 300 250 301 252 300 253 298 253 295 251 292 " style="stroke:gray;fill:none"/><path d="M247 291 249 291 251 293 253 296 253 298 249 301 244 296 244 294 " style="stroke:gray;fill:none"/><path d="M238 290 237 292 237 295 238 302 236 304 235 306 236 304 238 303 237 295 237 292 " style="stroke:gray;fill:none"/><path d="M260 281 256 283 255 285 255 288 256 290 258 292 260 295 261 298 261 301 260 303 256 307 246 306 242 308 242 311 246 315 252 318 255 319 261 319 264 318 267 317 270 315 275 310 278 304 279 301 279 293 278 290 277 288 273 284 267 281 " style="stroke:gray;fill:none"/><path d="M260 281 267 281 269 282 272 284 278 290 279 293 279 301 278 304 277 306 275 309 268 316 264 318 261 319 255 319 252 318 248 316 242 309 244 307 246 306 256 308 260 304 261 301 261 298 260 295 258 291 256 289 256 285 256 284 258 282 " style="stroke:gray;fill:none"/><path d="M123 277 124 281 125 285 126 288 127 292 128 294 130 297 133 300 134 303 133 301 132 298 130 296 128 293 127 291 127 288 124 281 " style="stroke:gray;fill:none"/><path d="M118 277 119 279 119 282 118 278 121 278 121 283 120 277 " style="stroke:gray;fill:none"/><path d="M207 271 205 273 203 276 202 279 200 282 197 285 196 287 199 284 202 280 202 278 205 274 " style="stroke:gray;fill:none"/><path d="M236 268 234 270 233 272 232 283 232 285 233 287 235 288 237 288 239 286 239 284 241 281 242 275 242 272 240 268 " style="stroke:gray;fill:none"/><path d="M237 268 239 268 241 270 242 272 242 275 241 281 239 285 235 288 232 285 232 283 233 272 " style="stroke:gray;fill:none"/><path d="M210 268 210 270 209 274 207 276 206 279 204 282 200 286 199 288 197 290 195 290 193 293 195 292 196 294 199 294 197 294 195 292 197 291 200 288 203 284 206 280 209 274 210 271 " style="stroke:gray;fill:none"/><path d="M208 269 " style="stroke:gray;fill:none"/><path d="M209 266 " style="stroke:gray;fill:none"/><path d="M97 262 96 264 95 268 95 281 96 285 97 288 101 296 103 298 105 298 107 297 108 295 107 292 106 288 105 287 104 282 103 277 103 265 102 262 " style="stroke:gray;fill:none"/><path d="M98 262 102 263 103 265 103 277 104 282 105 287 106 291 107 292 108 295 104 298 101 295 99 292 97 288 96 285 95 281 95 268 96 264 " style="stroke:gray;fill:none"/><path d="M98 259 103 259 101 258 " style="stroke:gray;fill:none"/><path d="M111 252 109 256 109 267 110 269 112 271 113 274 113 281 115 283 114 285 113 287 113 290 113 292 114 295 115 298 118 304 122 308 127 308 129 306 129 304 126 301 125 299 124 296 124 294 122 291 122 289 121 287 117 283 115 279 116 274 115 269 117 266 117 254 116 252 " style="stroke:gray;fill:none"/><path d="M114 251 117 254 117 265 114 269 116 274 115 279 117 282 117 284 122 289 122 291 124 294 125 297 125 299 128 304 128 306 126 308 123 308 118 303 117 300 115 298 114 295 113 292 113 290 112 288 114 286 115 283 113 280 113 274 112 271 109 266 109 256 110 254 " style="stroke:gray;fill:none"/><path d="M123 246 123 271 123 274 123 270 " style="stroke:gray;fill:none"/><path d="M125 243 " style="stroke:gray;fill:none"/><path d="M26 243 25 245 26 248 30 247 31 243 " style="stroke:gray;fill:none"/><path d="M27 243 30 244 30 246 27 248 25 245 " style="stroke:gray;fill:none"/><path d="M125 240 122 243 121 245 123 243 127 238 " style="stroke:gray;fill:none"/><path d="M243 236 242 239 244 243 244 245 245 248 246 249 247 253 248 260 248 271 249 273 253 273 254 271 255 268 255 254 254 249 253 245 250 239 247 236 " style="stroke:gray;fill:none"/><path d="M243 237 246 236 251 241 253 245 254 249 255 254 255 268 254 271 252 273 250 273 248 271 248 260 247 253 246 249 245 246 244 245 243 242 242 239 " style="stroke:gray;fill:none"/><path d="M229 237 229 241 229 244 230 248 231 250 235 254 236 257 235 260 236 262 239 261 239 258 237 255 237 252 239 249 239 247 238 244 236 241 236 239 233 236 " style="stroke:gray;fill:none"/><path d="M232 236 236 240 238 244 239 247 239 249 237 252 237 255 239 258 237 262 235 260 236 257 235 253 230 248 229 244 229 241 228 239 " style="stroke:gray;fill:none"/><path d="M112 236 111 239 113 241 114 243 116 244 117 242 119 242 118 241 116 243 113 242 112 240 111 238 " style="stroke:gray;fill:none"/><path d="M388 236 385 239 385 242 386 244 390 245 393 242 392 236 " style="stroke:gray;fill:none"/><path d="M390 235 393 238 393 241 388 245 386 243 385 241 385 239 " style="stroke:gray;fill:none"/><path d="M300 230 299 233 297 236 297 237 293 241 291 246 289 248 289 250 285 254 282 261 279 264 278 267 276 269 276 272 275 274 273 277 275 275 275 273 276 270 278 268 278 266 282 262 282 260 283 258 285 255 289 251 289 249 291 247 291 245 292 243 297 238 299 235 " style="stroke:gray;fill:none"/><path d="M171 221 165 222 160 223 156 224 152 225 149 226 136 233 134 233 131 235 129 237 129 239 131 237 132 235 134 234 137 235 139 234 142 232 144 232 147 230 150 229 153 228 157 227 164 227 168 226 169 225 188 225 192 226 194 227 197 229 205 237 207 240 209 244 210 248 210 255 211 261 212 262 211 266 213 264 216 267 216 276 215 281 214 283 212 286 204 294 201 296 199 297 195 298 189 297 187 297 179 301 176 304 172 306 170 306 165 309 162 310 157 311 150 311 157 311 162 310 165 309 170 306 172 306 178 303 181 300 185 298 188 297 195 298 199 297 205 294 211 288 213 285 215 281 216 277 216 267 215 265 212 263 211 261 210 255 210 248 209 244 206 238 204 235 199 230 196 228 192 226 188 225 169 225 165 226 164 227 157 227 153 228 150 229 147 230 144 232 142 232 137 235 134 234 136 233 145 228 147 228 149 226 152 225 156 224 160 223 165 222 171 221 179 221 182 221 190 221 196 222 201 223 205 224 209 225 212 226 216 228 220 232 222 235 223 238 224 241 225 244 225 248 226 251 227 252 228 257 229 264 229 269 228 281 227 289 226 292 225 294 218 301 206 307 202 308 199 309 195 310 191 311 187 312 178 313 149 313 143 312 140 311 136 306 133 305 136 307 139 311 142 312 148 313 178 313 187 312 191 311 195 310 199 309 202 308 206 307 211 304 213 304 215 302 217 301 219 301 225 295 225 293 227 290 228 281 229 269 229 264 228 257 227 252 226 249 225 248 225 244 224 241 223 238 222 235 220 231 218 229 215 227 212 226 209 225 205 224 201 223 196 222 190 221 182 221 179 221 " style="stroke:gray;fill:none"/><path d="M227 220 228 222 228 226 229 229 230 231 233 233 230 230 229 228 228 225 228 222 " style="stroke:gray;fill:none"/><path d="M286 204 288 204 290 206 289 212 291 215 299 222 299 225 298 228 293 231 292 233 290 237 288 240 283 245 278 256 274 260 273 263 269 263 270 253 270 250 269 246 270 242 272 242 271 239 273 237 274 234 275 231 276 228 275 225 277 223 278 214 278 211 275 207 273 208 272 210 273 213 272 215 270 218 269 221 269 229 267 231 269 229 270 232 267 235 267 237 265 240 264 245 264 248 265 252 264 255 263 256 263 260 262 263 261 264 260 269 258 268 260 269 260 276 258 278 256 279 254 276 248 276 255 277 256 279 254 281 256 279 260 277 263 277 260 276 263 275 260 274 260 269 261 264 262 261 263 260 264 256 265 252 265 249 264 245 265 241 267 238 267 236 268 234 270 232 270 229 269 222 270 219 271 216 273 213 272 210 277 208 278 211 278 214 277 222 275 225 276 227 275 230 271 239 270 242 269 246 270 250 270 253 269 264 272 264 274 262 278 257 281 251 281 249 282 247 287 242 290 238 292 235 293 232 295 230 299 227 300 224 300 222 291 214 289 211 290 207 294 207 298 206 299 205 302 204 299 205 295 206 294 207 291 207 290 205 288 204 " style="stroke:gray;fill:none"/><path d="M366 202 365 204 364 207 362 210 359 213 359 215 356 217 356 219 354 221 351 223 349 223 347 225 341 228 338 229 334 230 316 230 312 229 309 228 307 227 306 225 304 224 302 223 305 225 305 228 301 228 305 228 308 228 311 229 316 230 335 230 339 229 342 228 348 225 350 223 352 223 355 221 358 217 359 214 362 211 363 208 365 206 366 204 " style="stroke:gray;fill:none"/><path d="M324 199 322 200 320 203 321 205 322 207 325 210 329 210 329 203 328 201 326 200 " style="stroke:gray;fill:none"/><path d="M324 199 326 200 329 203 328 210 326 210 321 205 320 203 " style="stroke:gray;fill:none"/><path d="M172 198 169 200 163 200 156 201 153 202 150 203 147 205 145 205 137 209 134 211 131 213 128 215 122 221 119 225 115 233 115 238 118 238 120 237 123 235 125 233 128 231 131 229 145 222 148 221 151 220 155 219 159 218 164 217 172 216 191 216 197 217 204 218 208 219 211 220 212 221 215 222 218 223 224 223 224 220 223 218 219 214 215 211 211 208 203 204 200 203 197 202 194 201 192 200 189 200 182 200 179 198 " style="stroke:gray;fill:none"/><path d="M172 198 179 198 182 200 189 200 192 200 197 203 200 203 203 204 205 206 207 206 209 207 214 211 218 214 223 219 223 223 218 223 215 222 212 221 209 220 208 219 204 218 197 217 191 216 172 216 164 217 159 218 155 219 151 220 148 221 145 222 134 228 132 228 130 230 127 231 124 233 122 235 118 238 115 237 115 233 116 231 118 229 119 226 122 222 129 215 132 213 135 211 138 209 150 203 153 202 156 201 163 200 169 200 " style="stroke:gray;fill:none"/><path d="M239 201 240 209 242 211 243 215 243 217 243 226 245 226 248 224 246 218 247 209 247 202 246 199 245 197 241 196 243 192 241 193 " style="stroke:gray;fill:none"/><path d="M240 192 242 197 244 197 246 199 247 202 247 209 246 218 247 219 246 225 242 225 243 218 243 214 242 211 240 209 239 201 " style="stroke:gray;fill:none"/><path d="M168 192 169 194 167 196 163 197 165 196 168 196 170 194 172 194 170 194 " style="stroke:gray;fill:none"/><path d="M361 190 359 192 359 196 360 199 365 200 366 198 366 194 365 192 363 190 " style="stroke:gray;fill:none"/><path d="M362 190 366 194 366 198 364 200 360 199 359 196 358 194 " style="stroke:gray;fill:none"/><path d="M367 182 367 192 " style="stroke:gray;fill:none"/><path d="M193 174 191 175 188 177 188 182 194 183 198 181 200 180 200 177 199 175 197 174 " style="stroke:gray;fill:none"/><path d="M193 174 197 174 200 177 200 179 198 181 194 183 190 183 187 179 190 176 " style="stroke:gray;fill:none"/><path d="M73 174 71 178 72 181 77 181 79 179 79 175 76 172 " style="stroke:gray;fill:none"/><path d="M76 173 79 176 79 178 76 181 73 181 72 176 " style="stroke:gray;fill:none"/><path d="M227 166 232 168 232 166 " style="stroke:gray;fill:none"/><path d="M202 166 203 169 205 169 207 171 210 172 213 171 213 169 209 171 204 169 " style="stroke:gray;fill:none"/><path d="M354 164 352 165 351 167 351 169 352 171 357 177 361 182 365 182 366 180 366 178 364 175 364 173 361 169 359 167 356 164 " style="stroke:gray;fill:none"/><path d="M354 164 356 164 360 168 362 171 364 174 366 178 366 180 361 182 360 179 356 175 354 173 352 171 351 169 351 167 " style="stroke:gray;fill:none"/><path d="M329 164 328 166 326 168 320 169 310 170 300 170 292 171 291 172 289 172 286 172 282 171 282 168 279 169 277 170 268 170 268 168 267 171 261 170 261 168 260 171 257 170 257 168 256 171 246 171 242 169 242 167 241 170 233 170 231 172 231 175 234 179 240 185 245 189 249 192 255 195 257 195 264 199 268 200 272 201 295 201 299 200 302 198 305 198 308 197 311 196 313 194 315 194 319 192 322 190 326 187 337 176 339 173 340 171 341 169 340 167 335 166 332 166 329 166 " style="stroke:gray;fill:none"/><path d="M329 166 331 169 333 169 336 166 338 166 341 169 339 171 337 174 337 175 324 188 321 190 318 192 315 194 313 194 308 197 306 197 304 198 302 196 304 195 306 194 308 192 311 191 315 188 318 186 319 183 318 181 316 181 296 180 291 179 287 178 285 177 283 174 284 177 286 177 290 178 295 179 296 180 315 180 317 181 319 184 317 186 313 189 310 191 307 192 304 194 303 197 301 199 299 200 295 201 272 201 268 200 265 199 262 198 250 192 246 189 242 186 234 178 231 173 234 170 245 170 282 171 283 172 286 172 289 172 291 172 299 171 300 170 310 170 320 169 326 168 " style="stroke:gray;fill:none"/><path d="M348 160 348 163 347 166 343 165 345 164 343 165 342 163 346 162 344 161 342 162 342 165 344 166 348 166 348 164 " style="stroke:gray;fill:none"/><path d="M357 157 357 160 364 167 364 169 364 167 363 165 360 163 357 159 " style="stroke:gray;fill:none"/><path d="M278 150 281 150 280 148 " style="stroke:gray;fill:none"/><path d="M286 148 283 148 286 148 293 148 294 151 297 150 292 147 " style="stroke:gray;fill:none"/><path d="M296 150 293 149 " style="stroke:gray;fill:none"/><path d="M211 145 215 145 " style="stroke:gray;fill:none"/><path d="M209 145 210 147 214 147 " style="stroke:gray;fill:none"/><path d="M4 141 1 142 0 145 4 141 7 144 7 147 4 150 2 150 0 147 1 150 4 150 6 149 7 143 " style="stroke:gray;fill:none"/><path d="M213 139 " style="stroke:gray;fill:none"/><path d="M345 138 343 140 " style="stroke:gray;fill:none"/><path d="M213 132 213 136 215 136 217 135 217 132 " style="stroke:gray;fill:none"/><path d="M214 132 217 134 213 135 " style="stroke:gray;fill:none"/><path d="M353 128 358 129 358 133 362 136 363 141 361 143 358 144 355 145 351 146 348 142 347 144 348 146 343 147 337 148 336 149 330 150 321 151 310 152 298 153 285 152 285 150 284 153 281 154 233 154 223 153 216 152 211 151 207 149 206 144 206 148 208 150 211 151 216 152 223 153 233 154 281 154 298 153 310 152 321 151 330 150 336 149 342 148 347 147 351 146 355 145 358 144 363 142 364 140 364 138 363 136 358 132 358 130 360 128 362 128 366 129 372 132 378 138 378 141 376 143 374 145 371 148 361 153 358 154 356 154 353 156 350 157 346 158 342 159 337 160 333 161 328 162 322 163 315 164 306 165 295 166 290 165 288 165 255 166 254 165 252 165 249 166 237 165 229 164 223 163 217 162 213 161 209 160 206 159 203 158 199 156 196 154 192 150 191 148 191 146 192 144 196 140 206 135 208 135 211 139 208 142 211 140 211 137 209 135 206 135 203 136 195 140 192 143 191 146 191 148 192 151 195 154 203 158 206 159 209 160 213 161 217 162 223 163 229 164 237 165 248 165 249 169 250 167 252 165 254 165 287 166 288 165 290 165 295 166 306 165 315 164 322 163 328 162 333 161 337 160 342 159 346 158 350 157 353 156 356 154 359 154 362 152 364 152 372 148 376 145 377 143 378 141 378 137 373 132 369 130 366 129 363 128 358 129 " style="stroke:gray;fill:none"/><path d="M198 124 193 125 189 126 187 127 185 128 184 130 182 130 177 134 171 140 169 143 166 149 164 152 163 154 164 156 162 162 162 169 163 175 163 179 166 182 166 184 169 187 171 189 174 192 177 193 189 193 192 194 196 195 199 196 202 198 204 198 215 204 222 204 226 202 230 199 232 197 234 195 236 193 236 189 235 187 225 177 223 174 223 171 221 169 216 167 213 167 208 166 211 166 215 166 217 168 220 169 223 172 223 174 224 176 226 179 235 188 236 190 236 192 234 195 232 197 229 199 225 202 221 204 216 204 205 198 203 198 200 196 197 195 193 194 189 193 177 193 173 191 171 189 169 187 167 185 166 183 165 180 165 177 163 175 162 169 162 162 164 156 163 154 165 151 167 147 169 144 171 141 176 136 179 137 181 135 183 134 186 133 183 134 181 135 179 137 176 136 178 134 183 130 186 128 190 126 194 125 198 124 205 124 208 128 206 130 204 130 201 131 198 133 196 133 194 134 191 136 187 140 184 146 184 148 186 151 186 153 192 159 198 162 201 163 203 163 206 165 205 162 202 163 199 162 193 159 186 152 184 148 184 146 185 144 187 141 192 136 195 134 201 131 204 130 207 132 206 130 208 129 208 127 207 125 " style="stroke:gray;fill:none"/><path d="M164 179 " style="stroke:gray;fill:none"/><path d="M421 123 419 124 419 127 418 129 420 131 425 131 426 131 426 128 426 126 425 124 423 123 " style="stroke:gray;fill:none"/><path d="M421 123 423 123 426 126 427 129 425 131 422 131 420 130 418 128 419 125 " style="stroke:gray;fill:none"/><path d="M212 122 213 124 213 127 210 129 211 131 211 129 213 128 213 124 " style="stroke:gray;fill:none"/><path d="M210 119 212 120 214 120 217 120 217 123 216 119 214 119 " style="stroke:gray;fill:none"/><path d="M219 113 219 115 221 116 221 118 219 124 219 128 218 130 219 128 219 124 220 119 221 118 221 113 " style="stroke:gray;fill:none"/><path d="M220 115 " style="stroke:gray;fill:none"/><path d="M337 100 " style="stroke:gray;fill:none"/><path d="M342 99 " style="stroke:gray;fill:none"/><path d="M205 99 " style="stroke:gray;fill:none"/><path d="M339 94 341 97 " style="stroke:gray;fill:none"/><path d="M160 86 157 88 154 92 152 95 150 99 149 102 148 105 147 109 146 115 146 119 147 125 148 128 149 132 153 140 156 144 158 145 161 143 163 142 165 140 169 135 169 134 173 130 177 127 180 125 183 124 185 122 188 121 191 120 194 120 197 119 199 118 199 116 200 114 195 109 190 105 185 101 180 97 176 94 172 91 169 89 165 86 " style="stroke:gray;fill:none"/><path d="M160 87 164 86 167 88 171 91 175 94 179 97 184 101 188 104 194 109 200 115 199 117 194 120 191 120 187 121 179 125 176 127 172 130 169 133 165 138 165 139 161 143 159 144 156 143 153 139 149 131 148 128 147 125 146 119 146 115 147 109 148 105 149 102 151 99 151 97 153 94 157 90 158 88 160 87 161 89 157 93 156 96 161 90 " style="stroke:gray;fill:none"/><path d="M369 83 367 84 365 87 365 89 366 91 368 92 372 90 371 84 " style="stroke:gray;fill:none"/><path d="M369 83 372 86 372 89 370 91 368 92 366 90 365 87 " style="stroke:gray;fill:none"/><path d="M254 80 252 81 250 83 248 87 247 90 247 93 245 96 244 99 243 103 242 113 242 124 243 130 244 134 245 137 246 140 248 144 251 147 242 149 240 149 230 148 223 147 218 142 218 137 218 143 221 148 224 148 223 150 225 147 229 147 239 148 241 150 241 152 241 150 243 148 276 148 251 147 247 142 246 140 245 137 244 134 243 130 242 124 242 113 244 105 243 103 244 99 245 96 247 93 247 90 248 87 249 85 " style="stroke:gray;fill:none"/><path d="M255 77 " style="stroke:gray;fill:none"/><path d="M253 77 251 79 248 81 245 83 244 83 234 93 231 97 229 99 227 102 227 104 225 106 223 110 223 112 224 110 227 103 229 100 231 98 232 95 234 93 245 83 248 81 249 81 252 79 " style="stroke:gray;fill:none"/><path d="M184 73 182 74 182 78 184 80 188 83 191 84 193 85 190 83 186 80 185 80 182 77 183 74 185 73 190 73 195 78 195 80 195 83 195 85 195 83 195 80 195 77 191 73 " style="stroke:gray;fill:none"/><path d="M257 72 " style="stroke:gray;fill:none"/><path d="M277 70 270 71 267 71 270 72 277 71 278 70 293 70 300 72 302 71 305 72 308 73 309 75 314 77 318 79 321 81 324 83 330 88 332 90 335 94 339 99 341 104 344 107 346 111 347 114 348 117 349 120 350 124 350 137 346 141 344 142 338 142 333 143 332 144 324 145 317 146 315 146 312 146 301 147 299 147 302 147 312 146 315 146 317 146 324 145 332 144 338 143 344 142 348 140 350 138 350 124 349 120 348 117 347 114 346 111 343 105 341 103 339 98 335 93 332 90 330 88 325 83 322 81 319 79 310 75 308 73 308 71 306 72 303 71 305 70 302 70 299 71 293 70 " style="stroke:gray;fill:none"/><path d="M307 73 " style="stroke:gray;fill:none"/><path d="M263 70 260 71 262 71 265 71 263 73 260 73 259 75 257 76 261 73 263 73 265 72 265 70 " style="stroke:gray;fill:none"/><path d="M150 70 146 74 146 76 147 79 153 79 156 76 158 76 162 78 164 80 167 81 172 85 175 88 179 91 182 92 187 96 192 100 198 105 205 111 208 115 210 116 214 116 215 114 215 112 214 110 211 107 207 104 203 101 197 95 193 92 189 89 185 86 182 84 179 82 170 78 168 76 162 73 159 72 156 71 153 70 " style="stroke:gray;fill:none"/><path d="M151 70 153 70 156 72 158 72 161 73 167 76 169 78 178 82 181 84 184 86 188 89 192 92 196 95 202 101 207 104 209 107 214 111 215 114 213 116 211 116 208 113 206 111 199 105 193 100 188 96 183 92 180 91 176 88 173 85 168 81 165 80 163 78 159 76 155 76 152 79 147 78 146 76 146 74 149 71 " style="stroke:gray;fill:none"/><path d="M63 58 61 59 60 65 62 67 65 67 67 66 68 64 68 61 66 59 " style="stroke:gray;fill:none"/><path d="M63 58 66 59 68 61 68 64 66 66 63 67 60 64 60 61 " style="stroke:gray;fill:none"/><path d="M283 54 284 56 284 58 284 56 " style="stroke:gray;fill:none"/><path d="M255 30 258 34 261 35 271 45 273 48 273 50 275 52 277 56 279 59 277 57 276 55 277 52 275 51 273 49 273 47 271 44 262 35 259 34 256 32 " style="stroke:gray;fill:none"/><path d="M234 25 230 26 227 27 224 28 222 30 220 30 218 31 213 35 208 40 206 43 204 46 202 50 201 54 200 57 199 61 199 74 200 78 201 82 203 84 203 86 204 88 206 91 208 93 210 95 216 101 221 101 223 99 226 95 226 94 229 91 232 87 236 83 241 79 244 77 247 75 251 72 255 70 259 69 262 68 265 67 268 66 272 65 278 65 280 64 281 62 281 55 280 52 279 49 277 47 276 44 273 40 267 34 264 32 261 30 255 27 251 26 248 25 " style="stroke:gray;fill:none"/><path d="M234 25 248 25 251 26 254 27 257 28 260 30 263 32 266 34 273 41 276 45 278 48 280 52 281 55 281 61 277 65 272 65 268 66 264 67 261 68 258 70 255 70 249 73 246 75 243 77 240 79 235 83 232 87 229 89 226 93 224 96 224 97 220 101 217 101 211 96 208 93 206 90 204 87 201 81 200 78 199 74 199 61 200 57 201 54 202 51 204 47 206 44 208 41 214 35 219 31 221 30 223 30 225 28 228 27 231 26 " style="stroke:gray;fill:none"/><path d="M338 23 338 29 344 29 346 28 344 24 341 22 " style="stroke:gray;fill:none"/><path d="M340 22 342 24 346 27 343 27 343 29 338 28 338 24 " style="stroke:gray;fill:none"/></svg>