<svg width="429px" height="547px" xmlns="http://www.w3.org/2000/svg"><path d="M170 500 167 504 165 505 158 505 155 504 154 503 152 503 149 506 148 508 150 510 151 513 158 520 161 522 165 524 168 525 170 524 172 523 175 520 176 517 177 514 177 504 175 500 " style="stroke:gray;fill:none"/><path d="M173 499 176 502 177 504 177 514 176 517 175 519 170 524 168 525 165 523 162 522 159 520 151 512 149 509 148 507 152 503 154 503 157 504 158 505 165 505 169 503 " style="stroke:gray;fill:none"/><path d="M144 480 143 487 141 487 138 489 137 491 139 494 140 496 140 498 143 504 145 506 146 508 145 506 143 503 138 493 137 491 141 487 144 486 " style="stroke:gray;fill:none"/><path d="M129 480 129 482 129 485 129 489 130 484 130 482 " style="stroke:gray;fill:none"/><path d="M95 480 93 481 91 483 90 485 89 488 88 491 88 502 89 504 92 507 97 507 101 506 104 505 114 500 116 498 119 497 122 495 126 488 125 486 123 485 120 487 118 488 115 489 112 490 106 490 103 489 100 487 98 485 97 482 " style="stroke:gray;fill:none"/><path d="M95 480 97 482 98 485 101 488 103 489 106 490 112 490 115 489 118 488 121 486 123 485 127 489 120 496 117 498 114 499 112 501 108 503 106 503 103 505 100 506 97 507 93 507 88 502 88 491 89 488 90 485 " style="stroke:gray;fill:none"/><path d="M281 476 282 482 286 481 286 477 284 475 " style="stroke:gray;fill:none"/><path d="M282 475 284 475 286 477 286 480 283 482 281 480 " style="stroke:gray;fill:none"/><path d="M104 469 101 472 98 473 93 478 97 474 100 473 103 471 " style="stroke:gray;fill:none"/><path d="M177 460 175 461 173 463 172 465 173 467 176 470 178 472 181 473 186 473 189 470 189 466 188 464 185 461 183 460 " style="stroke:gray;fill:none"/><path d="M177 460 183 460 189 466 189 469 185 473 182 473 179 472 176 470 173 467 172 465 " style="stroke:gray;fill:none"/><path d="M102 447 102 460 103 463 105 467 110 472 114 474 122 474 126 472 128 470 128 468 130 465 131 458 131 456 130 454 127 453 118 454 115 453 113 452 107 446 " style="stroke:gray;fill:none"/><path d="M104 446 106 446 112 452 115 453 118 454 126 454 128 453 131 456 131 458 130 465 128 469 125 472 121 474 114 474 111 472 105 466 103 463 102 460 102 448 " style="stroke:gray;fill:none"/><path d="M353 436 352 438 352 440 353 443 357 443 357 441 357 437 " style="stroke:gray;fill:none"/><path d="M355 436 357 442 353 442 352 440 352 438 " style="stroke:gray;fill:none"/><path d="M117 433 114 434 112 435 110 437 110 442 114 446 116 447 119 448 123 448 125 447 127 443 127 441 125 437 123 435 121 434 " style="stroke:gray;fill:none"/><path d="M117 433 120 434 122 435 125 438 127 441 127 443 126 445 124 447 122 448 119 448 116 447 110 441 110 438 114 434 " style="stroke:gray;fill:none"/><path d="M219 388 217 389 216 391 216 393 215 396 214 397 214 400 213 404 212 408 211 409 210 412 209 416 208 420 207 424 207 427 209 429 211 429 213 427 214 425 215 422 216 417 217 412 218 408 219 403 220 399 221 393 221 390 " style="stroke:gray;fill:none"/><path d="M219 388 221 390 221 393 220 399 219 403 218 408 217 412 216 417 215 422 214 425 209 429 207 427 207 424 208 420 209 416 210 412 211 409 212 405 213 401 214 397 215 394 216 391 " style="stroke:gray;fill:none"/><path d="M279 387 279 390 282 391 284 389 283 386 " style="stroke:gray;fill:none"/><path d="M280 386 282 386 284 389 281 391 279 389 " style="stroke:gray;fill:none"/><path d="M107 383 106 385 106 388 105 393 104 394 104 397 106 399 109 399 110 397 111 395 112 392 112 385 111 383 " style="stroke:gray;fill:none"/><path d="M108 383 110 383 112 385 112 392 111 395 109 398 106 399 104 397 104 394 105 389 106 385 " style="stroke:gray;fill:none"/><path d="M186 369 184 371 185 373 187 373 " style="stroke:gray;fill:none"/><path d="M186 369 186 373 184 371 " style="stroke:gray;fill:none"/><path d="M27 367 24 370 24 372 27 375 32 374 33 372 33 370 32 368 30 367 " style="stroke:gray;fill:none"/><path d="M30 368 32 369 33 371 32 373 30 375 28 375 25 372 25 370 " style="stroke:gray;fill:none"/><path d="M188 359 186 361 189 362 " style="stroke:gray;fill:none"/><path d="M188 359 186 361 " style="stroke:gray;fill:none"/><path d="M138 350 140 350 " style="stroke:gray;fill:none"/><path d="M190 349 191 351 189 353 177 353 175 354 173 355 172 357 171 359 171 362 169 365 169 371 166 371 159 370 157 371 156 373 157 375 162 378 165 379 169 379 172 379 183 379 186 377 190 377 186 377 187 375 183 379 172 379 169 379 165 379 162 378 160 377 156 373 159 370 166 371 170 370 169 365 171 362 171 359 172 357 175 354 177 353 190 352 195 352 199 356 199 361 198 366 197 370 196 372 194 374 189 374 193 374 196 373 196 371 197 367 198 366 199 361 199 355 197 353 195 352 192 352 " style="stroke:gray;fill:none"/><path d="M332 337 330 339 331 342 334 342 336 341 336 338 " style="stroke:gray;fill:none"/><path d="M331 338 336 340 334 340 334 342 332 342 330 340 " style="stroke:gray;fill:none"/><path d="M103 331 101 333 98 337 96 340 96 342 93 347 92 351 92 358 93 361 95 365 100 370 104 372 108 373 116 373 119 372 122 369 122 366 121 364 118 363 111 356 110 353 105 348 105 346 107 344 108 342 108 331 " style="stroke:gray;fill:none"/><path d="M104 331 108 332 108 341 107 343 105 345 105 348 106 350 110 354 111 357 117 363 120 364 122 366 122 368 118 372 115 373 108 373 105 372 101 370 95 364 93 361 92 358 92 351 93 347 96 341 98 338 101 334 " style="stroke:gray;fill:none"/><path d="M125 326 121 327 118 328 115 331 114 333 114 349 115 352 116 354 120 358 122 358 125 360 131 360 134 359 138 357 140 355 143 351 143 349 141 347 137 347 135 345 135 343 136 339 137 334 137 331 137 329 135 327 132 326 " style="stroke:gray;fill:none"/><path d="M125 326 132 326 134 327 137 330 137 334 137 338 136 342 135 343 135 345 136 347 138 348 141 347 143 350 141 353 137 357 131 360 125 360 121 358 115 352 114 349 114 334 115 332 119 328 121 327 " style="stroke:gray;fill:none"/><path d="M232 316 223 325 220 327 216 330 206 335 204 335 201 337 197 338 193 339 186 340 172 341 165 341 158 339 156 339 154 340 154 343 156 345 160 346 167 347 178 347 181 347 190 347 197 345 203 346 207 350 206 354 205 357 204 358 203 364 203 370 202 374 201 376 197 380 194 382 191 383 187 384 183 385 165 385 161 384 158 383 155 382 152 381 144 377 135 368 129 369 123 376 122 376 119 379 118 381 118 395 117 397 115 400 113 402 107 414 106 417 105 420 104 424 104 427 105 431 109 431 111 429 113 428 116 427 118 427 121 428 125 430 131 436 133 440 137 440 139 438 142 434 145 430 144 423 147 420 149 420 154 423 157 423 162 425 161 430 158 432 158 442 157 451 156 456 155 459 154 462 153 465 152 468 150 470 150 472 148 475 148 477 147 479 147 482 148 484 148 486 150 489 153 492 156 493 162 493 165 492 171 489 174 487 178 483 178 480 177 478 174 475 169 471 167 468 166 466 166 463 167 461 172 456 175 454 184 454 186 456 188 457 192 457 194 455 196 451 197 448 198 445 199 441 200 436 200 429 201 424 202 420 203 415 204 412 205 409 206 405 207 402 208 401 208 398 209 394 210 390 211 387 213 383 219 377 233 364 238 358 240 355 243 351 245 348 251 336 251 334 253 331 253 328 252 325 250 324 245 322 242 320 238 316 " style="stroke:gray;fill:none"/><path d="M233 316 237 316 241 320 250 324 252 326 253 328 253 331 250 336 250 338 249 340 247 342 245 347 243 350 240 354 238 357 233 363 218 377 213 382 212 384 211 387 210 390 209 394 208 398 208 401 207 404 206 405 206 408 204 411 203 415 202 420 201 424 200 429 200 436 199 441 198 445 197 448 196 451 195 453 191 457 189 457 184 454 175 454 171 456 168 459 166 462 166 466 169 472 172 475 178 480 178 482 173 487 170 489 167 491 165 492 162 493 156 493 154 492 149 487 147 482 147 479 148 477 148 475 152 468 153 465 154 462 155 459 156 456 157 451 157 443 158 433 162 429 167 429 167 426 165 425 166 429 162 428 163 425 161 424 158 424 154 423 152 421 150 420 147 419 144 419 144 423 145 429 142 433 139 437 136 440 134 440 132 438 130 435 130 434 126 430 124 430 121 428 118 427 116 427 113 428 108 431 105 430 104 427 104 424 105 420 106 417 107 414 109 410 111 408 114 401 117 398 118 396 118 381 124 376 128 371 131 368 135 368 137 370 143 377 145 378 147 378 152 381 155 382 158 383 161 384 165 385 183 385 187 384 191 383 194 382 198 380 201 377 202 374 203 370 203 364 204 358 205 355 206 354 207 350 206 348 204 346 197 345 190 347 181 347 178 347 167 347 160 346 157 345 154 341 156 339 158 339 165 341 172 341 186 340 193 339 197 338 201 337 204 335 207 335 209 334 211 332 218 329 221 327 224 325 " style="stroke:gray;fill:none"/><path d="M231 300 229 301 226 302 224 304 221 305 219 307 213 310 211 310 208 312 205 312 202 314 198 315 194 316 189 317 184 318 173 319 153 319 140 317 138 318 132 316 133 320 135 321 137 321 141 325 147 330 150 331 153 332 156 333 161 334 160 337 161 334 182 334 189 333 193 332 197 331 201 330 204 329 211 325 213 325 217 322 221 319 228 312 231 308 233 304 233 302 " style="stroke:gray;fill:none"/><path d="M231 300 233 302 233 304 232 306 229 310 220 319 216 322 212 325 210 325 206 327 204 329 201 330 197 331 193 331 190 332 189 333 182 334 161 334 156 333 153 332 150 331 148 330 143 325 138 321 135 321 134 317 138 318 140 317 153 319 173 319 184 318 189 317 194 316 198 315 202 314 205 312 209 312 211 310 213 310 223 305 225 303 229 301 " style="stroke:gray;fill:none"/><path d="M246 291 244 293 244 297 247 300 250 301 252 300 253 298 253 295 251 292 " style="stroke:gray;fill:none"/><path d="M247 291 249 291 251 293 253 296 253 298 249 301 244 296 244 294 " style="stroke:gray;fill:none"/><path d="M260 281 256 283 255 285 255 288 256 290 258 292 260 295 261 298 261 301 260 303 255 308 252 308 246 306 242 308 242 311 246 315 250 317 253 318 256 319 261 319 264 318 267 316 269 316 275 310 278 304 279 301 279 294 278 290 277 288 273 284 267 281 " style="stroke:gray;fill:none"/><path d="M260 281 267 281 269 282 272 284 278 290 279 294 279 301 278 304 277 306 275 309 268 316 264 318 261 319 256 319 253 318 250 317 248 316 242 309 244 307 246 306 252 308 256 308 260 304 261 301 261 298 260 295 258 291 256 289 256 285 256 284 258 282 " style="stroke:gray;fill:none"/><path d="M204 275 202 278 200 281 199 283 201 281 203 278 203 277 " style="stroke:gray;fill:none"/><path d="M139 272 136 275 136 278 138 280 140 281 142 280 144 277 144 275 141 272 " style="stroke:gray;fill:none"/><path d="M140 272 144 277 140 281 136 276 " style="stroke:gray;fill:none"/><path d="M236 268 234 270 233 272 232 283 232 285 233 287 235 288 237 288 239 286 239 284 241 281 242 275 242 272 240 268 " style="stroke:gray;fill:none"/><path d="M237 268 239 268 241 270 242 272 242 275 241 281 239 285 235 288 232 285 232 283 233 272 " style="stroke:gray;fill:none"/><path d="M211 265 210 267 210 270 209 273 208 275 206 275 205 279 204 282 199 285 195 291 191 293 189 294 189 296 191 293 194 292 197 290 200 287 204 282 205 279 208 276 209 273 210 270 210 267 " style="stroke:gray;fill:none"/><path d="M97 262 97 264 96 267 95 268 95 281 96 285 97 288 101 296 103 298 105 298 107 297 107 292 106 288 105 283 104 282 103 277 103 267 102 262 " style="stroke:gray;fill:none"/><path d="M97 263 102 263 103 267 103 277 104 282 105 287 106 288 107 292 107 296 104 298 101 295 99 292 97 288 96 285 95 281 95 268 96 265 " style="stroke:gray;fill:none"/><path d="M112 250 111 252 109 255 109 267 110 269 112 271 113 275 113 280 115 283 113 287 113 290 113 292 114 295 115 298 116 301 117 303 122 308 128 307 128 303 126 301 125 299 125 296 123 294 123 292 122 289 121 287 117 283 115 279 116 274 115 269 117 267 117 254 116 252 " style="stroke:gray;fill:none"/><path d="M114 251 117 254 117 266 114 269 116 274 115 279 117 282 117 284 122 289 123 292 123 294 125 297 125 299 128 304 128 306 126 308 123 308 117 302 115 298 114 295 113 292 113 290 112 288 114 286 115 283 113 280 113 275 112 271 109 266 109 256 110 254 " style="stroke:gray;fill:none"/><path d="M123 245 123 247 122 268 123 274 124 279 125 283 127 286 127 288 128 292 130 294 134 302 134 304 138 308 137 306 134 303 128 291 127 288 126 285 125 282 124 278 123 273 122 267 123 247 " style="stroke:gray;fill:none"/><path d="M26 243 25 245 26 247 28 248 30 247 29 243 " style="stroke:gray;fill:none"/><path d="M27 243 30 244 30 246 26 247 25 245 " style="stroke:gray;fill:none"/><path d="M119 241 118 244 121 246 119 247 117 248 115 246 113 246 113 248 115 246 117 248 119 248 121 246 " style="stroke:gray;fill:none"/><path d="M119 245 " style="stroke:gray;fill:none"/><path d="M120 241 120 244 " style="stroke:gray;fill:none"/><path d="M243 236 242 239 244 243 244 245 245 248 246 249 247 253 248 260 248 271 249 273 252 274 253 272 254 269 255 268 255 254 254 249 253 245 251 242 251 240 247 236 " style="stroke:gray;fill:none"/><path d="M243 237 246 236 251 241 253 245 254 249 255 254 255 268 254 271 252 273 250 273 248 271 248 260 247 253 246 249 245 246 244 245 243 242 242 239 " style="stroke:gray;fill:none"/><path d="M229 237 229 241 229 244 230 248 231 250 235 254 236 257 235 260 236 262 239 261 239 258 237 255 237 252 239 249 239 247 238 244 235 238 233 236 " style="stroke:gray;fill:none"/><path d="M232 236 236 240 238 244 239 247 239 249 237 252 237 255 239 258 237 262 235 260 236 257 235 253 230 248 229 244 229 241 228 239 " style="stroke:gray;fill:none"/><path d="M153 234 150 235 148 236 143 241 142 243 141 246 141 253 143 257 148 262 152 264 160 264 166 261 169 258 171 254 172 251 172 248 171 244 170 242 168 239 166 237 163 235 160 234 " style="stroke:gray;fill:none"/><path d="M153 234 160 234 164 236 169 241 171 244 172 248 172 251 171 254 170 256 164 262 160 264 152 264 150 263 142 255 141 253 141 246 143 242 149 236 " style="stroke:gray;fill:none"/><path d="M163 220 162 223 159 221 160 223 156 224 152 225 149 226 146 227 144 229 142 229 137 232 135 232 131 234 128 236 123 241 128 236 130 236 132 234 136 232 138 232 147 227 150 226 153 225 156 224 160 223 164 222 170 221 190 221 196 222 201 223 205 224 209 225 212 227 214 227 216 228 221 233 222 235 223 238 224 241 225 244 226 247 227 253 227 260 229 263 229 265 228 273 228 276 228 284 227 288 226 292 225 294 223 297 221 299 217 302 211 305 208 306 206 306 203 308 199 308 196 309 195 310 191 311 187 312 178 312 175 314 169 314 158 313 153 314 150 311 157 311 161 310 164 309 167 308 172 305 174 305 176 304 179 301 182 299 185 298 195 298 199 297 203 295 206 293 211 288 213 285 214 283 215 280 216 276 216 267 215 265 212 263 211 261 210 255 210 248 209 245 208 242 206 238 203 234 200 231 197 229 191 226 188 225 170 225 165 226 161 227 160 228 155 228 151 229 148 231 140 234 138 234 135 235 133 236 131 238 129 238 125 243 130 238 133 237 135 235 138 234 140 234 147 230 151 229 155 228 160 228 164 227 165 226 170 225 188 225 191 226 195 228 198 230 204 236 207 240 208 242 209 245 210 248 210 255 211 261 212 263 216 267 216 276 215 280 214 283 212 286 204 294 201 296 199 297 195 298 185 298 182 299 180 300 177 302 174 305 172 305 167 308 164 309 161 310 157 311 149 312 144 312 136 311 137 313 140 315 139 313 143 312 148 312 151 314 151 316 156 314 156 316 158 313 169 314 169 316 171 313 175 314 175 316 176 313 178 312 183 312 185 315 184 313 187 312 191 311 195 310 196 309 199 308 204 309 206 306 209 305 211 305 216 302 218 302 222 299 224 296 226 293 227 288 228 284 228 276 228 273 229 265 229 263 227 260 227 253 226 246 224 243 223 240 223 238 222 234 221 232 217 228 214 227 212 227 209 225 205 224 201 223 196 222 190 221 169 222 " style="stroke:gray;fill:none"/><path d="M136 312 140 312 " style="stroke:gray;fill:none"/><path d="M366 202 365 205 363 207 362 210 360 213 357 216 357 218 354 221 352 221 349 224 347 226 344 229 340 228 344 226 342 227 340 227 338 229 334 230 316 230 311 229 309 228 306 225 301 223 295 217 301 223 304 225 306 226 302 227 300 228 302 227 306 226 310 229 315 230 335 230 337 228 338 230 341 229 344 229 347 226 349 224 353 221 354 221 357 218 359 215 362 211 363 208 365 206 365 204 " style="stroke:gray;fill:none"/><path d="M323 200 321 201 320 203 322 206 323 209 325 211 329 211 330 209 330 204 329 202 327 200 " style="stroke:gray;fill:none"/><path d="M325 199 330 204 330 209 328 211 326 211 322 207 321 205 320 203 " style="stroke:gray;fill:none"/><path d="M172 198 167 199 163 200 162 201 157 201 153 202 150 203 147 205 145 205 137 209 134 211 131 213 128 215 122 221 120 224 118 227 115 233 115 238 118 238 120 237 123 235 125 233 128 231 131 230 133 228 145 222 148 221 151 220 155 219 159 218 164 217 172 216 190 216 197 217 204 218 208 219 211 220 212 221 215 222 218 223 224 223 224 219 219 214 215 211 211 208 208 206 206 206 203 204 201 204 198 202 194 201 190 200 185 199 179 198 " style="stroke:gray;fill:none"/><path d="M172 198 179 198 185 199 190 200 194 201 198 202 201 204 203 204 209 207 214 211 218 214 224 220 223 223 219 223 215 222 212 221 209 219 204 218 197 217 190 216 172 216 164 217 159 218 155 219 151 220 148 221 145 222 138 226 136 226 132 228 130 230 127 231 124 233 122 235 118 238 115 237 115 233 116 231 118 228 120 225 122 222 129 215 132 213 135 211 138 209 150 203 153 202 157 201 162 201 166 200 167 199 " style="stroke:gray;fill:none"/><path d="M257 195 259 197 262 200 264 198 261 197 259 196 " style="stroke:gray;fill:none"/><path d="M263 200 " style="stroke:gray;fill:none"/><path d="M361 189 357 193 358 196 359 198 360 200 365 200 366 198 366 193 365 191 363 189 " style="stroke:gray;fill:none"/><path d="M362 189 366 193 366 198 364 200 361 200 359 198 358 196 357 193 359 191 " style="stroke:gray;fill:none"/><path d="M246 189 248 191 248 193 250 193 252 194 249 195 251 196 254 195 255 197 254 194 248 190 " style="stroke:gray;fill:none"/><path d="M251 195 254 195 " style="stroke:gray;fill:none"/><path d="M241 189 " style="stroke:gray;fill:none"/><path d="M238 186 239 188 241 187 243 189 242 187 240 186 " style="stroke:gray;fill:none"/><path d="M367 184 367 191 " style="stroke:gray;fill:none"/><path d="M73 174 73 176 72 180 71 178 73 175 76 173 78 175 78 179 76 181 74 180 76 181 78 179 77 173 " style="stroke:gray;fill:none"/><path d="M332 170 326 176 321 183 323 183 326 182 329 180 331 178 327 181 323 181 325 179 " style="stroke:gray;fill:none"/><path d="M321 182 324 182 " style="stroke:gray;fill:none"/><path d="M234 170 237 170 " style="stroke:gray;fill:none"/><path d="M261 167 256 168 254 171 252 171 279 171 282 171 284 171 287 172 292 171 299 171 302 171 304 171 310 170 312 169 310 170 304 171 301 170 300 167 301 169 299 171 292 171 287 172 284 171 282 168 280 167 277 167 264 168 263 167 " style="stroke:gray;fill:none"/><path d="M261 167 263 167 276 168 277 167 280 167 282 168 284 170 282 171 279 171 255 170 257 168 " style="stroke:gray;fill:none"/><path d="M229 167 229 169 232 169 227 172 226 175 228 177 230 180 233 184 234 187 236 189 237 192 230 199 226 202 223 204 221 205 219 205 216 204 215 203 212 204 211 202 209 201 206 199 203 198 205 199 207 201 209 201 211 204 215 204 219 205 216 206 214 208 216 206 219 206 222 205 224 204 227 202 231 199 237 193 237 191 236 188 233 185 233 183 230 180 228 177 228 176 226 174 230 172 231 175 234 179 240 184 234 178 231 174 230 171 232 169 232 167 " style="stroke:gray;fill:none"/><path d="M266 166 274 166 " style="stroke:gray;fill:none"/><path d="M338 165 333 167 326 168 323 168 327 168 333 168 335 166 338 165 340 167 341 169 340 171 336 176 324 188 320 191 317 192 315 194 313 195 311 195 308 197 306 197 304 198 302 196 304 195 306 193 309 191 311 191 315 188 318 185 319 183 318 181 316 180 297 180 292 179 290 178 287 178 285 177 283 174 285 177 287 178 290 178 292 179 297 180 316 180 319 183 314 188 310 191 307 192 304 194 302 196 302 199 300 199 296 200 295 201 284 202 279 202 271 202 270 200 268 199 266 199 266 201 268 202 270 201 271 203 273 203 274 201 278 201 284 202 295 201 299 200 302 199 305 198 308 197 311 196 321 191 325 188 336 177 339 173 340 171 341 169 340 166 " style="stroke:gray;fill:none"/><path d="M272 203 " style="stroke:gray;fill:none"/><path d="M269 202 " style="stroke:gray;fill:none"/><path d="M266 200 269 200 " style="stroke:gray;fill:none"/><path d="M318 165 314 166 314 168 321 167 322 165 320 165 320 168 314 167 " style="stroke:gray;fill:none"/><path d="M354 164 352 165 351 167 351 169 352 171 356 175 358 178 358 179 361 183 366 182 366 177 364 173 361 169 359 167 356 164 " style="stroke:gray;fill:none"/><path d="M354 164 356 164 360 168 362 171 365 175 366 177 365 183 362 183 360 181 357 177 357 176 355 173 352 171 351 169 351 167 " style="stroke:gray;fill:none"/><path d="M303 164 295 165 294 166 292 166 287 165 286 166 283 166 286 166 291 165 292 166 294 166 302 165 303 164 313 164 " style="stroke:gray;fill:none"/><path d="M316 163 319 163 " style="stroke:gray;fill:none"/><path d="M354 159 356 159 358 161 360 163 363 166 359 163 358 160 356 159 " style="stroke:gray;fill:none"/><path d="M195 158 197 161 201 163 204 164 208 165 210 165 214 166 218 167 221 170 222 173 224 175 225 177 226 179 224 176 221 169 219 167 215 166 211 165 208 165 205 164 202 163 198 161 " style="stroke:gray;fill:none"/><path d="M271 154 243 155 271 154 274 154 " style="stroke:gray;fill:none"/><path d="M231 154 " style="stroke:gray;fill:none"/><path d="M287 153 282 154 287 153 290 153 " style="stroke:gray;fill:none"/><path d="M208 150 210 150 215 151 221 152 222 153 229 153 222 153 216 152 215 151 210 150 " style="stroke:gray;fill:none"/><path d="M331 149 322 150 312 151 305 152 304 153 302 153 304 153 311 152 312 151 322 150 331 149 336 149 " style="stroke:gray;fill:none"/><path d="M341 148 " style="stroke:gray;fill:none"/><path d="M224 147 226 148 229 148 226 148 " style="stroke:gray;fill:none"/><path d="M221 150 222 147 " style="stroke:gray;fill:none"/><path d="M221 147 221 150 " style="stroke:gray;fill:none"/><path d="M205 147 " style="stroke:gray;fill:none"/><path d="M302 146 305 147 306 150 311 147 309 146 307 146 304 146 " style="stroke:gray;fill:none"/><path d="M307 146 309 146 311 148 305 148 " style="stroke:gray;fill:none"/><path d="M208 145 208 147 210 147 210 145 " style="stroke:gray;fill:none"/><path d="M209 147 " style="stroke:gray;fill:none"/><path d="M205 145 " style="stroke:gray;fill:none"/><path d="M192 144 191 149 192 151 195 156 198 156 200 157 202 157 205 158 206 159 209 160 213 161 217 162 223 163 229 164 237 165 249 165 251 167 248 168 239 168 239 170 245 171 250 170 250 168 251 166 254 165 258 166 254 165 252 165 249 165 237 165 229 164 223 163 217 162 213 161 209 160 206 159 203 158 197 155 192 150 191 148 191 146 " style="stroke:gray;fill:none"/><path d="M240 167 247 167 249 168 249 171 245 171 239 169 " style="stroke:gray;fill:none"/><path d="M343 142 338 143 336 144 335 146 332 145 334 144 326 144 318 145 317 146 315 146 313 145 315 146 317 146 325 145 326 144 331 144 333 146 336 145 338 147 344 146 345 144 " style="stroke:gray;fill:none"/><path d="M343 142 345 144 343 146 338 147 336 145 338 143 " style="stroke:gray;fill:none"/><path d="M219 142 221 145 " style="stroke:gray;fill:none"/><path d="M3 142 0 145 3 142 6 143 7 145 7 147 5 149 0 147 1 149 7 148 7 144 5 142 " style="stroke:gray;fill:none"/><path d="M192 141 " style="stroke:gray;fill:none"/><path d="M188 140 187 142 187 144 185 145 185 150 187 154 192 154 188 154 186 152 185 149 186 145 188 148 186 145 187 142 " style="stroke:gray;fill:none"/><path d="M169 139 168 141 165 144 164 147 164 152 163 155 162 156 162 169 163 176 164 180 165 183 167 185 168 188 173 193 182 193 186 195 186 197 188 193 190 195 195 195 198 197 201 198 199 197 196 196 195 195 190 195 186 194 183 194 174 193 168 187 167 184 165 182 164 179 163 176 162 169 162 156 163 153 164 152 164 148 165 144 168 141 " style="stroke:gray;fill:none"/><path d="M192 138 190 141 " style="stroke:gray;fill:none"/><path d="M194 137 " style="stroke:gray;fill:none"/><path d="M179 136 " style="stroke:gray;fill:none"/><path d="M206 135 203 136 199 138 195 139 197 139 199 139 206 135 209 135 211 137 210 141 208 142 211 141 211 137 210 135 " style="stroke:gray;fill:none"/><path d="M359 128 357 130 358 134 362 137 363 137 363 141 360 143 358 144 355 145 352 146 348 147 346 147 348 147 352 146 355 145 358 144 361 143 364 140 364 138 359 134 357 131 360 128 362 128 366 129 369 130 371 131 374 133 377 136 378 138 378 141 377 143 374 146 371 148 361 153 358 154 355 155 352 156 349 157 346 158 341 159 336 160 332 161 327 162 323 162 327 162 332 161 336 160 341 159 346 158 349 157 352 156 356 155 359 154 362 153 372 148 375 146 377 144 378 142 378 137 377 135 375 133 369 130 366 129 363 128 " style="stroke:gray;fill:none"/><path d="M201 124 197 125 194 127 192 127 189 129 187 129 177 134 175 136 175 138 172 142 168 146 167 148 166 152 166 154 166 152 167 149 168 147 171 143 174 140 175 137 178 134 181 132 183 132 185 130 187 129 189 129 192 127 195 126 198 125 202 124 205 124 207 126 206 130 204 131 202 131 199 132 195 134 197 133 199 133 202 131 205 133 204 131 206 130 208 129 206 124 " style="stroke:gray;fill:none"/><path d="M221 118 220 122 218 127 216 129 213 132 213 138 214 140 218 139 219 137 219 134 218 127 219 123 220 122 " style="stroke:gray;fill:none"/><path d="M218 130 219 134 219 137 215 140 213 138 213 133 214 131 " style="stroke:gray;fill:none"/><path d="M217 129 " style="stroke:gray;fill:none"/><path d="M226 105 224 109 223 107 222 110 219 113 222 110 223 112 219 115 221 115 223 112 225 107 " style="stroke:gray;fill:none"/><path d="M223 108 223 111 " style="stroke:gray;fill:none"/><path d="M161 86 157 88 153 93 150 99 149 102 148 105 147 109 146 115 146 119 147 125 148 128 149 132 153 140 158 145 160 145 163 143 166 139 170 133 173 130 177 127 180 125 188 121 191 120 194 120 197 119 199 118 199 113 196 110 191 106 185 101 179 96 176 94 172 91 169 89 166 87 164 86 " style="stroke:gray;fill:none"/><path d="M161 86 163 86 165 87 168 89 171 91 175 94 178 96 184 101 190 106 195 110 200 115 199 117 197 119 195 119 191 120 187 121 179 125 176 127 172 130 170 132 166 137 163 141 160 144 158 144 153 139 149 131 148 128 147 125 146 119 146 115 147 109 148 105 149 102 152 97 153 95 156 96 160 91 160 89 159 92 153 94 157 89 159 87 " style="stroke:gray;fill:none"/><path d="M368 84 366 86 367 91 372 89 370 91 366 90 366 86 368 84 370 84 372 87 370 84 " style="stroke:gray;fill:none"/><path d="M240 82 238 84 235 87 232 91 230 93 231 97 229 100 225 101 225 103 227 103 231 98 231 96 235 91 243 83 246 83 244 83 242 81 " style="stroke:gray;fill:none"/><path d="M226 103 " style="stroke:gray;fill:none"/><path d="M231 95 " style="stroke:gray;fill:none"/><path d="M232 94 " style="stroke:gray;fill:none"/><path d="M233 93 " style="stroke:gray;fill:none"/><path d="M241 81 242 84 239 86 237 88 234 92 233 90 235 88 237 86 240 83 " style="stroke:gray;fill:none"/><path d="M251 82 248 88 247 92 247 94 245 97 244 100 244 105 243 107 243 110 243 112 242 124 243 130 244 134 245 137 249 144 251 147 243 148 240 148 232 148 230 150 232 152 234 153 241 152 241 150 243 148 251 147 274 148 275 151 277 153 279 153 282 151 284 151 282 151 279 153 277 153 275 151 276 149 293 147 300 148 299 151 297 152 293 152 291 151 293 152 297 152 300 151 299 147 293 147 277 148 274 148 253 148 248 143 245 137 244 134 243 130 242 124 243 112 243 110 242 108 244 106 244 100 245 97 247 94 247 92 248 88 249 86 251 83 254 80 " style="stroke:gray;fill:none"/><path d="M232 148 241 149 240 153 234 153 232 152 230 150 " style="stroke:gray;fill:none"/><path d="M239 80 237 82 " style="stroke:gray;fill:none"/><path d="M253 78 " style="stroke:gray;fill:none"/><path d="M257 76 259 76 " style="stroke:gray;fill:none"/><path d="M247 77 245 79 245 81 247 81 250 78 248 79 246 81 245 79 247 77 250 76 " style="stroke:gray;fill:none"/><path d="M246 75 244 77 241 79 " style="stroke:gray;fill:none"/><path d="M309 72 312 73 " style="stroke:gray;fill:none"/><path d="M303 72 305 73 307 73 310 75 312 75 314 76 315 78 317 79 320 81 321 81 325 84 331 89 334 92 337 96 339 99 341 102 341 104 344 107 344 109 347 114 348 117 349 121 350 124 350 127 350 130 350 137 345 139 344 137 344 123 343 120 342 119 341 115 342 117 342 120 344 123 344 138 346 141 348 140 350 138 350 130 350 127 350 124 349 121 348 117 347 114 345 111 345 109 343 105 341 103 341 101 339 98 337 95 334 91 332 89 326 84 322 81 319 79 316 78 315 74 310 75 307 73 305 73 " style="stroke:gray;fill:none"/><path d="M314 76 " style="stroke:gray;fill:none"/><path d="M186 72 182 74 182 78 184 80 187 82 190 84 192 84 195 84 195 78 194 76 191 73 189 72 " style="stroke:gray;fill:none"/><path d="M186 72 189 72 195 78 195 83 193 85 191 84 189 82 186 80 185 80 182 77 182 75 184 73 " style="stroke:gray;fill:none"/><path d="M306 71 " style="stroke:gray;fill:none"/><path d="M262 71 " style="stroke:gray;fill:none"/><path d="M303 70 " style="stroke:gray;fill:none"/><path d="M266 70 263 73 260 74 257 73 259 72 257 72 257 74 260 74 264 72 266 71 270 72 272 71 270 71 " style="stroke:gray;fill:none"/><path d="M264 70 " style="stroke:gray;fill:none"/><path d="M149 70 147 72 147 79 150 79 147 78 147 73 150 70 153 70 156 71 159 73 161 73 175 80 178 82 181 84 184 86 188 89 191 91 196 95 199 98 203 101 207 104 214 111 215 114 213 116 211 116 209 115 200 107 193 100 187 95 183 92 179 89 176 88 173 85 168 81 158 76 156 76 154 77 152 80 149 81 149 83 151 83 151 81 155 77 157 76 160 78 167 81 172 85 175 88 178 89 181 92 183 94 186 95 192 100 199 107 208 115 210 116 214 116 215 114 215 112 214 110 208 104 203 101 201 98 197 95 192 91 189 89 185 86 182 84 179 82 176 80 162 73 160 73 157 71 153 70 " style="stroke:gray;fill:none"/><path d="M150 83 " style="stroke:gray;fill:none"/><path d="M299 71 301 71 299 70 301 69 " style="stroke:gray;fill:none"/><path d="M290 70 295 71 297 71 294 70 294 68 " style="stroke:gray;fill:none"/><path d="M290 69 294 69 " style="stroke:gray;fill:none"/><path d="M280 67 288 68 278 70 274 68 275 70 278 70 288 69 288 67 " style="stroke:gray;fill:none"/><path d="M62 59 60 60 60 63 61 66 67 65 66 63 67 60 65 59 " style="stroke:gray;fill:none"/><path d="M62 59 64 59 66 60 66 63 64 64 66 66 61 65 60 63 60 61 " style="stroke:gray;fill:none"/><path d="M256 31 257 33 260 35 261 35 271 45 273 48 273 50 275 52 277 57 279 58 277 57 276 55 277 52 275 51 273 49 273 47 271 44 262 35 259 33 258 33 " style="stroke:gray;fill:none"/><path d="M234 25 230 26 227 27 224 28 220 30 217 32 214 34 208 40 206 43 205 46 203 48 202 50 201 53 200 56 199 59 199 74 200 77 201 80 202 83 203 86 204 88 206 91 209 95 213 99 216 101 221 101 224 98 227 94 230 90 230 89 235 84 227 92 225 95 225 96 220 101 217 101 214 99 208 93 206 90 204 87 203 85 203 83 201 80 200 77 199 74 199 59 200 56 201 53 205 45 208 41 215 34 218 32 221 30 225 28 227 28 230 26 234 25 248 25 251 26 254 27 257 28 259 30 262 31 265 33 274 42 277 46 280 52 281 55 282 60 277 65 272 65 268 66 264 67 261 68 258 69 255 71 253 71 250 73 248 74 252 74 255 76 254 74 251 73 253 72 256 70 258 70 261 68 264 67 268 66 272 65 277 65 279 64 281 59 281 55 280 52 278 49 278 47 276 44 274 41 266 33 263 31 255 27 251 26 248 25 " style="stroke:gray;fill:none"/><path d="M252 75 255 75 " style="stroke:gray;fill:none"/></svg>