<svg width="429px" height="547px" xmlns="http://www.w3.org/2000/svg"><path d="M140 492 140 497 142 500 142 502 143 504 145 507 149 509 149 511 158 520 161 522 165 524 168 525 171 524 173 523 175 521 176 518 177 515 177 504 176 501 174 497 172 496 169 496 166 497 163 498 162 499 155 499 153 498 150 496 145 491 " style="stroke:gray;fill:none"/><path d="M143 490 149 496 152 498 155 499 162 499 165 498 166 497 169 496 172 496 175 499 175 501 177 504 177 515 176 518 175 520 172 523 170 524 168 525 165 523 162 522 159 520 149 510 149 507 153 503 157 505 166 505 170 503 173 500 168 504 166 505 157 505 153 503 151 504 149 507 147 508 145 506 143 503 142 501 142 499 140 496 140 493 " style="stroke:gray;fill:none"/><path d="M140 484 " style="stroke:gray;fill:none"/><path d="M136 483 137 481 140 481 142 484 140 481 " style="stroke:gray;fill:none"/><path d="M280 478 281 480 282 482 285 482 288 480 288 478 285 482 283 482 " style="stroke:gray;fill:none"/><path d="M282 477 285 477 " style="stroke:gray;fill:none"/><path d="M282 478 285 478 " style="stroke:gray;fill:none"/><path d="M167 474 164 477 161 480 159 484 159 488 162 490 159 487 159 484 160 482 163 478 167 474 169 474 " style="stroke:gray;fill:none"/><path d="M134 474 134 478 134 474 136 477 140 478 136 479 140 479 140 477 136 477 " style="stroke:gray;fill:none"/><path d="M129 474 129 477 131 479 132 481 132 486 131 488 132 486 133 491 135 491 134 487 132 480 131 478 129 476 " style="stroke:gray;fill:none"/><path d="M134 487 134 491 " style="stroke:gray;fill:none"/><path d="M99 473 97 474 94 477 89 487 88 491 88 502 89 504 92 507 97 507 101 506 104 505 120 497 123 495 128 490 129 487 129 482 127 480 124 479 116 480 112 479 108 477 106 475 102 473 " style="stroke:gray;fill:none"/><path d="M94 481 98 486 100 488 102 489 105 490 114 490 117 489 121 487 123 486 127 490 122 495 119 497 103 505 100 506 97 507 93 507 88 502 88 491 89 487 90 485 92 482 " style="stroke:gray;fill:none"/><path d="M100 473 102 473 104 474 106 476 112 479 116 480 124 479 126 480 129 483 129 487 127 490 126 488 124 487 121 487 117 489 114 490 105 490 102 489 97 484 95 482 93 480 94 478 98 474 " style="stroke:gray;fill:none"/><path d="M27 474 27 476 29 477 31 476 30 473 " style="stroke:gray;fill:none"/><path d="M29 473 31 475 29 477 27 475 " style="stroke:gray;fill:none"/><path d="M178 464 179 469 178 464 180 462 " style="stroke:gray;fill:none"/><path d="M178 460 175 460 173 462 173 468 177 472 181 473 186 473 189 470 189 466 188 464 185 461 183 460 181 460 " style="stroke:gray;fill:none"/><path d="M178 460 181 460 183 460 189 466 189 469 185 473 182 473 178 472 173 467 173 463 176 460 " style="stroke:gray;fill:none"/><path d="M121 457 121 461 121 469 118 472 121 470 122 460 " style="stroke:gray;fill:none"/><path d="M105 445 103 446 101 449 102 460 103 464 104 466 111 473 114 474 119 475 123 474 125 473 128 470 129 468 130 465 131 460 131 455 130 453 127 452 124 454 118 454 112 451 110 449 107 446 " style="stroke:gray;fill:none"/><path d="M105 445 108 449 111 451 115 453 118 454 125 453 130 454 131 456 131 460 130 465 128 469 124 473 122 474 119 475 114 474 112 473 104 465 103 463 102 460 101 449 " style="stroke:gray;fill:none"/><path d="M123 440 123 443 120 446 123 444 " style="stroke:gray;fill:none"/><path d="M353 438 354 441 357 440 356 437 " style="stroke:gray;fill:none"/><path d="M355 437 357 439 355 441 353 439 " style="stroke:gray;fill:none"/><path d="M116 434 113 434 110 437 110 442 113 445 115 447 118 448 124 448 126 446 127 444 127 441 126 438 123 435 121 434 119 434 " style="stroke:gray;fill:none"/><path d="M116 434 119 434 122 435 126 439 127 441 127 443 126 445 123 448 118 448 116 447 113 445 111 443 110 441 110 438 114 434 " style="stroke:gray;fill:none"/><path d="M178 429 174 431 171 434 169 438 168 442 168 452 170 454 168 452 168 442 169 438 170 436 176 430 178 429 188 429 191 430 193 431 197 435 195 432 191 430 188 429 " style="stroke:gray;fill:none"/><path d="M98 401 101 402 102 404 105 404 107 406 106 404 103 404 101 402 101 400 " style="stroke:gray;fill:none"/><path d="M98 401 101 401 " style="stroke:gray;fill:none"/><path d="M279 388 280 390 283 389 282 386 " style="stroke:gray;fill:none"/><path d="M281 386 283 388 281 390 279 388 " style="stroke:gray;fill:none"/><path d="M217 387 216 389 215 392 215 397 213 401 213 404 212 408 211 409 210 412 209 416 208 420 207 424 208 429 212 429 213 427 213 425 214 422 215 421 216 417 217 413 218 408 219 404 219 400 220 395 222 392 222 387 220 386 " style="stroke:gray;fill:none"/><path d="M218 393 220 395 220 399 219 404 218 408 217 413 216 417 215 421 214 424 213 427 211 429 209 429 207 427 207 424 208 420 209 416 210 412 211 409 212 405 213 401 214 398 215 395 " style="stroke:gray;fill:none"/><path d="M220 386 222 388 222 392 220 395 218 393 215 392 216 389 " style="stroke:gray;fill:none"/><path d="M107 383 106 385 106 388 105 393 104 394 103 398 104 400 106 401 108 401 110 398 111 396 112 393 112 385 111 383 " style="stroke:gray;fill:none"/><path d="M108 383 110 383 112 385 112 392 111 395 110 397 108 399 106 398 106 401 103 398 104 394 105 389 106 385 " style="stroke:gray;fill:none"/><path d="M224 378 224 381 224 388 226 381 228 381 228 379 226 379 225 382 " style="stroke:gray;fill:none"/><path d="M227 381 " style="stroke:gray;fill:none"/><path d="M139 376 137 377 133 381 132 383 132 385 132 388 132 390 135 396 137 399 139 401 143 404 146 406 156 411 160 412 164 413 170 414 180 414 187 413 191 412 194 411 197 410 200 408 203 407 204 405 201 408 197 410 194 411 191 412 187 413 180 414 170 414 164 413 160 412 156 411 148 407 145 405 141 402 136 397 134 394 132 390 132 388 132 385 132 383 " style="stroke:gray;fill:none"/><path d="M185 369 185 373 185 376 185 373 184 371 188 370 190 374 188 373 188 369 " style="stroke:gray;fill:none"/><path d="M27 367 25 369 25 373 27 375 31 375 33 373 33 370 32 368 30 367 " style="stroke:gray;fill:none"/><path d="M30 368 32 370 33 372 30 375 28 375 25 372 25 370 " style="stroke:gray;fill:none"/><path d="M118 366 115 370 112 371 110 371 112 371 115 370 117 369 " style="stroke:gray;fill:none"/><path d="M152 363 151 367 155 367 154 364 " style="stroke:gray;fill:none"/><path d="M152 363 154 364 154 367 150 365 " style="stroke:gray;fill:none"/><path d="M186 359 185 361 186 363 189 363 189 359 " style="stroke:gray;fill:none"/><path d="M189 360 187 363 185 361 " style="stroke:gray;fill:none"/><path d="M171 354 170 356 " style="stroke:gray;fill:none"/><path d="M191 352 177 353 173 355 171 358 169 360 163 361 161 359 159 356 156 359 154 359 152 357 148 357 145 358 144 360 142 363 142 365 144 369 148 373 150 373 155 376 158 377 161 378 165 379 169 379 172 379 184 379 187 377 190 377 194 375 196 373 196 371 197 367 198 366 199 360 199 355 198 353 196 352 " style="stroke:gray;fill:none"/><path d="M191 352 195 352 199 356 199 360 198 366 197 370 196 372 193 375 190 377 186 378 183 379 172 379 169 379 165 379 162 378 159 377 155 376 149 373 143 367 143 363 144 360 147 357 150 356 153 359 157 359 161 357 161 359 163 361 169 361 170 358 171 364 169 371 165 371 160 370 158 367 160 365 166 366 166 369 165 365 160 365 159 370 157 372 157 374 157 372 159 370 164 370 170 371 170 365 171 359 172 357 175 354 177 353 " style="stroke:gray;fill:none"/><path d="M139 352 " style="stroke:gray;fill:none"/><path d="M336 338 336 342 " style="stroke:gray;fill:none"/><path d="M331 338 330 340 331 342 334 340 332 342 330 340 332 338 334 338 " style="stroke:gray;fill:none"/><path d="M104 330 102 332 98 337 96 340 94 344 93 347 92 351 92 358 93 361 94 364 96 367 98 369 101 371 103 372 107 373 112 373 115 373 117 373 121 371 122 365 120 363 117 362 111 356 110 353 105 348 105 346 107 344 108 342 107 330 " style="stroke:gray;fill:none"/><path d="M106 330 108 332 108 342 106 344 105 346 105 348 106 350 110 354 111 357 116 362 119 363 122 366 122 369 120 371 117 373 115 373 112 373 107 373 104 372 102 371 99 369 96 366 94 363 93 361 92 358 92 351 93 347 96 341 98 338 102 333 " style="stroke:gray;fill:none"/><path d="M243 327 239 328 236 329 224 335 221 337 216 341 210 347 208 350 218 340 223 336 226 334 236 329 239 328 243 327 246 327 248 328 250 331 248 328 246 327 " style="stroke:gray;fill:none"/><path d="M125 326 121 327 118 328 114 332 114 349 115 352 116 354 120 358 122 358 125 360 132 360 135 359 138 357 141 354 143 351 144 348 141 346 137 347 135 345 135 343 136 339 137 334 138 333 138 331 137 329 135 327 132 326 " style="stroke:gray;fill:none"/><path d="M125 326 132 326 134 327 137 330 137 334 137 338 136 342 135 343 135 345 136 347 138 348 141 349 142 346 144 349 141 353 136 358 132 360 125 360 121 358 115 352 114 349 114 333 119 328 121 327 " style="stroke:gray;fill:none"/><path d="M140 320 " style="stroke:gray;fill:none"/><path d="M202 316 202 318 198 322 194 325 191 327 187 329 185 329 182 331 179 332 182 331 185 329 187 329 193 326 196 324 200 321 202 319 " style="stroke:gray;fill:none"/><path d="M233 315 231 316 224 324 220 327 217 329 214 331 210 333 208 333 205 335 202 336 199 337 195 338 190 339 184 340 162 339 154 340 154 344 156 345 158 346 163 347 172 347 174 348 179 347 182 347 184 348 194 346 202 346 206 350 206 354 205 358 204 359 204 364 203 370 202 374 200 377 197 380 191 383 188 384 184 385 165 385 161 384 158 383 155 382 152 381 148 379 146 377 143 376 137 369 135 367 131 367 126 373 124 375 119 379 117 382 118 391 118 394 115 400 112 403 108 411 107 414 106 417 105 420 104 424 104 430 106 431 109 431 111 429 113 428 116 427 118 427 121 428 123 429 125 431 127 433 131 438 133 440 135 441 138 440 140 437 143 433 145 430 145 426 145 421 143 420 145 418 148 420 153 423 155 423 157 424 160 427 160 429 158 432 157 435 157 449 156 454 155 458 154 462 153 465 147 476 147 479 147 482 147 484 148 487 153 492 156 493 162 493 165 492 168 491 170 490 174 487 178 483 178 479 176 477 171 473 168 469 167 467 167 463 168 461 174 455 176 454 183 454 188 457 192 457 195 454 196 451 197 448 198 445 199 441 200 436 201 431 201 425 202 421 203 417 204 413 205 409 206 406 207 402 208 398 209 394 210 390 211 387 212 385 214 382 218 378 234 363 238 358 241 354 243 351 245 348 247 345 249 341 249 339 252 334 253 331 253 327 249 323 247 323 245 322 239 316 237 315 " style="stroke:gray;fill:none"/><path d="M234 315 236 315 238 316 244 322 246 323 248 323 250 324 252 326 253 328 253 331 251 334 251 336 247 344 245 347 243 350 241 353 238 357 234 362 217 378 214 381 212 384 211 387 210 390 209 394 208 398 207 402 206 406 205 409 204 413 203 417 202 421 201 425 201 431 200 436 199 441 198 445 197 448 196 451 195 453 191 457 189 457 186 455 183 454 176 454 173 455 168 460 167 462 167 468 168 470 171 474 173 476 178 480 178 482 173 487 169 490 167 491 165 491 162 493 156 493 154 492 148 486 147 484 147 482 147 479 147 476 149 474 152 468 153 465 154 462 155 458 156 454 157 449 157 435 159 431 161 429 163 429 161 424 163 425 160 428 160 426 158 424 156 424 148 420 145 418 143 419 143 421 145 424 145 426 146 428 143 431 140 435 140 436 138 439 135 441 131 437 128 430 131 429 132 427 132 420 131 417 129 413 126 410 120 407 117 406 114 407 117 406 120 407 124 409 130 415 131 417 132 420 132 427 129 430 126 431 124 429 121 428 118 427 116 427 113 428 110 429 105 430 104 424 105 420 106 417 107 414 112 404 115 401 117 397 118 394 118 391 117 383 118 381 124 375 126 373 132 367 134 367 137 370 142 376 152 381 155 382 158 383 161 384 165 385 184 385 188 384 191 383 194 382 198 380 200 378 202 374 203 370 204 364 204 359 205 355 206 354 206 349 203 346 194 346 184 348 182 347 179 347 172 347 163 347 158 346 155 344 154 341 156 339 162 339 184 340 190 339 195 338 199 337 203 336 206 335 218 329 221 327 225 324 231 318 " style="stroke:gray;fill:none"/><path d="M114 317 112 320 109 323 107 323 104 327 108 325 108 323 110 323 112 322 114 319 117 315 " style="stroke:gray;fill:none"/><path d="M260 306 261 308 264 310 271 310 264 310 " style="stroke:gray;fill:none"/><path d="M409 305 410 307 412 310 413 308 " style="stroke:gray;fill:none"/><path d="M109 300 105 301 110 300 113 301 111 300 " style="stroke:gray;fill:none"/><path d="M92 292 " style="stroke:gray;fill:none"/><path d="M246 291 244 293 244 297 245 299 249 301 251 301 253 299 254 296 251 292 " style="stroke:gray;fill:none"/><path d="M247 291 249 291 251 293 253 296 253 298 247 300 245 298 244 296 244 294 " style="stroke:gray;fill:none"/><path d="M92 290 " style="stroke:gray;fill:none"/><path d="M102 282 99 283 " style="stroke:gray;fill:none"/><path d="M259 281 257 282 255 284 255 288 256 290 258 292 261 298 261 301 258 304 255 307 246 306 244 307 242 308 242 311 243 313 245 315 251 318 255 319 262 319 265 318 269 316 273 313 275 310 277 307 278 304 279 301 279 293 278 290 277 288 272 283 270 282 267 281 " style="stroke:gray;fill:none"/><path d="M259 281 267 281 271 283 277 289 279 293 279 301 278 304 277 306 275 309 273 311 271 313 268 316 265 318 262 319 255 319 251 318 249 316 246 315 243 312 243 308 246 306 256 307 260 304 260 302 261 298 260 295 258 291 256 289 255 287 255 285 " style="stroke:gray;fill:none"/><path d="M139 272 137 273 137 281 144 280 145 278 145 275 142 272 " style="stroke:gray;fill:none"/><path d="M139 272 141 272 144 279 142 281 138 281 136 279 136 275 " style="stroke:gray;fill:none"/><path d="M239 263 239 268 237 269 234 270 233 276 235 286 233 284 233 277 234 271 236 269 238 268 241 271 241 280 240 283 239 285 234 289 232 287 233 289 236 289 239 286 240 284 241 281 241 270 239 268 " style="stroke:gray;fill:none"/><path d="M98 261 96 264 95 268 95 281 96 285 97 289 98 292 100 295 103 298 107 298 108 295 107 292 105 287 104 282 103 276 103 265 102 262 " style="stroke:gray;fill:none"/><path d="M97 263 102 263 103 265 103 276 104 282 105 287 106 291 107 292 108 295 107 297 104 298 100 294 98 291 97 289 96 285 95 281 95 268 96 265 " style="stroke:gray;fill:none"/><path d="M106 257 104 259 98 259 " style="stroke:gray;fill:none"/><path d="M252 252 249 253 " style="stroke:gray;fill:none"/><path d="M111 251 109 255 108 259 108 265 109 268 112 271 114 280 112 278 112 270 109 267 108 265 108 259 109 256 111 252 114 250 116 252 117 254 117 266 115 269 115 274 116 281 117 283 121 287 122 289 123 292 123 294 125 297 125 299 126 301 128 303 129 305 128 307 125 309 123 308 121 306 119 304 117 302 115 298 115 296 113 293 112 290 112 288 114 285 112 282 113 285 112 287 112 290 113 293 114 296 116 299 116 301 117 303 119 306 122 308 125 309 128 308 129 305 128 302 126 300 125 298 125 296 122 291 121 288 121 286 122 284 123 282 122 284 121 286 117 282 116 280 115 273 115 270 117 267 117 253 116 251 " style="stroke:gray;fill:none"/><path d="M26 243 26 247 30 246 29 243 " style="stroke:gray;fill:none"/><path d="M28 243 30 245 26 246 " style="stroke:gray;fill:none"/><path d="M275 241 274 243 274 245 276 247 274 245 274 243 277 240 " style="stroke:gray;fill:none"/><path d="M387 238 386 240 387 242 390 240 " style="stroke:gray;fill:none"/><path d="M388 238 390 240 388 242 386 240 " style="stroke:gray;fill:none"/><path d="M230 237 228 238 228 240 229 244 230 248 231 250 234 253 231 249 230 247 229 243 228 239 " style="stroke:gray;fill:none"/><path d="M242 237 242 240 244 243 245 246 246 249 247 253 248 262 249 274 251 275 253 273 254 271 255 268 255 253 254 249 253 245 252 242 251 240 247 236 " style="stroke:gray;fill:none"/><path d="M244 236 246 236 251 241 253 245 254 249 255 253 255 268 254 271 251 272 251 275 248 272 248 262 247 253 246 249 245 246 244 245 243 242 243 240 242 238 " style="stroke:gray;fill:none"/><path d="M285 235 285 237 " style="stroke:gray;fill:none"/><path d="M277 235 278 238 278 235 280 235 282 238 282 241 281 243 277 245 281 244 281 242 282 238 282 235 " style="stroke:gray;fill:none"/><path d="M229 235 " style="stroke:gray;fill:none"/><path d="M130 235 " style="stroke:gray;fill:none"/><path d="M300 235 297 235 296 238 293 240 293 242 292 246 290 249 286 253 286 256 285 258 283 260 281 260 279 262 279 264 278 267 277 269 275 272 272 275 275 273 276 275 274 277 274 280 276 281 274 278 276 276 276 274 275 272 277 270 278 268 279 265 279 263 282 260 283 262 281 264 283 262 283 260 285 258 286 256 286 254 290 250 292 247 292 244 294 240 297 236 302 234 " style="stroke:gray;fill:none"/><path d="M232 234 232 236 235 238 237 242 238 245 239 248 239 250 236 252 238 254 238 256 236 258 234 255 236 258 234 260 235 267 236 260 239 261 239 258 237 253 239 251 239 247 238 244 237 241 233 236 " style="stroke:gray;fill:none"/><path d="M235 261 " style="stroke:gray;fill:none"/><path d="M237 257 236 260 " style="stroke:gray;fill:none"/><path d="M152 234 149 235 147 236 143 240 142 242 141 245 141 253 142 256 143 258 148 263 151 264 161 264 164 263 166 262 169 259 171 255 171 244 170 241 164 235 161 234 " style="stroke:gray;fill:none"/><path d="M152 234 161 234 163 235 170 242 171 244 171 254 169 258 165 262 161 264 151 264 149 263 142 256 141 253 141 245 143 241 148 236 " style="stroke:gray;fill:none"/><path d="M309 229 " style="stroke:gray;fill:none"/><path d="M346 228 344 229 341 230 339 230 341 230 344 229 346 228 348 227 " style="stroke:gray;fill:none"/><path d="M171 224 168 226 163 226 160 228 154 228 151 229 148 230 145 231 141 232 134 236 132 236 130 238 127 239 124 242 122 246 121 253 121 255 122 270 123 275 124 279 125 284 126 287 127 290 128 293 131 299 133 301 135 306 140 311 142 312 148 312 159 311 163 310 166 309 173 305 175 305 177 304 180 301 183 299 186 298 195 298 199 297 205 294 211 288 213 285 214 283 215 280 216 277 216 267 215 265 212 262 211 260 210 255 210 247 209 243 208 240 206 237 204 234 200 230 192 226 187 226 184 224 174 225 " style="stroke:gray;fill:none"/><path d="M204 276 207 276 " style="stroke:gray;fill:none"/><path d="M171 224 174 225 184 224 187 226 192 226 198 229 205 236 207 239 209 243 210 247 210 255 211 260 212 262 213 264 211 265 210 267 210 270 209 273 207 276 204 275 205 280 203 278 202 280 203 278 204 281 203 283 195 291 191 293 189 294 189 296 191 293 196 291 203 284 204 282 206 280 207 277 209 273 209 271 210 267 213 264 216 267 216 277 215 280 214 283 211 287 204 294 201 296 199 297 195 298 186 298 183 299 181 300 178 302 175 305 173 305 166 309 163 310 159 311 148 312 143 312 141 311 135 305 134 302 132 300 130 297 128 293 127 290 126 287 125 284 124 279 123 275 122 270 121 255 121 253 122 246 123 244 129 238 141 232 145 231 148 230 151 229 154 228 160 228 163 226 168 226 " style="stroke:gray;fill:none"/><path d="M355 221 357 220 " style="stroke:gray;fill:none"/><path d="M293 219 294 221 296 224 295 228 291 231 291 233 290 237 288 240 284 243 284 245 282 247 281 250 278 253 276 256 274 260 274 262 271 266 274 263 274 261 275 258 278 255 281 254 280 252 281 249 283 247 287 241 290 238 290 234 291 232 296 228 296 224 295 221 " style="stroke:gray;fill:none"/><path d="M281 253 279 255 " style="stroke:gray;fill:none"/><path d="M263 219 262 228 264 228 " style="stroke:gray;fill:none"/><path d="M263 219 263 228 " style="stroke:gray;fill:none"/><path d="M171 219 168 222 163 220 162 223 160 223 156 224 153 225 149 226 146 227 143 229 141 229 135 232 133 233 135 232 139 230 141 230 144 229 147 227 150 226 153 225 156 224 160 223 164 222 169 221 190 221 197 222 202 223 206 224 209 225 212 226 216 228 221 233 222 235 222 237 224 240 225 243 226 247 226 252 227 256 228 257 229 263 228 270 228 274 229 276 227 283 228 285 227 290 225 294 223 297 221 299 216 303 214 303 212 305 209 306 207 306 204 308 200 309 196 309 193 310 192 311 189 312 184 312 181 312 179 312 176 314 174 314 170 313 166 314 165 313 163 313 157 314 161 314 161 316 163 313 166 314 167 316 167 314 170 313 173 313 175 315 174 319 151 318 152 314 154 314 150 314 150 318 142 318 138 317 137 316 133 316 131 318 132 320 137 321 142 325 147 330 149 331 152 332 156 333 161 334 177 335 186 334 191 333 195 332 198 331 201 330 204 329 207 328 213 325 216 323 219 321 229 311 231 308 233 304 233 302 231 300 229 300 227 302 224 304 210 311 207 312 204 313 200 314 197 315 194 316 188 317 183 318 175 317 175 315 177 313 179 312 182 313 183 315 184 312 189 312 192 311 193 310 196 309 201 309 204 308 207 307 210 306 218 302 221 299 225 293 227 291 228 285 227 283 228 274 228 270 229 262 228 257 227 253 226 252 226 246 225 242 222 237 222 234 221 232 217 228 215 228 212 226 209 225 206 224 203 224 198 223 197 220 195 222 191 222 175 219 174 221 171 221 " style="stroke:gray;fill:none"/><path d="M230 300 233 304 231 306 229 309 229 310 218 321 215 323 212 325 204 329 201 330 198 331 195 332 191 333 186 334 177 335 161 334 156 333 152 332 149 331 142 325 137 319 136 321 134 321 131 318 133 316 137 316 141 317 142 318 152 319 174 319 183 318 188 317 194 316 197 315 200 314 204 313 207 312 210 311 213 309 215 309 223 305 225 303 227 302 " style="stroke:gray;fill:none"/><path d="M270 207 272 208 272 215 268 222 268 230 266 234 267 236 266 239 263 243 263 248 265 251 264 255 262 258 261 260 262 258 265 255 265 253 265 250 263 248 263 244 265 241 266 239 267 236 268 231 268 222 270 220 272 215 276 217 276 228 275 234 274 237 272 240 272 243 270 243 271 250 270 260 270 251 271 244 272 240 275 235 276 228 276 218 278 214 276 214 272 213 277 209 273 210 273 207 " style="stroke:gray;fill:none"/><path d="M274 210 276 212 272 211 " style="stroke:gray;fill:none"/><path d="M258 205 261 206 259 209 259 238 259 209 260 205 " style="stroke:gray;fill:none"/><path d="M287 204 288 207 288 212 291 215 292 217 289 213 288 211 288 208 290 207 290 205 " style="stroke:gray;fill:none"/><path d="M167 202 170 202 174 203 177 204 180 205 186 208 189 210 191 212 191 214 191 211 188 209 180 205 177 204 174 203 170 202 " style="stroke:gray;fill:none"/><path d="M323 200 321 201 320 203 322 206 323 209 325 211 330 210 330 203 327 200 " style="stroke:gray;fill:none"/><path d="M325 199 330 204 329 211 326 211 322 207 321 205 320 203 " style="stroke:gray;fill:none"/><path d="M174 198 165 199 162 200 161 201 156 201 153 202 150 203 147 204 135 210 131 213 127 216 122 221 119 225 115 233 115 238 119 238 123 235 125 233 128 231 131 230 133 228 141 224 143 224 146 222 149 221 152 220 155 219 159 218 164 217 173 216 190 216 194 217 195 218 202 218 206 219 210 220 213 221 214 222 217 223 220 224 224 224 224 219 218 213 214 210 210 207 208 207 199 202 196 201 192 200 188 199 176 198 " style="stroke:gray;fill:none"/><path d="M174 198 176 198 188 199 192 200 196 201 199 202 201 204 203 204 209 207 213 210 217 213 224 220 223 224 220 224 217 223 214 222 211 221 210 220 206 219 202 218 195 218 191 217 190 216 173 216 164 217 159 218 155 219 152 220 149 221 146 222 143 223 127 231 124 233 122 235 118 238 115 237 115 233 117 229 119 226 122 222 128 216 132 213 136 210 139 208 145 205 147 205 150 203 153 202 156 201 161 201 164 200 165 199 " style="stroke:gray;fill:none"/><path d="M371 197 370 201 372 201 " style="stroke:gray;fill:none"/><path d="M371 197 371 201 " style="stroke:gray;fill:none"/><path d="M247 194 247 196 245 197 246 199 248 200 246 201 246 203 248 205 246 206 246 209 246 212 248 216 248 228 252 226 254 226 254 204 252 226 248 226 248 216 247 210 246 209 246 207 248 206 248 198 246 197 " style="stroke:gray;fill:none"/><path d="M247 203 " style="stroke:gray;fill:none"/><path d="M362 189 359 190 358 194 358 196 359 198 360 200 363 200 361 200 359 198 358 196 358 194 357 192 359 190 362 189 365 193 364 190 " style="stroke:gray;fill:none"/><path d="M328 181 325 184 320 188 323 185 " style="stroke:gray;fill:none"/><path d="M74 176 73 178 74 180 77 180 78 178 77 176 " style="stroke:gray;fill:none"/><path d="M76 176 78 178 75 180 73 178 " style="stroke:gray;fill:none"/><path d="M193 174 191 175 188 177 188 182 194 183 197 181 200 180 199 175 197 174 " style="stroke:gray;fill:none"/><path d="M193 174 197 174 199 175 199 181 197 181 194 183 190 183 187 179 190 176 " style="stroke:gray;fill:none"/><path d="M75 171 72 175 73 173 75 172 77 171 79 174 78 171 " style="stroke:gray;fill:none"/><path d="M333 169 331 170 328 172 325 173 321 171 319 171 321 171 323 172 326 172 328 173 331 171 " style="stroke:gray;fill:none"/><path d="M281 169 279 170 281 171 279 172 280 174 281 171 283 169 " style="stroke:gray;fill:none"/><path d="M280 170 282 172 " style="stroke:gray;fill:none"/><path d="M321 168 312 169 311 170 300 171 286 171 288 171 300 171 311 170 320 169 321 168 323 168 " style="stroke:gray;fill:none"/><path d="M332 166 340 167 341 169 339 171 336 175 336 176 324 188 320 191 317 192 315 194 313 195 311 195 308 197 306 197 304 198 302 196 304 194 307 193 309 191 312 190 316 189 318 189 315 188 318 185 318 183 317 181 315 180 308 180 306 178 304 178 301 177 299 176 297 173 298 176 300 176 303 177 307 179 295 180 290 179 287 178 284 177 282 174 284 177 287 178 290 179 295 180 315 180 318 184 314 188 310 191 303 194 303 198 300 200 294 200 289 201 288 202 278 202 271 201 267 200 264 199 261 197 259 197 251 193 248 191 246 189 244 189 243 187 241 186 240 184 241 181 243 182 245 186 247 186 251 189 253 191 255 192 253 190 248 186 244 185 244 183 240 180 238 178 236 175 234 175 237 176 241 181 239 183 238 181 232 176 230 173 233 170 246 170 277 171 246 170 232 170 229 174 231 175 232 177 241 186 241 189 245 189 248 191 250 193 256 196 259 197 261 197 264 199 267 200 271 201 278 202 288 202 293 201 294 200 300 200 303 198 305 198 308 197 311 196 317 193 319 191 321 191 325 188 336 177 339 173 340 168 340 166 " style="stroke:gray;fill:none"/><path d="M242 189 " style="stroke:gray;fill:none"/><path d="M357 165 " style="stroke:gray;fill:none"/><path d="M326 167 328 167 330 166 330 164 " style="stroke:gray;fill:none"/><path d="M326 164 330 165 328 167 325 166 " style="stroke:gray;fill:none"/><path d="M362 163 364 167 363 165 " style="stroke:gray;fill:none"/><path d="M354 161 352 162 349 165 348 167 348 169 346 171 345 174 342 178 328 192 323 196 320 197 317 200 315 200 313 202 310 203 307 204 304 205 299 205 295 206 293 207 292 209 291 212 294 216 300 222 305 224 308 227 311 227 313 229 316 230 324 231 326 231 333 230 336 229 339 228 342 227 345 225 347 225 349 224 352 222 357 217 359 215 359 213 362 210 365 204 365 199 366 195 368 192 368 184 366 182 366 177 365 173 362 170 361 166 359 165 358 162 356 161 " style="stroke:gray;fill:none"/><path d="M357 162 359 164 359 166 361 167 361 169 362 171 365 174 366 177 365 183 362 183 360 181 357 177 357 176 351 170 351 167 355 164 351 167 351 170 352 172 358 178 361 183 366 182 368 184 368 192 366 195 365 199 365 204 363 206 362 209 359 212 359 214 357 215 352 220 350 222 348 224 342 227 339 228 336 229 333 230 326 231 324 231 316 230 313 229 311 227 309 227 307 225 304 224 301 222 294 215 291 211 292 209 295 206 299 205 304 205 307 204 310 203 313 202 319 199 322 197 325 195 330 191 341 180 344 176 345 173 347 171 349 166 " style="stroke:gray;fill:none"/><path d="M300 149 302 149 " style="stroke:gray;fill:none"/><path d="M0 145 1 148 " style="stroke:gray;fill:none"/><path d="M5 144 3 146 4 148 6 148 7 146 " style="stroke:gray;fill:none"/><path d="M5 144 7 146 5 148 3 146 " style="stroke:gray;fill:none"/><path d="M223 144 " style="stroke:gray;fill:none"/><path d="M219 139 219 143 220 145 222 147 227 148 235 149 237 149 243 149 243 152 243 150 245 148 248 148 250 149 248 148 245 148 242 148 237 149 235 149 227 148 223 147 220 144 219 142 " style="stroke:gray;fill:none"/><path d="M223 137 221 139 223 137 225 140 225 143 225 140 " style="stroke:gray;fill:none"/><path d="M216 132 215 134 217 137 215 134 " style="stroke:gray;fill:none"/><path d="M216 130 218 131 219 134 219 137 219 134 218 130 " style="stroke:gray;fill:none"/><path d="M359 128 357 130 357 132 362 136 364 138 364 140 361 143 358 144 355 145 351 146 347 147 342 148 337 149 330 150 321 151 312 152 300 153 283 153 267 154 266 155 244 155 233 154 223 153 216 152 211 151 208 150 206 148 205 146 206 144 208 143 211 140 210 135 206 135 203 136 201 138 199 138 197 140 194 141 192 143 191 146 191 148 192 151 195 154 198 156 200 157 203 158 206 159 209 160 213 161 217 162 223 163 229 164 238 164 248 165 250 167 287 166 291 166 292 169 292 167 294 165 304 165 305 164 315 164 321 163 322 162 326 162 322 162 316 163 315 164 305 164 295 166 288 165 249 166 239 165 229 164 223 163 217 162 213 161 209 160 206 159 203 158 199 156 196 154 192 150 191 148 191 146 192 144 195 141 198 139 206 135 209 135 211 137 211 139 206 143 205 145 205 147 206 149 211 151 216 152 223 153 233 154 244 155 266 155 282 154 283 153 300 153 312 152 321 151 330 150 337 149 342 148 347 147 351 146 355 145 358 144 363 142 364 140 364 138 363 136 357 131 360 128 363 128 366 129 369 130 371 131 378 138 378 141 371 148 361 153 358 154 356 154 353 156 349 157 346 158 342 159 337 159 334 160 333 161 329 161 333 161 336 160 337 159 342 159 346 158 349 157 353 156 356 155 359 154 362 152 364 152 372 148 378 142 378 138 377 136 373 132 369 130 366 129 363 128 " style="stroke:gray;fill:none"/><path d="M426 126 426 128 426 132 428 131 427 128 " style="stroke:gray;fill:none"/><path d="M420 126 420 128 422 129 424 127 422 125 " style="stroke:gray;fill:none"/><path d="M422 125 424 127 422 129 420 127 " style="stroke:gray;fill:none"/><path d="M199 124 195 125 193 126 192 128 188 128 187 130 182 130 178 133 171 140 169 143 166 150 165 152 167 154 166 150 167 147 169 144 172 145 175 146 175 148 174 150 172 152 170 153 168 150 169 152 169 154 171 152 174 151 174 149 175 145 173 144 171 141 175 139 177 135 180 137 183 137 189 134 192 132 195 130 193 130 191 132 187 135 183 137 180 137 177 135 179 133 182 131 184 130 187 130 189 128 195 128 193 127 196 125 200 124 210 125 209 129 208 126 208 128 206 130 204 130 201 131 195 134 192 136 186 142 185 144 185 150 186 152 194 160 198 162 200 162 202 163 204 166 207 166 211 166 213 168 212 172 209 172 206 171 204 170 201 167 201 165 202 169 206 171 209 172 213 172 214 167 217 167 219 168 221 171 224 173 224 175 227 179 229 182 231 184 236 188 236 193 231 198 227 201 224 202 222 204 220 204 217 204 215 204 213 203 211 201 209 200 207 200 202 197 199 196 194 195 190 194 185 193 175 193 173 191 167 185 167 183 165 181 165 179 163 176 162 171 162 162 163 157 164 156 164 154 164 156 163 161 162 162 162 171 163 176 164 179 165 182 167 184 167 186 171 191 173 192 175 193 185 193 190 194 194 195 198 196 202 197 204 199 206 200 208 200 210 201 212 203 214 204 217 204 220 204 222 204 228 201 232 198 237 194 239 196 236 193 236 187 233 184 228 180 226 177 224 174 224 173 220 168 218 167 215 166 212 167 207 165 204 166 204 163 202 163 199 162 195 160 186 151 185 149 185 145 186 143 193 136 196 134 204 130 207 129 210 129 212 128 210 127 210 124 " style="stroke:gray;fill:none"/><path d="M422 123 425 123 " style="stroke:gray;fill:none"/><path d="M245 105 243 107 243 110 244 112 245 114 248 116 270 127 272 127 279 131 282 132 284 132 289 135 292 136 294 136 297 138 299 138 302 140 304 140 309 143 311 144 309 143 304 140 302 140 299 138 297 138 294 136 292 136 289 135 284 132 282 132 279 131 272 127 270 127 250 117 247 115 244 112 243 110 243 107 245 105 249 105 258 109 260 111 270 116 272 116 281 121 283 121 286 123 289 124 291 124 296 127 298 127 301 128 306 131 308 131 311 133 313 133 320 137 322 137 324 138 326 140 326 142 326 139 324 138 322 137 320 137 313 133 311 133 308 131 306 131 301 128 299 128 296 127 291 124 289 124 286 123 283 121 281 121 272 116 270 116 262 112 260 110 249 105 " style="stroke:gray;fill:none"/><path d="M153 98 " style="stroke:gray;fill:none"/><path d="M163 86 166 88 170 91 173 93 174 93 178 96 182 99 188 104 194 109 200 116 197 119 194 120 192 120 188 121 180 125 177 127 174 129 167 136 165 139 165 140 160 145 158 145 154 141 152 138 148 130 147 127 146 122 146 112 147 107 148 104 149 101 152 95 156 90 159 87 161 87 163 90 156 96 155 98 158 95 163 91 163 88 161 87 158 87 156 89 152 94 150 98 150 100 148 103 147 107 146 112 146 122 147 127 148 131 150 133 151 135 151 137 152 139 154 142 157 145 160 145 162 144 165 141 167 138 167 137 175 129 178 127 182 124 184 124 186 122 188 121 192 120 194 120 197 119 199 118 199 113 195 109 189 104 183 99 179 96 175 93 172 92 168 88 165 86 " style="stroke:gray;fill:none"/><path d="M368 88 370 85 " style="stroke:gray;fill:none"/><path d="M369 85 371 87 367 87 " style="stroke:gray;fill:none"/><path d="M252 84 252 86 253 89 255 90 257 90 260 91 263 93 265 93 268 94 271 95 274 96 277 97 280 98 283 99 286 100 289 101 292 103 295 104 298 104 301 105 304 106 307 107 310 108 313 109 316 110 319 111 322 112 325 113 328 114 331 115 334 116 337 117 340 119 342 121 344 124 345 139 344 137 344 124 343 122 342 120 339 118 341 116 337 117 335 117 332 116 329 115 326 114 323 113 320 112 317 111 314 110 311 109 308 108 305 107 302 106 299 105 295 104 292 103 289 101 287 101 284 100 281 99 278 98 275 97 272 96 269 95 266 94 263 93 260 91 258 91 255 90 252 87 " style="stroke:gray;fill:none"/><path d="M238 84 236 85 232 89 227 95 226 98 227 96 229 93 " style="stroke:gray;fill:none"/><path d="M201 83 202 85 203 88 205 90 206 92 205 90 203 87 202 85 " style="stroke:gray;fill:none"/><path d="M249 80 246 82 245 82 240 86 234 92 230 97 228 100 227 102 225 100 223 101 219 103 216 102 219 103 223 101 225 100 227 102 226 105 223 110 222 113 221 116 220 119 219 123 219 128 219 123 220 119 221 116 222 113 223 110 225 108 225 106 226 104 228 101 230 98 233 94 242 85 246 82 247 82 250 79 252 78 " style="stroke:gray;fill:none"/><path d="M229 76 228 80 230 80 " style="stroke:gray;fill:none"/><path d="M229 76 229 80 " style="stroke:gray;fill:none"/><path d="M262 71 " style="stroke:gray;fill:none"/><path d="M260 71 " style="stroke:gray;fill:none"/><path d="M277 70 271 71 267 72 264 74 262 74 256 77 254 80 251 81 249 83 248 85 247 88 247 93 245 96 245 98 240 107 240 110 241 113 242 114 242 126 243 131 244 134 245 138 248 144 251 147 255 149 267 150 268 152 267 150 271 149 274 151 271 150 273 148 283 149 278 150 283 150 284 148 288 148 273 148 268 149 255 149 253 148 247 142 245 138 244 134 243 131 242 126 242 114 241 111 240 110 240 107 245 98 245 96 247 93 247 88 248 85 252 81 254 81 255 79 259 80 264 83 267 84 270 85 272 85 275 86 276 87 279 88 281 88 284 90 287 91 291 92 294 93 297 94 300 95 303 96 306 97 309 98 312 99 315 100 318 101 321 102 324 103 327 104 330 105 333 106 335 106 339 104 336 104 332 105 330 105 327 104 324 103 321 102 318 101 315 100 312 99 309 98 306 97 303 96 300 95 297 94 294 93 291 92 287 91 284 90 281 88 279 88 276 87 273 86 270 85 267 84 264 83 259 80 255 79 258 76 262 74 264 74 267 72 271 71 277 70 293 70 297 71 302 72 305 73 310 76 312 76 316 78 319 80 322 82 326 86 328 86 329 88 334 92 338 97 340 100 342 105 344 107 345 109 345 111 347 114 348 117 349 121 349 127 350 132 350 135 350 137 345 142 339 142 335 143 334 144 325 144 316 146 313 145 303 146 292 147 290 149 292 147 303 147 313 145 316 146 325 144 334 144 338 143 339 142 345 142 347 141 350 138 350 135 350 132 349 127 349 121 348 117 347 113 345 111 345 109 341 101 339 99 338 96 334 91 331 88 329 86 327 86 323 82 320 80 317 78 313 76 311 76 309 75 308 72 306 73 303 72 305 71 303 72 299 72 294 71 293 70 " style="stroke:gray;fill:none"/><path d="M307 74 " style="stroke:gray;fill:none"/><path d="M150 70 147 73 146 75 148 79 153 79 155 77 160 77 162 78 164 80 166 80 170 83 174 86 178 89 181 91 187 96 192 100 198 105 204 111 210 116 214 116 214 111 203 100 197 95 193 92 190 90 189 90 185 86 182 85 180 83 177 82 175 80 170 78 168 76 160 72 157 71 154 70 " style="stroke:gray;fill:none"/><path d="M151 70 154 70 157 72 159 72 171 78 173 80 178 82 181 84 184 86 188 89 192 92 196 95 202 100 214 112 215 114 213 116 211 116 206 111 199 105 193 100 188 96 183 92 179 89 175 86 172 84 168 81 160 77 154 77 152 79 149 79 147 77 146 75 " style="stroke:gray;fill:none"/><path d="M62 62 64 64 66 63 65 60 " style="stroke:gray;fill:none"/><path d="M64 60 66 62 64 64 62 62 " style="stroke:gray;fill:none"/><path d="M59 60 60 64 60 67 62 68 65 66 67 65 68 62 68 64 66 66 64 67 61 67 59 65 61 59 " style="stroke:gray;fill:none"/><path d="M200 54 200 56 198 59 198 69 197 73 195 76 193 74 190 72 185 72 183 73 182 78 184 80 187 81 190 84 192 85 195 85 196 83 196 80 195 76 197 74 198 69 198 60 199 57 200 56 " style="stroke:gray;fill:none"/><path d="M185 72 189 72 191 73 195 77 196 80 196 83 194 85 192 85 188 82 185 80 181 76 " style="stroke:gray;fill:none"/><path d="M221 45 219 46 218 49 219 51 223 51 223 46 " style="stroke:gray;fill:none"/><path d="M221 45 223 47 222 51 220 51 218 48 " style="stroke:gray;fill:none"/><path d="M228 35 " style="stroke:gray;fill:none"/><path d="M339 28 " style="stroke:gray;fill:none"/><path d="M340 26 342 26 341 28 343 26 " style="stroke:gray;fill:none"/><path d="M338 25 337 28 " style="stroke:gray;fill:none"/><path d="M234 25 229 27 227 26 225 27 222 28 220 29 217 31 216 34 214 34 212 36 212 38 210 40 208 40 202 47 203 51 202 56 203 58 206 59 209 59 211 60 215 60 221 61 223 63 222 67 211 67 207 67 205 64 202 65 201 67 201 77 202 79 204 80 204 83 205 85 208 88 208 91 210 96 213 98 218 99 220 100 222 99 222 94 220 93 214 90 212 90 211 86 217 86 219 88 222 90 227 90 229 89 236 82 239 81 242 78 247 74 255 70 257 70 260 68 263 67 266 66 271 65 277 65 281 63 282 61 282 58 281 54 280 51 279 48 277 45 275 42 266 33 263 31 255 27 252 26 248 25 " style="stroke:gray;fill:none"/><path d="M205 44 206 48 205 50 202 50 202 48 204 46 " style="stroke:gray;fill:none"/><path d="M228 26 229 30 226 33 224 33 221 32 217 32 219 30 222 28 225 27 " style="stroke:gray;fill:none"/><path d="M235 25 248 25 252 26 255 27 257 28 258 31 262 31 265 33 275 43 278 47 279 49 280 52 281 55 280 58 278 58 276 56 270 43 265 38 258 33 262 37 271 45 276 56 277 58 281 57 282 61 279 64 277 65 271 65 266 66 263 67 260 68 257 69 252 72 250 72 248 74 245 75 241 78 238 81 235 82 227 90 223 90 221 89 219 87 217 86 213 85 213 83 214 79 212 75 207 76 207 79 208 75 213 76 214 79 214 82 212 84 210 84 207 81 209 84 213 85 210 86 210 89 212 90 214 90 216 91 218 93 220 93 222 95 222 98 220 100 217 100 214 98 211 96 209 94 208 91 208 87 204 83 204 80 201 77 201 67 202 65 204 64 206 67 208 67 211 67 223 67 223 62 221 61 216 61 211 60 209 59 205 59 202 56 202 53 206 49 206 44 208 41 212 39 212 37 215 34 218 33 221 32 224 33 225 35 225 33 228 32 229 30 229 28 231 26 " style="stroke:gray;fill:none"/></svg>