<svg width="429px" height="547px" xmlns="http://www.w3.org/2000/svg"><path d="M142 490 140 492 140 497 143 503 145 506 147 508 149 510 151 513 157 519 161 522 165 524 171 524 175 520 176 517 177 514 177 504 175 501 175 498 173 496 168 496 165 497 162 498 161 499 156 499 152 497 145 490 " style="stroke:gray;fill:none"/><path d="M173 500 177 504 177 514 176 517 175 519 170 524 166 524 162 522 158 519 151 512 149 509 149 507 153 503 157 505 166 505 170 503 " style="stroke:gray;fill:none"/><path d="M144 490 151 497 155 499 162 499 165 498 166 497 169 496 172 496 174 501 172 500 168 504 166 505 157 505 153 503 151 504 149 506 148 508 145 505 143 502 140 496 140 493 " style="stroke:gray;fill:none"/><path d="M282 477 282 480 285 478 285 480 284 476 " style="stroke:gray;fill:none"/><path d="M166 474 162 478 160 481 158 486 158 488 161 491 161 489 159 487 159 485 160 482 162 479 168 474 " style="stroke:gray;fill:none"/><path d="M27 474 27 476 29 477 31 476 30 473 " style="stroke:gray;fill:none"/><path d="M29 473 31 475 29 477 27 475 " style="stroke:gray;fill:none"/><path d="M177 460 175 461 173 463 173 467 176 470 178 472 181 473 186 473 189 470 189 466 188 464 184 460 " style="stroke:gray;fill:none"/><path d="M177 460 183 460 189 466 189 469 185 473 181 473 179 472 176 470 174 468 173 466 173 464 " style="stroke:gray;fill:none"/><path d="M121 457 122 459 122 468 121 470 118 472 121 471 122 469 " style="stroke:gray;fill:none"/><path d="M102 447 102 460 103 464 104 466 111 473 114 474 120 475 119 480 118 476 115 479 115 476 112 478 107 476 104 473 99 473 93 479 93 481 91 483 90 485 89 488 88 491 88 502 89 504 92 507 97 507 101 506 104 505 118 498 121 496 128 489 129 487 129 482 124 477 122 476 125 478 123 480 120 479 121 474 123 474 125 473 127 471 129 468 130 464 131 459 131 456 130 454 128 453 125 453 118 454 112 451 109 449 107 446 " style="stroke:gray;fill:none"/><path d="M94 481 97 484 101 489 105 490 114 490 117 489 121 487 123 486 126 490 120 496 117 498 103 505 100 506 97 507 93 507 88 502 88 491 89 488 90 485 " style="stroke:gray;fill:none"/><path d="M100 473 103 473 106 476 112 479 116 480 123 480 125 479 129 483 129 487 127 490 126 488 124 487 121 487 117 489 114 490 105 490 102 489 96 482 93 480 " style="stroke:gray;fill:none"/><path d="M104 446 107 447 109 449 111 451 115 453 118 454 125 453 128 453 130 455 131 457 131 459 130 464 129 467 127 470 124 473 122 474 120 475 114 474 112 473 104 465 103 463 102 460 102 448 " style="stroke:gray;fill:none"/><path d="M124 441 119 446 121 445 123 443 " style="stroke:gray;fill:none"/><path d="M353 438 354 441 357 440 356 437 " style="stroke:gray;fill:none"/><path d="M355 437 357 439 355 441 353 439 " style="stroke:gray;fill:none"/><path d="M113 434 110 437 110 442 113 445 115 447 118 448 124 448 126 446 127 444 127 441 126 439 122 435 120 434 " style="stroke:gray;fill:none"/><path d="M114 434 120 434 127 441 127 443 126 445 123 448 118 448 116 447 113 445 111 443 110 441 110 438 " style="stroke:gray;fill:none"/><path d="M178 429 175 430 172 432 170 435 169 439 168 442 168 452 169 454 171 454 168 451 168 442 169 439 170 436 172 434 174 432 176 430 179 429 187 429 190 430 194 432 197 435 195 432 191 430 188 429 " style="stroke:gray;fill:none"/><path d="M108 401 " style="stroke:gray;fill:none"/><path d="M215 394 215 397 214 400 213 404 212 408 211 412 210 413 209 416 208 420 207 424 208 428 211 429 213 427 214 424 215 421 216 417 217 412 218 407 219 403 220 398 220 395 218 393 " style="stroke:gray;fill:none"/><path d="M218 393 220 395 220 398 219 403 218 407 217 412 216 417 215 421 214 424 213 426 210 429 207 426 207 424 208 420 209 416 210 413 211 409 212 405 213 401 214 398 215 395 " style="stroke:gray;fill:none"/><path d="M280 386 279 388 280 390 283 389 282 386 " style="stroke:gray;fill:none"/><path d="M281 386 283 388 281 390 279 388 " style="stroke:gray;fill:none"/><path d="M217 385 221 385 219 387 217 387 216 389 216 391 217 389 219 387 222 387 221 391 221 393 221 391 222 386 220 384 " style="stroke:gray;fill:none"/><path d="M107 383 106 385 106 389 104 395 105 398 105 402 105 398 108 399 110 397 112 393 112 386 111 384 " style="stroke:gray;fill:none"/><path d="M108 383 111 384 112 386 112 392 110 396 108 398 104 397 104 395 105 390 106 385 " style="stroke:gray;fill:none"/><path d="M187 378 190 377 " style="stroke:gray;fill:none"/><path d="M133 381 132 383 132 391 134 395 143 404 146 406 156 411 159 412 163 413 167 414 184 414 188 413 192 412 196 411 199 409 201 409 203 406 200 409 198 409 195 411 191 412 188 413 184 414 167 414 163 413 160 412 157 411 147 406 144 404 134 394 132 390 132 384 133 382 139 376 " style="stroke:gray;fill:none"/><path d="M27 367 25 369 25 373 27 375 31 375 33 373 33 370 31 368 29 367 " style="stroke:gray;fill:none"/><path d="M29 367 33 372 30 375 28 375 25 372 25 370 " style="stroke:gray;fill:none"/><path d="M118 365 118 368 116 369 113 370 112 371 110 371 113 371 116 370 118 368 " style="stroke:gray;fill:none"/><path d="M186 359 185 361 186 363 189 363 189 359 " style="stroke:gray;fill:none"/><path d="M189 360 187 363 185 361 " style="stroke:gray;fill:none"/><path d="M148 357 142 363 142 367 143 369 146 372 153 375 155 376 153 375 147 372 143 368 142 366 142 364 144 360 147 357 150 356 153 359 158 359 160 357 157 359 154 359 152 357 " style="stroke:gray;fill:none"/><path d="M191 352 177 353 175 354 173 355 172 357 171 359 171 364 169 371 165 371 159 370 157 372 157 375 159 377 161 378 165 379 170 380 169 383 169 381 171 379 184 378 185 376 185 373 184 371 188 370 189 374 191 375 193 375 195 374 197 370 198 366 199 360 199 356 198 354 194 352 " style="stroke:gray;fill:none"/><path d="M191 352 194 352 196 353 198 355 199 357 199 360 198 366 197 370 196 372 194 374 190 374 189 374 188 369 185 369 185 373 185 376 182 379 170 380 165 379 162 378 160 377 157 374 157 372 159 370 164 370 170 371 170 365 171 359 172 357 175 354 177 353 " style="stroke:gray;fill:none"/><path d="M331 338 330 340 332 342 334 341 333 338 " style="stroke:gray;fill:none"/><path d="M332 338 334 340 332 342 330 340 " style="stroke:gray;fill:none"/><path d="M104 330 102 332 98 337 96 340 94 344 93 348 92 351 92 357 93 361 95 365 101 371 104 372 108 373 112 373 115 373 117 373 119 372 122 369 122 366 121 364 118 363 111 356 110 353 105 348 105 346 107 344 108 342 107 330 " style="stroke:gray;fill:none"/><path d="M106 330 108 332 108 341 105 346 105 348 106 350 110 354 111 357 116 362 119 363 121 365 122 368 117 373 115 373 112 373 108 373 104 372 102 371 95 364 93 361 92 357 92 351 93 348 94 345 96 341 98 338 102 333 " style="stroke:gray;fill:none"/><path d="M243 327 240 328 237 329 233 330 227 333 224 335 221 337 211 346 209 348 209 350 212 346 222 337 225 335 228 333 234 330 237 329 240 328 244 327 247 327 250 330 248 327 " style="stroke:gray;fill:none"/><path d="M125 326 121 327 118 328 114 332 114 349 115 352 116 354 120 358 122 359 125 360 132 360 135 359 138 357 141 354 142 352 142 350 140 348 144 347 144 351 144 346 141 346 137 347 135 345 135 343 136 339 137 334 137 331 136 328 134 327 132 326 " style="stroke:gray;fill:none"/><path d="M125 326 132 326 134 327 137 330 137 334 137 338 136 342 135 343 135 345 136 347 138 348 140 348 141 353 137 357 134 359 132 360 125 360 121 358 115 352 114 349 114 333 119 328 121 327 " style="stroke:gray;fill:none"/><path d="M203 318 200 319 198 321 195 324 192 326 189 328 184 330 182 331 184 331 190 328 193 326 196 324 200 321 201 319 " style="stroke:gray;fill:none"/><path d="M233 315 224 324 220 327 217 329 214 331 210 333 208 333 205 335 202 336 199 337 195 338 190 339 184 340 162 339 154 340 154 343 156 345 158 346 163 347 173 348 173 351 173 349 175 347 181 348 181 351 181 349 183 347 194 346 203 346 206 349 206 353 205 357 204 358 204 363 203 370 202 374 200 377 197 380 191 383 187 384 183 385 166 385 162 384 158 383 155 382 152 381 148 379 146 377 143 376 134 367 131 367 128 370 123 376 122 376 119 379 117 382 116 386 114 386 117 387 118 391 118 394 115 400 112 403 110 407 110 409 108 411 107 414 106 417 105 420 104 424 104 428 106 431 109 431 112 428 116 427 118 427 121 428 125 430 130 435 132 438 132 439 137 440 139 438 141 435 144 431 145 429 146 427 145 424 144 422 143 420 145 418 147 419 149 420 151 422 153 423 157 424 163 425 161 429 159 427 161 429 158 432 157 435 157 450 156 455 155 459 154 463 148 474 147 477 147 484 149 488 153 492 156 493 163 493 166 492 168 491 171 489 174 487 178 483 178 480 175 477 169 471 167 466 167 463 168 460 173 455 175 454 178 454 181 454 184 454 186 456 188 457 192 457 195 454 196 451 197 448 198 444 199 440 200 435 201 431 201 424 202 420 203 417 204 413 205 409 206 405 207 402 208 398 209 394 210 391 211 387 213 383 219 377 234 363 238 358 241 354 243 351 245 348 252 334 253 331 253 327 249 323 247 323 245 322 242 320 237 315 " style="stroke:gray;fill:none"/><path d="M234 315 236 315 241 320 244 322 246 323 248 323 253 328 253 331 251 334 251 336 249 338 245 347 243 350 241 353 238 357 234 362 218 377 214 381 212 384 211 387 210 391 209 394 208 398 207 402 206 405 205 409 204 413 203 417 202 420 201 424 201 431 200 435 199 440 198 444 197 448 196 451 195 453 191 457 189 457 184 454 181 454 178 454 175 454 171 456 168 459 167 461 167 463 167 466 167 468 169 472 173 476 178 480 178 482 173 487 169 490 163 493 156 493 154 492 149 487 147 484 147 477 153 466 154 463 155 459 156 455 157 450 157 435 158 433 163 429 162 424 157 424 154 423 148 420 145 418 143 419 143 421 145 424 146 427 144 429 141 433 141 434 139 437 136 440 134 440 132 438 130 435 127 431 131 429 132 427 132 419 129 413 126 410 120 407 116 406 114 407 120 407 124 409 129 414 131 417 132 420 132 426 131 428 129 430 127 431 125 430 121 428 118 427 116 427 112 428 108 431 106 430 104 428 104 424 105 420 106 417 107 414 112 404 115 401 117 397 118 394 118 391 117 383 118 381 124 376 128 372 133 367 142 376 152 381 155 382 158 383 162 384 166 385 183 385 187 384 191 383 194 382 198 380 200 378 202 374 203 370 204 363 204 358 205 354 206 353 206 348 204 346 194 346 183 347 180 347 175 347 172 347 163 347 159 346 157 345 154 341 156 339 162 339 184 340 190 339 195 338 199 337 203 336 206 335 218 329 221 327 225 324 " style="stroke:gray;fill:none"/><path d="M137 313 " style="stroke:gray;fill:none"/><path d="M134 311 136 311 " style="stroke:gray;fill:none"/><path d="M407 308 407 311 410 310 408 308 410 308 " style="stroke:gray;fill:none"/><path d="M230 300 228 301 226 302 224 304 221 305 219 307 215 309 213 309 210 311 207 312 204 313 201 314 198 315 194 316 189 317 184 318 174 319 152 319 142 318 141 317 138 318 136 321 134 321 132 320 131 318 133 316 136 316 130 315 128 317 129 319 131 320 133 321 137 321 142 325 147 330 149 331 152 332 156 333 161 334 186 334 191 333 195 332 198 331 201 330 204 329 207 328 213 325 216 323 220 320 229 311 231 308 232 305 233 303 232 301 " style="stroke:gray;fill:none"/><path d="M130 315 132 317 130 319 128 317 " style="stroke:gray;fill:none"/><path d="M228 301 231 301 233 304 231 306 229 309 229 310 219 320 215 323 212 325 204 329 201 330 198 331 195 332 191 333 186 334 161 334 156 333 152 332 149 331 142 325 137 320 138 318 141 317 151 318 152 319 174 319 184 318 189 317 194 316 198 315 201 314 204 313 207 312 210 311 213 309 215 309 223 305 225 303 " style="stroke:gray;fill:none"/><path d="M246 291 244 293 244 297 247 300 249 301 251 301 253 299 254 296 249 291 " style="stroke:gray;fill:none"/><path d="M248 291 253 296 253 298 249 301 244 296 244 294 " style="stroke:gray;fill:none"/><path d="M232 287 233 289 236 289 " style="stroke:gray;fill:none"/><path d="M112 283 " style="stroke:gray;fill:none"/><path d="M259 281 257 282 255 284 255 287 256 290 258 292 261 298 261 301 260 303 256 307 246 306 244 307 243 309 242 311 247 316 249 317 252 318 255 319 261 319 264 318 267 317 269 316 274 311 277 307 278 304 279 300 279 294 278 291 277 288 272 283 270 282 267 281 " style="stroke:gray;fill:none"/><path d="M259 281 267 281 271 283 277 289 278 291 279 294 279 300 278 304 277 306 275 309 268 316 264 318 261 319 255 319 252 318 248 316 242 310 246 306 257 307 259 305 261 307 263 310 265 311 270 311 266 311 264 310 261 306 259 305 261 301 261 298 260 295 258 291 256 289 255 287 255 285 " style="stroke:gray;fill:none"/><path d="M139 272 136 275 136 278 137 281 140 282 144 280 145 278 145 275 142 272 " style="stroke:gray;fill:none"/><path d="M141 272 144 279 142 281 140 282 138 281 136 279 135 276 138 273 " style="stroke:gray;fill:none"/><path d="M97 262 96 264 95 268 95 280 96 285 97 288 98 291 99 293 101 295 103 297 105 298 107 297 108 295 107 292 106 288 105 287 104 282 103 277 103 264 102 262 " style="stroke:gray;fill:none"/><path d="M97 263 101 262 103 264 103 277 104 282 105 287 106 291 107 292 108 295 105 298 103 297 101 295 99 292 97 288 96 285 95 280 95 268 96 265 " style="stroke:gray;fill:none"/><path d="M234 261 " style="stroke:gray;fill:none"/><path d="M238 254 239 256 236 258 234 255 236 258 236 262 235 267 235 263 237 261 240 264 239 267 237 269 234 272 233 280 233 284 234 286 237 287 240 284 241 281 241 272 240 269 239 268 239 265 241 264 240 259 239 263 238 257 " style="stroke:gray;fill:none"/><path d="M238 268 240 270 241 272 241 280 240 283 236 287 233 284 233 280 234 272 " style="stroke:gray;fill:none"/><path d="M237 257 237 261 " style="stroke:gray;fill:none"/><path d="M111 251 109 255 109 268 112 271 112 277 114 280 114 285 112 288 112 290 113 293 114 296 118 304 122 308 126 308 128 307 128 303 123 294 123 292 122 289 121 287 116 282 115 275 115 269 117 267 117 256 115 251 " style="stroke:gray;fill:none"/><path d="M113 250 116 253 117 256 117 266 115 268 115 275 116 282 117 284 122 289 123 292 124 295 124 297 128 304 128 306 126 308 123 308 117 302 115 298 115 296 113 293 112 290 112 288 114 286 114 280 112 277 112 270 109 267 109 256 111 252 " style="stroke:gray;fill:none"/><path d="M26 244 27 247 29 247 29 243 " style="stroke:gray;fill:none"/><path d="M28 243 28 247 26 245 " style="stroke:gray;fill:none"/><path d="M123 242 122 244 " style="stroke:gray;fill:none"/><path d="M386 239 387 242 390 242 389 238 " style="stroke:gray;fill:none"/><path d="M388 238 388 242 386 240 " style="stroke:gray;fill:none"/><path d="M242 237 242 240 244 243 245 246 246 250 247 254 248 260 249 273 252 274 254 271 255 268 255 256 254 249 253 245 252 242 251 240 247 236 " style="stroke:gray;fill:none"/><path d="M244 236 246 236 251 241 253 245 254 249 255 256 255 267 254 270 252 272 248 271 248 260 247 254 246 250 245 246 244 243 243 242 243 240 242 238 " style="stroke:gray;fill:none"/><path d="M229 234 232 235 229 238 228 240 230 242 230 247 232 250 234 252 237 252 239 250 239 247 238 244 236 241 236 239 232 234 " style="stroke:gray;fill:none"/><path d="M232 236 236 240 236 242 238 245 238 247 239 249 235 252 231 248 230 246 229 241 229 238 " style="stroke:gray;fill:none"/><path d="M152 234 149 235 147 236 143 240 141 244 140 247 140 250 141 253 142 256 143 258 148 263 151 264 161 264 164 263 166 262 169 259 171 255 172 252 172 246 171 243 170 241 164 235 161 234 " style="stroke:gray;fill:none"/><path d="M153 234 161 234 163 235 166 237 168 239 171 243 172 246 172 252 169 258 164 263 160 264 151 264 149 263 146 261 144 259 141 253 140 250 140 247 141 244 142 242 148 236 150 235 " style="stroke:gray;fill:none"/><path d="M170 221 164 222 160 223 155 224 152 226 150 226 147 227 144 229 141 229 135 232 132 234 129 236 128 239 125 242 122 248 122 263 123 270 124 278 125 282 126 285 127 288 132 297 132 299 134 301 137 308 139 310 141 311 144 312 148 313 152 311 160 311 163 310 166 309 168 307 170 307 178 303 181 300 186 298 189 296 192 298 190 299 193 297 198 297 204 294 207 292 210 289 213 285 214 283 215 280 216 276 216 268 215 266 211 264 211 261 211 255 210 248 209 244 206 238 204 235 198 229 195 227 192 226 187 225 168 225 164 226 163 227 156 227 153 229 150 229 146 230 144 232 142 233 140 233 132 237 130 238 132 237 140 233 142 233 147 230 150 229 154 228 157 227 163 227 168 226 169 225 187 225 192 226 194 227 197 229 205 237 207 240 209 244 210 248 211 255 211 261 212 263 209 266 208 268 208 270 205 274 203 276 201 279 200 282 197 285 194 290 191 294 192 292 193 294 195 291 198 289 199 289 202 286 204 283 206 280 207 277 209 275 209 272 209 274 207 278 205 281 202 285 194 290 196 288 200 283 202 278 205 275 207 272 208 270 209 267 210 270 210 268 215 266 216 268 216 276 215 280 214 283 211 287 205 293 202 295 198 297 192 298 190 296 188 296 186 298 184 298 182 300 179 301 176 304 170 307 168 307 163 310 160 311 151 312 145 312 142 311 140 310 136 306 128 290 127 287 126 284 125 281 124 277 123 270 122 262 122 249 123 246 124 244 127 241 128 239 129 236 134 234 136 232 142 229 144 229 147 227 150 226 153 225 156 224 160 223 164 222 170 221 190 221 197 222 202 223 206 224 209 225 212 226 216 228 221 233 222 235 222 237 224 240 225 243 226 248 227 253 227 260 229 263 228 270 228 274 229 276 227 283 228 285 227 289 226 292 225 294 223 297 221 299 217 302 211 305 209 305 206 307 203 308 200 309 195 310 191 311 187 311 183 313 179 312 176 314 161 314 153 314 161 314 176 314 179 312 183 313 187 311 191 311 195 310 200 309 203 308 206 307 209 305 211 305 219 301 223 298 224 296 226 293 227 289 228 285 227 283 228 274 228 270 229 263 227 260 227 253 226 248 225 243 224 240 222 237 222 235 221 232 218 229 212 226 209 225 206 224 202 223 197 222 190 221 " style="stroke:gray;fill:none"/><path d="M211 264 212 266 210 268 209 266 " style="stroke:gray;fill:none"/><path d="M217 207 218 209 219 207 " style="stroke:gray;fill:none"/><path d="M218 209 " style="stroke:gray;fill:none"/><path d="M166 202 169 202 173 203 176 204 179 205 185 208 187 210 189 211 191 212 190 214 192 212 190 211 182 207 180 205 178 205 175 204 173 202 170 202 " style="stroke:gray;fill:none"/><path d="M323 201 321 202 321 204 322 206 324 209 329 209 329 204 326 201 " style="stroke:gray;fill:none"/><path d="M323 201 325 201 327 202 329 204 329 208 326 210 323 207 321 203 " style="stroke:gray;fill:none"/><path d="M174 198 166 199 161 200 157 201 153 202 150 203 147 204 135 210 131 213 127 216 122 221 120 224 118 227 115 233 115 238 119 238 123 235 125 233 128 231 131 230 133 228 141 224 143 224 145 222 148 221 151 220 155 219 159 218 164 217 171 216 190 216 194 217 195 218 202 218 206 219 210 220 213 221 214 222 217 223 220 224 222 224 224 222 224 219 218 213 214 210 211 208 203 204 201 204 198 202 195 201 191 200 187 199 176 198 " style="stroke:gray;fill:none"/><path d="M174 198 176 198 187 199 191 200 195 201 198 202 201 204 203 204 209 207 213 210 217 213 224 220 224 222 222 224 220 224 217 223 214 222 211 221 210 220 206 219 202 218 195 218 191 217 190 216 171 216 164 217 159 218 155 219 151 220 148 221 145 222 127 231 124 233 122 235 118 238 115 237 115 233 116 231 118 228 120 225 122 222 128 216 132 213 136 210 139 209 141 207 143 207 145 205 147 205 150 203 153 202 157 201 161 200 166 199 " style="stroke:gray;fill:none"/><path d="M170 193 170 195 172 195 172 193 " style="stroke:gray;fill:none"/><path d="M171 195 " style="stroke:gray;fill:none"/><path d="M361 190 360 192 359 194 359 197 360 199 365 200 366 198 366 194 364 191 " style="stroke:gray;fill:none"/><path d="M362 190 365 193 366 195 366 198 364 200 362 200 359 197 359 194 360 192 " style="stroke:gray;fill:none"/><path d="M74 176 77 178 74 178 " style="stroke:gray;fill:none"/><path d="M329 172 327 173 324 173 320 172 323 172 327 173 329 172 331 171 " style="stroke:gray;fill:none"/><path d="M318 171 " style="stroke:gray;fill:none"/><path d="M336 166 331 167 333 168 330 169 333 169 336 166 338 166 341 169 340 171 337 175 324 188 321 190 318 192 308 197 304 195 306 193 309 191 314 189 317 187 319 185 319 181 314 181 308 180 306 178 304 178 301 177 299 176 297 173 298 176 300 176 303 177 307 179 296 180 291 179 287 178 285 177 283 174 284 177 286 177 290 178 291 179 296 180 313 180 319 182 319 184 316 187 313 189 310 191 307 192 305 194 303 195 305 197 303 199 300 199 295 200 294 201 273 201 269 200 265 199 262 198 259 197 255 195 252 193 250 191 247 190 242 186 234 178 232 175 231 172 234 172 235 169 247 171 279 172 286 172 299 171 310 170 315 169 324 169 315 169 310 170 299 171 286 172 279 172 247 171 235 169 233 170 231 172 231 175 234 179 241 186 246 190 251 192 253 194 259 197 262 198 265 199 268 199 270 201 273 201 294 201 299 200 303 199 305 197 308 197 311 196 313 195 315 193 317 193 319 192 322 190 325 188 337 176 340 172 341 169 340 167 " style="stroke:gray;fill:none"/><path d="M353 165 352 167 353 169 357 173 360 180 362 183 365 181 365 176 363 172 360 169 359 166 356 164 " style="stroke:gray;fill:none"/><path d="M355 164 358 166 360 168 360 170 364 174 365 177 365 181 363 183 361 181 359 178 358 176 358 174 356 171 352 167 " style="stroke:gray;fill:none"/><path d="M328 162 327 167 329 166 330 164 " style="stroke:gray;fill:none"/><path d="M328 162 330 164 325 165 " style="stroke:gray;fill:none"/><path d="M191 146 191 148 192 151 195 154 201 157 204 158 207 159 210 160 213 161 217 162 223 163 231 164 239 165 254 166 290 166 304 165 314 164 321 163 322 162 325 162 322 162 315 163 314 164 304 165 290 166 254 166 239 165 231 164 223 163 217 162 213 161 210 160 207 159 204 158 201 157 199 156 196 154 192 150 " style="stroke:gray;fill:none"/><path d="M210 145 210 147 212 147 212 145 " style="stroke:gray;fill:none"/><path d="M211 147 " style="stroke:gray;fill:none"/><path d="M3 145 3 148 6 148 6 144 " style="stroke:gray;fill:none"/><path d="M5 144 3 146 " style="stroke:gray;fill:none"/><path d="M193 136 188 142 188 144 189 140 195 137 195 139 191 142 190 144 193 142 195 140 195 136 " style="stroke:gray;fill:none"/><path d="M360 128 358 129 358 133 360 135 364 138 364 140 361 143 359 144 356 145 352 146 348 147 342 148 336 149 330 150 321 151 312 152 299 153 282 154 231 154 222 153 216 152 211 151 208 150 206 144 211 139 211 136 209 135 206 135 200 138 198 139 200 138 206 135 208 135 210 136 211 138 206 143 205 145 205 148 207 150 210 150 215 151 216 152 222 153 231 154 282 154 299 153 312 152 321 151 330 150 336 149 342 148 348 147 352 146 356 145 359 144 362 143 364 141 364 137 362 135 358 132 358 130 360 128 362 128 365 129 368 130 372 132 378 138 378 141 371 148 361 153 358 154 355 155 352 156 349 157 346 158 341 159 337 160 333 160 331 161 333 160 337 160 341 159 346 158 349 157 352 156 355 155 358 154 361 153 370 148 372 148 377 143 378 141 378 138 377 136 373 132 371 132 368 130 365 129 362 128 " style="stroke:gray;fill:none"/><path d="M208 127 206 130 200 131 197 133 195 134 198 132 200 132 203 130 206 130 " style="stroke:gray;fill:none"/><path d="M420 126 421 129 424 128 423 125 " style="stroke:gray;fill:none"/><path d="M422 125 424 127 422 129 420 127 " style="stroke:gray;fill:none"/><path d="M196 124 192 125 189 126 187 127 185 129 180 131 177 133 174 136 170 141 168 144 167 146 167 148 165 150 164 154 163 157 162 161 162 170 163 173 164 177 165 180 169 188 172 191 175 192 179 193 188 193 193 194 196 195 199 196 202 198 204 198 207 199 209 200 211 202 215 204 221 204 227 201 230 199 235 194 236 192 236 190 235 187 228 180 225 176 225 175 223 172 220 169 216 167 213 166 209 165 206 165 203 164 200 163 194 160 186 152 186 150 184 148 184 146 185 144 186 142 185 144 184 146 184 148 185 152 192 159 200 163 203 164 206 165 209 165 213 166 216 167 219 169 223 173 226 177 228 180 228 181 235 188 236 190 236 192 228 200 225 202 223 202 221 204 215 204 213 203 210 201 208 199 210 196 209 198 205 199 202 197 200 197 197 196 196 195 193 194 188 193 179 193 175 192 173 191 168 186 165 180 164 177 163 173 162 170 162 161 163 157 164 154 165 151 167 149 167 147 168 145 170 142 174 137 178 133 181 131 184 129 192 125 196 124 201 124 203 125 204 127 203 125 207 124 209 125 204 124 201 124 " style="stroke:gray;fill:none"/><path d="M245 106 249 105 252 107 276 119 278 119 283 122 285 122 288 124 290 124 295 127 297 127 300 128 303 129 310 133 312 133 315 135 317 135 322 138 324 138 327 142 326 139 324 138 322 138 317 135 315 135 312 133 310 133 303 129 301 129 298 128 295 127 290 124 288 124 285 122 283 122 278 119 276 119 254 108 252 106 249 105 " style="stroke:gray;fill:none"/><path d="M160 89 158 92 156 96 160 91 " style="stroke:gray;fill:none"/><path d="M161 86 159 87 157 88 154 92 152 95 152 97 150 99 149 102 148 105 147 109 147 124 148 128 149 131 153 138 153 140 157 144 159 144 162 143 164 141 168 136 168 135 174 129 177 127 180 125 183 124 185 122 187 121 190 121 192 122 190 121 195 121 197 121 197 119 199 117 198 112 191 106 184 100 180 97 176 94 172 91 170 91 166 87 163 86 " style="stroke:gray;fill:none"/><path d="M196 121 " style="stroke:gray;fill:none"/><path d="M161 86 163 86 165 87 168 90 171 91 175 94 178 96 183 100 190 106 197 112 199 114 199 116 196 119 194 120 191 120 187 121 179 125 176 127 173 129 168 134 165 138 165 139 161 143 158 144 153 139 149 131 148 128 147 124 147 109 148 105 149 102 153 94 156 90 159 87 " style="stroke:gray;fill:none"/><path d="M367 86 368 89 371 88 370 85 " style="stroke:gray;fill:none"/><path d="M369 85 371 87 369 89 367 87 " style="stroke:gray;fill:none"/><path d="M187 73 184 73 182 75 183 79 187 82 190 84 194 84 197 80 197 78 194 77 191 73 " style="stroke:gray;fill:none"/><path d="M196 80 " style="stroke:gray;fill:none"/><path d="M187 73 189 72 195 78 195 82 193 84 191 84 188 82 185 80 182 76 185 73 " style="stroke:gray;fill:none"/><path d="M271 71 268 72 265 74 262 74 258 76 250 84 247 90 247 93 244 98 243 102 242 113 242 125 243 130 244 134 245 137 246 140 248 144 250 146 252 147 250 149 248 149 226 148 223 147 219 143 218 141 218 138 219 127 220 119 221 116 222 113 227 103 229 100 231 97 244 84 248 81 249 81 252 79 254 77 252 78 250 79 247 81 243 84 232 95 229 99 226 106 224 108 224 110 222 113 221 116 220 119 219 127 218 138 218 141 220 145 222 147 226 148 248 149 250 149 252 147 286 148 295 147 296 146 311 146 324 145 332 144 337 143 340 142 345 139 343 136 343 122 341 119 343 116 342 118 339 118 337 117 335 117 332 116 329 114 326 113 323 112 320 112 317 111 314 110 311 109 308 108 305 107 302 106 299 105 296 104 293 103 290 102 287 101 284 100 281 99 278 98 275 97 272 96 269 95 266 93 264 93 261 92 258 91 256 90 252 86 254 89 258 91 260 91 263 92 266 93 269 95 272 96 275 97 278 98 281 99 284 100 287 101 290 102 293 103 296 104 298 104 301 105 304 106 307 107 310 108 313 109 316 110 319 111 323 112 326 113 329 114 332 116 334 116 337 117 339 118 343 122 343 136 344 138 340 142 337 143 332 144 324 145 312 145 310 143 302 139 299 138 297 138 294 136 292 136 289 134 287 134 284 132 282 132 279 131 264 123 262 123 258 121 256 119 249 116 244 112 243 102 244 99 245 96 247 93 247 90 249 86 256 79 258 80 261 81 264 83 266 83 269 84 272 85 275 86 278 88 281 89 284 90 287 91 290 92 293 93 296 94 299 94 302 96 305 97 308 98 311 99 314 99 317 100 320 101 321 102 323 102 326 104 330 105 333 106 336 105 342 111 343 114 342 112 341 109 338 106 336 105 338 104 336 105 332 105 330 105 326 104 323 102 321 102 318 101 317 100 314 99 311 99 308 98 305 97 302 96 299 94 296 94 293 93 290 92 287 91 284 90 281 89 278 88 275 86 273 86 270 85 267 84 264 83 261 81 259 81 256 79 259 76 263 74 266 73 268 73 271 71 295 71 299 72 303 73 306 74 309 75 319 80 322 82 326 85 335 94 338 98 341 102 342 105 344 107 346 111 347 114 348 117 349 121 350 126 350 137 346 141 343 142 347 141 350 138 350 126 349 121 348 117 347 114 346 111 341 101 338 97 335 93 327 85 323 82 320 80 312 76 309 75 306 74 303 73 300 72 295 71 " style="stroke:gray;fill:none"/><path d="M244 112 247 115 254 118 256 120 262 123 264 123 279 131 282 132 284 132 287 134 289 134 292 136 294 136 297 138 299 138 302 139 310 143 312 145 295 146 287 147 286 148 254 148 251 146 247 142 246 140 245 137 244 134 243 130 242 125 " style="stroke:gray;fill:none"/><path d="M151 71 149 71 147 73 148 78 150 79 152 79 154 78 156 76 158 76 166 80 170 83 174 86 178 89 182 92 186 95 192 100 197 105 204 111 210 116 214 115 214 111 204 101 197 95 193 92 189 89 185 86 182 84 179 82 165 75 163 75 156 71 154 71 " style="stroke:gray;fill:none"/><path d="M154 71 162 75 164 75 178 82 181 84 184 86 188 89 192 92 196 95 203 101 214 112 214 114 211 116 206 111 199 105 193 100 187 95 183 92 179 89 175 86 171 83 168 81 165 79 159 76 155 76 152 79 150 79 147 76 147 74 150 71 " style="stroke:gray;fill:none"/><path d="M62 61 63 64 66 63 65 60 " style="stroke:gray;fill:none"/><path d="M64 60 66 62 64 64 62 62 " style="stroke:gray;fill:none"/><path d="M257 33 263 37 271 45 273 48 277 57 279 58 276 55 276 53 275 51 273 49 271 44 265 38 259 33 " style="stroke:gray;fill:none"/><path d="M339 25 341 28 339 28 342 25 " style="stroke:gray;fill:none"/><path d="M237 25 233 26 229 27 226 29 224 29 222 30 220 32 218 32 214 35 206 43 204 46 203 48 202 51 201 54 200 57 199 61 199 74 200 78 201 81 203 83 203 85 205 89 207 92 215 100 217 101 220 101 222 100 224 98 226 95 228 92 228 91 237 82 241 79 244 77 248 74 251 72 253 71 255 71 260 68 264 67 267 66 270 66 274 65 278 64 281 61 281 58 281 55 280 52 279 49 277 45 274 41 266 33 263 31 261 31 259 30 257 28 254 27 251 26 247 25 " style="stroke:gray;fill:none"/><path d="M237 25 247 25 251 26 254 27 256 28 257 31 260 30 262 31 265 33 274 42 277 46 280 52 281 55 282 59 281 61 278 64 274 65 270 66 267 66 264 67 260 68 255 71 253 71 249 73 246 75 243 77 240 79 236 82 228 90 227 93 225 96 220 101 218 101 216 100 207 91 205 88 200 78 199 74 199 61 200 57 201 54 202 51 204 47 206 44 216 34 219 32 222 30 224 30 227 28 230 27 233 26 " style="stroke:gray;fill:none"/></svg>