<svg width="429px" height="547px" xmlns="http://www.w3.org/2000/svg"><path d="M155 522 155 524 157 524 157 522 " style="stroke:gray;fill:none"/><path d="M156 524 " style="stroke:gray;fill:none"/><path d="M90 512 92 513 90 512 92 511 " style="stroke:gray;fill:none"/><path d="M84 500 83 502 84 500 85 502 " style="stroke:gray;fill:none"/><path d="M143 490 141 491 140 493 140 497 141 500 143 502 144 505 146 507 148 509 150 511 157 519 160 520 163 523 165 524 170 524 172 523 174 522 175 520 175 518 176 515 177 514 177 505 176 502 173 501 171 501 167 505 156 504 152 504 150 505 149 507 148 509 146 507 144 504 143 501 141 499 140 496 140 493 143 490 150 497 152 498 155 499 162 499 166 498 169 496 172 496 176 500 175 498 173 496 169 496 166 498 162 499 155 499 152 498 145 491 " style="stroke:gray;fill:none"/><path d="M174 502 177 505 177 514 176 517 174 521 172 523 169 524 166 524 164 523 161 520 158 519 150 511 149 509 149 507 152 504 156 504 167 505 169 504 " style="stroke:gray;fill:none"/><path d="M179 487 178 490 179 487 180 489 " style="stroke:gray;fill:none"/><path d="M142 485 " style="stroke:gray;fill:none"/><path d="M138 484 140 485 " style="stroke:gray;fill:none"/><path d="M133 482 133 491 135 491 135 485 133 484 " style="stroke:gray;fill:none"/><path d="M134 488 134 491 " style="stroke:gray;fill:none"/><path d="M134 485 134 488 " style="stroke:gray;fill:none"/><path d="M282 481 285 482 " style="stroke:gray;fill:none"/><path d="M136 483 137 481 141 481 143 482 " style="stroke:gray;fill:none"/><path d="M282 478 285 478 285 476 " style="stroke:gray;fill:none"/><path d="M284 476 282 478 " style="stroke:gray;fill:none"/><path d="M161 480 159 484 160 490 162 490 159 488 159 485 161 481 168 474 " style="stroke:gray;fill:none"/><path d="M130 474 133 479 141 479 141 477 136 477 133 474 " style="stroke:gray;fill:none"/><path d="M130 475 133 474 135 477 141 478 134 479 " style="stroke:gray;fill:none"/><path d="M99 473 97 474 94 477 92 480 92 482 90 485 89 488 88 492 88 502 89 504 91 506 93 507 96 507 101 506 104 505 108 503 110 501 116 498 118 498 120 497 124 494 128 490 129 488 128 481 126 480 124 479 116 480 112 479 108 477 105 474 102 473 " style="stroke:gray;fill:none"/><path d="M100 473 102 473 104 474 106 476 112 479 116 480 124 479 126 480 129 483 129 488 125 489 121 487 118 488 115 490 104 490 100 488 97 485 96 483 94 482 98 487 101 489 104 490 115 490 118 488 121 487 123 487 126 491 122 495 119 497 117 498 115 498 113 500 111 500 109 501 107 503 103 505 100 506 96 507 94 507 92 506 89 503 88 501 88 492 89 488 92 483 92 481 94 478 98 474 " style="stroke:gray;fill:none"/><path d="M29 473 27 474 28 477 31 477 31 475 " style="stroke:gray;fill:none"/><path d="M29 473 29 477 27 475 " style="stroke:gray;fill:none"/><path d="M179 459 176 460 173 463 173 467 178 472 181 473 186 473 189 470 189 466 188 464 184 460 " style="stroke:gray;fill:none"/><path d="M179 459 183 460 189 466 189 469 185 473 181 473 179 472 173 466 173 464 177 460 " style="stroke:gray;fill:none"/><path d="M120 457 122 459 122 466 121 469 118 472 121 470 122 466 " style="stroke:gray;fill:none"/><path d="M102 447 102 460 103 463 104 466 111 473 114 474 119 475 122 474 125 473 128 470 129 468 130 465 131 459 131 455 129 454 127 453 125 453 118 454 112 451 109 449 107 446 " style="stroke:gray;fill:none"/><path d="M104 446 107 447 109 449 111 451 115 453 118 454 125 454 127 453 130 455 131 459 130 465 128 469 124 473 122 474 119 475 114 474 112 473 104 465 103 463 102 460 102 448 " style="stroke:gray;fill:none"/><path d="M353 438 353 440 355 441 357 440 356 437 " style="stroke:gray;fill:none"/><path d="M355 437 357 439 355 441 353 439 " style="stroke:gray;fill:none"/><path d="M113 434 110 437 110 442 118 448 123 448 127 444 127 441 126 439 122 435 120 434 " style="stroke:gray;fill:none"/><path d="M114 434 120 434 127 441 127 443 126 445 124 447 122 448 118 448 116 447 113 445 111 443 110 441 110 438 " style="stroke:gray;fill:none"/><path d="M98 401 100 402 98 401 100 400 " style="stroke:gray;fill:none"/><path d="M280 386 279 388 280 390 283 390 283 386 " style="stroke:gray;fill:none"/><path d="M283 387 281 390 279 388 " style="stroke:gray;fill:none"/><path d="M220 386 218 387 216 390 215 393 214 398 214 401 213 404 212 405 211 409 210 413 209 417 208 420 210 427 208 426 208 420 209 417 210 413 211 409 212 405 213 402 214 399 218 396 216 395 216 392 216 390 220 386 222 388 222 391 221 395 219 398 219 403 218 407 217 412 216 417 215 420 214 423 213 426 212 428 209 430 206 427 207 429 209 430 212 429 213 427 214 424 215 421 216 417 217 412 217 408 218 404 219 399 220 396 221 395 222 391 222 388 " style="stroke:gray;fill:none"/><path d="M226 384 226 386 228 386 228 384 " style="stroke:gray;fill:none"/><path d="M227 386 " style="stroke:gray;fill:none"/><path d="M107 384 106 386 105 391 106 396 109 398 107 400 104 399 104 397 105 400 109 399 111 395 112 392 112 386 111 384 " style="stroke:gray;fill:none"/><path d="M108 384 110 384 112 386 112 391 111 394 109 397 107 396 105 394 105 392 106 386 " style="stroke:gray;fill:none"/><path d="M228 380 " style="stroke:gray;fill:none"/><path d="M137 377 134 380 132 384 132 391 133 393 135 396 141 402 145 405 148 407 156 411 160 412 163 413 167 414 183 414 188 413 192 412 195 410 197 410 200 409 202 408 203 406 201 408 199 409 196 410 194 410 191 412 187 413 183 414 168 414 164 413 161 412 157 411 149 407 146 405 142 402 135 395 133 392 132 390 132 385 134 381 138 377 140 377 " style="stroke:gray;fill:none"/><path d="M225 377 226 380 225 377 227 376 " style="stroke:gray;fill:none"/><path d="M27 367 25 369 25 373 27 375 31 375 33 373 33 371 29 367 " style="stroke:gray;fill:none"/><path d="M29 367 33 372 30 375 28 375 25 372 25 370 " style="stroke:gray;fill:none"/><path d="M150 364 150 366 152 368 156 368 158 369 156 368 152 368 150 366 150 364 153 362 155 364 157 365 166 366 166 369 165 365 157 365 155 363 " style="stroke:gray;fill:none"/><path d="M170 357 169 359 163 361 161 360 163 361 169 361 169 359 " style="stroke:gray;fill:none"/><path d="M148 357 145 358 144 361 143 363 143 366 144 369 147 372 155 376 157 377 155 376 149 373 143 367 143 363 144 360 147 357 150 356 154 360 158 360 160 357 158 358 155 360 152 357 " style="stroke:gray;fill:none"/><path d="M189 355 188 357 " style="stroke:gray;fill:none"/><path d="M171 355 " style="stroke:gray;fill:none"/><path d="M186 352 184 354 182 354 178 353 175 354 173 356 172 358 172 362 171 366 169 371 163 371 159 371 157 373 158 375 159 377 162 378 165 379 183 379 184 377 185 375 185 373 184 370 186 368 186 362 187 359 186 362 186 367 184 370 184 373 185 375 183 378 165 379 162 378 159 375 157 373 159 371 163 371 170 371 170 367 171 363 172 358 176 354 178 353 181 353 184 354 186 357 186 355 184 354 186 352 188 352 194 352 196 353 198 355 198 359 198 364 197 369 196 371 193 374 191 373 189 371 188 369 188 365 190 363 189 359 190 362 188 365 188 369 189 371 190 373 192 376 187 376 186 378 188 376 192 376 196 372 197 369 198 364 199 358 199 356 198 354 194 352 188 352 " style="stroke:gray;fill:none"/><path d="M247 350 249 351 247 350 249 349 " style="stroke:gray;fill:none"/><path d="M331 338 331 342 334 342 334 340 333 338 " style="stroke:gray;fill:none"/><path d="M332 338 332 342 330 340 " style="stroke:gray;fill:none"/><path d="M105 330 99 336 96 340 94 344 93 347 92 351 92 358 93 361 95 365 101 371 103 372 107 372 113 374 117 373 120 371 122 369 122 366 119 363 111 356 110 353 105 348 105 346 107 344 108 342 107 331 " style="stroke:gray;fill:none"/><path d="M106 331 108 333 108 341 105 346 105 348 106 350 110 354 111 357 118 363 122 368 118 372 116 373 113 374 108 373 104 372 102 371 94 363 93 361 92 358 92 351 93 347 96 341 99 337 " style="stroke:gray;fill:none"/><path d="M244 327 240 328 237 329 234 330 226 334 223 336 220 338 209 350 221 338 224 336 227 334 235 330 238 329 241 328 244 327 246 327 248 329 250 331 250 329 248 328 246 327 " style="stroke:gray;fill:none"/><path d="M127 326 121 327 118 328 114 332 114 349 115 352 116 354 120 358 122 358 125 360 132 360 135 359 137 357 139 355 141 352 143 351 144 348 142 346 138 348 135 345 135 343 136 339 137 334 137 331 137 329 135 327 132 326 " style="stroke:gray;fill:none"/><path d="M142 346 144 349 142 351 141 349 139 348 " style="stroke:gray;fill:none"/><path d="M127 326 132 326 134 327 137 330 137 334 137 338 136 342 135 343 135 346 137 348 139 348 141 350 141 352 139 355 137 357 134 359 132 360 125 360 121 358 115 352 114 349 114 333 119 328 121 327 " style="stroke:gray;fill:none"/><path d="M201 316 196 323 193 325 190 327 184 330 182 330 180 331 182 331 185 330 191 327 194 325 197 323 202 318 " style="stroke:gray;fill:none"/><path d="M233 315 223 325 220 327 217 329 214 331 208 334 205 335 202 336 199 337 196 338 190 337 190 335 191 338 184 340 161 339 156 339 154 340 154 343 156 345 158 345 162 346 163 347 172 347 175 347 180 347 182 348 183 351 183 349 185 347 193 347 199 346 200 345 202 345 206 349 206 354 205 358 204 359 204 364 203 370 202 374 200 377 197 380 194 382 191 383 188 384 184 385 165 385 161 384 158 383 155 382 152 381 148 379 146 377 143 376 140 374 138 372 134 367 132 367 121 377 119 379 117 382 118 389 118 394 117 397 115 400 113 402 111 405 110 407 110 409 108 411 107 414 106 417 105 420 104 424 104 428 105 430 108 430 110 430 112 428 116 427 118 427 121 428 125 430 131 437 134 440 137 440 139 438 142 434 145 430 145 421 143 420 145 418 148 420 151 421 153 423 156 423 158 424 161 424 164 425 163 429 160 427 158 432 157 435 157 450 156 455 155 459 154 462 153 465 148 474 147 477 147 484 148 486 150 488 152 490 154 492 156 493 162 493 165 492 171 489 174 487 178 483 178 480 177 478 175 476 168 470 167 468 167 466 167 463 168 460 172 456 175 454 178 454 181 454 184 454 186 455 188 457 192 457 195 454 196 451 197 448 198 444 199 440 200 436 201 430 201 424 202 420 203 417 204 413 205 409 206 405 207 402 208 398 209 394 210 390 211 387 213 383 219 377 233 364 238 358 241 354 243 351 245 348 252 334 253 331 253 327 252 325 249 323 247 323 245 322 242 320 237 315 " style="stroke:gray;fill:none"/><path d="M234 315 236 315 241 320 244 322 246 323 248 323 250 325 253 328 253 331 251 334 251 336 247 344 245 347 243 350 241 353 238 357 233 363 218 377 213 382 212 384 211 387 210 390 209 394 208 398 207 402 206 405 205 409 204 413 203 417 202 420 201 424 201 430 200 436 199 440 198 444 197 448 196 451 195 453 191 457 189 457 184 454 181 454 178 454 175 454 171 456 168 459 167 461 167 463 167 466 167 469 168 471 174 476 178 480 178 482 173 487 169 490 165 492 162 493 156 493 152 490 150 488 148 485 147 483 147 478 148 475 153 466 154 462 155 459 156 455 157 450 157 435 160 430 164 429 163 424 160 425 157 424 154 423 148 420 145 418 143 419 143 421 145 424 145 429 142 433 139 436 138 439 135 440 131 436 127 431 129 430 132 427 132 420 131 417 130 415 128 413 126 411 124 409 120 407 114 407 119 407 123 409 126 411 128 413 130 416 131 418 132 421 132 426 127 431 125 430 122 429 121 428 118 427 116 427 112 428 109 430 107 431 104 428 104 424 105 420 106 417 107 414 111 406 113 404 115 401 117 398 118 395 117 388 117 383 119 380 122 377 133 367 138 372 140 374 142 376 152 381 155 382 158 383 161 384 165 385 184 385 188 384 191 383 194 382 198 380 200 378 202 374 203 370 204 364 204 359 205 355 206 354 206 348 203 345 200 345 194 346 193 347 184 348 181 348 175 347 172 347 163 347 159 346 157 345 155 340 157 339 161 339 184 340 190 339 196 338 200 337 203 336 206 335 209 333 211 333 215 331 218 329 221 327 224 325 " style="stroke:gray;fill:none"/><path d="M411 308 412 310 " style="stroke:gray;fill:none"/><path d="M261 306 264 310 271 310 265 310 " style="stroke:gray;fill:none"/><path d="M229 301 225 304 223 305 221 305 215 308 213 310 210 311 207 312 204 313 201 314 198 315 194 316 189 317 184 318 174 319 153 319 142 318 141 317 138 318 136 321 134 321 131 318 133 316 136 316 133 316 131 318 132 320 137 321 142 325 147 330 149 331 152 332 156 333 161 334 186 334 191 333 195 332 198 331 201 330 204 329 207 328 213 325 216 323 220 320 228 312 231 308 232 306 233 303 231 302 232 299 234 301 232 299 " style="stroke:gray;fill:none"/><path d="M231 302 233 303 232 305 231 307 229 310 219 320 215 323 212 325 204 329 201 330 198 331 195 332 191 333 186 334 161 334 156 333 152 332 149 331 142 325 137 320 138 318 141 317 152 318 153 319 174 319 184 318 189 317 194 316 198 315 201 314 204 313 207 312 210 311 213 310 227 303 " style="stroke:gray;fill:none"/><path d="M92 292 " style="stroke:gray;fill:none"/><path d="M247 291 245 292 244 297 247 300 251 300 252 300 253 296 252 294 249 291 " style="stroke:gray;fill:none"/><path d="M248 291 252 295 253 298 248 300 246 298 244 296 244 294 246 292 " style="stroke:gray;fill:none"/><path d="M92 290 " style="stroke:gray;fill:none"/><path d="M259 281 257 282 255 284 255 287 256 290 258 292 261 298 261 301 260 303 256 307 244 307 242 309 242 311 247 316 249 316 252 318 255 319 261 319 264 318 267 317 269 316 274 311 277 307 278 304 279 301 279 294 278 290 276 287 272 283 269 282 266 281 " style="stroke:gray;fill:none"/><path d="M259 281 266 281 269 282 271 283 276 288 278 291 279 294 279 301 278 304 277 306 274 309 271 313 268 316 264 318 261 319 255 319 252 318 248 316 242 310 245 307 257 307 260 304 261 301 261 298 260 295 258 291 256 289 255 287 255 285 " style="stroke:gray;fill:none"/><path d="M206 273 203 276 201 281 198 285 196 287 200 283 202 278 204 275 " style="stroke:gray;fill:none"/><path d="M233 272 233 276 232 287 234 289 236 289 239 286 241 282 241 278 241 282 240 284 234 289 232 287 233 276 " style="stroke:gray;fill:none"/><path d="M138 272 136 274 135 277 137 281 144 280 145 278 145 275 142 272 " style="stroke:gray;fill:none"/><path d="M139 272 141 272 144 279 142 281 138 281 136 279 135 277 136 275 " style="stroke:gray;fill:none"/><path d="M242 271 242 276 " style="stroke:gray;fill:none"/><path d="M209 273 206 279 203 283 197 289 195 289 193 292 195 292 196 294 199 294 197 294 195 292 203 284 206 280 207 278 207 276 209 273 210 271 " style="stroke:gray;fill:none"/><path d="M207 271 " style="stroke:gray;fill:none"/><path d="M235 271 236 282 238 282 238 279 239 270 " style="stroke:gray;fill:none"/><path d="M239 271 239 278 235 281 235 272 " style="stroke:gray;fill:none"/><path d="M208 269 " style="stroke:gray;fill:none"/><path d="M211 266 210 269 " style="stroke:gray;fill:none"/><path d="M97 262 97 264 96 267 95 268 95 281 96 285 97 288 98 291 100 295 103 298 107 297 108 295 107 292 106 288 105 287 104 283 103 277 103 265 102 262 " style="stroke:gray;fill:none"/><path d="M97 263 102 263 103 265 103 277 104 283 105 287 106 291 107 292 108 295 104 298 100 294 97 288 96 285 95 281 95 268 96 265 " style="stroke:gray;fill:none"/><path d="M273 252 272 254 273 252 274 254 " style="stroke:gray;fill:none"/><path d="M238 252 238 255 240 260 240 264 239 267 241 269 242 264 241 269 239 267 240 264 240 260 238 255 " style="stroke:gray;fill:none"/><path d="M111 251 109 255 108 260 108 265 109 267 112 270 113 273 113 275 112 278 114 281 114 285 113 287 113 290 113 293 114 296 118 304 122 308 128 308 129 305 128 302 126 300 125 298 125 296 122 291 122 289 116 281 115 273 115 269 118 267 120 269 119 272 119 270 120 268 117 266 117 258 115 251 " style="stroke:gray;fill:none"/><path d="M115 270 116 275 116 282 117 284 120 286 122 289 122 291 124 294 124 296 127 302 129 305 128 307 123 308 117 302 115 298 114 295 113 292 113 290 112 288 114 286 114 280 113 278 113 275 113 273 " style="stroke:gray;fill:none"/><path d="M113 250 116 253 117 258 117 266 114 269 112 269 108 265 108 260 109 256 111 252 " style="stroke:gray;fill:none"/><path d="M26 244 26 247 29 247 30 245 29 243 " style="stroke:gray;fill:none"/><path d="M28 243 30 245 26 245 " style="stroke:gray;fill:none"/><path d="M123 241 122 243 119 247 117 248 115 246 113 246 112 248 114 246 116 248 119 248 121 245 122 243 " style="stroke:gray;fill:none"/><path d="M386 239 386 241 388 242 390 240 388 238 " style="stroke:gray;fill:none"/><path d="M388 238 390 240 388 242 386 240 " style="stroke:gray;fill:none"/><path d="M232 238 231 243 232 246 233 249 234 251 236 251 239 250 239 248 235 245 234 241 237 241 238 243 239 246 238 243 234 239 " style="stroke:gray;fill:none"/><path d="M232 238 234 240 235 242 235 245 237 248 239 249 235 251 233 249 232 246 231 243 " style="stroke:gray;fill:none"/><path d="M243 237 242 239 243 242 244 245 245 248 246 249 247 253 248 257 247 260 249 273 251 272 252 274 254 271 255 267 255 254 254 249 253 245 252 242 251 240 247 236 " style="stroke:gray;fill:none"/><path d="M246 236 251 241 253 245 254 249 255 254 255 267 254 270 252 272 250 273 248 271 247 260 248 257 247 253 246 249 245 246 244 245 243 242 242 239 " style="stroke:gray;fill:none"/><path d="M284 235 285 238 283 239 282 241 281 243 281 246 278 248 277 252 276 247 276 253 278 254 278 249 281 246 281 243 282 241 286 237 286 235 " style="stroke:gray;fill:none"/><path d="M285 235 285 238 " style="stroke:gray;fill:none"/><path d="M230 234 228 235 228 239 228 242 229 246 230 249 231 251 234 254 235 257 234 260 235 268 234 260 235 257 234 253 232 251 230 249 229 246 228 242 228 239 227 237 231 234 235 237 232 234 " style="stroke:gray;fill:none"/><path d="M278 233 277 236 276 239 275 240 274 243 274 247 274 243 275 240 276 237 278 233 278 238 278 240 278 238 280 235 281 237 282 235 280 235 " style="stroke:gray;fill:none"/><path d="M157 231 162 231 164 233 162 235 159 233 153 233 147 236 143 240 141 244 141 246 141 249 141 253 142 256 143 258 148 263 151 264 162 264 166 262 169 259 173 251 173 247 171 245 171 243 169 239 167 237 163 234 163 231 " style="stroke:gray;fill:none"/><path d="M154 233 159 233 163 235 166 237 170 241 170 243 173 248 173 250 172 253 170 255 170 257 164 263 162 264 151 264 149 263 146 261 144 259 142 256 141 253 141 249 141 246 141 244 142 242 149 235 151 234 " style="stroke:gray;fill:none"/><path d="M238 230 " style="stroke:gray;fill:none"/><path d="M236 230 " style="stroke:gray;fill:none"/><path d="M238 228 " style="stroke:gray;fill:none"/><path d="M233 227 234 229 235 227 " style="stroke:gray;fill:none"/><path d="M171 224 168 226 165 227 157 227 154 229 150 229 147 230 145 232 138 234 135 236 133 236 129 238 127 240 123 245 122 248 122 269 123 274 124 279 125 283 126 287 127 290 131 298 133 300 136 307 139 310 141 310 144 312 148 312 155 311 148 312 144 312 140 310 136 306 134 303 132 298 130 296 127 290 126 287 125 283 124 279 123 274 122 269 122 248 123 245 124 243 128 239 131 237 133 236 135 236 138 234 142 233 144 231 146 232 147 230 150 229 154 229 157 227 165 227 168 226 171 224 184 224 187 226 189 225 192 226 198 229 204 235 207 239 209 243 210 246 211 250 211 262 212 264 216 267 216 277 215 280 212 286 204 294 201 295 199 297 195 298 185 298 179 301 176 304 166 309 163 310 160 310 158 311 160 310 163 310 166 309 178 303 181 300 185 298 195 298 199 297 205 294 211 288 213 285 215 281 216 277 216 267 215 265 211 262 211 250 210 246 209 243 208 240 206 237 203 233 200 230 192 226 189 225 187 226 184 224 " style="stroke:gray;fill:none"/><path d="M356 223 " style="stroke:gray;fill:none"/><path d="M168 222 162 223 156 224 152 225 149 226 146 227 144 229 142 229 139 230 135 232 133 234 131 234 129 235 126 238 128 236 135 233 137 231 139 230 142 230 147 227 150 226 153 225 156 224 162 223 168 222 196 222 200 223 204 224 209 225 212 226 216 228 221 233 222 235 222 237 224 240 225 243 226 248 227 253 227 260 229 263 229 265 228 274 229 276 227 283 228 285 227 289 226 292 225 294 223 297 221 299 217 302 211 305 208 306 206 306 203 308 199 309 195 310 191 311 185 312 179 312 177 313 174 313 171 313 168 313 159 313 156 313 154 313 149 314 151 316 154 313 156 313 157 316 158 314 169 314 169 316 171 313 174 313 175 316 176 314 179 312 186 311 191 311 195 310 196 309 200 308 204 310 203 308 205 307 208 306 209 305 213 306 214 304 218 302 221 299 223 297 225 295 226 293 227 289 228 285 227 283 228 274 228 266 230 265 229 262 227 260 227 253 226 248 225 243 224 240 223 237 222 234 221 232 217 228 219 226 223 229 224 233 224 230 222 228 218 226 217 228 215 228 212 226 210 226 207 223 204 224 201 224 197 223 196 222 " style="stroke:gray;fill:none"/><path d="M358 220 360 221 360 219 " style="stroke:gray;fill:none"/><path d="M263 219 262 228 264 227 262 227 263 219 264 224 266 226 264 223 " style="stroke:gray;fill:none"/><path d="M274 208 272 210 273 213 271 216 271 218 269 222 268 219 266 219 266 221 269 222 270 229 270 232 268 234 267 236 267 238 265 241 264 245 264 248 265 252 264 256 263 260 262 263 261 264 260 269 261 275 263 275 260 274 260 269 261 264 262 261 263 260 264 256 265 252 265 249 264 245 265 241 267 238 267 236 268 234 270 232 270 229 269 222 270 219 271 216 273 213 272 210 274 208 277 209 277 213 276 224 275 229 274 232 273 235 272 238 271 239 270 242 269 246 268 259 269 264 274 263 275 260 279 256 275 259 274 262 272 264 270 264 268 262 268 259 269 246 270 242 271 239 272 236 273 233 274 232 275 229 276 224 277 213 277 208 " style="stroke:gray;fill:none"/><path d="M267 221 " style="stroke:gray;fill:none"/><path d="M165 202 168 202 172 203 176 204 179 205 185 208 188 210 190 212 192 214 190 213 192 212 189 210 186 208 182 206 180 206 177 204 173 203 169 202 " style="stroke:gray;fill:none"/><path d="M322 201 321 205 324 209 329 209 329 203 327 201 " style="stroke:gray;fill:none"/><path d="M325 200 329 204 328 209 325 209 323 207 321 203 " style="stroke:gray;fill:none"/><path d="M235 200 235 202 237 202 237 200 " style="stroke:gray;fill:none"/><path d="M236 202 " style="stroke:gray;fill:none"/><path d="M166 199 163 200 162 201 156 201 153 202 150 203 147 204 135 210 131 213 120 224 118 227 115 233 115 238 119 238 123 235 125 233 128 231 131 230 133 228 143 223 146 222 149 221 152 220 155 219 159 218 164 217 171 216 190 216 194 217 195 218 202 218 206 219 210 220 213 221 214 222 217 223 224 222 224 220 222 217 218 213 214 210 211 208 206 206 204 204 201 203 198 202 195 201 191 200 187 199 " style="stroke:gray;fill:none"/><path d="M166 199 187 199 191 200 195 201 198 202 201 204 203 204 207 206 210 208 213 210 217 213 224 221 222 223 217 223 214 222 211 221 210 220 206 219 202 218 195 218 191 217 190 216 171 216 164 217 159 218 155 219 152 220 149 221 146 222 143 223 127 231 124 233 122 235 118 238 115 237 115 233 117 229 120 225 132 213 136 210 139 208 145 205 147 205 150 203 153 202 156 201 162 201 " style="stroke:gray;fill:none"/><path d="M371 196 369 202 369 204 371 203 370 201 372 201 " style="stroke:gray;fill:none"/><path d="M371 196 371 201 " style="stroke:gray;fill:none"/><path d="M248 196 248 198 250 198 250 196 " style="stroke:gray;fill:none"/><path d="M249 198 " style="stroke:gray;fill:none"/><path d="M74 178 77 180 76 177 " style="stroke:gray;fill:none"/><path d="M74 178 76 180 " style="stroke:gray;fill:none"/><path d="M194 174 191 176 188 177 188 182 194 183 198 181 200 180 200 177 198 175 196 174 " style="stroke:gray;fill:none"/><path d="M194 174 196 174 198 175 200 177 200 179 198 181 194 183 190 183 187 179 190 176 " style="stroke:gray;fill:none"/><path d="M296 173 296 175 298 176 300 176 303 177 304 178 306 178 304 178 301 177 298 176 " style="stroke:gray;fill:none"/><path d="M334 169 333 171 331 170 329 171 327 173 325 173 322 172 321 171 319 171 321 171 324 172 325 173 327 173 330 171 332 170 333 172 330 174 329 176 334 171 " style="stroke:gray;fill:none"/><path d="M223 169 226 169 226 167 " style="stroke:gray;fill:none"/><path d="M223 168 226 168 " style="stroke:gray;fill:none"/><path d="M361 166 362 168 364 171 365 173 364 171 363 169 " style="stroke:gray;fill:none"/><path d="M319 167 311 169 310 170 299 170 292 171 291 172 286 172 291 172 298 171 299 170 310 170 318 169 327 168 328 167 336 166 338 166 341 169 340 171 337 175 325 187 321 190 318 192 315 194 313 195 311 195 308 197 304 195 306 193 309 192 311 190 314 189 319 184 318 182 320 180 322 180 325 180 323 182 321 184 326 179 324 179 322 180 319 181 316 181 296 180 291 179 288 178 284 177 283 174 280 173 284 172 283 170 284 168 283 170 279 171 255 170 255 168 254 171 247 171 233 170 231 172 231 175 234 179 243 188 246 190 251 192 253 194 256 195 258 197 261 197 264 199 268 200 274 200 278 202 284 202 288 202 290 199 294 198 291 199 288 201 284 202 278 202 274 200 268 200 264 199 261 197 259 197 255 195 253 193 250 192 247 190 245 188 246 185 243 183 244 185 244 188 234 178 231 173 234 170 246 170 280 172 284 177 287 178 290 179 295 180 315 180 317 181 318 184 313 189 310 191 307 193 305 194 303 195 305 197 302 198 299 200 295 201 292 201 295 201 299 200 302 198 304 198 308 197 311 195 313 195 319 192 322 190 326 187 337 176 340 172 341 170 341 168 339 166 335 166 328 167 327 168 323 168 321 166 " style="stroke:gray;fill:none"/><path d="M279 171 284 171 " style="stroke:gray;fill:none"/><path d="M319 167 322 167 " style="stroke:gray;fill:none"/><path d="M352 162 350 164 348 169 346 172 344 175 341 179 337 184 334 187 328 192 323 196 320 198 317 200 309 204 305 205 299 205 296 206 292 210 292 212 293 214 296 218 298 220 301 222 306 224 308 226 316 230 332 230 336 229 339 228 349 223 354 219 359 215 359 213 362 210 365 204 366 201 365 199 367 193 367 179 365 176 362 173 360 170 359 166 357 165 354 165 352 167 352 170 355 173 357 175 359 178 359 179 361 182 364 182 364 180 366 178 366 194 365 192 363 190 360 191 359 193 359 197 360 199 364 199 366 201 365 203 362 209 359 212 358 215 353 219 347 224 339 228 336 229 331 230 316 230 310 227 308 225 303 223 299 220 296 217 292 212 292 210 296 206 299 205 305 205 309 204 319 199 322 197 325 195 329 192 335 187 337 185 341 180 344 176 346 173 349 166 355 161 357 162 359 164 358 162 356 162 " style="stroke:gray;fill:none"/><path d="M362 190 366 194 365 199 361 199 359 197 359 193 " style="stroke:gray;fill:none"/><path d="M354 165 357 165 359 167 361 172 363 174 365 177 365 179 364 181 362 182 360 180 358 177 358 176 352 170 352 167 " style="stroke:gray;fill:none"/><path d="M364 160 362 161 " style="stroke:gray;fill:none"/><path d="M362 156 360 158 " style="stroke:gray;fill:none"/><path d="M362 156 360 158 " style="stroke:gray;fill:none"/><path d="M291 150 " style="stroke:gray;fill:none"/><path d="M379 148 377 149 376 151 377 153 382 154 382 152 380 150 " style="stroke:gray;fill:none"/><path d="M379 148 380 150 381 154 379 154 376 151 " style="stroke:gray;fill:none"/><path d="M275 150 276 148 288 149 280 150 288 150 289 148 " style="stroke:gray;fill:none"/><path d="M0 149 1 147 " style="stroke:gray;fill:none"/><path d="M343 144 " style="stroke:gray;fill:none"/><path d="M3 145 7 146 6 144 " style="stroke:gray;fill:none"/><path d="M5 144 7 146 5 148 3 146 " style="stroke:gray;fill:none"/><path d="M213 142 212 144 210 144 208 146 210 148 215 147 215 142 " style="stroke:gray;fill:none"/><path d="M214 142 214 147 210 148 208 146 210 144 213 144 " style="stroke:gray;fill:none"/><path d="M0 139 0 141 0 145 0 141 " style="stroke:gray;fill:none"/><path d="M354 138 354 140 356 140 356 138 " style="stroke:gray;fill:none"/><path d="M355 140 " style="stroke:gray;fill:none"/><path d="M218 138 218 141 219 144 222 147 226 148 240 148 242 150 242 152 242 150 244 148 250 148 243 149 241 149 226 148 223 147 219 143 218 141 " style="stroke:gray;fill:none"/><path d="M183 134 " style="stroke:gray;fill:none"/><path d="M358 129 358 133 362 136 363 141 361 143 359 144 355 145 351 146 347 147 342 148 336 149 329 150 321 151 310 152 301 151 300 147 293 147 291 148 293 147 300 148 298 149 300 152 298 153 280 154 233 154 223 153 216 152 211 151 206 149 205 146 206 143 205 145 205 147 206 149 211 151 216 152 223 153 233 154 280 154 298 153 310 152 321 151 329 150 336 149 342 148 347 147 351 146 355 145 359 144 363 142 364 140 364 138 363 136 358 132 358 130 360 128 363 128 366 129 369 130 372 132 378 138 378 141 371 148 368 149 366 151 364 151 361 153 358 154 356 154 353 156 350 157 346 158 342 159 337 160 333 161 328 162 322 163 315 164 306 165 295 166 250 166 237 165 229 164 223 163 217 162 213 161 209 160 206 159 203 158 199 156 196 154 192 150 191 148 191 146 192 144 195 141 198 139 206 135 208 135 211 139 208 142 211 140 211 138 210 136 206 135 194 141 192 143 191 146 191 148 192 151 194 153 197 155 203 158 206 159 209 160 213 161 217 162 223 163 229 164 237 165 249 165 251 167 251 169 252 166 295 166 306 165 315 164 322 163 328 162 333 161 337 160 342 159 346 158 350 157 353 156 356 155 359 153 361 153 364 151 366 151 372 148 377 143 378 141 378 138 377 136 373 132 369 130 366 129 363 128 " style="stroke:gray;fill:none"/><path d="M428 128 " style="stroke:gray;fill:none"/><path d="M346 127 346 134 348 135 346 133 " style="stroke:gray;fill:none"/><path d="M422 125 422 129 424 127 " style="stroke:gray;fill:none"/><path d="M422 125 424 127 422 129 420 127 " style="stroke:gray;fill:none"/><path d="M201 123 200 125 196 126 191 126 188 128 186 128 182 130 178 133 172 139 169 143 166 149 167 152 167 147 169 144 171 141 174 138 177 139 181 135 179 137 177 135 179 133 183 130 186 128 188 128 188 130 190 130 188 128 191 126 197 126 200 125 201 124 209 123 212 124 211 126 210 128 208 130 205 129 205 126 205 129 203 131 201 131 198 133 196 133 194 135 191 136 187 140 185 144 185 150 186 153 191 158 194 160 198 162 201 163 203 163 207 165 202 166 210 166 212 168 209 171 204 169 202 168 204 169 207 171 210 172 212 172 212 168 214 166 217 167 224 174 226 177 228 180 228 181 235 188 236 190 236 192 228 200 225 202 221 204 215 204 213 203 211 201 207 199 205 199 202 197 199 196 195 195 191 194 187 193 176 193 174 192 168 186 164 178 163 175 164 173 162 167 162 163 162 160 164 155 164 151 161 148 158 147 156 147 158 148 160 148 164 152 164 155 162 160 162 163 162 167 163 176 165 179 165 181 168 187 173 192 176 193 187 193 191 194 195 195 199 196 202 197 210 201 212 203 214 204 222 204 226 202 229 200 236 193 236 189 235 187 228 180 226 177 226 176 224 173 219 168 216 167 211 166 208 166 207 164 204 164 201 162 198 162 195 160 192 158 186 152 185 150 185 145 187 141 192 136 195 135 197 133 199 133 201 131 205 130 210 129 211 127 212 124 209 123 " style="stroke:gray;fill:none"/><path d="M177 135 179 137 177 139 174 138 " style="stroke:gray;fill:none"/><path d="M244 111 247 115 250 116 252 118 270 127 272 127 279 131 282 132 284 132 289 135 292 136 294 136 297 138 299 138 302 140 304 140 308 142 310 143 308 142 304 140 302 140 299 138 297 138 294 136 292 136 289 135 284 132 282 132 279 131 272 127 270 127 254 119 252 117 249 116 " style="stroke:gray;fill:none"/><path d="M339 106 341 109 342 111 343 114 343 117 344 120 345 122 344 120 344 118 343 114 342 111 341 108 " style="stroke:gray;fill:none"/><path d="M164 105 163 108 165 108 " style="stroke:gray;fill:none"/><path d="M164 105 164 108 " style="stroke:gray;fill:none"/><path d="M246 105 249 105 256 108 258 110 274 118 276 118 283 122 286 123 288 123 291 125 293 125 298 128 300 128 303 129 306 131 308 131 313 134 315 134 322 138 324 138 326 142 326 139 324 138 322 138 315 134 313 134 308 131 306 131 303 129 301 129 298 128 293 125 291 125 288 123 286 123 283 122 276 118 274 118 260 111 258 109 249 105 " style="stroke:gray;fill:none"/><path d="M211 102 211 104 213 104 213 102 " style="stroke:gray;fill:none"/><path d="M212 104 " style="stroke:gray;fill:none"/><path d="M344 99 346 102 347 99 " style="stroke:gray;fill:none"/><path d="M344 100 347 100 " style="stroke:gray;fill:none"/><path d="M203 93 202 96 203 93 204 95 " style="stroke:gray;fill:none"/><path d="M340 87 343 93 343 90 340 93 340 88 342 88 " style="stroke:gray;fill:none"/><path d="M252 86 253 89 255 90 257 90 260 91 263 92 266 94 269 95 271 95 274 96 275 97 278 98 281 99 284 100 287 101 289 101 292 103 295 104 298 104 301 105 304 106 307 107 310 108 313 109 316 110 319 111 322 112 325 113 328 114 331 115 334 116 337 117 340 119 342 121 343 123 344 137 347 137 343 136 343 122 339 118 337 117 334 116 331 115 328 114 325 113 322 112 319 111 316 110 313 109 310 108 307 107 304 106 301 105 298 104 295 104 292 103 289 101 287 101 284 100 281 99 278 98 275 97 272 96 269 95 266 94 263 92 261 92 258 91 255 90 " style="stroke:gray;fill:none"/><path d="M160 87 158 87 156 89 154 92 151 96 149 100 148 103 147 107 146 112 146 121 147 126 148 130 149 133 151 137 153 141 155 143 158 145 160 145 163 142 165 139 176 128 180 125 183 123 185 122 188 121 191 121 195 120 197 119 199 118 199 114 194 109 191 107 186 102 182 99 181 99 176 95 172 92 168 89 165 86 166 88 170 91 174 94 179 98 183 101 184 101 189 106 193 109 196 110 198 112 200 116 197 119 195 120 191 121 188 121 185 122 181 124 178 126 175 128 166 137 164 140 164 141 160 145 158 145 155 141 153 139 148 130 147 126 146 121 146 112 147 107 148 104 149 101 151 98 152 96 153 99 152 96 154 93 156 90 159 87 162 86 164 89 164 91 160 95 157 96 155 99 159 95 164 91 164 88 162 86 " style="stroke:gray;fill:none"/><path d="M367 85 367 88 371 88 371 85 " style="stroke:gray;fill:none"/><path d="M368 85 370 88 367 87 " style="stroke:gray;fill:none"/><path d="M156 80 156 82 158 82 158 80 " style="stroke:gray;fill:none"/><path d="M157 82 " style="stroke:gray;fill:none"/><path d="M249 80 244 84 243 84 231 96 228 100 226 104 226 106 224 108 224 110 222 113 221 116 220 119 219 123 218 130 215 132 214 131 213 136 216 135 218 136 219 134 218 130 219 123 220 119 221 116 222 113 228 101 231 97 245 83 249 80 250 80 252 78 " style="stroke:gray;fill:none"/><path d="M214 131 215 133 213 135 " style="stroke:gray;fill:none"/><path d="M217 130 219 134 217 136 216 134 215 132 " style="stroke:gray;fill:none"/><path d="M166 76 " style="stroke:gray;fill:none"/><path d="M140 76 " style="stroke:gray;fill:none"/><path d="M184 72 182 74 181 76 182 78 184 79 186 81 190 84 195 84 196 82 196 80 195 76 197 74 195 76 192 73 190 72 " style="stroke:gray;fill:none"/><path d="M185 72 189 72 191 73 195 77 196 80 196 82 194 84 191 84 188 82 185 80 181 76 " style="stroke:gray;fill:none"/><path d="M303 71 303 73 306 74 319 80 322 82 327 86 337 96 338 99 341 102 342 105 344 107 347 113 348 116 349 120 350 124 350 136 349 138 345 142 340 143 336 144 333 143 327 145 318 146 315 146 312 146 304 145 302 146 304 145 305 150 306 148 309 148 310 146 312 146 315 146 318 146 326 144 327 145 333 143 336 145 337 143 340 144 338 145 340 145 341 142 345 142 347 141 349 139 350 137 350 124 349 120 348 116 347 113 343 105 341 103 341 101 338 98 337 95 328 86 324 83 320 80 318 79 316 79 306 74 305 71 " style="stroke:gray;fill:none"/><path d="M306 147 309 147 " style="stroke:gray;fill:none"/><path d="M304 73 " style="stroke:gray;fill:none"/><path d="M263 71 262 73 260 72 259 76 256 78 255 78 253 80 250 83 249 86 248 88 248 92 246 94 245 97 244 100 243 103 242 106 242 115 243 129 244 133 245 136 246 139 248 142 249 145 253 148 273 148 252 147 250 145 248 143 248 141 246 138 245 135 244 132 243 128 242 115 242 107 243 103 245 100 246 97 246 95 248 93 248 91 248 88 249 85 251 83 253 81 255 79 259 80 264 83 267 84 270 85 272 85 275 86 276 87 279 88 281 88 284 90 287 91 290 92 294 93 297 94 300 95 303 96 306 97 309 98 312 99 315 100 318 101 321 102 324 103 327 104 330 105 333 106 335 106 338 104 336 105 332 105 330 105 327 104 324 103 321 102 318 101 315 100 312 99 309 98 306 97 303 96 300 95 297 94 294 93 290 92 287 91 284 90 281 88 279 88 276 87 273 86 270 85 267 84 264 83 259 80 255 79 258 76 262 74 263 72 265 73 265 71 " style="stroke:gray;fill:none"/><path d="M261 74 " style="stroke:gray;fill:none"/><path d="M264 73 " style="stroke:gray;fill:none"/><path d="M150 70 147 73 146 75 148 79 153 79 155 77 160 77 162 79 164 79 167 81 171 84 174 86 178 89 181 91 187 96 192 100 198 105 204 111 210 116 214 115 214 111 204 101 197 95 193 92 190 90 189 90 185 86 182 85 179 82 177 82 175 81 172 78 170 77 168 77 170 78 173 80 178 82 181 84 184 86 188 89 192 92 196 95 203 101 214 112 214 114 211 116 206 111 199 105 193 100 188 96 183 92 179 89 175 86 172 84 168 81 160 77 154 77 152 79 149 79 147 77 146 75 151 70 154 70 159 73 162 74 164 75 162 74 159 72 157 72 154 70 " style="stroke:gray;fill:none"/><path d="M276 69 272 71 271 72 267 73 271 72 276 71 277 70 292 70 296 71 297 72 301 73 297 72 293 71 292 70 280 70 279 68 " style="stroke:gray;fill:none"/><path d="M276 69 279 69 " style="stroke:gray;fill:none"/><path d="M165 68 164 70 165 72 168 74 174 73 173 70 171 70 169 68 " style="stroke:gray;fill:none"/><path d="M166 68 169 68 171 70 174 71 173 74 168 74 164 70 " style="stroke:gray;fill:none"/><path d="M145 68 145 70 " style="stroke:gray;fill:none"/><path d="M181 67 179 68 178 70 180 70 182 70 " style="stroke:gray;fill:none"/><path d="M181 67 179 69 " style="stroke:gray;fill:none"/><path d="M141 67 139 69 139 71 137 73 137 77 137 73 139 71 139 69 141 67 142 75 " style="stroke:gray;fill:none"/><path d="M283 64 284 66 288 66 288 64 " style="stroke:gray;fill:none"/><path d="M283 65 288 65 " style="stroke:gray;fill:none"/><path d="M62 62 64 64 66 62 65 60 " style="stroke:gray;fill:none"/><path d="M64 60 66 62 64 64 62 62 " style="stroke:gray;fill:none"/><path d="M195 54 194 61 196 61 " style="stroke:gray;fill:none"/><path d="M195 54 195 61 " style="stroke:gray;fill:none"/><path d="M257 33 263 37 271 45 273 48 274 51 276 53 276 55 278 57 276 55 276 53 275 51 273 49 271 44 264 37 259 33 " style="stroke:gray;fill:none"/><path d="M235 25 231 27 235 26 247 25 251 26 254 27 262 31 266 34 273 41 277 46 280 52 281 56 281 61 278 64 276 65 271 66 267 67 264 67 260 68 255 71 253 71 249 73 246 75 243 77 239 80 234 84 230 88 227 92 225 95 225 96 220 101 217 101 211 96 209 94 206 90 204 87 203 85 203 83 201 80 200 77 199 74 199 61 200 57 201 54 202 51 204 47 206 44 217 33 222 31 224 29 227 28 229 28 227 28 223 29 220 32 218 32 216 33 206 43 204 46 203 48 202 51 201 54 200 57 199 61 199 74 200 77 201 80 203 83 203 85 204 88 206 91 209 94 211 96 215 100 217 101 221 101 225 97 227 94 229 91 229 90 235 84 240 80 244 77 247 75 251 72 253 71 256 70 258 70 260 68 264 67 268 66 271 66 276 65 280 63 281 61 281 56 280 52 279 49 278 47 276 44 273 40 267 34 264 32 259 30 257 28 255 27 251 26 247 25 " style="stroke:gray;fill:none"/><path d="M266 24 269 25 269 23 " style="stroke:gray;fill:none"/><path d="M266 24 269 24 " style="stroke:gray;fill:none"/><path d="M227 20 225 21 224 25 230 24 229 20 " style="stroke:gray;fill:none"/><path d="M227 20 230 21 229 25 224 23 " style="stroke:gray;fill:none"/></svg>