<svg width="429px" height="547px" xmlns="http://www.w3.org/2000/svg"><path d="M171 500 166 505 158 505 155 504 151 504 149 506 149 509 151 513 157 519 161 522 165 524 170 524 172 523 174 521 176 517 177 514 177 504 176 502 175 500 " style="stroke:gray;fill:none"/><path d="M172 500 174 500 176 502 177 504 177 514 176 517 175 519 170 524 166 524 162 522 158 519 151 512 149 509 149 506 151 504 155 504 158 505 166 505 168 504 " style="stroke:gray;fill:none"/><path d="M141 482 140 484 141 482 142 484 " style="stroke:gray;fill:none"/><path d="M91 483 90 485 89 488 88 491 88 502 89 504 92 507 97 507 101 506 104 505 114 500 116 498 119 497 122 495 126 491 126 488 124 486 121 486 116 489 113 490 106 490 103 489 101 488 97 484 95 482 " style="stroke:gray;fill:none"/><path d="M94 481 98 485 103 489 106 490 113 490 116 489 121 486 124 486 126 488 126 490 120 496 117 498 114 499 112 501 108 503 106 503 103 505 100 506 97 507 93 507 88 502 88 491 89 488 90 485 " style="stroke:gray;fill:none"/><path d="M144 480 143 487 141 487 138 489 137 491 138 493 139 496 142 502 144 505 146 508 146 506 144 504 142 501 138 493 137 491 141 487 144 486 " style="stroke:gray;fill:none"/><path d="M128 479 130 483 130 485 129 490 130 485 130 482 " style="stroke:gray;fill:none"/><path d="M166 474 162 478 160 481 159 484 157 487 159 488 161 490 159 487 159 485 160 482 162 479 168 474 " style="stroke:gray;fill:none"/><path d="M158 488 " style="stroke:gray;fill:none"/><path d="M104 469 101 472 98 473 92 479 99 473 101 472 102 474 104 474 107 477 111 479 115 480 124 479 122 480 115 480 112 479 108 477 105 474 103 474 101 472 103 471 " style="stroke:gray;fill:none"/><path d="M177 460 173 464 173 468 176 471 179 472 182 473 186 473 188 471 189 469 189 466 188 464 185 461 183 460 " style="stroke:gray;fill:none"/><path d="M177 460 183 460 189 466 189 469 185 473 183 473 180 472 177 471 173 467 173 464 " style="stroke:gray;fill:none"/><path d="M121 457 122 459 122 468 121 470 118 472 121 471 122 469 " style="stroke:gray;fill:none"/><path d="M102 447 102 460 103 463 104 466 110 472 112 473 115 474 122 474 125 473 127 471 130 465 131 459 131 457 130 455 128 453 125 453 118 454 115 453 113 452 107 446 " style="stroke:gray;fill:none"/><path d="M104 446 106 446 112 452 115 453 118 454 120 455 125 453 128 453 130 455 131 457 131 459 130 465 128 469 124 473 122 474 115 474 111 472 104 465 103 463 102 460 102 448 " style="stroke:gray;fill:none"/><path d="M113 434 110 437 110 442 114 446 116 447 119 448 124 448 126 446 127 443 127 441 126 438 124 436 120 434 " style="stroke:gray;fill:none"/><path d="M114 434 120 434 123 436 126 439 127 441 127 443 126 445 123 448 118 447 120 446 123 443 124 441 120 446 118 447 116 447 110 441 110 438 " style="stroke:gray;fill:none"/><path d="M178 429 175 430 172 432 170 435 169 438 168 442 168 452 169 454 171 454 168 451 168 442 169 439 170 436 172 434 174 432 176 430 179 429 187 429 190 430 194 432 197 435 195 432 191 430 188 429 " style="stroke:gray;fill:none"/><path d="M115 405 114 407 120 407 122 408 125 410 129 414 131 417 132 420 132 426 131 428 129 430 131 429 132 427 132 419 131 416 129 413 126 410 123 408 120 407 117 407 " style="stroke:gray;fill:none"/><path d="M217 389 216 391 215 394 214 397 213 401 212 405 211 409 210 412 209 416 208 420 207 424 207 427 208 429 211 429 213 427 214 425 215 422 216 417 217 412 218 408 219 403 220 398 221 393 221 390 219 388 " style="stroke:gray;fill:none"/><path d="M219 388 221 390 221 393 220 398 219 403 218 408 217 412 216 417 215 422 214 425 209 429 207 427 207 424 208 420 209 416 210 412 211 409 212 405 213 401 214 397 215 394 216 391 " style="stroke:gray;fill:none"/><path d="M107 383 106 385 105 390 105 394 104 396 105 398 108 399 110 397 111 395 112 392 112 385 110 383 " style="stroke:gray;fill:none"/><path d="M108 383 110 383 112 385 112 392 111 395 107 399 105 394 105 390 106 385 " style="stroke:gray;fill:none"/><path d="M133 381 132 383 132 391 134 395 143 404 146 406 156 411 159 412 162 413 167 414 185 414 189 413 192 412 196 411 199 409 201 409 203 406 200 409 198 409 195 411 191 412 188 413 184 414 167 414 163 413 160 412 157 411 147 406 144 404 134 394 132 390 132 384 133 382 139 376 " style="stroke:gray;fill:none"/><path d="M28 367 26 368 25 373 27 375 31 375 33 373 33 370 32 368 30 367 " style="stroke:gray;fill:none"/><path d="M29 367 31 368 32 370 33 372 30 375 28 375 25 372 25 370 27 368 " style="stroke:gray;fill:none"/><path d="M118 365 116 368 113 371 110 371 113 371 116 370 117 367 " style="stroke:gray;fill:none"/><path d="M186 359 185 361 189 362 189 359 " style="stroke:gray;fill:none"/><path d="M188 362 185 361 " style="stroke:gray;fill:none"/><path d="M190 349 190 353 177 353 173 355 171 359 170 364 169 371 166 371 159 370 157 371 156 373 157 375 162 378 165 379 169 379 172 379 178 379 181 379 184 378 185 373 184 371 188 370 188 373 190 375 192 375 196 373 196 371 197 367 198 366 199 360 199 355 196 352 192 352 " style="stroke:gray;fill:none"/><path d="M191 352 195 352 199 356 199 360 198 366 197 370 196 372 194 374 192 375 190 375 188 373 188 369 185 369 185 373 185 376 182 379 178 379 172 379 169 379 165 379 162 378 160 377 156 373 159 370 166 371 170 370 170 364 171 359 172 357 175 354 177 353 " style="stroke:gray;fill:none"/><path d="M332 337 330 338 331 342 336 341 336 338 334 337 " style="stroke:gray;fill:none"/><path d="M331 338 336 340 334 342 332 342 330 340 " style="stroke:gray;fill:none"/><path d="M104 330 102 332 99 336 96 340 96 342 93 347 92 351 92 357 93 360 94 363 95 365 100 370 102 371 105 372 108 373 112 373 115 373 117 373 119 372 121 370 121 366 120 363 118 363 110 355 109 352 105 348 105 346 107 344 108 342 108 331 " style="stroke:gray;fill:none"/><path d="M104 331 108 332 108 342 106 344 105 346 105 348 106 350 109 354 111 357 117 363 119 363 121 365 122 368 117 373 115 373 112 373 108 373 105 372 101 370 94 363 93 360 92 357 92 351 93 347 96 341 99 337 102 333 " style="stroke:gray;fill:none"/><path d="M243 327 239 328 236 329 233 330 227 333 224 335 221 337 211 346 209 348 209 350 212 346 222 337 225 335 228 333 234 330 237 329 240 328 244 327 247 327 250 330 248 327 " style="stroke:gray;fill:none"/><path d="M127 326 121 327 118 328 115 331 114 333 114 348 115 352 116 354 119 357 123 359 126 360 131 360 134 359 138 357 140 355 142 352 142 350 141 353 136 358 134 358 131 360 126 360 123 359 120 357 115 352 114 348 114 334 115 332 119 328 121 327 127 326 132 326 134 327 137 330 137 334 137 338 136 342 135 343 135 345 137 348 139 349 142 348 138 348 135 345 135 343 136 339 137 334 137 331 137 329 135 327 132 326 " style="stroke:gray;fill:none"/><path d="M200 316 202 318 200 319 195 324 192 326 189 328 183 331 180 331 184 331 190 328 193 326 196 324 200 321 202 319 203 316 202 318 " style="stroke:gray;fill:none"/><path d="M140 309 " style="stroke:gray;fill:none"/><path d="M229 301 226 302 223 304 221 306 215 309 213 309 210 311 207 312 204 313 201 313 198 315 194 316 190 317 184 318 174 319 152 319 142 318 141 317 138 318 136 322 134 321 131 320 133 321 137 321 140 324 147 330 150 331 153 332 156 333 161 334 160 337 161 334 187 333 192 334 191 338 190 335 191 338 184 340 162 339 154 340 154 343 156 345 158 346 163 347 183 348 183 351 183 349 185 347 194 346 203 346 206 349 206 354 205 359 204 365 203 371 202 374 201 376 197 380 194 382 191 383 188 384 184 385 165 385 161 384 157 383 154 382 144 377 137 369 133 367 131 367 128 370 122 377 121 377 119 379 117 383 118 391 118 394 117 397 116 399 112 403 112 405 107 414 106 417 105 420 104 424 104 426 106 431 109 431 111 429 113 428 116 427 118 427 122 428 125 430 130 435 132 438 132 439 137 440 139 438 142 434 145 430 146 427 144 423 147 420 149 421 151 421 156 424 158 424 163 425 162 429 158 432 157 435 157 449 156 455 155 459 154 463 152 466 152 468 147 477 147 479 147 482 147 484 149 488 153 492 156 493 161 493 165 492 171 489 175 486 178 483 178 480 177 478 174 475 170 472 167 468 167 462 168 460 173 455 175 454 178 454 181 454 184 454 187 456 189 456 192 456 196 451 197 448 198 444 199 440 200 436 201 431 201 425 202 421 203 417 204 413 205 409 206 405 207 402 208 398 209 394 210 390 211 387 213 383 219 377 233 364 238 358 240 355 242 352 244 349 246 346 250 338 250 336 253 331 253 328 252 326 250 324 248 323 246 323 242 320 238 316 236 315 234 315 232 316 224 324 220 327 217 329 214 331 206 335 203 336 199 337 195 338 192 337 191 333 195 332 198 331 201 330 204 329 209 326 211 325 214 326 215 323 219 320 220 320 228 312 231 308 232 305 233 303 232 301 " style="stroke:gray;fill:none"/><path d="M234 315 236 315 241 320 244 322 246 323 248 323 253 328 253 331 250 336 250 338 247 344 245 347 243 350 240 354 238 357 233 363 218 377 213 382 212 384 211 387 210 390 209 394 209 397 208 401 206 404 205 409 204 413 203 417 202 421 201 425 201 431 200 436 199 440 198 444 197 448 196 451 195 453 189 456 187 456 184 454 181 454 178 454 175 454 171 456 168 459 167 461 167 468 168 470 170 473 172 475 178 480 178 482 174 486 169 490 165 492 161 493 156 493 154 492 149 487 147 484 147 482 147 479 147 477 153 466 154 463 155 459 156 455 157 449 157 435 158 433 163 429 162 424 160 425 156 424 151 421 149 421 147 419 144 419 144 423 146 427 145 429 142 432 139 436 139 437 136 440 134 440 132 438 130 435 130 434 126 430 122 428 118 427 116 427 113 428 109 430 107 431 105 429 104 426 104 424 105 420 106 417 107 414 108 412 110 410 111 408 111 406 112 404 115 401 117 397 118 394 118 391 117 383 118 381 124 376 128 372 134 368 135 368 137 370 143 377 145 377 154 382 157 383 161 384 165 385 184 385 188 384 191 383 194 382 198 380 201 377 202 374 203 371 204 365 204 360 205 355 207 351 206 348 204 346 194 346 185 347 182 347 163 347 158 346 154 341 156 339 162 339 184 340 190 339 195 338 199 337 203 336 206 335 218 329 221 327 225 324 " style="stroke:gray;fill:none"/><path d="M229 301 231 301 233 304 231 306 229 309 229 310 219 320 215 323 212 325 204 329 201 330 198 331 195 332 191 333 186 334 161 334 156 333 153 332 150 331 148 330 142 325 137 320 138 318 141 317 151 318 152 319 174 319 184 318 190 317 194 316 198 315 201 313 204 313 207 312 210 311 213 309 215 309 223 305 225 303 " style="stroke:gray;fill:none"/><path d="M246 291 244 293 244 297 247 300 250 301 252 300 253 298 253 295 251 292 " style="stroke:gray;fill:none"/><path d="M247 291 249 291 251 293 253 296 253 298 249 301 244 296 244 294 " style="stroke:gray;fill:none"/><path d="M260 281 256 283 256 285 256 288 257 291 259 293 260 295 261 298 261 302 256 307 246 306 244 307 242 309 242 311 247 316 249 316 252 318 255 319 261 319 264 318 270 315 275 310 277 307 278 304 279 300 279 294 278 291 277 288 273 284 269 282 266 281 " style="stroke:gray;fill:none"/><path d="M260 281 266 281 269 282 272 284 277 289 278 291 279 294 279 300 278 304 277 306 275 309 268 316 264 318 261 319 255 319 252 318 248 316 242 309 244 307 246 306 257 307 259 305 261 307 263 310 265 311 270 311 266 311 264 310 261 306 259 305 261 302 261 298 260 295 258 291 256 289 256 285 256 284 258 282 " style="stroke:gray;fill:none"/><path d="M203 277 202 279 " style="stroke:gray;fill:none"/><path d="M138 272 136 274 137 281 144 280 145 278 145 275 142 272 " style="stroke:gray;fill:none"/><path d="M139 272 141 272 144 279 142 281 138 281 136 279 136 275 " style="stroke:gray;fill:none"/><path d="M235 269 233 273 232 284 233 286 235 287 238 287 240 283 241 280 242 275 242 272 241 270 239 268 " style="stroke:gray;fill:none"/><path d="M238 268 242 272 242 275 241 280 240 283 238 286 236 288 232 284 233 273 234 271 " style="stroke:gray;fill:none"/><path d="M97 262 97 264 96 267 95 268 95 281 96 285 97 288 99 291 99 293 101 296 107 297 107 292 106 289 105 288 105 283 104 279 103 278 103 267 101 262 " style="stroke:gray;fill:none"/><path d="M97 263 100 262 102 264 103 267 103 278 104 282 105 283 105 288 106 291 107 292 106 297 103 297 101 295 99 292 97 288 96 285 95 281 95 268 96 265 " style="stroke:gray;fill:none"/><path d="M238 254 236 256 236 262 237 255 238 258 238 262 238 258 " style="stroke:gray;fill:none"/><path d="M111 251 111 253 109 256 108 259 109 268 112 271 112 277 113 280 114 281 114 285 113 287 113 290 113 292 114 295 116 298 116 300 118 304 122 308 126 308 128 307 128 303 123 294 123 292 122 289 121 287 116 282 115 275 115 269 118 267 120 269 118 267 116 266 117 260 115 251 " style="stroke:gray;fill:none"/><path d="M113 250 116 253 117 260 117 265 115 268 115 275 116 282 117 284 122 289 123 292 124 295 124 297 128 304 127 307 125 308 123 308 117 302 116 300 116 298 114 295 113 292 113 290 112 288 115 285 114 281 113 278 112 277 112 270 109 267 108 259 109 256 111 252 " style="stroke:gray;fill:none"/><path d="M26 243 25 245 25 247 30 247 30 243 " style="stroke:gray;fill:none"/><path d="M27 243 30 244 30 246 26 247 25 245 " style="stroke:gray;fill:none"/><path d="M119 242 119 244 121 245 120 247 118 249 115 246 113 246 112 248 114 246 116 247 117 249 120 248 121 245 121 242 " style="stroke:gray;fill:none"/><path d="M120 244 " style="stroke:gray;fill:none"/><path d="M127 237 " style="stroke:gray;fill:none"/><path d="M243 236 243 242 244 245 245 248 246 249 247 252 248 259 248 271 249 273 253 273 253 271 255 268 255 253 254 249 253 246 252 243 250 239 247 236 " style="stroke:gray;fill:none"/><path d="M244 236 246 236 250 240 253 246 254 249 255 253 255 268 254 270 252 272 248 271 248 259 247 252 246 249 245 246 244 245 243 242 " style="stroke:gray;fill:none"/><path d="M229 237 229 241 229 243 230 247 231 249 233 252 236 252 238 250 238 247 238 245 237 242 235 238 233 236 " style="stroke:gray;fill:none"/><path d="M232 236 236 240 237 242 238 245 238 247 239 249 235 253 232 250 230 247 229 243 229 241 228 239 " style="stroke:gray;fill:none"/><path d="M129 236 " style="stroke:gray;fill:none"/><path d="M152 234 149 235 147 236 143 240 142 242 141 245 141 248 141 251 141 253 142 256 143 258 148 263 151 264 162 264 166 262 169 259 171 255 171 243 170 241 168 238 164 235 161 234 " style="stroke:gray;fill:none"/><path d="M152 234 161 234 163 235 167 238 169 240 171 243 171 255 170 257 165 262 161 264 151 264 149 263 146 261 144 259 142 256 141 253 141 251 141 248 141 245 142 242 148 236 " style="stroke:gray;fill:none"/><path d="M190 219 189 221 170 222 164 220 163 223 160 223 156 224 152 225 149 226 146 227 141 230 139 230 133 233 131 235 130 238 126 240 124 243 124 240 124 243 122 248 122 268 123 273 124 279 125 283 126 287 127 290 130 296 132 298 135 305 137 307 136 305 134 303 131 296 129 294 127 290 126 287 125 283 124 279 123 273 122 268 122 248 123 245 125 242 129 239 131 237 132 235 135 236 140 233 142 233 145 231 147 231 150 229 155 228 161 228 164 226 175 225 188 225 192 226 194 227 197 229 205 237 207 240 209 244 210 248 210 257 211 261 212 262 212 264 210 267 210 269 209 272 207 276 205 275 207 276 205 279 204 281 201 284 201 281 199 284 201 285 195 291 191 293 189 294 189 296 191 293 194 292 197 290 201 286 204 282 205 279 207 277 208 275 209 272 209 270 210 267 211 265 213 264 216 267 216 276 215 280 214 283 212 286 204 294 201 296 199 297 195 298 185 298 179 301 176 304 168 308 165 309 162 310 157 311 149 312 144 312 138 311 137 310 135 310 137 313 139 313 143 312 149 312 157 311 162 310 165 309 168 308 178 303 181 300 185 298 195 298 199 297 203 295 206 293 211 288 213 285 214 283 215 280 216 276 216 267 215 265 212 263 211 261 210 257 210 248 209 244 206 238 204 235 199 230 196 228 192 226 188 225 175 225 164 226 161 228 155 228 150 229 147 231 145 231 142 233 140 233 135 236 132 235 134 233 140 230 142 230 147 227 150 226 153 225 156 224 160 223 165 222 171 221 190 221 196 222 201 223 205 224 209 225 212 226 216 228 221 233 222 235 223 238 224 241 225 244 226 248 226 254 228 257 227 261 229 264 228 270 228 274 228 277 228 283 227 288 226 292 225 294 218 301 206 307 203 308 200 309 195 309 191 310 188 312 184 312 181 312 177 312 154 313 150 314 150 316 152 314 154 313 177 312 181 312 183 315 184 312 188 312 191 310 195 309 200 309 203 308 207 307 219 301 224 296 226 293 227 288 228 283 228 277 228 274 228 270 229 263 227 261 228 257 226 254 226 248 225 244 224 241 223 238 222 234 221 232 217 228 213 226 209 225 205 224 202 224 196 222 196 220 195 222 190 221 " style="stroke:gray;fill:none"/><path d="M135 311 138 311 140 312 137 313 " style="stroke:gray;fill:none"/><path d="M216 208 217 210 220 209 " style="stroke:gray;fill:none"/><path d="M217 209 220 209 " style="stroke:gray;fill:none"/><path d="M249 204 249 206 251 206 251 204 " style="stroke:gray;fill:none"/><path d="M250 206 " style="stroke:gray;fill:none"/><path d="M164 202 169 202 173 203 176 204 179 205 185 208 188 210 190 212 190 214 192 212 189 210 186 208 180 205 177 204 174 203 170 202 " style="stroke:gray;fill:none"/><path d="M322 201 321 205 323 208 325 210 329 209 329 203 327 201 " style="stroke:gray;fill:none"/><path d="M325 200 329 204 329 208 326 210 322 206 321 203 " style="stroke:gray;fill:none"/><path d="M173 198 165 199 162 201 157 201 153 202 150 203 147 204 145 206 143 206 135 210 131 214 128 216 127 216 122 221 119 225 116 231 115 234 116 238 118 238 120 237 122 235 125 233 128 231 131 229 145 222 148 221 151 220 155 219 159 218 164 217 171 216 192 216 195 218 202 218 206 219 210 220 213 221 214 222 217 223 220 224 222 224 224 223 224 219 218 213 214 210 211 208 206 206 204 204 201 204 198 202 195 201 191 200 187 199 178 198 " style="stroke:gray;fill:none"/><path d="M173 198 178 198 187 199 191 200 195 201 198 202 201 204 203 204 209 207 213 210 217 213 224 220 224 222 222 224 220 224 217 223 214 222 211 221 210 220 206 219 202 218 195 218 192 216 171 216 164 217 159 218 155 219 151 220 148 221 145 222 127 231 124 233 122 235 117 238 115 236 115 234 116 231 118 229 119 226 122 222 128 216 131 214 132 214 136 210 139 208 143 206 145 206 150 203 153 202 157 201 162 201 165 199 " style="stroke:gray;fill:none"/><path d="M252 194 251 196 253 196 " style="stroke:gray;fill:none"/><path d="M166 194 171 195 166 194 173 195 172 193 " style="stroke:gray;fill:none"/><path d="M360 191 359 193 359 197 360 199 364 199 366 201 365 204 362 210 359 213 357 216 357 218 354 221 352 221 350 223 348 225 345 228 343 229 339 230 316 230 309 229 306 227 298 226 298 223 297 221 292 216 288 211 287 209 289 207 289 205 286 204 289 206 287 209 288 211 289 213 292 217 298 223 299 227 306 227 309 229 315 230 339 230 343 229 345 228 347 227 350 223 353 221 355 221 357 219 357 217 359 214 362 211 365 205 365 203 366 198 366 194 365 192 363 190 " style="stroke:gray;fill:none"/><path d="M362 190 366 194 365 199 361 199 359 197 359 193 " style="stroke:gray;fill:none"/><path d="M247 189 249 192 248 194 249 192 250 194 250 192 248 191 " style="stroke:gray;fill:none"/><path d="M240 189 241 191 240 189 243 188 243 190 245 191 245 189 243 188 " style="stroke:gray;fill:none"/><path d="M367 181 367 192 " style="stroke:gray;fill:none"/><path d="M234 182 235 184 236 186 238 187 236 186 236 182 240 186 237 182 " style="stroke:gray;fill:none"/><path d="M235 183 " style="stroke:gray;fill:none"/><path d="M193 174 191 175 188 177 187 179 188 181 190 183 193 183 196 182 198 181 200 180 199 175 197 174 " style="stroke:gray;fill:none"/><path d="M193 174 197 174 199 175 200 179 198 181 196 182 193 183 190 183 188 181 187 179 190 176 " style="stroke:gray;fill:none"/><path d="M73 174 72 177 71 179 73 181 77 181 79 179 79 176 78 174 " style="stroke:gray;fill:none"/><path d="M76 173 79 176 79 178 76 181 73 181 72 176 " style="stroke:gray;fill:none"/><path d="M231 174 232 176 235 179 234 177 231 174 232 172 " style="stroke:gray;fill:none"/><path d="M319 171 " style="stroke:gray;fill:none"/><path d="M330 171 327 172 324 172 321 171 324 172 328 173 330 171 332 170 " style="stroke:gray;fill:none"/><path d="M311 170 299 171 285 172 299 171 311 170 313 169 " style="stroke:gray;fill:none"/><path d="M278 169 276 170 278 171 280 173 281 175 280 173 283 171 283 169 281 168 " style="stroke:gray;fill:none"/><path d="M279 169 281 168 283 170 279 171 277 170 " style="stroke:gray;fill:none"/><path d="M223 169 226 169 226 167 " style="stroke:gray;fill:none"/><path d="M223 168 226 168 " style="stroke:gray;fill:none"/><path d="M316 169 320 167 327 168 333 167 334 166 338 166 340 168 340 171 337 175 324 188 320 191 317 192 315 194 313 195 311 195 308 197 304 198 302 196 304 194 307 193 309 191 311 191 316 187 318 185 318 181 315 180 308 180 306 178 303 178 300 177 298 176 297 173 297 176 299 176 302 177 307 179 296 180 291 179 287 178 285 177 283 174 284 177 286 177 290 178 295 179 296 180 315 180 317 181 319 183 314 188 310 191 307 192 304 194 302 196 302 199 300 200 292 201 284 202 278 202 272 201 268 200 265 199 262 198 257 195 255 194 257 195 259 197 262 198 265 199 268 200 272 201 278 202 284 202 292 201 300 200 303 198 305 198 308 197 311 196 317 193 319 191 322 190 326 187 336 177 339 173 341 170 339 166 333 166 327 167 326 168 321 168 320 166 " style="stroke:gray;fill:none"/><path d="M316 166 320 167 316 169 " style="stroke:gray;fill:none"/><path d="M199 165 199 167 201 169 203 169 206 171 209 172 213 172 213 169 212 172 209 172 206 171 202 169 " style="stroke:gray;fill:none"/><path d="M355 164 353 165 352 167 352 170 353 172 358 177 361 182 364 182 365 180 365 177 364 174 363 172 360 169 359 166 357 165 " style="stroke:gray;fill:none"/><path d="M355 164 357 165 360 168 361 171 364 174 365 177 365 180 362 182 360 180 357 176 357 175 352 170 352 167 " style="stroke:gray;fill:none"/><path d="M356 158 354 159 356 159 358 161 360 163 363 166 363 169 362 164 358 160 " style="stroke:gray;fill:none"/><path d="M197 157 197 159 199 157 " style="stroke:gray;fill:none"/><path d="M198 159 " style="stroke:gray;fill:none"/><path d="M360 156 360 159 362 159 " style="stroke:gray;fill:none"/><path d="M361 156 361 159 " style="stroke:gray;fill:none"/><path d="M379 151 379 153 381 153 381 151 " style="stroke:gray;fill:none"/><path d="M380 153 " style="stroke:gray;fill:none"/><path d="M193 151 195 154 198 155 196 154 " style="stroke:gray;fill:none"/><path d="M159 151 159 153 161 153 161 151 " style="stroke:gray;fill:none"/><path d="M160 153 " style="stroke:gray;fill:none"/><path d="M188 152 191 150 " style="stroke:gray;fill:none"/><path d="M188 151 191 151 " style="stroke:gray;fill:none"/><path d="M191 148 " style="stroke:gray;fill:none"/><path d="M0 147 0 149 " style="stroke:gray;fill:none"/><path d="M307 149 310 146 " style="stroke:gray;fill:none"/><path d="M307 146 310 149 306 148 " style="stroke:gray;fill:none"/><path d="M301 146 304 146 " style="stroke:gray;fill:none"/><path d="M171 146 173 149 172 151 170 148 170 150 172 151 174 148 174 146 " style="stroke:gray;fill:none"/><path d="M325 144 318 145 315 145 313 145 315 145 318 145 325 144 331 144 333 146 335 146 332 145 334 144 " style="stroke:gray;fill:none"/><path d="M210 144 208 146 210 148 216 146 219 146 221 148 217 148 219 149 221 149 221 147 219 146 217 146 214 144 " style="stroke:gray;fill:none"/><path d="M210 144 214 144 216 146 210 148 208 146 " style="stroke:gray;fill:none"/><path d="M206 144 206 148 205 146 " style="stroke:gray;fill:none"/><path d="M343 142 337 145 338 143 343 142 343 146 340 146 344 145 " style="stroke:gray;fill:none"/><path d="M3 142 0 143 0 145 3 142 5 142 7 144 7 147 5 149 2 149 7 148 7 143 5 142 " style="stroke:gray;fill:none"/><path d="M196 141 " style="stroke:gray;fill:none"/><path d="M187 141 " style="stroke:gray;fill:none"/><path d="M199 139 " style="stroke:gray;fill:none"/><path d="M359 138 359 140 361 140 361 138 " style="stroke:gray;fill:none"/><path d="M360 140 " style="stroke:gray;fill:none"/><path d="M213 138 213 140 215 140 " style="stroke:gray;fill:none"/><path d="M190 139 189 141 189 143 187 145 189 146 191 144 191 142 194 139 196 138 194 139 191 142 191 144 187 145 189 143 189 141 194 137 " style="stroke:gray;fill:none"/><path d="M206 135 203 136 201 138 203 137 206 135 209 135 211 137 211 139 208 142 211 140 211 137 209 135 " style="stroke:gray;fill:none"/><path d="M197 134 199 137 " style="stroke:gray;fill:none"/><path d="M198 134 198 137 " style="stroke:gray;fill:none"/><path d="M195 134 " style="stroke:gray;fill:none"/><path d="M358 130 357 133 361 135 363 137 364 140 361 143 358 144 355 145 352 146 347 147 352 146 355 145 358 144 362 143 364 141 364 138 361 135 358 133 " style="stroke:gray;fill:none"/><path d="M428 128 " style="stroke:gray;fill:none"/><path d="M215 127 213 129 212 131 212 134 213 136 218 140 219 144 221 145 219 143 218 141 218 138 218 133 219 131 218 127 " style="stroke:gray;fill:none"/><path d="M215 127 218 128 219 131 219 134 219 137 217 139 212 134 212 131 213 129 " style="stroke:gray;fill:none"/><path d="M209 123 198 124 194 125 190 126 187 127 184 129 179 133 175 136 171 140 169 143 167 147 167 149 166 151 164 153 163 157 162 162 162 169 163 174 164 178 166 181 166 183 167 185 169 188 171 190 175 192 178 193 189 193 193 194 196 195 199 196 202 197 210 201 212 203 215 204 222 204 226 202 230 199 236 193 236 189 233 185 227 179 225 176 225 175 223 172 219 168 217 167 214 166 208 166 211 166 214 166 216 167 218 168 223 173 225 176 227 179 227 180 235 188 236 190 236 192 229 199 225 202 221 204 215 204 213 203 211 201 207 199 205 199 202 197 199 196 196 195 193 194 190 193 179 193 175 192 172 190 168 186 165 180 164 177 163 173 162 169 162 162 163 157 164 154 167 149 167 147 169 144 171 141 176 136 180 137 183 134 181 135 177 136 180 133 186 128 190 126 195 125 199 124 206 124 208 126 208 128 206 130 203 131 200 132 198 132 200 132 203 131 206 130 208 129 207 125 209 123 210 128 210 126 " style="stroke:gray;fill:none"/><path d="M358 121 353 122 353 127 357 128 360 128 362 128 366 129 369 130 371 131 378 138 378 141 377 143 374 146 371 148 366 150 364 152 362 152 359 154 355 155 352 156 349 157 346 158 341 159 336 160 332 161 327 162 322 163 314 164 304 165 294 166 292 166 286 165 270 166 267 166 260 166 257 166 254 165 252 165 248 166 244 165 241 165 236 164 229 164 223 163 217 162 213 161 212 160 207 160 205 158 207 160 206 164 202 163 202 159 204 161 203 159 200 160 199 162 196 161 194 160 190 157 188 154 186 153 185 150 185 144 185 150 186 153 188 155 190 157 192 159 198 162 202 163 206 164 209 163 210 160 212 160 216 161 217 162 223 163 229 164 236 164 242 166 241 170 234 170 232 168 229 168 233 169 229 170 245 171 247 171 250 171 274 171 268 170 268 168 270 166 286 165 292 166 294 166 304 165 314 164 322 163 327 162 332 161 336 160 341 159 346 158 349 157 352 156 356 155 359 154 362 152 364 152 372 148 375 145 378 142 378 137 373 132 369 130 366 129 364 129 359 126 361 125 360 122 " style="stroke:gray;fill:none"/><path d="M260 166 268 167 267 171 258 170 258 168 " style="stroke:gray;fill:none"/><path d="M252 165 254 165 258 167 257 171 250 171 248 169 249 166 " style="stroke:gray;fill:none"/><path d="M244 165 248 166 247 171 245 171 243 170 242 167 " style="stroke:gray;fill:none"/><path d="M208 160 208 164 " style="stroke:gray;fill:none"/><path d="M358 121 361 124 357 128 355 128 352 124 354 122 " style="stroke:gray;fill:none"/><path d="M221 118 219 123 219 125 219 123 " style="stroke:gray;fill:none"/><path d="M219 108 218 111 217 113 218 115 221 115 222 113 222 110 221 107 " style="stroke:gray;fill:none"/><path d="M220 108 222 110 222 113 219 115 218 110 " style="stroke:gray;fill:none"/><path d="M245 105 249 105 258 109 260 111 270 116 272 116 281 121 284 122 286 122 289 124 291 124 296 127 298 127 301 128 306 131 308 131 311 133 313 133 320 137 322 137 324 138 327 142 326 139 322 137 320 137 313 133 311 133 308 131 306 131 301 128 299 128 296 127 291 124 289 124 286 122 284 122 281 121 272 116 270 116 262 112 260 110 249 105 " style="stroke:gray;fill:none"/><path d="M209 100 209 102 211 102 211 100 " style="stroke:gray;fill:none"/><path d="M210 102 " style="stroke:gray;fill:none"/><path d="M206 97 " style="stroke:gray;fill:none"/><path d="M202 97 204 97 202 96 205 95 " style="stroke:gray;fill:none"/><path d="M138 90 138 92 142 92 141 88 " style="stroke:gray;fill:none"/><path d="M142 89 141 92 138 90 " style="stroke:gray;fill:none"/><path d="M252 86 253 89 255 90 257 90 260 91 263 93 265 93 268 95 271 96 274 97 277 98 280 99 283 100 286 100 289 101 292 103 295 104 298 105 301 105 304 107 307 107 310 108 313 109 316 110 319 111 322 112 325 113 328 114 331 115 334 116 337 117 340 119 342 121 344 124 345 139 344 137 344 124 342 121 342 119 339 118 337 117 334 116 331 115 328 114 325 113 322 112 319 111 316 110 313 109 310 108 307 107 304 107 301 105 298 105 295 104 292 103 289 101 286 100 283 100 280 99 277 98 274 97 271 96 268 95 265 93 263 93 260 91 258 91 255 90 " style="stroke:gray;fill:none"/><path d="M161 86 159 87 157 88 154 92 152 95 150 99 149 102 148 105 147 109 146 116 146 119 147 124 148 128 149 131 150 134 151 137 153 140 158 145 160 145 161 143 163 143 165 139 169 134 173 130 177 127 180 125 183 123 185 122 188 121 190 121 193 120 194 119 197 119 199 118 199 113 196 110 191 106 190 106 183 99 179 96 176 94 172 91 169 89 166 87 164 86 " style="stroke:gray;fill:none"/><path d="M160 87 163 86 165 87 168 89 171 91 175 94 178 96 182 99 189 106 194 110 195 110 200 115 199 117 197 119 193 120 191 120 187 121 179 125 176 127 172 130 169 133 165 138 163 141 160 144 158 144 153 139 151 136 150 134 149 131 148 128 147 124 146 119 146 116 147 109 148 105 149 102 150 99 152 96 154 96 154 93 157 90 158 88 160 87 161 89 158 93 156 95 161 90 " style="stroke:gray;fill:none"/><path d="M150 82 150 85 152 85 " style="stroke:gray;fill:none"/><path d="M151 82 151 85 " style="stroke:gray;fill:none"/><path d="M256 80 259 80 262 82 264 82 267 83 270 85 273 86 276 87 279 88 282 89 285 90 288 91 291 92 294 93 297 94 300 95 303 96 306 97 309 98 312 99 315 100 318 101 321 102 324 103 327 104 330 105 332 105 335 105 337 104 339 104 336 104 332 105 330 105 327 104 324 103 321 102 318 101 315 100 312 99 309 98 306 97 303 96 300 95 297 94 294 93 291 92 288 91 285 90 282 89 279 88 276 87 273 86 270 85 267 83 264 82 262 82 259 80 " style="stroke:gray;fill:none"/><path d="M254 80 250 83 249 85 248 87 248 89 247 93 245 96 244 99 243 103 242 113 242 126 243 130 244 134 245 137 246 140 248 144 251 147 244 149 238 148 236 149 226 147 223 147 226 147 236 149 235 154 231 154 222 153 216 152 215 151 210 150 207 150 210 150 215 151 221 152 222 153 231 154 235 154 238 154 240 153 244 155 270 155 286 154 290 153 293 153 295 153 298 153 301 153 311 152 321 151 331 150 337 149 338 148 343 148 338 148 332 149 331 150 321 151 311 152 301 153 298 150 299 147 293 147 277 148 274 148 253 148 247 142 246 140 245 137 244 134 243 130 242 126 244 112 245 114 248 116 272 128 274 128 279 131 282 132 284 132 289 135 292 136 294 136 299 139 302 140 304 140 309 143 311 144 309 143 304 140 302 140 299 139 294 136 292 136 289 135 284 132 282 132 279 131 274 128 272 128 250 117 247 115 243 111 243 103 244 99 245 96 247 93 247 90 248 87 249 85 251 83 " style="stroke:gray;fill:none"/><path d="M238 148 238 154 236 152 236 150 " style="stroke:gray;fill:none"/><path d="M250 148 253 148 275 150 285 151 275 150 277 148 293 147 299 150 295 153 293 153 291 151 290 153 286 154 270 155 244 155 241 154 239 152 240 149 243 150 243 152 243 150 245 148 " style="stroke:gray;fill:none"/><path d="M156 80 156 82 158 82 158 80 " style="stroke:gray;fill:none"/><path d="M157 82 " style="stroke:gray;fill:none"/><path d="M323 79 " style="stroke:gray;fill:none"/><path d="M251 79 248 81 245 83 244 83 232 95 230 98 228 101 225 108 224 110 225 108 227 103 229 100 232 96 245 83 248 81 249 81 251 79 253 78 " style="stroke:gray;fill:none"/><path d="M259 76 " style="stroke:gray;fill:none"/><path d="M142 75 " style="stroke:gray;fill:none"/><path d="M253 74 253 76 256 75 254 76 255 73 " style="stroke:gray;fill:none"/><path d="M140 74 142 77 140 76 142 73 " style="stroke:gray;fill:none"/><path d="M187 72 182 74 182 78 184 80 187 81 190 84 195 83 195 78 194 76 191 73 189 72 " style="stroke:gray;fill:none"/><path d="M187 72 189 72 195 78 195 82 193 84 191 84 188 82 185 80 182 77 182 75 184 73 " style="stroke:gray;fill:none"/><path d="M270 72 268 72 272 71 " style="stroke:gray;fill:none"/><path d="M149 70 147 72 146 75 147 79 152 80 155 77 157 76 160 78 167 81 171 85 174 86 178 89 182 92 187 97 191 100 192 100 199 107 204 111 208 114 210 116 215 115 215 112 214 110 212 108 210 106 204 101 197 95 193 92 189 89 185 86 182 84 179 82 172 79 170 77 166 75 164 75 166 76 169 77 171 79 178 82 181 84 184 86 188 89 192 92 196 95 202 101 210 108 214 111 215 114 213 116 211 116 208 114 206 111 200 107 193 100 189 97 188 97 183 92 179 89 175 86 172 85 168 81 158 76 156 76 154 77 152 79 147 78 146 75 147 73 150 70 153 70 156 71 158 72 154 71 " style="stroke:gray;fill:none"/><path d="M263 69 259 71 257 72 258 74 261 74 265 72 265 69 " style="stroke:gray;fill:none"/><path d="M263 69 265 72 261 74 257 73 259 71 261 71 " style="stroke:gray;fill:none"/><path d="M258 69 " style="stroke:gray;fill:none"/><path d="M162 67 160 68 161 72 163 73 167 72 163 73 160 69 162 67 165 70 167 70 164 68 " style="stroke:gray;fill:none"/><path d="M304 66 301 68 294 68 275 70 278 70 292 69 299 70 302 71 305 73 307 73 312 76 314 76 318 78 323 82 327 85 330 88 332 90 334 92 337 96 339 99 341 102 341 104 343 106 345 109 346 111 347 114 348 117 349 120 350 124 349 129 351 134 351 136 346 141 348 140 350 138 351 136 351 134 349 129 350 124 349 120 348 116 346 113 346 111 343 105 341 103 341 101 339 98 337 95 334 92 332 89 332 86 330 87 329 85 326 84 329 83 327 82 326 84 325 81 323 82 320 80 317 77 319 76 321 78 318 75 316 74 314 74 311 73 309 71 309 69 307 67 " style="stroke:gray;fill:none"/><path d="M331 88 " style="stroke:gray;fill:none"/><path d="M315 76 318 76 " style="stroke:gray;fill:none"/><path d="M312 75 316 75 " style="stroke:gray;fill:none"/><path d="M304 66 307 67 309 69 309 71 311 73 313 74 310 75 307 73 305 73 302 71 299 70 292 69 278 70 275 67 294 68 301 68 " style="stroke:gray;fill:none"/><path d="M195 60 193 64 195 65 193 64 195 60 196 62 " style="stroke:gray;fill:none"/><path d="M198 44 200 47 198 46 200 43 " style="stroke:gray;fill:none"/><path d="M279 35 279 38 280 35 281 38 281 35 " style="stroke:gray;fill:none"/><path d="M257 33 263 37 271 45 273 48 277 57 279 58 276 55 276 53 275 51 273 49 271 44 265 38 260 34 " style="stroke:gray;fill:none"/><path d="M235 25 231 26 227 27 225 29 222 29 220 31 217 32 214 34 208 40 206 43 204 46 203 48 202 51 201 54 200 57 199 60 199 74 200 78 202 81 202 83 203 86 205 88 206 91 209 95 213 99 216 101 221 101 224 98 227 94 228 91 236 83 241 79 244 77 247 75 251 72 255 71 253 71 249 73 246 75 243 77 240 79 235 83 229 89 227 92 227 93 225 96 220 101 217 101 214 99 209 94 206 90 204 87 202 83 202 81 200 78 199 74 199 61 200 57 201 54 202 51 204 47 206 44 208 41 215 34 218 32 221 31 223 29 225 29 228 27 231 26 235 25 247 25 251 26 254 27 257 31 260 30 262 31 265 33 273 41 277 46 280 52 281 56 281 61 278 64 276 65 271 66 267 67 264 67 267 67 271 66 276 65 279 64 282 61 281 56 280 52 279 49 278 47 276 44 273 40 266 33 263 31 261 30 259 30 257 28 255 27 252 26 248 25 " style="stroke:gray;fill:none"/></svg>