<svg width="429px" height="547px" xmlns="http://www.w3.org/2000/svg"><path d="M92 509 95 509 " style="stroke:gray;fill:none"/><path d="M171 500 166 505 158 505 155 504 151 504 149 506 149 510 151 513 157 519 161 522 163 523 166 524 171 524 174 521 176 517 177 514 177 504 176 502 175 500 " style="stroke:gray;fill:none"/><path d="M172 500 174 500 176 502 177 504 177 514 176 517 175 519 170 524 166 524 162 522 158 519 151 512 149 509 149 506 151 504 155 504 158 505 166 505 168 504 " style="stroke:gray;fill:none"/><path d="M171 492 172 494 174 496 175 498 174 496 " style="stroke:gray;fill:none"/><path d="M141 493 144 491 146 493 148 496 151 498 154 499 163 499 166 498 169 496 172 497 169 496 166 498 163 499 155 499 152 498 149 496 146 492 " style="stroke:gray;fill:none"/><path d="M144 482 144 484 145 486 143 488 141 488 139 489 138 491 139 495 140 498 142 502 144 505 147 508 146 506 144 504 142 501 140 497 139 494 138 491 141 488 143 488 145 487 145 485 " style="stroke:gray;fill:none"/><path d="M91 483 90 485 89 488 88 491 88 502 89 504 92 507 97 507 100 506 103 505 106 504 118 498 121 496 127 490 126 488 124 486 121 486 116 489 113 490 106 490 103 489 101 488 97 484 95 482 " style="stroke:gray;fill:none"/><path d="M94 481 98 485 103 489 106 490 113 490 116 489 121 486 124 486 126 488 126 490 120 496 117 498 114 499 112 501 108 503 106 503 103 505 100 506 97 507 93 507 88 502 88 491 89 488 90 485 " style="stroke:gray;fill:none"/><path d="M180 480 180 482 " style="stroke:gray;fill:none"/><path d="M180 478 183 476 " style="stroke:gray;fill:none"/><path d="M281 476 282 482 286 481 285 475 " style="stroke:gray;fill:none"/><path d="M282 475 284 475 286 477 286 480 284 480 283 482 281 480 " style="stroke:gray;fill:none"/><path d="M125 475 126 477 128 479 129 482 129 485 128 488 129 486 130 482 129 480 126 477 " style="stroke:gray;fill:none"/><path d="M166 474 164 475 164 477 162 478 159 483 159 485 158 489 159 491 158 489 158 486 160 488 162 490 159 487 159 484 161 480 164 478 165 475 168 474 " style="stroke:gray;fill:none"/><path d="M102 474 105 476 111 479 115 480 126 481 115 480 111 479 109 478 107 476 104 474 " style="stroke:gray;fill:none"/><path d="M104 470 102 471 98 473 93 477 92 479 94 477 99 473 102 471 " style="stroke:gray;fill:none"/><path d="M29 470 26 473 27 477 31 477 33 476 33 473 " style="stroke:gray;fill:none"/><path d="M32 473 32 476 " style="stroke:gray;fill:none"/><path d="M28 472 30 472 30 477 28 477 26 474 " style="stroke:gray;fill:none"/><path d="M29 470 29 473 " style="stroke:gray;fill:none"/><path d="M180 462 178 463 176 466 178 468 178 464 " style="stroke:gray;fill:none"/><path d="M177 464 177 467 " style="stroke:gray;fill:none"/><path d="M191 460 189 462 191 460 194 459 " style="stroke:gray;fill:none"/><path d="M179 459 176 460 174 462 173 464 173 468 176 471 179 472 182 473 186 473 188 471 189 469 189 466 188 464 185 461 183 460 " style="stroke:gray;fill:none"/><path d="M179 459 183 460 189 466 189 469 185 473 183 473 179 472 177 471 173 467 173 464 177 460 " style="stroke:gray;fill:none"/><path d="M121 457 122 459 122 468 121 470 118 472 121 471 122 469 " style="stroke:gray;fill:none"/><path d="M117 449 " style="stroke:gray;fill:none"/><path d="M104 450 " style="stroke:gray;fill:none"/><path d="M112 447 " style="stroke:gray;fill:none"/><path d="M102 447 102 461 103 464 105 467 110 472 112 473 115 474 122 474 125 473 128 470 129 468 130 465 131 459 131 457 130 455 128 453 125 453 118 454 115 453 113 452 107 446 " style="stroke:gray;fill:none"/><path d="M104 446 106 446 112 452 115 453 118 454 120 455 125 453 128 453 130 455 131 457 131 459 130 465 128 469 124 473 122 474 115 474 112 473 104 465 102 461 102 448 " style="stroke:gray;fill:none"/><path d="M138 443 135 444 133 445 132 447 132 454 132 447 135 444 " style="stroke:gray;fill:none"/><path d="M124 441 121 445 123 444 " style="stroke:gray;fill:none"/><path d="M353 436 352 439 352 441 354 443 357 443 356 436 " style="stroke:gray;fill:none"/><path d="M355 436 357 438 355 443 355 441 353 441 " style="stroke:gray;fill:none"/><path d="M109 434 " style="stroke:gray;fill:none"/><path d="M111 432 113 434 110 437 110 442 115 447 119 448 124 448 126 446 127 443 127 441 120 434 113 434 " style="stroke:gray;fill:none"/><path d="M114 434 120 434 123 436 126 439 127 441 127 443 126 445 123 448 119 448 116 447 110 441 110 438 " style="stroke:gray;fill:none"/><path d="M103 432 104 434 105 441 103 443 105 442 105 434 " style="stroke:gray;fill:none"/><path d="M203 432 211 431 " style="stroke:gray;fill:none"/><path d="M177 429 175 430 172 432 170 435 169 438 168 442 168 452 169 454 171 454 168 451 168 442 169 439 170 436 172 434 174 432 176 430 178 429 188 429 191 430 193 431 197 435 194 431 192 430 189 429 " style="stroke:gray;fill:none"/><path d="M160 427 " style="stroke:gray;fill:none"/><path d="M158 428 " style="stroke:gray;fill:none"/><path d="M148 426 150 424 " style="stroke:gray;fill:none"/><path d="M114 407 117 407 120 407 124 409 129 414 131 417 132 419 132 426 131 428 129 430 131 429 132 427 132 418 131 416 129 413 125 409 123 408 120 407 117 406 " style="stroke:gray;fill:none"/><path d="M103 399 103 402 106 405 106 407 107 409 106 407 106 404 105 401 107 401 104 402 " style="stroke:gray;fill:none"/><path d="M219 388 217 389 216 391 216 393 215 396 214 397 214 400 213 404 212 408 211 409 210 412 209 416 208 420 207 424 208 428 211 429 213 427 214 425 215 422 216 417 217 412 218 408 219 403 220 398 221 393 221 390 " style="stroke:gray;fill:none"/><path d="M219 388 221 390 221 393 220 398 219 403 218 408 217 412 216 417 215 422 214 425 210 429 208 428 207 424 208 420 209 416 210 412 211 409 212 405 213 401 214 397 215 394 216 391 " style="stroke:gray;fill:none"/><path d="M279 386 280 391 284 390 283 386 " style="stroke:gray;fill:none"/><path d="M280 386 284 387 284 389 282 391 279 390 " style="stroke:gray;fill:none"/><path d="M220 385 " style="stroke:gray;fill:none"/><path d="M107 383 106 385 105 390 105 394 104 396 105 398 108 399 110 397 111 395 112 392 112 385 110 383 " style="stroke:gray;fill:none"/><path d="M108 383 110 383 112 385 112 392 111 395 107 399 105 394 105 390 106 385 " style="stroke:gray;fill:none"/><path d="M176 383 " style="stroke:gray;fill:none"/><path d="M173 383 " style="stroke:gray;fill:none"/><path d="M220 380 223 384 223 389 223 383 " style="stroke:gray;fill:none"/><path d="M107 381 110 379 111 381 113 382 115 381 110 379 " style="stroke:gray;fill:none"/><path d="M188 376 " style="stroke:gray;fill:none"/><path d="M136 378 134 380 132 382 132 391 134 395 137 399 140 402 143 404 146 406 151 408 153 410 155 411 158 412 162 413 166 414 185 414 189 413 193 412 196 410 199 410 201 409 203 406 200 409 198 410 195 410 192 412 188 413 184 414 167 414 163 413 159 412 156 411 154 410 152 408 147 406 144 404 141 402 137 398 134 394 132 390 132 383 134 380 136 378 139 376 " style="stroke:gray;fill:none"/><path d="M107 376 109 377 111 377 113 376 111 377 109 377 " style="stroke:gray;fill:none"/><path d="M118 376 " style="stroke:gray;fill:none"/><path d="M118 367 117 369 115 369 112 371 110 371 113 371 117 369 " style="stroke:gray;fill:none"/><path d="M27 367 25 369 25 373 27 375 31 375 33 373 33 370 32 368 30 367 " style="stroke:gray;fill:none"/><path d="M30 368 32 370 33 372 30 375 28 375 25 372 25 370 " style="stroke:gray;fill:none"/><path d="M127 364 129 366 127 365 130 364 " style="stroke:gray;fill:none"/><path d="M168 362 167 364 167 369 167 364 " style="stroke:gray;fill:none"/><path d="M156 363 157 365 160 365 159 360 " style="stroke:gray;fill:none"/><path d="M160 361 158 365 156 362 " style="stroke:gray;fill:none"/><path d="M186 359 185 361 189 362 189 359 " style="stroke:gray;fill:none"/><path d="M188 362 185 361 " style="stroke:gray;fill:none"/><path d="M140 358 142 360 141 363 139 365 137 366 134 362 135 365 138 366 141 363 142 365 144 369 147 372 150 374 153 375 155 376 153 374 151 374 148 372 144 368 142 365 142 360 " style="stroke:gray;fill:none"/><path d="M147 357 144 361 149 357 151 359 151 362 151 368 154 369 156 369 154 369 150 367 150 363 151 358 149 357 " style="stroke:gray;fill:none"/><path d="M163 353 173 352 " style="stroke:gray;fill:none"/><path d="M157 351 155 353 153 353 150 354 148 355 150 354 152 354 155 353 157 351 160 352 162 355 160 354 159 351 " style="stroke:gray;fill:none"/><path d="M139 351 " style="stroke:gray;fill:none"/><path d="M198 350 202 350 201 354 202 349 " style="stroke:gray;fill:none"/><path d="M190 349 191 352 177 353 175 354 173 355 172 357 171 359 170 364 169 371 166 371 159 370 157 371 156 373 157 375 162 378 165 379 171 380 175 379 179 380 182 379 184 378 185 373 184 371 188 370 188 373 190 375 192 375 196 373 196 371 197 367 198 366 199 360 199 355 196 352 190 351 " style="stroke:gray;fill:none"/><path d="M191 352 195 352 199 356 199 360 198 366 197 370 196 372 194 374 192 375 190 375 188 373 188 369 185 369 185 373 185 376 182 379 179 380 175 379 171 380 165 379 162 378 160 377 156 373 159 370 166 371 170 370 170 364 171 359 172 357 175 354 177 353 " style="stroke:gray;fill:none"/><path d="M154 346 152 348 150 351 148 352 150 351 " style="stroke:gray;fill:none"/><path d="M110 345 " style="stroke:gray;fill:none"/><path d="M138 343 139 345 141 345 145 345 147 347 147 350 146 352 147 350 147 346 144 344 141 344 " style="stroke:gray;fill:none"/><path d="M110 341 112 341 " style="stroke:gray;fill:none"/><path d="M152 338 150 339 149 341 152 343 150 342 150 339 " style="stroke:gray;fill:none"/><path d="M110 338 112 338 " style="stroke:gray;fill:none"/><path d="M332 337 330 338 331 342 335 342 334 337 " style="stroke:gray;fill:none"/><path d="M331 338 335 339 334 342 332 342 330 340 " style="stroke:gray;fill:none"/><path d="M182 336 182 338 " style="stroke:gray;fill:none"/><path d="M177 336 177 338 " style="stroke:gray;fill:none"/><path d="M161 337 " style="stroke:gray;fill:none"/><path d="M110 336 112 336 " style="stroke:gray;fill:none"/><path d="M156 335 156 337 " style="stroke:gray;fill:none"/><path d="M194 334 194 336 " style="stroke:gray;fill:none"/><path d="M145 332 146 334 150 334 154 337 153 335 150 334 " style="stroke:gray;fill:none"/><path d="M104 330 102 332 99 336 96 340 96 342 93 347 92 351 92 358 94 361 94 363 95 365 100 370 104 372 108 373 117 373 119 372 121 370 121 366 121 364 118 363 111 356 109 353 109 352 105 348 105 346 107 344 108 342 107 330 " style="stroke:gray;fill:none"/><path d="M104 331 108 332 108 342 106 344 105 346 105 348 106 350 109 354 111 357 117 363 121 366 122 368 117 373 108 373 104 372 102 371 94 363 94 361 92 358 92 351 93 347 96 341 99 337 102 333 " style="stroke:gray;fill:none"/><path d="M208 330 " style="stroke:gray;fill:none"/><path d="M140 331 139 339 140 331 142 329 " style="stroke:gray;fill:none"/><path d="M242 327 239 328 236 329 233 330 227 333 225 335 222 336 216 341 209 349 217 341 223 336 226 335 228 333 234 330 237 329 240 328 243 327 247 327 249 328 250 330 248 327 " style="stroke:gray;fill:none"/><path d="M213 328 " style="stroke:gray;fill:none"/><path d="M214 326 " style="stroke:gray;fill:none"/><path d="M127 326 122 327 118 328 115 331 114 333 114 348 115 352 116 354 119 357 123 359 126 360 131 360 134 359 138 357 140 355 141 352 143 350 141 353 136 358 134 359 131 360 126 360 123 359 120 357 115 352 114 348 114 333 119 328 122 327 127 326 132 326 134 327 137 330 137 334 137 337 136 341 135 342 135 345 137 348 139 349 142 348 138 348 135 345 135 342 136 338 137 337 137 334 137 331 137 329 135 327 132 326 " style="stroke:gray;fill:none"/><path d="M216 325 " style="stroke:gray;fill:none"/><path d="M219 324 " style="stroke:gray;fill:none"/><path d="M253 321 " style="stroke:gray;fill:none"/><path d="M140 320 " style="stroke:gray;fill:none"/><path d="M248 319 249 321 " style="stroke:gray;fill:none"/><path d="M117 319 113 323 111 324 109 324 107 325 104 328 109 324 111 324 114 323 119 320 " style="stroke:gray;fill:none"/><path d="M203 318 200 319 198 321 195 324 191 327 189 327 187 328 184 330 182 331 184 331 186 330 188 328 190 327 192 327 196 324 200 321 201 319 " style="stroke:gray;fill:none"/><path d="M129 318 " style="stroke:gray;fill:none"/><path d="M121 317 124 317 " style="stroke:gray;fill:none"/><path d="M203 316 " style="stroke:gray;fill:none"/><path d="M201 317 " style="stroke:gray;fill:none"/><path d="M132 316 131 318 " style="stroke:gray;fill:none"/><path d="M234 315 232 316 224 324 220 327 217 329 214 331 206 335 203 336 199 337 195 338 190 337 190 335 191 338 184 340 162 339 154 340 154 343 156 345 158 346 163 347 183 348 183 351 183 349 185 347 194 346 203 346 206 349 206 354 205 359 204 364 203 365 203 371 202 374 201 376 197 380 194 382 191 383 188 384 184 385 165 385 161 384 157 383 154 382 144 377 137 369 133 367 131 367 128 370 123 376 122 376 119 379 117 383 118 391 118 394 117 397 116 399 113 403 111 405 110 407 110 409 107 414 106 417 105 420 104 424 104 427 106 431 109 431 111 429 113 428 121 428 125 430 130 435 132 438 132 439 137 440 139 438 142 434 145 430 144 423 147 420 149 421 151 421 156 424 159 425 162 424 162 429 158 432 157 435 157 449 156 455 155 459 154 463 152 466 152 468 151 470 149 472 149 474 147 477 147 479 147 482 147 484 149 488 152 491 156 493 161 493 165 492 171 489 175 486 178 483 178 480 177 478 174 475 170 472 167 468 167 466 167 463 167 461 173 455 175 454 184 454 186 456 189 457 191 457 196 451 197 448 198 445 199 441 200 436 201 430 201 425 202 421 203 417 204 413 205 409 206 405 207 402 208 398 209 394 210 390 211 387 213 383 219 377 233 364 239 357 240 354 243 351 245 348 246 345 248 343 249 341 249 339 251 336 251 334 253 331 253 327 250 324 248 323 246 323 242 320 238 316 236 315 " style="stroke:gray;fill:none"/><path d="M234 315 236 315 241 320 244 322 246 323 248 323 253 328 253 331 251 334 251 336 247 344 245 347 243 350 240 353 239 356 233 363 218 377 213 382 212 384 211 387 210 390 209 394 209 397 208 401 206 404 205 409 204 413 203 417 202 421 201 425 201 430 200 436 199 441 198 445 197 448 196 451 195 453 191 457 189 457 184 454 175 454 171 456 168 459 167 461 167 463 167 466 167 468 168 470 170 473 172 475 178 480 178 482 174 486 169 490 165 492 161 493 156 493 154 492 149 487 147 484 147 482 147 479 147 477 153 466 154 463 155 459 156 455 157 449 157 435 158 433 163 429 162 424 159 424 156 424 151 421 149 421 147 419 144 419 144 423 145 429 142 433 139 437 136 440 134 440 132 438 130 435 130 434 126 430 124 429 121 428 113 428 109 430 107 431 105 429 104 427 104 424 105 420 106 417 107 414 108 412 110 410 110 408 112 404 115 401 117 397 118 394 118 391 117 383 118 381 124 376 128 372 134 368 135 368 137 370 143 377 145 377 154 382 157 383 161 384 165 385 184 385 188 384 191 383 194 382 198 380 201 377 202 374 203 371 203 365 204 360 205 355 207 351 206 348 204 346 194 346 185 347 182 347 163 347 158 346 154 341 156 339 162 339 184 340 190 339 195 338 199 337 203 336 206 335 218 329 221 327 225 324 " style="stroke:gray;fill:none"/><path d="M185 315 " style="stroke:gray;fill:none"/><path d="M172 315 173 317 " style="stroke:gray;fill:none"/><path d="M230 314 " style="stroke:gray;fill:none"/><path d="M152 317 153 314 " style="stroke:gray;fill:none"/><path d="M142 313 141 315 " style="stroke:gray;fill:none"/><path d="M135 312 " style="stroke:gray;fill:none"/><path d="M230 312 " style="stroke:gray;fill:none"/><path d="M123 311 125 312 126 316 126 313 " style="stroke:gray;fill:none"/><path d="M201 309 " style="stroke:gray;fill:none"/><path d="M135 308 " style="stroke:gray;fill:none"/><path d="M405 307 404 309 405 311 409 313 411 313 412 310 411 307 " style="stroke:gray;fill:none"/><path d="M406 307 410 307 411 312 407 312 404 309 " style="stroke:gray;fill:none"/><path d="M260 307 261 309 264 310 267 312 268 310 270 311 268 310 265 310 262 309 " style="stroke:gray;fill:none"/><path d="M133 306 131 308 131 312 137 315 135 316 132 313 131 311 131 309 " style="stroke:gray;fill:none"/><path d="M249 303 250 305 255 305 253 305 " style="stroke:gray;fill:none"/><path d="M246 303 " style="stroke:gray;fill:none"/><path d="M242 304 238 305 237 309 237 312 233 313 238 312 237 309 239 304 242 304 244 303 " style="stroke:gray;fill:none"/><path d="M254 302 " style="stroke:gray;fill:none"/><path d="M258 301 " style="stroke:gray;fill:none"/><path d="M229 301 226 302 224 304 221 305 219 307 215 309 213 309 210 311 207 312 204 313 201 314 198 315 194 316 190 317 183 318 174 319 151 319 141 318 138 318 136 322 133 320 127 319 122 319 126 319 130 321 125 323 123 322 121 321 123 322 125 324 128 324 130 321 133 320 137 321 142 325 147 330 150 331 153 332 157 333 160 334 186 334 191 333 195 332 198 331 201 330 204 329 216 323 220 320 228 312 231 308 232 305 233 303 232 301 " style="stroke:gray;fill:none"/><path d="M229 301 231 301 233 304 231 306 229 309 229 310 219 320 215 323 212 325 204 329 201 330 198 331 195 332 191 333 186 334 160 334 157 333 153 332 150 331 148 330 142 325 137 320 138 318 141 318 151 319 174 319 183 318 190 317 194 316 198 315 201 314 204 313 207 312 210 311 213 309 215 309 223 305 225 303 " style="stroke:gray;fill:none"/><path d="M224 298 225 300 " style="stroke:gray;fill:none"/><path d="M108 300 104 300 108 300 112 297 " style="stroke:gray;fill:none"/><path d="M255 295 257 296 " style="stroke:gray;fill:none"/><path d="M226 296 230 296 227 299 229 298 230 295 " style="stroke:gray;fill:none"/><path d="M194 294 192 295 " style="stroke:gray;fill:none"/><path d="M186 293 184 295 " style="stroke:gray;fill:none"/><path d="M246 291 244 293 244 297 247 300 250 301 252 300 253 298 253 295 251 292 " style="stroke:gray;fill:none"/><path d="M247 291 249 291 251 293 253 296 253 298 249 301 244 296 244 294 " style="stroke:gray;fill:none"/><path d="M236 291 235 293 235 295 237 298 237 303 235 306 236 304 237 298 235 295 235 293 238 290 " style="stroke:gray;fill:none"/><path d="M229 292 231 290 " style="stroke:gray;fill:none"/><path d="M191 290 " style="stroke:gray;fill:none"/><path d="M240 288 242 288 " style="stroke:gray;fill:none"/><path d="M123 286 " style="stroke:gray;fill:none"/><path d="M108 286 110 286 " style="stroke:gray;fill:none"/><path d="M253 284 252 286 244 289 252 288 252 286 " style="stroke:gray;fill:none"/><path d="M230 284 " style="stroke:gray;fill:none"/><path d="M107 284 " style="stroke:gray;fill:none"/><path d="M99 282 102 282 " style="stroke:gray;fill:none"/><path d="M260 281 256 283 255 285 255 287 256 290 258 292 260 295 261 298 261 301 260 303 256 307 246 306 242 308 242 311 247 316 249 316 252 318 255 319 261 319 264 318 267 317 269 316 275 310 278 304 279 301 279 294 278 291 277 288 273 284 269 282 266 281 " style="stroke:gray;fill:none"/><path d="M260 281 266 281 269 282 272 284 277 289 278 291 279 294 279 301 278 304 276 306 275 309 268 316 264 318 261 319 255 319 252 318 248 316 242 309 244 307 246 306 257 307 260 304 261 301 261 298 260 295 258 291 256 289 255 287 255 285 258 282 " style="stroke:gray;fill:none"/><path d="M212 280 209 284 208 287 203 292 199 291 206 284 207 282 206 284 199 291 203 292 208 287 211 283 " style="stroke:gray;fill:none"/><path d="M208 280 " style="stroke:gray;fill:none"/><path d="M121 281 " style="stroke:gray;fill:none"/><path d="M106 280 " style="stroke:gray;fill:none"/><path d="M118 279 119 281 " style="stroke:gray;fill:none"/><path d="M209 278 " style="stroke:gray;fill:none"/><path d="M106 278 " style="stroke:gray;fill:none"/><path d="M261 277 259 278 257 279 259 278 261 277 264 277 " style="stroke:gray;fill:none"/><path d="M123 278 " style="stroke:gray;fill:none"/><path d="M231 276 " style="stroke:gray;fill:none"/><path d="M120 276 121 278 " style="stroke:gray;fill:none"/><path d="M118 277 " style="stroke:gray;fill:none"/><path d="M245 275 244 277 243 279 243 286 243 279 244 277 248 276 253 275 247 275 " style="stroke:gray;fill:none"/><path d="M211 274 213 275 213 278 " style="stroke:gray;fill:none"/><path d="M207 271 203 275 202 278 200 281 198 283 197 285 196 287 197 285 199 283 201 280 202 277 205 273 208 273 208 275 206 279 203 283 195 289 194 291 192 293 190 293 188 295 190 293 192 293 194 291 197 290 203 284 205 281 206 279 207 277 208 273 209 271 208 273 " style="stroke:gray;fill:none"/><path d="M140 271 138 272 136 274 135 276 135 278 136 280 144 280 145 278 145 275 142 272 " style="stroke:gray;fill:none"/><path d="M140 271 145 276 145 278 142 281 138 281 135 278 135 276 " style="stroke:gray;fill:none"/><path d="M119 271 119 273 " style="stroke:gray;fill:none"/><path d="M117 271 " style="stroke:gray;fill:none"/><path d="M109 271 109 273 110 280 111 281 111 284 111 281 110 274 109 273 " style="stroke:gray;fill:none"/><path d="M265 269 265 271 268 270 " style="stroke:gray;fill:none"/><path d="M231 269 " style="stroke:gray;fill:none"/><path d="M235 269 233 273 232 284 233 286 235 287 238 287 240 283 241 280 242 274 242 272 241 270 239 268 " style="stroke:gray;fill:none"/><path d="M238 268 242 272 242 274 241 280 240 283 238 286 236 288 232 284 233 273 234 271 " style="stroke:gray;fill:none"/><path d="M120 268 " style="stroke:gray;fill:none"/><path d="M105 269 107 268 " style="stroke:gray;fill:none"/><path d="M274 266 " style="stroke:gray;fill:none"/><path d="M207 266 " style="stroke:gray;fill:none"/><path d="M239 264 238 266 " style="stroke:gray;fill:none"/><path d="M235 264 236 266 " style="stroke:gray;fill:none"/><path d="M210 264 209 267 208 269 209 267 210 269 212 266 210 268 " style="stroke:gray;fill:none"/><path d="M155 262 159 262 " style="stroke:gray;fill:none"/><path d="M120 262 " style="stroke:gray;fill:none"/><path d="M106 261 " style="stroke:gray;fill:none"/><path d="M98 261 97 264 95 267 95 281 96 285 97 288 99 291 99 293 101 296 105 298 107 297 107 292 106 289 105 288 105 283 103 278 103 268 101 262 " style="stroke:gray;fill:none"/><path d="M97 263 100 262 102 264 103 268 103 278 105 283 105 288 106 291 107 292 107 296 105 298 103 297 101 295 99 292 97 288 96 285 95 281 95 267 " style="stroke:gray;fill:none"/><path d="M242 261 244 269 245 267 244 262 245 267 243 269 244 260 " style="stroke:gray;fill:none"/><path d="M209 260 208 263 " style="stroke:gray;fill:none"/><path d="M103 260 " style="stroke:gray;fill:none"/><path d="M234 259 234 261 " style="stroke:gray;fill:none"/><path d="M231 260 " style="stroke:gray;fill:none"/><path d="M99 259 101 259 " style="stroke:gray;fill:none"/><path d="M232 257 " style="stroke:gray;fill:none"/><path d="M267 254 " style="stroke:gray;fill:none"/><path d="M228 254 " style="stroke:gray;fill:none"/><path d="M231 253 " style="stroke:gray;fill:none"/><path d="M249 252 251 252 " style="stroke:gray;fill:none"/><path d="M285 251 " style="stroke:gray;fill:none"/><path d="M229 252 " style="stroke:gray;fill:none"/><path d="M227 250 " style="stroke:gray;fill:none"/><path d="M112 250 111 252 109 256 109 258 109 261 109 267 110 269 112 271 112 277 113 280 114 281 114 285 113 287 113 290 113 292 114 295 115 298 118 304 122 308 126 308 128 307 128 303 127 301 125 299 124 297 123 294 123 292 122 289 121 287 116 282 115 275 115 269 117 267 117 257 115 251 " style="stroke:gray;fill:none"/><path d="M113 250 116 253 117 257 117 266 113 268 115 270 115 275 116 282 117 284 122 289 123 292 124 295 124 297 128 304 128 306 126 308 123 308 117 302 115 298 114 295 113 292 113 290 112 288 115 285 114 281 113 278 112 277 112 270 109 267 109 261 109 258 109 256 111 254 112 252 " style="stroke:gray;fill:none"/><path d="M228 247 " style="stroke:gray;fill:none"/><path d="M285 247 284 249 285 247 287 246 " style="stroke:gray;fill:none"/><path d="M113 246 112 248 114 246 116 248 115 246 " style="stroke:gray;fill:none"/><path d="M227 245 " style="stroke:gray;fill:none"/><path d="M119 245 119 247 118 249 119 245 121 243 " style="stroke:gray;fill:none"/><path d="M26 243 25 245 25 247 30 247 30 243 " style="stroke:gray;fill:none"/><path d="M27 243 30 244 30 246 26 247 " style="stroke:gray;fill:none"/><path d="M115 243 118 241 " style="stroke:gray;fill:none"/><path d="M390 240 " style="stroke:gray;fill:none"/><path d="M120 240 " style="stroke:gray;fill:none"/><path d="M253 238 253 240 " style="stroke:gray;fill:none"/><path d="M124 239 " style="stroke:gray;fill:none"/><path d="M294 237 " style="stroke:gray;fill:none"/><path d="M225 237 " style="stroke:gray;fill:none"/><path d="M125 237 " style="stroke:gray;fill:none"/><path d="M112 237 113 241 113 243 112 239 " style="stroke:gray;fill:none"/><path d="M388 236 386 237 385 239 385 242 386 244 392 243 392 237 390 236 " style="stroke:gray;fill:none"/><path d="M388 236 390 236 392 238 392 242 390 244 387 244 385 242 385 239 " style="stroke:gray;fill:none"/><path d="M243 236 243 242 244 245 245 248 246 249 247 252 248 259 249 272 251 272 254 272 255 268 255 253 254 249 253 245 250 239 247 236 " style="stroke:gray;fill:none"/><path d="M244 236 246 236 251 241 253 245 254 249 255 253 255 268 254 271 252 273 248 271 248 259 247 252 246 249 245 246 244 245 243 242 " style="stroke:gray;fill:none"/><path d="M237 236 240 236 " style="stroke:gray;fill:none"/><path d="M229 237 228 239 229 242 230 246 232 249 232 251 234 253 236 256 236 262 237 255 238 258 238 262 238 258 238 254 236 256 234 254 236 252 238 250 238 247 238 245 237 242 236 239 233 236 " style="stroke:gray;fill:none"/><path d="M232 236 236 240 237 242 238 245 238 247 239 249 235 253 232 250 230 246 229 242 228 239 " style="stroke:gray;fill:none"/><path d="M127 237 " style="stroke:gray;fill:none"/><path d="M130 235 " style="stroke:gray;fill:none"/><path d="M295 235 " style="stroke:gray;fill:none"/><path d="M158 233 152 234 149 235 147 236 143 240 141 244 140 247 140 251 141 254 143 258 148 263 150 264 162 264 166 262 169 259 171 255 172 252 172 246 171 243 169 239 167 237 164 235 161 234 " style="stroke:gray;fill:none"/><path d="M158 233 161 234 165 236 170 241 171 243 172 246 172 252 171 255 169 258 164 263 162 264 150 264 146 261 144 259 142 256 141 254 140 251 140 247 141 244 142 242 149 235 153 234 " style="stroke:gray;fill:none"/><path d="M296 232 " style="stroke:gray;fill:none"/><path d="M244 232 241 234 244 232 246 233 " style="stroke:gray;fill:none"/><path d="M139 231 " style="stroke:gray;fill:none"/><path d="M135 230 134 232 132 234 134 233 137 232 " style="stroke:gray;fill:none"/><path d="M296 229 293 231 292 233 290 237 288 240 283 245 281 249 281 251 279 255 276 258 275 261 270 265 268 263 267 261 267 259 267 256 266 259 268 263 269 265 272 265 274 263 275 260 278 257 281 251 281 249 282 247 287 242 289 239 291 236 292 233 295 230 297 229 299 231 299 233 297 237 293 241 292 244 290 246 288 251 285 255 283 257 282 260 278 264 278 266 275 271 275 273 272 276 269 276 269 278 271 280 270 276 273 276 275 274 275 271 278 265 281 262 282 259 284 256 287 253 289 248 291 246 292 243 296 239 298 236 299 233 298 229 " style="stroke:gray;fill:none"/><path d="M220 227 220 229 224 233 227 234 224 233 222 230 221 227 223 228 225 231 224 229 222 228 " style="stroke:gray;fill:none"/><path d="M168 226 163 227 162 228 155 228 151 229 148 230 145 231 140 234 138 234 128 239 124 243 123 245 122 248 122 267 123 271 124 274 125 275 125 282 126 286 128 289 128 291 134 302 134 304 141 311 145 312 153 312 156 310 161 310 164 309 169 306 171 306 174 305 177 303 179 301 182 299 186 297 188 297 195 298 199 297 205 294 211 288 213 285 215 281 216 278 216 267 215 265 212 263 211 261 210 255 210 250 209 246 208 242 207 240 205 237 202 233 200 231 197 229 193 227 190 226 " style="stroke:gray;fill:none"/><path d="M168 226 190 226 193 227 195 228 198 230 203 235 206 239 208 242 209 246 210 250 210 255 211 261 212 264 216 267 216 278 215 281 214 283 212 286 203 295 199 297 195 298 190 298 190 296 186 297 180 300 178 302 175 304 171 306 169 306 164 309 161 310 156 310 153 312 145 312 140 310 134 303 132 299 132 297 130 295 128 291 128 289 126 286 125 282 125 275 124 272 123 271 122 267 122 248 123 245 130 238 138 234 140 234 145 231 148 230 151 229 155 228 162 228 " style="stroke:gray;fill:none"/><path d="M342 226 339 227 341 227 344 225 " style="stroke:gray;fill:none"/><path d="M244 220 242 222 243 225 247 224 246 221 " style="stroke:gray;fill:none"/><path d="M244 220 246 221 246 225 242 224 242 222 " style="stroke:gray;fill:none"/><path d="M194 220 196 220 " style="stroke:gray;fill:none"/><path d="M353 219 " style="stroke:gray;fill:none"/><path d="M226 219 227 221 227 224 228 228 230 231 232 233 234 234 228 228 227 224 " style="stroke:gray;fill:none"/><path d="M183 218 177 219 182 220 176 222 169 222 163 223 159 224 154 225 151 226 148 227 145 228 141 230 143 229 145 228 148 228 151 227 152 226 155 225 159 224 163 223 169 222 177 221 181 221 190 222 197 223 201 224 205 225 209 226 212 227 214 228 220 234 223 240 224 243 225 248 224 250 226 253 227 257 228 261 228 282 227 286 226 289 225 292 224 294 218 300 208 305 205 306 201 306 196 309 193 310 189 311 182 312 176 313 155 313 177 312 184 313 182 315 185 313 183 312 189 311 193 310 196 309 201 306 204 305 208 305 220 299 224 295 225 292 226 289 227 286 228 282 228 261 227 257 226 253 224 250 225 248 224 243 223 240 219 232 216 229 212 227 209 226 205 225 201 224 197 223 190 222 181 221 " style="stroke:gray;fill:none"/><path d="M173 218 174 220 " style="stroke:gray;fill:none"/><path d="M296 216 301 222 304 224 306 224 308 225 310 226 307 224 305 224 302 222 " style="stroke:gray;fill:none"/><path d="M276 215 276 220 275 226 274 230 272 231 272 235 271 240 270 245 267 252 269 253 269 255 269 246 270 241 271 236 272 232 274 231 274 227 275 221 276 220 " style="stroke:gray;fill:none"/><path d="M274 212 274 214 272 215 271 217 270 220 270 232 268 233 267 236 267 238 266 241 265 242 265 252 264 258 262 261 261 265 260 269 260 272 264 275 260 272 260 269 261 265 262 261 264 258 265 252 265 242 266 239 267 236 268 234 270 232 270 220 271 217 274 214 273 211 277 210 277 213 277 209 " style="stroke:gray;fill:none"/><path d="M218 209 " style="stroke:gray;fill:none"/><path d="M219 207 " style="stroke:gray;fill:none"/><path d="M227 204 " style="stroke:gray;fill:none"/><path d="M256 203 254 204 253 206 253 231 251 236 252 232 253 206 256 203 258 205 258 232 255 234 254 236 258 233 258 204 " style="stroke:gray;fill:none"/><path d="M229 203 " style="stroke:gray;fill:none"/><path d="M267 202 " style="stroke:gray;fill:none"/><path d="M260 202 " style="stroke:gray;fill:none"/><path d="M165 202 169 202 173 203 176 204 179 205 185 208 187 210 189 211 191 212 190 214 192 212 190 211 188 210 186 208 180 205 177 204 175 204 173 202 170 202 " style="stroke:gray;fill:none"/><path d="M264 201 " style="stroke:gray;fill:none"/><path d="M215 202 218 201 " style="stroke:gray;fill:none"/><path d="M324 200 322 201 321 204 322 206 325 209 329 208 329 204 326 201 " style="stroke:gray;fill:none"/><path d="M324 200 327 202 329 204 328 209 324 208 321 203 " style="stroke:gray;fill:none"/><path d="M173 198 165 199 162 201 157 201 153 202 150 203 147 205 145 205 135 210 131 213 127 216 122 221 119 225 118 228 116 230 115 232 116 238 118 238 120 237 122 235 125 233 128 231 131 229 145 222 148 221 151 220 155 219 159 218 164 217 172 216 192 216 195 218 202 218 206 219 210 220 213 221 214 222 217 223 220 224 222 224 224 223 224 219 218 213 214 210 210 207 208 207 203 204 201 204 198 202 195 201 191 200 187 199 178 198 " style="stroke:gray;fill:none"/><path d="M173 198 178 198 187 199 191 200 195 201 198 202 201 204 203 204 209 207 213 210 217 213 224 220 224 222 222 224 220 224 217 223 214 222 211 221 210 220 206 219 202 218 195 218 192 216 172 216 164 217 159 218 155 219 151 220 148 221 145 222 132 229 130 229 127 231 125 233 122 235 117 238 115 236 115 233 116 231 118 229 119 226 122 222 128 216 132 213 136 210 139 208 145 205 147 205 150 203 153 202 157 201 162 201 165 199 " style="stroke:gray;fill:none"/><path d="M241 198 243 197 246 198 245 203 245 214 242 213 242 207 240 205 239 200 239 198 239 200 240 205 242 207 243 214 246 213 245 203 246 198 " style="stroke:gray;fill:none"/><path d="M291 196 " style="stroke:gray;fill:none"/><path d="M247 196 " style="stroke:gray;fill:none"/><path d="M238 196 " style="stroke:gray;fill:none"/><path d="M297 195 " style="stroke:gray;fill:none"/><path d="M240 195 " style="stroke:gray;fill:none"/><path d="M231 195 229 196 227 198 225 198 223 199 222 201 225 198 227 198 229 196 " style="stroke:gray;fill:none"/><path d="M300 194 " style="stroke:gray;fill:none"/><path d="M172 194 172 196 " style="stroke:gray;fill:none"/><path d="M243 192 " style="stroke:gray;fill:none"/><path d="M230 192 226 196 222 196 220 197 220 201 220 198 222 196 226 196 229 193 233 193 " style="stroke:gray;fill:none"/><path d="M360 192 359 194 359 197 360 199 364 199 366 201 365 204 362 210 359 213 358 216 356 219 354 221 351 223 347 226 344 228 342 229 335 230 316 230 312 229 307 228 304 227 299 225 298 222 294 218 289 212 288 209 290 207 290 205 288 203 286 202 274 202 286 202 290 206 289 211 290 214 294 219 299 225 303 226 306 227 307 228 311 229 315 230 336 230 342 229 346 227 349 225 352 223 354 221 356 219 358 217 359 214 362 211 365 205 365 203 366 198 366 195 365 193 364 191 " style="stroke:gray;fill:none"/><path d="M363 191 365 193 366 195 365 199 361 199 359 197 359 194 " style="stroke:gray;fill:none"/><path d="M241 191 241 193 " style="stroke:gray;fill:none"/><path d="M234 190 " style="stroke:gray;fill:none"/><path d="M249 188 " style="stroke:gray;fill:none"/><path d="M240 188 " style="stroke:gray;fill:none"/><path d="M246 186 " style="stroke:gray;fill:none"/><path d="M324 183 326 183 " style="stroke:gray;fill:none"/><path d="M192 182 " style="stroke:gray;fill:none"/><path d="M194 181 196 181 " style="stroke:gray;fill:none"/><path d="M367 179 367 192 " style="stroke:gray;fill:none"/><path d="M75 179 " style="stroke:gray;fill:none"/><path d="M325 178 322 180 324 181 322 180 " style="stroke:gray;fill:none"/><path d="M327 175 327 177 " style="stroke:gray;fill:none"/><path d="M235 175 238 178 237 176 " style="stroke:gray;fill:none"/><path d="M294 174 295 177 " style="stroke:gray;fill:none"/><path d="M343 173 341 175 342 177 341 179 337 184 331 190 327 193 323 196 320 197 317 200 311 203 309 203 306 205 302 205 296 206 294 207 292 211 293 213 295 214 292 211 293 209 296 206 302 206 307 205 310 203 312 203 318 200 321 197 324 196 328 193 332 190 337 185 341 180 341 179 344 175 342 177 341 175 " style="stroke:gray;fill:none"/><path d="M243 173 246 173 " style="stroke:gray;fill:none"/><path d="M73 174 72 177 73 181 78 180 77 173 " style="stroke:gray;fill:none"/><path d="M76 173 78 175 78 179 76 181 74 181 72 179 72 177 73 175 " style="stroke:gray;fill:none"/><path d="M333 172 329 177 " style="stroke:gray;fill:none"/><path d="M228 172 " style="stroke:gray;fill:none"/><path d="M343 171 " style="stroke:gray;fill:none"/><path d="M336 171 " style="stroke:gray;fill:none"/><path d="M329 172 327 173 325 173 321 172 325 173 327 173 329 172 331 171 " style="stroke:gray;fill:none"/><path d="M319 171 " style="stroke:gray;fill:none"/><path d="M219 170 " style="stroke:gray;fill:none"/><path d="M275 169 283 169 " style="stroke:gray;fill:none"/><path d="M225 169 227 170 " style="stroke:gray;fill:none"/><path d="M348 168 346 171 345 173 347 170 " style="stroke:gray;fill:none"/><path d="M251 169 255 169 269 169 255 169 " style="stroke:gray;fill:none"/><path d="M226 167 228 168 232 168 236 167 228 168 " style="stroke:gray;fill:none"/><path d="M329 168 322 169 317 169 314 169 311 169 300 170 299 171 286 172 278 171 252 172 247 171 246 170 243 170 238 171 231 171 231 175 232 177 242 187 247 191 249 191 251 193 254 194 256 196 260 196 265 199 269 200 276 200 278 198 287 198 293 200 289 201 292 202 293 200 299 199 301 199 298 198 301 196 304 198 308 197 311 195 313 195 317 193 319 191 322 190 325 188 337 176 339 173 340 171 340 166 336 166 334 167 331 169 333 169 336 166 340 167 340 170 339 172 337 175 324 188 320 191 317 192 315 194 313 195 311 195 308 197 304 198 302 196 304 194 306 193 310 193 311 191 315 188 318 183 320 181 321 184 320 181 313 180 308 180 306 178 304 178 301 177 299 176 297 173 298 176 301 177 303 177 307 179 296 179 293 180 290 178 288 178 284 176 283 174 285 172 287 171 299 171 310 170 311 169 314 169 317 169 323 169 329 168 332 166 " style="stroke:gray;fill:none"/><path d="M292 199 298 199 " style="stroke:gray;fill:none"/><path d="M233 170 236 170 240 172 243 170 246 170 250 171 251 172 278 171 281 174 281 172 284 173 284 176 287 177 290 178 293 180 296 179 313 180 318 182 318 184 314 188 310 191 307 192 305 194 302 196 300 197 297 198 291 199 288 199 278 198 276 200 269 200 266 199 263 197 261 197 257 196 255 194 252 193 250 191 248 191 244 188 232 176 231 174 231 172 " style="stroke:gray;fill:none"/><path d="M316 166 318 166 " style="stroke:gray;fill:none"/><path d="M224 166 " style="stroke:gray;fill:none"/><path d="M354 165 353 167 352 169 353 171 359 177 360 180 362 182 364 182 364 180 365 176 363 173 361 170 359 167 357 165 " style="stroke:gray;fill:none"/><path d="M357 166 360 170 362 172 364 175 365 177 365 179 364 181 361 181 359 178 358 175 352 169 353 167 " style="stroke:gray;fill:none"/><path d="M220 165 " style="stroke:gray;fill:none"/><path d="M343 162 343 164 " style="stroke:gray;fill:none"/><path d="M336 163 " style="stroke:gray;fill:none"/><path d="M208 162 " style="stroke:gray;fill:none"/><path d="M203 161 205 161 " style="stroke:gray;fill:none"/><path d="M349 159 349 163 345 167 343 167 346 167 348 165 349 162 " style="stroke:gray;fill:none"/><path d="M354 158 354 162 351 163 350 165 353 162 355 161 357 161 358 163 360 163 362 165 362 167 363 169 364 171 363 169 363 167 361 163 359 163 358 161 356 161 " style="stroke:gray;fill:none"/><path d="M196 158 " style="stroke:gray;fill:none"/><path d="M186 154 189 158 " style="stroke:gray;fill:none"/><path d="M272 151 280 151 " style="stroke:gray;fill:none"/><path d="M241 151 263 152 270 152 263 152 " style="stroke:gray;fill:none"/><path d="M233 151 " style="stroke:gray;fill:none"/><path d="M288 150 296 150 " style="stroke:gray;fill:none"/><path d="M226 150 229 150 " style="stroke:gray;fill:none"/><path d="M221 150 223 150 " style="stroke:gray;fill:none"/><path d="M170 150 " style="stroke:gray;fill:none"/><path d="M305 149 309 149 " style="stroke:gray;fill:none"/><path d="M328 148 " style="stroke:gray;fill:none"/><path d="M324 148 " style="stroke:gray;fill:none"/><path d="M216 148 219 147 " style="stroke:gray;fill:none"/><path d="M162 147 " style="stroke:gray;fill:none"/><path d="M209 146 " style="stroke:gray;fill:none"/><path d="M340 145 342 145 " style="stroke:gray;fill:none"/><path d="M351 143 353 143 " style="stroke:gray;fill:none"/><path d="M2 143 1 145 1 147 2 149 7 148 7 143 5 142 " style="stroke:gray;fill:none"/><path d="M5 142 7 144 6 149 3 149 1 147 1 145 " style="stroke:gray;fill:none"/><path d="M354 140 " style="stroke:gray;fill:none"/><path d="M214 140 216 141 " style="stroke:gray;fill:none"/><path d="M187 138 " style="stroke:gray;fill:none"/><path d="M355 136 " style="stroke:gray;fill:none"/><path d="M216 136 " style="stroke:gray;fill:none"/><path d="M354 133 " style="stroke:gray;fill:none"/><path d="M216 132 " style="stroke:gray;fill:none"/><path d="M191 132 189 132 187 133 189 132 192 131 194 130 " style="stroke:gray;fill:none"/><path d="M360 128 358 130 358 133 360 135 363 137 364 140 361 143 358 144 355 145 351 146 347 147 342 148 336 149 330 150 321 151 310 152 299 153 281 154 233 154 223 153 216 152 211 151 208 150 206 145 208 143 211 140 211 138 210 136 206 135 203 137 201 137 197 139 194 141 192 143 191 146 191 148 192 151 195 154 203 158 206 159 210 160 213 161 217 162 223 163 229 164 239 165 255 166 293 166 303 165 314 164 322 163 328 162 333 161 337 160 342 159 346 158 350 157 353 156 356 154 358 154 361 153 364 151 366 151 372 148 378 142 378 138 377 136 372 131 369 130 366 129 362 128 " style="stroke:gray;fill:none"/><path d="M362 128 366 129 369 130 371 131 378 138 378 141 371 148 368 149 366 151 364 151 361 153 358 154 356 154 353 156 350 157 346 158 342 159 337 160 333 161 328 162 322 163 314 164 303 165 293 166 255 166 239 165 229 164 223 163 217 162 213 161 210 160 206 159 203 158 199 156 196 154 192 150 191 148 191 146 192 144 195 141 198 139 206 135 208 135 211 139 206 143 205 145 205 147 206 149 211 151 216 152 223 153 233 154 281 154 299 153 310 152 321 151 330 150 336 149 342 148 347 147 351 146 355 145 358 144 362 143 364 141 364 138 363 136 359 129 " style="stroke:gray;fill:none"/><path d="M199 128 " style="stroke:gray;fill:none"/><path d="M179 129 175 132 171 136 167 141 165 145 164 147 165 145 167 141 179 129 183 128 " style="stroke:gray;fill:none"/><path d="M422 128 " style="stroke:gray;fill:none"/><path d="M353 127 355 128 " style="stroke:gray;fill:none"/><path d="M346 126 346 136 348 135 346 134 " style="stroke:gray;fill:none"/><path d="M216 126 215 128 212 130 211 132 214 132 215 130 215 128 " style="stroke:gray;fill:none"/><path d="M214 126 " style="stroke:gray;fill:none"/><path d="M188 125 185 127 " style="stroke:gray;fill:none"/><path d="M214 124 " style="stroke:gray;fill:none"/><path d="M198 125 193 126 190 125 189 128 187 129 185 129 183 130 181 132 179 133 175 136 172 139 168 144 168 146 164 153 163 157 163 161 163 164 162 170 162 173 163 177 164 181 167 187 171 191 174 192 182 192 185 193 186 194 192 194 195 195 198 196 203 199 205 199 207 201 209 201 211 203 213 204 216 205 219 204 222 204 225 203 229 200 232 198 237 193 237 190 236 185 232 183 228 178 227 175 223 171 218 167 214 166 210 166 206 165 203 164 200 163 198 161 193 159 188 154 185 150 185 141 186 152 188 154 191 157 197 161 199 163 202 164 205 165 208 165 213 166 217 171 215 173 214 175 214 177 210 181 206 183 196 183 192 184 191 185 188 186 183 186 180 185 177 183 172 179 169 176 166 172 163 168 163 164 163 161 163 157 164 153 165 151 167 149 168 147 168 145 172 140 177 137 180 133 182 132 185 133 183 134 181 135 179 137 181 135 185 134 183 131 185 130 188 129 191 126 194 125 198 125 201 125 " style="stroke:gray;fill:none"/><path d="M215 168 218 167 220 168 223 171 227 176 228 179 232 183 236 188 237 190 237 192 231 198 227 201 224 203 221 205 219 204 216 205 203 198 201 198 198 196 195 195 192 194 186 194 183 193 182 192 174 192 172 191 167 186 164 180 163 176 162 173 163 169 166 172 170 178 175 182 178 184 180 185 183 186 188 186 191 185 195 184 196 183 206 183 209 181 211 181 213 179 214 177 214 175 216 173 217 170 " style="stroke:gray;fill:none"/><path d="M421 123 419 124 419 128 422 131 424 131 426 130 426 127 425 124 423 123 " style="stroke:gray;fill:none"/><path d="M421 123 423 123 425 125 426 127 426 129 424 131 422 131 418 126 " style="stroke:gray;fill:none"/><path d="M204 121 " style="stroke:gray;fill:none"/><path d="M197 122 194 122 197 122 202 122 202 123 205 123 211 124 211 127 206 129 205 126 205 130 202 130 192 135 190 137 187 142 190 139 193 135 203 130 210 129 211 127 211 123 205 123 202 123 202 121 " style="stroke:gray;fill:none"/><path d="M209 120 " style="stroke:gray;fill:none"/><path d="M345 119 345 121 " style="stroke:gray;fill:none"/><path d="M216 119 216 123 " style="stroke:gray;fill:none"/><path d="M245 116 " style="stroke:gray;fill:none"/><path d="M219 114 " style="stroke:gray;fill:none"/><path d="M150 109 150 111 " style="stroke:gray;fill:none"/><path d="M223 105 " style="stroke:gray;fill:none"/><path d="M190 102 " style="stroke:gray;fill:none"/><path d="M186 99 " style="stroke:gray;fill:none"/><path d="M153 99 153 101 152 104 151 105 151 107 151 105 152 102 153 101 " style="stroke:gray;fill:none"/><path d="M230 96 232 95 " style="stroke:gray;fill:none"/><path d="M228 95 " style="stroke:gray;fill:none"/><path d="M181 95 " style="stroke:gray;fill:none"/><path d="M251 89 " style="stroke:gray;fill:none"/><path d="M369 88 " style="stroke:gray;fill:none"/><path d="M194 88 195 91 " style="stroke:gray;fill:none"/><path d="M192 87 " style="stroke:gray;fill:none"/><path d="M160 86 157 88 154 92 152 95 150 99 149 102 148 105 147 109 147 116 147 119 147 124 148 128 149 132 152 138 154 141 158 145 160 145 162 143 165 140 169 135 169 134 174 129 177 127 180 125 183 123 185 122 188 121 191 120 194 120 197 119 199 117 200 114 195 109 191 106 190 106 185 101 183 100 184 98 183 100 181 99 177 95 172 91 169 90 166 87 164 86 " style="stroke:gray;fill:none"/><path d="M160 87 163 86 165 87 168 90 171 91 175 94 180 98 184 101 189 106 193 109 194 109 200 115 196 119 194 120 190 121 187 121 179 125 176 127 173 129 169 133 165 138 165 139 161 143 159 144 156 143 153 139 149 131 148 128 147 124 147 119 147 116 147 109 148 105 149 102 150 100 151 97 154 96 154 93 157 90 158 88 160 87 161 89 158 93 156 95 161 90 " style="stroke:gray;fill:none"/><path d="M196 85 " style="stroke:gray;fill:none"/><path d="M188 85 " style="stroke:gray;fill:none"/><path d="M369 84 366 86 365 88 366 90 369 91 371 90 372 86 371 84 " style="stroke:gray;fill:none"/><path d="M370 84 372 86 371 90 368 91 365 88 " style="stroke:gray;fill:none"/><path d="M239 84 " style="stroke:gray;fill:none"/><path d="M200 84 197 88 201 86 " style="stroke:gray;fill:none"/><path d="M241 83 " style="stroke:gray;fill:none"/><path d="M150 83 " style="stroke:gray;fill:none"/><path d="M244 82 " style="stroke:gray;fill:none"/><path d="M199 82 " style="stroke:gray;fill:none"/><path d="M153 83 148 84 152 85 155 82 " style="stroke:gray;fill:none"/><path d="M182 81 " style="stroke:gray;fill:none"/><path d="M149 81 " style="stroke:gray;fill:none"/><path d="M248 80 246 83 243 84 239 87 235 92 240 87 244 84 246 84 250 80 " style="stroke:gray;fill:none"/><path d="M185 77 " style="stroke:gray;fill:none"/><path d="M196 75 " style="stroke:gray;fill:none"/><path d="M188 75 " style="stroke:gray;fill:none"/><path d="M197 73 " style="stroke:gray;fill:none"/><path d="M187 72 182 74 181 79 179 80 178 78 180 76 178 77 177 79 179 80 182 78 184 79 186 81 189 83 194 84 195 82 195 77 191 73 189 72 " style="stroke:gray;fill:none"/><path d="M187 72 189 72 195 78 195 82 193 84 191 84 189 82 185 79 184 79 182 77 182 75 184 73 " style="stroke:gray;fill:none"/><path d="M144 72 " style="stroke:gray;fill:none"/><path d="M304 70 306 70 308 71 306 70 " style="stroke:gray;fill:none"/><path d="M278 70 271 71 267 72 264 73 259 75 256 78 254 78 251 82 250 85 248 88 248 92 246 95 246 97 244 100 243 104 242 113 242 124 243 129 244 133 245 136 246 139 248 143 248 146 250 149 231 148 223 147 219 143 218 138 219 125 220 121 221 117 222 114 224 111 224 109 226 107 226 105 227 103 241 89 236 94 232 97 227 102 226 104 226 106 224 108 223 111 223 113 221 116 220 121 219 125 218 138 215 138 219 139 219 144 222 147 231 148 250 149 286 148 298 147 299 146 312 146 324 145 325 144 328 145 332 143 337 143 340 141 343 140 344 138 347 140 345 141 343 142 345 141 347 141 350 138 351 136 350 124 349 120 348 117 347 114 346 110 344 106 342 104 340 99 335 93 327 85 323 82 320 80 317 78 315 78 310 75 308 75 305 73 301 73 298 72 297 71 292 70 " style="stroke:gray;fill:none"/><path d="M278 70 292 70 297 71 300 73 304 73 307 74 314 78 316 78 319 80 322 82 326 85 335 94 340 100 342 105 344 107 346 111 347 114 348 117 349 120 350 124 351 136 347 140 343 136 343 122 341 119 343 118 343 114 343 112 342 110 338 106 336 105 339 103 337 104 332 105 330 105 326 104 323 102 321 102 318 101 317 100 314 99 311 99 308 98 305 97 302 96 299 94 296 94 293 93 290 92 287 91 284 90 281 89 278 88 275 86 272 85 269 84 267 84 264 83 259 80 257 80 259 80 264 83 267 84 269 84 272 85 275 86 278 88 281 89 284 90 287 91 290 92 293 93 296 94 299 94 302 96 305 97 308 98 311 99 314 99 317 100 320 101 321 102 323 102 326 104 330 105 333 106 336 105 339 107 341 109 343 112 343 114 344 116 339 118 337 117 335 117 332 116 329 114 326 113 323 112 320 111 317 110 314 110 311 109 308 108 305 107 302 106 299 105 296 104 293 103 290 102 287 101 284 100 281 99 278 97 275 96 272 96 269 95 266 93 264 93 261 92 258 91 256 90 252 86 254 89 258 91 260 91 263 92 264 93 266 93 269 95 272 96 275 96 278 97 281 99 284 100 287 101 290 102 293 103 296 104 299 105 302 106 304 106 307 107 310 108 313 109 317 110 320 111 323 112 326 113 329 114 332 116 334 116 337 117 340 119 342 121 343 123 343 136 344 138 341 141 337 143 332 143 328 145 325 144 313 145 312 146 299 146 287 147 286 148 253 148 248 143 246 139 245 136 244 133 243 129 242 124 244 112 247 115 254 118 256 120 262 123 264 123 279 131 282 132 284 132 287 134 290 135 292 135 297 138 299 138 302 139 308 142 310 143 308 142 302 139 300 139 297 138 292 135 290 135 287 134 284 132 282 132 279 131 264 123 262 123 258 121 256 119 249 116 244 112 244 105 246 105 250 105 252 107 276 119 278 119 283 122 285 122 288 124 290 124 295 127 297 127 300 128 303 129 310 133 312 133 315 135 317 135 322 138 324 138 327 142 326 139 324 138 322 138 317 135 315 135 312 133 310 133 303 129 301 129 298 128 295 127 290 124 288 124 285 122 283 122 278 119 276 119 254 108 252 106 249 105 246 105 243 104 244 100 246 97 246 95 248 92 248 88 249 86 251 83 253 82 254 79 257 78 260 75 262 74 264 74 267 72 271 71 " style="stroke:gray;fill:none"/><path d="M151 70 149 71 147 73 146 75 147 77 148 79 152 79 154 78 156 76 158 76 162 78 164 80 167 81 170 83 174 86 178 89 182 92 186 95 192 100 197 105 204 111 210 116 214 115 214 111 203 100 197 95 193 92 189 89 185 86 182 84 179 82 177 82 175 80 170 78 168 76 166 75 164 75 161 73 159 73 156 71 153 70 " style="stroke:gray;fill:none"/><path d="M151 70 153 70 158 73 160 73 163 75 165 75 167 76 169 78 178 82 181 84 184 86 188 89 192 92 196 95 202 100 214 112 214 114 211 116 206 111 199 105 193 100 188 96 183 92 179 89 175 86 172 84 168 81 165 80 163 78 159 76 155 76 152 79 149 79 147 77 146 75 " style="stroke:gray;fill:none"/><path d="M145 70 " style="stroke:gray;fill:none"/><path d="M302 69 " style="stroke:gray;fill:none"/><path d="M159 69 " style="stroke:gray;fill:none"/><path d="M296 68 298 68 " style="stroke:gray;fill:none"/><path d="M290 67 293 67 " style="stroke:gray;fill:none"/><path d="M280 67 284 67 " style="stroke:gray;fill:none"/><path d="M65 62 63 63 " style="stroke:gray;fill:none"/><path d="M63 58 61 59 60 64 62 66 64 66 67 65 67 60 65 59 " style="stroke:gray;fill:none"/><path d="M63 58 65 59 67 61 66 65 64 66 62 66 60 64 60 61 " style="stroke:gray;fill:none"/><path d="M257 33 263 37 271 45 273 48 276 55 277 57 279 57 276 55 276 53 275 51 273 49 271 44 265 38 260 34 " style="stroke:gray;fill:none"/><path d="M257 31 " style="stroke:gray;fill:none"/><path d="M235 25 231 26 227 27 224 29 222 29 220 31 217 32 214 34 208 40 206 43 204 46 203 48 202 51 201 54 200 57 199 60 199 74 200 77 201 80 202 83 203 86 204 88 206 91 216 101 221 101 223 99 225 96 225 95 229 90 236 83 240 80 244 77 247 75 251 72 253 72 255 70 258 70 260 68 264 67 268 66 271 66 276 65 279 64 283 60 281 59 280 55 280 52 278 49 278 47 276 44 273 40 267 34 263 31 255 27 252 26 248 25 " style="stroke:gray;fill:none"/><path d="M235 25 247 25 251 26 254 27 257 28 259 30 262 31 266 34 273 41 277 46 280 52 281 56 282 60 278 64 276 65 271 66 267 67 264 67 260 68 257 70 255 70 249 73 246 75 243 77 239 80 235 83 229 89 226 93 226 94 224 97 220 101 217 101 206 90 204 87 202 83 201 80 200 77 199 74 199 61 200 57 201 54 202 51 204 47 206 44 208 41 215 34 218 32 221 31 223 29 225 29 228 27 231 26 " style="stroke:gray;fill:none"/><path d="M338 24 338 29 344 28 343 24 " style="stroke:gray;fill:none"/><path d="M339 24 344 25 343 29 338 28 " style="stroke:gray;fill:none"/></svg>