<svg width="429px" height="547px" xmlns="http://www.w3.org/2000/svg"><path d="M177 521 177 523 174 526 172 527 168 527 173 527 175 526 177 524 " style="stroke:gray;fill:none"/><path d="M155 521 158 523 " style="stroke:gray;fill:none"/><path d="M98 509 " style="stroke:gray;fill:none"/><path d="M180 506 180 514 178 519 179 515 " style="stroke:gray;fill:none"/><path d="M109 506 107 507 105 507 107 507 109 506 111 505 " style="stroke:gray;fill:none"/><path d="M141 504 " style="stroke:gray;fill:none"/><path d="M124 497 121 500 116 502 114 503 116 503 118 501 123 499 " style="stroke:gray;fill:none"/><path d="M171 493 " style="stroke:gray;fill:none"/><path d="M140 492 140 497 144 505 145 509 145 511 149 516 152 518 150 517 146 513 146 511 146 508 149 509 150 512 157 519 161 522 165 524 171 524 175 520 176 517 177 514 177 504 175 500 171 500 166 505 158 505 155 504 151 504 149 507 146 507 144 504 140 496 140 493 142 491 146 492 146 494 148 496 150 496 151 498 154 498 163 499 167 498 169 496 171 496 174 497 172 496 168 496 166 498 162 499 156 499 152 498 151 496 149 496 146 493 146 491 " style="stroke:gray;fill:none"/><path d="M172 500 174 500 176 502 177 504 177 514 176 517 175 519 170 524 165 524 162 522 158 519 150 511 149 509 149 506 151 504 155 504 158 505 166 505 168 504 " style="stroke:gray;fill:none"/><path d="M175 490 175 492 178 495 179 499 179 504 179 499 178 495 175 492 " style="stroke:gray;fill:none"/><path d="M148 490 " style="stroke:gray;fill:none"/><path d="M146 489 " style="stroke:gray;fill:none"/><path d="M141 489 144 488 " style="stroke:gray;fill:none"/><path d="M152 486 156 490 159 491 155 489 " style="stroke:gray;fill:none"/><path d="M137 486 136 488 136 493 137 496 138 498 137 496 136 493 136 488 138 486 140 486 " style="stroke:gray;fill:none"/><path d="M121 476 121 478 " style="stroke:gray;fill:none"/><path d="M118 476 118 478 " style="stroke:gray;fill:none"/><path d="M162 479 159 485 159 487 161 490 159 487 159 485 161 481 164 477 167 475 " style="stroke:gray;fill:none"/><path d="M125 476 " style="stroke:gray;fill:none"/><path d="M91 476 89 479 88 482 86 484 84 488 83 491 83 493 84 502 86 505 86 508 88 510 90 511 94 510 96 510 94 510 90 511 88 510 86 508 86 505 84 502 83 493 83 491 84 488 85 486 87 484 88 481 90 478 93 475 " style="stroke:gray;fill:none"/><path d="M280 474 278 475 277 477 278 479 279 481 281 483 289 483 289 476 287 474 285 474 " style="stroke:gray;fill:none"/><path d="M283 475 286 479 283 481 282 477 " style="stroke:gray;fill:none"/><path d="M284 475 288 475 288 483 283 482 286 480 286 477 " style="stroke:gray;fill:none"/><path d="M280 474 282 476 281 479 283 482 280 482 278 479 277 477 " style="stroke:gray;fill:none"/><path d="M189 474 188 476 184 476 182 477 181 483 181 479 183 477 185 476 " style="stroke:gray;fill:none"/><path d="M99 473 97 474 94 477 90 485 89 488 88 491 88 502 89 504 92 507 98 507 101 506 104 505 107 503 109 503 111 501 113 501 115 499 120 497 123 494 125 492 127 490 126 488 124 486 121 486 116 489 113 490 106 490 103 489 101 488 97 484 95 482 93 480 94 478 98 474 102 474 104 474 106 476 109 478 111 479 116 480 124 479 128 481 129 483 128 488 129 482 128 480 126 480 123 480 115 479 116 476 115 479 112 479 110 478 108 476 105 474 102 473 " style="stroke:gray;fill:none"/><path d="M94 481 98 485 103 489 106 490 113 490 116 489 121 486 124 486 126 488 126 490 125 492 123 494 119 497 114 499 112 501 108 503 106 503 104 505 101 506 98 507 93 507 88 502 88 491 89 488 90 485 92 482 " style="stroke:gray;fill:none"/><path d="M156 472 " style="stroke:gray;fill:none"/><path d="M152 474 151 476 153 474 154 472 " style="stroke:gray;fill:none"/><path d="M27 471 25 476 27 476 32 476 32 473 30 472 " style="stroke:gray;fill:none"/><path d="M29 472 31 473 32 475 30 477 28 477 25 475 27 474 " style="stroke:gray;fill:none"/><path d="M103 471 " style="stroke:gray;fill:none"/><path d="M165 469 " style="stroke:gray;fill:none"/><path d="M155 470 " style="stroke:gray;fill:none"/><path d="M26 467 24 469 24 473 24 469 26 467 33 468 35 471 35 477 33 479 31 480 29 480 26 479 28 479 31 480 33 479 35 478 35 471 33 468 " style="stroke:gray;fill:none"/><path d="M149 466 147 468 144 474 143 477 143 483 142 485 143 477 144 474 147 468 " style="stroke:gray;fill:none"/><path d="M132 466 132 469 130 472 129 475 130 477 132 479 133 483 133 487 132 489 130 492 131 490 133 487 133 483 132 478 129 475 130 472 132 469 " style="stroke:gray;fill:none"/><path d="M179 463 178 468 " style="stroke:gray;fill:none"/><path d="M100 462 100 464 99 469 96 472 98 471 100 464 " style="stroke:gray;fill:none"/><path d="M133 461 133 463 " style="stroke:gray;fill:none"/><path d="M190 461 " style="stroke:gray;fill:none"/><path d="M177 460 175 461 173 463 173 468 176 471 178 472 182 473 186 473 189 470 189 466 188 464 185 461 183 460 " style="stroke:gray;fill:none"/><path d="M178 460 183 460 189 466 189 469 185 473 182 473 179 472 177 471 173 467 173 464 176 461 " style="stroke:gray;fill:none"/><path d="M194 459 " style="stroke:gray;fill:none"/><path d="M165 459 164 461 164 466 164 461 " style="stroke:gray;fill:none"/><path d="M133 459 " style="stroke:gray;fill:none"/><path d="M184 458 " style="stroke:gray;fill:none"/><path d="M174 458 " style="stroke:gray;fill:none"/><path d="M196 457 196 463 193 466 192 469 193 466 196 463 " style="stroke:gray;fill:none"/><path d="M120 457 121 469 119 471 121 469 " style="stroke:gray;fill:none"/><path d="M124 456 127 458 127 462 126 466 125 467 125 469 125 467 126 463 127 462 127 457 " style="stroke:gray;fill:none"/><path d="M154 451 153 453 " style="stroke:gray;fill:none"/><path d="M118 451 " style="stroke:gray;fill:none"/><path d="M127 449 " style="stroke:gray;fill:none"/><path d="M111 447 " style="stroke:gray;fill:none"/><path d="M102 447 102 460 103 463 104 466 110 472 112 473 115 474 122 474 125 473 128 470 129 468 130 465 131 459 131 457 129 453 125 453 118 454 115 452 113 452 107 446 " style="stroke:gray;fill:none"/><path d="M104 446 106 446 111 451 115 453 118 454 125 453 128 453 130 455 131 457 131 459 130 465 129 468 124 473 122 474 115 474 111 472 104 465 103 463 102 460 102 448 " style="stroke:gray;fill:none"/><path d="M155 445 154 449 " style="stroke:gray;fill:none"/><path d="M129 445 129 449 " style="stroke:gray;fill:none"/><path d="M132 444 132 449 132 451 132 449 " style="stroke:gray;fill:none"/><path d="M137 443 134 444 " style="stroke:gray;fill:none"/><path d="M123 440 122 444 " style="stroke:gray;fill:none"/><path d="M353 437 352 439 353 441 354 443 356 443 357 441 356 437 " style="stroke:gray;fill:none"/><path d="M355 443 " style="stroke:gray;fill:none"/><path d="M355 437 356 441 354 441 352 439 " style="stroke:gray;fill:none"/><path d="M144 436 142 438 140 441 139 443 139 447 137 451 135 454 134 456 136 453 137 450 139 448 139 443 140 441 143 438 " style="stroke:gray;fill:none"/><path d="M104 436 103 438 105 439 105 441 103 443 105 442 106 437 " style="stroke:gray;fill:none"/><path d="M104 438 " style="stroke:gray;fill:none"/><path d="M133 435 136 435 " style="stroke:gray;fill:none"/><path d="M351 434 348 435 348 442 350 444 353 446 358 446 359 444 359 441 359 444 357 446 353 446 349 443 349 435 351 434 357 434 359 436 359 438 359 436 357 434 " style="stroke:gray;fill:none"/><path d="M108 434 " style="stroke:gray;fill:none"/><path d="M106 434 " style="stroke:gray;fill:none"/><path d="M117 433 113 434 110 437 110 442 115 447 118 448 123 448 127 444 127 442 126 439 120 434 " style="stroke:gray;fill:none"/><path d="M117 433 120 434 123 436 126 439 126 441 126 445 123 448 118 448 116 447 110 441 110 438 114 434 " style="stroke:gray;fill:none"/><path d="M139 432 " style="stroke:gray;fill:none"/><path d="M207 431 211 431 " style="stroke:gray;fill:none"/><path d="M113 431 " style="stroke:gray;fill:none"/><path d="M205 430 " style="stroke:gray;fill:none"/><path d="M148 430 " style="stroke:gray;fill:none"/><path d="M119 430 119 432 " style="stroke:gray;fill:none"/><path d="M215 429 214 431 212 434 204 435 202 438 204 435 212 434 214 431 " style="stroke:gray;fill:none"/><path d="M178 429 174 431 171 434 169 438 168 442 168 451 169 453 171 454 168 451 168 442 169 438 170 436 176 430 178 429 188 429 191 430 193 431 197 434 195 432 191 430 188 429 " style="stroke:gray;fill:none"/><path d="M150 429 153 429 153 435 154 441 155 443 154 441 154 436 152 428 " style="stroke:gray;fill:none"/><path d="M198 427 198 431 " style="stroke:gray;fill:none"/><path d="M161 428 " style="stroke:gray;fill:none"/><path d="M159 428 " style="stroke:gray;fill:none"/><path d="M101 427 100 429 100 431 101 435 100 442 99 449 98 450 98 453 99 460 98 453 98 450 99 443 100 436 101 435 100 431 100 429 " style="stroke:gray;fill:none"/><path d="M142 425 142 428 " style="stroke:gray;fill:none"/><path d="M199 424 " style="stroke:gray;fill:none"/><path d="M148 426 150 424 " style="stroke:gray;fill:none"/><path d="M147 423 " style="stroke:gray;fill:none"/><path d="M154 420 " style="stroke:gray;fill:none"/><path d="M201 414 201 416 " style="stroke:gray;fill:none"/><path d="M219 413 219 420 218 423 217 425 216 427 217 424 218 421 219 420 " style="stroke:gray;fill:none"/><path d="M137 414 137 417 138 419 141 423 140 420 138 419 137 417 140 414 139 416 141 414 144 413 148 417 151 418 146 414 144 413 140 414 " style="stroke:gray;fill:none"/><path d="M220 409 " style="stroke:gray;fill:none"/><path d="M208 407 " style="stroke:gray;fill:none"/><path d="M115 406 117 406 120 407 124 409 130 415 131 417 131 428 129 430 131 429 131 417 129 413 126 410 120 407 117 406 " style="stroke:gray;fill:none"/><path d="M210 404 " style="stroke:gray;fill:none"/><path d="M211 402 " style="stroke:gray;fill:none"/><path d="M118 400 117 402 " style="stroke:gray;fill:none"/><path d="M104 400 105 403 105 401 108 401 " style="stroke:gray;fill:none"/><path d="M219 388 217 389 216 391 216 393 215 396 214 397 214 400 213 404 212 408 211 409 210 412 209 416 208 420 207 424 208 428 211 429 213 427 214 425 215 422 216 417 217 412 218 408 219 403 220 398 221 394 221 389 " style="stroke:gray;fill:none"/><path d="M219 388 221 390 221 394 220 398 219 403 218 408 217 412 216 417 215 422 214 425 210 429 208 428 207 424 208 420 209 416 210 412 211 409 212 405 213 401 214 397 215 394 216 391 " style="stroke:gray;fill:none"/><path d="M285 385 288 387 288 390 285 393 281 393 279 392 287 392 290 389 288 388 290 387 287 385 " style="stroke:gray;fill:none"/><path d="M280 386 278 387 276 388 277 390 284 389 284 387 282 385 " style="stroke:gray;fill:none"/><path d="M280 386 282 386 284 388 282 390 278 390 276 388 279 388 " style="stroke:gray;fill:none"/><path d="M219 384 " style="stroke:gray;fill:none"/><path d="M120 383 120 388 " style="stroke:gray;fill:none"/><path d="M107 383 106 385 105 390 105 394 104 396 105 398 108 399 111 396 112 392 112 385 110 383 " style="stroke:gray;fill:none"/><path d="M108 383 110 383 112 385 112 392 111 395 107 399 105 394 105 390 106 385 " style="stroke:gray;fill:none"/><path d="M113 383 115 382 " style="stroke:gray;fill:none"/><path d="M182 382 " style="stroke:gray;fill:none"/><path d="M220 380 221 382 222 384 223 387 222 385 222 383 " style="stroke:gray;fill:none"/><path d="M107 381 111 381 110 379 " style="stroke:gray;fill:none"/><path d="M108 380 111 380 " style="stroke:gray;fill:none"/><path d="M224 377 224 380 226 381 226 387 225 391 224 392 224 397 222 400 222 402 222 400 224 397 224 392 225 388 226 387 226 381 224 379 " style="stroke:gray;fill:none"/><path d="M136 378 134 380 132 384 131 387 132 390 135 396 142 403 145 405 148 407 154 410 157 411 160 412 164 413 171 414 179 414 187 413 191 412 194 411 197 410 201 408 203 407 201 408 197 410 194 411 191 412 187 413 179 414 171 414 164 413 160 412 157 411 154 410 150 408 147 406 144 404 134 394 132 390 131 387 132 384 133 382 139 377 " style="stroke:gray;fill:none"/><path d="M33 377 30 378 27 378 29 379 " style="stroke:gray;fill:none"/><path d="M188 376 " style="stroke:gray;fill:none"/><path d="M118 376 " style="stroke:gray;fill:none"/><path d="M107 376 113 376 " style="stroke:gray;fill:none"/><path d="M196 377 198 375 " style="stroke:gray;fill:none"/><path d="M148 376 " style="stroke:gray;fill:none"/><path d="M227 374 " style="stroke:gray;fill:none"/><path d="M146 375 " style="stroke:gray;fill:none"/><path d="M99 373 102 380 102 383 103 387 102 391 100 394 100 402 101 404 104 405 106 407 105 411 105 408 105 405 103 405 100 402 100 394 102 391 103 387 103 383 103 380 102 376 " style="stroke:gray;fill:none"/><path d="M131 372 128 375 133 371 136 373 134 371 " style="stroke:gray;fill:none"/><path d="M27 367 25 369 25 373 27 375 31 375 33 373 33 370 32 368 " style="stroke:gray;fill:none"/><path d="M28 367 30 367 32 369 33 372 30 375 28 375 25 372 25 370 " style="stroke:gray;fill:none"/><path d="M118 366 115 370 112 371 115 370 117 369 " style="stroke:gray;fill:none"/><path d="M134 364 " style="stroke:gray;fill:none"/><path d="M131 364 " style="stroke:gray;fill:none"/><path d="M125 363 125 366 127 367 125 366 " style="stroke:gray;fill:none"/><path d="M134 362 " style="stroke:gray;fill:none"/><path d="M26 362 24 363 22 365 21 367 20 370 20 372 23 375 21 373 21 369 21 367 22 365 24 363 26 362 28 362 33 363 35 365 36 368 35 375 36 367 35 364 33 363 28 362 " style="stroke:gray;fill:none"/><path d="M157 364 160 364 159 360 " style="stroke:gray;fill:none"/><path d="M160 361 159 364 156 362 " style="stroke:gray;fill:none"/><path d="M150 360 149 366 150 368 152 369 156 369 152 369 149 366 " style="stroke:gray;fill:none"/><path d="M186 359 186 362 189 362 189 359 " style="stroke:gray;fill:none"/><path d="M186 361 " style="stroke:gray;fill:none"/><path d="M202 358 " style="stroke:gray;fill:none"/><path d="M148 358 146 359 144 363 145 361 148 358 150 358 " style="stroke:gray;fill:none"/><path d="M141 358 " style="stroke:gray;fill:none"/><path d="M242 357 " style="stroke:gray;fill:none"/><path d="M201 355 " style="stroke:gray;fill:none"/><path d="M162 354 155 355 " style="stroke:gray;fill:none"/><path d="M146 353 " style="stroke:gray;fill:none"/><path d="M191 352 177 353 173 355 171 359 170 363 169 370 168 364 169 370 166 371 159 370 157 371 156 373 154 375 148 371 144 367 143 365 144 367 145 369 148 373 151 374 154 376 157 375 159 377 162 378 164 378 169 380 169 383 170 380 178 380 183 379 186 376 185 373 184 371 188 370 188 373 190 375 193 375 195 374 197 370 198 366 199 360 199 355 196 352 " style="stroke:gray;fill:none"/><path d="M191 352 195 352 199 356 199 360 198 366 197 370 196 372 194 374 192 375 190 375 188 373 188 369 185 369 185 373 185 376 182 379 178 380 169 380 165 379 162 378 160 377 156 373 159 370 166 371 170 370 170 364 171 359 172 357 175 354 177 353 " style="stroke:gray;fill:none"/><path d="M139 352 " style="stroke:gray;fill:none"/><path d="M247 350 246 352 244 355 245 353 " style="stroke:gray;fill:none"/><path d="M202 349 203 352 " style="stroke:gray;fill:none"/><path d="M197 350 " style="stroke:gray;fill:none"/><path d="M192 350 " style="stroke:gray;fill:none"/><path d="M200 348 " style="stroke:gray;fill:none"/><path d="M196 348 " style="stroke:gray;fill:none"/><path d="M152 348 148 352 148 355 144 358 142 360 142 363 140 365 138 366 141 365 142 363 142 361 143 359 147 356 149 354 149 352 154 347 " style="stroke:gray;fill:none"/><path d="M146 346 146 351 " style="stroke:gray;fill:none"/><path d="M185 344 177 345 185 344 187 345 " style="stroke:gray;fill:none"/><path d="M141 344 142 346 142 344 144 345 " style="stroke:gray;fill:none"/><path d="M193 343 190 344 192 344 195 343 " style="stroke:gray;fill:none"/><path d="M171 343 171 345 173 345 171 345 " style="stroke:gray;fill:none"/><path d="M199 342 203 342 205 343 207 346 205 343 203 342 " style="stroke:gray;fill:none"/><path d="M111 342 110 346 108 346 108 348 110 347 " style="stroke:gray;fill:none"/><path d="M251 341 250 344 " style="stroke:gray;fill:none"/><path d="M189 341 193 341 " style="stroke:gray;fill:none"/><path d="M335 340 " style="stroke:gray;fill:none"/><path d="M200 340 196 340 200 340 202 339 " style="stroke:gray;fill:none"/><path d="M151 342 151 339 " style="stroke:gray;fill:none"/><path d="M330 340 332 342 330 340 332 338 " style="stroke:gray;fill:none"/><path d="M110 338 112 338 " style="stroke:gray;fill:none"/><path d="M329 337 328 339 328 341 329 343 334 344 337 342 337 337 335 337 333 336 336 337 338 340 336 342 333 344 329 343 328 341 328 339 329 337 331 336 " style="stroke:gray;fill:none"/><path d="M182 336 182 338 " style="stroke:gray;fill:none"/><path d="M176 336 176 338 " style="stroke:gray;fill:none"/><path d="M166 336 166 338 " style="stroke:gray;fill:none"/><path d="M110 336 112 336 " style="stroke:gray;fill:none"/><path d="M189 336 " style="stroke:gray;fill:none"/><path d="M156 336 " style="stroke:gray;fill:none"/><path d="M140 335 140 337 " style="stroke:gray;fill:none"/><path d="M201 333 " style="stroke:gray;fill:none"/><path d="M199 333 " style="stroke:gray;fill:none"/><path d="M145 332 148 333 151 335 154 336 151 335 148 333 " style="stroke:gray;fill:none"/><path d="M140 331 " style="stroke:gray;fill:none"/><path d="M112 332 " style="stroke:gray;fill:none"/><path d="M102 332 98 337 96 340 95 342 95 344 93 347 92 351 92 357 93 361 95 365 100 370 104 372 107 373 116 373 119 372 122 369 122 367 121 364 118 363 111 356 109 353 109 352 105 348 105 346 107 344 108 342 108 331 " style="stroke:gray;fill:none"/><path d="M104 331 108 332 108 342 106 344 105 346 105 348 106 350 109 354 111 357 117 363 121 366 122 368 118 372 116 373 107 373 104 372 101 370 95 364 93 361 92 357 92 351 93 347 96 341 98 338 101 334 " style="stroke:gray;fill:none"/><path d="M221 330 219 332 217 333 215 333 213 334 215 333 217 333 219 332 " style="stroke:gray;fill:none"/><path d="M191 330 " style="stroke:gray;fill:none"/><path d="M194 329 " style="stroke:gray;fill:none"/><path d="M198 328 " style="stroke:gray;fill:none"/><path d="M140 328 " style="stroke:gray;fill:none"/><path d="M243 327 239 328 236 329 226 334 223 336 219 339 214 343 210 347 209 349 216 342 221 338 225 335 228 333 236 329 239 328 243 327 246 327 248 328 250 330 248 328 246 327 " style="stroke:gray;fill:none"/><path d="M201 327 " style="stroke:gray;fill:none"/><path d="M125 326 121 327 118 328 115 331 114 333 114 349 115 352 116 354 120 358 122 358 125 360 131 360 134 359 138 357 141 354 141 352 143 350 143 348 140 349 138 348 135 345 135 343 136 339 137 335 138 334 138 332 137 329 135 327 132 326 " style="stroke:gray;fill:none"/><path d="M142 350 " style="stroke:gray;fill:none"/><path d="M125 326 132 326 134 327 137 330 138 332 138 334 137 338 136 342 135 343 135 345 136 347 139 348 141 349 141 353 137 357 131 360 125 360 121 358 116 353 114 349 114 334 115 332 119 328 121 327 " style="stroke:gray;fill:none"/><path d="M97 331 95 333 95 336 93 338 90 344 89 347 90 355 89 347 90 344 92 340 95 337 95 333 97 331 99 331 102 328 104 326 " style="stroke:gray;fill:none"/><path d="M228 324 227 326 224 327 226 327 " style="stroke:gray;fill:none"/><path d="M135 325 137 325 " style="stroke:gray;fill:none"/><path d="M242 323 " style="stroke:gray;fill:none"/><path d="M133 324 " style="stroke:gray;fill:none"/><path d="M257 327 258 330 255 333 254 336 255 333 258 331 257 327 256 322 " style="stroke:gray;fill:none"/><path d="M212 321 209 323 " style="stroke:gray;fill:none"/><path d="M223 320 " style="stroke:gray;fill:none"/><path d="M214 320 " style="stroke:gray;fill:none"/><path d="M140 320 " style="stroke:gray;fill:none"/><path d="M269 319 266 320 262 321 265 321 " style="stroke:gray;fill:none"/><path d="M248 320 " style="stroke:gray;fill:none"/><path d="M216 319 " style="stroke:gray;fill:none"/><path d="M234 318 237 319 " style="stroke:gray;fill:none"/><path d="M226 318 " style="stroke:gray;fill:none"/><path d="M220 316 " style="stroke:gray;fill:none"/><path d="M201 316 201 319 199 321 195 324 192 326 189 328 187 329 184 330 182 331 184 330 187 329 191 327 194 325 197 323 201 319 " style="stroke:gray;fill:none"/><path d="M234 315 232 316 224 324 220 327 217 329 214 331 208 334 206 334 203 336 199 337 195 338 190 339 184 340 177 341 172 341 163 340 162 339 154 340 154 343 156 345 158 346 163 347 173 348 172 352 161 352 155 350 151 353 153 353 155 350 161 352 173 352 174 347 181 348 181 351 182 348 183 351 183 349 185 347 194 346 203 346 206 349 206 353 205 357 204 358 204 363 203 370 202 374 201 376 197 380 194 382 191 383 187 384 183 385 165 385 161 384 158 383 155 382 152 381 144 377 137 370 134 367 131 367 128 370 123 376 122 376 119 379 117 382 116 385 114 385 117 386 118 391 118 394 115 400 113 402 107 414 106 417 105 420 104 424 104 428 105 430 109 431 111 429 113 428 121 428 125 430 130 435 132 438 132 439 137 440 139 438 142 434 145 430 146 427 144 423 147 420 151 422 153 423 156 424 163 425 162 430 160 430 158 432 158 442 157 449 156 455 155 459 154 462 153 465 151 468 151 470 149 472 149 474 147 477 147 479 147 482 147 484 149 488 152 491 156 493 162 493 165 492 171 489 174 487 178 483 178 480 177 478 174 475 170 472 167 468 167 466 167 463 168 460 173 455 176 454 184 454 186 456 188 457 192 457 194 455 196 451 197 448 198 445 199 441 199 436 200 432 201 431 201 425 202 420 203 417 204 413 205 408 206 405 207 402 208 398 209 395 210 391 211 387 213 383 219 377 233 364 238 358 241 354 243 351 245 348 251 336 251 334 253 331 253 327 250 324 245 322 242 320 238 316 236 315 " style="stroke:gray;fill:none"/><path d="M165 424 167 425 170 428 167 430 165 430 163 428 163 426 " style="stroke:gray;fill:none"/><path d="M234 315 236 315 241 320 244 322 246 323 248 323 253 328 253 331 251 334 251 336 249 338 245 347 243 350 241 353 238 357 234 362 218 377 213 382 212 384 211 387 210 391 209 395 208 398 207 402 206 405 205 408 204 413 203 417 202 420 201 425 201 431 200 435 199 436 199 441 198 445 197 448 196 451 195 453 191 457 189 457 184 454 176 454 173 455 171 456 168 459 167 461 167 463 167 466 167 468 168 470 170 473 172 475 178 480 178 482 173 487 170 489 167 491 165 492 162 493 156 493 154 492 149 487 147 484 147 482 147 479 147 477 151 470 151 468 153 466 154 462 155 459 156 455 157 449 158 442 158 433 161 430 165 430 167 430 170 429 169 426 167 425 165 424 163 425 156 424 153 423 151 421 149 421 147 419 144 419 144 423 146 427 145 429 142 432 139 436 139 437 136 440 134 440 132 438 130 435 130 434 126 430 124 429 121 428 113 428 110 429 107 431 104 428 104 424 105 420 106 417 107 414 108 412 110 410 111 408 111 406 113 404 115 401 117 397 118 394 118 391 117 383 118 381 124 376 128 372 134 368 135 368 137 370 143 377 149 380 152 381 155 382 158 383 161 384 165 385 183 385 187 384 191 383 194 382 198 380 201 377 202 374 203 370 204 363 204 358 205 354 206 353 206 348 204 346 194 346 185 347 184 348 181 348 173 348 163 347 158 346 154 341 156 339 162 339 171 340 172 341 177 341 184 340 190 339 195 338 199 337 203 336 206 335 218 329 221 327 225 324 " style="stroke:gray;fill:none"/><path d="M228 315 " style="stroke:gray;fill:none"/><path d="M137 314 141 314 " style="stroke:gray;fill:none"/><path d="M176 311 " style="stroke:gray;fill:none"/><path d="M124 311 127 314 126 317 121 317 124 318 121 319 128 319 131 321 128 324 131 320 129 319 127 316 126 312 128 311 126 312 " style="stroke:gray;fill:none"/><path d="M125 319 " style="stroke:gray;fill:none"/><path d="M278 310 277 312 276 314 274 316 271 318 273 317 275 316 277 313 " style="stroke:gray;fill:none"/><path d="M248 311 248 313 250 314 254 314 256 316 260 316 264 315 266 314 268 313 266 314 264 315 260 316 257 316 254 314 250 314 251 311 256 310 251 311 " style="stroke:gray;fill:none"/><path d="M202 310 " style="stroke:gray;fill:none"/><path d="M183 310 " style="stroke:gray;fill:none"/><path d="M131 312 133 314 129 315 133 318 133 321 135 321 133 320 133 318 136 316 133 315 133 313 132 310 " style="stroke:gray;fill:none"/><path d="M205 309 " style="stroke:gray;fill:none"/><path d="M189 309 " style="stroke:gray;fill:none"/><path d="M208 308 " style="stroke:gray;fill:none"/><path d="M261 307 262 309 264 310 270 310 264 310 " style="stroke:gray;fill:none"/><path d="M228 307 " style="stroke:gray;fill:none"/><path d="M210 307 " style="stroke:gray;fill:none"/><path d="M138 307 " style="stroke:gray;fill:none"/><path d="M131 308 133 307 " style="stroke:gray;fill:none"/><path d="M400 306 398 308 399 310 404 315 412 315 412 308 410 306 " style="stroke:gray;fill:none"/><path d="M400 306 404 306 406 308 407 312 410 312 408 312 406 310 405 307 409 306 412 309 411 315 404 315 401 312 398 308 " style="stroke:gray;fill:none"/><path d="M226 306 223 308 220 309 218 311 216 311 219 310 222 308 223 308 226 306 228 305 " style="stroke:gray;fill:none"/><path d="M238 305 238 313 242 305 240 304 " style="stroke:gray;fill:none"/><path d="M243 303 246 304 " style="stroke:gray;fill:none"/><path d="M131 302 133 304 " style="stroke:gray;fill:none"/><path d="M222 301 " style="stroke:gray;fill:none"/><path d="M228 302 226 302 224 304 221 305 219 307 215 309 213 309 208 312 205 313 201 314 198 315 194 316 190 317 184 318 174 319 151 318 138 318 137 321 141 325 147 330 150 331 153 332 156 333 160 334 182 334 191 333 195 332 198 331 201 330 204 329 216 323 220 320 229 311 231 308 233 304 233 302 231 300 " style="stroke:gray;fill:none"/><path d="M229 301 231 301 233 304 231 306 229 309 229 310 219 320 215 323 212 325 204 329 201 330 198 331 195 332 191 333 182 334 160 334 156 333 153 332 150 331 148 330 142 325 137 320 139 318 151 318 174 319 184 318 190 317 194 316 198 315 201 314 202 313 206 313 213 309 215 309 223 305 225 303 " style="stroke:gray;fill:none"/><path d="M189 299 " style="stroke:gray;fill:none"/><path d="M239 297 241 301 239 300 240 297 241 299 " style="stroke:gray;fill:none"/><path d="M112 297 " style="stroke:gray;fill:none"/><path d="M282 296 282 303 280 306 279 308 280 306 282 304 " style="stroke:gray;fill:none"/><path d="M185 298 182 300 179 301 176 304 170 307 168 307 163 310 160 311 152 312 143 312 140 311 139 309 137 309 135 308 138 309 139 311 141 312 152 312 160 311 163 310 166 309 168 307 170 307 178 303 181 300 184 299 186 297 188 296 " style="stroke:gray;fill:none"/><path d="M129 296 129 298 130 300 129 298 " style="stroke:gray;fill:none"/><path d="M226 296 225 298 225 300 225 298 227 295 230 297 228 296 230 295 " style="stroke:gray;fill:none"/><path d="M194 295 196 295 " style="stroke:gray;fill:none"/><path d="M256 294 " style="stroke:gray;fill:none"/><path d="M187 293 " style="stroke:gray;fill:none"/><path d="M127 293 " style="stroke:gray;fill:none"/><path d="M111 293 " style="stroke:gray;fill:none"/><path d="M125 292 " style="stroke:gray;fill:none"/><path d="M246 291 244 293 244 297 247 300 249 301 251 301 253 299 254 296 251 292 " style="stroke:gray;fill:none"/><path d="M247 291 249 291 251 293 253 296 253 298 249 301 244 296 244 294 " style="stroke:gray;fill:none"/><path d="M236 291 235 293 235 296 236 298 237 301 237 303 236 305 237 303 237 301 236 297 234 294 " style="stroke:gray;fill:none"/><path d="M228 293 231 290 " style="stroke:gray;fill:none"/><path d="M124 289 " style="stroke:gray;fill:none"/><path d="M109 289 " style="stroke:gray;fill:none"/><path d="M252 288 " style="stroke:gray;fill:none"/><path d="M109 287 " style="stroke:gray;fill:none"/><path d="M241 286 " style="stroke:gray;fill:none"/><path d="M112 284 " style="stroke:gray;fill:none"/><path d="M102 282 99 283 " style="stroke:gray;fill:none"/><path d="M259 281 257 282 255 284 255 287 256 290 258 292 260 295 261 298 261 301 260 303 256 307 246 306 242 308 242 311 247 316 251 318 255 319 261 319 264 318 267 317 269 316 275 310 278 304 279 300 279 294 278 291 277 288 273 284 267 281 " style="stroke:gray;fill:none"/><path d="M259 281 267 281 269 282 272 284 277 289 278 291 279 294 279 300 278 304 276 306 275 309 268 316 264 318 261 319 255 319 251 318 248 316 242 309 244 307 246 306 257 307 260 304 261 301 261 298 260 295 258 291 256 289 255 287 255 285 " style="stroke:gray;fill:none"/><path d="M121 281 121 284 " style="stroke:gray;fill:none"/><path d="M111 281 " style="stroke:gray;fill:none"/><path d="M118 279 121 279 " style="stroke:gray;fill:none"/><path d="M119 277 121 277 " style="stroke:gray;fill:none"/><path d="M252 276 " style="stroke:gray;fill:none"/><path d="M250 276 " style="stroke:gray;fill:none"/><path d="M246 273 " style="stroke:gray;fill:none"/><path d="M110 274 " style="stroke:gray;fill:none"/><path d="M270 272 267 273 269 273 272 272 " style="stroke:gray;fill:none"/><path d="M139 272 137 273 135 277 137 281 144 280 145 278 145 275 142 272 " style="stroke:gray;fill:none"/><path d="M141 272 144 279 142 281 138 281 136 279 135 277 136 275 138 273 " style="stroke:gray;fill:none"/><path d="M231 270 " style="stroke:gray;fill:none"/><path d="M213 270 " style="stroke:gray;fill:none"/><path d="M245 269 " style="stroke:gray;fill:none"/><path d="M119 269 119 275 " style="stroke:gray;fill:none"/><path d="M235 269 233 273 232 284 233 286 235 287 238 287 240 284 241 280 242 275 242 272 241 270 239 268 " style="stroke:gray;fill:none"/><path d="M238 268 242 272 242 275 241 280 240 283 238 286 236 288 232 284 233 273 234 271 " style="stroke:gray;fill:none"/><path d="M105 269 107 268 " style="stroke:gray;fill:none"/><path d="M120 267 " style="stroke:gray;fill:none"/><path d="M209 266 208 269 206 271 205 274 203 277 201 279 200 282 196 287 193 290 199 284 200 281 202 279 205 275 205 273 207 271 208 268 " style="stroke:gray;fill:none"/><path d="M266 264 266 266 265 271 266 269 266 266 " style="stroke:gray;fill:none"/><path d="M241 263 241 265 242 268 242 266 " style="stroke:gray;fill:none"/><path d="M120 263 " style="stroke:gray;fill:none"/><path d="M215 263 " style="stroke:gray;fill:none"/><path d="M208 263 " style="stroke:gray;fill:none"/><path d="M97 262 97 264 96 267 95 268 95 280 96 285 97 288 98 291 99 293 101 296 104 297 107 297 107 292 106 288 105 283 104 282 103 276 103 265 102 262 " style="stroke:gray;fill:none"/><path d="M97 263 102 263 103 265 103 276 104 282 105 287 106 288 107 292 107 296 105 298 103 297 101 295 99 292 97 288 96 285 95 280 95 268 96 265 " style="stroke:gray;fill:none"/><path d="M105 262 " style="stroke:gray;fill:none"/><path d="M245 260 " style="stroke:gray;fill:none"/><path d="M234 259 234 261 " style="stroke:gray;fill:none"/><path d="M92 262 91 264 91 282 93 285 93 287 95 290 95 292 99 300 101 302 104 302 110 301 114 305 115 307 115 316 113 320 110 323 108 323 106 324 106 327 106 325 108 323 112 322 114 323 118 319 120 321 123 323 125 324 122 323 119 319 117 319 115 322 112 321 114 319 115 316 115 307 114 304 112 302 110 301 104 302 101 302 99 300 95 292 95 290 93 287 93 285 91 282 91 264 93 261 96 259 " style="stroke:gray;fill:none"/><path d="M100 258 98 259 100 259 103 258 " style="stroke:gray;fill:none"/><path d="M267 256 " style="stroke:gray;fill:none"/><path d="M264 256 265 254 267 254 " style="stroke:gray;fill:none"/><path d="M238 254 238 258 238 261 238 265 238 263 238 261 239 258 " style="stroke:gray;fill:none"/><path d="M241 254 " style="stroke:gray;fill:none"/><path d="M252 252 250 253 " style="stroke:gray;fill:none"/><path d="M230 252 230 259 231 265 233 268 232 266 231 260 230 259 " style="stroke:gray;fill:none"/><path d="M243 250 243 255 " style="stroke:gray;fill:none"/><path d="M112 250 110 253 109 256 109 267 110 269 112 271 113 274 112 278 113 280 115 284 112 288 112 290 114 293 114 295 115 298 117 301 117 303 122 308 128 307 128 304 124 297 124 295 123 292 122 289 121 287 117 283 115 279 116 275 115 269 117 267 117 255 115 251 " style="stroke:gray;fill:none"/><path d="M114 251 116 253 117 255 117 266 115 268 115 279 116 282 117 284 122 289 123 292 124 295 124 297 128 304 128 306 126 308 123 308 117 302 115 298 114 295 114 293 112 290 112 288 114 283 113 280 113 274 112 270 110 268 109 266 109 256 110 254 " style="stroke:gray;fill:none"/><path d="M258 249 258 256 259 258 258 256 259 249 261 251 261 254 260 249 " style="stroke:gray;fill:none"/><path d="M242 248 " style="stroke:gray;fill:none"/><path d="M285 248 " style="stroke:gray;fill:none"/><path d="M123 247 123 265 123 271 122 273 123 271 124 279 125 282 126 283 127 286 126 288 129 291 130 293 131 295 135 303 136 306 135 303 127 288 126 284 124 279 123 270 122 263 122 249 " style="stroke:gray;fill:none"/><path d="M242 246 " style="stroke:gray;fill:none"/><path d="M24 244 24 246 " style="stroke:gray;fill:none"/><path d="M113 242 115 243 118 246 115 246 113 247 115 246 115 248 117 248 118 243 " style="stroke:gray;fill:none"/><path d="M118 246 " style="stroke:gray;fill:none"/><path d="M117 242 117 245 " style="stroke:gray;fill:none"/><path d="M32 242 34 245 32 247 34 242 " style="stroke:gray;fill:none"/><path d="M27 242 25 249 28 249 25 248 29 247 30 245 29 243 " style="stroke:gray;fill:none"/><path d="M28 243 30 245 26 246 " style="stroke:gray;fill:none"/><path d="M120 241 " style="stroke:gray;fill:none"/><path d="M128 240 124 245 " style="stroke:gray;fill:none"/><path d="M388 237 386 238 387 243 390 243 392 242 392 238 390 237 392 239 391 242 390 240 388 243 386 241 386 239 " style="stroke:gray;fill:none"/><path d="M123 238 " style="stroke:gray;fill:none"/><path d="M294 237 " style="stroke:gray;fill:none"/><path d="M243 236 242 239 244 243 244 245 245 248 246 249 247 253 248 260 248 271 249 273 253 273 254 271 255 268 255 254 254 249 253 245 252 242 250 239 247 236 " style="stroke:gray;fill:none"/><path d="M243 237 246 236 250 240 252 243 253 245 254 249 255 254 255 268 254 271 252 273 250 273 248 271 248 260 247 253 246 249 245 246 244 245 243 242 242 239 " style="stroke:gray;fill:none"/><path d="M237 236 240 237 " style="stroke:gray;fill:none"/><path d="M126 236 " style="stroke:gray;fill:none"/><path d="M282 235 282 237 284 235 " style="stroke:gray;fill:none"/><path d="M283 237 " style="stroke:gray;fill:none"/><path d="M229 237 228 239 229 242 230 246 231 249 232 251 234 253 234 255 236 257 236 263 236 266 235 264 236 256 234 254 236 252 239 250 239 247 238 244 236 241 236 239 232 235 " style="stroke:gray;fill:none"/><path d="M231 235 236 240 237 242 238 245 238 247 239 249 235 253 232 250 230 246 229 242 228 239 230 237 " style="stroke:gray;fill:none"/><path d="M390 235 385 235 383 237 382 240 382 242 383 244 384 246 391 246 393 245 395 243 394 235 " style="stroke:gray;fill:none"/><path d="M390 235 394 235 394 244 391 246 385 246 383 244 382 242 382 240 383 237 385 235 " style="stroke:gray;fill:none"/><path d="M154 233 151 234 147 236 143 240 141 244 141 246 141 249 141 253 142 256 143 258 148 263 151 264 162 264 166 262 169 259 171 255 172 252 172 246 171 243 170 241 164 235 162 235 159 233 " style="stroke:gray;fill:none"/><path d="M152 240 154 240 156 242 156 245 158 248 162 248 164 249 166 251 168 252 165 256 161 257 159 258 157 256 156 252 152 249 151 246 151 244 150 242 " style="stroke:gray;fill:none"/><path d="M154 233 159 233 162 235 155 237 153 237 155 237 161 236 163 235 170 242 172 246 171 252 168 252 166 250 162 248 159 248 157 246 156 244 155 240 152 240 151 244 151 246 152 249 153 251 157 253 157 256 158 258 160 258 165 256 167 257 165 256 168 255 171 253 171 255 170 257 165 262 162 264 150 263 153 261 158 261 160 262 158 261 153 261 151 262 149 263 143 257 142 255 141 252 141 249 141 246 141 244 142 242 148 236 151 234 " style="stroke:gray;fill:none"/><path d="M223 232 225 233 227 234 225 233 " style="stroke:gray;fill:none"/><path d="M137 232 134 233 132 235 129 236 126 238 122 242 121 244 121 246 122 243 127 238 131 235 135 233 " style="stroke:gray;fill:none"/><path d="M311 232 309 232 307 233 305 234 303 237 301 236 298 237 293 242 291 244 288 247 287 250 288 248 290 246 291 244 292 247 291 249 287 252 286 254 286 256 284 259 283 261 282 258 283 256 284 254 283 257 282 259 279 262 278 265 276 267 276 269 274 271 274 273 272 275 270 276 268 276 265 273 262 273 260 271 261 266 262 262 263 260 267 260 268 262 270 266 270 269 268 268 271 269 271 267 273 264 278 259 278 257 281 254 281 252 283 249 281 251 281 253 278 256 278 258 273 264 270 266 268 264 268 262 267 260 263 260 262 262 261 266 260 271 262 273 265 275 261 278 263 277 265 277 267 278 264 276 267 275 270 276 273 275 274 273 274 271 276 268 278 266 279 263 282 260 283 263 281 265 280 268 276 272 275 276 275 282 276 284 276 282 275 276 276 273 277 271 280 267 282 265 283 263 283 261 292 247 292 245 293 243 299 237 301 236 304 237 307 233 309 232 311 232 313 231 " style="stroke:gray;fill:none"/><path d="M134 231 " style="stroke:gray;fill:none"/><path d="M132 232 " style="stroke:gray;fill:none"/><path d="M295 230 293 232 292 235 289 238 288 241 285 245 288 242 289 239 292 236 293 233 296 230 298 233 298 235 299 233 299 230 " style="stroke:gray;fill:none"/><path d="M136 230 " style="stroke:gray;fill:none"/><path d="M248 229 248 231 250 231 250 229 " style="stroke:gray;fill:none"/><path d="M249 231 " style="stroke:gray;fill:none"/><path d="M224 228 223 230 224 228 225 230 " style="stroke:gray;fill:none"/><path d="M140 228 " style="stroke:gray;fill:none"/><path d="M143 227 " style="stroke:gray;fill:none"/><path d="M145 226 " style="stroke:gray;fill:none"/><path d="M115 226 114 228 112 230 111 232 111 235 109 238 110 245 110 247 107 251 106 253 106 255 105 257 106 255 106 253 108 251 109 249 111 247 109 246 111 245 109 244 109 238 111 235 111 232 114 229 " style="stroke:gray;fill:none"/><path d="M261 225 261 227 262 233 261 236 259 238 255 239 255 241 256 245 258 245 260 241 259 238 261 237 262 233 261 227 " style="stroke:gray;fill:none"/><path d="M257 238 257 245 256 242 255 240 " style="stroke:gray;fill:none"/><path d="M227 225 228 231 230 232 228 231 " style="stroke:gray;fill:none"/><path d="M169 225 165 226 164 227 157 227 154 228 150 229 147 230 142 233 140 233 133 237 131 238 133 237 140 233 142 233 147 230 150 229 154 228 157 227 164 227 168 226 169 225 188 225 191 226 197 229 205 237 207 240 209 244 210 248 211 255 210 264 213 265 211 266 210 269 210 271 209 274 207 278 205 281 203 284 197 290 193 293 191 294 194 292 197 290 198 290 202 286 205 282 209 274 209 272 210 269 211 267 213 265 216 268 216 272 216 278 215 281 214 283 211 287 205 293 202 295 196 298 193 298 190 296 192 297 196 298 204 294 207 292 211 288 213 285 215 281 216 278 216 272 216 269 215 266 211 263 211 255 210 248 209 244 206 238 204 235 198 229 196 228 194 228 191 226 188 225 " style="stroke:gray;fill:none"/><path d="M148 225 " style="stroke:gray;fill:none"/><path d="M353 224 354 227 356 228 363 228 365 229 365 234 363 235 357 235 354 234 352 232 348 230 345 230 340 231 337 233 334 234 322 234 319 232 321 233 334 234 337 233 340 231 345 230 348 230 350 231 352 233 354 234 357 235 363 235 365 234 365 229 363 228 356 228 " style="stroke:gray;fill:none"/><path d="M150 224 " style="stroke:gray;fill:none"/><path d="M208 223 " style="stroke:gray;fill:none"/><path d="M154 223 " style="stroke:gray;fill:none"/><path d="M167 222 161 223 156 224 153 225 150 226 147 228 145 228 142 230 139 231 141 230 145 228 147 228 150 226 153 225 156 224 161 223 167 222 193 222 198 223 204 224 208 225 211 226 214 227 216 228 219 230 221 232 222 235 222 237 224 240 225 243 226 247 227 252 227 257 229 262 228 264 229 279 228 285 227 289 226 292 225 294 223 297 221 299 217 302 213 304 211 304 208 306 205 307 203 307 200 309 196 310 193 311 186 312 180 313 174 314 168 313 158 314 168 313 174 314 180 313 186 312 193 311 196 310 200 309 203 307 205 307 208 306 211 304 213 304 219 301 221 299 224 295 226 293 227 289 228 285 229 279 228 264 229 262 227 257 227 252 226 247 225 243 224 240 222 237 222 235 221 231 218 229 221 226 223 226 221 226 216 228 214 227 211 226 208 225 204 224 198 223 193 222 " style="stroke:gray;fill:none"/><path d="M158 222 " style="stroke:gray;fill:none"/><path d="M162 221 " style="stroke:gray;fill:none"/><path d="M243 221 246 221 246 225 242 223 243 225 247 224 246 221 " style="stroke:gray;fill:none"/><path d="M218 220 220 221 " style="stroke:gray;fill:none"/><path d="M192 220 " style="stroke:gray;fill:none"/><path d="M167 220 " style="stroke:gray;fill:none"/><path d="M351 219 349 220 347 222 344 223 342 225 346 222 349 221 " style="stroke:gray;fill:none"/><path d="M264 216 " style="stroke:gray;fill:none"/><path d="M198 215 203 215 208 216 211 217 213 218 215 219 213 218 211 217 208 216 203 215 " style="stroke:gray;fill:none"/><path d="M265 212 268 215 269 222 269 224 266 227 266 232 265 236 263 241 262 239 263 242 264 240 264 237 265 233 266 232 266 227 269 225 269 222 268 214 " style="stroke:gray;fill:none"/><path d="M218 210 " style="stroke:gray;fill:none"/><path d="M128 211 125 212 124 214 123 216 124 214 127 211 130 210 " style="stroke:gray;fill:none"/><path d="M246 209 244 212 246 212 " style="stroke:gray;fill:none"/><path d="M275 208 273 210 274 214 272 215 271 217 271 220 271 217 274 214 273 210 275 208 277 211 277 209 " style="stroke:gray;fill:none"/><path d="M366 207 366 214 " style="stroke:gray;fill:none"/><path d="M242 207 242 209 " style="stroke:gray;fill:none"/><path d="M278 206 281 208 281 210 277 214 277 218 275 221 275 226 274 230 272 231 272 235 271 240 270 245 268 252 265 251 265 244 266 240 267 237 268 235 270 233 270 227 270 233 268 235 267 237 266 240 265 244 266 252 269 253 269 246 270 241 271 236 272 232 274 231 274 227 275 221 277 218 278 226 276 229 276 233 274 236 273 241 273 250 272 253 271 254 271 259 274 259 275 256 278 253 278 251 282 247 282 243 283 240 286 236 288 234 291 230 293 228 293 222 292 220 289 216 286 212 284 209 285 211 287 214 287 215 290 218 293 222 293 227 288 234 286 236 283 240 283 244 281 248 278 251 278 253 275 257 271 258 271 254 272 251 273 250 273 241 274 236 276 233 276 229 278 226 277 217 277 215 280 212 281 210 281 206 283 206 " style="stroke:gray;fill:none"/><path d="M278 206 281 206 " style="stroke:gray;fill:none"/><path d="M265 205 " style="stroke:gray;fill:none"/><path d="M224 206 227 205 " style="stroke:gray;fill:none"/><path d="M211 204 214 205 " style="stroke:gray;fill:none"/><path d="M140 204 142 204 " style="stroke:gray;fill:none"/><path d="M277 203 " style="stroke:gray;fill:none"/><path d="M273 203 275 204 " style="stroke:gray;fill:none"/><path d="M270 203 269 206 267 206 264 209 267 206 270 205 " style="stroke:gray;fill:none"/><path d="M251 203 253 204 253 206 251 208 253 208 253 214 253 217 253 225 253 228 252 232 251 236 252 232 253 228 255 226 258 227 258 231 255 233 254 237 254 235 258 232 257 204 255 204 258 205 257 215 253 214 " style="stroke:gray;fill:none"/><path d="M255 215 258 216 257 226 253 225 253 217 " style="stroke:gray;fill:none"/><path d="M209 203 " style="stroke:gray;fill:none"/><path d="M189 203 191 203 " style="stroke:gray;fill:none"/><path d="M171 203 173 203 176 204 179 205 189 210 191 212 191 214 191 211 189 210 179 205 176 204 173 203 " style="stroke:gray;fill:none"/><path d="M183 202 187 202 " style="stroke:gray;fill:none"/><path d="M167 202 " style="stroke:gray;fill:none"/><path d="M302 201 300 204 302 203 " style="stroke:gray;fill:none"/><path d="M261 202 261 222 262 201 265 201 " style="stroke:gray;fill:none"/><path d="M173 201 178 201 " style="stroke:gray;fill:none"/><path d="M322 201 321 205 324 209 329 209 329 204 326 201 " style="stroke:gray;fill:none"/><path d="M325 200 329 204 328 209 325 209 323 207 321 203 " style="stroke:gray;fill:none"/><path d="M233 200 " style="stroke:gray;fill:none"/><path d="M201 200 203 200 " style="stroke:gray;fill:none"/><path d="M282 199 " style="stroke:gray;fill:none"/><path d="M284 198 287 198 " style="stroke:gray;fill:none"/><path d="M273 198 " style="stroke:gray;fill:none"/><path d="M203 198 205 198 205 200 209 200 213 202 216 203 217 206 220 206 218 208 215 208 219 208 222 206 219 205 221 203 223 202 221 203 219 205 217 203 215 203 210 200 207 200 205 198 " style="stroke:gray;fill:none"/><path d="M269 197 " style="stroke:gray;fill:none"/><path d="M188 197 187 199 178 198 173 198 166 199 161 200 156 201 152 202 147 205 145 205 135 210 131 213 127 216 122 221 119 225 118 228 116 230 115 233 116 238 119 238 122 235 125 233 128 231 131 229 145 222 148 221 151 220 155 219 159 218 164 217 171 216 191 216 197 217 202 218 206 219 210 220 213 221 214 222 217 223 220 224 222 224 224 223 224 219 218 213 214 210 210 207 208 207 203 204 201 204 198 202 195 201 192 201 187 199 " style="stroke:gray;fill:none"/><path d="M173 198 178 198 187 199 191 200 195 201 198 202 201 204 203 204 209 207 213 210 217 213 224 220 224 222 222 224 220 224 217 223 214 222 211 221 210 220 206 219 202 218 197 217 191 216 171 216 164 217 159 218 155 219 151 220 148 221 145 222 134 228 132 228 130 230 127 231 124 233 122 235 117 238 115 236 115 233 116 231 118 229 119 226 122 222 128 216 132 213 136 210 143 207 145 205 147 205 150 203 153 202 156 201 161 200 166 199 " style="stroke:gray;fill:none"/><path d="M265 196 " style="stroke:gray;fill:none"/><path d="M242 196 239 197 239 200 239 206 236 203 236 201 237 197 236 201 236 203 237 205 239 207 240 209 241 212 241 219 240 223 239 224 239 230 235 231 231 228 229 224 229 221 228 219 226 218 228 220 229 222 229 224 230 228 233 229 236 232 238 232 241 230 239 229 241 228 239 227 239 224 241 219 242 213 240 211 239 208 239 206 239 200 240 197 242 197 245 197 245 203 246 205 248 206 250 213 248 212 247 207 249 196 251 197 251 201 253 201 253 198 250 196 248 196 247 205 245 203 244 196 " style="stroke:gray;fill:none"/><path d="M183 197 " style="stroke:gray;fill:none"/><path d="M161 197 " style="stroke:gray;fill:none"/><path d="M262 195 " style="stroke:gray;fill:none"/><path d="M233 195 227 200 225 203 227 202 229 200 " style="stroke:gray;fill:none"/><path d="M202 194 204 195 207 196 205 195 " style="stroke:gray;fill:none"/><path d="M323 193 321 195 318 197 310 201 307 202 305 203 304 201 305 203 308 201 311 201 319 197 " style="stroke:gray;fill:none"/><path d="M312 193 " style="stroke:gray;fill:none"/><path d="M310 193 " style="stroke:gray;fill:none"/><path d="M165 194 169 195 169 193 " style="stroke:gray;fill:none"/><path d="M165 194 169 194 " style="stroke:gray;fill:none"/><path d="M245 192 " style="stroke:gray;fill:none"/><path d="M360 192 359 194 359 197 360 199 364 199 366 201 365 203 361 211 357 215 355 217 353 219 355 217 357 217 361 212 365 204 366 201 366 195 365 193 364 191 " style="stroke:gray;fill:none"/><path d="M363 191 365 193 366 195 365 199 361 199 359 197 359 194 " style="stroke:gray;fill:none"/><path d="M314 191 " style="stroke:gray;fill:none"/><path d="M190 191 " style="stroke:gray;fill:none"/><path d="M178 191 " style="stroke:gray;fill:none"/><path d="M326 190 " style="stroke:gray;fill:none"/><path d="M192 192 195 190 197 192 199 194 197 191 " style="stroke:gray;fill:none"/><path d="M231 188 " style="stroke:gray;fill:none"/><path d="M236 186 238 189 237 194 235 194 235 196 236 194 238 194 238 189 " style="stroke:gray;fill:none"/><path d="M316 183 " style="stroke:gray;fill:none"/><path d="M367 181 367 193 " style="stroke:gray;fill:none"/><path d="M338 180 " style="stroke:gray;fill:none"/><path d="M323 179 321 180 " style="stroke:gray;fill:none"/><path d="M168 179 " style="stroke:gray;fill:none"/><path d="M165 178 166 181 165 183 167 185 167 188 171 192 173 191 176 193 184 192 188 193 191 194 194 195 195 196 199 196 201 197 199 196 195 196 192 194 189 193 184 192 176 193 172 189 172 192 167 187 167 184 165 182 " style="stroke:gray;fill:none"/><path d="M378 177 376 178 375 180 378 177 381 177 383 179 382 189 380 190 374 190 371 193 371 196 369 198 368 200 368 203 367 205 368 200 370 198 371 196 371 193 374 190 380 190 382 189 383 179 381 177 " style="stroke:gray;fill:none"/><path d="M343 177 341 178 339 182 333 187 333 188 330 191 326 194 325 194 320 199 313 205 309 207 304 207 295 206 294 208 290 204 292 206 290 208 290 212 291 214 301 224 309 228 313 229 317 230 332 230 336 229 340 228 344 227 348 225 350 223 352 222 355 222 361 216 365 216 361 216 357 220 354 222 351 222 349 223 347 225 344 227 339 227 336 229 333 229 330 227 324 228 322 230 317 230 314 229 310 228 307 227 305 225 302 224 298 220 296 218 291 213 290 211 290 209 293 210 293 212 298 218 301 219 305 222 309 225 307 223 303 220 300 219 294 213 293 210 295 207 304 207 310 207 313 205 319 200 323 196 326 194 327 194 331 190 333 188 340 182 340 180 " style="stroke:gray;fill:none"/><path d="M330 227 333 229 323 229 " style="stroke:gray;fill:none"/><path d="M222 177 " style="stroke:gray;fill:none"/><path d="M345 174 342 175 " style="stroke:gray;fill:none"/><path d="M289 174 293 174 295 175 293 174 " style="stroke:gray;fill:none"/><path d="M281 175 " style="stroke:gray;fill:none"/><path d="M234 174 236 174 " style="stroke:gray;fill:none"/><path d="M227 174 " style="stroke:gray;fill:none"/><path d="M221 174 " style="stroke:gray;fill:none"/><path d="M166 173 168 174 170 177 173 178 173 182 171 185 172 187 171 184 174 181 173 178 169 174 " style="stroke:gray;fill:none"/><path d="M330 174 328 177 327 175 328 177 325 178 322 184 329 177 333 172 " style="stroke:gray;fill:none"/><path d="M219 172 214 174 214 176 216 178 219 179 223 179 227 183 224 186 220 188 213 188 207 182 205 181 203 180 200 181 195 184 191 185 186 186 180 186 178 187 174 188 176 188 178 188 180 186 186 186 191 185 195 184 200 181 203 180 205 181 211 187 213 188 220 188 226 185 228 184 226 182 223 179 219 179 215 177 215 173 " style="stroke:gray;fill:none"/><path d="M318 171 " style="stroke:gray;fill:none"/><path d="M73 172 70 176 69 176 67 178 68 181 70 182 76 181 79 182 82 180 83 177 81 175 82 171 " style="stroke:gray;fill:none"/><path d="M73 176 73 180 76 181 70 182 68 181 67 178 69 176 " style="stroke:gray;fill:none"/><path d="M74 171 83 173 81 175 83 178 80 181 76 181 78 179 77 174 75 174 78 176 78 178 76 180 73 179 72 175 " style="stroke:gray;fill:none"/><path d="M345 172 343 173 346 172 347 170 " style="stroke:gray;fill:none"/><path d="M284 169 286 169 " style="stroke:gray;fill:none"/><path d="M227 169 " style="stroke:gray;fill:none"/><path d="M227 167 " style="stroke:gray;fill:none"/><path d="M224 167 " style="stroke:gray;fill:none"/><path d="M315 167 " style="stroke:gray;fill:none"/><path d="M313 167 " style="stroke:gray;fill:none"/><path d="M229 166 232 168 229 171 226 172 224 169 225 172 228 172 231 166 " style="stroke:gray;fill:none"/><path d="M353 166 353 170 353 171 359 177 360 180 362 182 364 182 365 180 365 176 364 171 363 169 362 167 363 169 363 173 361 171 359 168 360 167 357 165 " style="stroke:gray;fill:none"/><path d="M357 166 360 170 362 173 364 174 365 176 365 180 361 181 359 178 358 175 352 168 " style="stroke:gray;fill:none"/><path d="M322 165 324 165 " style="stroke:gray;fill:none"/><path d="M327 164 329 164 " style="stroke:gray;fill:none"/><path d="M218 166 220 164 " style="stroke:gray;fill:none"/><path d="M342 162 343 165 344 161 " style="stroke:gray;fill:none"/><path d="M343 162 343 165 " style="stroke:gray;fill:none"/><path d="M351 159 " style="stroke:gray;fill:none"/><path d="M354 158 354 160 356 161 352 162 348 166 346 168 348 168 353 162 356 161 360 164 " style="stroke:gray;fill:none"/><path d="M199 159 " style="stroke:gray;fill:none"/><path d="M197 159 " style="stroke:gray;fill:none"/><path d="M358 159 361 162 365 168 368 171 369 174 372 177 374 182 372 181 372 177 369 174 367 169 364 166 364 164 363 162 359 160 359 157 " style="stroke:gray;fill:none"/><path d="M166 157 166 159 " style="stroke:gray;fill:none"/><path d="M167 155 " style="stroke:gray;fill:none"/><path d="M270 151 273 151 " style="stroke:gray;fill:none"/><path d="M244 152 247 151 " style="stroke:gray;fill:none"/><path d="M300 150 " style="stroke:gray;fill:none"/><path d="M287 151 291 151 " style="stroke:gray;fill:none"/><path d="M279 150 279 152 " style="stroke:gray;fill:none"/><path d="M232 150 232 152 " style="stroke:gray;fill:none"/><path d="M169 150 168 153 " style="stroke:gray;fill:none"/><path d="M159 150 157 151 157 157 157 152 161 151 161 154 159 157 160 155 161 150 " style="stroke:gray;fill:none"/><path d="M304 149 312 149 " style="stroke:gray;fill:none"/><path d="M314 148 " style="stroke:gray;fill:none"/><path d="M216 148 " style="stroke:gray;fill:none"/><path d="M163 147 " style="stroke:gray;fill:none"/><path d="M338 146 " style="stroke:gray;fill:none"/><path d="M379 145 376 149 375 152 377 155 375 157 373 157 370 156 368 153 366 155 363 155 366 155 368 153 370 156 373 157 375 157 377 156 377 154 376 149 379 147 " style="stroke:gray;fill:none"/><path d="M343 145 " style="stroke:gray;fill:none"/><path d="M189 144 " style="stroke:gray;fill:none"/><path d="M345 144 " style="stroke:gray;fill:none"/><path d="M229 143 230 145 240 145 241 146 246 146 241 146 232 145 " style="stroke:gray;fill:none"/><path d="M347 143 348 144 350 143 " style="stroke:gray;fill:none"/><path d="M184 141 183 143 " style="stroke:gray;fill:none"/><path d="M357 140 " style="stroke:gray;fill:none"/><path d="M355 140 " style="stroke:gray;fill:none"/><path d="M329 140 331 141 " style="stroke:gray;fill:none"/><path d="M215 140 213 143 215 144 217 146 215 144 " style="stroke:gray;fill:none"/><path d="M361 139 " style="stroke:gray;fill:none"/><path d="M0 140 0 142 4 140 6 140 8 143 11 145 10 150 8 151 3 149 7 148 7 145 5 143 3 143 0 145 1 148 0 151 8 151 11 150 11 145 8 141 4 140 " style="stroke:gray;fill:none"/><path d="M4 143 6 144 7 147 2 148 1 146 " style="stroke:gray;fill:none"/><path d="M357 138 " style="stroke:gray;fill:none"/><path d="M194 138 " style="stroke:gray;fill:none"/><path d="M221 137 224 138 224 140 225 142 225 145 227 144 226 142 224 140 223 137 " style="stroke:gray;fill:none"/><path d="M196 137 198 135 " style="stroke:gray;fill:none"/><path d="M181 135 174 142 171 146 170 148 173 145 175 142 175 141 " style="stroke:gray;fill:none"/><path d="M204 133 " style="stroke:gray;fill:none"/><path d="M376 130 380 135 378 131 " style="stroke:gray;fill:none"/><path d="M356 130 356 132 " style="stroke:gray;fill:none"/><path d="M346 130 346 134 348 133 346 132 " style="stroke:gray;fill:none"/><path d="M211 130 212 134 213 130 " style="stroke:gray;fill:none"/><path d="M192 129 189 131 186 132 184 133 186 132 189 131 192 129 194 129 " style="stroke:gray;fill:none"/><path d="M361 128 359 129 358 131 358 133 360 135 364 138 364 140 361 143 358 144 355 145 352 146 348 147 342 148 336 149 330 150 321 151 312 152 299 153 285 152 284 150 284 153 282 154 231 154 222 153 216 152 211 151 208 150 205 146 207 143 210 141 211 138 210 136 206 135 199 139 197 139 192 144 191 146 191 148 192 151 195 154 201 157 203 157 206 159 209 160 213 161 218 162 223 163 229 164 239 164 247 165 248 169 247 171 243 169 243 167 242 170 236 169 238 167 240 167 238 167 234 168 236 169 234 170 232 171 232 176 234 178 235 180 233 181 229 177 227 178 224 175 223 173 225 176 228 180 228 181 235 188 236 190 233 191 229 190 225 191 222 192 221 193 218 193 213 194 211 195 209 196 208 198 211 195 213 194 218 193 221 193 224 192 225 191 229 190 232 190 235 192 236 190 235 188 234 186 231 183 234 183 235 180 242 187 246 190 249 192 254 194 256 196 258 197 261 198 264 199 268 200 272 201 279 202 289 202 297 201 301 199 297 200 290 201 289 202 279 202 272 201 268 200 264 199 261 198 255 195 253 193 250 192 247 190 245 188 246 185 242 183 246 185 245 188 243 187 234 178 231 173 234 170 248 170 281 172 287 171 290 172 298 172 297 174 298 176 301 177 303 177 307 179 295 179 296 177 295 179 291 179 287 178 285 177 283 174 284 177 286 177 290 178 291 179 296 180 313 180 319 182 319 184 316 187 313 189 308 191 306 193 303 195 298 195 295 196 293 197 289 198 291 198 293 198 295 196 298 195 299 197 301 195 303 198 305 198 308 197 311 195 313 195 319 192 322 190 326 187 337 176 339 173 340 171 340 166 336 166 333 168 328 167 323 169 317 169 314 169 311 169 300 170 290 172 287 171 281 172 277 170 278 168 276 171 267 170 267 168 264 170 264 168 261 170 261 168 260 171 249 167 251 165 256 165 288 166 302 165 314 164 320 163 326 162 331 161 337 160 341 159 346 158 349 157 352 156 355 155 359 154 362 152 364 152 372 148 374 146 378 141 378 138 377 136 373 132 369 130 366 129 363 128 " style="stroke:gray;fill:none"/><path d="M229 177 233 181 231 183 227 179 " style="stroke:gray;fill:none"/><path d="M336 166 340 167 340 170 339 172 337 175 325 187 321 190 318 192 315 194 313 195 311 195 308 197 304 198 302 196 304 194 307 193 309 191 314 189 316 187 319 184 319 181 314 181 308 180 306 178 304 178 301 177 299 176 297 173 300 170 311 169 314 169 317 169 324 169 327 168 328 167 333 168 329 169 329 172 327 173 323 172 321 172 323 172 327 173 329 172 332 170 " style="stroke:gray;fill:none"/><path d="M363 129 366 129 369 130 372 132 378 138 378 141 376 144 374 146 371 148 366 150 364 152 361 153 358 154 355 155 352 156 349 157 346 158 341 159 337 160 331 161 326 162 320 163 314 164 302 165 288 166 256 165 250 166 248 166 240 165 239 164 229 164 223 163 218 162 213 161 209 160 206 159 203 157 201 157 199 156 196 154 192 150 191 148 191 146 198 139 206 135 208 135 211 139 209 141 207 143 205 145 205 148 207 150 210 150 215 151 216 152 222 153 231 154 282 154 299 153 312 152 321 151 330 150 336 149 342 148 348 147 352 146 355 145 358 144 362 143 364 141 364 137 362 135 358 131 " style="stroke:gray;fill:none"/><path d="M196 128 " style="stroke:gray;fill:none"/><path d="M200 127 202 128 " style="stroke:gray;fill:none"/><path d="M427 126 426 129 428 128 " style="stroke:gray;fill:none"/><path d="M365 126 368 127 " style="stroke:gray;fill:none"/><path d="M353 126 354 128 " style="stroke:gray;fill:none"/><path d="M192 124 191 126 189 126 185 128 182 130 179 132 170 141 168 144 166 147 165 149 164 153 163 156 162 160 161 167 159 165 158 162 155 160 155 157 153 156 150 155 149 153 149 151 152 148 152 143 147 138 147 136 146 134 146 130 146 134 147 136 147 138 148 140 152 144 152 148 150 149 149 151 149 154 151 156 153 156 155 158 155 160 159 164 162 168 163 174 162 176 163 182 162 185 160 187 160 191 162 194 160 193 160 191 159 189 161 187 162 185 163 182 163 174 161 167 162 161 163 157 164 153 165 150 166 148 168 145 170 142 175 137 177 135 180 132 184 129 190 126 193 125 197 124 205 124 207 129 205 130 203 130 200 132 197 132 195 134 192 135 186 140 186 143 184 145 184 149 185 152 187 155 191 159 197 162 200 163 203 164 206 165 209 165 213 166 216 167 220 169 222 170 220 169 217 168 214 167 213 166 210 166 206 165 203 164 200 163 192 159 187 154 185 151 184 148 184 146 186 143 187 140 193 135 196 133 198 132 200 132 203 130 206 129 208 129 208 127 207 125 196 125 " style="stroke:gray;fill:none"/><path d="M208 123 211 124 213 128 215 132 216 133 215 136 213 137 215 136 216 133 214 127 212 125 211 123 " style="stroke:gray;fill:none"/><path d="M419 122 417 123 415 126 415 128 416 131 419 133 423 133 428 131 423 133 420 133 418 132 416 130 415 128 415 126 419 122 421 124 419 126 419 128 421 130 424 130 424 128 425 126 424 128 422 130 419 127 421 124 427 123 " style="stroke:gray;fill:none"/><path d="M214 122 214 124 217 122 216 124 217 122 " style="stroke:gray;fill:none"/><path d="M201 120 " style="stroke:gray;fill:none"/><path d="M345 120 " style="stroke:gray;fill:none"/><path d="M218 117 216 118 " style="stroke:gray;fill:none"/><path d="M204 115 " style="stroke:gray;fill:none"/><path d="M349 112 350 115 352 117 354 117 356 119 353 121 352 123 356 120 356 118 353 117 " style="stroke:gray;fill:none"/><path d="M216 109 " style="stroke:gray;fill:none"/><path d="M347 107 " style="stroke:gray;fill:none"/><path d="M245 105 249 105 256 108 258 110 274 118 276 118 283 122 286 123 288 123 291 125 293 125 298 128 300 128 303 129 306 131 308 131 313 134 315 134 322 138 324 138 326 142 326 139 324 138 322 138 315 134 313 134 308 131 306 131 303 129 301 129 298 128 293 125 291 125 288 123 286 123 283 122 276 118 274 118 260 111 258 109 249 105 " style="stroke:gray;fill:none"/><path d="M230 103 234 106 237 107 240 110 239 108 236 106 233 104 232 104 " style="stroke:gray;fill:none"/><path d="M246 102 " style="stroke:gray;fill:none"/><path d="M233 102 " style="stroke:gray;fill:none"/><path d="M344 101 345 103 346 105 " style="stroke:gray;fill:none"/><path d="M224 102 " style="stroke:gray;fill:none"/><path d="M212 101 212 104 214 106 215 104 217 106 219 106 222 106 219 106 217 106 215 104 " style="stroke:gray;fill:none"/><path d="M153 101 151 105 151 107 151 105 " style="stroke:gray;fill:none"/><path d="M343 99 " style="stroke:gray;fill:none"/><path d="M234 100 232 100 234 100 236 99 240 103 239 106 240 103 241 101 238 100 " style="stroke:gray;fill:none"/><path d="M210 99 " style="stroke:gray;fill:none"/><path d="M208 99 209 101 " style="stroke:gray;fill:none"/><path d="M154 99 " style="stroke:gray;fill:none"/><path d="M206 98 " style="stroke:gray;fill:none"/><path d="M235 97 " style="stroke:gray;fill:none"/><path d="M208 96 " style="stroke:gray;fill:none"/><path d="M155 95 " style="stroke:gray;fill:none"/><path d="M340 95 " style="stroke:gray;fill:none"/><path d="M202 95 " style="stroke:gray;fill:none"/><path d="M338 92 " style="stroke:gray;fill:none"/><path d="M232 91 " style="stroke:gray;fill:none"/><path d="M251 89 " style="stroke:gray;fill:none"/><path d="M200 89 199 92 200 89 201 91 204 92 205 94 204 92 202 91 " style="stroke:gray;fill:none"/><path d="M161 89 158 92 157 94 " style="stroke:gray;fill:none"/><path d="M196 88 195 90 " style="stroke:gray;fill:none"/><path d="M192 88 194 88 " style="stroke:gray;fill:none"/><path d="M162 86 159 87 157 88 154 92 152 95 150 99 149 102 148 105 147 109 146 115 146 120 147 125 148 129 149 132 151 134 151 136 153 138 154 141 157 144 159 144 162 143 165 140 168 136 168 135 174 129 177 127 180 125 188 121 191 120 195 120 197 119 199 117 200 114 196 110 191 106 185 101 181 98 177 95 173 92 170 90 166 87 164 86 " style="stroke:gray;fill:none"/><path d="M161 87 165 87 169 90 172 92 176 95 180 98 184 101 190 106 195 110 200 115 195 120 190 121 187 121 179 125 176 127 173 129 168 134 165 138 165 139 161 143 158 144 153 139 149 131 148 128 147 125 146 120 146 115 147 109 148 105 149 102 153 94 157 90 " style="stroke:gray;fill:none"/><path d="M165 84 " style="stroke:gray;fill:none"/><path d="M163 83 " style="stroke:gray;fill:none"/><path d="M365 82 363 83 362 85 363 90 365 92 368 92 372 91 373 86 371 91 369 88 367 86 369 84 373 84 371 83 369 82 " style="stroke:gray;fill:none"/><path d="M370 85 " style="stroke:gray;fill:none"/><path d="M365 82 370 83 367 85 368 91 365 92 363 90 362 85 " style="stroke:gray;fill:none"/><path d="M328 82 330 83 332 86 330 83 " style="stroke:gray;fill:none"/><path d="M199 81 198 87 201 87 199 85 " style="stroke:gray;fill:none"/><path d="M156 81 156 83 159 83 159 81 " style="stroke:gray;fill:none"/><path d="M147 80 147 82 148 84 150 84 151 86 153 85 151 84 153 82 151 84 148 83 " style="stroke:gray;fill:none"/><path d="M179 80 " style="stroke:gray;fill:none"/><path d="M157 79 " style="stroke:gray;fill:none"/><path d="M198 79 " style="stroke:gray;fill:none"/><path d="M179 77 177 78 " style="stroke:gray;fill:none"/><path d="M144 77 142 79 138 79 135 81 132 84 129 85 128 88 129 90 132 90 134 89 138 85 141 85 143 86 145 88 146 100 146 104 145 106 146 104 146 100 145 87 143 86 141 85 138 85 136 86 132 90 130 90 128 87 131 84 134 83 137 80 139 79 142 79 " style="stroke:gray;fill:none"/><path d="M254 74 " style="stroke:gray;fill:none"/><path d="M164 73 " style="stroke:gray;fill:none"/><path d="M187 72 184 73 182 75 183 79 186 81 190 84 192 86 193 84 194 82 195 77 191 73 189 72 " style="stroke:gray;fill:none"/><path d="M187 72 189 72 195 78 195 81 194 83 191 84 187 81 184 79 182 76 185 73 " style="stroke:gray;fill:none"/><path d="M282 71 285 71 " style="stroke:gray;fill:none"/><path d="M152 70 150 71 147 73 147 78 149 78 153 79 156 76 158 76 164 79 167 81 170 83 174 86 178 89 182 92 186 95 192 100 197 105 204 111 210 116 214 114 216 113 219 115 217 114 214 111 204 101 197 95 193 92 189 89 185 86 182 84 179 82 177 82 175 80 165 75 162 75 161 73 159 72 157 72 154 70 " style="stroke:gray;fill:none"/><path d="M152 70 154 70 156 72 158 72 160 73 162 75 164 75 178 82 181 84 184 86 188 89 192 92 196 95 203 101 214 112 214 114 211 116 206 111 199 105 193 100 187 95 183 92 179 89 175 86 171 83 168 81 165 79 159 76 155 76 152 79 150 79 148 78 148 73 " style="stroke:gray;fill:none"/><path d="M286 69 292 70 296 72 299 72 301 71 304 72 306 74 308 74 311 76 316 79 318 79 321 81 325 84 331 89 333 91 336 95 340 100 341 102 341 104 344 107 346 111 347 114 348 117 349 120 350 124 350 134 351 136 347 140 343 136 343 122 337 117 334 116 331 115 328 114 325 113 322 112 319 111 316 110 313 109 310 108 307 107 304 106 301 105 298 104 295 104 292 103 289 101 287 101 284 100 281 99 278 98 275 97 272 96 269 95 266 94 263 92 261 92 258 91 255 90 252 86 253 89 255 90 257 90 260 91 263 92 266 94 268 94 271 95 274 96 277 97 280 98 283 99 286 100 289 101 292 103 295 104 298 104 301 105 304 106 307 107 310 108 313 109 316 110 319 111 322 112 325 113 328 114 331 115 334 116 337 117 339 118 343 122 344 137 342 139 339 142 336 143 331 144 324 145 312 145 310 143 304 140 302 140 299 138 297 138 294 136 291 135 289 135 284 132 282 132 279 131 272 127 270 127 254 119 252 117 249 116 244 112 243 105 243 112 242 125 243 130 244 134 245 137 250 146 252 147 250 148 247 148 240 149 236 149 231 148 230 147 222 147 219 144 218 141 218 129 219 123 220 119 221 115 227 103 229 100 231 97 246 82 249 81 252 79 254 77 252 78 250 79 248 81 245 82 231 96 230 94 231 97 229 100 227 100 227 104 225 106 224 108 224 110 222 112 221 114 220 118 219 123 218 129 218 141 219 145 221 148 219 150 221 149 230 147 236 149 236 152 239 150 239 152 239 150 241 148 247 148 250 148 286 148 296 147 297 146 311 146 324 145 331 144 337 143 341 141 344 141 347 141 350 138 350 134 350 124 349 120 348 117 347 114 346 111 343 105 341 103 341 101 340 99 336 95 333 91 331 89 326 84 322 81 319 79 317 79 308 74 306 74 304 72 301 71 299 72 292 70 " style="stroke:gray;fill:none"/><path d="M344 138 347 140 344 141 341 141 " style="stroke:gray;fill:none"/><path d="M244 112 246 114 245 116 246 114 248 115 250 116 252 118 270 127 272 127 279 131 282 132 284 132 289 135 291 135 294 136 297 138 299 138 302 140 304 140 310 143 312 145 296 146 287 147 286 148 253 148 252 146 248 143 245 137 244 134 243 130 242 125 " style="stroke:gray;fill:none"/><path d="M281 69 277 70 271 71 267 72 264 73 260 74 258 75 256 77 250 84 248 88 247 91 246 94 246 96 245 99 243 101 243 103 244 101 245 99 245 97 246 94 247 91 248 88 249 86 256 79 259 80 264 83 267 84 270 85 273 86 276 87 279 88 281 88 284 90 287 91 291 92 294 93 297 94 300 95 303 96 306 97 309 98 312 99 315 100 318 101 321 102 324 103 327 104 330 105 333 106 336 105 340 108 342 110 344 114 342 117 344 116 344 114 342 110 338 106 336 105 339 103 336 105 332 105 330 105 327 104 324 103 321 102 318 101 315 100 312 99 309 98 306 97 303 96 300 95 297 94 294 93 291 92 287 91 284 90 281 88 279 88 276 87 273 86 270 85 267 84 264 83 262 82 259 79 256 78 259 75 261 74 264 73 268 72 271 71 276 71 " style="stroke:gray;fill:none"/><path d="M266 69 268 69 " style="stroke:gray;fill:none"/><path d="M170 69 170 71 172 71 172 69 " style="stroke:gray;fill:none"/><path d="M171 71 " style="stroke:gray;fill:none"/><path d="M296 68 299 68 301 69 299 68 " style="stroke:gray;fill:none"/><path d="M270 68 273 68 " style="stroke:gray;fill:none"/><path d="M294 68 " style="stroke:gray;fill:none"/><path d="M277 68 " style="stroke:gray;fill:none"/><path d="M153 67 155 67 157 68 155 67 " style="stroke:gray;fill:none"/><path d="M314 66 312 67 310 69 309 71 310 69 312 67 314 66 316 67 317 75 319 76 321 76 325 80 323 77 321 76 319 76 317 74 316 67 " style="stroke:gray;fill:none"/><path d="M282 66 " style="stroke:gray;fill:none"/><path d="M197 65 197 68 194 71 191 68 185 68 180 71 176 71 175 75 171 74 176 75 177 71 181 71 183 69 185 68 192 70 196 70 197 76 196 70 " style="stroke:gray;fill:none"/><path d="M137 65 137 69 140 69 144 68 144 66 142 66 140 64 " style="stroke:gray;fill:none"/><path d="M139 64 141 66 144 67 140 68 137 68 " style="stroke:gray;fill:none"/><path d="M61 61 62 65 66 64 63 65 61 63 " style="stroke:gray;fill:none"/><path d="M61 58 59 59 58 61 58 64 59 66 68 67 68 59 66 59 " style="stroke:gray;fill:none"/><path d="M62 58 64 58 68 60 67 67 59 66 58 64 58 61 60 59 " style="stroke:gray;fill:none"/><path d="M200 49 198 51 196 55 197 63 196 55 198 51 " style="stroke:gray;fill:none"/><path d="M279 44 284 45 286 47 286 50 284 53 284 57 285 61 286 66 289 66 291 67 289 66 286 65 286 62 285 58 284 57 284 53 286 50 285 45 " style="stroke:gray;fill:none"/><path d="M270 44 272 46 274 47 274 51 276 53 276 55 278 57 278 60 277 58 276 55 277 52 274 50 274 47 272 44 " style="stroke:gray;fill:none"/><path d="M196 34 195 36 196 34 197 36 " style="stroke:gray;fill:none"/><path d="M270 34 272 34 276 35 277 39 277 42 277 39 275 34 272 34 " style="stroke:gray;fill:none"/><path d="M258 33 260 35 263 36 270 42 268 41 266 39 262 35 260 34 " style="stroke:gray;fill:none"/><path d="M248 29 250 29 254 31 256 33 254 31 250 29 " style="stroke:gray;fill:none"/><path d="M235 25 231 26 228 27 223 30 221 30 219 32 217 32 213 35 209 39 206 43 204 46 204 48 202 51 201 54 200 57 199 61 199 74 200 77 201 80 203 83 203 85 204 87 206 89 206 91 215 100 217 101 219 101 225 95 229 90 237 82 241 79 244 77 248 74 251 72 255 70 257 70 260 68 263 68 266 66 270 65 276 65 279 64 281 62 281 60 281 57 280 55 280 52 278 49 278 47 276 44 273 40 268 35 263 31 257 28 254 27 251 26 247 25 " style="stroke:gray;fill:none"/><path d="M235 25 247 25 251 26 254 27 257 28 261 30 267 35 273 41 277 46 280 52 280 55 281 57 281 61 278 64 276 65 270 65 266 66 263 68 260 68 257 70 255 70 249 73 246 75 243 77 240 79 236 82 229 89 226 93 226 94 224 97 221 100 219 101 217 101 206 90 201 80 200 77 199 74 199 61 200 57 201 54 202 51 204 47 206 44 209 40 214 35 218 32 220 32 222 30 224 30 226 28 228 27 231 26 " style="stroke:gray;fill:none"/><path d="M346 22 347 24 347 27 343 28 344 26 342 24 338 25 339 30 343 29 347 28 " style="stroke:gray;fill:none"/><path d="M341 24 343 26 343 28 341 30 339 29 338 26 " style="stroke:gray;fill:none"/><path d="M338 21 336 22 334 25 336 28 334 26 334 22 337 22 341 21 343 21 345 20 343 21 341 21 " style="stroke:gray;fill:none"/><path d="M214 21 209 26 207 31 202 36 202 40 204 43 203 41 202 36 204 34 208 28 217 20 219 22 219 28 219 26 219 21 217 20 " style="stroke:gray;fill:none"/><path d="M257 18 254 19 253 22 250 23 253 23 253 21 256 18 260 18 261 18 264 21 265 24 265 29 267 31 265 29 265 24 264 21 263 19 261 18 " style="stroke:gray;fill:none"/></svg>