<svg width="429px" height="547px" xmlns="http://www.w3.org/2000/svg"><path d="M155 522 155 524 157 524 157 522 " style="stroke:gray;fill:none"/><path d="M156 524 " style="stroke:gray;fill:none"/><path d="M90 512 92 513 90 512 92 511 " style="stroke:gray;fill:none"/><path d="M84 500 83 502 84 500 85 502 " style="stroke:gray;fill:none"/><path d="M144 489 142 490 140 492 140 497 141 500 142 502 144 505 146 508 157 519 161 522 165 524 168 525 170 524 172 523 175 520 176 518 177 515 177 505 176 502 176 499 173 496 171 494 169 493 171 495 169 496 166 497 165 498 162 499 156 499 153 498 151 497 144 491 " style="stroke:gray;fill:none"/><path d="M143 490 149 496 153 498 156 499 162 499 165 498 166 497 169 496 172 496 174 498 176 499 174 501 170 501 168 504 164 506 160 506 157 504 151 504 149 507 152 504 156 505 159 506 164 506 167 504 170 502 174 501 176 503 177 505 177 515 175 519 170 524 168 525 165 523 162 522 158 519 150 509 147 509 145 506 144 503 142 501 141 499 140 496 140 493 " style="stroke:gray;fill:none"/><path d="M178 487 178 490 179 487 180 489 " style="stroke:gray;fill:none"/><path d="M133 482 133 491 135 491 135 485 133 484 " style="stroke:gray;fill:none"/><path d="M134 488 134 491 " style="stroke:gray;fill:none"/><path d="M134 485 134 488 " style="stroke:gray;fill:none"/><path d="M136 483 137 481 141 481 143 483 141 486 140 484 138 484 141 486 138 489 137 491 137 493 138 495 137 493 137 491 138 489 142 486 142 484 142 481 " style="stroke:gray;fill:none"/><path d="M281 477 281 479 282 482 285 482 287 480 287 477 284 476 " style="stroke:gray;fill:none"/><path d="M283 476 286 477 287 479 285 480 283 482 283 480 281 478 " style="stroke:gray;fill:none"/><path d="M181 478 184 476 " style="stroke:gray;fill:none"/><path d="M130 474 133 479 141 479 141 477 136 477 133 474 " style="stroke:gray;fill:none"/><path d="M130 475 133 474 135 477 141 478 134 479 " style="stroke:gray;fill:none"/><path d="M99 473 97 474 94 477 92 480 92 482 90 484 89 488 88 491 88 502 89 504 92 507 97 507 101 506 104 504 106 504 110 503 112 501 114 501 117 499 120 497 123 495 128 490 129 488 129 482 126 479 126 475 125 479 122 480 116 480 113 479 107 476 105 474 103 473 " style="stroke:gray;fill:none"/><path d="M99 473 102 473 104 474 106 476 112 479 116 480 123 479 125 479 129 483 129 487 127 490 126 488 124 486 122 486 119 487 114 490 111 491 108 491 105 490 101 488 97 483 94 482 97 484 99 487 105 490 108 491 111 491 114 490 117 488 119 488 122 486 124 486 126 488 127 490 122 495 119 497 116 499 113 501 111 501 109 503 106 503 103 505 100 506 97 507 93 507 88 502 88 491 89 488 90 485 92 483 92 481 94 478 " style="stroke:gray;fill:none"/><path d="M27 473 28 477 31 476 30 473 " style="stroke:gray;fill:none"/><path d="M29 473 31 475 29 477 27 475 " style="stroke:gray;fill:none"/><path d="M178 464 179 469 178 464 180 462 " style="stroke:gray;fill:none"/><path d="M179 459 176 460 173 463 173 467 176 470 178 472 182 473 186 473 189 470 189 466 188 464 185 461 181 459 " style="stroke:gray;fill:none"/><path d="M179 459 181 459 183 460 189 466 189 469 185 473 182 473 179 472 176 470 174 468 173 466 173 464 177 460 " style="stroke:gray;fill:none"/><path d="M121 457 121 461 121 469 118 472 121 470 122 460 " style="stroke:gray;fill:none"/><path d="M102 447 102 451 102 460 103 464 104 466 111 473 114 474 122 474 125 473 128 470 129 468 130 465 131 459 131 456 128 453 126 453 118 454 112 451 107 446 " style="stroke:gray;fill:none"/><path d="M104 446 106 446 111 451 115 453 118 454 126 453 128 453 130 455 131 457 131 459 130 465 128 469 124 473 122 474 114 474 112 473 104 465 103 463 102 460 102 451 101 449 " style="stroke:gray;fill:none"/><path d="M134 442 136 442 " style="stroke:gray;fill:none"/><path d="M123 440 123 443 121 445 123 444 " style="stroke:gray;fill:none"/><path d="M353 438 354 441 357 440 357 437 " style="stroke:gray;fill:none"/><path d="M357 439 355 441 353 439 " style="stroke:gray;fill:none"/><path d="M106 434 105 436 106 438 105 440 102 443 105 441 " style="stroke:gray;fill:none"/><path d="M116 434 113 434 110 437 110 442 113 445 115 447 119 448 124 448 126 446 127 444 127 441 126 439 124 436 121 434 119 434 " style="stroke:gray;fill:none"/><path d="M116 434 120 434 122 436 124 438 127 441 127 443 126 445 123 448 119 448 116 447 113 445 111 443 110 441 110 438 114 434 " style="stroke:gray;fill:none"/><path d="M211 431 210 433 208 433 203 434 205 432 207 432 211 433 " style="stroke:gray;fill:none"/><path d="M178 429 174 431 171 434 169 438 168 442 168 452 170 454 168 452 168 442 169 438 170 436 176 430 178 429 188 429 191 430 193 431 197 435 195 432 191 430 188 429 " style="stroke:gray;fill:none"/><path d="M104 403 106 405 106 408 106 404 " style="stroke:gray;fill:none"/><path d="M98 401 100 402 98 401 100 400 " style="stroke:gray;fill:none"/><path d="M279 387 279 390 283 389 283 386 " style="stroke:gray;fill:none"/><path d="M283 388 279 388 " style="stroke:gray;fill:none"/><path d="M217 387 216 393 215 397 214 400 213 404 212 405 211 409 211 413 209 416 208 420 207 424 208 429 212 429 214 426 215 423 216 418 216 413 217 410 218 409 219 404 219 400 220 394 222 392 222 386 220 386 " style="stroke:gray;fill:none"/><path d="M218 392 220 394 220 399 219 404 218 409 217 412 216 413 216 418 215 423 214 425 212 428 209 429 207 427 207 424 208 420 209 416 211 413 211 409 212 405 213 401 214 398 215 395 " style="stroke:gray;fill:none"/><path d="M220 386 222 388 222 392 220 394 218 392 216 389 " style="stroke:gray;fill:none"/><path d="M226 384 226 386 228 386 228 384 " style="stroke:gray;fill:none"/><path d="M227 386 " style="stroke:gray;fill:none"/><path d="M106 384 106 388 105 393 104 394 103 398 104 401 108 404 108 401 108 399 111 396 112 393 112 386 111 383 " style="stroke:gray;fill:none"/><path d="M104 397 107 401 103 400 " style="stroke:gray;fill:none"/><path d="M108 383 111 384 112 386 112 392 111 395 108 398 104 397 104 394 105 389 106 385 " style="stroke:gray;fill:none"/><path d="M228 380 " style="stroke:gray;fill:none"/><path d="M188 377 " style="stroke:gray;fill:none"/><path d="M225 377 226 380 225 377 227 376 " style="stroke:gray;fill:none"/><path d="M139 376 137 377 133 381 132 383 132 385 132 388 132 390 135 396 137 399 139 401 143 404 146 406 156 411 160 412 164 413 170 414 180 414 187 413 191 412 194 411 197 410 200 408 203 406 201 408 197 410 194 411 191 412 187 413 180 414 170 414 164 413 160 412 156 411 148 407 145 405 141 402 136 397 134 394 132 390 132 388 132 385 132 383 " style="stroke:gray;fill:none"/><path d="M27 367 25 369 25 373 27 375 31 375 33 373 33 370 31 368 29 367 " style="stroke:gray;fill:none"/><path d="M29 367 33 372 30 375 28 375 25 372 25 370 " style="stroke:gray;fill:none"/><path d="M159 368 161 366 " style="stroke:gray;fill:none"/><path d="M118 366 115 370 113 370 111 371 113 370 115 370 117 369 " style="stroke:gray;fill:none"/><path d="M152 363 151 367 155 367 154 364 " style="stroke:gray;fill:none"/><path d="M152 363 154 364 154 367 150 365 " style="stroke:gray;fill:none"/><path d="M186 359 185 361 189 362 189 359 " style="stroke:gray;fill:none"/><path d="M188 362 185 361 " style="stroke:gray;fill:none"/><path d="M170 354 169 356 169 358 168 360 163 361 161 359 159 356 156 359 154 359 152 357 148 357 145 358 143 361 142 363 142 367 148 373 154 376 156 377 154 375 149 373 142 366 142 364 144 360 147 357 150 356 153 359 157 359 161 357 161 359 163 361 168 361 168 359 169 356 172 353 " style="stroke:gray;fill:none"/><path d="M139 352 " style="stroke:gray;fill:none"/><path d="M247 349 249 351 247 350 249 349 " style="stroke:gray;fill:none"/><path d="M190 349 191 352 183 354 179 353 173 355 172 357 171 361 170 364 170 370 166 371 161 370 159 370 157 372 157 375 159 377 161 378 165 379 184 378 185 376 185 373 184 371 188 370 190 374 191 377 193 375 195 374 197 370 198 366 199 360 199 355 198 353 196 352 190 351 " style="stroke:gray;fill:none"/><path d="M191 352 195 352 199 356 199 360 198 366 197 370 196 372 193 375 191 375 189 374 189 370 184 370 184 372 185 376 182 379 165 379 162 378 160 377 158 371 161 370 166 371 168 372 170 371 170 364 171 361 172 358 173 356 175 354 179 353 183 354 " style="stroke:gray;fill:none"/><path d="M146 341 146 343 146 346 144 343 146 346 146 350 146 348 148 346 150 348 153 346 150 348 147 345 146 343 149 343 152 343 150 343 " style="stroke:gray;fill:none"/><path d="M147 347 " style="stroke:gray;fill:none"/><path d="M332 337 330 340 332 342 334 342 336 341 336 338 334 337 " style="stroke:gray;fill:none"/><path d="M332 338 333 340 332 342 330 340 " style="stroke:gray;fill:none"/><path d="M104 330 101 333 98 337 96 340 94 344 93 347 92 351 92 358 93 361 94 364 101 371 103 372 107 372 110 374 113 374 117 373 119 372 122 369 122 366 121 364 118 363 111 356 109 353 109 352 105 348 105 346 107 344 108 347 108 345 108 342 107 330 " style="stroke:gray;fill:none"/><path d="M106 330 108 332 108 341 105 346 105 348 106 350 109 354 111 357 117 363 121 366 122 368 117 373 113 374 110 374 107 372 104 372 102 371 94 363 93 361 92 358 92 351 93 347 96 341 98 338 101 334 " style="stroke:gray;fill:none"/><path d="M243 327 239 328 236 329 224 335 221 337 216 341 210 347 209 350 218 340 223 336 226 334 236 329 239 328 243 327 246 327 248 328 250 331 248 328 246 327 " style="stroke:gray;fill:none"/><path d="M124 326 121 327 118 328 115 331 114 333 114 349 115 352 116 354 119 357 123 359 126 360 131 360 134 359 138 357 140 355 142 352 143 350 143 347 141 345 143 339 148 339 142 340 142 343 140 345 138 343 140 340 141 338 140 340 139 342 138 344 140 348 138 348 135 345 135 342 136 339 137 335 138 334 138 332 137 329 135 327 132 326 " style="stroke:gray;fill:none"/><path d="M142 346 142 350 140 348 " style="stroke:gray;fill:none"/><path d="M124 326 132 326 134 327 137 330 138 332 138 334 137 338 136 341 135 342 135 346 137 348 140 348 141 353 137 357 131 360 126 360 123 359 120 357 115 352 114 349 114 334 115 332 119 328 121 327 " style="stroke:gray;fill:none"/><path d="M140 320 " style="stroke:gray;fill:none"/><path d="M202 316 202 318 198 322 194 325 191 327 187 329 185 329 182 331 180 331 182 331 185 329 187 329 193 326 196 324 200 321 202 319 " style="stroke:gray;fill:none"/><path d="M233 315 224 324 220 327 217 329 214 330 212 332 210 332 205 335 202 336 199 337 195 338 190 339 184 340 161 339 156 339 154 340 154 343 156 345 158 346 163 347 173 348 172 351 172 349 174 347 183 348 183 351 183 349 185 347 193 346 203 346 206 349 206 354 205 358 204 359 204 364 203 370 202 374 200 377 196 381 194 381 191 383 188 384 184 385 166 385 162 384 158 383 155 382 152 381 150 379 143 376 137 370 134 367 131 367 128 370 123 376 122 376 119 379 118 381 118 383 117 385 114 386 118 387 118 394 115 400 112 403 111 405 111 407 109 409 109 411 107 414 106 417 105 420 104 424 104 427 106 431 108 432 111 429 113 428 115 428 118 428 121 428 125 430 130 435 132 438 132 439 135 439 137 440 139 438 142 434 145 430 145 424 144 422 143 420 145 418 146 421 148 421 151 422 153 422 156 423 158 424 162 424 164 426 163 429 160 427 158 432 157 435 157 449 156 454 155 458 154 462 153 465 148 474 147 477 147 484 149 488 153 492 155 493 162 493 165 492 168 491 170 490 174 487 178 483 178 480 177 478 175 476 169 471 167 466 167 463 168 460 172 456 176 454 184 454 189 457 192 457 194 455 196 451 197 448 198 445 199 441 200 437 201 430 201 424 202 420 203 417 204 413 205 409 206 406 207 405 207 402 208 398 209 394 210 390 211 387 213 383 219 377 234 363 238 358 240 355 243 351 245 348 252 334 253 331 253 327 249 323 247 323 245 322 242 320 237 315 " style="stroke:gray;fill:none"/><path d="M234 315 236 315 241 320 244 322 246 323 248 323 253 328 253 331 251 334 251 336 247 344 245 347 243 350 240 354 238 357 234 362 218 377 213 382 212 384 211 387 210 390 209 394 209 397 208 401 206 404 204 413 203 417 202 420 201 424 201 430 200 437 199 441 198 445 197 448 196 451 195 453 191 457 189 457 187 455 184 454 176 454 173 455 171 456 168 459 167 461 167 463 167 466 167 468 169 471 170 473 167 474 164 477 161 480 159 484 159 488 162 490 159 487 159 484 160 482 163 478 167 474 170 473 173 476 178 480 178 482 173 487 169 490 165 492 162 493 156 493 154 492 149 487 147 484 147 477 153 466 154 463 155 458 156 454 157 449 157 435 158 433 162 429 164 429 164 425 162 424 160 425 154 423 151 421 149 421 147 419 145 418 143 419 143 421 145 424 145 429 142 433 140 436 136 440 134 440 132 438 130 435 127 431 129 430 131 429 132 427 132 420 131 417 129 413 126 410 120 407 117 406 114 407 117 406 120 407 124 409 130 415 131 417 132 420 132 427 129 430 127 431 125 430 121 428 118 428 115 428 113 428 110 429 107 431 105 429 104 427 104 424 105 420 106 417 107 414 109 410 111 408 111 406 112 404 115 401 117 397 118 394 117 386 117 384 118 381 124 376 128 372 134 368 135 368 137 370 142 376 152 381 155 382 158 383 162 384 166 385 184 385 188 384 191 383 194 382 197 381 200 378 202 374 203 370 204 364 204 359 205 355 206 354 206 348 204 346 193 346 185 347 183 348 173 348 163 347 158 346 154 341 156 339 161 339 184 340 190 339 195 338 199 337 203 336 206 335 218 329 221 327 225 324 " style="stroke:gray;fill:none"/><path d="M123 311 125 313 124 316 119 316 117 317 110 324 107 324 105 328 112 326 106 326 108 324 110 324 112 323 115 319 117 317 119 316 125 315 125 313 127 311 " style="stroke:gray;fill:none"/><path d="M405 306 404 308 403 311 404 313 406 315 408 315 411 314 412 312 412 307 409 307 407 308 409 310 407 309 409 307 412 308 412 311 409 314 407 315 403 311 403 309 " style="stroke:gray;fill:none"/><path d="M229 301 226 303 224 303 222 305 217 307 215 309 213 309 210 311 207 312 204 313 200 314 197 315 193 316 189 317 184 318 174 319 152 319 142 318 141 317 138 318 136 316 133 316 131 318 132 320 137 321 142 325 147 330 149 331 152 332 156 333 161 334 186 334 191 333 195 332 198 331 201 330 204 329 207 328 213 325 216 323 220 320 229 311 231 308 233 305 233 302 231 300 " style="stroke:gray;fill:none"/><path d="M133 316 136 316 138 319 136 321 134 321 131 318 " style="stroke:gray;fill:none"/><path d="M229 301 231 301 233 304 231 306 229 309 229 310 219 320 215 323 212 325 204 329 201 330 198 331 195 332 191 333 186 334 161 334 156 333 152 332 149 331 142 325 137 320 138 318 141 317 151 318 152 319 174 319 184 318 189 317 193 316 197 315 200 314 204 313 207 312 210 311 213 309 215 309 223 305 225 303 " style="stroke:gray;fill:none"/><path d="M111 299 105 300 107 301 111 299 113 301 " style="stroke:gray;fill:none"/><path d="M92 292 " style="stroke:gray;fill:none"/><path d="M246 291 244 293 244 296 245 298 247 300 249 301 251 301 253 299 253 295 251 292 " style="stroke:gray;fill:none"/><path d="M247 291 249 291 251 293 253 296 253 298 249 301 244 296 244 294 " style="stroke:gray;fill:none"/><path d="M92 290 " style="stroke:gray;fill:none"/><path d="M199 285 " style="stroke:gray;fill:none"/><path d="M125 286 127 288 127 292 128 290 129 292 133 299 133 301 134 303 134 301 130 293 129 291 128 288 125 285 127 285 " style="stroke:gray;fill:none"/><path d="M127 288 127 291 " style="stroke:gray;fill:none"/><path d="M112 283 " style="stroke:gray;fill:none"/><path d="M102 282 99 283 " style="stroke:gray;fill:none"/><path d="M259 281 257 282 255 284 255 287 261 298 261 301 260 303 256 307 253 308 250 308 242 308 242 311 247 316 251 318 255 319 261 319 264 318 267 317 269 316 275 310 277 307 278 304 279 301 279 293 278 290 277 288 272 283 270 283 267 281 " style="stroke:gray;fill:none"/><path d="M259 281 267 281 271 283 277 289 279 293 279 301 278 304 277 306 275 309 268 316 264 318 261 319 255 319 252 318 248 316 242 309 244 307 250 308 253 308 257 307 259 305 261 307 262 309 264 310 271 310 264 310 259 305 261 301 261 298 260 295 258 291 256 289 255 287 255 285 " style="stroke:gray;fill:none"/><path d="M250 275 252 275 " style="stroke:gray;fill:none"/><path d="M140 272 136 274 136 279 138 281 142 281 144 280 143 273 " style="stroke:gray;fill:none"/><path d="M140 272 142 273 144 275 143 280 141 281 139 281 136 278 136 275 138 273 " style="stroke:gray;fill:none"/><path d="M240 263 239 266 " style="stroke:gray;fill:none"/><path d="M98 261 97 264 96 267 95 268 95 281 96 286 97 289 99 293 101 295 104 298 107 297 108 295 106 291 106 287 105 283 104 282 103 277 103 265 102 262 " style="stroke:gray;fill:none"/><path d="M97 263 102 263 103 265 103 277 104 282 105 286 106 287 106 291 108 295 105 298 103 297 101 295 99 292 97 289 96 286 95 281 95 268 96 265 " style="stroke:gray;fill:none"/><path d="M98 259 103 259 " style="stroke:gray;fill:none"/><path d="M273 252 272 254 273 252 274 254 " style="stroke:gray;fill:none"/><path d="M252 252 249 253 " style="stroke:gray;fill:none"/><path d="M111 251 109 255 108 262 108 265 109 268 112 271 112 278 114 281 114 285 112 287 112 290 113 293 114 296 116 299 116 301 117 303 122 308 128 307 128 303 127 301 125 299 125 297 123 294 123 292 122 289 121 287 117 283 116 281 115 274 115 269 117 267 117 253 114 250 " style="stroke:gray;fill:none"/><path d="M113 250 117 254 117 266 115 268 115 275 116 282 117 284 122 289 123 292 124 295 124 297 128 304 128 306 126 308 123 308 117 302 115 298 115 296 113 293 112 290 112 288 114 286 114 281 113 278 112 277 112 270 109 267 108 265 108 262 109 256 111 252 " style="stroke:gray;fill:none"/><path d="M26 243 26 247 30 246 30 243 " style="stroke:gray;fill:none"/><path d="M27 243 30 245 26 246 " style="stroke:gray;fill:none"/><path d="M285 238 283 239 282 241 281 243 281 246 278 248 277 252 276 247 276 253 278 254 278 249 281 246 281 243 282 241 285 238 285 236 " style="stroke:gray;fill:none"/><path d="M243 236 242 239 244 243 244 245 245 249 246 250 247 253 248 261 249 273 251 272 253 273 254 271 255 268 255 253 254 249 253 245 251 242 251 240 247 236 " style="stroke:gray;fill:none"/><path d="M243 237 246 236 251 241 253 245 254 249 255 253 255 268 254 271 252 273 250 273 248 271 248 261 247 253 246 250 245 246 244 245 243 242 242 239 " style="stroke:gray;fill:none"/><path d="M130 236 128 237 126 238 124 240 122 244 120 246 116 245 117 242 119 242 116 241 116 243 116 246 122 247 123 266 123 272 122 274 124 276 125 281 124 283 126 282 124 280 124 276 122 273 124 272 122 264 122 247 121 245 123 242 127 238 " style="stroke:gray;fill:none"/><path d="M390 236 386 236 390 236 393 236 392 244 386 243 389 239 388 241 390 241 390 239 388 238 386 238 386 244 393 244 392 235 " style="stroke:gray;fill:none"/><path d="M228 238 228 240 229 244 230 247 232 252 235 254 234 256 236 258 234 261 235 264 235 266 236 268 234 270 233 272 233 282 233 285 234 287 236 288 233 289 239 286 240 284 241 281 242 275 242 272 240 268 237 268 235 266 235 264 238 262 239 258 238 254 237 252 239 250 239 247 238 244 237 241 233 236 " style="stroke:gray;fill:none"/><path d="M239 268 241 270 242 272 242 275 241 281 239 285 236 288 233 282 233 272 235 269 " style="stroke:gray;fill:none"/><path d="M235 261 " style="stroke:gray;fill:none"/><path d="M237 256 239 258 236 261 " style="stroke:gray;fill:none"/><path d="M237 256 235 257 234 255 " style="stroke:gray;fill:none"/><path d="M231 235 233 236 235 238 237 242 237 244 239 247 239 250 237 251 236 253 234 253 231 250 230 246 229 243 228 239 230 237 " style="stroke:gray;fill:none"/><path d="M228 235 " style="stroke:gray;fill:none"/><path d="M341 235 337 237 340 237 343 234 " style="stroke:gray;fill:none"/><path d="M152 234 149 235 147 237 145 239 143 241 141 245 141 248 141 251 141 253 142 256 143 258 147 262 149 263 152 264 161 264 164 263 166 261 168 259 170 257 171 255 171 244 169 240 165 236 163 235 160 234 " style="stroke:gray;fill:none"/><path d="M152 234 160 234 163 235 169 241 171 244 171 255 168 259 166 261 163 263 161 264 152 264 148 262 142 256 141 253 141 251 141 248 141 245 142 243 145 239 148 236 " style="stroke:gray;fill:none"/><path d="M112 234 112 239 112 242 113 245 112 248 112 246 112 242 112 239 " style="stroke:gray;fill:none"/><path d="M278 233 277 236 276 239 275 240 274 243 274 247 274 243 275 240 276 237 278 233 278 238 278 240 278 238 280 235 281 237 282 235 280 235 " style="stroke:gray;fill:none"/><path d="M339 232 337 233 336 235 331 236 335 237 331 236 336 235 339 232 343 232 " style="stroke:gray;fill:none"/><path d="M314 232 311 233 310 235 312 237 319 236 312 237 311 233 314 232 316 231 319 234 322 235 318 232 " style="stroke:gray;fill:none"/><path d="M237 228 236 230 237 228 238 230 " style="stroke:gray;fill:none"/><path d="M168 225 164 226 163 227 156 227 153 228 149 229 146 230 141 233 139 233 136 233 134 233 132 236 134 234 134 236 137 235 140 233 142 233 147 230 150 229 153 228 157 227 164 227 168 226 169 225 188 225 191 226 197 229 205 237 207 240 209 244 210 248 211 255 211 260 213 265 211 266 210 268 210 270 209 273 207 276 203 276 201 280 200 282 201 280 202 278 206 278 204 281 204 282 201 286 197 290 193 292 191 293 188 297 186 298 184 298 182 299 179 301 176 304 170 307 168 307 163 310 160 311 153 311 151 313 148 313 142 312 138 310 135 307 135 305 132 304 131 302 132 304 134 305 135 308 137 310 141 312 147 312 151 314 151 315 157 316 159 314 164 314 168 314 170 316 175 316 169 315 176 314 180 313 181 312 187 311 189 312 193 311 197 310 200 309 203 308 206 307 209 305 211 305 220 300 223 298 226 298 223 298 225 296 227 295 226 291 227 287 228 286 228 284 228 286 227 290 226 293 225 295 220 300 217 302 211 305 209 305 206 307 203 308 200 309 197 310 193 311 189 312 187 311 181 312 177 313 176 314 167 314 164 314 157 314 157 316 151 315 151 313 153 311 161 311 164 310 166 309 168 307 170 307 178 303 181 300 184 299 187 299 189 299 186 298 189 296 193 298 196 298 204 294 207 292 210 289 212 286 216 278 216 268 215 266 215 263 213 262 211 259 210 254 210 248 209 244 206 238 204 235 198 229 192 226 188 225 " style="stroke:gray;fill:none"/><path d="M213 265 216 268 216 278 213 284 211 287 205 293 202 295 196 298 193 298 191 297 190 295 193 292 196 291 199 289 201 287 204 283 206 280 208 276 208 274 209 271 210 268 " style="stroke:gray;fill:none"/><path d="M134 234 137 234 " style="stroke:gray;fill:none"/><path d="M295 221 297 223 296 228 293 229 292 231 291 234 290 237 288 240 285 243 284 245 283 247 285 245 288 241 290 238 292 234 292 232 293 230 295 228 297 228 297 223 " style="stroke:gray;fill:none"/><path d="M169 221 164 222 161 224 159 223 156 224 152 225 149 227 147 227 145 228 147 227 149 227 152 225 156 224 159 223 161 224 164 222 169 221 185 222 191 221 194 223 197 222 202 223 206 224 209 225 212 226 216 228 221 233 222 235 222 237 224 240 225 243 226 247 227 251 228 257 229 262 229 265 229 268 229 280 228 282 229 280 229 268 229 265 229 262 228 257 227 251 226 246 225 242 223 239 223 237 220 231 218 229 212 226 209 225 206 224 202 223 197 222 194 223 190 221 185 222 " style="stroke:gray;fill:none"/><path d="M226 220 228 223 227 225 224 226 226 226 228 224 229 228 231 231 233 232 230 229 229 227 228 224 228 222 " style="stroke:gray;fill:none"/><path d="M351 222 348 223 346 225 342 227 340 227 337 229 334 230 319 230 334 230 338 229 341 227 343 227 345 226 348 224 352 222 354 219 " style="stroke:gray;fill:none"/><path d="M266 219 266 221 268 221 268 219 " style="stroke:gray;fill:none"/><path d="M267 221 " style="stroke:gray;fill:none"/><path d="M263 219 262 228 264 227 262 227 263 219 264 224 266 226 264 223 " style="stroke:gray;fill:none"/><path d="M357 220 355 222 356 225 360 226 366 225 366 220 364 218 " style="stroke:gray;fill:none"/><path d="M364 218 366 220 365 226 360 226 357 225 355 223 " style="stroke:gray;fill:none"/><path d="M282 212 280 213 278 215 279 218 282 218 285 220 292 226 290 225 287 221 284 219 282 218 278 217 278 215 280 213 284 213 285 213 288 216 290 219 292 222 292 224 292 221 289 217 287 214 284 212 " style="stroke:gray;fill:none"/><path d="M253 208 253 230 252 232 250 234 248 234 252 235 251 233 253 231 " style="stroke:gray;fill:none"/><path d="M251 205 " style="stroke:gray;fill:none"/><path d="M249 205 249 208 " style="stroke:gray;fill:none"/><path d="M275 204 275 206 273 207 273 211 273 213 272 216 270 219 270 224 268 227 268 233 266 236 265 239 264 242 264 254 263 257 262 260 260 263 261 269 260 276 257 279 254 279 253 281 255 279 257 279 259 278 261 270 262 272 265 274 274 273 275 276 273 278 273 280 275 282 273 280 273 278 275 276 275 273 276 270 277 268 280 265 280 263 282 260 284 256 289 251 289 249 292 243 296 239 297 237 299 235 300 233 300 230 303 227 306 228 303 227 301 228 300 230 300 233 297 235 296 238 292 242 289 248 289 250 284 255 282 260 280 262 280 264 278 265 277 267 276 269 276 271 274 273 272 274 266 274 264 273 261 270 263 268 263 266 266 262 263 265 260 268 260 263 262 260 263 257 264 254 264 242 265 239 266 236 268 234 268 227 270 225 271 230 272 228 272 225 270 225 270 220 272 217 274 218 276 221 274 223 274 225 275 222 276 226 274 228 275 230 274 234 273 237 272 240 270 241 269 245 267 243 267 241 267 244 269 245 268 259 269 267 272 266 274 261 278 256 274 260 273 263 270 264 268 262 268 259 269 246 270 242 272 241 273 235 274 232 275 231 276 227 276 218 273 218 272 215 273 211 272 209 275 206 " style="stroke:gray;fill:none"/><path d="M269 263 272 265 268 266 " style="stroke:gray;fill:none"/><path d="M249 203 " style="stroke:gray;fill:none"/><path d="M167 202 170 202 174 203 177 204 180 205 186 208 189 210 191 212 191 214 191 211 188 209 180 205 177 204 174 203 170 202 " style="stroke:gray;fill:none"/><path d="M322 201 321 205 323 208 325 210 329 209 329 203 327 201 " style="stroke:gray;fill:none"/><path d="M325 200 329 204 329 208 326 210 323 207 321 203 " style="stroke:gray;fill:none"/><path d="M259 202 258 216 259 228 259 234 257 236 254 237 253 239 256 236 259 235 259 228 258 216 259 202 261 200 " style="stroke:gray;fill:none"/><path d="M166 199 163 200 162 201 157 201 153 202 150 203 147 204 144 205 140 207 138 209 135 210 131 213 127 216 122 221 120 224 118 227 115 233 115 238 118 238 120 237 123 235 125 233 128 231 131 230 133 228 141 224 143 224 146 222 149 221 152 220 155 219 159 218 164 217 173 216 190 216 197 217 203 218 206 219 210 220 213 221 214 222 218 223 221 224 224 223 224 219 218 213 214 210 211 208 201 203 198 202 195 201 191 200 187 199 " style="stroke:gray;fill:none"/><path d="M166 199 187 199 191 200 195 201 198 202 201 204 203 204 209 207 213 210 216 212 224 220 224 222 220 223 218 223 214 222 211 221 210 220 206 219 203 218 197 217 190 216 173 216 164 217 159 218 155 219 152 220 149 221 146 222 143 223 138 226 136 226 134 227 132 229 127 231 125 233 122 235 119 237 115 237 115 233 116 231 118 228 120 225 122 222 128 216 132 213 136 210 139 209 141 207 145 205 147 205 150 203 153 202 157 201 162 201 " style="stroke:gray;fill:none"/><path d="M371 196 369 202 369 204 371 203 370 201 372 201 " style="stroke:gray;fill:none"/><path d="M371 196 371 201 " style="stroke:gray;fill:none"/><path d="M238 196 238 204 239 208 241 211 241 220 244 228 247 225 246 214 246 208 247 215 246 221 244 221 247 222 247 224 245 227 242 227 241 220 241 211 239 208 238 204 " style="stroke:gray;fill:none"/><path d="M360 191 359 194 359 197 360 199 365 200 365 203 364 206 362 210 360 213 357 217 358 215 360 213 362 211 362 209 364 207 365 204 366 199 366 194 365 192 363 190 " style="stroke:gray;fill:none"/><path d="M362 190 366 194 365 199 361 199 359 197 359 194 360 192 " style="stroke:gray;fill:none"/><path d="M75 172 74 174 74 180 78 179 78 176 76 176 78 177 77 180 75 180 73 178 73 176 74 174 " style="stroke:gray;fill:none"/><path d="M361 166 362 168 363 170 362 168 " style="stroke:gray;fill:none"/><path d="M331 166 327 167 326 168 321 168 317 169 316 170 303 171 290 172 281 172 255 170 256 168 254 171 247 171 231 171 229 169 232 168 229 168 231 171 231 175 233 178 237 184 241 186 240 190 241 193 243 194 243 196 243 194 241 192 240 190 241 186 243 187 246 190 249 192 254 194 256 196 258 197 255 200 253 204 255 200 258 197 261 197 264 198 267 199 271 200 272 201 275 202 280 202 294 201 297 200 301 199 305 198 308 197 311 196 319 192 322 190 325 188 337 176 340 172 340 170 341 168 339 166 " style="stroke:gray;fill:none"/><path d="M331 166 338 166 341 169 340 171 337 175 324 188 321 190 318 192 315 193 313 195 311 196 308 197 305 198 302 196 304 194 307 193 309 191 312 190 315 188 317 186 319 184 321 182 325 182 329 180 333 176 331 178 327 181 325 182 320 182 314 181 308 180 306 178 303 178 300 176 297 175 297 173 298 176 300 177 303 178 307 179 296 180 291 179 287 178 285 177 283 174 282 176 281 174 282 176 284 177 287 178 291 179 296 180 313 180 318 181 320 183 318 185 317 183 318 185 316 186 313 189 310 191 302 195 300 195 298 196 301 195 301 199 298 199 295 200 294 201 280 202 276 202 272 201 268 200 265 199 262 198 259 197 253 194 250 192 247 190 245 188 246 185 242 183 246 185 245 188 243 187 233 177 231 174 231 172 233 170 246 170 280 171 281 172 290 172 303 171 304 170 316 170 320 171 323 173 326 172 330 172 335 168 337 171 337 169 335 168 333 168 329 172 327 173 323 173 320 171 316 170 321 168 326 168 " style="stroke:gray;fill:none"/><path d="M353 166 352 169 354 173 357 175 359 178 359 179 361 182 364 182 364 180 366 178 368 184 368 186 367 190 368 191 368 193 368 191 367 187 368 186 368 184 367 179 365 177 364 174 360 170 359 166 357 165 " style="stroke:gray;fill:none"/><path d="M355 165 357 165 359 167 361 172 364 175 365 177 365 179 364 181 362 182 360 180 358 177 358 176 353 171 352 169 353 167 " style="stroke:gray;fill:none"/><path d="M352 162 348 166 346 171 344 173 343 176 340 180 330 190 325 194 322 196 319 197 317 199 309 203 306 204 303 205 298 205 294 206 291 209 291 212 293 215 301 223 304 225 310 228 313 229 315 229 313 228 311 228 305 225 302 223 293 214 291 210 295 206 298 205 303 205 307 204 310 203 318 199 320 197 323 196 326 194 331 190 340 181 343 177 344 174 346 172 348 167 355 161 357 162 359 164 358 162 356 162 " style="stroke:gray;fill:none"/><path d="M360 157 360 159 362 159 360 158 364 159 363 157 " style="stroke:gray;fill:none"/><path d="M378 151 378 153 379 155 383 154 383 152 381 150 " style="stroke:gray;fill:none"/><path d="M380 150 382 155 380 155 378 152 " style="stroke:gray;fill:none"/><path d="M210 147 210 145 " style="stroke:gray;fill:none"/><path d="M213 144 212 146 213 144 214 146 " style="stroke:gray;fill:none"/><path d="M3 145 4 148 7 148 6 144 " style="stroke:gray;fill:none"/><path d="M5 144 5 148 3 146 " style="stroke:gray;fill:none"/><path d="M0 139 0 141 0 145 0 147 0 149 2 149 0 141 " style="stroke:gray;fill:none"/><path d="M360 128 358 129 357 132 360 135 364 138 364 140 361 143 359 144 356 145 352 146 348 147 344 148 338 149 332 150 323 151 314 152 303 153 289 154 270 155 246 155 228 154 220 153 215 152 210 151 205 146 206 144 208 142 211 140 210 135 207 135 204 136 201 138 199 138 197 139 192 144 191 146 191 148 192 151 195 154 201 157 203 157 206 159 209 160 213 161 218 162 223 163 231 164 239 165 256 166 288 166 302 165 314 164 320 163 326 162 331 161 336 160 341 159 345 158 349 157 352 156 355 155 358 154 361 153 364 151 366 151 370 149 373 147 377 143 378 141 378 137 373 132 371 132 366 129 363 128 " style="stroke:gray;fill:none"/><path d="M360 128 363 128 366 129 372 132 378 138 378 140 377 142 372 147 369 149 361 153 358 154 355 155 352 156 349 157 345 158 341 159 336 160 331 161 326 162 320 163 314 164 302 165 288 166 256 166 239 165 231 164 223 163 218 162 213 161 209 160 206 159 203 157 201 157 199 156 196 154 192 150 191 148 191 146 198 139 204 136 207 135 209 135 211 137 211 139 208 142 205 145 205 147 208 150 210 151 215 152 220 153 228 154 246 155 270 155 289 154 303 153 314 152 323 151 332 150 338 149 344 148 348 147 352 146 356 145 359 144 362 143 364 141 364 137 362 135 357 131 " style="stroke:gray;fill:none"/><path d="M428 128 " style="stroke:gray;fill:none"/><path d="M423 127 422 129 421 126 " style="stroke:gray;fill:none"/><path d="M422 123 420 124 424 124 425 126 424 123 " style="stroke:gray;fill:none"/><path d="M359 120 356 121 354 122 353 124 354 127 357 127 361 126 363 124 361 126 357 127 353 126 353 124 356 121 359 120 361 122 363 122 361 121 " style="stroke:gray;fill:none"/><path d="M350 111 352 112 350 111 352 110 " style="stroke:gray;fill:none"/><path d="M209 99 210 102 210 98 211 100 211 98 " style="stroke:gray;fill:none"/><path d="M343 90 344 92 346 97 348 99 348 101 348 98 345 95 344 92 " style="stroke:gray;fill:none"/><path d="M197 86 197 88 196 90 200 87 204 88 206 91 206 92 210 96 209 94 206 90 204 87 201 86 " style="stroke:gray;fill:none"/><path d="M161 86 158 87 155 90 152 94 152 96 149 101 148 104 147 108 146 115 146 120 147 125 148 129 149 132 153 140 155 143 156 145 158 147 158 149 161 151 161 153 160 160 162 162 162 170 163 177 165 180 165 182 167 186 170 190 173 191 176 193 186 193 191 194 195 195 198 196 201 197 204 198 207 199 210 200 211 202 213 203 215 204 222 204 226 202 229 199 235 198 232 201 229 202 231 201 233 201 235 199 234 196 236 194 237 191 236 189 235 187 233 182 232 184 229 181 227 178 224 174 224 173 219 168 217 167 214 166 209 165 206 165 203 164 200 163 196 161 192 158 187 153 185 150 184 147 185 144 186 142 193 135 200 132 202 130 205 130 207 129 207 124 199 124 195 125 191 126 187 127 185 129 182 130 178 133 172 139 169 143 167 148 165 150 164 154 163 157 162 162 160 160 161 153 161 151 158 148 159 146 156 144 155 141 153 139 148 129 147 125 146 120 146 115 147 108 148 104 149 101 151 99 152 97 152 95 155 91 159 87 161 86 163 86 165 87 168 89 172 92 175 94 179 97 183 100 185 103 189 106 194 110 195 110 199 114 198 118 196 119 193 120 191 120 187 121 181 124 179 126 176 127 169 134 167 136 164 140 158 143 161 144 164 141 167 137 167 136 174 129 178 126 188 121 191 120 194 119 197 119 199 118 199 113 196 110 193 108 192 108 186 103 184 100 176 94 173 92 169 89 166 87 163 86 " style="stroke:gray;fill:none"/><path d="M199 124 207 125 207 128 205 130 202 130 192 135 187 140 185 144 184 147 185 150 187 154 190 157 194 160 196 161 193 162 194 166 201 169 204 171 206 173 203 175 201 175 197 174 196 173 193 173 189 175 185 179 184 181 185 184 194 184 199 181 201 181 205 180 203 180 201 181 199 181 194 184 186 184 184 181 191 174 193 173 196 173 200 174 201 175 203 175 206 174 206 172 203 170 196 167 194 162 196 161 199 162 202 163 205 164 206 165 209 165 214 166 218 168 224 174 227 178 229 181 229 182 236 189 237 191 236 193 233 196 229 199 225 202 222 204 215 204 213 203 211 200 208 200 205 199 202 198 199 197 198 196 195 195 191 194 186 193 176 193 172 191 169 188 167 185 165 181 165 179 163 176 162 170 162 162 163 157 164 154 165 151 168 145 171 141 179 133 184 129 188 127 191 126 195 125 " style="stroke:gray;fill:none"/><path d="M139 87 136 88 133 91 134 95 142 95 144 93 143 87 " style="stroke:gray;fill:none"/><path d="M141 86 144 89 144 93 142 95 135 95 133 92 138 87 " style="stroke:gray;fill:none"/><path d="M367 86 369 88 367 87 371 86 370 91 366 90 371 91 371 85 " style="stroke:gray;fill:none"/><path d="M341 85 339 91 340 94 341 96 343 98 346 102 347 107 349 106 349 103 348 106 347 103 343 99 342 96 340 94 339 91 341 85 342 88 " style="stroke:gray;fill:none"/><path d="M227 93 224 97 220 101 218 102 216 101 213 99 215 101 219 101 221 101 226 97 227 94 229 92 230 94 230 91 239 82 " style="stroke:gray;fill:none"/><path d="M257 80 259 80 264 83 267 84 270 85 273 86 276 87 279 88 282 89 285 90 288 91 291 92 294 93 297 94 300 95 303 96 306 97 309 98 312 99 315 100 318 101 321 102 324 103 327 104 330 105 332 105 336 105 338 104 336 105 332 105 330 105 327 104 324 103 321 102 318 101 315 100 312 99 309 98 306 97 303 96 300 95 297 94 294 93 291 92 288 91 285 90 282 89 279 88 276 87 273 86 270 85 267 84 264 83 259 80 " style="stroke:gray;fill:none"/><path d="M250 78 249 80 247 81 246 79 247 81 243 82 241 82 244 83 242 84 235 91 231 96 228 100 228 102 222 113 221 115 218 114 221 115 221 118 220 125 219 130 218 131 218 139 219 144 221 146 223 147 230 148 242 149 243 152 242 150 244 148 250 149 244 148 242 149 230 148 224 147 222 146 219 143 218 139 218 131 219 126 220 125 220 119 221 116 222 113 228 101 231 97 235 92 243 84 246 83 250 80 253 78 " style="stroke:gray;fill:none"/><path d="M140 72 138 73 137 77 137 75 142 73 141 77 139 77 142 77 142 72 " style="stroke:gray;fill:none"/><path d="M276 70 270 71 267 72 263 73 260 74 258 75 255 78 255 80 249 86 248 88 247 91 247 93 244 98 243 103 244 105 242 112 242 125 243 130 244 134 245 137 248 142 248 144 250 146 252 148 287 148 304 147 312 146 313 145 323 145 333 144 338 143 342 142 347 141 349 139 350 137 350 125 349 121 348 118 347 115 346 112 345 109 341 101 339 98 337 95 334 91 330 87 326 84 322 81 318 78 312 75 309 74 306 74 308 74 311 75 317 78 321 81 325 84 329 87 334 92 337 96 339 99 341 102 343 107 345 109 346 112 347 115 348 118 349 121 350 125 350 136 349 138 346 141 342 142 338 143 333 144 323 145 313 145 305 146 304 147 287 148 253 148 252 146 248 143 245 137 244 134 243 130 242 125 243 111 245 114 248 116 272 128 274 128 279 131 282 132 284 132 289 135 292 136 294 136 297 138 299 138 302 140 304 140 308 142 310 143 308 142 304 140 302 140 299 138 297 138 294 136 292 136 289 135 284 132 282 132 279 131 274 128 272 128 250 117 247 115 244 112 243 110 243 107 245 105 249 105 258 109 260 111 270 116 272 116 281 121 283 121 286 123 289 124 291 124 296 127 298 127 301 128 306 131 308 131 311 133 313 133 320 137 322 137 324 138 326 140 326 142 326 139 324 138 322 137 320 137 313 133 311 133 308 131 306 131 301 128 299 128 296 127 291 124 289 124 286 123 283 121 281 121 272 116 270 116 262 112 260 110 249 105 246 105 244 102 244 99 245 96 247 93 247 91 249 87 251 85 252 87 253 89 255 90 257 90 260 91 263 93 265 93 268 94 271 95 274 97 277 98 280 99 283 100 286 100 289 101 292 103 295 104 298 105 301 105 304 107 307 107 310 108 313 109 316 110 319 111 322 112 325 113 328 114 331 115 334 116 337 117 339 118 343 122 344 124 345 139 344 137 344 124 343 121 341 119 337 117 334 116 331 115 328 114 325 113 322 112 319 111 316 110 313 109 310 108 307 107 304 107 301 105 298 105 295 104 292 103 289 101 286 100 283 100 280 99 277 98 274 97 271 95 269 95 266 94 263 93 260 91 258 91 255 90 252 87 251 85 252 83 255 79 259 75 261 74 264 73 267 72 271 71 276 70 293 70 301 72 294 71 " style="stroke:gray;fill:none"/><path d="M151 70 149 71 147 73 147 78 149 78 153 79 157 76 159 78 162 78 164 79 167 81 170 83 174 86 177 88 182 92 186 95 191 99 197 105 204 111 210 116 215 115 215 113 214 111 205 102 197 95 193 92 189 89 186 87 183 85 180 83 177 81 166 76 164 74 162 74 164 74 164 76 166 76 176 81 179 83 182 85 185 87 188 89 192 92 196 95 204 102 214 112 215 114 213 116 211 116 206 111 199 105 198 105 192 99 187 95 183 92 178 88 175 86 171 83 168 81 165 79 163 78 160 78 158 77 156 75 157 72 160 73 157 72 154 71 153 70 " style="stroke:gray;fill:none"/><path d="M151 70 153 70 155 71 156 75 150 78 147 77 147 74 " style="stroke:gray;fill:none"/><path d="M161 69 162 71 164 72 164 68 " style="stroke:gray;fill:none"/><path d="M161 69 163 68 164 72 " style="stroke:gray;fill:none"/><path d="M195 67 195 69 " style="stroke:gray;fill:none"/><path d="M302 67 302 69 304 71 306 72 308 71 308 66 " style="stroke:gray;fill:none"/><path d="M303 66 309 67 308 71 306 72 304 71 302 69 " style="stroke:gray;fill:none"/><path d="M176 66 176 68 178 68 178 66 " style="stroke:gray;fill:none"/><path d="M177 68 " style="stroke:gray;fill:none"/><path d="M64 60 62 61 62 63 66 63 66 60 " style="stroke:gray;fill:none"/><path d="M66 62 64 64 62 62 " style="stroke:gray;fill:none"/><path d="M62 59 " style="stroke:gray;fill:none"/><path d="M202 51 201 54 199 57 198 62 199 75 195 76 192 73 190 72 185 72 183 73 182 77 183 79 186 81 190 84 195 84 194 77 199 75 200 78 201 81 202 82 203 84 202 82 201 79 200 76 198 74 198 62 199 58 200 55 201 54 " style="stroke:gray;fill:none"/><path d="M185 72 189 72 191 73 194 76 195 78 194 84 191 84 187 81 185 79 183 77 182 75 " style="stroke:gray;fill:none"/><path d="M197 41 195 43 195 49 195 43 197 41 200 40 202 42 203 45 202 47 200 49 197 50 196 52 195 57 194 51 193 62 193 69 193 62 195 57 196 60 196 52 200 49 202 47 203 45 202 41 200 40 " style="stroke:gray;fill:none"/><path d="M281 32 278 35 277 37 278 40 279 42 282 42 285 39 285 34 283 33 " style="stroke:gray;fill:none"/><path d="M281 32 283 33 285 35 285 39 282 42 280 42 278 40 277 37 279 34 " style="stroke:gray;fill:none"/><path d="M221 30 219 30 216 32 213 34 210 37 206 42 205 45 210 38 214 34 217 32 220 30 221 30 223 29 " style="stroke:gray;fill:none"/><path d="M247 25 249 26 252 26 255 27 257 29 256 32 259 35 266 41 267 41 269 43 272 47 277 58 279 60 277 58 272 48 272 46 269 43 267 41 261 36 259 30 262 31 265 33 274 42 277 46 281 54 282 57 282 59 281 61 277 65 271 65 267 66 264 67 261 68 258 69 246 75 243 77 241 79 239 80 241 79 244 77 247 75 261 68 264 67 268 66 271 65 277 65 279 64 281 62 282 59 282 57 281 54 279 51 279 49 278 47 276 44 274 41 266 33 263 31 259 29 257 29 255 27 252 26 249 26 " style="stroke:gray;fill:none"/><path d="M233 26 235 25 243 25 " style="stroke:gray;fill:none"/><path d="M338 26 339 29 343 29 345 28 345 24 344 28 342 29 340 29 339 25 341 25 343 26 341 24 " style="stroke:gray;fill:none"/><path d="M266 24 270 25 270 23 " style="stroke:gray;fill:none"/><path d="M266 24 270 24 " style="stroke:gray;fill:none"/><path d="M243 21 244 23 243 21 245 20 " style="stroke:gray;fill:none"/><path d="M227 20 225 21 222 23 221 25 223 27 225 27 229 26 231 25 230 20 " style="stroke:gray;fill:none"/><path d="M227 20 229 20 231 22 231 24 229 26 225 27 223 27 221 25 224 22 " style="stroke:gray;fill:none"/></svg>