<svg width="429px" height="547px" xmlns="http://www.w3.org/2000/svg"><path d="M170 500 166 504 157 504 154 503 152 502 150 503 149 505 149 509 149 510 151 513 158 520 161 522 165 524 167 524 171 524 174 521 176 517 177 514 177 504 176 502 175 500 173 499 " style="stroke:gray;fill:none"/><path d="M173 499 176 502 177 504 177 514 176 517 175 519 167 524 165 524 162 522 159 520 151 512 149 509 148 507 149 505 154 503 157 504 166 504 168 503 " style="stroke:gray;fill:none"/><path d="M142 490 140 492 140 497 143 503 145 505 146 507 144 504 142 499 140 497 140 493 143 490 146 491 149 495 152 497 154 498 164 498 167 496 171 495 174 497 172 496 169 493 170 495 167 496 164 498 154 498 152 497 149 494 147 492 145 490 " style="stroke:gray;fill:none"/><path d="M126 479 129 482 129 486 129 482 " style="stroke:gray;fill:none"/><path d="M98 479 " style="stroke:gray;fill:none"/><path d="M96 478 94 481 91 483 90 485 89 488 88 491 88 502 89 504 92 507 97 507 101 506 104 505 115 499 117 499 120 497 123 495 126 492 127 490 127 488 126 486 122 486 120 486 115 489 111 490 107 490 104 489 102 488 97 483 96 480 96 478 99 476 " style="stroke:gray;fill:none"/><path d="M97 481 97 483 98 485 100 487 104 489 107 490 111 490 115 489 120 486 122 486 124 485 126 491 122 495 119 497 116 499 104 505 101 506 97 507 93 507 88 502 88 491 89 488 90 485 " style="stroke:gray;fill:none"/><path d="M162 479 160 482 159 484 159 488 160 490 162 490 159 487 159 485 160 483 162 480 168 474 " style="stroke:gray;fill:none"/><path d="M99 473 97 474 94 478 97 474 99 473 103 473 105 474 107 476 113 479 116 480 122 479 124 479 122 479 116 480 113 479 109 477 106 474 104 474 " style="stroke:gray;fill:none"/><path d="M178 464 178 466 180 470 179 468 178 465 181 462 " style="stroke:gray;fill:none"/><path d="M179 459 175 461 173 463 172 465 173 468 177 472 181 473 186 473 189 470 189 466 188 464 185 461 181 459 " style="stroke:gray;fill:none"/><path d="M179 459 181 459 183 460 188 465 189 467 189 469 185 473 182 473 178 472 173 467 172 465 177 460 " style="stroke:gray;fill:none"/><path d="M120 456 122 459 122 465 121 469 119 472 121 470 122 465 122 458 " style="stroke:gray;fill:none"/><path d="M102 447 102 460 103 464 104 466 110 472 112 473 115 474 120 475 122 474 125 473 128 470 129 468 130 465 131 459 131 456 130 454 126 453 118 454 115 453 113 452 107 446 " style="stroke:gray;fill:none"/><path d="M104 446 106 446 112 452 115 453 118 454 126 453 128 453 131 456 131 459 130 465 128 469 124 473 122 474 120 475 115 474 111 472 104 465 103 463 102 460 102 448 " style="stroke:gray;fill:none"/><path d="M124 441 120 446 " style="stroke:gray;fill:none"/><path d="M113 434 110 437 110 442 114 446 116 447 119 448 124 448 127 445 128 448 126 450 124 450 127 450 128 448 128 446 127 441 126 440 126 438 128 436 126 438 123 435 121 434 " style="stroke:gray;fill:none"/><path d="M114 434 120 434 122 435 126 439 127 441 127 444 123 448 119 448 116 447 110 441 110 438 " style="stroke:gray;fill:none"/><path d="M179 429 176 430 174 431 172 433 170 436 169 439 168 444 168 452 171 454 168 451 168 444 169 440 170 437 172 434 175 431 177 430 180 429 186 429 190 430 194 432 197 436 197 434 195 432 191 430 187 429 " style="stroke:gray;fill:none"/><path d="M114 407 119 407 123 409 126 411 128 413 130 416 131 418 132 421 132 424 131 427 129 430 131 428 132 425 132 420 131 417 130 415 128 413 126 411 124 409 120 407 " style="stroke:gray;fill:none"/><path d="M219 388 217 389 216 391 216 393 215 396 214 397 214 400 213 404 212 408 211 409 210 412 209 416 208 420 207 424 208 429 211 429 213 427 214 425 215 422 216 417 217 412 217 408 218 404 219 403 220 399 221 393 221 390 " style="stroke:gray;fill:none"/><path d="M219 388 221 390 221 393 220 399 219 403 218 407 217 408 217 412 216 417 215 422 214 425 209 429 207 427 207 424 208 420 209 416 210 412 211 409 212 405 213 401 214 397 215 394 216 391 " style="stroke:gray;fill:none"/><path d="M107 383 106 385 106 388 105 393 104 394 105 399 105 402 107 402 109 399 112 393 112 385 111 383 " style="stroke:gray;fill:none"/><path d="M108 383 110 383 112 385 112 393 111 395 109 398 107 400 104 397 104 394 105 389 106 385 " style="stroke:gray;fill:none"/><path d="M138 377 135 380 133 382 132 384 132 390 135 396 141 402 145 405 148 407 154 410 157 411 160 412 163 413 167 414 183 414 188 413 191 412 194 411 197 410 201 408 203 406 201 407 196 410 193 411 190 412 187 413 183 414 168 414 164 413 161 412 158 411 155 410 149 407 146 405 142 402 135 395 132 389 132 385 133 383 135 380 137 378 140 377 " style="stroke:gray;fill:none"/><path d="M27 367 25 369 25 373 27 375 31 375 33 373 33 369 31 367 " style="stroke:gray;fill:none"/><path d="M28 367 30 367 33 370 33 372 30 375 28 375 25 372 25 370 " style="stroke:gray;fill:none"/><path d="M188 359 186 361 189 362 " style="stroke:gray;fill:none"/><path d="M188 359 186 361 " style="stroke:gray;fill:none"/><path d="M189 352 177 353 175 354 173 355 171 358 171 362 169 365 168 370 158 370 156 371 155 373 156 375 159 377 161 378 165 379 171 380 180 380 184 379 186 377 187 375 185 371 187 370 185 371 186 376 183 379 180 380 171 380 165 379 161 378 158 376 155 373 158 370 169 370 169 365 171 362 171 359 172 357 175 354 177 353 189 352 195 352 199 356 199 360 198 367 197 370 196 372 193 375 191 375 189 374 191 375 193 376 196 373 197 371 198 367 199 360 199 355 197 353 195 352 " style="stroke:gray;fill:none"/><path d="M170 350 169 352 167 352 164 352 159 351 156 351 152 353 150 355 148 355 144 359 142 363 142 367 149 374 152 375 154 376 152 375 150 374 147 372 144 369 142 366 142 364 143 361 144 359 147 356 150 355 152 353 156 351 159 351 164 352 167 352 173 353 171 352 " style="stroke:gray;fill:none"/><path d="M104 330 101 333 98 337 94 345 93 348 92 352 92 357 93 360 94 363 95 365 100 370 104 372 108 373 117 373 119 372 122 369 122 366 121 364 118 363 111 356 110 353 105 348 105 346 107 344 108 342 107 330 " style="stroke:gray;fill:none"/><path d="M106 330 108 332 108 341 105 346 105 348 106 350 111 355 111 357 117 363 119 363 122 366 122 368 117 373 108 373 104 372 101 370 95 364 93 360 92 357 92 352 93 348 94 345 96 341 98 338 101 334 " style="stroke:gray;fill:none"/><path d="M240 328 237 329 234 330 226 334 223 336 220 338 208 350 221 338 224 336 227 334 235 330 238 329 241 328 247 328 250 331 248 328 " style="stroke:gray;fill:none"/><path d="M127 326 121 327 118 328 115 331 114 333 114 348 115 352 116 354 119 357 123 359 126 360 132 360 138 357 141 354 143 351 143 349 141 347 139 348 137 347 135 345 135 343 136 339 137 338 137 329 135 327 132 326 " style="stroke:gray;fill:none"/><path d="M127 326 132 326 134 327 137 330 137 338 136 342 135 343 136 347 141 347 143 350 141 353 137 357 134 358 132 360 126 360 123 359 120 357 115 352 114 348 114 333 119 328 121 327 " style="stroke:gray;fill:none"/><path d="M200 316 197 322 193 325 190 327 184 330 182 330 179 332 177 332 179 332 182 331 185 330 191 327 194 325 198 322 202 318 " style="stroke:gray;fill:none"/><path d="M234 315 232 316 224 324 220 327 216 330 214 330 212 332 210 332 208 333 206 335 202 336 199 337 195 338 190 339 184 340 161 339 154 340 154 343 156 345 158 346 164 347 170 348 172 348 181 347 184 347 195 346 203 346 205 348 206 350 206 354 205 358 204 359 204 364 203 370 202 373 200 377 196 381 194 382 191 383 188 384 184 385 164 385 160 384 157 383 154 382 144 377 137 370 134 367 131 367 128 370 124 375 118 380 118 391 117 396 116 398 114 401 112 403 111 405 111 407 107 414 106 417 105 420 104 424 104 427 106 432 108 432 111 429 113 428 121 428 123 429 126 431 130 435 133 440 137 440 139 438 142 434 145 430 145 428 145 425 145 423 145 420 148 420 151 421 156 424 158 424 161 424 161 429 159 427 161 429 158 432 157 441 157 451 156 455 155 459 154 462 153 465 152 468 147 477 147 484 148 486 150 489 153 492 156 493 163 493 171 489 174 487 178 483 178 480 177 478 174 475 170 472 167 468 166 466 166 464 167 461 172 456 175 454 184 454 186 456 188 457 191 457 193 456 195 454 196 451 197 448 198 444 199 440 200 436 201 431 201 425 202 421 203 417 204 413 205 410 206 409 206 405 207 402 208 398 209 394 210 391 211 390 211 386 213 383 219 377 233 364 238 358 241 354 243 351 244 348 246 346 251 336 251 334 253 331 253 328 251 324 249 323 247 323 244 321 241 318 238 316 236 315 " style="stroke:gray;fill:none"/><path d="M234 315 236 315 239 318 243 321 250 324 252 326 253 328 253 331 251 334 251 336 250 338 248 340 248 342 246 345 244 347 243 350 241 353 238 357 233 363 218 377 213 382 211 386 211 390 210 393 209 394 208 398 207 402 206 405 206 409 205 412 204 413 203 417 202 421 201 425 201 431 200 436 199 440 198 444 197 448 196 451 195 453 191 457 188 457 186 455 184 454 175 454 173 455 170 457 168 459 167 461 166 464 166 466 168 470 170 473 172 475 178 480 178 482 173 487 170 489 167 490 165 492 163 493 156 493 154 492 149 487 147 484 147 477 152 468 153 465 154 462 155 459 156 455 157 451 157 441 158 433 163 429 163 425 161 424 156 424 151 421 148 420 144 420 144 422 145 425 145 429 142 433 139 437 136 440 134 440 132 438 130 435 130 434 128 432 124 429 121 428 113 428 110 429 108 431 105 430 104 427 104 424 105 420 106 417 107 414 108 412 110 410 111 408 111 406 112 404 114 402 116 399 117 397 118 391 118 381 125 375 128 372 132 367 134 367 137 370 142 376 145 378 149 380 151 380 154 382 157 383 160 384 164 385 184 385 188 384 191 383 195 382 197 381 200 378 202 374 203 370 204 364 204 359 205 355 206 354 206 349 205 347 195 346 184 347 181 347 172 348 170 348 164 347 158 346 154 342 155 340 161 339 184 340 190 339 195 338 199 337 203 336 206 335 218 329 221 327 225 324 " style="stroke:gray;fill:none"/><path d="M192 310 194 312 192 311 194 310 " style="stroke:gray;fill:none"/><path d="M184 311 182 312 179 312 179 314 181 314 183 311 187 311 190 310 187 311 " style="stroke:gray;fill:none"/><path d="M180 314 " style="stroke:gray;fill:none"/><path d="M261 306 264 310 271 310 265 310 " style="stroke:gray;fill:none"/><path d="M132 306 134 306 138 310 140 311 137 312 133 308 135 310 131 312 135 312 133 313 136 311 138 312 141 314 146 314 147 312 154 313 174 315 175 313 177 313 154 313 143 312 139 310 134 305 " style="stroke:gray;fill:none"/><path d="M154 314 174 314 " style="stroke:gray;fill:none"/><path d="M141 313 146 313 " style="stroke:gray;fill:none"/><path d="M139 312 142 312 " style="stroke:gray;fill:none"/><path d="M135 312 " style="stroke:gray;fill:none"/><path d="M130 302 130 304 132 302 " style="stroke:gray;fill:none"/><path d="M131 304 " style="stroke:gray;fill:none"/><path d="M229 301 224 303 222 305 219 307 215 309 213 309 210 311 207 312 204 313 201 314 198 315 194 316 189 317 184 318 175 319 151 319 140 317 137 317 133 317 133 320 135 321 137 321 143 327 147 330 150 331 153 332 157 333 162 334 184 333 187 334 191 332 195 332 198 331 201 330 204 329 207 328 213 325 216 323 220 320 229 311 232 307 233 304 233 302 231 300 " style="stroke:gray;fill:none"/><path d="M231 300 233 302 233 304 232 306 229 310 219 320 215 323 212 325 204 329 201 330 198 331 195 332 191 332 187 334 184 333 162 334 157 333 153 332 150 331 148 330 144 327 138 321 135 321 134 317 137 317 140 317 151 319 175 319 184 318 189 317 194 316 198 315 201 314 204 313 207 312 210 311 213 309 215 309 223 305 225 303 228 302 " style="stroke:gray;fill:none"/><path d="M247 291 245 292 244 297 247 300 251 300 252 300 254 296 251 292 " style="stroke:gray;fill:none"/><path d="M247 291 249 291 251 293 253 296 253 298 249 301 244 296 244 294 " style="stroke:gray;fill:none"/><path d="M260 281 256 283 255 285 255 288 256 290 258 292 260 295 261 297 261 302 257 306 255 307 247 307 243 307 242 310 243 312 246 315 252 318 255 319 261 319 264 318 270 315 276 309 277 306 278 303 279 300 279 294 278 291 277 288 273 284 269 282 266 281 " style="stroke:gray;fill:none"/><path d="M260 281 266 281 269 282 272 284 277 289 278 291 279 294 279 300 278 303 276 306 276 308 268 316 264 318 261 319 255 319 252 318 248 316 242 309 247 307 256 307 258 306 260 304 261 302 261 297 260 294 258 291 256 289 255 287 255 285 258 282 " style="stroke:gray;fill:none"/><path d="M125 277 125 281 126 285 127 289 128 291 130 293 132 297 132 299 134 301 135 303 134 301 127 288 126 284 125 280 " style="stroke:gray;fill:none"/><path d="M139 272 137 273 137 281 144 280 145 278 145 276 141 272 " style="stroke:gray;fill:none"/><path d="M139 272 141 272 145 276 145 278 142 281 138 281 136 279 136 275 " style="stroke:gray;fill:none"/><path d="M236 268 233 271 232 282 232 285 233 287 235 288 237 288 239 286 240 284 241 281 242 272 240 268 " style="stroke:gray;fill:none"/><path d="M237 268 239 268 241 270 242 272 241 281 239 285 235 288 232 285 232 282 233 272 " style="stroke:gray;fill:none"/><path d="M97 262 97 264 96 267 95 268 95 279 96 285 97 288 100 293 100 295 103 298 105 298 107 297 107 293 107 291 106 287 105 286 104 283 103 277 103 267 102 262 " style="stroke:gray;fill:none"/><path d="M97 263 102 263 103 267 103 277 104 283 105 286 106 290 107 291 107 293 108 295 104 298 100 294 97 288 96 285 95 279 95 268 96 265 " style="stroke:gray;fill:none"/><path d="M111 251 109 255 108 258 108 260 108 264 109 268 112 271 112 278 113 281 114 282 114 284 112 287 112 290 113 293 114 296 116 299 116 301 117 303 123 309 125 309 128 308 128 304 127 301 125 299 125 297 124 294 122 291 122 289 121 287 117 283 116 281 115 279 116 274 115 269 117 267 117 254 114 251 " style="stroke:gray;fill:none"/><path d="M113 250 117 254 117 266 115 268 116 274 115 279 116 281 117 284 122 289 123 292 123 294 125 297 125 299 128 304 127 308 124 309 117 302 114 296 113 293 112 290 112 288 114 285 114 282 113 279 112 278 112 271 111 269 109 267 108 264 109 261 108 258 109 255 111 252 " style="stroke:gray;fill:none"/><path d="M124 243 123 247 122 265 123 273 123 276 121 276 121 278 123 278 124 275 124 273 123 266 122 265 122 249 123 245 " style="stroke:gray;fill:none"/><path d="M122 278 " style="stroke:gray;fill:none"/><path d="M26 244 27 247 29 247 29 243 " style="stroke:gray;fill:none"/><path d="M29 244 26 246 " style="stroke:gray;fill:none"/><path d="M123 239 123 241 125 241 125 239 " style="stroke:gray;fill:none"/><path d="M124 241 " style="stroke:gray;fill:none"/><path d="M243 236 243 240 243 242 244 245 245 248 246 249 247 253 248 260 249 274 253 273 254 271 255 268 255 254 254 249 253 246 252 243 250 239 247 236 " style="stroke:gray;fill:none"/><path d="M244 236 246 236 250 240 253 246 254 249 255 254 255 268 254 271 250 274 248 272 248 260 247 253 246 249 245 246 244 245 243 242 243 240 242 238 " style="stroke:gray;fill:none"/><path d="M229 236 228 238 228 240 229 244 230 248 232 251 230 254 230 258 231 260 231 263 230 267 231 270 230 267 231 263 232 262 232 260 230 258 230 254 232 251 235 254 236 262 236 264 235 266 236 264 236 261 235 253 230 248 229 244 228 240 228 238 231 235 236 240 238 244 239 247 239 249 237 252 237 255 239 258 239 261 239 264 240 266 238 263 239 258 238 255 237 254 237 252 239 250 239 247 238 244 235 238 232 235 " style="stroke:gray;fill:none"/><path d="M152 234 149 235 146 237 144 239 141 245 141 253 142 256 143 258 147 262 151 264 161 264 164 263 166 261 168 259 170 257 171 255 172 250 172 248 171 244 169 240 165 236 161 234 " style="stroke:gray;fill:none"/><path d="M152 234 161 234 164 236 170 242 171 244 172 248 172 250 171 255 169 258 165 262 161 264 151 264 149 263 142 256 141 253 141 245 143 241 148 236 " style="stroke:gray;fill:none"/><path d="M175 225 167 226 160 227 155 228 151 229 147 230 142 233 139 232 141 231 144 229 141 228 138 229 140 229 143 229 141 231 139 231 135 231 135 233 138 234 133 236 132 234 130 234 130 237 127 240 129 239 130 237 135 235 137 235 140 233 142 233 145 231 148 230 151 229 155 228 160 227 167 226 175 225 188 225 191 226 195 228 198 230 204 236 207 240 208 242 209 245 210 248 210 255 211 261 212 262 212 265 210 268 209 271 209 273 209 271 210 268 211 266 213 265 216 268 216 278 213 284 210 288 205 293 202 295 196 298 193 298 190 295 192 293 195 292 199 289 202 285 205 281 206 278 207 274 205 274 203 276 202 279 200 281 199 284 199 288 197 290 193 293 188 297 186 297 182 299 180 301 177 303 174 305 172 305 169 307 167 307 164 309 161 310 158 310 156 311 158 310 161 310 164 309 167 307 169 307 172 305 174 305 176 304 179 302 181 300 184 298 186 297 188 297 191 297 193 298 196 298 204 294 207 292 209 290 212 286 216 278 216 268 215 266 212 264 211 261 210 255 210 248 209 245 208 242 206 238 203 234 200 231 197 229 191 226 188 225 " style="stroke:gray;fill:none"/><path d="M208 275 206 278 205 280 202 284 199 287 199 284 201 281 202 278 204 275 " style="stroke:gray;fill:none"/><path d="M131 236 " style="stroke:gray;fill:none"/><path d="M137 233 140 233 " style="stroke:gray;fill:none"/><path d="M136 233 " style="stroke:gray;fill:none"/><path d="M198 224 202 224 205 225 209 226 212 227 214 228 220 234 222 238 223 241 223 245 224 249 226 252 227 256 228 261 227 265 228 282 227 286 225 289 225 292 224 294 218 300 210 304 207 305 205 305 202 306 198 308 196 309 198 311 198 309 200 307 202 306 204 306 207 305 210 304 220 299 223 296 225 292 225 289 227 286 228 282 227 265 228 261 227 256 225 253 224 249 223 245 223 241 222 238 219 232 216 229 212 227 209 226 206 226 203 225 200 222 " style="stroke:gray;fill:none"/><path d="M197 311 " style="stroke:gray;fill:none"/><path d="M199 224 " style="stroke:gray;fill:none"/><path d="M178 221 169 222 163 223 159 224 156 225 155 226 152 227 150 227 152 227 155 226 158 225 159 224 163 223 169 222 178 221 181 221 191 222 192 223 196 223 196 221 193 221 182 222 181 221 " style="stroke:gray;fill:none"/><path d="M192 222 196 222 " style="stroke:gray;fill:none"/><path d="M269 202 271 202 273 204 279 204 286 203 290 205 291 209 291 212 293 215 301 223 311 228 315 229 319 230 328 230 336 229 339 228 342 227 350 223 354 220 357 217 360 213 362 208 364 206 365 203 364 205 361 211 357 216 352 221 348 224 342 227 339 228 336 229 328 230 319 230 315 229 311 228 303 224 292 213 292 209 292 206 290 205 286 203 279 204 274 204 271 202 " style="stroke:gray;fill:none"/><path d="M165 202 168 202 172 203 176 204 179 206 181 206 183 207 185 209 188 210 190 212 192 214 190 213 192 212 189 210 186 209 184 207 182 206 179 205 176 204 173 203 169 202 " style="stroke:gray;fill:none"/><path d="M321 201 321 205 322 207 325 210 329 209 329 203 326 200 " style="stroke:gray;fill:none"/><path d="M323 200 325 200 329 204 329 208 326 210 321 205 321 202 " style="stroke:gray;fill:none"/><path d="M166 199 163 200 162 201 157 201 154 202 151 203 148 204 145 205 137 209 134 211 131 213 127 216 123 220 120 224 118 227 116 232 115 236 115 238 119 238 123 235 125 233 128 231 131 229 145 222 148 221 151 220 154 219 158 218 163 217 171 216 191 216 196 217 197 218 203 218 207 219 210 220 214 221 215 222 218 223 221 224 223 224 225 223 224 221 224 219 218 213 214 210 211 208 201 203 198 202 195 201 190 200 184 199 " style="stroke:gray;fill:none"/><path d="M166 199 184 199 190 200 195 201 198 202 201 203 209 207 213 210 217 213 224 220 225 222 223 224 221 224 218 223 215 222 211 221 210 220 207 219 203 218 197 218 192 217 191 216 171 216 163 217 158 218 154 219 151 220 148 221 145 222 134 228 132 228 130 229 127 231 124 233 122 235 118 238 115 237 114 235 115 233 116 231 118 228 120 225 123 221 128 216 132 213 135 211 139 208 145 205 148 204 151 203 154 202 157 201 162 201 " style="stroke:gray;fill:none"/><path d="M247 192 " style="stroke:gray;fill:none"/><path d="M361 190 359 192 359 197 360 199 365 201 366 199 366 195 365 192 364 190 " style="stroke:gray;fill:none"/><path d="M363 190 365 192 366 195 366 198 364 200 362 200 359 197 359 193 " style="stroke:gray;fill:none"/><path d="M367 182 367 192 " style="stroke:gray;fill:none"/><path d="M233 180 " style="stroke:gray;fill:none"/><path d="M74 175 73 177 74 180 78 179 78 177 76 175 " style="stroke:gray;fill:none"/><path d="M76 175 78 177 77 180 73 179 73 177 " style="stroke:gray;fill:none"/><path d="M318 171 " style="stroke:gray;fill:none"/><path d="M329 172 326 173 323 173 321 172 323 173 328 173 330 172 332 169 " style="stroke:gray;fill:none"/><path d="M233 168 233 170 230 173 229 171 230 176 230 173 233 176 232 178 234 178 238 184 241 185 239 186 241 188 243 189 241 191 241 195 242 197 245 199 246 204 245 220 242 219 241 212 241 202 239 200 239 198 235 198 232 199 229 202 226 203 224 205 222 206 219 206 217 207 216 209 219 206 222 206 226 204 228 202 231 201 234 198 237 197 239 199 241 202 241 212 243 220 246 220 246 204 245 199 241 195 241 191 243 189 244 187 245 189 247 189 249 191 251 192 249 193 251 192 254 194 252 195 254 195 254 193 251 192 247 189 244 187 238 181 233 176 231 172 233 170 238 170 247 171 249 169 271 170 274 170 283 169 288 171 280 172 277 172 252 171 250 171 252 171 277 172 280 172 287 172 307 171 308 170 316 170 308 170 288 171 284 170 283 169 274 170 271 170 249 169 248 168 " style="stroke:gray;fill:none"/><path d="M241 185 244 187 240 187 " style="stroke:gray;fill:none"/><path d="M233 169 249 169 247 171 239 171 " style="stroke:gray;fill:none"/><path d="M231 168 " style="stroke:gray;fill:none"/><path d="M362 167 " style="stroke:gray;fill:none"/><path d="M334 168 336 166 340 167 340 170 339 172 336 176 324 188 321 190 318 192 315 194 311 196 308 197 306 197 304 198 302 196 305 193 307 192 309 192 311 191 314 189 318 186 318 181 316 180 308 180 306 178 304 178 301 177 299 176 298 173 298 176 300 176 303 177 307 179 297 180 292 179 290 178 288 178 285 177 284 174 285 177 288 178 290 178 292 179 297 180 316 180 319 184 317 186 313 189 310 191 306 193 303 194 302 196 306 197 308 197 311 196 319 192 322 190 325 188 336 177 339 173 340 171 340 166 " style="stroke:gray;fill:none"/><path d="M354 164 352 165 352 171 357 177 361 182 365 182 366 180 366 178 363 172 361 170 360 167 358 165 356 164 " style="stroke:gray;fill:none"/><path d="M354 164 356 164 360 168 362 171 364 174 366 178 366 180 364 182 361 181 356 175 352 170 352 166 " style="stroke:gray;fill:none"/><path d="M326 164 321 165 317 166 317 168 321 168 326 167 331 167 326 167 321 168 319 169 317 167 321 165 326 164 329 164 331 165 329 164 " style="stroke:gray;fill:none"/><path d="M348 160 346 161 344 163 344 165 348 166 348 168 346 171 345 173 342 174 342 177 338 182 334 184 330 190 326 193 322 196 318 198 316 196 316 199 313 201 311 202 309 202 306 204 303 205 298 205 297 202 298 205 294 206 297 206 303 205 306 204 309 202 312 202 315 200 317 198 319 198 323 196 327 193 331 190 335 186 340 180 344 175 346 172 348 168 348 166 352 162 348 166 344 163 346 161 348 160 351 160 " style="stroke:gray;fill:none"/><path d="M355 159 354 161 356 162 358 162 360 164 358 162 355 159 357 157 " style="stroke:gray;fill:none"/><path d="M274 151 278 151 " style="stroke:gray;fill:none"/><path d="M251 151 265 151 " style="stroke:gray;fill:none"/><path d="M291 150 294 150 " style="stroke:gray;fill:none"/><path d="M282 150 287 150 " style="stroke:gray;fill:none"/><path d="M299 149 303 149 " style="stroke:gray;fill:none"/><path d="M308 148 310 148 " style="stroke:gray;fill:none"/><path d="M342 145 339 145 344 144 " style="stroke:gray;fill:none"/><path d="M340 142 333 143 325 144 324 145 312 145 305 146 304 147 288 148 266 149 250 149 230 148 231 150 244 150 230 149 250 149 266 149 288 148 304 147 311 146 312 145 325 144 333 145 335 145 332 144 340 142 344 142 " style="stroke:gray;fill:none"/><path d="M218 139 219 142 220 144 223 147 223 149 228 149 228 147 222 146 219 142 " style="stroke:gray;fill:none"/><path d="M223 148 228 148 " style="stroke:gray;fill:none"/><path d="M189 139 190 141 193 140 189 140 192 138 " style="stroke:gray;fill:none"/><path d="M358 129 358 133 360 135 364 138 364 140 360 144 356 145 352 146 349 147 345 148 339 149 332 150 324 151 315 152 306 153 294 154 287 154 284 154 278 155 237 155 225 154 219 153 214 152 210 151 208 150 205 147 205 145 210 140 211 138 210 136 206 136 204 136 199 139 197 139 192 144 191 147 192 151 195 154 201 157 204 158 207 159 211 160 215 161 218 162 224 163 233 164 244 165 271 166 290 166 299 165 300 164 310 164 318 163 324 162 330 161 336 160 341 159 345 158 349 157 352 156 355 155 358 154 361 153 364 151 366 151 370 149 373 147 377 143 378 140 378 138 377 136 373 132 371 132 366 129 362 128 " style="stroke:gray;fill:none"/><path d="M360 128 362 128 366 129 372 132 378 138 378 140 377 142 372 147 369 149 361 153 358 154 355 155 352 156 349 157 345 158 341 159 336 160 330 161 324 162 318 163 310 164 300 164 291 165 290 166 271 166 244 165 233 164 224 163 218 162 215 161 211 160 207 159 204 158 201 157 199 156 196 154 192 150 191 147 192 145 198 139 204 136 206 136 208 135 211 138 206 143 205 145 205 148 207 150 209 150 213 151 214 152 219 153 225 154 237 155 278 155 284 154 287 154 294 154 306 153 315 152 324 151 332 150 339 149 345 148 349 147 352 146 356 145 360 144 362 143 364 141 364 137 362 135 358 132 358 130 " style="stroke:gray;fill:none"/><path d="M220 125 219 127 217 130 214 132 214 135 216 137 219 136 218 133 " style="stroke:gray;fill:none"/><path d="M218 128 218 133 215 136 215 132 " style="stroke:gray;fill:none"/><path d="M198 124 193 125 191 127 189 128 187 129 186 127 183 130 180 131 176 134 173 137 171 140 168 144 167 146 167 148 164 153 163 157 162 164 162 166 163 169 165 173 168 177 170 179 176 184 179 185 191 185 195 184 196 183 200 182 209 182 212 183 214 184 212 183 214 182 214 178 215 175 217 172 217 170 213 166 209 165 206 165 203 164 200 163 197 162 193 160 186 153 185 151 184 148 184 144 185 142 187 139 185 141 184 144 184 148 185 151 186 154 191 159 197 162 200 163 203 164 206 165 209 165 213 166 216 172 216 174 215 177 214 180 213 182 210 183 200 182 196 183 192 184 191 185 179 185 176 184 173 180 167 175 165 172 163 169 162 166 162 164 163 157 164 153 168 145 171 142 172 139 177 134 181 131 185 129 187 129 190 127 192 127 194 125 198 124 201 124 207 126 207 128 205 130 202 130 199 132 197 132 191 135 189 137 191 136 193 134 195 134 197 132 199 132 202 130 205 130 207 129 207 125 201 124 " style="stroke:gray;fill:none"/><path d="M221 113 220 115 221 113 222 116 220 121 219 117 219 120 218 122 219 120 220 122 221 120 222 116 " style="stroke:gray;fill:none"/><path d="M161 86 159 87 155 91 153 94 149 102 148 105 147 109 147 124 148 128 149 132 151 134 153 139 155 141 156 143 158 144 160 144 163 142 164 140 169 134 175 128 178 126 181 124 187 121 190 120 193 120 198 118 198 114 198 113 191 106 186 102 180 97 176 94 173 93 171 91 167 88 163 86 " style="stroke:gray;fill:none"/><path d="M161 86 163 86 165 87 169 90 172 92 175 94 179 97 185 102 190 106 199 116 196 119 193 120 190 120 187 121 179 125 176 127 173 129 169 133 165 138 165 139 161 143 157 143 154 140 152 137 149 131 148 128 147 124 147 109 148 105 149 102 152 96 154 93 159 88 159 92 156 95 159 92 159 88 " style="stroke:gray;fill:none"/><path d="M240 84 238 86 242 85 239 88 237 90 234 91 234 93 233 95 232 93 229 99 229 101 228 103 226 105 225 108 223 110 223 112 225 109 225 107 227 105 229 100 234 95 237 90 239 89 242 86 242 84 " style="stroke:gray;fill:none"/><path d="M237 90 " style="stroke:gray;fill:none"/><path d="M160 75 162 78 164 78 169 83 173 86 177 89 178 89 182 92 186 95 191 99 197 105 204 111 210 116 214 115 214 111 205 102 197 95 193 92 189 89 185 86 182 84 179 82 177 82 173 80 171 78 168 78 165 76 162 75 " style="stroke:gray;fill:none"/><path d="M162 77 165 76 168 78 170 78 178 82 181 84 184 86 188 89 192 92 196 95 204 102 214 112 214 114 211 116 206 111 199 105 192 99 187 95 183 92 179 89 175 86 174 86 170 83 166 79 164 78 " style="stroke:gray;fill:none"/><path d="M164 74 " style="stroke:gray;fill:none"/><path d="M187 72 184 73 182 75 182 78 184 80 187 82 190 84 194 84 195 82 195 77 191 73 189 72 " style="stroke:gray;fill:none"/><path d="M187 72 189 72 195 78 195 82 193 84 191 84 188 82 185 80 182 76 185 73 " style="stroke:gray;fill:none"/><path d="M266 71 " style="stroke:gray;fill:none"/><path d="M150 71 147 74 148 78 152 78 154 78 157 76 157 72 154 71 " style="stroke:gray;fill:none"/><path d="M155 71 157 76 155 76 153 78 150 79 147 75 " style="stroke:gray;fill:none"/><path d="M280 68 279 70 276 71 275 69 270 69 268 70 270 69 275 70 271 71 268 72 267 73 262 72 261 74 258 73 261 74 259 75 256 78 251 83 248 89 247 92 246 95 246 97 244 100 243 103 242 113 242 124 243 129 244 133 245 136 246 139 248 142 249 145 251 146 253 147 251 146 248 143 246 139 245 136 244 133 243 129 242 124 244 112 245 114 248 116 270 127 272 127 279 131 282 132 284 132 289 135 292 136 294 136 297 138 299 138 302 140 304 140 308 142 310 143 308 142 304 140 302 140 299 138 297 138 294 136 292 136 289 135 284 132 282 132 279 131 272 127 270 127 250 117 247 115 243 111 244 105 246 105 249 105 258 109 260 111 270 116 272 116 281 121 283 121 286 123 289 124 291 124 296 127 298 127 301 128 306 131 308 131 311 133 313 133 320 137 322 137 324 138 327 142 326 139 324 138 322 137 320 137 313 133 311 133 308 131 306 131 301 128 299 128 296 127 291 124 289 124 286 123 283 121 281 121 272 116 270 116 262 112 260 110 249 105 246 105 244 102 244 100 246 97 246 95 247 92 248 89 249 87 251 85 253 89 255 90 257 90 260 91 263 93 265 93 268 94 269 95 271 95 274 96 277 97 280 99 283 100 286 100 289 101 292 103 295 104 298 105 301 105 304 107 307 107 310 108 313 109 316 110 319 111 322 112 325 113 328 114 331 115 334 116 337 117 339 118 343 122 344 124 344 138 349 139 350 128 349 122 348 117 347 114 346 111 343 105 341 103 339 98 334 92 325 85 323 83 323 80 321 80 321 82 323 84 325 85 332 92 334 94 339 99 341 104 344 107 344 109 346 111 347 114 348 117 349 122 350 128 350 137 345 139 344 137 344 124 337 117 334 116 331 115 328 114 325 113 322 112 319 111 316 110 313 109 310 108 307 107 304 107 301 105 298 105 295 104 292 103 289 101 286 100 283 100 280 99 277 97 275 97 272 96 269 95 266 94 263 93 260 91 258 91 255 90 252 87 251 84 256 79 259 80 264 83 267 84 270 85 273 86 276 87 279 88 282 89 285 90 288 91 291 92 294 93 297 94 300 95 303 96 306 97 309 98 312 99 315 100 318 101 321 102 324 103 327 104 330 105 333 106 335 106 337 104 339 104 337 104 335 105 332 105 330 105 327 104 324 103 321 102 318 101 315 100 312 99 309 98 306 97 303 96 300 95 297 94 294 93 291 92 288 91 285 90 282 89 279 88 276 87 273 86 270 85 267 84 264 83 259 80 256 79 257 76 259 76 261 75 262 73 264 74 267 73 270 72 271 71 279 70 291 70 294 71 295 72 300 73 305 73 308 73 309 75 311 77 315 78 317 80 319 81 317 79 312 77 311 73 309 73 306 73 305 71 303 71 301 73 295 71 298 69 302 69 298 69 295 69 293 69 292 71 290 68 " style="stroke:gray;fill:none"/><path d="M322 82 " style="stroke:gray;fill:none"/><path d="M310 75 " style="stroke:gray;fill:none"/><path d="M307 74 " style="stroke:gray;fill:none"/><path d="M263 74 " style="stroke:gray;fill:none"/><path d="M302 72 305 72 " style="stroke:gray;fill:none"/><path d="M294 71 " style="stroke:gray;fill:none"/><path d="M279 69 290 69 " style="stroke:gray;fill:none"/><path d="M255 30 " style="stroke:gray;fill:none"/><path d="M236 25 230 26 227 27 224 29 222 29 220 30 217 32 213 35 209 39 207 42 204 46 203 48 203 50 201 53 200 56 199 60 199 71 200 76 201 80 202 83 205 89 207 92 209 95 212 98 216 101 220 101 223 105 222 102 220 101 222 100 224 98 227 94 227 93 241 79 245 76 248 74 260 68 263 67 266 66 270 65 275 64 280 63 283 66 278 64 275 64 270 65 266 66 263 67 260 68 246 75 243 77 239 80 228 91 225 95 225 96 220 101 217 101 214 99 208 93 206 90 204 87 204 85 202 83 201 79 200 76 199 71 199 60 200 56 201 53 204 47 206 44 208 41 215 34 218 32 221 30 227 27 230 26 236 25 248 25 252 26 255 27 258 30 260 30 262 31 265 33 275 43 277 46 279 49 280 51 281 54 282 57 282 59 279 61 277 59 277 57 275 54 275 52 274 50 272 48 272 46 270 43 265 38 260 34 256 32 258 33 264 38 271 45 273 50 275 52 275 54 277 57 277 59 279 61 281 61 282 59 282 57 281 54 280 51 277 45 275 42 267 34 263 31 261 30 259 30 257 29 255 27 252 26 248 25 " style="stroke:gray;fill:none"/><path d="M338 25 338 27 341 29 343 27 342 24 " style="stroke:gray;fill:none"/><path d="M340 24 343 25 343 27 340 29 338 26 " style="stroke:gray;fill:none"/></svg>