<svg width="429px" height="547px" xmlns="http://www.w3.org/2000/svg"><path d="M173 500 171 501 167 505 157 505 153 503 151 504 149 507 149 509 151 513 157 519 160 521 163 523 165 524 171 524 175 520 176 517 177 514 177 505 176 502 175 500 " style="stroke:gray;fill:none"/><path d="M175 501 177 505 177 514 176 517 175 519 170 524 166 524 164 523 161 521 158 519 151 512 149 509 149 507 153 503 157 505 167 505 169 504 " style="stroke:gray;fill:none"/><path d="M141 492 140 494 140 496 143 502 145 505 147 508 146 506 144 503 142 500 140 496 140 494 144 491 146 493 148 496 152 498 155 499 163 499 166 498 169 496 171 496 173 497 175 498 171 496 169 496 166 498 163 499 155 499 152 498 150 497 144 491 " style="stroke:gray;fill:none"/><path d="M144 489 " style="stroke:gray;fill:none"/><path d="M91 483 90 485 89 488 88 491 88 502 89 504 91 506 93 507 97 507 101 506 104 505 106 504 108 502 114 499 116 499 118 498 121 496 127 490 126 488 124 487 121 487 115 490 104 490 100 488 97 485 94 482 " style="stroke:gray;fill:none"/><path d="M94 482 98 487 101 489 104 490 115 490 121 487 123 486 126 490 120 496 117 498 115 499 113 499 107 502 105 504 103 505 100 506 97 507 94 507 92 506 89 503 88 501 88 491 89 488 90 485 " style="stroke:gray;fill:none"/><path d="M282 476 281 479 282 481 285 481 285 476 " style="stroke:gray;fill:none"/><path d="M285 477 283 481 281 478 " style="stroke:gray;fill:none"/><path d="M166 474 163 477 161 480 159 484 159 489 161 491 159 488 159 485 161 481 163 478 168 474 " style="stroke:gray;fill:none"/><path d="M98 474 92 480 102 474 105 475 107 477 111 479 115 480 125 480 129 484 129 486 128 488 129 486 129 484 125 480 115 480 111 479 108 477 106 475 104 475 102 474 " style="stroke:gray;fill:none"/><path d="M29 473 27 476 31 476 " style="stroke:gray;fill:none"/><path d="M29 473 31 475 27 475 " style="stroke:gray;fill:none"/><path d="M176 465 178 467 179 469 178 467 178 464 180 462 " style="stroke:gray;fill:none"/><path d="M177 466 " style="stroke:gray;fill:none"/><path d="M176 460 174 462 173 464 173 467 178 472 181 473 186 473 189 470 189 466 188 464 185 461 183 460 " style="stroke:gray;fill:none"/><path d="M177 460 183 460 189 466 189 469 185 473 181 473 179 472 173 466 173 464 " style="stroke:gray;fill:none"/><path d="M184 458 " style="stroke:gray;fill:none"/><path d="M175 458 " style="stroke:gray;fill:none"/><path d="M121 457 122 459 122 468 118 472 122 469 " style="stroke:gray;fill:none"/><path d="M102 447 102 460 103 464 104 466 110 472 112 473 115 474 122 474 125 473 127 471 129 468 130 464 131 459 131 455 129 454 127 453 125 453 118 454 115 452 113 452 110 450 107 446 " style="stroke:gray;fill:none"/><path d="M104 446 107 447 109 450 112 452 115 453 118 454 125 454 127 453 130 455 131 459 130 464 129 467 127 470 124 473 122 474 115 474 112 473 104 465 103 463 102 460 102 448 " style="stroke:gray;fill:none"/><path d="M353 439 355 441 356 437 " style="stroke:gray;fill:none"/><path d="M355 437 357 439 355 441 353 439 " style="stroke:gray;fill:none"/><path d="M113 434 110 437 110 442 112 445 114 446 116 447 119 448 123 448 127 444 127 441 126 439 122 435 120 434 " style="stroke:gray;fill:none"/><path d="M114 434 120 434 127 441 127 443 126 445 124 447 122 448 118 447 120 446 123 443 124 441 123 443 120 446 118 447 116 447 114 445 112 443 110 441 110 438 " style="stroke:gray;fill:none"/><path d="M114 432 " style="stroke:gray;fill:none"/><path d="M119 430 119 432 " style="stroke:gray;fill:none"/><path d="M178 429 174 431 172 434 171 434 169 438 168 443 168 452 169 454 171 454 168 451 168 443 169 439 170 436 172 434 174 432 176 430 179 429 187 429 190 430 194 432 197 435 195 432 191 430 188 429 " style="stroke:gray;fill:none"/><path d="M147 423 " style="stroke:gray;fill:none"/><path d="M104 398 106 401 108 400 106 401 " style="stroke:gray;fill:none"/><path d="M217 388 216 390 216 394 215 397 214 401 213 404 212 405 211 409 210 413 209 417 208 420 207 424 207 427 209 429 211 429 213 427 214 424 215 421 216 416 216 412 217 408 218 407 219 403 220 398 220 393 221 391 222 389 220 387 " style="stroke:gray;fill:none"/><path d="M218 393 220 395 220 398 219 403 218 407 217 411 216 412 216 416 215 421 214 424 213 426 210 429 207 426 207 424 208 420 209 417 210 413 211 409 212 405 213 402 214 398 215 395 " style="stroke:gray;fill:none"/><path d="M220 387 221 392 219 394 217 393 216 390 " style="stroke:gray;fill:none"/><path d="M280 386 279 388 280 390 283 390 283 386 " style="stroke:gray;fill:none"/><path d="M283 387 281 390 279 388 " style="stroke:gray;fill:none"/><path d="M220 384 218 385 220 384 222 385 " style="stroke:gray;fill:none"/><path d="M107 383 106 385 105 391 106 397 110 397 111 395 112 392 112 385 110 383 " style="stroke:gray;fill:none"/><path d="M108 383 110 383 112 385 112 391 111 394 110 396 107 397 105 395 105 391 106 385 " style="stroke:gray;fill:none"/><path d="M113 382 115 382 " style="stroke:gray;fill:none"/><path d="M182 382 " style="stroke:gray;fill:none"/><path d="M110 381 " style="stroke:gray;fill:none"/><path d="M187 376 186 378 189 376 " style="stroke:gray;fill:none"/><path d="M138 376 133 381 132 383 132 391 133 393 135 396 142 403 146 406 156 411 159 412 163 413 167 414 184 414 188 413 192 412 195 411 200 408 203 406 201 408 199 408 194 411 191 412 188 413 184 414 167 414 164 413 160 412 157 411 147 406 143 403 135 395 133 392 132 390 132 384 133 382 " style="stroke:gray;fill:none"/><path d="M27 367 25 369 25 373 27 375 32 374 33 372 33 370 31 368 29 367 " style="stroke:gray;fill:none"/><path d="M29 367 33 371 32 373 30 375 28 375 25 372 25 370 " style="stroke:gray;fill:none"/><path d="M118 366 115 370 113 371 110 371 114 371 116 370 118 368 " style="stroke:gray;fill:none"/><path d="M169 361 167 363 167 369 167 363 " style="stroke:gray;fill:none"/><path d="M155 361 155 364 157 365 161 364 160 360 " style="stroke:gray;fill:none"/><path d="M156 360 161 361 160 365 157 365 155 363 " style="stroke:gray;fill:none"/><path d="M188 358 186 359 185 361 186 365 185 361 188 358 190 360 190 362 188 365 190 363 190 359 " style="stroke:gray;fill:none"/><path d="M192 352 189 353 188 354 182 353 178 353 175 354 171 358 171 365 169 371 165 371 159 370 156 368 152 368 150 366 152 362 150 363 150 366 152 368 156 368 159 370 157 373 158 375 155 376 149 373 143 367 143 363 143 362 148 357 150 357 153 360 150 357 148 357 146 358 144 360 143 363 143 366 144 369 147 372 155 376 158 376 161 378 165 379 171 380 170 383 170 381 172 379 183 379 184 377 185 375 185 373 184 371 187 368 188 372 191 375 193 375 196 372 197 370 198 366 199 359 199 356 198 354 194 352 " style="stroke:gray;fill:none"/><path d="M192 352 194 352 196 353 198 355 199 357 199 359 198 366 197 370 192 375 190 374 188 372 185 369 185 373 185 375 183 378 171 380 165 379 162 378 160 377 157 373 160 370 164 370 170 371 170 366 171 359 176 354 178 353 182 353 189 354 " style="stroke:gray;fill:none"/><path d="M187 352 " style="stroke:gray;fill:none"/><path d="M143 347 " style="stroke:gray;fill:none"/><path d="M331 338 330 340 334 341 " style="stroke:gray;fill:none"/><path d="M332 338 334 340 330 340 " style="stroke:gray;fill:none"/><path d="M105 330 98 337 96 340 94 344 93 348 92 352 92 356 93 360 94 363 95 365 101 371 105 372 108 373 112 373 115 373 117 373 119 372 122 369 122 367 121 365 119 363 111 356 110 353 105 348 105 346 107 344 108 342 108 332 107 330 " style="stroke:gray;fill:none"/><path d="M106 330 108 332 108 342 106 344 105 346 105 348 106 350 110 354 111 357 118 363 122 368 117 373 115 373 112 373 108 373 105 372 102 371 94 363 93 360 92 356 92 352 93 348 94 345 96 341 98 338 " style="stroke:gray;fill:none"/><path d="M243 327 239 328 236 329 224 335 220 338 212 346 210 348 209 350 210 348 212 346 221 338 225 335 237 329 240 328 244 327 247 327 250 330 248 327 " style="stroke:gray;fill:none"/><path d="M127 326 122 327 118 328 114 332 114 348 115 352 116 354 120 358 122 359 126 360 132 360 135 359 137 357 139 355 141 353 142 351 143 349 141 347 138 348 135 345 135 342 136 338 137 337 137 334 137 331 137 329 135 327 132 326 " style="stroke:gray;fill:none"/><path d="M127 326 132 326 134 327 137 330 137 334 137 337 136 341 135 342 135 345 136 347 138 349 140 348 142 350 141 352 139 355 137 357 134 359 132 360 126 360 123 359 121 358 115 352 114 348 114 333 119 328 122 327 " style="stroke:gray;fill:none"/><path d="M136 324 " style="stroke:gray;fill:none"/><path d="M133 324 " style="stroke:gray;fill:none"/><path d="M129 318 " style="stroke:gray;fill:none"/><path d="M201 316 201 318 196 323 192 326 189 328 183 331 180 331 184 331 190 328 193 326 197 323 203 318 203 316 202 318 " style="stroke:gray;fill:none"/><path d="M233 315 224 324 220 327 217 329 214 331 206 335 203 336 199 337 195 338 190 339 184 340 162 339 154 340 154 343 156 345 158 345 162 346 163 347 174 348 173 352 160 351 157 351 155 353 152 353 149 354 147 355 149 354 151 354 155 353 157 351 160 351 174 351 174 349 176 347 179 348 179 351 179 349 181 347 193 347 199 346 200 345 202 345 206 349 206 354 205 359 204 365 203 371 202 374 200 377 197 380 194 382 191 383 188 384 184 385 165 385 161 384 157 383 154 382 144 377 141 374 139 372 134 367 132 367 129 370 122 376 119 379 117 382 116 385 114 385 117 386 118 390 118 394 117 397 115 400 113 402 111 405 110 407 110 409 108 411 107 414 106 417 105 421 104 425 104 428 105 430 108 430 110 430 112 428 116 427 118 427 121 428 125 430 130 435 132 438 132 439 137 440 139 438 141 435 144 431 145 429 144 423 147 420 149 420 154 423 157 424 159 424 162 424 160 427 158 432 157 435 157 450 156 455 155 459 154 463 152 466 152 468 148 475 147 478 147 484 148 486 150 488 152 490 154 492 156 493 162 493 165 492 171 489 174 487 178 483 178 480 175 477 168 470 167 468 167 462 168 460 173 455 175 454 178 454 181 454 184 454 186 456 188 457 192 457 195 454 196 451 197 448 198 444 199 440 199 435 200 431 201 430 201 424 202 420 203 417 204 413 205 412 205 409 206 404 208 401 209 397 209 394 210 390 211 387 213 383 219 377 233 364 238 358 241 354 243 351 245 348 252 334 253 331 253 327 250 324 245 322 242 320 237 315 " style="stroke:gray;fill:none"/><path d="M234 315 236 315 241 320 244 322 246 323 248 323 253 328 253 331 251 334 251 336 247 344 245 347 243 350 241 353 238 357 233 363 218 377 213 382 212 384 211 387 210 390 209 394 209 397 208 401 206 404 205 409 205 412 204 416 203 417 202 420 201 424 201 430 200 434 199 435 199 440 198 444 197 448 196 451 195 453 191 457 189 457 184 454 181 454 178 454 175 454 171 456 168 459 167 461 167 468 168 471 174 476 178 480 178 482 173 487 169 490 165 492 162 493 156 493 152 490 150 488 147 484 147 478 149 475 149 473 153 466 154 463 155 459 156 455 157 450 157 435 158 433 163 429 162 424 157 424 154 423 147 419 143 419 143 421 145 424 145 428 144 430 141 434 139 437 136 440 134 440 132 438 130 435 127 431 131 429 132 427 132 419 129 413 126 410 123 408 120 407 114 407 120 407 122 408 125 410 129 414 132 420 132 426 131 428 129 430 127 431 125 430 121 428 118 427 116 427 112 428 109 430 107 431 104 428 104 425 105 421 106 417 107 414 108 412 110 410 110 408 111 406 113 404 115 401 117 398 118 395 118 390 117 383 119 380 123 376 129 371 129 370 131 368 133 367 139 374 143 377 145 377 154 382 157 383 161 384 165 385 184 385 188 384 191 383 194 382 198 380 200 378 202 374 203 371 204 365 205 359 206 354 206 348 203 345 200 345 194 346 193 347 181 347 178 347 176 347 173 347 163 347 159 346 157 345 154 341 156 339 162 339 184 340 190 339 195 338 199 337 203 336 206 335 218 329 221 327 225 324 " style="stroke:gray;fill:none"/><path d="M151 316 " style="stroke:gray;fill:none"/><path d="M143 315 " style="stroke:gray;fill:none"/><path d="M193 313 " style="stroke:gray;fill:none"/><path d="M199 311 " style="stroke:gray;fill:none"/><path d="M407 311 410 311 409 307 " style="stroke:gray;fill:none"/><path d="M410 308 409 311 406 309 " style="stroke:gray;fill:none"/><path d="M131 302 " style="stroke:gray;fill:none"/><path d="M229 301 226 302 224 304 215 308 213 310 210 311 207 312 204 313 201 314 198 315 194 316 190 317 184 318 175 319 151 319 141 318 138 318 136 316 133 316 131 318 132 320 137 321 142 325 147 330 149 331 153 332 157 333 162 334 186 334 191 333 195 332 198 331 201 330 204 329 216 323 220 320 228 312 231 308 233 304 233 302 231 300 " style="stroke:gray;fill:none"/><path d="M133 316 136 316 138 319 136 321 134 321 131 318 " style="stroke:gray;fill:none"/><path d="M228 301 231 301 233 304 231 306 229 309 229 310 219 320 215 323 212 325 204 329 201 330 198 331 195 332 191 333 186 334 162 334 157 333 153 332 149 331 142 325 139 322 141 320 139 322 137 320 138 318 141 318 151 319 175 319 184 318 190 317 194 316 198 315 201 314 204 313 207 312 210 311 213 310 225 304 " style="stroke:gray;fill:none"/><path d="M189 299 " style="stroke:gray;fill:none"/><path d="M129 297 " style="stroke:gray;fill:none"/><path d="M189 293 187 294 " style="stroke:gray;fill:none"/><path d="M246 291 244 293 244 297 247 300 251 300 252 300 253 295 249 291 " style="stroke:gray;fill:none"/><path d="M248 291 253 296 253 298 249 301 244 296 244 294 " style="stroke:gray;fill:none"/><path d="M229 289 " style="stroke:gray;fill:none"/><path d="M193 289 " style="stroke:gray;fill:none"/><path d="M123 286 " style="stroke:gray;fill:none"/><path d="M230 284 " style="stroke:gray;fill:none"/><path d="M124 283 " style="stroke:gray;fill:none"/><path d="M99 282 102 282 " style="stroke:gray;fill:none"/><path d="M260 281 256 283 255 285 255 287 256 290 258 292 261 298 261 301 260 303 256 307 244 307 242 309 242 311 247 316 249 317 252 318 255 319 261 319 264 318 267 317 269 316 274 311 277 307 278 304 279 300 279 294 278 291 277 288 272 283 270 282 266 281 " style="stroke:gray;fill:none"/><path d="M260 281 266 281 269 282 271 283 277 289 278 291 279 294 279 300 278 304 277 306 274 310 268 316 264 318 261 319 255 319 252 318 248 316 242 310 245 307 257 307 259 305 262 308 265 311 270 311 266 311 264 310 262 308 261 306 259 305 261 301 261 298 260 295 258 291 256 289 255 287 255 285 258 282 " style="stroke:gray;fill:none"/><path d="M230 276 232 277 232 286 233 288 236 289 239 286 240 284 241 282 240 284 237 287 235 289 232 286 " style="stroke:gray;fill:none"/><path d="M122 273 " style="stroke:gray;fill:none"/><path d="M139 272 137 273 137 281 144 280 145 278 145 276 144 274 141 272 " style="stroke:gray;fill:none"/><path d="M140 272 142 273 144 275 144 279 142 281 138 281 136 279 136 275 138 273 " style="stroke:gray;fill:none"/><path d="M251 270 " style="stroke:gray;fill:none"/><path d="M236 269 234 271 234 281 235 283 238 283 240 280 241 277 241 271 239 269 " style="stroke:gray;fill:none"/><path d="M238 269 241 272 241 276 240 279 238 283 235 283 234 281 234 272 " style="stroke:gray;fill:none"/><path d="M231 269 " style="stroke:gray;fill:none"/><path d="M121 266 119 267 " style="stroke:gray;fill:none"/><path d="M208 262 208 265 206 269 207 266 " style="stroke:gray;fill:none"/><path d="M97 262 96 264 95 268 95 278 96 284 97 288 98 291 99 293 101 295 104 298 107 297 107 292 106 288 105 284 104 283 103 278 103 267 102 262 " style="stroke:gray;fill:none"/><path d="M97 263 102 263 103 267 103 278 104 283 105 287 106 288 107 292 107 296 105 298 103 297 101 295 99 292 97 288 96 284 95 278 95 268 96 265 " style="stroke:gray;fill:none"/><path d="M120 260 " style="stroke:gray;fill:none"/><path d="M233 257 " style="stroke:gray;fill:none"/><path d="M232 254 " style="stroke:gray;fill:none"/><path d="M238 253 238 256 240 260 238 263 238 266 238 263 240 260 238 256 " style="stroke:gray;fill:none"/><path d="M113 253 " style="stroke:gray;fill:none"/><path d="M229 253 " style="stroke:gray;fill:none"/><path d="M251 251 249 252 " style="stroke:gray;fill:none"/><path d="M286 250 " style="stroke:gray;fill:none"/><path d="M111 251 109 255 110 269 113 275 112 278 114 281 114 285 112 287 112 289 113 292 114 295 115 298 118 304 122 308 126 308 128 307 129 305 127 302 123 294 123 292 122 289 121 287 116 282 115 274 115 269 117 267 117 259 115 251 " style="stroke:gray;fill:none"/><path d="M115 270 115 275 116 276 116 282 117 284 122 289 123 292 124 295 124 297 127 302 129 305 126 308 123 308 117 302 115 298 114 295 113 292 113 290 112 288 114 286 114 280 112 277 113 275 113 273 " style="stroke:gray;fill:none"/><path d="M113 250 116 253 117 259 117 266 114 269 111 269 109 267 109 256 111 252 " style="stroke:gray;fill:none"/><path d="M119 250 " style="stroke:gray;fill:none"/><path d="M286 246 285 248 283 250 282 253 280 256 278 258 277 261 273 265 272 268 269 270 265 269 266 273 268 273 274 271 276 266 278 264 279 261 282 258 284 254 285 252 284 254 283 256 281 258 279 261 278 264 276 266 275 269 272 272 269 271 271 270 272 267 275 264 277 261 278 258 281 255 283 250 285 248 " style="stroke:gray;fill:none"/><path d="M267 268 269 270 267 273 265 271 " style="stroke:gray;fill:none"/><path d="M26 245 29 247 29 243 " style="stroke:gray;fill:none"/><path d="M28 243 28 247 26 245 " style="stroke:gray;fill:none"/><path d="M387 238 386 240 386 242 390 242 390 238 " style="stroke:gray;fill:none"/><path d="M390 239 389 242 386 240 " style="stroke:gray;fill:none"/><path d="M128 237 " style="stroke:gray;fill:none"/><path d="M242 237 242 239 243 242 244 245 245 248 246 249 247 253 248 258 249 273 251 272 252 274 254 271 255 267 255 257 254 250 253 246 252 243 250 239 247 236 " style="stroke:gray;fill:none"/><path d="M244 236 246 236 251 241 252 243 253 246 254 250 255 257 255 267 254 270 252 272 250 273 248 271 248 258 247 253 246 249 245 246 244 245 243 242 243 240 242 238 " style="stroke:gray;fill:none"/><path d="M225 236 " style="stroke:gray;fill:none"/><path d="M130 236 " style="stroke:gray;fill:none"/><path d="M132 235 " style="stroke:gray;fill:none"/><path d="M230 234 228 235 228 239 228 241 231 243 230 246 229 244 232 248 232 250 234 252 235 255 234 260 235 265 236 267 235 265 234 260 235 255 235 252 238 251 238 247 238 245 236 242 236 240 234 237 230 237 229 240 227 237 233 235 " style="stroke:gray;fill:none"/><path d="M231 237 234 238 236 241 236 243 238 246 239 249 237 251 235 252 232 249 231 246 230 241 " style="stroke:gray;fill:none"/><path d="M152 234 149 235 147 236 144 239 142 242 141 245 141 253 142 256 143 258 148 263 151 264 161 264 164 263 167 261 169 259 171 255 172 250 172 248 171 244 170 241 165 236 163 235 160 234 " style="stroke:gray;fill:none"/><path d="M153 234 160 234 164 236 170 242 171 244 172 248 172 250 171 254 169 258 166 261 163 263 160 264 151 264 149 263 143 257 141 253 141 245 143 241 149 235 " style="stroke:gray;fill:none"/><path d="M294 232 292 235 290 238 288 242 287 244 288 242 289 240 291 237 293 234 295 232 296 235 294 238 292 241 290 243 289 246 287 248 289 246 291 243 293 240 295 237 296 235 296 232 " style="stroke:gray;fill:none"/><path d="M170 225 165 226 164 227 158 227 155 228 151 229 148 230 143 233 141 233 130 239 128 239 125 242 122 248 122 262 123 271 124 277 125 281 126 284 127 287 128 290 136 306 139 310 142 311 145 312 153 312 156 310 160 310 164 309 169 306 171 306 174 305 177 303 180 301 182 299 185 297 189 296 192 298 196 298 204 294 207 292 210 289 212 286 216 278 216 268 215 266 212 264 214 263 211 262 211 256 210 250 209 246 208 243 205 237 201 232 197 229 193 227 190 226 186 225 " style="stroke:gray;fill:none"/><path d="M208 273 208 275 206 279 204 282 198 288 197 285 199 283 200 280 202 277 204 274 " style="stroke:gray;fill:none"/><path d="M211 266 213 265 216 268 216 278 213 284 211 287 205 293 202 295 196 298 192 298 190 295 193 292 196 291 204 283 206 280 208 276 208 274 209 271 210 268 " style="stroke:gray;fill:none"/><path d="M170 225 186 225 190 226 193 227 195 228 199 231 202 234 206 239 208 243 209 246 210 250 211 256 212 263 212 265 210 268 210 270 208 273 205 272 203 275 201 278 200 281 198 283 197 285 197 287 197 290 194 292 193 292 191 293 188 297 185 297 183 298 180 300 178 302 175 304 171 306 169 306 164 309 160 310 156 310 153 312 146 312 142 311 139 308 135 304 128 290 127 287 126 284 125 280 124 276 123 270 122 262 122 249 123 246 124 244 129 239 141 233 143 233 148 230 151 229 155 228 158 227 164 227 " style="stroke:gray;fill:none"/><path d="M199 221 " style="stroke:gray;fill:none"/><path d="M196 221 " style="stroke:gray;fill:none"/><path d="M164 221 " style="stroke:gray;fill:none"/><path d="M187 219 186 221 176 222 168 222 162 223 158 224 155 225 152 226 149 227 146 228 143 229 136 233 134 234 136 233 139 231 141 231 146 228 149 227 152 226 155 225 158 224 162 223 169 222 177 221 187 221 193 222 199 223 203 224 207 225 210 226 213 227 216 229 220 233 223 239 224 242 225 246 226 250 227 254 228 259 228 282 227 287 226 290 225 293 223 296 221 298 217 301 207 306 204 307 201 308 198 309 194 310 191 311 184 311 179 312 178 313 156 313 178 313 183 312 184 311 191 311 195 310 198 309 201 308 205 307 219 300 221 298 223 296 225 294 226 291 227 288 228 282 228 259 227 254 226 249 225 246 224 242 223 238 220 232 217 229 213 227 210 226 207 225 203 224 199 223 194 223 187 221 " style="stroke:gray;fill:none"/><path d="M167 220 " style="stroke:gray;fill:none"/><path d="M255 218 253 220 254 225 258 225 257 218 " style="stroke:gray;fill:none"/><path d="M255 218 258 219 257 225 253 224 253 220 " style="stroke:gray;fill:none"/><path d="M292 215 " style="stroke:gray;fill:none"/><path d="M164 202 169 202 174 203 177 205 179 205 185 208 188 210 190 212 190 214 192 212 189 210 186 208 180 205 178 205 175 203 170 202 " style="stroke:gray;fill:none"/><path d="M322 201 321 205 323 208 325 210 329 209 329 204 326 201 " style="stroke:gray;fill:none"/><path d="M325 200 329 204 329 208 326 210 322 206 321 203 " style="stroke:gray;fill:none"/><path d="M166 199 162 200 157 201 154 202 151 203 147 204 145 206 143 206 135 210 131 213 127 216 122 221 120 224 118 227 115 233 115 238 119 238 123 235 125 233 128 231 131 230 133 228 143 223 145 223 148 221 151 220 155 219 159 218 164 217 171 216 191 216 194 217 195 218 202 218 206 219 210 220 213 221 214 222 217 223 219 223 223 223 224 220 223 218 218 213 214 210 211 208 201 203 198 202 195 201 191 200 187 199 " style="stroke:gray;fill:none"/><path d="M166 199 187 199 191 200 195 201 198 202 201 204 203 204 207 206 210 208 213 210 217 213 223 219 224 221 219 223 217 223 214 222 211 221 210 220 206 219 202 218 195 218 192 217 191 216 171 216 164 217 159 218 155 219 151 220 148 221 145 223 143 223 127 231 124 233 122 235 118 238 115 237 115 233 116 231 118 228 120 225 122 222 128 216 132 213 136 210 139 208 143 206 145 206 148 204 151 203 154 202 157 201 162 200 " style="stroke:gray;fill:none"/><path d="M296 195 292 196 289 197 288 198 276 198 288 198 291 197 292 196 296 195 299 195 " style="stroke:gray;fill:none"/><path d="M311 193 " style="stroke:gray;fill:none"/><path d="M361 190 360 192 359 194 359 197 360 199 365 200 366 198 366 195 365 192 363 190 " style="stroke:gray;fill:none"/><path d="M362 190 365 193 366 195 366 198 364 200 362 200 359 197 359 194 360 192 " style="stroke:gray;fill:none"/><path d="M367 185 367 190 " style="stroke:gray;fill:none"/><path d="M365 184 " style="stroke:gray;fill:none"/><path d="M321 179 " style="stroke:gray;fill:none"/><path d="M294 177 " style="stroke:gray;fill:none"/><path d="M325 175 323 178 323 180 321 182 325 179 327 177 328 175 326 177 " style="stroke:gray;fill:none"/><path d="M324 179 " style="stroke:gray;fill:none"/><path d="M325 178 " style="stroke:gray;fill:none"/><path d="M73 178 74 180 77 180 76 175 " style="stroke:gray;fill:none"/><path d="M77 176 75 180 73 177 " style="stroke:gray;fill:none"/><path d="M288 175 293 175 295 175 293 175 " style="stroke:gray;fill:none"/><path d="M234 170 232 171 232 176 244 188 248 191 251 193 253 193 258 196 260 196 263 198 266 199 269 200 275 201 290 201 299 200 301 199 299 200 290 201 275 201 269 200 266 199 263 198 260 196 258 196 252 193 249 191 245 188 232 175 232 172 234 170 237 170 246 171 247 172 276 171 283 171 276 171 247 172 238 171 237 170 " style="stroke:gray;fill:none"/><path d="M219 168 224 174 227 178 231 183 236 189 236 193 230 199 226 202 222 204 215 204 213 203 211 201 207 199 204 198 202 198 199 196 195 195 192 194 188 193 181 193 174 192 172 191 169 188 167 185 165 181 164 178 163 174 163 172 163 174 164 178 165 181 168 187 170 190 172 191 174 192 181 193 188 193 192 194 195 195 199 196 202 198 204 198 207 199 209 200 211 202 215 204 222 204 228 201 232 198 235 195 236 193 236 189 235 187 230 181 226 177 224 174 224 173 " style="stroke:gray;fill:none"/><path d="M162 167 162 169 " style="stroke:gray;fill:none"/><path d="M336 166 333 167 331 169 327 169 324 169 320 169 316 170 305 170 287 171 284 173 283 175 285 177 287 177 290 178 292 179 297 180 316 180 319 184 317 186 313 189 310 191 303 194 303 198 305 198 308 197 311 196 317 193 320 191 323 189 327 186 337 176 340 172 341 170 339 166 " style="stroke:gray;fill:none"/><path d="M336 166 338 166 340 168 340 171 337 175 326 186 322 189 319 191 315 194 311 196 308 197 305 198 302 196 305 193 307 192 309 192 311 191 314 189 318 186 319 183 318 181 316 180 308 180 306 178 304 178 301 177 299 176 297 173 298 176 301 177 303 177 307 179 297 180 292 179 290 178 288 178 285 177 283 175 287 171 305 170 317 171 319 171 321 169 330 168 331 170 329 172 325 173 323 173 321 172 323 173 325 173 328 173 330 172 332 168 " style="stroke:gray;fill:none"/><path d="M353 165 352 167 352 169 353 171 358 176 359 179 362 182 363 184 364 182 365 176 363 172 361 169 356 164 " style="stroke:gray;fill:none"/><path d="M355 164 361 170 363 173 365 177 365 180 361 181 359 178 357 175 357 174 352 169 352 167 " style="stroke:gray;fill:none"/><path d="M350 164 349 166 347 170 345 173 342 176 341 179 337 184 333 188 329 191 325 194 322 195 319 198 316 199 314 201 312 202 309 203 307 203 304 205 297 206 297 204 293 208 292 210 291 212 289 210 291 208 292 206 290 208 289 210 290 212 292 212 294 214 294 216 300 222 302 222 303 224 307 226 311 228 314 229 317 230 332 230 337 229 340 227 342 227 348 224 351 222 359 214 362 210 364 206 364 204 365 202 364 204 362 209 359 213 350 222 347 224 341 227 339 227 336 229 331 230 318 230 315 229 312 228 306 225 303 222 301 222 294 215 294 213 292 210 296 206 300 205 305 205 308 203 310 203 313 202 315 201 317 199 320 198 323 195 326 194 330 191 334 188 337 185 341 180 342 177 345 174 347 171 349 166 " style="stroke:gray;fill:none"/><path d="M352 162 " style="stroke:gray;fill:none"/><path d="M354 162 356 162 " style="stroke:gray;fill:none"/><path d="M187 153 188 155 190 156 193 158 " style="stroke:gray;fill:none"/><path d="M186 150 " style="stroke:gray;fill:none"/><path d="M306 144 " style="stroke:gray;fill:none"/><path d="M3 144 2 146 3 148 6 148 6 144 " style="stroke:gray;fill:none"/><path d="M6 145 4 148 2 146 " style="stroke:gray;fill:none"/><path d="M186 142 185 145 185 148 185 145 186 143 188 141 " style="stroke:gray;fill:none"/><path d="M329 140 331 141 " style="stroke:gray;fill:none"/><path d="M342 138 " style="stroke:gray;fill:none"/><path d="M221 138 222 141 225 144 222 141 " style="stroke:gray;fill:none"/><path d="M208 138 " style="stroke:gray;fill:none"/><path d="M179 137 " style="stroke:gray;fill:none"/><path d="M195 135 " style="stroke:gray;fill:none"/><path d="M360 131 " style="stroke:gray;fill:none"/><path d="M359 128 358 133 360 135 364 138 364 140 361 143 359 144 355 145 352 146 348 147 343 148 338 149 332 150 322 150 315 151 314 152 304 153 290 154 286 153 284 153 272 154 271 155 262 154 258 154 247 155 228 154 220 153 215 152 210 151 208 150 205 147 205 145 211 139 211 137 209 135 207 135 204 136 201 137 199 138 196 140 192 144 191 146 191 148 192 151 195 154 201 157 204 158 207 159 210 160 214 161 218 162 223 163 232 164 241 165 256 166 290 166 302 165 312 164 319 163 325 162 331 161 336 160 341 159 346 158 349 157 352 156 355 155 358 154 361 153 364 152 366 150 368 150 370 149 373 147 377 143 378 141 378 138 377 136 373 132 371 131 368 130 365 129 362 128 " style="stroke:gray;fill:none"/><path d="M360 128 362 128 365 129 368 130 372 132 378 138 378 141 372 147 369 149 361 153 358 154 355 155 352 156 349 157 346 158 341 159 336 160 331 161 325 162 319 163 312 164 302 165 290 166 256 166 241 165 232 164 223 163 218 162 214 161 210 160 207 159 204 158 201 157 199 156 196 154 192 150 191 148 191 146 198 139 204 136 206 136 208 135 211 138 206 143 205 145 205 148 207 150 210 151 215 152 220 153 228 154 247 155 258 154 262 154 271 155 283 154 284 153 286 153 290 154 304 153 314 152 321 151 322 150 332 150 338 149 343 148 348 147 352 146 355 145 359 144 362 143 364 141 364 137 362 135 357 131 " style="stroke:gray;fill:none"/><path d="M203 127 " style="stroke:gray;fill:none"/><path d="M347 126 " style="stroke:gray;fill:none"/><path d="M422 125 422 129 424 127 " style="stroke:gray;fill:none"/><path d="M422 125 424 127 422 129 420 127 " style="stroke:gray;fill:none"/><path d="M203 124 197 125 193 126 189 127 186 128 180 131 171 140 168 144 166 148 165 151 164 154 163 165 164 169 165 172 168 172 173 177 175 177 178 180 180 180 182 182 186 184 194 184 197 183 202 180 206 180 209 179 211 176 216 172 215 167 213 166 210 166 206 165 203 164 200 163 197 162 194 160 191 160 189 159 185 155 185 152 183 150 183 146 183 144 182 142 184 140 187 138 190 136 194 133 200 130 203 130 208 129 208 127 207 125 " style="stroke:gray;fill:none"/><path d="M203 124 207 125 207 129 203 129 199 130 193 133 189 136 185 139 183 144 183 146 183 149 185 153 185 155 186 157 188 159 190 160 193 160 196 162 200 163 203 164 206 165 209 165 213 166 216 169 216 171 209 177 208 179 206 180 202 180 197 183 194 184 186 184 184 183 182 181 179 180 177 178 174 177 170 173 168 172 165 171 164 169 163 165 164 154 165 151 168 145 171 141 181 131 184 129 187 128 190 127 194 126 198 125 " style="stroke:gray;fill:none"/><path d="M245 116 " style="stroke:gray;fill:none"/><path d="M149 114 " style="stroke:gray;fill:none"/><path d="M211 113 " style="stroke:gray;fill:none"/><path d="M342 109 " style="stroke:gray;fill:none"/><path d="M337 107 340 111 340 109 " style="stroke:gray;fill:none"/><path d="M247 102 " style="stroke:gray;fill:none"/><path d="M336 102 " style="stroke:gray;fill:none"/><path d="M163 89 " style="stroke:gray;fill:none"/><path d="M159 87 155 91 152 95 152 97 150 99 149 102 148 106 147 110 147 122 148 127 149 131 152 136 152 138 154 141 156 143 158 144 160 144 162 143 164 141 168 136 168 135 174 129 178 126 181 125 183 123 187 121 191 120 195 120 197 119 199 117 198 112 191 106 186 102 182 99 181 99 176 94 173 92 170 90 167 88 165 87 161 88 " style="stroke:gray;fill:none"/><path d="M160 87 160 91 157 93 155 96 154 98 152 103 151 105 150 108 150 111 150 108 151 105 152 103 155 99 156 95 161 90 162 87 164 87 166 88 168 90 171 91 175 94 180 98 184 101 190 106 197 112 199 114 199 116 195 120 191 120 187 121 179 125 176 127 173 129 168 134 165 138 165 139 161 143 158 144 153 139 149 131 148 127 147 122 147 110 148 106 149 102 152 96 155 92 " style="stroke:gray;fill:none"/><path d="M369 84 367 85 367 88 371 88 371 85 " style="stroke:gray;fill:none"/><path d="M369 84 370 88 367 86 " style="stroke:gray;fill:none"/><path d="M174 83 " style="stroke:gray;fill:none"/><path d="M254 77 252 78 250 80 246 83 245 83 230 98 228 101 226 104 226 106 223 111 222 114 221 117 220 121 219 125 218 132 218 141 219 143 223 147 227 148 242 149 252 149 242 149 227 148 224 147 218 141 218 132 219 125 220 121 221 117 222 114 223 111 226 105 228 102 230 99 246 83 251 79 252 79 " style="stroke:gray;fill:none"/><path d="M152 76 " style="stroke:gray;fill:none"/><path d="M185 77 188 75 " style="stroke:gray;fill:none"/><path d="M154 74 " style="stroke:gray;fill:none"/><path d="M184 73 182 75 182 78 186 81 189 83 191 84 195 83 195 79 194 76 191 73 " style="stroke:gray;fill:none"/><path d="M185 73 190 73 194 77 195 79 195 82 193 84 191 84 189 82 185 79 184 79 182 76 " style="stroke:gray;fill:none"/><path d="M272 71 269 72 265 73 263 75 261 75 257 77 251 83 248 89 248 92 246 95 245 98 243 104 243 113 242 114 242 123 243 129 244 133 245 136 246 139 248 143 251 146 254 148 284 148 293 147 294 146 310 146 324 145 331 144 336 143 339 141 346 141 348 140 350 138 350 126 349 121 348 117 347 114 346 111 343 105 341 103 340 100 338 97 335 93 333 91 326 85 322 82 319 81 317 79 309 75 306 74 303 73 298 72 294 71 " style="stroke:gray;fill:none"/><path d="M272 71 293 71 297 72 302 73 305 74 308 75 316 79 318 81 321 82 325 85 332 91 335 94 338 98 340 101 341 104 344 107 346 111 347 114 348 117 349 121 350 126 350 137 345 139 344 137 344 124 343 121 341 119 339 118 342 115 343 118 340 116 337 117 335 117 332 116 329 115 326 114 323 113 320 112 317 111 314 110 311 109 308 108 305 107 302 106 299 105 295 104 292 103 289 101 287 101 284 100 281 99 278 98 275 97 272 96 269 95 266 94 263 93 260 91 258 91 255 90 252 86 253 89 255 90 257 90 260 91 263 93 265 93 268 94 271 95 274 96 277 97 280 98 283 99 286 100 289 101 292 103 295 104 298 104 301 105 304 106 307 107 310 108 313 109 316 110 319 111 322 112 325 113 328 114 331 115 334 116 337 117 339 118 343 122 344 124 344 138 346 140 338 141 335 143 331 144 324 145 310 146 293 146 285 147 284 148 255 148 253 147 247 141 246 139 245 136 244 133 243 129 242 123 242 114 244 112 245 114 248 116 270 127 272 127 279 131 282 132 284 132 289 135 292 136 294 136 297 138 299 138 302 140 304 140 308 142 310 143 308 142 304 140 302 140 299 138 297 138 294 136 292 136 289 135 284 132 282 132 279 131 272 127 270 127 250 117 247 115 243 111 243 107 245 105 249 105 258 109 260 111 270 116 272 116 281 121 283 121 286 123 289 124 291 124 296 127 298 127 301 129 303 129 306 131 308 131 311 133 313 133 320 137 322 137 324 138 326 142 326 139 324 138 322 137 320 137 313 133 311 133 308 131 306 131 303 129 301 129 298 127 296 127 291 124 289 124 286 123 283 121 281 121 272 116 270 116 262 112 260 110 249 105 246 105 243 104 244 101 245 98 246 95 248 92 248 89 250 85 256 79 259 80 264 83 267 84 270 85 273 86 276 87 279 88 281 88 284 90 287 91 291 92 294 93 297 94 300 95 303 96 306 97 309 98 312 99 315 100 318 101 321 102 324 103 327 104 330 105 333 106 335 106 337 104 339 104 337 104 335 105 332 105 330 105 327 104 324 103 321 102 318 101 315 100 312 99 309 98 306 97 303 96 300 95 297 94 294 93 291 92 287 91 284 90 281 88 279 88 276 87 273 86 270 85 267 84 264 83 262 82 259 79 256 79 258 77 262 75 264 75 266 73 269 73 " style="stroke:gray;fill:none"/><path d="M150 70 147 73 148 78 150 79 153 79 156 76 159 76 163 78 166 80 169 82 174 86 178 89 182 92 186 95 192 100 197 105 204 111 210 116 214 116 214 112 213 110 204 101 197 95 193 92 189 89 185 86 182 84 179 82 177 82 173 80 171 78 169 78 164 75 162 75 153 70 " style="stroke:gray;fill:none"/><path d="M151 70 153 70 155 71 157 73 159 73 162 75 164 75 178 82 181 84 184 86 188 89 192 92 196 95 203 101 214 112 213 116 211 116 206 111 199 105 198 105 193 100 187 95 183 92 179 89 175 86 171 83 168 81 165 79 159 76 155 76 152 79 150 79 147 76 147 74 " style="stroke:gray;fill:none"/><path d="M64 59 62 60 61 62 62 64 64 64 66 63 66 60 " style="stroke:gray;fill:none"/><path d="M64 59 66 62 63 64 61 62 " style="stroke:gray;fill:none"/><path d="M239 25 233 26 229 27 226 28 224 30 222 30 218 32 214 35 207 42 205 45 203 49 202 52 201 55 200 58 199 61 199 71 200 76 201 80 205 88 207 90 207 92 215 100 218 101 220 101 222 100 224 98 226 95 228 92 228 91 237 82 241 79 244 77 248 74 251 72 253 72 260 68 264 67 267 66 270 66 274 65 279 63 281 61 281 57 281 55 280 52 279 49 277 45 274 41 267 34 264 32 259 30 257 28 254 28 251 26 247 25 242 26 " style="stroke:gray;fill:none"/><path d="M239 25 242 26 247 25 251 26 254 28 256 28 258 30 260 30 263 32 266 34 274 42 277 46 280 52 281 55 281 57 282 59 279 61 277 59 278 57 276 55 276 53 275 51 273 49 271 44 264 37 259 33 257 33 263 37 271 45 273 48 273 50 275 52 277 56 277 59 279 62 277 64 275 64 271 65 270 66 267 66 264 67 260 68 255 71 253 71 249 73 246 75 243 77 240 79 236 82 229 89 227 92 227 93 225 96 220 101 218 101 216 100 207 91 201 79 200 76 199 71 199 61 200 58 201 55 202 52 203 49 205 46 207 43 215 35 219 32 227 28 230 27 233 26 235 27 " style="stroke:gray;fill:none"/><path d="M339 28 343 28 343 25 341 24 " style="stroke:gray;fill:none"/><path d="M341 24 342 28 338 26 " style="stroke:gray;fill:none"/></svg>