<svg width="429px" height="547px" xmlns="http://www.w3.org/2000/svg"><path d="M168 527 " style="stroke:gray;fill:none"/><path d="M176 524 174 525 172 527 174 526 " style="stroke:gray;fill:none"/><path d="M179 515 " style="stroke:gray;fill:none"/><path d="M149 515 " style="stroke:gray;fill:none"/><path d="M106 507 " style="stroke:gray;fill:none"/><path d="M87 507 88 509 94 510 90 510 " style="stroke:gray;fill:none"/><path d="M110 505 " style="stroke:gray;fill:none"/><path d="M179 501 179 503 " style="stroke:gray;fill:none"/><path d="M170 500 167 504 165 505 158 505 155 504 154 503 152 503 149 506 148 508 150 510 151 513 157 519 161 522 163 522 166 524 171 524 174 521 176 517 177 514 177 504 176 502 175 500 173 499 " style="stroke:gray;fill:none"/><path d="M173 499 176 502 177 504 177 514 176 517 175 519 170 524 166 524 162 522 158 519 151 512 149 509 148 507 152 503 154 503 157 504 158 505 165 505 169 503 " style="stroke:gray;fill:none"/><path d="M122 499 120 500 " style="stroke:gray;fill:none"/><path d="M174 492 177 496 178 499 177 497 175 494 " style="stroke:gray;fill:none"/><path d="M171 493 " style="stroke:gray;fill:none"/><path d="M130 491 " style="stroke:gray;fill:none"/><path d="M86 491 84 499 85 502 84 499 " style="stroke:gray;fill:none"/><path d="M174 490 " style="stroke:gray;fill:none"/><path d="M147 490 " style="stroke:gray;fill:none"/><path d="M145 489 142 490 140 491 140 497 141 500 144 506 146 509 146 507 144 505 141 499 140 496 141 491 145 491 149 496 152 498 155 499 162 499 165 498 166 497 169 496 172 496 174 497 168 496 165 498 162 499 156 499 153 498 150 496 145 491 " style="stroke:gray;fill:none"/><path d="M86 489 " style="stroke:gray;fill:none"/><path d="M87 485 " style="stroke:gray;fill:none"/><path d="M181 482 " style="stroke:gray;fill:none"/><path d="M144 481 143 484 141 486 137 486 137 490 137 493 137 496 138 498 137 496 137 493 137 490 138 486 143 485 143 483 " style="stroke:gray;fill:none"/><path d="M26 479 28 479 " style="stroke:gray;fill:none"/><path d="M285 478 " style="stroke:gray;fill:none"/><path d="M279 476 279 479 283 483 285 483 286 480 284 483 " style="stroke:gray;fill:none"/><path d="M179 477 " style="stroke:gray;fill:none"/><path d="M91 477 " style="stroke:gray;fill:none"/><path d="M282 478 285 476 288 477 287 482 288 476 286 476 " style="stroke:gray;fill:none"/><path d="M188 475 182 477 181 479 184 476 " style="stroke:gray;fill:none"/><path d="M166 475 164 477 161 480 159 484 159 488 162 490 159 487 159 484 160 482 163 478 168 474 " style="stroke:gray;fill:none"/><path d="M128 474 128 476 126 475 126 477 128 476 132 480 132 487 131 489 131 478 128 476 " style="stroke:gray;fill:none"/><path d="M27 473 28 477 32 476 31 473 " style="stroke:gray;fill:none"/><path d="M28 473 31 474 29 477 27 475 " style="stroke:gray;fill:none"/><path d="M25 473 25 476 " style="stroke:gray;fill:none"/><path d="M101 472 98 473 96 474 94 476 93 479 94 477 97 474 99 473 102 473 104 474 106 476 112 479 116 480 124 479 126 479 129 482 129 487 127 490 126 488 124 486 121 486 116 489 113 490 106 490 103 489 101 488 97 484 95 482 93 481 91 483 90 485 89 488 88 491 88 502 89 504 92 507 97 507 100 506 103 505 106 503 108 503 114 500 116 498 121 496 129 488 129 481 127 479 123 479 117 480 112 479 108 477 105 474 103 474 " style="stroke:gray;fill:none"/><path d="M94 481 98 485 103 489 106 490 113 490 116 489 121 486 124 486 126 488 126 490 120 496 117 498 114 499 112 501 108 503 106 503 103 505 100 506 97 507 93 507 88 502 88 491 89 488 90 485 " style="stroke:gray;fill:none"/><path d="M105 471 " style="stroke:gray;fill:none"/><path d="M26 471 27 469 30 469 34 471 35 473 34 476 35 473 34 471 30 469 " style="stroke:gray;fill:none"/><path d="M149 466 148 468 147 470 " style="stroke:gray;fill:none"/><path d="M132 466 " style="stroke:gray;fill:none"/><path d="M101 466 102 468 101 470 102 468 " style="stroke:gray;fill:none"/><path d="M178 464 177 466 178 468 177 466 178 464 180 462 " style="stroke:gray;fill:none"/><path d="M191 460 " style="stroke:gray;fill:none"/><path d="M194 459 " style="stroke:gray;fill:none"/><path d="M178 460 175 461 173 463 172 465 173 468 176 471 179 472 182 473 186 473 188 471 189 469 189 466 188 464 185 461 183 460 181 460 " style="stroke:gray;fill:none"/><path d="M181 460 183 460 189 466 189 469 185 473 182 473 179 472 177 471 173 467 172 465 177 460 " style="stroke:gray;fill:none"/><path d="M196 458 196 460 192 465 193 463 196 461 " style="stroke:gray;fill:none"/><path d="M175 458 " style="stroke:gray;fill:none"/><path d="M183 458 " style="stroke:gray;fill:none"/><path d="M121 457 122 459 122 465 121 469 118 472 121 470 122 465 " style="stroke:gray;fill:none"/><path d="M118 451 " style="stroke:gray;fill:none"/><path d="M99 450 99 459 " style="stroke:gray;fill:none"/><path d="M128 449 " style="stroke:gray;fill:none"/><path d="M126 449 " style="stroke:gray;fill:none"/><path d="M129 445 129 447 " style="stroke:gray;fill:none"/><path d="M110 446 " style="stroke:gray;fill:none"/><path d="M105 445 103 446 101 449 102 460 103 464 104 466 110 472 112 473 115 474 122 474 125 473 128 470 128 468 130 465 131 459 131 457 130 455 128 453 125 453 118 454 112 451 107 446 " style="stroke:gray;fill:none"/><path d="M105 445 111 451 115 453 118 454 125 453 128 453 130 455 131 457 131 459 130 465 128 469 124 473 122 474 115 474 111 472 104 465 103 463 102 460 101 449 " style="stroke:gray;fill:none"/><path d="M133 443 131 445 131 447 131 445 133 443 137 445 137 447 134 450 133 452 131 449 133 452 133 454 134 452 134 450 137 448 137 446 139 443 136 444 " style="stroke:gray;fill:none"/><path d="M123 439 123 443 121 445 123 444 " style="stroke:gray;fill:none"/><path d="M353 438 354 442 356 442 356 437 " style="stroke:gray;fill:none"/><path d="M355 437 356 441 353 439 " style="stroke:gray;fill:none"/><path d="M155 435 155 439 " style="stroke:gray;fill:none"/><path d="M353 434 351 435 349 437 349 441 350 443 352 444 354 445 358 444 359 442 359 439 359 442 356 445 354 445 352 444 349 441 349 437 351 435 353 434 356 434 358 435 356 434 " style="stroke:gray;fill:none"/><path d="M205 434 202 436 205 434 208 434 " style="stroke:gray;fill:none"/><path d="M108 434 " style="stroke:gray;fill:none"/><path d="M210 435 213 432 " style="stroke:gray;fill:none"/><path d="M112 432 " style="stroke:gray;fill:none"/><path d="M210 431 " style="stroke:gray;fill:none"/><path d="M208 431 " style="stroke:gray;fill:none"/><path d="M114 432 " style="stroke:gray;fill:none"/><path d="M101 431 101 434 102 441 101 443 100 445 102 442 105 436 104 441 104 443 105 434 101 434 " style="stroke:gray;fill:none"/><path d="M119 430 118 433 116 434 113 434 110 437 110 442 112 445 115 447 118 448 124 448 126 446 127 444 127 441 126 438 124 436 120 434 118 433 " style="stroke:gray;fill:none"/><path d="M116 434 120 434 123 436 126 439 127 441 127 443 126 445 123 448 118 448 116 447 114 445 112 443 110 441 110 438 114 434 " style="stroke:gray;fill:none"/><path d="M205 429 203 430 " style="stroke:gray;fill:none"/><path d="M102 427 " style="stroke:gray;fill:none"/><path d="M216 427 " style="stroke:gray;fill:none"/><path d="M149 428 152 425 154 427 155 431 155 428 152 425 " style="stroke:gray;fill:none"/><path d="M148 424 " style="stroke:gray;fill:none"/><path d="M217 424 " style="stroke:gray;fill:none"/><path d="M205 423 " style="stroke:gray;fill:none"/><path d="M208 411 " style="stroke:gray;fill:none"/><path d="M209 407 " style="stroke:gray;fill:none"/><path d="M101 402 102 404 106 405 107 407 105 409 105 411 105 409 107 407 108 405 106 404 " style="stroke:gray;fill:none"/><path d="M211 399 " style="stroke:gray;fill:none"/><path d="M103 399 104 401 108 401 105 401 " style="stroke:gray;fill:none"/><path d="M102 391 101 393 100 395 100 398 101 400 100 398 100 395 101 393 " style="stroke:gray;fill:none"/><path d="M219 388 217 389 216 391 216 393 215 396 214 397 214 400 213 404 212 408 211 409 210 412 209 416 208 420 207 424 207 427 209 429 211 429 213 427 214 425 215 422 216 417 217 412 218 408 219 403 220 398 221 394 221 390 " style="stroke:gray;fill:none"/><path d="M219 388 221 390 221 393 220 398 219 403 218 408 217 412 216 417 215 422 214 425 209 429 207 427 207 424 208 420 209 416 210 412 211 409 212 405 213 401 214 397 215 394 216 391 " style="stroke:gray;fill:none"/><path d="M103 387 " style="stroke:gray;fill:none"/><path d="M286 386 286 390 285 393 282 393 280 392 286 392 287 389 " style="stroke:gray;fill:none"/><path d="M279 386 277 387 277 390 278 387 279 390 283 390 283 386 " style="stroke:gray;fill:none"/><path d="M280 386 283 387 282 390 279 389 " style="stroke:gray;fill:none"/><path d="M218 386 220 386 " style="stroke:gray;fill:none"/><path d="M107 383 106 385 105 390 105 394 104 396 105 398 108 399 110 397 111 395 112 392 112 385 111 383 " style="stroke:gray;fill:none"/><path d="M108 383 110 383 112 385 112 392 111 395 108 398 106 398 105 394 105 390 106 385 " style="stroke:gray;fill:none"/><path d="M113 382 115 382 " style="stroke:gray;fill:none"/><path d="M181 382 " style="stroke:gray;fill:none"/><path d="M108 381 111 381 " style="stroke:gray;fill:none"/><path d="M224 378 223 380 221 379 220 384 222 385 222 387 221 383 223 380 225 382 226 384 226 386 223 389 225 388 226 386 226 383 224 381 " style="stroke:gray;fill:none"/><path d="M29 378 " style="stroke:gray;fill:none"/><path d="M27 378 " style="stroke:gray;fill:none"/><path d="M188 377 190 377 " style="stroke:gray;fill:none"/><path d="M196 376 " style="stroke:gray;fill:none"/><path d="M139 376 137 377 133 381 132 383 132 385 132 388 132 390 135 396 137 399 139 401 143 404 146 406 156 411 160 412 164 413 169 414 180 414 187 413 191 412 194 411 197 410 200 408 203 406 201 408 197 410 194 411 191 412 187 413 180 414 169 414 164 413 160 412 156 411 148 407 145 405 141 402 136 397 134 394 132 390 132 388 132 385 132 383 " style="stroke:gray;fill:none"/><path d="M110 376 112 376 " style="stroke:gray;fill:none"/><path d="M105 376 105 380 104 382 106 379 " style="stroke:gray;fill:none"/><path d="M198 375 " style="stroke:gray;fill:none"/><path d="M119 375 116 376 " style="stroke:gray;fill:none"/><path d="M146 375 " style="stroke:gray;fill:none"/><path d="M99 373 " style="stroke:gray;fill:none"/><path d="M199 373 " style="stroke:gray;fill:none"/><path d="M36 369 36 372 " style="stroke:gray;fill:none"/><path d="M27 367 25 369 25 373 27 375 31 375 33 373 33 369 31 367 " style="stroke:gray;fill:none"/><path d="M28 367 30 367 33 370 33 372 30 375 28 375 25 372 25 370 " style="stroke:gray;fill:none"/><path d="M118 366 115 370 112 371 110 371 112 371 115 370 117 369 " style="stroke:gray;fill:none"/><path d="M152 363 151 367 155 367 154 364 " style="stroke:gray;fill:none"/><path d="M152 363 154 364 154 367 150 365 " style="stroke:gray;fill:none"/><path d="M126 362 124 364 125 367 127 367 125 366 124 364 " style="stroke:gray;fill:none"/><path d="M25 363 24 365 22 368 22 372 22 368 24 365 29 363 33 363 35 365 35 367 35 365 33 363 29 363 " style="stroke:gray;fill:none"/><path d="M136 362 138 363 136 362 138 361 " style="stroke:gray;fill:none"/><path d="M185 361 189 362 188 359 " style="stroke:gray;fill:none"/><path d="M188 362 185 361 " style="stroke:gray;fill:none"/><path d="M202 358 " style="stroke:gray;fill:none"/><path d="M141 359 " style="stroke:gray;fill:none"/><path d="M170 356 " style="stroke:gray;fill:none"/><path d="M148 356 146 357 144 359 140 365 138 367 141 365 143 367 148 373 150 373 152 374 154 375 152 374 149 373 143 367 143 363 144 360 147 357 150 356 153 359 157 359 161 357 161 359 163 361 169 359 168 361 163 361 161 359 159 356 156 359 154 359 152 357 150 356 " style="stroke:gray;fill:none"/><path d="M244 355 " style="stroke:gray;fill:none"/><path d="M201 355 " style="stroke:gray;fill:none"/><path d="M172 353 " style="stroke:gray;fill:none"/><path d="M190 352 177 353 175 354 173 355 172 357 171 359 170 364 169 371 165 370 164 365 160 365 158 368 160 365 165 366 164 370 159 370 157 371 156 373 157 375 162 378 165 379 170 380 170 383 170 381 172 379 182 379 184 378 185 373 184 371 188 370 189 374 193 374 196 373 196 371 197 367 198 366 199 360 199 355 197 353 195 352 " style="stroke:gray;fill:none"/><path d="M190 352 195 352 199 356 199 360 198 366 197 370 196 372 194 374 190 374 189 374 188 369 185 369 185 373 185 376 182 379 172 379 169 379 165 379 162 378 160 377 156 373 159 370 166 371 170 370 170 364 171 359 172 357 175 354 177 353 " style="stroke:gray;fill:none"/><path d="M157 351 155 353 151 354 155 353 157 351 160 351 170 352 160 351 " style="stroke:gray;fill:none"/><path d="M139 352 " style="stroke:gray;fill:none"/><path d="M197 350 " style="stroke:gray;fill:none"/><path d="M192 350 " style="stroke:gray;fill:none"/><path d="M200 348 202 350 203 352 203 350 " style="stroke:gray;fill:none"/><path d="M155 347 153 348 148 353 145 353 147 354 149 352 " style="stroke:gray;fill:none"/><path d="M108 346 108 348 " style="stroke:gray;fill:none"/><path d="M147 344 146 348 146 351 146 348 148 346 150 346 147 345 150 344 " style="stroke:gray;fill:none"/><path d="M141 344 144 345 141 346 144 346 144 344 " style="stroke:gray;fill:none"/><path d="M111 342 111 350 " style="stroke:gray;fill:none"/><path d="M151 339 150 341 152 343 " style="stroke:gray;fill:none"/><path d="M141 339 140 341 142 341 " style="stroke:gray;fill:none"/><path d="M93 339 92 341 91 343 90 346 90 348 90 346 91 343 92 341 " style="stroke:gray;fill:none"/><path d="M110 338 112 338 " style="stroke:gray;fill:none"/><path d="M332 337 331 341 332 343 334 343 337 341 334 340 334 342 332 342 330 340 331 338 335 338 337 339 335 338 " style="stroke:gray;fill:none"/><path d="M182 336 182 338 " style="stroke:gray;fill:none"/><path d="M169 336 169 338 " style="stroke:gray;fill:none"/><path d="M143 336 145 336 " style="stroke:gray;fill:none"/><path d="M110 336 112 336 " style="stroke:gray;fill:none"/><path d="M189 336 " style="stroke:gray;fill:none"/><path d="M201 333 " style="stroke:gray;fill:none"/><path d="M199 333 " style="stroke:gray;fill:none"/><path d="M205 332 " style="stroke:gray;fill:none"/><path d="M177 332 " style="stroke:gray;fill:none"/><path d="M146 332 144 334 147 335 148 337 151 334 155 335 151 334 147 335 " style="stroke:gray;fill:none"/><path d="M148 334 148 337 " style="stroke:gray;fill:none"/><path d="M141 333 141 335 140 337 141 335 142 333 143 331 " style="stroke:gray;fill:none"/><path d="M99 331 " style="stroke:gray;fill:none"/><path d="M104 330 101 333 98 337 96 340 95 342 95 344 93 347 92 351 92 358 93 362 94 364 101 371 104 372 108 373 112 373 115 373 117 373 119 372 121 370 121 366 120 363 118 363 111 356 109 353 109 352 105 348 105 346 107 344 108 342 108 331 106 330 " style="stroke:gray;fill:none"/><path d="M106 330 108 332 108 342 106 344 105 346 105 349 109 353 111 356 111 357 117 363 119 363 121 365 122 368 117 373 115 373 112 373 108 373 104 372 102 371 94 363 93 361 92 358 92 351 93 347 96 341 98 338 101 334 " style="stroke:gray;fill:none"/><path d="M213 328 " style="stroke:gray;fill:none"/><path d="M256 327 256 332 " style="stroke:gray;fill:none"/><path d="M243 327 239 328 236 329 224 335 221 337 216 341 210 347 209 350 218 340 223 336 226 334 236 329 239 328 243 327 246 327 248 328 250 331 248 328 246 327 " style="stroke:gray;fill:none"/><path d="M125 326 121 327 118 328 115 331 114 333 114 349 115 352 116 354 119 357 123 359 126 360 132 360 135 359 138 357 140 355 142 352 142 350 141 353 136 358 132 360 126 360 123 359 120 357 115 352 114 349 114 334 115 332 119 328 121 327 125 326 132 326 134 327 137 330 137 334 137 338 136 342 135 343 135 346 137 348 142 348 138 348 135 345 135 343 136 339 137 334 137 331 137 329 135 327 132 326 " style="stroke:gray;fill:none"/><path d="M137 325 " style="stroke:gray;fill:none"/><path d="M130 323 " style="stroke:gray;fill:none"/><path d="M255 321 254 323 " style="stroke:gray;fill:none"/><path d="M140 320 " style="stroke:gray;fill:none"/><path d="M118 319 117 321 114 324 112 324 110 325 112 324 114 324 116 323 118 319 119 322 121 323 123 323 125 324 123 323 121 323 119 321 " style="stroke:gray;fill:none"/><path d="M226 318 " style="stroke:gray;fill:none"/><path d="M131 318 " style="stroke:gray;fill:none"/><path d="M245 317 246 319 248 320 246 319 " style="stroke:gray;fill:none"/><path d="M202 316 202 318 198 322 194 325 191 327 187 329 185 329 182 331 180 331 182 331 185 329 187 329 193 326 196 324 200 321 202 319 " style="stroke:gray;fill:none"/><path d="M233 315 224 324 220 327 217 329 214 331 206 335 203 336 199 337 195 338 190 339 184 340 162 339 156 339 154 340 154 343 156 345 158 346 163 347 183 348 183 351 183 349 185 347 194 346 203 346 206 349 206 354 205 358 204 359 204 364 203 370 202 374 201 376 196 381 194 382 191 383 188 384 184 385 165 385 161 384 158 383 155 382 152 381 148 379 146 377 144 377 137 369 133 367 131 367 128 370 123 376 122 376 119 379 117 382 116 385 114 385 117 386 118 391 118 394 117 397 116 399 112 403 112 405 107 414 106 417 105 420 104 424 104 427 106 431 109 431 111 429 113 428 116 427 118 427 122 428 125 430 130 435 132 438 132 439 138 439 142 434 145 430 146 427 144 423 145 418 149 421 151 421 156 424 158 424 163 425 161 429 159 427 161 429 159 432 157 435 157 449 156 455 155 459 154 463 153 466 151 470 149 472 149 474 147 477 147 479 147 482 147 484 149 488 153 492 156 493 162 493 165 492 171 489 174 487 178 483 178 480 177 478 174 475 170 472 167 468 167 462 168 460 172 456 175 454 184 454 186 456 188 457 192 457 194 455 196 451 197 448 198 445 199 441 199 436 200 432 201 431 201 425 203 420 206 421 203 420 203 417 204 413 205 409 206 406 207 402 208 398 209 394 210 390 211 387 213 383 219 377 234 363 239 357 241 354 243 351 245 348 247 345 249 341 249 339 251 336 251 334 253 331 253 328 252 326 250 324 245 322 242 320 238 316 236 315 " style="stroke:gray;fill:none"/><path d="M234 315 236 315 241 320 244 322 246 323 248 323 253 328 253 331 251 334 251 336 247 344 245 347 243 350 241 353 239 356 234 362 218 377 213 382 212 384 211 387 210 390 209 394 209 397 208 401 206 404 204 413 203 417 202 421 201 425 201 431 200 435 199 436 199 441 198 445 197 448 196 451 195 453 191 457 189 457 184 454 175 454 172 456 168 452 168 442 169 438 170 436 176 430 178 429 181 428 183 428 188 429 191 430 193 431 197 435 195 432 191 430 188 429 183 428 181 428 178 429 174 431 171 434 169 438 168 442 168 452 169 454 172 456 170 457 168 459 167 461 167 468 168 470 170 473 172 475 178 480 178 482 173 487 170 489 162 493 156 493 154 492 149 487 147 484 147 482 147 479 147 477 153 466 154 463 155 459 156 455 157 449 157 435 158 433 163 429 162 424 160 425 156 424 151 421 149 421 147 419 145 418 144 423 146 427 145 429 142 432 139 436 139 437 136 440 134 440 132 438 130 435 127 431 129 430 131 429 132 427 132 420 131 417 129 413 126 410 120 407 117 406 114 407 117 406 120 407 124 409 130 415 131 417 132 420 132 427 129 430 127 431 122 428 118 427 116 427 113 428 109 430 107 431 105 429 104 427 104 424 105 420 106 417 107 414 108 412 110 410 111 408 111 406 112 404 115 401 117 397 118 394 118 391 117 383 118 381 124 376 128 372 134 368 135 368 137 370 143 377 145 377 152 381 155 382 158 383 161 384 165 385 184 385 188 384 191 383 195 382 197 381 201 377 202 374 203 370 204 364 204 359 205 356 206 355 206 348 204 346 194 346 185 347 182 347 163 347 158 346 154 341 156 339 162 339 184 340 190 339 195 338 199 337 203 336 206 335 218 329 221 327 225 324 " style="stroke:gray;fill:none"/><path d="M140 315 " style="stroke:gray;fill:none"/><path d="M123 314 117 315 113 320 110 323 108 323 106 324 104 328 106 326 108 323 110 323 112 322 115 317 117 315 " style="stroke:gray;fill:none"/><path d="M126 313 126 317 122 318 126 318 128 320 131 320 128 319 129 317 127 316 " style="stroke:gray;fill:none"/><path d="M122 318 126 318 " style="stroke:gray;fill:none"/><path d="M277 312 276 314 273 316 275 316 276 314 " style="stroke:gray;fill:none"/><path d="M124 312 " style="stroke:gray;fill:none"/><path d="M239 310 238 313 " style="stroke:gray;fill:none"/><path d="M236 309 " style="stroke:gray;fill:none"/><path d="M130 310 130 312 133 314 137 313 134 314 132 312 130 311 133 309 " style="stroke:gray;fill:none"/><path d="M406 308 407 312 408 308 " style="stroke:gray;fill:none"/><path d="M402 309 403 313 404 315 409 315 411 314 409 315 405 315 403 313 402 309 404 307 " style="stroke:gray;fill:none"/><path d="M261 307 262 309 264 310 270 310 264 310 " style="stroke:gray;fill:none"/><path d="M213 307 " style="stroke:gray;fill:none"/><path d="M408 306 412 309 410 312 412 312 412 308 410 306 " style="stroke:gray;fill:none"/><path d="M115 305 116 308 119 311 122 312 120 311 118 309 " style="stroke:gray;fill:none"/><path d="M245 303 240 304 238 306 240 304 245 303 247 304 " style="stroke:gray;fill:none"/><path d="M237 302 236 304 235 307 234 308 234 310 235 312 234 310 234 308 236 307 236 304 " style="stroke:gray;fill:none"/><path d="M229 301 226 302 224 304 221 305 219 307 215 309 213 309 210 311 207 312 204 313 201 314 198 315 194 316 189 317 184 318 174 319 153 319 141 318 133 317 131 316 133 317 133 320 135 321 137 321 141 325 147 330 150 331 153 332 156 333 161 334 177 335 176 338 176 336 178 334 186 334 191 333 195 332 198 331 201 330 204 329 207 327 209 327 211 325 213 325 216 323 220 320 229 311 231 308 232 305 233 303 232 301 " style="stroke:gray;fill:none"/><path d="M229 301 231 301 232 306 229 310 219 320 215 323 212 325 204 329 201 330 198 331 195 332 191 333 186 334 177 335 161 334 156 333 153 332 150 331 148 330 143 325 139 322 137 321 135 321 134 317 140 317 152 318 153 319 174 319 184 318 189 317 194 316 198 315 201 314 204 313 207 312 210 311 213 309 215 309 223 305 225 303 " style="stroke:gray;fill:none"/><path d="M223 301 " style="stroke:gray;fill:none"/><path d="M105 301 112 301 114 303 112 301 " style="stroke:gray;fill:none"/><path d="M133 300 " style="stroke:gray;fill:none"/><path d="M233 299 " style="stroke:gray;fill:none"/><path d="M225 299 227 299 " style="stroke:gray;fill:none"/><path d="M101 300 " style="stroke:gray;fill:none"/><path d="M185 298 179 301 176 304 168 308 165 309 162 310 157 311 151 311 157 311 162 310 165 309 168 308 178 303 181 300 185 298 187 298 " style="stroke:gray;fill:none"/><path d="M98 297 " style="stroke:gray;fill:none"/><path d="M239 296 239 302 241 302 " style="stroke:gray;fill:none"/><path d="M240 296 240 302 " style="stroke:gray;fill:none"/><path d="M131 296 132 298 " style="stroke:gray;fill:none"/><path d="M191 296 194 295 " style="stroke:gray;fill:none"/><path d="M110 295 110 298 " style="stroke:gray;fill:none"/><path d="M255 293 " style="stroke:gray;fill:none"/><path d="M239 292 241 292 " style="stroke:gray;fill:none"/><path d="M228 292 228 295 226 296 228 296 231 294 234 295 230 297 235 297 236 299 234 296 235 292 233 294 231 294 " style="stroke:gray;fill:none"/><path d="M246 291 244 293 244 297 247 300 250 301 252 300 253 298 253 295 251 292 " style="stroke:gray;fill:none"/><path d="M247 291 249 291 251 293 253 296 253 298 249 301 244 296 244 294 " style="stroke:gray;fill:none"/><path d="M252 290 " style="stroke:gray;fill:none"/><path d="M242 290 " style="stroke:gray;fill:none"/><path d="M239 290 " style="stroke:gray;fill:none"/><path d="M201 289 198 293 201 293 198 292 " style="stroke:gray;fill:none"/><path d="M229 288 231 289 " style="stroke:gray;fill:none"/><path d="M123 286 " style="stroke:gray;fill:none"/><path d="M121 284 " style="stroke:gray;fill:none"/><path d="M112 283 " style="stroke:gray;fill:none"/><path d="M207 282 206 284 204 286 206 284 " style="stroke:gray;fill:none"/><path d="M102 282 99 283 " style="stroke:gray;fill:none"/><path d="M259 281 257 282 255 284 255 287 257 291 259 293 260 295 261 298 261 301 260 303 256 307 246 306 243 307 243 312 246 315 252 318 255 319 261 319 264 318 270 315 276 309 277 307 278 304 279 301 279 293 277 290 277 288 272 283 269 282 266 281 " style="stroke:gray;fill:none"/><path d="M259 281 266 281 269 282 271 283 277 289 279 293 279 301 278 304 276 308 268 316 264 318 261 319 255 319 252 318 248 316 242 309 244 307 246 306 257 307 260 304 261 301 261 298 260 294 259 292 256 289 255 287 255 285 " style="stroke:gray;fill:none"/><path d="M212 281 210 283 209 286 203 292 209 286 211 283 " style="stroke:gray;fill:none"/><path d="M108 281 109 283 " style="stroke:gray;fill:none"/><path d="M208 280 " style="stroke:gray;fill:none"/><path d="M118 280 " style="stroke:gray;fill:none"/><path d="M245 279 245 282 243 285 241 286 243 285 245 287 247 288 248 283 " style="stroke:gray;fill:none"/><path d="M246 279 248 283 247 287 245 287 243 285 244 283 " style="stroke:gray;fill:none"/><path d="M121 278 121 281 " style="stroke:gray;fill:none"/><path d="M247 277 " style="stroke:gray;fill:none"/><path d="M250 275 252 275 " style="stroke:gray;fill:none"/><path d="M259 276 257 278 259 277 260 273 " style="stroke:gray;fill:none"/><path d="M257 273 256 275 255 278 256 275 " style="stroke:gray;fill:none"/><path d="M244 274 246 273 " style="stroke:gray;fill:none"/><path d="M206 273 204 275 202 278 201 281 198 285 196 287 200 283 201 280 203 277 205 275 " style="stroke:gray;fill:none"/><path d="M120 273 120 276 " style="stroke:gray;fill:none"/><path d="M211 273 213 273 213 278 213 273 " style="stroke:gray;fill:none"/><path d="M138 272 136 274 136 278 137 281 144 280 145 278 145 275 142 272 " style="stroke:gray;fill:none"/><path d="M139 272 141 272 145 276 145 278 142 281 138 281 136 279 135 276 " style="stroke:gray;fill:none"/><path d="M118 272 " style="stroke:gray;fill:none"/><path d="M207 271 " style="stroke:gray;fill:none"/><path d="M258 268 260 269 258 271 260 271 261 269 " style="stroke:gray;fill:none"/><path d="M236 268 234 270 233 273 232 284 233 286 235 287 238 287 240 283 241 280 242 275 242 272 241 270 239 268 " style="stroke:gray;fill:none"/><path d="M238 268 242 272 242 275 241 280 240 283 238 286 236 288 232 284 233 273 234 271 " style="stroke:gray;fill:none"/><path d="M233 268 " style="stroke:gray;fill:none"/><path d="M208 268 " style="stroke:gray;fill:none"/><path d="M273 267 268 269 265 269 265 271 269 272 272 272 269 271 272 269 " style="stroke:gray;fill:none"/><path d="M266 269 269 270 267 273 265 271 " style="stroke:gray;fill:none"/><path d="M245 267 " style="stroke:gray;fill:none"/><path d="M119 267 " style="stroke:gray;fill:none"/><path d="M92 267 91 269 91 275 92 282 93 284 92 282 91 275 91 269 " style="stroke:gray;fill:none"/><path d="M209 266 " style="stroke:gray;fill:none"/><path d="M235 264 236 266 " style="stroke:gray;fill:none"/><path d="M231 263 231 267 " style="stroke:gray;fill:none"/><path d="M153 262 160 262 " style="stroke:gray;fill:none"/><path d="M98 261 97 264 96 267 95 268 95 281 96 285 97 288 101 296 105 298 107 297 108 295 107 291 106 287 105 286 104 282 103 276 103 265 102 262 " style="stroke:gray;fill:none"/><path d="M97 263 102 263 103 265 103 276 104 282 105 286 106 290 107 291 108 295 105 298 103 297 101 295 99 292 97 288 96 285 95 281 95 268 96 265 " style="stroke:gray;fill:none"/><path d="M234 259 234 261 " style="stroke:gray;fill:none"/><path d="M101 258 98 259 " style="stroke:gray;fill:none"/><path d="M258 257 260 261 258 260 " style="stroke:gray;fill:none"/><path d="M106 256 103 258 105 259 " style="stroke:gray;fill:none"/><path d="M286 256 " style="stroke:gray;fill:none"/><path d="M234 255 234 257 " style="stroke:gray;fill:none"/><path d="M265 255 " style="stroke:gray;fill:none"/><path d="M238 254 236 256 236 262 237 255 238 258 238 262 240 264 240 266 240 264 238 258 " style="stroke:gray;fill:none"/><path d="M281 253 279 255 277 256 " style="stroke:gray;fill:none"/><path d="M249 253 252 253 " style="stroke:gray;fill:none"/><path d="M241 252 241 257 242 268 243 263 245 264 243 260 245 260 242 259 241 257 " style="stroke:gray;fill:none"/><path d="M243 250 243 255 " style="stroke:gray;fill:none"/><path d="M111 251 110 253 109 256 108 259 108 265 109 268 112 271 112 277 113 280 114 281 114 285 112 288 112 290 113 293 115 296 115 298 117 301 117 303 122 308 126 308 128 307 128 303 123 294 123 292 122 289 121 287 116 282 115 275 115 269 117 267 117 254 114 251 " style="stroke:gray;fill:none"/><path d="M113 250 117 254 117 266 115 268 115 275 116 282 117 284 122 289 123 292 124 295 124 297 128 304 128 306 126 308 123 308 117 302 115 298 115 296 113 293 112 290 112 288 114 286 114 281 113 278 112 277 112 270 109 267 108 265 108 259 109 256 111 252 " style="stroke:gray;fill:none"/><path d="M242 248 " style="stroke:gray;fill:none"/><path d="M108 250 107 252 106 254 107 252 108 250 110 248 " style="stroke:gray;fill:none"/><path d="M242 246 " style="stroke:gray;fill:none"/><path d="M286 244 " style="stroke:gray;fill:none"/><path d="M266 243 265 248 266 251 268 251 265 250 265 248 " style="stroke:gray;fill:none"/><path d="M26 243 25 245 25 247 26 249 29 249 30 247 31 243 32 245 32 243 " style="stroke:gray;fill:none"/><path d="M27 243 30 244 30 246 29 248 26 248 25 245 " style="stroke:gray;fill:none"/><path d="M255 242 256 248 " style="stroke:gray;fill:none"/><path d="M114 241 116 243 115 247 118 246 119 248 118 246 119 243 117 247 116 243 118 241 116 242 " style="stroke:gray;fill:none"/><path d="M392 239 392 242 " style="stroke:gray;fill:none"/><path d="M254 240 258 238 " style="stroke:gray;fill:none"/><path d="M225 237 " style="stroke:gray;fill:none"/><path d="M386 236 " style="stroke:gray;fill:none"/><path d="M286 241 284 244 282 247 282 249 279 251 278 253 280 251 282 248 284 245 284 243 287 241 288 236 " style="stroke:gray;fill:none"/><path d="M243 236 242 239 244 243 244 245 245 248 246 249 247 253 247 261 248 271 249 273 251 272 253 273 254 271 255 268 255 253 254 249 253 245 251 242 251 240 247 236 " style="stroke:gray;fill:none"/><path d="M243 237 246 236 251 241 253 245 254 249 255 253 255 268 254 271 252 273 250 273 248 271 247 261 247 253 246 249 245 246 244 245 243 242 242 239 " style="stroke:gray;fill:none"/><path d="M240 236 238 237 " style="stroke:gray;fill:none"/><path d="M388 235 388 237 386 238 387 243 390 240 389 235 395 236 395 242 392 245 385 244 393 245 395 243 394 235 " style="stroke:gray;fill:none"/><path d="M388 238 390 240 386 241 " style="stroke:gray;fill:none"/><path d="M232 235 230 236 229 238 229 241 229 244 230 248 231 250 236 252 238 250 238 247 238 245 237 242 235 238 " style="stroke:gray;fill:none"/><path d="M232 236 236 240 237 242 238 245 238 247 239 249 235 253 230 248 229 244 229 241 228 239 " style="stroke:gray;fill:none"/><path d="M111 235 110 237 110 240 111 245 112 247 111 245 110 240 110 237 " style="stroke:gray;fill:none"/><path d="M229 234 " style="stroke:gray;fill:none"/><path d="M152 234 149 235 147 236 143 240 141 244 140 247 140 249 141 253 142 256 143 258 148 263 150 263 153 265 159 265 162 264 166 262 169 259 171 255 172 252 172 246 171 242 169 239 167 237 164 235 161 234 " style="stroke:gray;fill:none"/><path d="M152 234 161 234 165 236 169 240 171 243 172 246 172 252 170 255 170 257 164 263 162 264 159 265 153 265 149 263 146 261 144 259 142 256 141 253 140 249 140 247 141 244 142 242 149 235 " style="stroke:gray;fill:none"/><path d="M139 234 " style="stroke:gray;fill:none"/><path d="M322 233 333 233 " style="stroke:gray;fill:none"/><path d="M231 233 " style="stroke:gray;fill:none"/><path d="M141 233 " style="stroke:gray;fill:none"/><path d="M337 232 " style="stroke:gray;fill:none"/><path d="M304 231 " style="stroke:gray;fill:none"/><path d="M258 231 256 233 254 236 " style="stroke:gray;fill:none"/><path d="M345 230 348 230 " style="stroke:gray;fill:none"/><path d="M296 230 291 231 290 233 290 238 289 240 290 237 292 235 293 233 291 236 290 233 292 231 296 233 295 231 298 231 298 233 298 230 " style="stroke:gray;fill:none"/><path d="M225 230 223 233 225 232 227 232 " style="stroke:gray;fill:none"/><path d="M351 228 " style="stroke:gray;fill:none"/><path d="M145 226 " style="stroke:gray;fill:none"/><path d="M298 225 295 228 293 229 296 228 " style="stroke:gray;fill:none"/><path d="M216 225 " style="stroke:gray;fill:none"/><path d="M168 225 164 226 163 227 157 227 153 228 150 229 149 230 146 231 143 232 146 231 149 230 152 229 153 228 157 227 163 227 167 226 168 225 188 225 192 226 194 227 197 229 205 237 207 240 209 244 210 248 210 257 211 261 212 262 212 264 211 267 209 270 209 272 208 275 206 279 204 282 194 292 192 293 190 293 188 295 189 298 195 298 199 297 205 294 211 288 213 285 214 283 215 280 216 277 216 267 215 265 212 263 211 261 210 257 210 248 209 244 206 238 204 235 199 230 196 228 192 226 188 225 " style="stroke:gray;fill:none"/><path d="M213 264 216 267 216 277 214 280 214 283 212 286 204 294 201 296 199 297 195 298 189 297 188 295 190 293 194 293 196 290 203 284 205 281 206 278 208 276 209 274 209 270 211 266 " style="stroke:gray;fill:none"/><path d="M303 222 " style="stroke:gray;fill:none"/><path d="M293 222 295 225 " style="stroke:gray;fill:none"/><path d="M206 222 " style="stroke:gray;fill:none"/><path d="M153 223 " style="stroke:gray;fill:none"/><path d="M301 221 " style="stroke:gray;fill:none"/><path d="M244 221 247 223 244 225 247 223 248 231 250 231 249 224 247 222 " style="stroke:gray;fill:none"/><path d="M249 224 249 231 " style="stroke:gray;fill:none"/><path d="M203 221 " style="stroke:gray;fill:none"/><path d="M197 220 " style="stroke:gray;fill:none"/><path d="M163 220 162 223 160 223 156 224 153 225 150 226 147 227 132 235 130 235 127 237 122 242 122 244 122 247 122 270 123 277 124 282 125 285 126 289 127 292 128 295 129 298 131 302 133 305 140 312 149 313 170 314 170 316 172 313 175 314 176 316 176 313 178 312 185 312 191 311 195 310 198 309 199 308 203 308 206 306 207 309 207 307 209 305 211 305 219 301 222 299 224 296 226 293 227 288 228 284 228 277 231 274 231 270 228 274 228 263 231 261 231 259 229 254 229 252 229 254 230 258 231 260 229 262 227 260 226 252 227 245 225 245 225 243 223 240 222 237 222 235 221 232 218 229 212 226 209 225 205 224 201 223 196 222 189 222 184 221 182 221 179 221 169 222 " style="stroke:gray;fill:none"/><path d="M170 221 179 221 182 221 184 221 189 222 196 222 201 223 205 224 209 225 212 226 216 228 221 233 222 235 223 238 223 240 225 243 226 247 227 253 228 261 228 274 228 277 228 284 227 288 226 292 225 294 223 297 221 299 217 302 211 305 208 306 206 306 203 308 199 308 196 309 195 310 191 311 185 312 178 312 175 314 170 314 150 313 141 312 133 304 130 300 129 298 128 295 128 292 126 289 126 285 124 282 123 276 122 270 122 247 122 243 128 237 131 235 147 227 150 226 153 225 156 224 160 223 164 222 " style="stroke:gray;fill:none"/><path d="M350 219 342 223 340 225 338 226 331 226 328 228 325 228 328 228 331 226 338 226 342 224 344 222 346 221 348 221 350 219 352 219 " style="stroke:gray;fill:none"/><path d="M258 219 " style="stroke:gray;fill:none"/><path d="M363 216 " style="stroke:gray;fill:none"/><path d="M253 214 253 231 251 236 252 232 " style="stroke:gray;fill:none"/><path d="M246 211 244 212 " style="stroke:gray;fill:none"/><path d="M291 210 " style="stroke:gray;fill:none"/><path d="M128 211 125 212 124 214 123 216 124 214 127 211 130 210 " style="stroke:gray;fill:none"/><path d="M285 210 " style="stroke:gray;fill:none"/><path d="M283 207 " style="stroke:gray;fill:none"/><path d="M219 207 216 209 219 208 221 207 " style="stroke:gray;fill:none"/><path d="M250 205 " style="stroke:gray;fill:none"/><path d="M245 205 " style="stroke:gray;fill:none"/><path d="M290 204 290 208 293 207 291 206 " style="stroke:gray;fill:none"/><path d="M272 204 272 206 270 209 269 215 270 219 268 222 268 230 266 233 267 235 266 238 264 241 263 243 261 241 258 243 260 244 261 246 262 257 261 259 262 257 262 247 263 243 264 241 266 239 266 237 270 233 270 231 270 233 266 233 268 231 268 222 271 219 269 218 269 215 270 209 272 207 " style="stroke:gray;fill:none"/><path d="M261 241 263 243 262 247 260 245 " style="stroke:gray;fill:none"/><path d="M255 204 257 204 " style="stroke:gray;fill:none"/><path d="M262 203 " style="stroke:gray;fill:none"/><path d="M250 203 " style="stroke:gray;fill:none"/><path d="M242 203 242 208 " style="stroke:gray;fill:none"/><path d="M232 203 234 204 237 205 234 204 " style="stroke:gray;fill:none"/><path d="M230 202 " style="stroke:gray;fill:none"/><path d="M167 202 170 202 174 203 177 204 180 205 186 208 189 210 191 212 191 214 191 211 188 209 180 205 177 204 174 203 170 202 " style="stroke:gray;fill:none"/><path d="M259 202 260 218 260 220 259 229 260 230 259 236 260 229 259 222 260 221 260 217 260 207 260 205 259 202 262 200 " style="stroke:gray;fill:none"/><path d="M233 200 " style="stroke:gray;fill:none"/><path d="M295 198 " style="stroke:gray;fill:none"/><path d="M285 199 289 199 " style="stroke:gray;fill:none"/><path d="M173 198 165 199 162 200 161 201 156 201 153 202 150 203 147 205 145 205 135 210 131 213 127 216 122 221 119 225 115 233 116 238 119 238 122 236 125 233 128 231 131 230 133 228 143 223 146 222 149 221 151 221 154 219 158 218 164 217 173 216 188 217 191 216 195 218 197 217 203 218 206 219 210 220 213 221 214 222 217 223 220 224 222 224 224 222 224 219 218 213 214 210 211 208 203 204 201 204 198 202 195 201 192 200 187 199 178 198 " style="stroke:gray;fill:none"/><path d="M173 198 178 198 187 199 192 200 195 201 198 202 201 204 203 204 209 207 213 210 217 213 224 220 224 222 222 224 220 224 217 223 214 222 211 221 210 220 206 219 203 218 197 217 195 218 191 216 188 217 173 216 164 217 158 218 154 219 151 221 148 222 146 222 142 223 140 225 127 231 124 233 121 236 117 238 115 236 115 233 117 229 119 226 122 222 128 216 132 213 136 210 139 208 145 205 147 205 150 203 153 202 156 201 161 201 164 200 165 199 " style="stroke:gray;fill:none"/><path d="M313 197 315 199 313 201 311 201 306 204 302 205 300 205 302 205 306 204 311 201 314 200 316 199 315 197 " style="stroke:gray;fill:none"/><path d="M291 197 293 198 " style="stroke:gray;fill:none"/><path d="M317 196 319 196 " style="stroke:gray;fill:none"/><path d="M236 197 238 197 239 202 239 208 240 211 241 212 242 220 242 231 240 233 236 233 235 233 230 228 228 224 227 221 226 219 228 223 228 225 226 227 224 228 221 228 218 227 221 228 224 228 227 227 228 225 230 227 230 229 233 232 236 234 238 234 240 233 242 232 241 219 242 213 240 211 239 207 240 203 238 201 238 196 " style="stroke:gray;fill:none"/><path d="M295 196 298 197 300 195 " style="stroke:gray;fill:none"/><path d="M321 195 " style="stroke:gray;fill:none"/><path d="M239 194 " style="stroke:gray;fill:none"/><path d="M245 192 " style="stroke:gray;fill:none"/><path d="M241 189 241 192 241 195 244 196 241 197 241 200 242 198 244 197 246 199 246 203 248 205 246 208 248 210 249 214 251 214 251 211 253 209 253 203 255 200 257 202 258 200 256 201 254 197 255 200 253 203 253 208 251 211 248 213 247 208 248 205 246 202 246 198 243 194 241 193 " style="stroke:gray;fill:none"/><path d="M370 187 370 195 369 197 370 195 " style="stroke:gray;fill:none"/><path d="M162 185 161 187 161 191 163 194 162 197 164 196 168 195 168 193 167 191 168 194 166 196 163 195 161 191 161 187 " style="stroke:gray;fill:none"/><path d="M321 184 323 182 " style="stroke:gray;fill:none"/><path d="M161 182 " style="stroke:gray;fill:none"/><path d="M364 178 " style="stroke:gray;fill:none"/><path d="M361 177 361 179 363 176 " style="stroke:gray;fill:none"/><path d="M194 176 192 177 192 181 196 181 196 177 " style="stroke:gray;fill:none"/><path d="M194 176 196 178 195 181 193 181 191 179 " style="stroke:gray;fill:none"/><path d="M341 175 " style="stroke:gray;fill:none"/><path d="M80 175 80 180 " style="stroke:gray;fill:none"/><path d="M290 174 291 176 293 177 296 177 293 177 291 176 " style="stroke:gray;fill:none"/><path d="M283 174 284 177 286 177 290 178 295 179 296 180 303 180 296 180 291 179 287 178 285 177 " style="stroke:gray;fill:none"/><path d="M343 173 " style="stroke:gray;fill:none"/><path d="M344 171 " style="stroke:gray;fill:none"/><path d="M334 172 " style="stroke:gray;fill:none"/><path d="M74 172 72 175 71 177 70 179 72 181 70 179 72 176 73 179 74 181 78 180 77 174 77 171 " style="stroke:gray;fill:none"/><path d="M77 175 78 179 74 180 73 178 75 176 " style="stroke:gray;fill:none"/><path d="M78 173 76 174 75 176 72 176 74 173 " style="stroke:gray;fill:none"/><path d="M225 169 228 170 " style="stroke:gray;fill:none"/><path d="M291 169 " style="stroke:gray;fill:none"/><path d="M287 168 289 169 " style="stroke:gray;fill:none"/><path d="M284 168 284 170 " style="stroke:gray;fill:none"/><path d="M210 168 211 171 210 169 213 169 " style="stroke:gray;fill:none"/><path d="M343 167 346 167 " style="stroke:gray;fill:none"/><path d="M222 167 " style="stroke:gray;fill:none"/><path d="M330 166 327 167 326 168 320 169 315 170 311 169 300 169 300 167 299 171 292 172 288 172 285 172 283 172 255 170 255 168 254 171 245 171 243 169 243 167 242 170 234 170 232 171 231 173 231 175 234 179 241 186 245 189 249 192 251 192 253 194 255 195 257 195 264 199 268 200 272 201 277 202 280 202 289 202 296 201 300 200 303 198 305 198 308 197 311 196 317 193 319 191 322 190 325 188 337 176 340 172 341 169 340 166 " style="stroke:gray;fill:none"/><path d="M330 166 333 168 329 172 327 173 325 173 321 172 319 171 321 172 325 173 327 173 329 172 332 172 331 170 334 166 340 167 341 169 340 171 337 175 324 188 320 191 317 192 315 194 313 195 311 195 308 197 304 198 302 196 304 194 306 193 310 193 311 191 315 188 319 184 318 182 320 180 322 180 325 178 328 177 328 175 326 178 322 180 319 181 316 181 309 180 306 178 303 178 300 177 297 173 298 176 300 177 302 177 306 178 309 180 315 180 317 181 318 184 314 188 310 191 307 192 304 194 302 196 302 199 300 200 296 201 289 202 280 202 277 202 272 201 268 200 265 199 262 198 250 192 246 189 242 186 234 178 231 173 234 170 244 170 282 171 283 172 285 172 288 172 292 172 299 171 300 170 311 169 315 170 320 169 326 168 " style="stroke:gray;fill:none"/><path d="M227 166 230 168 " style="stroke:gray;fill:none"/><path d="M356 166 " style="stroke:gray;fill:none"/><path d="M345 165 " style="stroke:gray;fill:none"/><path d="M325 165 " style="stroke:gray;fill:none"/><path d="M323 165 " style="stroke:gray;fill:none"/><path d="M329 164 " style="stroke:gray;fill:none"/><path d="M348 163 347 165 " style="stroke:gray;fill:none"/><path d="M333 164 " style="stroke:gray;fill:none"/><path d="M213 163 216 164 " style="stroke:gray;fill:none"/><path d="M210 163 " style="stroke:gray;fill:none"/><path d="M342 165 342 162 " style="stroke:gray;fill:none"/><path d="M336 163 338 162 " style="stroke:gray;fill:none"/><path d="M363 161 " style="stroke:gray;fill:none"/><path d="M351 161 " style="stroke:gray;fill:none"/><path d="M345 161 " style="stroke:gray;fill:none"/><path d="M158 161 " style="stroke:gray;fill:none"/><path d="M348 161 " style="stroke:gray;fill:none"/><path d="M349 159 351 159 " style="stroke:gray;fill:none"/><path d="M354 158 356 161 " style="stroke:gray;fill:none"/><path d="M165 159 " style="stroke:gray;fill:none"/><path d="M159 158 " style="stroke:gray;fill:none"/><path d="M358 161 360 163 362 165 363 169 360 165 357 163 352 163 350 165 348 168 348 170 347 172 343 177 340 181 329 192 325 195 322 197 321 197 308 206 306 208 304 208 298 206 296 207 294 210 294 212 295 214 299 217 302 218 311 226 304 219 301 218 297 215 294 212 294 210 298 206 304 208 307 208 310 207 312 207 323 196 326 194 327 194 331 191 340 182 343 178 346 174 348 169 350 166 353 163 356 163 359 165 361 168 363 170 365 173 366 176 367 180 367 196 366 200 365 205 363 208 361 210 362 212 359 214 351 223 348 225 345 226 343 228 340 229 335 230 316 230 311 229 308 228 306 226 304 226 302 225 300 223 298 221 288 211 287 204 283 205 280 204 276 206 278 208 274 209 274 214 272 216 275 214 274 211 275 209 278 210 278 213 277 216 276 217 276 224 274 226 274 228 275 225 275 230 272 231 272 235 271 240 270 241 269 246 269 249 269 246 270 241 271 236 272 232 274 230 275 233 274 236 273 237 273 241 272 247 271 250 270 254 268 254 268 263 265 259 263 261 262 264 261 267 262 264 263 261 267 260 268 263 271 265 269 265 271 266 273 264 274 261 277 258 279 257 276 258 274 260 273 263 271 264 269 262 269 256 270 252 271 248 272 247 272 242 273 237 274 234 275 233 276 230 276 218 277 214 278 213 278 207 276 206 280 204 281 209 282 205 284 204 286 204 288 206 288 212 298 223 302 225 304 227 302 228 301 230 301 233 299 235 293 241 293 243 291 245 289 247 287 250 288 248 290 246 290 250 288 252 283 256 283 258 279 262 278 264 277 266 278 264 281 261 282 259 283 262 280 266 277 268 276 271 270 276 268 276 265 275 262 273 265 275 261 278 263 277 265 277 268 279 266 277 264 276 267 275 270 276 274 274 274 279 275 283 274 279 275 273 277 270 279 268 280 265 283 262 283 257 285 253 287 253 289 252 291 249 290 246 293 244 293 242 294 240 297 238 300 235 301 230 303 228 306 227 310 229 315 230 335 230 340 229 344 228 346 226 349 225 352 223 359 216 362 212 363 208 365 205 366 201 367 196 367 180 366 176 365 172 363 169 363 165 359 162 359 157 " style="stroke:gray;fill:none"/><path d="M305 228 " style="stroke:gray;fill:none"/><path d="M363 155 " style="stroke:gray;fill:none"/><path d="M166 156 " style="stroke:gray;fill:none"/><path d="M161 154 " style="stroke:gray;fill:none"/><path d="M376 151 374 153 370 153 375 153 " style="stroke:gray;fill:none"/><path d="M254 151 245 152 253 152 262 151 263 152 270 152 263 152 " style="stroke:gray;fill:none"/><path d="M228 151 " style="stroke:gray;fill:none"/><path d="M275 150 275 152 " style="stroke:gray;fill:none"/><path d="M5 150 " style="stroke:gray;fill:none"/><path d="M294 149 294 151 " style="stroke:gray;fill:none"/><path d="M292 149 292 151 " style="stroke:gray;fill:none"/><path d="M305 148 305 150 " style="stroke:gray;fill:none"/><path d="M321 148 " style="stroke:gray;fill:none"/><path d="M216 149 219 148 " style="stroke:gray;fill:none"/><path d="M163 147 163 151 161 148 162 150 164 154 162 156 161 160 161 168 162 176 163 180 165 182 165 184 167 187 169 189 174 193 183 194 190 194 194 195 197 197 199 197 202 198 205 199 207 201 210 202 212 204 214 205 222 205 224 203 226 203 230 200 237 193 237 188 232 183 230 180 228 177 228 176 225 173 224 171 222 169 219 167 216 166 214 166 217 167 220 169 221 169 222 171 225 173 228 177 230 180 230 181 232 184 237 189 237 192 229 200 225 203 223 204 220 205 215 205 213 204 211 202 205 199 203 199 200 197 197 196 194 195 190 194 183 194 174 193 171 191 169 189 167 186 165 183 163 179 162 176 161 167 161 161 162 157 163 155 164 150 " style="stroke:gray;fill:none"/><path d="M0 147 2 150 " style="stroke:gray;fill:none"/><path d="M332 147 " style="stroke:gray;fill:none"/><path d="M265 146 269 146 " style="stroke:gray;fill:none"/><path d="M216 146 213 147 " style="stroke:gray;fill:none"/><path d="M184 146 184 148 " style="stroke:gray;fill:none"/><path d="M167 147 167 151 167 153 169 152 171 150 171 146 " style="stroke:gray;fill:none"/><path d="M171 147 171 149 168 152 166 149 " style="stroke:gray;fill:none"/><path d="M286 145 " style="stroke:gray;fill:none"/><path d="M152 145 151 151 155 152 159 150 156 151 151 151 " style="stroke:gray;fill:none"/><path d="M345 145 " style="stroke:gray;fill:none"/><path d="M213 144 " style="stroke:gray;fill:none"/><path d="M3 144 3 148 7 147 6 144 " style="stroke:gray;fill:none"/><path d="M5 144 7 146 3 147 " style="stroke:gray;fill:none"/><path d="M215 144 " style="stroke:gray;fill:none"/><path d="M167 143 169 142 " style="stroke:gray;fill:none"/><path d="M173 142 172 144 173 142 175 140 " style="stroke:gray;fill:none"/><path d="M148 140 151 143 " style="stroke:gray;fill:none"/><path d="M0 142 0 145 0 142 4 141 6 141 10 145 11 148 9 150 7 150 11 149 11 147 10 144 7 141 4 141 " style="stroke:gray;fill:none"/><path d="M357 139 " style="stroke:gray;fill:none"/><path d="M221 139 222 141 222 143 " style="stroke:gray;fill:none"/><path d="M355 141 355 138 " style="stroke:gray;fill:none"/><path d="M338 138 336 140 334 140 336 140 339 138 341 138 " style="stroke:gray;fill:none"/><path d="M147 138 " style="stroke:gray;fill:none"/><path d="M356 136 358 137 " style="stroke:gray;fill:none"/><path d="M216 135 214 136 216 140 215 138 " style="stroke:gray;fill:none"/><path d="M355 134 " style="stroke:gray;fill:none"/><path d="M174 134 172 136 169 140 171 139 " style="stroke:gray;fill:none"/><path d="M145 129 145 133 " style="stroke:gray;fill:none"/><path d="M359 128 357 130 357 132 364 139 360 143 358 144 355 145 351 146 347 147 342 148 336 149 330 150 321 151 310 152 301 151 300 149 301 151 299 153 288 152 290 151 287 150 287 153 281 154 233 154 231 153 230 150 229 153 223 153 216 152 211 151 209 150 206 147 206 145 212 139 212 136 210 135 206 135 203 136 195 140 192 143 191 145 191 149 192 151 196 155 200 157 203 158 206 159 209 160 213 161 217 162 223 163 229 164 237 165 248 166 248 169 251 168 254 166 288 165 290 165 294 167 294 169 294 167 296 165 302 165 305 165 305 168 305 166 307 164 315 164 322 163 327 162 332 161 337 160 341 159 346 158 349 157 353 156 356 155 359 154 362 152 364 152 372 148 375 146 377 144 378 142 378 137 377 135 375 133 372 131 370 131 367 129 363 128 " style="stroke:gray;fill:none"/><path d="M360 128 362 128 367 129 371 131 374 133 377 136 378 138 378 141 377 143 374 146 371 148 361 153 358 154 356 154 353 156 349 157 346 158 341 159 337 160 332 161 327 162 322 163 315 164 307 164 302 165 295 166 290 165 288 165 254 166 251 166 248 166 237 165 229 164 223 163 217 162 213 161 209 160 206 159 203 158 197 155 192 150 191 148 191 146 192 144 196 140 206 135 209 135 211 137 211 139 205 145 205 147 208 150 211 151 216 152 223 153 233 154 281 154 299 153 310 152 321 151 330 150 336 149 342 148 347 147 351 146 355 145 358 144 361 143 364 140 364 138 359 133 357 132 358 130 " style="stroke:gray;fill:none"/><path d="M216 127 216 130 " style="stroke:gray;fill:none"/><path d="M193 128 191 128 184 132 181 133 179 133 177 134 176 136 176 138 178 138 181 135 183 133 185 131 187 131 189 129 191 128 193 128 195 127 " style="stroke:gray;fill:none"/><path d="M182 132 182 135 176 137 177 135 180 133 " style="stroke:gray;fill:none"/><path d="M367 126 " style="stroke:gray;fill:none"/><path d="M353 126 354 129 " style="stroke:gray;fill:none"/><path d="M203 126 204 129 " style="stroke:gray;fill:none"/><path d="M198 126 200 126 " style="stroke:gray;fill:none"/><path d="M362 125 364 125 " style="stroke:gray;fill:none"/><path d="M346 125 347 135 349 135 346 134 " style="stroke:gray;fill:none"/><path d="M420 123 419 126 420 128 422 129 424 128 424 124 426 126 427 129 426 132 419 132 417 130 417 128 416 126 418 124 417 128 417 130 419 132 427 131 427 128 426 125 424 123 " style="stroke:gray;fill:none"/><path d="M421 123 424 124 422 125 424 127 422 129 420 127 " style="stroke:gray;fill:none"/><path d="M217 124 " style="stroke:gray;fill:none"/><path d="M216 120 " style="stroke:gray;fill:none"/><path d="M144 121 " style="stroke:gray;fill:none"/><path d="M202 119 209 120 " style="stroke:gray;fill:none"/><path d="M345 117 345 122 " style="stroke:gray;fill:none"/><path d="M203 117 " style="stroke:gray;fill:none"/><path d="M204 115 " style="stroke:gray;fill:none"/><path d="M344 114 " style="stroke:gray;fill:none"/><path d="M242 114 243 121 242 125 244 128 243 130 245 133 246 139 247 142 248 144 251 146 248 143 246 139 244 134 243 130 244 128 242 125 243 121 " style="stroke:gray;fill:none"/><path d="M219 114 " style="stroke:gray;fill:none"/><path d="M341 108 343 111 " style="stroke:gray;fill:none"/><path d="M219 106 218 108 217 110 218 108 " style="stroke:gray;fill:none"/><path d="M246 105 244 105 243 107 243 111 247 115 252 117 254 119 266 125 268 125 279 131 282 132 284 132 289 135 292 136 294 136 297 138 299 138 302 140 304 140 309 143 311 144 309 143 304 140 302 140 299 138 297 138 294 136 292 136 289 135 284 132 282 132 279 131 268 125 266 125 256 120 254 118 249 116 243 110 243 107 245 105 249 105 256 108 258 110 274 118 276 118 283 122 286 123 288 123 291 125 293 125 298 128 300 128 303 129 308 132 310 132 313 134 315 134 322 138 324 138 326 140 326 142 326 139 324 138 322 138 315 134 313 134 310 132 308 132 303 129 301 129 298 128 293 125 291 125 288 123 286 123 283 122 276 118 274 118 260 111 258 109 249 105 " style="stroke:gray;fill:none"/><path d="M220 103 222 105 222 107 222 105 " style="stroke:gray;fill:none"/><path d="M212 102 " style="stroke:gray;fill:none"/><path d="M247 100 " style="stroke:gray;fill:none"/><path d="M206 99 210 103 209 101 " style="stroke:gray;fill:none"/><path d="M203 94 " style="stroke:gray;fill:none"/><path d="M200 93 " style="stroke:gray;fill:none"/><path d="M337 91 340 94 342 97 342 98 343 100 343 98 341 96 339 92 " style="stroke:gray;fill:none"/><path d="M251 89 250 91 250 93 249 95 250 91 " style="stroke:gray;fill:none"/><path d="M192 88 " style="stroke:gray;fill:none"/><path d="M159 87 156 90 154 93 153 96 153 98 153 96 155 92 161 89 161 91 155 98 161 92 161 88 " style="stroke:gray;fill:none"/><path d="M249 86 248 88 247 90 247 93 245 96 244 99 244 103 245 101 245 98 245 96 247 93 247 90 248 88 " style="stroke:gray;fill:none"/><path d="M197 85 195 87 196 91 196 88 200 87 " style="stroke:gray;fill:none"/><path d="M161 85 164 86 167 88 168 88 172 91 177 95 182 99 186 102 191 106 196 110 201 116 198 119 195 119 192 120 189 121 186 122 182 124 180 126 177 127 173 130 170 134 167 136 165 140 158 146 154 142 153 139 151 137 150 135 150 133 148 131 147 127 146 122 146 111 147 107 148 104 149 103 149 100 150 98 151 96 150 98 149 102 148 106 147 107 146 111 146 122 147 127 148 131 150 134 150 136 151 138 153 140 154 143 157 146 160 146 165 141 167 138 170 134 174 130 178 127 181 126 183 124 186 122 189 122 192 122 192 124 190 126 187 126 185 128 182 129 180 130 183 128 185 128 188 126 191 125 193 124 196 124 200 124 196 124 194 125 192 123 191 121 195 119 199 119 201 122 209 123 211 125 210 129 208 130 205 131 202 131 199 132 197 133 194 135 188 141 187 143 186 145 186 149 187 151 189 154 193 158 197 161 201 163 204 164 208 165 212 165 209 165 205 164 202 163 198 161 195 159 188 152 186 149 188 147 186 145 187 143 195 135 198 133 202 131 207 130 209 131 210 129 212 131 212 133 212 131 211 129 214 127 213 124 214 121 214 123 212 128 211 123 209 123 203 123 199 119 201 117 201 115 200 113 197 110 192 106 191 106 187 102 185 101 186 99 185 101 183 99 179 96 178 96 173 91 169 88 166 86 163 85 " style="stroke:gray;fill:none"/><path d="M200 84 " style="stroke:gray;fill:none"/><path d="M329 83 331 84 332 86 331 84 " style="stroke:gray;fill:none"/><path d="M368 82 366 83 364 85 364 88 366 92 368 92 372 90 370 91 366 90 368 88 371 88 370 85 367 86 366 90 364 88 364 85 366 83 368 82 370 82 372 84 370 82 " style="stroke:gray;fill:none"/><path d="M369 85 371 87 367 87 " style="stroke:gray;fill:none"/><path d="M154 82 153 84 149 84 147 83 154 84 " style="stroke:gray;fill:none"/><path d="M147 81 " style="stroke:gray;fill:none"/><path d="M255 80 252 82 251 85 252 87 254 89 258 91 260 91 263 92 266 94 269 95 272 96 275 97 278 98 281 99 284 100 287 101 289 101 292 103 295 104 298 104 301 105 304 106 307 107 310 108 313 109 316 110 319 111 322 112 325 113 328 114 331 115 334 116 337 117 340 119 342 121 343 123 343 139 345 139 345 137 347 137 343 136 343 122 343 119 341 120 339 118 337 117 334 116 331 115 328 114 325 113 322 112 319 111 316 110 313 109 310 108 307 107 304 106 301 105 298 104 295 104 292 103 289 101 287 101 284 100 281 99 278 98 275 97 272 96 269 95 266 94 263 92 261 92 258 91 256 90 251 84 253 82 256 80 259 80 264 83 267 84 270 85 272 85 275 86 278 87 279 88 281 88 284 90 287 91 290 92 293 93 296 94 300 95 303 96 305 96 308 97 311 98 314 99 315 100 318 101 321 102 323 102 326 104 330 105 333 106 338 107 336 105 340 104 337 104 332 105 330 105 326 104 323 102 321 102 318 101 315 100 312 99 311 98 308 97 305 96 303 96 300 95 296 94 293 93 290 92 287 91 284 90 281 88 279 88 276 87 275 86 272 85 270 85 267 84 264 83 259 80 " style="stroke:gray;fill:none"/><path d="M143 78 141 79 139 81 139 83 140 85 144 85 146 87 145 98 145 103 145 98 146 86 144 85 141 85 139 83 139 81 141 79 " style="stroke:gray;fill:none"/><path d="M304 76 " style="stroke:gray;fill:none"/><path d="M266 76 264 78 260 78 264 78 " style="stroke:gray;fill:none"/><path d="M317 75 319 76 " style="stroke:gray;fill:none"/><path d="M269 75 " style="stroke:gray;fill:none"/><path d="M180 72 179 75 " style="stroke:gray;fill:none"/><path d="M171 73 173 72 175 74 174 72 " style="stroke:gray;fill:none"/><path d="M190 71 185 72 183 73 181 76 177 77 175 76 177 77 181 76 182 78 184 80 188 83 192 85 195 85 196 81 196 79 195 75 193 73 " style="stroke:gray;fill:none"/><path d="M185 72 190 72 192 73 195 76 196 79 196 81 194 85 192 85 190 83 186 80 185 80 181 76 " style="stroke:gray;fill:none"/><path d="M277 70 270 71 265 72 262 73 252 78 249 80 246 82 243 84 231 96 229 99 225 108 223 110 222 112 221 116 220 119 219 123 218 129 218 141 219 144 221 148 224 148 224 150 225 147 229 147 241 149 242 152 241 150 243 148 286 148 302 147 312 146 313 145 315 145 318 146 325 145 333 144 338 143 339 142 345 142 347 141 350 138 351 136 351 132 350 124 349 120 348 117 347 114 346 111 343 106 343 104 342 102 340 99 337 95 334 91 330 87 326 84 322 81 319 79 307 73 304 72 298 71 293 70 " style="stroke:gray;fill:none"/><path d="M277 70 293 70 298 71 304 72 307 73 309 74 311 76 318 79 321 81 325 84 329 87 334 92 338 97 340 100 342 103 346 111 347 114 348 117 349 120 350 124 351 132 351 136 345 142 339 142 334 143 333 144 325 145 318 146 316 146 313 145 302 146 301 147 286 148 243 148 240 148 230 148 223 147 219 143 218 141 218 129 219 123 220 119 221 116 222 112 224 110 228 101 231 97 245 83 248 81 251 79 254 77 256 76 258 76 260 75 262 73 265 72 271 71 " style="stroke:gray;fill:none"/><path d="M197 70 197 74 " style="stroke:gray;fill:none"/><path d="M194 70 " style="stroke:gray;fill:none"/><path d="M185 70 " style="stroke:gray;fill:none"/><path d="M150 70 148 71 147 74 147 77 147 79 150 79 152 80 156 76 158 76 160 78 167 81 171 84 174 86 178 89 182 92 187 96 192 100 198 105 204 111 210 116 214 116 215 114 215 112 214 110 209 105 201 98 197 95 193 92 189 89 185 86 182 84 179 82 176 81 174 79 172 79 170 78 168 76 162 73 159 73 156 71 153 70 " style="stroke:gray;fill:none"/><path d="M151 70 153 70 158 73 161 73 167 76 169 78 171 79 173 79 175 81 178 82 181 84 184 86 188 89 192 92 196 95 200 98 208 105 214 111 215 114 213 116 211 116 206 111 199 105 193 100 188 96 183 92 179 89 175 86 172 84 168 81 161 78 159 76 155 76 151 80 147 78 147 74 147 73 149 71 " style="stroke:gray;fill:none"/><path d="M300 69 " style="stroke:gray;fill:none"/><path d="M266 70 " style="stroke:gray;fill:none"/><path d="M172 69 170 70 168 72 172 69 180 69 " style="stroke:gray;fill:none"/><path d="M296 68 298 68 " style="stroke:gray;fill:none"/><path d="M270 69 " style="stroke:gray;fill:none"/><path d="M183 68 191 68 " style="stroke:gray;fill:none"/><path d="M148 68 " style="stroke:gray;fill:none"/><path d="M314 67 312 68 309 71 314 67 317 70 317 72 316 68 " style="stroke:gray;fill:none"/><path d="M151 67 153 67 " style="stroke:gray;fill:none"/><path d="M142 67 144 69 142 68 145 67 " style="stroke:gray;fill:none"/><path d="M289 66 " style="stroke:gray;fill:none"/><path d="M281 66 286 67 " style="stroke:gray;fill:none"/><path d="M62 65 " style="stroke:gray;fill:none"/><path d="M286 61 286 65 " style="stroke:gray;fill:none"/><path d="M63 61 62 63 64 64 65 61 64 64 " style="stroke:gray;fill:none"/><path d="M277 61 " style="stroke:gray;fill:none"/><path d="M285 59 " style="stroke:gray;fill:none"/><path d="M197 59 " style="stroke:gray;fill:none"/><path d="M62 58 60 60 60 67 68 66 68 63 67 59 67 63 66 67 60 66 60 61 63 58 65 59 " style="stroke:gray;fill:none"/><path d="M284 54 284 56 " style="stroke:gray;fill:none"/><path d="M283 52 " style="stroke:gray;fill:none"/><path d="M281 47 282 49 " style="stroke:gray;fill:none"/><path d="M278 42 280 45 " style="stroke:gray;fill:none"/><path d="M276 41 " style="stroke:gray;fill:none"/><path d="M275 37 " style="stroke:gray;fill:none"/><path d="M274 34 " style="stroke:gray;fill:none"/><path d="M212 33 214 32 " style="stroke:gray;fill:none"/><path d="M241 28 245 28 249 29 250 30 253 31 250 30 246 29 245 28 " style="stroke:gray;fill:none"/><path d="M234 25 231 26 228 27 225 28 222 30 220 30 217 32 213 35 208 40 206 43 204 46 202 50 201 53 200 56 199 60 199 74 200 78 201 81 202 84 204 88 206 91 209 95 213 99 216 101 220 101 222 100 224 98 227 94 231 89 231 88 235 84 240 80 244 77 248 74 251 72 254 71 256 71 259 69 261 69 264 67 268 66 272 65 277 65 279 64 281 63 282 61 282 59 281 55 280 52 278 49 278 47 277 45 273 40 266 33 263 31 261 30 259 30 257 28 254 27 251 26 248 25 " style="stroke:gray;fill:none"/><path d="M235 25 248 25 251 26 254 27 257 28 259 30 257 31 257 33 263 37 271 45 273 48 273 50 275 52 277 57 279 58 276 55 271 44 265 38 260 34 259 34 257 32 261 31 264 33 265 33 273 41 277 46 280 52 281 55 281 58 281 61 279 63 277 65 272 65 268 66 264 67 261 69 258 69 255 71 253 71 249 73 246 75 243 77 239 80 234 84 232 86 227 92 225 95 225 96 220 101 217 101 214 99 209 94 206 90 204 87 201 81 200 78 199 74 199 60 200 56 201 53 204 47 206 44 208 41 214 35 218 32 221 30 225 28 228 27 232 26 " style="stroke:gray;fill:none"/><path d="M338 22 343 21 346 24 343 27 342 24 338 25 339 29 343 29 346 28 345 22 343 21 " style="stroke:gray;fill:none"/><path d="M341 24 343 26 342 29 340 29 338 26 " style="stroke:gray;fill:none"/><path d="M259 20 257 21 255 23 259 20 262 23 261 26 257 25 261 26 263 28 262 26 261 21 " style="stroke:gray;fill:none"/></svg>