<svg width="429px" height="547px" xmlns="http://www.w3.org/2000/svg"><path d="M89 508 " style="stroke:gray;fill:none"/><path d="M172 499 170 500 167 504 165 505 158 505 155 504 154 503 152 503 149 505 148 507 149 510 151 513 153 516 155 518 158 520 161 522 165 524 170 524 172 523 175 520 176 518 177 514 177 504 176 501 174 499 " style="stroke:gray;fill:none"/><path d="M173 499 176 502 177 504 177 514 176 517 175 519 170 524 166 524 162 522 159 520 156 518 153 515 151 512 149 509 148 507 152 503 154 503 157 504 158 505 165 505 169 503 " style="stroke:gray;fill:none"/><path d="M172 492 172 494 " style="stroke:gray;fill:none"/><path d="M143 490 141 491 140 496 140 498 142 502 144 505 146 508 146 506 144 504 142 501 140 497 139 494 144 490 146 492 148 494 151 497 153 498 165 498 168 497 169 496 173 496 175 497 169 496 166 497 165 498 153 498 148 494 146 491 " style="stroke:gray;fill:none"/><path d="M153 488 156 490 159 491 157 490 " style="stroke:gray;fill:none"/><path d="M144 481 143 487 141 487 139 488 138 490 138 492 139 489 141 487 144 486 " style="stroke:gray;fill:none"/><path d="M180 477 183 476 " style="stroke:gray;fill:none"/><path d="M164 476 162 479 159 485 159 487 161 490 159 487 159 485 161 481 164 477 167 475 " style="stroke:gray;fill:none"/><path d="M282 474 281 476 282 481 285 481 286 476 284 474 " style="stroke:gray;fill:none"/><path d="M282 476 286 477 285 480 283 481 281 479 " style="stroke:gray;fill:none"/><path d="M282 475 285 475 " style="stroke:gray;fill:none"/><path d="M100 472 98 473 93 478 99 473 102 473 104 474 106 476 112 479 116 480 123 479 125 479 127 481 129 482 130 484 129 487 127 489 125 486 121 486 116 489 112 490 106 490 103 489 100 487 98 485 97 482 94 480 90 484 89 488 88 491 88 502 89 504 92 507 97 507 101 506 104 505 107 503 109 503 113 501 116 499 119 497 122 495 129 488 130 484 128 481 129 478 126 475 126 477 128 481 125 479 123 479 116 480 112 479 110 478 108 476 103 474 " style="stroke:gray;fill:none"/><path d="M95 480 97 482 98 485 101 488 103 489 106 490 112 490 116 489 121 486 124 486 127 489 120 496 117 498 114 499 112 501 108 503 106 503 103 505 100 506 97 507 93 507 88 502 88 491 89 488 90 485 " style="stroke:gray;fill:none"/><path d="M27 470 27 474 27 477 34 476 34 473 32 471 30 470 " style="stroke:gray;fill:none"/><path d="M29 473 31 475 28 477 26 475 " style="stroke:gray;fill:none"/><path d="M28 470 30 470 34 475 30 476 29 473 " style="stroke:gray;fill:none"/><path d="M165 469 " style="stroke:gray;fill:none"/><path d="M154 469 153 471 152 474 153 471 " style="stroke:gray;fill:none"/><path d="M103 469 102 471 " style="stroke:gray;fill:none"/><path d="M125 468 " style="stroke:gray;fill:none"/><path d="M164 465 " style="stroke:gray;fill:none"/><path d="M127 463 126 466 " style="stroke:gray;fill:none"/><path d="M180 462 179 464 178 467 180 469 178 467 178 465 " style="stroke:gray;fill:none"/><path d="M177 460 175 461 173 463 172 465 173 468 176 471 178 472 181 473 186 473 189 470 189 466 188 464 185 461 183 460 " style="stroke:gray;fill:none"/><path d="M177 460 183 460 189 466 189 469 185 473 182 473 179 472 177 471 173 467 172 465 " style="stroke:gray;fill:none"/><path d="M172 460 " style="stroke:gray;fill:none"/><path d="M165 460 " style="stroke:gray;fill:none"/><path d="M175 458 " style="stroke:gray;fill:none"/><path d="M195 457 192 461 190 462 192 461 194 460 " style="stroke:gray;fill:none"/><path d="M181 457 " style="stroke:gray;fill:none"/><path d="M120 457 122 459 122 465 121 469 119 472 120 470 121 466 122 465 122 459 " style="stroke:gray;fill:none"/><path d="M126 456 128 459 " style="stroke:gray;fill:none"/><path d="M102 447 102 461 104 464 104 466 110 472 112 473 115 474 122 474 125 473 128 470 129 468 130 465 131 459 130 454 128 453 125 453 118 454 115 452 113 452 107 446 " style="stroke:gray;fill:none"/><path d="M104 446 106 446 112 452 115 453 118 454 125 453 128 453 131 456 131 459 130 465 128 469 124 473 122 474 115 474 111 472 104 465 102 461 102 448 " style="stroke:gray;fill:none"/><path d="M138 443 136 445 133 448 132 450 132 452 132 450 " style="stroke:gray;fill:none"/><path d="M124 441 122 443 120 446 123 443 " style="stroke:gray;fill:none"/><path d="M352 437 356 436 353 439 353 443 355 444 357 444 357 437 355 435 " style="stroke:gray;fill:none"/><path d="M357 439 355 441 355 444 353 442 353 439 " style="stroke:gray;fill:none"/><path d="M133 435 136 435 " style="stroke:gray;fill:none"/><path d="M113 434 110 437 110 442 115 447 119 448 124 448 127 445 127 442 126 438 124 436 121 434 " style="stroke:gray;fill:none"/><path d="M114 434 120 434 123 436 126 439 127 442 127 444 123 448 119 448 116 447 110 441 110 438 " style="stroke:gray;fill:none"/><path d="M105 434 106 437 105 441 103 443 105 442 106 437 " style="stroke:gray;fill:none"/><path d="M211 431 209 432 " style="stroke:gray;fill:none"/><path d="M207 431 " style="stroke:gray;fill:none"/><path d="M119 432 " style="stroke:gray;fill:none"/><path d="M114 432 " style="stroke:gray;fill:none"/><path d="M103 431 103 433 " style="stroke:gray;fill:none"/><path d="M203 431 205 430 " style="stroke:gray;fill:none"/><path d="M198 428 198 430 " style="stroke:gray;fill:none"/><path d="M160 428 " style="stroke:gray;fill:none"/><path d="M143 427 " style="stroke:gray;fill:none"/><path d="M199 424 " style="stroke:gray;fill:none"/><path d="M149 424 " style="stroke:gray;fill:none"/><path d="M142 415 140 417 140 420 141 422 140 420 140 417 142 415 145 415 147 416 150 418 148 417 145 415 " style="stroke:gray;fill:none"/><path d="M202 412 " style="stroke:gray;fill:none"/><path d="M114 407 120 407 122 408 125 410 128 413 130 416 132 420 132 426 129 429 131 428 132 426 132 420 129 414 127 411 124 409 120 407 " style="stroke:gray;fill:none"/><path d="M103 399 103 401 107 405 107 408 107 405 104 402 108 401 " style="stroke:gray;fill:none"/><path d="M219 388 217 389 216 391 216 393 215 396 214 397 214 400 213 404 212 408 211 409 210 412 209 416 208 420 207 424 207 428 209 429 211 429 213 427 214 425 215 422 216 417 217 412 218 408 219 403 220 398 221 393 221 390 " style="stroke:gray;fill:none"/><path d="M219 388 221 390 221 393 220 398 219 403 218 408 217 412 216 417 215 422 214 425 209 429 207 427 207 424 208 420 209 416 210 412 211 409 212 405 213 401 214 397 215 394 216 391 " style="stroke:gray;fill:none"/><path d="M279 387 279 390 282 390 285 388 284 390 285 388 283 386 " style="stroke:gray;fill:none"/><path d="M283 387 282 389 279 388 " style="stroke:gray;fill:none"/><path d="M107 383 106 385 106 389 105 393 104 394 105 398 108 399 110 397 111 395 112 392 112 385 111 383 " style="stroke:gray;fill:none"/><path d="M108 383 110 383 112 385 112 392 111 395 108 398 106 398 104 396 104 394 105 390 106 385 " style="stroke:gray;fill:none"/><path d="M170 383 " style="stroke:gray;fill:none"/><path d="M168 383 " style="stroke:gray;fill:none"/><path d="M115 382 " style="stroke:gray;fill:none"/><path d="M221 380 221 383 224 385 223 388 222 386 220 385 218 386 220 385 223 388 224 385 223 383 221 382 " style="stroke:gray;fill:none"/><path d="M107 379 107 381 108 379 112 381 111 379 " style="stroke:gray;fill:none"/><path d="M188 377 190 377 " style="stroke:gray;fill:none"/><path d="M137 378 135 380 133 382 132 384 132 390 134 394 136 397 141 402 145 405 155 410 157 410 160 412 164 413 167 414 182 414 188 413 191 412 194 411 197 410 201 408 203 407 201 408 197 410 194 411 191 412 188 413 182 414 167 414 164 413 160 412 157 410 155 410 147 406 143 403 135 395 133 392 132 390 132 384 134 381 139 377 " style="stroke:gray;fill:none"/><path d="M146 375 " style="stroke:gray;fill:none"/><path d="M105 375 107 377 118 377 108 377 " style="stroke:gray;fill:none"/><path d="M129 374 " style="stroke:gray;fill:none"/><path d="M131 372 133 371 136 373 134 371 " style="stroke:gray;fill:none"/><path d="M27 367 25 369 25 373 27 375 31 375 33 373 33 370 32 368 30 367 " style="stroke:gray;fill:none"/><path d="M30 368 32 370 33 372 30 375 28 375 25 372 25 370 " style="stroke:gray;fill:none"/><path d="M118 366 113 370 115 369 117 368 " style="stroke:gray;fill:none"/><path d="M127 364 127 366 129 364 " style="stroke:gray;fill:none"/><path d="M128 366 " style="stroke:gray;fill:none"/><path d="M152 363 151 367 154 367 154 364 " style="stroke:gray;fill:none"/><path d="M152 363 153 367 150 365 " style="stroke:gray;fill:none"/><path d="M135 362 136 365 139 365 140 362 137 365 " style="stroke:gray;fill:none"/><path d="M202 361 " style="stroke:gray;fill:none"/><path d="M188 359 186 361 189 362 " style="stroke:gray;fill:none"/><path d="M188 359 186 361 " style="stroke:gray;fill:none"/><path d="M139 359 141 360 " style="stroke:gray;fill:none"/><path d="M115 356 " style="stroke:gray;fill:none"/><path d="M144 354 146 355 149 356 145 358 144 361 142 363 142 366 143 368 149 375 153 375 155 376 152 374 150 374 142 366 142 364 144 360 148 357 149 355 146 355 " style="stroke:gray;fill:none"/><path d="M114 354 " style="stroke:gray;fill:none"/><path d="M184 351 " style="stroke:gray;fill:none"/><path d="M170 350 166 352 160 351 157 351 155 353 151 354 155 353 157 351 160 351 167 353 166 356 163 357 161 357 156 356 155 359 153 356 151 356 154 359 156 359 157 356 161 357 161 360 163 360 164 356 167 356 167 354 172 353 " style="stroke:gray;fill:none"/><path d="M162 356 162 360 " style="stroke:gray;fill:none"/><path d="M138 350 140 350 " style="stroke:gray;fill:none"/><path d="M197 350 200 350 200 352 201 349 202 352 201 349 " style="stroke:gray;fill:none"/><path d="M193 350 " style="stroke:gray;fill:none"/><path d="M189 349 190 352 177 353 175 354 173 355 172 357 171 359 170 363 169 371 166 371 162 369 161 365 160 369 157 371 156 373 157 375 159 377 162 378 165 379 169 380 174 379 179 381 179 383 179 381 181 379 183 379 186 377 186 373 187 372 186 369 184 371 185 377 183 379 180 380 174 379 169 380 165 379 162 378 160 377 156 373 159 370 166 371 170 370 170 363 171 359 172 357 175 354 177 353 190 352 195 352 199 356 199 360 198 366 197 370 196 372 194 374 190 374 188 374 190 374 193 375 195 374 197 370 198 366 199 360 199 356 195 352 189 351 " style="stroke:gray;fill:none"/><path d="M186 369 186 373 184 371 " style="stroke:gray;fill:none"/><path d="M161 365 161 370 " style="stroke:gray;fill:none"/><path d="M150 348 151 350 149 353 151 351 154 347 " style="stroke:gray;fill:none"/><path d="M145 347 146 351 147 347 " style="stroke:gray;fill:none"/><path d="M206 345 " style="stroke:gray;fill:none"/><path d="M183 345 185 345 " style="stroke:gray;fill:none"/><path d="M169 345 172 345 " style="stroke:gray;fill:none"/><path d="M167 344 " style="stroke:gray;fill:none"/><path d="M142 344 " style="stroke:gray;fill:none"/><path d="M138 343 " style="stroke:gray;fill:none"/><path d="M110 343 109 345 " style="stroke:gray;fill:none"/><path d="M198 342 193 343 191 344 193 343 198 342 202 342 204 343 202 342 " style="stroke:gray;fill:none"/><path d="M144 342 144 345 " style="stroke:gray;fill:none"/><path d="M157 341 159 343 159 341 158 343 " style="stroke:gray;fill:none"/><path d="M146 341 " style="stroke:gray;fill:none"/><path d="M197 340 " style="stroke:gray;fill:none"/><path d="M142 341 144 340 " style="stroke:gray;fill:none"/><path d="M330 339 331 342 334 342 336 341 336 338 " style="stroke:gray;fill:none"/><path d="M332 338 336 340 334 340 332 342 330 340 " style="stroke:gray;fill:none"/><path d="M156 337 " style="stroke:gray;fill:none"/><path d="M191 336 " style="stroke:gray;fill:none"/><path d="M188 336 " style="stroke:gray;fill:none"/><path d="M182 336 182 338 " style="stroke:gray;fill:none"/><path d="M180 336 180 338 " style="stroke:gray;fill:none"/><path d="M160 337 " style="stroke:gray;fill:none"/><path d="M144 336 144 338 147 339 147 336 " style="stroke:gray;fill:none"/><path d="M146 338 " style="stroke:gray;fill:none"/><path d="M194 334 " style="stroke:gray;fill:none"/><path d="M144 331 145 334 152 335 151 339 149 339 150 342 152 342 150 339 154 337 152 336 156 335 152 335 146 334 " style="stroke:gray;fill:none"/><path d="M221 330 219 331 " style="stroke:gray;fill:none"/><path d="M191 330 " style="stroke:gray;fill:none"/><path d="M104 330 101 333 98 337 96 340 94 344 93 347 92 351 92 357 93 360 94 363 95 365 100 370 104 372 108 373 116 373 119 372 121 370 121 366 121 364 118 363 110 355 109 352 106 349 105 346 107 344 108 342 107 330 " style="stroke:gray;fill:none"/><path d="M106 330 108 332 108 341 107 343 105 345 105 347 106 350 109 354 111 357 117 363 121 366 122 368 118 372 115 373 108 373 105 372 101 370 95 364 93 360 92 357 92 351 93 347 96 341 98 338 101 334 " style="stroke:gray;fill:none"/><path d="M198 328 " style="stroke:gray;fill:none"/><path d="M141 328 141 336 140 338 139 340 140 337 " style="stroke:gray;fill:none"/><path d="M244 327 240 328 237 329 234 331 232 331 229 333 227 333 224 335 220 338 209 350 221 338 225 335 228 333 232 331 234 331 237 329 240 328 244 327 246 327 248 328 250 330 248 328 246 327 " style="stroke:gray;fill:none"/><path d="M139 327 " style="stroke:gray;fill:none"/><path d="M215 326 " style="stroke:gray;fill:none"/><path d="M137 326 " style="stroke:gray;fill:none"/><path d="M127 326 121 327 118 328 115 331 114 333 114 349 115 352 116 354 120 358 122 359 126 360 131 360 134 359 138 357 140 355 143 351 143 349 141 347 137 347 135 345 135 343 136 339 137 334 137 331 137 329 135 327 133 326 " style="stroke:gray;fill:none"/><path d="M127 326 133 326 137 330 137 334 137 338 136 342 135 343 135 345 136 347 138 348 141 347 143 350 141 353 137 357 131 360 126 360 123 359 121 358 115 352 114 349 114 334 115 332 119 328 121 327 " style="stroke:gray;fill:none"/><path d="M110 324 107 325 105 328 108 325 111 324 114 325 " style="stroke:gray;fill:none"/><path d="M242 323 " style="stroke:gray;fill:none"/><path d="M211 322 209 323 " style="stroke:gray;fill:none"/><path d="M253 321 " style="stroke:gray;fill:none"/><path d="M250 321 " style="stroke:gray;fill:none"/><path d="M140 320 " style="stroke:gray;fill:none"/><path d="M121 319 121 322 123 323 129 323 129 321 126 319 123 319 123 323 121 321 " style="stroke:gray;fill:none"/><path d="M125 320 127 323 124 322 " style="stroke:gray;fill:none"/><path d="M246 319 " style="stroke:gray;fill:none"/><path d="M129 318 " style="stroke:gray;fill:none"/><path d="M244 318 " style="stroke:gray;fill:none"/><path d="M131 317 131 320 " style="stroke:gray;fill:none"/><path d="M273 316 " style="stroke:gray;fill:none"/><path d="M260 316 " style="stroke:gray;fill:none"/><path d="M220 316 " style="stroke:gray;fill:none"/><path d="M200 316 201 318 196 323 193 325 190 327 184 330 182 331 184 330 192 326 195 324 198 322 201 319 " style="stroke:gray;fill:none"/><path d="M263 315 " style="stroke:gray;fill:none"/><path d="M234 315 232 316 224 324 220 327 216 330 206 335 203 336 199 337 195 338 191 338 188 339 187 340 179 341 168 341 163 340 162 339 156 339 154 340 154 343 156 345 158 346 163 347 170 348 173 348 181 347 182 348 185 348 193 347 194 346 203 346 206 349 206 354 205 359 204 364 203 370 202 373 201 376 197 380 194 382 191 383 188 384 184 385 165 385 161 384 157 383 154 382 152 380 150 380 144 377 137 370 134 367 131 367 128 370 123 376 122 376 118 380 117 383 117 388 118 395 116 399 113 402 107 414 106 417 105 420 104 424 104 427 106 431 109 431 111 429 113 428 121 428 125 430 130 435 132 438 134 440 136 441 138 439 142 434 145 430 146 427 144 424 143 420 145 418 146 421 149 421 151 421 153 423 156 424 159 425 162 425 161 430 158 432 157 435 157 449 156 455 155 459 154 462 153 465 148 474 147 477 147 479 147 482 147 484 148 486 150 489 153 492 156 493 162 493 165 492 171 489 174 487 178 483 178 479 173 475 170 472 167 468 167 462 168 460 172 456 175 454 184 454 186 456 188 457 192 457 194 455 196 451 197 448 198 444 199 440 200 435 201 430 201 425 202 419 204 416 205 412 205 408 206 405 207 402 208 401 208 398 209 394 210 391 211 387 213 383 219 377 233 364 239 357 240 354 243 351 245 348 252 334 252 332 254 330 254 328 252 327 250 324 245 322 242 319 238 316 236 315 " style="stroke:gray;fill:none"/><path d="M234 315 236 315 240 319 243 321 248 323 253 328 253 331 252 334 250 336 245 347 243 350 240 353 239 356 233 363 218 377 213 382 212 384 211 387 210 391 209 394 209 397 208 401 207 404 205 407 205 412 204 416 202 419 201 425 201 430 200 435 199 440 198 444 197 448 196 451 195 453 191 457 189 457 184 454 175 454 171 454 169 452 168 450 168 443 169 439 170 437 177 430 180 429 187 429 190 430 194 432 197 435 196 433 190 430 187 429 180 429 177 430 175 431 171 435 169 439 168 443 168 450 169 453 171 454 173 455 171 456 168 459 167 461 167 468 168 470 170 473 172 475 178 480 178 482 173 487 170 489 167 491 165 492 162 493 156 493 154 492 149 487 147 484 147 482 147 479 147 477 152 468 153 465 154 462 155 459 156 455 157 449 157 435 158 433 162 429 168 429 167 426 165 425 167 426 167 429 162 428 163 425 161 424 156 424 151 421 149 421 147 419 145 418 143 420 145 423 146 427 145 429 142 432 139 436 139 437 136 440 134 440 132 438 130 435 130 434 126 430 124 429 121 428 113 428 110 429 107 431 105 429 104 427 104 424 105 420 106 417 107 414 109 410 111 408 113 403 115 401 118 395 117 388 117 383 118 381 124 376 128 372 134 368 135 368 137 370 143 377 149 380 151 380 154 382 157 383 161 384 165 385 184 385 188 384 191 383 194 382 198 380 201 377 202 374 203 370 204 364 205 359 206 354 206 348 204 346 194 346 186 347 185 348 182 348 174 347 173 348 170 348 163 347 158 346 154 341 156 339 162 339 167 340 168 341 179 341 187 340 190 339 191 338 195 338 199 337 203 336 206 335 218 329 221 327 225 324 " style="stroke:gray;fill:none"/><path d="M183 315 " style="stroke:gray;fill:none"/><path d="M251 314 254 315 256 316 254 315 " style="stroke:gray;fill:none"/><path d="M186 314 189 314 " style="stroke:gray;fill:none"/><path d="M140 315 " style="stroke:gray;fill:none"/><path d="M268 313 " style="stroke:gray;fill:none"/><path d="M193 313 " style="stroke:gray;fill:none"/><path d="M136 313 138 313 " style="stroke:gray;fill:none"/><path d="M217 311 " style="stroke:gray;fill:none"/><path d="M129 311 133 314 " style="stroke:gray;fill:none"/><path d="M126 311 128 314 125 315 125 317 119 317 117 318 116 320 112 322 114 321 115 323 115 321 119 317 126 317 128 315 128 313 " style="stroke:gray;fill:none"/><path d="M247 311 255 310 " style="stroke:gray;fill:none"/><path d="M203 310 " style="stroke:gray;fill:none"/><path d="M133 310 " style="stroke:gray;fill:none"/><path d="M206 309 " style="stroke:gray;fill:none"/><path d="M118 308 " style="stroke:gray;fill:none"/><path d="M407 308 407 311 411 310 410 307 " style="stroke:gray;fill:none"/><path d="M409 307 411 309 407 310 " style="stroke:gray;fill:none"/><path d="M405 307 404 312 406 314 409 314 411 313 409 314 407 314 403 309 " style="stroke:gray;fill:none"/><path d="M131 307 130 309 133 307 " style="stroke:gray;fill:none"/><path d="M261 306 262 309 264 310 270 310 264 310 " style="stroke:gray;fill:none"/><path d="M210 308 212 307 " style="stroke:gray;fill:none"/><path d="M228 305 228 307 " style="stroke:gray;fill:none"/><path d="M247 304 249 304 " style="stroke:gray;fill:none"/><path d="M123 304 " style="stroke:gray;fill:none"/><path d="M255 303 " style="stroke:gray;fill:none"/><path d="M245 302 243 304 239 304 243 304 " style="stroke:gray;fill:none"/><path d="M220 301 218 303 215 304 214 306 215 304 218 303 " style="stroke:gray;fill:none"/><path d="M230 300 227 301 224 303 222 305 219 307 215 309 213 309 208 312 205 313 202 314 198 315 194 316 189 317 184 318 174 319 151 319 140 317 138 318 133 317 134 321 136 321 138 322 142 325 147 330 149 331 152 332 156 333 161 334 183 334 191 333 195 332 198 331 201 329 204 329 211 325 213 325 216 323 220 320 228 312 232 307 233 304 232 301 " style="stroke:gray;fill:none"/><path d="M228 301 231 301 232 306 228 311 219 320 215 323 212 325 204 329 201 329 198 331 195 332 191 333 183 334 161 334 156 333 152 332 149 331 143 325 139 322 137 321 135 321 134 317 138 318 140 317 151 319 174 319 184 318 189 317 194 316 198 315 202 314 206 313 213 309 215 309 223 305 225 303 " style="stroke:gray;fill:none"/><path d="M131 300 " style="stroke:gray;fill:none"/><path d="M123 300 " style="stroke:gray;fill:none"/><path d="M104 300 " style="stroke:gray;fill:none"/><path d="M130 298 " style="stroke:gray;fill:none"/><path d="M110 298 107 300 109 300 110 298 112 298 " style="stroke:gray;fill:none"/><path d="M132 297 133 299 134 301 133 299 " style="stroke:gray;fill:none"/><path d="M248 297 249 295 " style="stroke:gray;fill:none"/><path d="M131 295 " style="stroke:gray;fill:none"/><path d="M256 294 " style="stroke:gray;fill:none"/><path d="M237 295 " style="stroke:gray;fill:none"/><path d="M241 294 " style="stroke:gray;fill:none"/><path d="M186 293 184 295 " style="stroke:gray;fill:none"/><path d="M235 292 234 295 235 297 237 299 238 302 235 306 238 307 237 312 232 310 232 312 238 312 238 306 236 304 237 300 236 297 234 295 " style="stroke:gray;fill:none"/><path d="M125 292 " style="stroke:gray;fill:none"/><path d="M117 292 117 295 118 292 120 294 121 296 120 294 " style="stroke:gray;fill:none"/><path d="M247 291 245 292 244 297 247 300 250 301 252 300 253 298 253 295 251 292 " style="stroke:gray;fill:none"/><path d="M247 291 249 291 251 293 253 296 253 298 249 301 244 296 244 294 " style="stroke:gray;fill:none"/><path d="M240 289 237 291 239 290 242 291 242 289 " style="stroke:gray;fill:none"/><path d="M227 291 228 294 230 296 228 298 230 297 230 295 228 294 227 291 230 289 " style="stroke:gray;fill:none"/><path d="M195 287 193 289 " style="stroke:gray;fill:none"/><path d="M117 287 116 290 118 290 " style="stroke:gray;fill:none"/><path d="M117 287 117 290 " style="stroke:gray;fill:none"/><path d="M103 287 101 289 " style="stroke:gray;fill:none"/><path d="M260 281 256 283 255 286 255 288 256 290 258 292 261 298 261 301 260 303 256 307 246 306 242 308 242 310 243 312 246 315 252 318 255 319 261 319 264 318 267 317 269 316 275 310 277 307 278 304 279 301 279 294 278 290 277 288 273 284 270 282 266 281 " style="stroke:gray;fill:none"/><path d="M260 281 266 281 269 282 272 284 278 290 279 294 279 301 278 304 277 306 275 309 268 316 264 318 261 319 255 319 252 318 248 316 242 309 244 307 246 306 257 307 260 304 261 301 261 298 260 295 258 291 256 289 256 285 256 284 258 282 " style="stroke:gray;fill:none"/><path d="M102 281 99 282 " style="stroke:gray;fill:none"/><path d="M269 279 270 276 " style="stroke:gray;fill:none"/><path d="M106 274 106 277 107 284 109 286 107 284 110 281 109 278 106 277 " style="stroke:gray;fill:none"/><path d="M108 280 " style="stroke:gray;fill:none"/><path d="M136 275 136 278 139 281 141 281 144 278 144 275 142 273 " style="stroke:gray;fill:none"/><path d="M139 273 141 273 144 277 140 281 136 276 " style="stroke:gray;fill:none"/><path d="M273 271 " style="stroke:gray;fill:none"/><path d="M109 271 109 274 " style="stroke:gray;fill:none"/><path d="M265 269 266 272 268 272 267 269 " style="stroke:gray;fill:none"/><path d="M266 269 268 271 265 271 " style="stroke:gray;fill:none"/><path d="M231 269 230 272 " style="stroke:gray;fill:none"/><path d="M105 270 107 269 " style="stroke:gray;fill:none"/><path d="M236 268 234 270 233 272 232 283 232 285 233 287 235 288 237 288 239 286 239 284 241 281 242 274 242 272 240 268 " style="stroke:gray;fill:none"/><path d="M237 268 239 268 241 270 242 272 242 274 241 281 239 285 235 288 232 285 232 283 233 272 " style="stroke:gray;fill:none"/><path d="M119 268 120 270 119 274 121 278 121 282 121 277 119 274 120 270 " style="stroke:gray;fill:none"/><path d="M120 266 " style="stroke:gray;fill:none"/><path d="M274 265 272 268 271 271 272 269 " style="stroke:gray;fill:none"/><path d="M240 264 240 266 " style="stroke:gray;fill:none"/><path d="M235 264 235 266 " style="stroke:gray;fill:none"/><path d="M242 263 242 267 243 263 245 265 244 269 244 267 244 263 " style="stroke:gray;fill:none"/><path d="M97 262 96 265 95 267 95 281 96 285 97 288 99 291 99 293 101 296 105 298 107 297 107 292 106 288 105 283 104 282 103 278 103 267 101 262 " style="stroke:gray;fill:none"/><path d="M97 263 100 262 102 264 103 267 103 278 104 282 105 287 106 288 107 292 107 296 105 298 103 297 101 295 99 292 97 288 96 285 95 281 95 267 " style="stroke:gray;fill:none"/><path d="M209 260 208 264 207 268 206 270 207 268 208 264 " style="stroke:gray;fill:none"/><path d="M99 259 102 259 106 259 103 259 " style="stroke:gray;fill:none"/><path d="M234 258 234 260 " style="stroke:gray;fill:none"/><path d="M252 255 250 258 252 258 " style="stroke:gray;fill:none"/><path d="M113 255 112 263 114 263 " style="stroke:gray;fill:none"/><path d="M230 252 229 256 229 258 230 256 230 260 232 263 233 268 232 263 230 260 231 257 " style="stroke:gray;fill:none"/><path d="M251 251 249 252 " style="stroke:gray;fill:none"/><path d="M111 251 110 253 109 256 109 268 112 271 113 275 113 280 115 283 112 288 112 290 113 293 115 296 115 298 116 301 117 303 122 308 126 308 127 308 128 304 125 299 125 296 123 294 123 292 122 289 121 287 117 283 117 281 115 279 116 276 115 269 117 267 117 254 114 251 " style="stroke:gray;fill:none"/><path d="M113 250 117 254 117 266 115 268 116 276 115 279 117 282 117 284 122 289 123 292 123 294 125 297 125 299 128 304 128 306 124 309 117 302 115 298 115 296 113 293 112 290 112 288 115 283 113 280 113 275 112 270 109 267 109 256 111 252 " style="stroke:gray;fill:none"/><path d="M228 249 " style="stroke:gray;fill:none"/><path d="M119 247 118 249 " style="stroke:gray;fill:none"/><path d="M113 247 116 248 " style="stroke:gray;fill:none"/><path d="M287 245 285 248 " style="stroke:gray;fill:none"/><path d="M227 245 " style="stroke:gray;fill:none"/><path d="M119 243 " style="stroke:gray;fill:none"/><path d="M26 245 28 243 29 247 26 247 30 247 29 243 " style="stroke:gray;fill:none"/><path d="M226 242 " style="stroke:gray;fill:none"/><path d="M114 241 116 242 118 241 116 242 " style="stroke:gray;fill:none"/><path d="M252 237 254 238 " style="stroke:gray;fill:none"/><path d="M225 237 " style="stroke:gray;fill:none"/><path d="M243 236 242 239 244 243 244 245 245 248 246 249 247 252 248 260 248 271 249 273 253 273 254 271 255 268 255 254 254 249 253 245 252 242 251 240 247 236 " style="stroke:gray;fill:none"/><path d="M243 237 246 236 251 241 253 245 254 249 255 254 255 268 254 271 251 274 248 271 248 260 247 252 246 249 245 246 244 245 243 242 242 239 " style="stroke:gray;fill:none"/><path d="M387 236 386 238 386 243 388 238 390 240 388 242 390 240 387 237 390 235 393 238 393 242 390 244 393 243 392 236 " style="stroke:gray;fill:none"/><path d="M232 235 230 236 229 238 229 241 229 244 230 248 231 250 235 255 235 253 230 248 229 244 229 241 228 239 232 236 236 240 237 242 237 244 239 247 239 249 237 252 237 254 238 257 239 258 236 261 236 257 239 261 239 258 238 255 237 254 237 252 239 250 239 247 237 244 237 242 235 238 " style="stroke:gray;fill:none"/><path d="M228 235 " style="stroke:gray;fill:none"/><path d="M117 235 " style="stroke:gray;fill:none"/><path d="M153 234 150 235 148 236 143 241 142 243 141 246 141 253 142 256 149 263 151 264 161 264 165 262 169 258 171 254 172 251 172 247 171 244 170 242 168 240 166 238 163 235 160 234 " style="stroke:gray;fill:none"/><path d="M153 234 160 234 162 235 166 238 168 240 170 243 171 245 172 248 172 250 171 253 169 257 164 262 160 264 152 264 150 263 142 255 141 253 141 246 143 242 149 236 " style="stroke:gray;fill:none"/><path d="M130 234 128 235 " style="stroke:gray;fill:none"/><path d="M296 232 " style="stroke:gray;fill:none"/><path d="M243 233 240 235 238 234 240 235 242 233 246 233 " style="stroke:gray;fill:none"/><path d="M132 233 " style="stroke:gray;fill:none"/><path d="M150 230 " style="stroke:gray;fill:none"/><path d="M226 230 226 232 224 234 221 232 223 234 225 234 226 232 228 229 231 232 234 233 239 237 234 233 229 229 " style="stroke:gray;fill:none"/><path d="M335 228 337 228 " style="stroke:gray;fill:none"/><path d="M148 224 146 225 " style="stroke:gray;fill:none"/><path d="M346 224 341 226 339 227 341 227 346 224 348 223 " style="stroke:gray;fill:none"/><path d="M197 222 " style="stroke:gray;fill:none"/><path d="M178 221 170 222 163 223 159 224 156 225 153 226 150 227 147 228 144 229 134 234 131 237 128 238 124 241 122 243 121 245 122 262 119 264 122 265 123 267 122 272 124 274 123 278 125 280 125 284 127 287 127 290 129 293 129 296 128 294 130 293 127 289 127 286 125 283 125 280 123 277 125 276 124 274 122 272 124 271 123 265 121 263 123 262 121 246 123 243 125 241 129 238 132 237 136 233 142 230 144 229 144 232 138 235 136 236 138 235 141 233 143 233 145 231 147 228 150 227 153 226 156 225 159 224 163 223 170 222 178 221 180 221 190 222 194 223 195 224 201 224 205 225 209 226 212 227 214 228 220 234 223 240 224 244 225 248 226 253 227 257 228 261 228 281 227 286 226 289 225 292 224 294 218 300 216 301 214 301 212 303 208 305 205 306 202 306 199 307 196 309 193 310 188 311 184 310 181 312 175 313 156 310 161 310 164 309 169 306 171 306 174 304 176 304 179 301 182 299 185 297 188 297 195 298 198 297 201 296 203 295 206 293 211 288 213 285 215 281 216 277 216 267 215 265 212 264 211 262 211 256 210 250 209 246 208 242 207 240 205 237 202 233 200 231 197 229 193 227 190 226 187 225 170 225 166 226 165 227 159 227 155 228 154 229 152 229 154 229 158 228 159 227 165 227 169 226 170 225 187 225 190 226 193 227 195 228 198 230 203 235 206 239 208 242 209 246 210 250 211 256 211 262 211 265 210 267 210 270 208 274 205 273 203 275 201 278 198 284 198 286 198 284 200 280 202 277 204 274 206 273 208 275 207 277 206 279 204 282 202 285 198 289 194 292 191 293 189 294 188 297 185 297 183 298 180 300 178 302 175 304 171 306 169 306 164 309 161 310 156 310 154 312 144 312 141 311 139 310 136 307 135 304 132 302 133 304 135 306 136 308 138 310 140 311 143 312 156 313 175 313 181 312 184 310 188 311 193 310 196 309 199 307 202 306 205 306 208 305 220 299 224 294 226 293 225 290 226 287 227 286 228 281 228 261 227 257 226 253 225 248 224 244 223 240 219 232 216 229 212 227 209 226 205 225 201 224 195 224 191 223 190 222 180 221 " style="stroke:gray;fill:none"/><path d="M212 264 214 265 216 267 216 277 215 281 214 283 211 287 204 294 201 296 198 297 195 298 189 297 189 295 191 293 196 291 200 288 202 286 204 283 206 280 208 276 209 273 209 271 210 267 " style="stroke:gray;fill:none"/><path d="M227 220 227 222 227 227 220 226 218 226 218 228 220 230 218 227 221 227 228 227 227 222 " style="stroke:gray;fill:none"/><path d="M217 220 220 221 " style="stroke:gray;fill:none"/><path d="M212 218 " style="stroke:gray;fill:none"/><path d="M207 217 209 217 " style="stroke:gray;fill:none"/><path d="M204 216 " style="stroke:gray;fill:none"/><path d="M294 215 302 223 308 226 311 227 309 226 303 223 " style="stroke:gray;fill:none"/><path d="M241 216 " style="stroke:gray;fill:none"/><path d="M294 209 294 212 " style="stroke:gray;fill:none"/><path d="M272 208 272 210 272 215 273 217 271 218 270 220 270 224 271 232 268 231 268 235 264 242 264 247 265 249 265 252 264 254 264 257 263 260 262 261 261 264 260 268 260 272 261 274 263 274 262 277 259 277 256 279 253 281 252 283 252 285 249 288 247 288 244 285 244 283 246 278 248 279 250 277 253 276 249 277 245 278 244 283 244 286 246 288 249 288 251 287 252 283 256 279 260 277 265 277 263 276 266 275 264 275 261 273 260 268 261 264 262 261 263 258 264 257 264 254 266 252 266 250 264 247 264 242 269 233 271 232 270 224 270 220 273 218 272 215 273 213 277 210 277 213 275 217 275 219 276 224 275 229 274 232 272 237 270 240 270 245 266 259 266 255 266 260 269 264 272 264 275 261 277 258 279 255 283 246 289 240 290 238 290 236 292 232 294 230 296 230 298 229 300 231 299 233 297 236 293 240 292 242 292 244 291 246 289 249 287 252 284 255 283 257 283 259 279 262 278 264 278 267 276 269 276 272 275 274 273 276 272 280 272 278 275 275 276 272 276 270 278 268 278 264 280 262 283 259 283 257 287 253 288 250 291 247 292 244 292 242 296 238 298 235 299 233 300 231 298 229 296 229 292 231 292 233 290 236 290 238 283 245 283 247 282 249 280 251 280 253 277 256 276 259 274 261 272 263 270 264 268 262 268 260 269 246 270 241 272 240 272 237 273 233 275 229 276 224 275 219 277 213 276 209 274 208 " style="stroke:gray;fill:none"/><path d="M269 239 " style="stroke:gray;fill:none"/><path d="M275 209 273 211 " style="stroke:gray;fill:none"/><path d="M275 204 277 204 " style="stroke:gray;fill:none"/><path d="M254 204 253 206 252 209 253 216 254 218 254 225 254 227 253 233 251 235 253 233 258 234 259 228 258 215 257 217 253 216 254 211 255 213 257 213 258 211 259 209 259 206 258 204 " style="stroke:gray;fill:none"/><path d="M255 217 258 218 259 228 259 232 255 235 253 233 255 227 253 226 255 225 253 224 253 219 " style="stroke:gray;fill:none"/><path d="M256 210 256 213 " style="stroke:gray;fill:none"/><path d="M255 204 257 204 259 206 259 209 257 211 254 211 252 209 253 206 " style="stroke:gray;fill:none"/><path d="M286 203 288 208 288 210 289 213 291 216 293 219 296 222 298 227 302 227 305 227 308 228 312 229 313 230 338 230 344 229 348 227 354 221 356 219 358 217 361 213 363 208 365 206 365 203 365 205 363 207 361 212 358 216 356 219 353 222 346 228 344 229 338 230 313 230 310 229 309 228 305 227 302 227 300 228 297 225 297 223 295 220 292 217 290 214 288 210 288 208 289 205 " style="stroke:gray;fill:none"/><path d="M255 202 " style="stroke:gray;fill:none"/><path d="M219 202 " style="stroke:gray;fill:none"/><path d="M168 202 170 203 173 203 176 204 179 205 185 208 188 210 190 214 190 211 187 209 179 205 176 204 173 203 170 203 " style="stroke:gray;fill:none"/><path d="M293 201 295 201 " style="stroke:gray;fill:none"/><path d="M222 201 " style="stroke:gray;fill:none"/><path d="M175 201 179 201 " style="stroke:gray;fill:none"/><path d="M322 201 321 205 323 208 325 210 329 209 329 204 326 201 " style="stroke:gray;fill:none"/><path d="M325 200 329 204 329 208 326 210 322 206 321 203 " style="stroke:gray;fill:none"/><path d="M225 199 " style="stroke:gray;fill:none"/><path d="M172 198 166 199 161 200 157 201 153 202 150 203 147 204 145 206 143 206 135 210 131 213 127 216 122 221 119 225 118 228 116 230 114 234 114 236 115 238 119 238 122 236 125 233 128 231 131 230 133 228 145 222 148 221 151 220 155 219 159 218 164 217 170 216 189 216 200 217 203 218 207 219 210 220 211 221 214 222 217 223 220 224 222 224 224 223 224 219 218 213 214 210 211 208 201 203 198 202 195 201 192 200 187 199 179 198 " style="stroke:gray;fill:none"/><path d="M172 198 179 198 187 199 192 200 195 201 198 202 201 203 209 207 213 210 217 213 224 220 224 222 222 224 220 224 217 223 214 222 211 221 208 220 207 219 203 218 200 217 189 216 170 216 164 217 159 218 155 219 151 220 148 221 145 222 134 228 132 228 130 230 127 231 124 233 121 236 118 238 116 238 115 234 116 231 118 229 119 226 122 222 128 216 132 213 136 210 150 203 153 202 157 201 161 200 166 199 " style="stroke:gray;fill:none"/><path d="M300 197 " style="stroke:gray;fill:none"/><path d="M228 197 " style="stroke:gray;fill:none"/><path d="M189 197 " style="stroke:gray;fill:none"/><path d="M239 196 239 203 240 206 242 209 242 212 243 214 244 216 242 218 241 223 243 227 245 227 247 224 247 218 246 196 242 197 246 197 244 214 242 212 242 208 240 206 239 203 240 198 " style="stroke:gray;fill:none"/><path d="M245 214 247 219 247 224 242 226 241 223 242 219 244 217 " style="stroke:gray;fill:none"/><path d="M182 197 " style="stroke:gray;fill:none"/><path d="M295 195 290 196 288 198 290 196 295 195 298 195 " style="stroke:gray;fill:none"/><path d="M247 194 " style="stroke:gray;fill:none"/><path d="M241 194 " style="stroke:gray;fill:none"/><path d="M244 192 244 194 " style="stroke:gray;fill:none"/><path d="M316 183 " style="stroke:gray;fill:none"/><path d="M367 181 366 184 366 193 363 190 361 190 360 192 359 194 359 197 360 199 362 201 365 201 365 199 366 193 367 192 " style="stroke:gray;fill:none"/><path d="M362 190 366 194 366 198 365 200 363 201 359 197 359 194 360 192 " style="stroke:gray;fill:none"/><path d="M326 182 323 183 321 185 323 184 325 182 327 181 329 180 " style="stroke:gray;fill:none"/><path d="M321 179 " style="stroke:gray;fill:none"/><path d="M73 177 74 181 77 181 79 179 77 178 79 177 " style="stroke:gray;fill:none"/><path d="M74 176 78 177 78 179 73 179 " style="stroke:gray;fill:none"/><path d="M297 173 297 176 300 177 302 177 307 179 297 179 293 180 291 179 287 177 290 174 293 175 293 177 292 174 290 174 287 177 285 177 283 174 285 177 288 178 291 179 293 180 297 179 313 180 317 181 319 183 313 189 310 191 307 192 304 194 302 196 304 194 307 193 309 191 312 190 314 188 316 187 319 187 316 187 319 183 318 181 314 181 308 180 306 178 303 178 300 177 298 176 " style="stroke:gray;fill:none"/><path d="M73 174 78 174 " style="stroke:gray;fill:none"/><path d="M322 172 324 173 327 172 324 172 " style="stroke:gray;fill:none"/><path d="M319 171 " style="stroke:gray;fill:none"/><path d="M345 172 344 175 341 179 329 191 324 195 321 197 318 198 316 200 308 204 305 205 301 205 296 206 292 207 291 210 293 207 297 206 300 206 305 205 309 204 317 200 319 198 322 197 325 195 330 191 341 180 344 176 345 173 347 171 348 169 " style="stroke:gray;fill:none"/><path d="M229 169 " style="stroke:gray;fill:none"/><path d="M274 168 274 170 " style="stroke:gray;fill:none"/><path d="M260 168 260 170 " style="stroke:gray;fill:none"/><path d="M162 168 162 171 163 178 174 193 183 193 190 194 194 195 197 196 200 197 203 198 205 199 207 201 210 203 212 204 215 205 221 205 224 204 227 202 230 200 237 193 237 188 236 186 230 180 229 178 230 181 237 188 237 192 229 200 225 203 221 205 215 205 212 204 209 202 207 200 203 198 200 197 197 196 194 195 190 194 183 193 175 193 171 191 168 188 168 186 166 182 164 180 163 178 162 171 " style="stroke:gray;fill:none"/><path d="M318 167 " style="stroke:gray;fill:none"/><path d="M315 167 " style="stroke:gray;fill:none"/><path d="M312 167 " style="stroke:gray;fill:none"/><path d="M230 166 232 169 229 171 230 175 229 172 232 168 " style="stroke:gray;fill:none"/><path d="M222 166 " style="stroke:gray;fill:none"/><path d="M350 165 " style="stroke:gray;fill:none"/><path d="M321 166 " style="stroke:gray;fill:none"/><path d="M354 164 352 165 352 168 353 170 357 174 359 177 360 180 362 183 364 182 361 181 359 178 358 175 356 172 352 168 353 165 355 164 357 165 360 168 364 173 364 176 366 178 365 180 366 178 364 175 364 172 360 167 358 165 356 164 " style="stroke:gray;fill:none"/><path d="M218 164 218 166 220 168 225 173 227 174 228 176 227 174 221 169 " style="stroke:gray;fill:none"/><path d="M361 163 363 166 363 168 363 165 " style="stroke:gray;fill:none"/><path d="M213 164 " style="stroke:gray;fill:none"/><path d="M356 162 " style="stroke:gray;fill:none"/><path d="M211 162 211 164 " style="stroke:gray;fill:none"/><path d="M359 162 " style="stroke:gray;fill:none"/><path d="M349 162 348 165 345 168 343 168 345 168 347 167 348 164 351 161 353 161 " style="stroke:gray;fill:none"/><path d="M345 161 " style="stroke:gray;fill:none"/><path d="M341 161 340 163 " style="stroke:gray;fill:none"/><path d="M348 160 " style="stroke:gray;fill:none"/><path d="M201 161 " style="stroke:gray;fill:none"/><path d="M356 158 " style="stroke:gray;fill:none"/><path d="M197 157 197 159 " style="stroke:gray;fill:none"/><path d="M191 153 " style="stroke:gray;fill:none"/><path d="M278 150 278 152 " style="stroke:gray;fill:none"/><path d="M239 150 239 152 " style="stroke:gray;fill:none"/><path d="M220 149 " style="stroke:gray;fill:none"/><path d="M223 148 222 150 " style="stroke:gray;fill:none"/><path d="M331 147 " style="stroke:gray;fill:none"/><path d="M154 145 155 147 157 148 164 148 157 148 " style="stroke:gray;fill:none"/><path d="M346 145 " style="stroke:gray;fill:none"/><path d="M305 143 " style="stroke:gray;fill:none"/><path d="M352 142 " style="stroke:gray;fill:none"/><path d="M152 142 " style="stroke:gray;fill:none"/><path d="M2 143 0 145 0 147 1 149 3 149 1 148 0 146 6 143 3 146 5 148 7 148 7 144 5 142 " style="stroke:gray;fill:none"/><path d="M7 145 5 148 3 146 " style="stroke:gray;fill:none"/><path d="M176 141 " style="stroke:gray;fill:none"/><path d="M329 140 331 141 " style="stroke:gray;fill:none"/><path d="M176 139 " style="stroke:gray;fill:none"/><path d="M342 138 " style="stroke:gray;fill:none"/><path d="M213 138 " style="stroke:gray;fill:none"/><path d="M208 139 " style="stroke:gray;fill:none"/><path d="M189 141 189 143 189 141 193 138 " style="stroke:gray;fill:none"/><path d="M356 136 " style="stroke:gray;fill:none"/><path d="M213 136 " style="stroke:gray;fill:none"/><path d="M179 136 " style="stroke:gray;fill:none"/><path d="M147 133 148 135 149 137 150 139 149 137 148 135 " style="stroke:gray;fill:none"/><path d="M206 132 " style="stroke:gray;fill:none"/><path d="M201 133 198 135 197 135 196 137 197 135 200 134 203 132 " style="stroke:gray;fill:none"/><path d="M156 133 155 136 161 135 161 133 159 132 " style="stroke:gray;fill:none"/><path d="M159 132 161 134 159 136 155 135 " style="stroke:gray;fill:none"/><path d="M353 131 353 135 " style="stroke:gray;fill:none"/><path d="M192 131 190 132 186 133 184 133 186 133 190 132 192 131 194 130 " style="stroke:gray;fill:none"/><path d="M358 129 357 132 364 140 361 143 358 144 355 145 351 146 347 147 344 148 338 147 338 144 339 148 331 150 323 150 314 151 308 152 307 153 294 154 287 154 285 153 284 150 283 154 277 155 241 155 227 154 222 153 216 152 211 151 208 150 206 148 206 145 211 140 211 137 209 135 205 135 203 137 201 137 197 139 192 144 192 146 192 149 192 151 195 154 203 158 207 159 210 159 213 161 218 162 223 163 229 164 231 163 241 164 248 166 247 171 242 169 242 167 240 170 246 170 248 172 265 173 266 171 270 171 271 173 278 171 283 172 286 172 306 171 312 169 316 170 324 168 331 167 334 168 328 175 326 177 325 178 321 182 323 181 327 177 333 170 333 169 336 166 339 166 341 169 339 171 337 168 338 170 339 172 337 175 324 188 321 190 318 192 315 194 313 195 311 195 308 197 305 198 302 199 291 199 286 200 285 201 276 201 268 200 263 197 260 197 252 193 249 190 246 189 240 184 234 178 232 175 232 173 234 171 237 171 242 172 237 171 234 171 232 173 232 176 234 179 239 184 245 189 248 190 251 193 259 197 262 197 265 199 268 200 275 201 285 201 290 200 291 199 302 199 305 198 308 197 311 196 314 195 316 194 319 191 322 190 325 188 337 176 339 173 341 169 341 167 339 165 335 167 329 168 322 169 316 170 312 169 306 171 286 172 283 172 277 170 277 168 276 172 270 171 266 171 247 171 248 167 250 165 259 165 293 166 299 165 300 164 315 164 322 163 325 162 326 161 331 160 336 160 341 159 346 158 349 157 353 156 356 154 358 154 361 153 364 151 366 151 372 148 374 146 378 141 378 138 377 136 373 132 369 130 366 129 363 128 " style="stroke:gray;fill:none"/><path d="M325 178 " style="stroke:gray;fill:none"/><path d="M360 128 363 128 366 129 369 130 371 131 378 138 378 141 376 144 374 146 371 148 361 153 358 154 356 154 353 156 349 157 346 158 341 159 336 160 331 160 326 161 323 162 322 163 315 164 300 164 294 165 293 166 259 165 250 165 247 165 241 164 231 163 229 164 223 163 218 162 213 161 210 159 207 159 203 158 199 156 196 154 192 150 192 146 192 145 198 139 206 135 208 135 211 139 205 145 207 150 210 150 215 151 216 152 222 153 227 154 241 155 277 155 283 154 284 153 286 153 294 154 307 153 313 152 314 151 322 151 331 150 338 149 344 148 347 147 351 146 355 145 358 144 362 143 364 141 364 138 358 132 358 130 " style="stroke:gray;fill:none"/><path d="M198 128 " style="stroke:gray;fill:none"/><path d="M157 128 160 129 160 127 " style="stroke:gray;fill:none"/><path d="M157 128 160 128 " style="stroke:gray;fill:none"/><path d="M190 128 187 128 184 129 182 130 178 133 174 138 171 140 169 143 167 148 165 150 164 153 163 157 163 162 163 166 164 168 163 166 163 162 163 158 164 153 167 147 169 145 169 148 172 146 173 144 171 147 169 144 171 142 174 138 179 133 183 130 185 129 188 128 190 128 192 126 195 126 203 126 205 128 203 130 199 130 196 133 194 133 192 134 189 136 185 140 184 143 184 148 185 153 186 155 190 159 194 161 196 161 199 163 202 164 205 165 208 165 212 166 216 170 216 172 212 177 209 180 207 181 202 181 199 182 195 183 192 185 189 185 184 184 181 182 179 182 177 180 172 178 170 175 165 171 165 174 168 174 172 178 175 179 177 181 179 182 181 182 183 184 189 185 192 185 195 183 199 182 202 181 207 181 211 179 215 174 216 172 216 169 214 167 212 166 209 166 205 165 202 164 199 163 197 161 195 161 192 160 186 154 185 152 184 148 184 143 185 141 190 136 194 133 196 133 198 132 199 130 203 130 207 129 207 126 206 129 204 126 202 125 193 127 193 125 " style="stroke:gray;fill:none"/><path d="M424 124 424 126 " style="stroke:gray;fill:none"/><path d="M418 125 418 128 419 130 426 131 426 127 425 131 421 131 418 128 421 125 420 127 424 128 420 127 422 124 420 124 " style="stroke:gray;fill:none"/><path d="M205 124 210 125 211 128 210 132 211 128 210 124 " style="stroke:gray;fill:none"/><path d="M193 123 " style="stroke:gray;fill:none"/><path d="M213 120 213 122 213 124 " style="stroke:gray;fill:none"/><path d="M209 121 " style="stroke:gray;fill:none"/><path d="M216 119 216 122 " style="stroke:gray;fill:none"/><path d="M245 116 " style="stroke:gray;fill:none"/><path d="M219 115 " style="stroke:gray;fill:none"/><path d="M202 114 204 117 204 120 206 121 203 119 203 116 " style="stroke:gray;fill:none"/><path d="M211 113 " style="stroke:gray;fill:none"/><path d="M201 111 " style="stroke:gray;fill:none"/><path d="M337 107 340 110 " style="stroke:gray;fill:none"/><path d="M246 104 248 104 260 110 262 112 270 116 272 116 281 121 284 122 286 122 289 124 291 124 296 127 298 127 301 128 306 131 308 131 311 133 313 133 318 136 320 136 324 138 326 140 326 142 326 139 324 138 320 136 318 136 313 133 311 133 308 131 306 131 301 128 299 128 296 127 291 124 289 124 286 122 284 122 281 121 272 116 270 116 264 113 262 111 248 104 " style="stroke:gray;fill:none"/><path d="M247 102 " style="stroke:gray;fill:none"/><path d="M225 101 " style="stroke:gray;fill:none"/><path d="M161 103 160 106 161 109 166 109 168 108 168 103 166 102 " style="stroke:gray;fill:none"/><path d="M166 102 168 104 168 107 166 109 160 108 160 106 161 103 " style="stroke:gray;fill:none"/><path d="M183 97 " style="stroke:gray;fill:none"/><path d="M239 86 235 91 232 94 " style="stroke:gray;fill:none"/><path d="M197 88 191 88 193 88 196 90 198 88 200 86 " style="stroke:gray;fill:none"/><path d="M160 86 158 87 156 89 154 92 153 95 150 98 149 100 148 102 147 105 146 111 146 122 147 127 148 131 150 133 152 137 152 139 154 142 157 145 161 145 165 141 166 138 175 129 178 127 181 125 184 124 186 122 188 121 191 120 194 119 197 119 199 118 200 116 200 113 198 111 192 106 187 102 184 100 183 100 178 96 172 90 168 87 166 88 164 86 " style="stroke:gray;fill:none"/><path d="M167 87 170 90 177 96 181 99 185 102 186 102 191 106 197 111 200 114 200 116 197 119 194 119 191 120 188 121 182 124 180 126 177 127 173 130 167 136 165 139 165 140 160 145 158 145 154 141 152 138 148 130 147 126 146 122 146 111 147 106 148 103 150 100 151 98 153 101 155 101 159 97 161 96 164 95 168 94 168 92 165 89 " style="stroke:gray;fill:none"/><path d="M161 86 163 86 165 88 166 91 168 92 167 95 164 95 161 96 157 98 154 101 152 99 152 97 154 93 156 90 159 87 " style="stroke:gray;fill:none"/><path d="M366 85 365 89 366 91 372 89 370 91 367 91 365 89 " style="stroke:gray;fill:none"/><path d="M187 84 " style="stroke:gray;fill:none"/><path d="M368 84 367 87 370 88 370 86 368 84 370 83 372 85 370 83 " style="stroke:gray;fill:none"/><path d="M369 85 367 87 " style="stroke:gray;fill:none"/><path d="M174 83 " style="stroke:gray;fill:none"/><path d="M185 83 " style="stroke:gray;fill:none"/><path d="M148 81 150 83 152 82 150 83 " style="stroke:gray;fill:none"/><path d="M259 79 257 80 259 80 262 81 265 83 267 83 270 85 273 86 276 87 279 88 282 89 285 90 288 91 291 92 294 93 297 94 300 95 303 96 306 97 309 98 312 99 315 100 318 101 321 102 324 103 327 104 331 105 334 106 336 105 339 104 336 102 335 99 337 103 334 106 331 105 327 104 324 103 321 102 318 101 315 100 312 99 309 98 306 97 303 96 300 95 297 94 294 93 291 92 288 91 285 90 282 89 279 88 276 87 273 86 270 85 267 83 265 83 262 81 260 81 " style="stroke:gray;fill:none"/><path d="M177 77 " style="stroke:gray;fill:none"/><path d="M197 75 " style="stroke:gray;fill:none"/><path d="M150 75 152 76 " style="stroke:gray;fill:none"/><path d="M254 74 " style="stroke:gray;fill:none"/><path d="M154 74 " style="stroke:gray;fill:none"/><path d="M185 72 183 73 179 77 182 77 184 80 187 82 191 85 195 85 195 76 191 72 " style="stroke:gray;fill:none"/><path d="M185 72 190 72 192 73 194 75 195 77 194 85 192 85 188 82 185 80 181 76 " style="stroke:gray;fill:none"/><path d="M277 70 271 71 268 72 264 73 261 74 256 77 254 77 252 79 250 79 248 81 246 83 242 85 241 88 233 96 231 96 229 99 227 102 225 106 225 108 222 113 222 116 220 119 219 123 218 133 218 138 219 143 220 145 225 147 230 147 233 149 232 152 232 150 234 148 286 148 296 147 297 146 310 146 324 145 332 144 336 143 337 142 340 143 340 146 341 142 343 141 346 140 348 140 350 138 350 124 349 121 348 117 347 114 346 111 340 99 336 94 326 84 322 81 317 79 315 77 313 77 311 75 309 75 306 73 303 72 296 71 290 70 " style="stroke:gray;fill:none"/><path d="M277 70 290 70 295 71 301 73 303 72 306 73 310 75 312 77 314 77 316 79 321 81 325 84 336 95 340 100 342 105 344 107 346 111 347 114 348 117 349 121 350 124 350 137 345 139 344 137 344 123 343 119 342 118 342 114 342 110 341 112 342 114 340 117 337 117 335 117 332 116 329 115 326 114 323 113 320 112 317 111 314 110 311 109 308 108 304 107 301 105 298 105 295 104 292 103 289 101 286 100 283 100 280 99 277 98 274 97 271 96 268 95 265 93 263 93 260 91 258 91 255 90 252 87 251 89 253 89 255 90 257 90 260 91 263 93 265 93 268 95 271 96 274 97 277 98 280 99 283 100 286 100 289 101 292 103 295 104 298 105 301 105 304 107 307 107 310 108 313 109 316 110 319 111 322 112 325 113 328 114 331 115 334 116 337 117 340 119 340 117 341 115 342 119 343 122 344 123 344 138 346 140 342 141 340 143 340 140 338 142 336 142 333 143 332 144 324 145 310 146 297 146 287 147 286 148 253 148 248 143 246 139 245 136 244 133 243 129 242 124 244 112 245 114 248 116 272 128 274 128 279 131 281 131 284 133 286 133 289 135 292 136 294 136 299 139 302 140 304 140 308 142 310 143 308 142 304 140 302 140 299 139 294 136 292 136 289 135 286 133 284 133 281 131 279 131 274 128 272 128 250 117 247 115 243 111 242 108 244 106 244 101 245 98 246 95 248 92 248 88 250 84 252 82 254 81 251 82 250 85 248 88 248 92 246 95 245 98 244 101 244 105 243 107 243 110 243 112 242 124 243 129 244 133 245 136 246 139 250 146 252 147 231 148 225 147 222 146 220 144 219 142 218 138 218 133 219 124 220 120 221 117 222 113 223 111 225 109 225 107 227 103 229 100 231 97 234 96 241 89 242 86 244 84 246 84 248 81 251 79 253 79 255 77 257 77 262 74 265 73 268 72 271 71 " style="stroke:gray;fill:none"/><path d="M264 70 " style="stroke:gray;fill:none"/><path d="M151 70 147 72 146 74 146 76 147 78 149 79 153 79 158 77 167 81 170 83 174 86 178 89 182 92 187 96 192 100 198 106 204 111 210 116 212 117 214 116 215 114 215 112 203 100 197 95 193 92 189 89 185 86 182 84 179 82 174 80 172 78 169 76 167 75 164 74 162 74 159 72 156 71 153 70 " style="stroke:gray;fill:none"/><path d="M151 70 153 70 156 72 158 72 161 73 164 75 166 75 168 76 171 78 173 80 178 82 181 84 184 86 188 89 192 92 196 95 202 100 215 114 212 117 206 111 200 106 193 100 188 96 183 92 179 89 175 86 172 84 168 81 158 76 155 76 152 79 150 79 148 78 147 73 149 71 " style="stroke:gray;fill:none"/><path d="M280 67 286 67 " style="stroke:gray;fill:none"/><path d="M274 68 " style="stroke:gray;fill:none"/><path d="M278 66 278 68 " style="stroke:gray;fill:none"/><path d="M64 60 62 62 65 63 67 60 " style="stroke:gray;fill:none"/><path d="M64 60 62 62 " style="stroke:gray;fill:none"/><path d="M63 58 61 59 59 61 61 66 67 66 67 64 66 66 60 65 59 61 61 59 " style="stroke:gray;fill:none"/><path d="M277 52 " style="stroke:gray;fill:none"/><path d="M274 47 " style="stroke:gray;fill:none"/><path d="M257 31 258 33 262 36 271 45 273 50 275 52 277 57 279 58 276 55 274 50 272 48 272 46 271 44 264 37 260 34 259 34 " style="stroke:gray;fill:none"/><path d="M236 25 231 26 228 27 225 28 219 31 216 33 212 36 208 40 206 43 204 46 202 50 201 53 200 56 199 59 199 74 200 77 201 80 202 83 203 86 204 88 206 91 209 95 211 97 215 100 217 101 220 101 222 100 225 97 227 94 227 93 229 90 231 89 236 83 240 80 244 77 247 75 250 73 256 70 259 69 261 69 264 67 268 66 271 66 276 65 279 64 282 61 282 58 281 55 280 52 279 49 278 47 276 44 274 41 266 33 263 31 257 28 254 27 251 26 246 25 " style="stroke:gray;fill:none"/><path d="M236 25 246 25 251 26 254 27 257 28 259 30 262 31 265 33 274 42 277 46 280 52 281 55 282 58 282 60 278 64 276 65 271 66 268 66 264 67 261 68 258 69 255 71 253 71 249 73 246 75 243 77 239 80 235 83 231 87 229 89 227 93 225 96 221 100 219 101 217 101 213 98 209 94 206 90 204 87 202 83 201 80 200 77 199 74 199 59 200 56 201 53 204 47 206 44 208 41 213 36 217 33 220 31 226 28 229 27 232 26 " style="stroke:gray;fill:none"/><path d="M340 22 338 24 339 29 343 28 343 25 345 26 343 24 340 24 " style="stroke:gray;fill:none"/><path d="M339 24 343 25 340 29 338 27 " style="stroke:gray;fill:none"/></svg>