<svg width="429px" height="547px" xmlns="http://www.w3.org/2000/svg"><path d="M141 492 140 494 140 496 144 504 146 506 149 510 151 513 157 519 161 522 163 522 166 524 170 524 172 523 174 521 176 517 177 514 177 504 175 500 173 500 170 501 168 504 166 505 158 505 153 503 151 504 149 506 148 508 145 505 143 502 140 496 140 494 144 491 150 497 152 498 155 499 162 499 166 498 169 496 172 496 175 498 173 496 169 496 166 498 162 499 155 499 152 498 146 492 " style="stroke:gray;fill:none"/><path d="M173 500 177 504 177 514 176 517 175 519 170 524 166 524 162 522 158 519 151 512 149 509 149 507 153 503 158 505 166 505 168 504 " style="stroke:gray;fill:none"/><path d="M142 489 145 489 " style="stroke:gray;fill:none"/><path d="M91 483 90 485 89 488 88 491 88 502 89 504 92 507 97 507 100 506 103 505 106 503 108 503 116 499 118 497 121 496 127 490 126 488 124 486 121 486 116 489 113 490 105 490 102 489 97 484 95 482 " style="stroke:gray;fill:none"/><path d="M94 481 98 486 100 488 102 489 105 490 113 490 116 489 121 486 123 486 126 490 120 496 117 498 114 499 112 501 108 503 106 503 103 505 100 506 97 507 93 507 88 502 88 491 89 488 90 485 " style="stroke:gray;fill:none"/><path d="M282 478 285 478 " style="stroke:gray;fill:none"/><path d="M282 478 285 478 " style="stroke:gray;fill:none"/><path d="M122 476 124 477 " style="stroke:gray;fill:none"/><path d="M115 477 " style="stroke:gray;fill:none"/><path d="M29 473 27 476 29 477 31 475 " style="stroke:gray;fill:none"/><path d="M29 473 31 475 29 477 27 475 " style="stroke:gray;fill:none"/><path d="M169 466 " style="stroke:gray;fill:none"/><path d="M170 463 " style="stroke:gray;fill:none"/><path d="M178 464 179 469 178 464 180 462 " style="stroke:gray;fill:none"/><path d="M178 460 175 461 173 463 173 467 176 470 178 472 182 473 186 473 189 470 189 466 188 464 185 461 183 460 181 460 " style="stroke:gray;fill:none"/><path d="M181 460 183 460 189 466 189 469 185 473 182 473 179 472 176 470 174 468 173 466 173 464 177 460 " style="stroke:gray;fill:none"/><path d="M173 459 " style="stroke:gray;fill:none"/><path d="M185 458 " style="stroke:gray;fill:none"/><path d="M121 457 121 461 121 469 118 472 121 470 122 460 " style="stroke:gray;fill:none"/><path d="M105 445 103 446 101 449 102 460 103 464 104 466 111 473 114 474 120 475 119 480 118 476 117 480 115 480 111 479 109 478 105 474 102 473 100 473 98 474 93 479 100 473 102 473 104 474 107 477 111 479 115 480 124 479 126 480 129 483 129 486 128 488 129 486 129 483 128 481 124 479 120 479 121 474 123 473 125 473 128 470 128 468 130 465 131 459 131 456 128 453 125 453 118 454 112 451 110 449 107 446 " style="stroke:gray;fill:none"/><path d="M105 445 108 449 111 451 115 453 118 454 125 453 128 453 130 455 131 457 131 459 130 465 128 469 124 473 122 474 120 475 114 474 112 473 104 465 103 463 102 460 101 449 " style="stroke:gray;fill:none"/><path d="M123 440 123 443 120 446 122 445 " style="stroke:gray;fill:none"/><path d="M353 439 355 441 356 437 " style="stroke:gray;fill:none"/><path d="M355 437 357 439 355 441 353 439 " style="stroke:gray;fill:none"/><path d="M113 432 " style="stroke:gray;fill:none"/><path d="M119 430 118 433 116 434 113 434 110 437 110 442 113 445 115 447 119 448 124 448 126 446 127 443 127 441 125 437 123 435 121 435 118 433 " style="stroke:gray;fill:none"/><path d="M116 434 119 434 122 435 125 438 127 441 127 443 126 445 123 448 119 448 116 447 113 445 111 443 110 441 110 438 114 434 " style="stroke:gray;fill:none"/><path d="M178 429 174 431 171 434 169 438 168 442 168 452 170 454 168 452 168 442 169 438 170 436 176 430 178 429 188 429 191 430 193 431 197 435 195 432 191 430 188 429 " style="stroke:gray;fill:none"/><path d="M106 403 " style="stroke:gray;fill:none"/><path d="M216 393 215 395 215 397 214 400 213 401 213 404 212 408 211 411 210 412 209 416 208 420 207 424 208 428 212 428 214 424 215 421 216 417 217 412 218 408 219 403 220 398 220 395 218 393 " style="stroke:gray;fill:none"/><path d="M218 393 220 395 220 398 219 403 218 408 217 412 216 417 215 421 214 424 213 426 210 429 207 426 207 424 208 420 209 416 210 412 211 409 212 405 213 401 214 398 215 395 " style="stroke:gray;fill:none"/><path d="M279 388 281 390 283 388 281 386 " style="stroke:gray;fill:none"/><path d="M281 386 283 388 281 390 279 388 " style="stroke:gray;fill:none"/><path d="M220 386 218 387 216 389 216 391 220 386 222 388 222 390 221 393 221 391 222 388 " style="stroke:gray;fill:none"/><path d="M107 383 106 385 105 390 105 394 104 396 105 398 108 399 110 397 111 395 112 392 112 386 111 384 " style="stroke:gray;fill:none"/><path d="M108 383 111 384 112 386 112 392 111 395 107 399 105 394 105 390 106 385 " style="stroke:gray;fill:none"/><path d="M219 382 221 384 " style="stroke:gray;fill:none"/><path d="M113 382 115 382 " style="stroke:gray;fill:none"/><path d="M183 382 " style="stroke:gray;fill:none"/><path d="M109 380 107 381 109 380 111 381 " style="stroke:gray;fill:none"/><path d="M188 376 " style="stroke:gray;fill:none"/><path d="M139 376 137 377 133 381 132 383 132 385 132 388 132 390 135 396 137 399 139 401 143 404 146 406 156 411 160 412 164 413 170 414 180 414 187 413 191 412 194 411 197 410 200 408 203 407 204 405 201 408 197 410 194 411 191 412 187 413 180 414 170 414 164 413 160 412 156 411 148 407 145 405 141 402 136 397 134 394 132 390 132 388 132 385 132 383 " style="stroke:gray;fill:none"/><path d="M27 367 25 369 25 373 27 375 31 375 33 373 33 370 31 368 29 367 " style="stroke:gray;fill:none"/><path d="M29 367 33 372 30 375 28 375 25 372 25 370 " style="stroke:gray;fill:none"/><path d="M118 366 115 370 112 371 110 371 112 371 115 370 117 369 " style="stroke:gray;fill:none"/><path d="M123 362 " style="stroke:gray;fill:none"/><path d="M186 359 185 361 186 363 189 363 189 359 " style="stroke:gray;fill:none"/><path d="M189 360 187 363 185 361 " style="stroke:gray;fill:none"/><path d="M169 359 168 361 163 362 163 365 166 366 166 369 164 365 164 361 " style="stroke:gray;fill:none"/><path d="M142 359 " style="stroke:gray;fill:none"/><path d="M145 355 " style="stroke:gray;fill:none"/><path d="M191 352 177 353 171 358 170 364 169 371 165 371 159 370 156 368 152 368 150 366 150 364 153 362 155 364 157 365 161 364 160 360 155 360 153 359 148 357 145 358 144 361 143 363 143 366 144 369 148 373 150 373 153 375 155 376 153 375 149 373 143 367 143 363 144 360 147 357 150 356 154 360 161 361 160 365 157 365 155 363 152 362 150 364 150 366 152 368 156 368 159 370 157 372 157 375 159 377 162 378 164 378 169 380 169 383 169 381 171 379 183 379 185 377 185 373 184 371 188 370 188 373 190 375 193 375 195 374 197 370 198 366 199 360 199 355 196 352 " style="stroke:gray;fill:none"/><path d="M191 352 195 352 199 356 199 360 198 366 197 370 196 372 194 374 192 375 190 375 188 373 188 369 185 369 185 373 185 376 182 379 171 379 168 379 165 379 162 378 160 377 157 374 157 372 159 370 164 370 170 371 170 364 171 359 172 357 175 354 177 353 " style="stroke:gray;fill:none"/><path d="M139 352 " style="stroke:gray;fill:none"/><path d="M155 350 152 353 149 353 147 354 149 353 152 353 155 350 165 352 171 352 165 352 " style="stroke:gray;fill:none"/><path d="M194 350 " style="stroke:gray;fill:none"/><path d="M196 348 196 350 " style="stroke:gray;fill:none"/><path d="M142 346 " style="stroke:gray;fill:none"/><path d="M331 338 330 340 332 342 334 340 " style="stroke:gray;fill:none"/><path d="M332 338 334 340 332 342 330 340 " style="stroke:gray;fill:none"/><path d="M110 335 112 335 " style="stroke:gray;fill:none"/><path d="M177 332 " style="stroke:gray;fill:none"/><path d="M111 330 113 330 " style="stroke:gray;fill:none"/><path d="M104 330 102 332 98 337 96 340 94 344 93 348 92 352 92 357 93 361 95 365 101 371 103 372 107 372 110 374 114 374 117 373 119 372 122 369 122 367 120 363 118 363 111 356 110 353 105 348 105 346 107 344 108 342 107 330 " style="stroke:gray;fill:none"/><path d="M106 330 108 332 108 342 106 344 105 346 105 349 110 354 111 357 117 363 119 363 121 365 122 368 117 373 114 374 110 374 107 372 104 372 102 371 94 363 93 361 92 357 92 352 93 348 94 345 96 341 98 338 102 333 " style="stroke:gray;fill:none"/><path d="M243 327 239 328 236 329 224 335 221 337 216 341 210 347 209 350 218 340 223 336 226 334 236 329 239 328 243 327 246 327 248 328 250 331 248 328 246 327 " style="stroke:gray;fill:none"/><path d="M125 326 121 327 118 328 115 331 114 333 114 349 115 352 116 354 120 358 123 359 126 360 132 360 135 359 138 357 141 354 141 352 143 350 141 353 136 358 132 360 126 360 123 359 121 358 115 352 114 349 114 334 115 332 119 328 121 327 125 326 132 326 134 327 137 330 137 334 137 338 136 342 135 343 135 345 136 347 138 348 142 348 139 348 137 347 135 345 135 343 136 339 137 334 137 331 137 329 135 327 132 326 " style="stroke:gray;fill:none"/><path d="M120 325 " style="stroke:gray;fill:none"/><path d="M136 324 " style="stroke:gray;fill:none"/><path d="M133 324 " style="stroke:gray;fill:none"/><path d="M140 320 " style="stroke:gray;fill:none"/><path d="M202 316 202 318 198 322 194 325 191 327 187 329 185 329 182 331 180 331 182 331 185 329 187 329 193 326 196 324 200 321 202 319 " style="stroke:gray;fill:none"/><path d="M234 315 232 316 224 324 220 327 217 329 214 331 206 335 203 336 199 337 195 338 190 339 184 340 162 339 154 340 154 343 156 345 158 346 163 347 173 348 173 351 173 349 175 347 181 348 181 351 181 349 183 347 194 346 203 346 206 349 206 354 205 358 204 359 204 364 203 370 202 374 200 377 197 380 194 382 191 383 188 384 184 385 165 385 161 384 158 383 155 382 152 381 148 379 146 377 143 376 137 370 134 367 131 367 128 370 123 376 122 376 119 379 117 382 116 386 114 386 117 387 118 391 118 394 117 397 116 399 112 403 111 405 111 407 109 409 109 411 107 414 106 417 105 421 104 425 104 428 105 430 109 431 111 429 113 428 116 427 118 427 122 428 126 431 131 436 132 439 138 439 142 434 145 430 146 427 145 424 144 422 143 420 145 418 147 419 156 424 158 424 163 425 160 427 161 429 159 432 157 435 157 449 156 455 155 459 154 463 153 466 147 477 147 479 147 482 147 484 149 488 153 492 156 493 162 493 165 492 171 489 174 487 178 483 178 480 175 477 168 470 167 468 167 466 167 463 168 460 172 456 175 454 178 454 181 454 184 454 189 457 192 457 194 455 196 451 197 448 198 444 199 440 200 435 201 431 201 425 202 421 203 417 204 413 205 409 206 405 207 402 208 398 209 394 210 390 211 387 213 383 218 378 234 363 238 358 241 354 243 351 245 348 252 334 253 331 253 328 252 326 250 324 248 323 246 323 242 320 238 316 236 315 " style="stroke:gray;fill:none"/><path d="M234 315 236 315 241 320 244 322 246 323 248 323 253 328 253 331 251 334 251 336 247 344 245 347 243 350 241 353 238 357 234 362 217 378 213 382 212 384 211 387 210 390 209 394 209 397 208 401 206 404 205 409 204 413 203 417 202 421 201 425 201 431 200 435 199 440 198 444 197 448 196 451 195 453 191 457 189 457 187 455 184 454 181 454 178 454 175 454 171 456 168 459 167 461 167 463 167 466 167 468 169 471 170 473 167 474 164 477 161 480 159 484 159 488 162 490 159 487 159 484 160 482 163 478 167 474 170 473 173 476 178 480 178 482 173 487 169 490 165 492 162 493 156 493 154 492 149 487 147 484 147 482 147 479 147 477 153 466 154 463 155 459 156 455 157 449 157 435 158 433 163 429 162 424 160 425 156 424 154 423 148 420 145 418 143 419 143 421 145 424 146 427 145 429 142 432 139 436 139 437 136 440 134 440 132 438 130 435 127 431 129 430 131 429 132 427 132 420 131 417 129 413 126 410 120 407 117 406 114 407 117 406 120 407 124 409 130 415 131 417 132 420 132 427 129 430 126 431 124 429 122 428 118 427 116 427 113 428 109 430 107 431 104 428 104 425 105 421 106 417 107 414 109 410 111 408 111 406 112 404 115 401 117 397 118 394 118 391 117 383 118 381 124 376 128 372 134 368 135 368 137 370 142 376 152 381 155 382 158 383 161 384 165 385 184 385 188 384 191 383 194 382 198 380 200 378 202 374 203 370 204 364 204 359 205 355 206 354 206 348 204 346 194 346 183 347 180 347 175 347 172 347 163 347 158 346 154 341 156 339 162 339 184 340 190 339 195 338 199 337 203 336 206 335 218 329 221 327 225 324 " style="stroke:gray;fill:none"/><path d="M182 316 " style="stroke:gray;fill:none"/><path d="M175 316 " style="stroke:gray;fill:none"/><path d="M151 316 " style="stroke:gray;fill:none"/><path d="M130 315 128 317 129 319 128 317 " style="stroke:gray;fill:none"/><path d="M148 316 149 314 " style="stroke:gray;fill:none"/><path d="M141 315 " style="stroke:gray;fill:none"/><path d="M196 312 " style="stroke:gray;fill:none"/><path d="M202 311 " style="stroke:gray;fill:none"/><path d="M204 310 " style="stroke:gray;fill:none"/><path d="M150 310 " style="stroke:gray;fill:none"/><path d="M131 307 133 307 " style="stroke:gray;fill:none"/><path d="M230 300 228 302 226 302 224 304 219 306 217 308 215 309 213 309 210 311 207 312 204 313 201 314 197 315 194 316 189 317 184 318 174 319 152 319 141 318 137 317 136 316 133 316 131 318 132 320 137 321 142 325 147 330 149 331 152 332 156 333 161 334 186 334 191 333 195 332 198 331 201 330 204 329 211 325 213 325 216 323 220 320 228 312 231 308 232 305 233 303 232 301 " style="stroke:gray;fill:none"/><path d="M133 316 136 316 138 318 137 320 134 321 131 318 " style="stroke:gray;fill:none"/><path d="M229 301 231 301 233 304 231 306 229 309 229 310 219 320 215 323 212 325 204 329 201 330 198 331 195 332 191 333 186 334 161 334 156 333 152 332 149 331 142 325 137 319 141 318 152 319 174 319 184 318 189 317 194 316 197 315 201 314 204 313 207 312 210 311 213 309 215 309 223 305 225 303 " style="stroke:gray;fill:none"/><path d="M224 300 " style="stroke:gray;fill:none"/><path d="M233 297 " style="stroke:gray;fill:none"/><path d="M127 297 " style="stroke:gray;fill:none"/><path d="M185 296 " style="stroke:gray;fill:none"/><path d="M187 293 " style="stroke:gray;fill:none"/><path d="M246 291 244 293 244 296 245 298 247 300 251 300 252 300 253 295 251 292 " style="stroke:gray;fill:none"/><path d="M247 291 249 291 251 293 253 296 253 298 249 301 244 296 244 294 " style="stroke:gray;fill:none"/><path d="M234 291 " style="stroke:gray;fill:none"/><path d="M232 291 " style="stroke:gray;fill:none"/><path d="M230 288 " style="stroke:gray;fill:none"/><path d="M194 286 194 288 " style="stroke:gray;fill:none"/><path d="M129 285 129 287 131 290 132 293 133 295 132 293 131 290 129 287 " style="stroke:gray;fill:none"/><path d="M198 283 197 285 " style="stroke:gray;fill:none"/><path d="M143 286 140 286 140 284 140 287 143 287 143 285 145 283 " style="stroke:gray;fill:none"/><path d="M135 284 " style="stroke:gray;fill:none"/><path d="M123 283 122 285 " style="stroke:gray;fill:none"/><path d="M147 283 " style="stroke:gray;fill:none"/><path d="M102 282 99 283 " style="stroke:gray;fill:none"/><path d="M259 281 257 282 255 284 255 287 256 290 258 292 261 298 261 301 260 303 256 307 246 306 244 307 243 309 242 311 247 316 249 316 252 318 255 319 261 319 264 318 267 316 269 316 275 310 277 307 278 304 279 301 279 294 278 291 277 288 272 283 269 282 266 281 " style="stroke:gray;fill:none"/><path d="M259 281 266 281 269 282 271 283 277 289 278 291 279 294 279 301 278 304 277 306 275 309 268 316 264 318 261 319 255 319 252 318 248 316 242 310 246 306 257 307 259 305 261 307 262 309 264 310 271 310 264 310 259 305 261 301 261 298 260 295 258 291 256 289 255 287 255 285 " style="stroke:gray;fill:none"/><path d="M230 281 " style="stroke:gray;fill:none"/><path d="M145 281 " style="stroke:gray;fill:none"/><path d="M131 277 131 279 133 279 133 277 " style="stroke:gray;fill:none"/><path d="M132 279 " style="stroke:gray;fill:none"/><path d="M127 277 128 279 128 283 128 279 " style="stroke:gray;fill:none"/><path d="M149 276 147 279 149 279 " style="stroke:gray;fill:none"/><path d="M204 275 " style="stroke:gray;fill:none"/><path d="M121 273 121 276 " style="stroke:gray;fill:none"/><path d="M138 273 136 275 136 279 138 281 143 280 144 278 144 275 142 273 " style="stroke:gray;fill:none"/><path d="M140 272 144 276 144 278 141 281 139 281 135 276 " style="stroke:gray;fill:none"/><path d="M145 272 148 274 147 271 " style="stroke:gray;fill:none"/><path d="M231 269 " style="stroke:gray;fill:none"/><path d="M119 268 120 271 " style="stroke:gray;fill:none"/><path d="M241 266 " style="stroke:gray;fill:none"/><path d="M162 266 161 268 156 267 162 268 " style="stroke:gray;fill:none"/><path d="M208 264 207 266 206 269 205 272 206 269 207 266 " style="stroke:gray;fill:none"/><path d="M239 263 239 266 " style="stroke:gray;fill:none"/><path d="M235 263 235 265 236 268 234 271 233 276 233 285 235 287 233 285 233 277 234 272 235 270 238 268 241 271 241 280 240 283 237 286 236 289 237 287 240 284 241 280 241 270 239 268 236 267 235 265 " style="stroke:gray;fill:none"/><path d="M143 263 143 265 145 265 " style="stroke:gray;fill:none"/><path d="M144 265 " style="stroke:gray;fill:none"/><path d="M230 262 " style="stroke:gray;fill:none"/><path d="M97 262 96 264 95 268 95 279 96 285 97 288 103 297 105 298 107 297 108 295 107 291 106 287 105 283 104 282 103 277 103 265 102 262 " style="stroke:gray;fill:none"/><path d="M97 263 102 263 103 265 103 277 104 282 105 286 106 287 107 291 108 295 105 298 103 297 101 295 99 292 97 288 96 285 95 279 95 268 96 265 " style="stroke:gray;fill:none"/><path d="M209 261 " style="stroke:gray;fill:none"/><path d="M234 260 " style="stroke:gray;fill:none"/><path d="M173 259 171 260 " style="stroke:gray;fill:none"/><path d="M173 257 " style="stroke:gray;fill:none"/><path d="M138 256 138 258 139 260 141 259 138 257 140 257 " style="stroke:gray;fill:none"/><path d="M232 256 " style="stroke:gray;fill:none"/><path d="M238 254 237 257 234 255 236 258 236 261 238 258 " style="stroke:gray;fill:none"/><path d="M237 257 236 260 " style="stroke:gray;fill:none"/><path d="M174 254 " style="stroke:gray;fill:none"/><path d="M252 252 249 253 " style="stroke:gray;fill:none"/><path d="M229 252 " style="stroke:gray;fill:none"/><path d="M138 250 138 253 " style="stroke:gray;fill:none"/><path d="M113 250 111 251 110 254 109 256 108 259 108 265 109 268 112 271 112 277 113 280 114 281 114 285 112 288 112 290 113 293 115 296 115 298 118 304 122 308 126 308 128 306 128 303 123 294 123 292 122 289 121 287 116 282 115 274 115 269 117 267 117 260 115 251 " style="stroke:gray;fill:none"/><path d="M113 250 116 253 117 260 117 266 115 268 115 275 116 282 117 284 122 289 123 292 123 294 126 299 126 301 128 304 128 306 126 308 123 308 117 302 115 298 115 296 113 293 112 290 112 288 114 286 114 281 113 278 112 277 112 270 109 267 108 265 108 259 109 256 111 252 " style="stroke:gray;fill:none"/><path d="M174 248 174 250 176 250 176 248 175 250 " style="stroke:gray;fill:none"/><path d="M119 248 118 250 " style="stroke:gray;fill:none"/><path d="M114 248 " style="stroke:gray;fill:none"/><path d="M174 244 174 246 " style="stroke:gray;fill:none"/><path d="M137 244 138 246 139 244 " style="stroke:gray;fill:none"/><path d="M26 245 29 247 29 243 " style="stroke:gray;fill:none"/><path d="M28 243 28 247 26 245 " style="stroke:gray;fill:none"/><path d="M139 242 " style="stroke:gray;fill:none"/><path d="M226 240 226 242 " style="stroke:gray;fill:none"/><path d="M386 240 387 242 390 239 388 238 " style="stroke:gray;fill:none"/><path d="M388 238 390 240 388 242 386 240 " style="stroke:gray;fill:none"/><path d="M135 238 133 239 129 243 126 244 125 247 128 243 130 243 135 238 138 238 141 240 139 239 " style="stroke:gray;fill:none"/><path d="M243 236 242 238 242 240 244 243 245 246 246 249 247 253 248 262 249 273 251 272 253 273 254 271 255 268 255 255 254 251 253 246 252 242 251 240 247 236 " style="stroke:gray;fill:none"/><path d="M244 236 246 236 251 241 252 243 253 246 254 251 255 255 255 268 254 271 252 273 250 273 248 271 247 261 247 253 246 249 245 246 244 245 243 242 243 240 242 238 " style="stroke:gray;fill:none"/><path d="M226 236 " style="stroke:gray;fill:none"/><path d="M140 236 " style="stroke:gray;fill:none"/><path d="M229 237 229 241 230 243 230 246 232 249 232 251 237 252 239 250 239 248 238 245 237 242 235 238 232 235 " style="stroke:gray;fill:none"/><path d="M231 235 236 240 237 242 238 245 238 247 239 249 235 253 232 250 230 246 229 242 228 239 230 237 " style="stroke:gray;fill:none"/><path d="M228 235 " style="stroke:gray;fill:none"/><path d="M168 235 " style="stroke:gray;fill:none"/><path d="M225 233 " style="stroke:gray;fill:none"/><path d="M155 234 152 234 149 235 143 241 141 245 140 248 140 250 141 253 143 256 143 258 148 263 151 264 161 264 164 263 169 258 171 254 171 244 170 241 165 236 161 234 158 234 " style="stroke:gray;fill:none"/><path d="M155 234 158 234 161 234 164 236 170 242 171 244 171 254 170 256 163 263 161 264 151 264 149 263 143 257 141 253 140 250 140 248 141 245 142 243 150 235 152 234 " style="stroke:gray;fill:none"/><path d="M132 233 " style="stroke:gray;fill:none"/><path d="M155 231 158 231 " style="stroke:gray;fill:none"/><path d="M316 230 325 230 " style="stroke:gray;fill:none"/><path d="M296 230 294 231 292 236 289 239 288 242 286 244 285 247 283 249 281 254 279 257 277 260 273 264 272 267 268 267 272 267 276 262 278 259 281 255 281 253 282 251 284 249 285 246 287 244 288 241 291 238 293 233 296 230 297 234 296 236 293 239 291 242 290 245 288 247 287 250 284 253 282 258 280 260 279 263 277 265 275 270 273 272 270 273 266 273 265 269 265 265 267 260 268 263 267 260 266 264 265 269 264 270 265 273 270 273 274 272 275 270 276 267 278 265 279 262 281 260 283 255 286 252 287 249 289 247 290 244 292 241 295 238 297 235 " style="stroke:gray;fill:none"/><path d="M164 230 " style="stroke:gray;fill:none"/><path d="M138 230 136 231 134 232 136 231 " style="stroke:gray;fill:none"/><path d="M312 229 " style="stroke:gray;fill:none"/><path d="M191 229 199 236 206 244 207 247 208 251 208 259 207 262 201 273 201 275 199 278 197 280 196 282 195 284 196 282 199 281 198 279 200 277 201 275 201 273 207 262 208 259 208 251 207 247 206 244 204 239 199 233 194 230 " style="stroke:gray;fill:none"/><path d="M143 229 " style="stroke:gray;fill:none"/><path d="M169 228 167 229 165 232 162 232 165 232 169 228 189 228 " style="stroke:gray;fill:none"/><path d="M219 227 " style="stroke:gray;fill:none"/><path d="M144 227 146 228 " style="stroke:gray;fill:none"/><path d="M146 225 " style="stroke:gray;fill:none"/><path d="M301 224 303 225 307 227 309 228 307 226 303 224 " style="stroke:gray;fill:none"/><path d="M341 223 343 223 " style="stroke:gray;fill:none"/><path d="M355 220 352 221 350 223 347 225 341 228 337 229 335 229 338 229 342 228 348 225 351 223 353 221 " style="stroke:gray;fill:none"/><path d="M321 218 " style="stroke:gray;fill:none"/><path d="M322 213 " style="stroke:gray;fill:none"/><path d="M255 212 253 214 254 227 258 227 257 212 " style="stroke:gray;fill:none"/><path d="M255 212 258 213 257 227 253 226 253 214 " style="stroke:gray;fill:none"/><path d="M292 210 " style="stroke:gray;fill:none"/><path d="M321 209 320 211 321 209 322 211 325 213 " style="stroke:gray;fill:none"/><path d="M295 203 294 206 292 206 290 208 289 210 290 212 291 214 294 218 296 220 299 222 298 220 294 217 291 213 289 210 293 206 295 206 " style="stroke:gray;fill:none"/><path d="M293 204 " style="stroke:gray;fill:none"/><path d="M167 202 170 202 174 203 177 204 180 205 186 208 189 210 191 212 191 214 191 211 188 209 180 205 177 204 174 203 170 202 " style="stroke:gray;fill:none"/><path d="M316 201 " style="stroke:gray;fill:none"/><path d="M309 201 " style="stroke:gray;fill:none"/><path d="M303 201 306 202 " style="stroke:gray;fill:none"/><path d="M173 198 165 199 162 201 157 201 153 202 150 203 147 204 135 210 131 213 127 216 122 221 120 224 118 227 115 233 116 238 118 238 120 237 122 235 125 233 128 231 131 230 133 228 141 224 143 224 146 222 149 221 152 220 155 219 159 218 164 217 172 218 173 220 170 222 165 222 161 223 156 224 152 225 151 226 148 227 150 226 152 226 156 225 160 224 161 223 165 222 171 221 173 221 184 222 185 221 189 221 196 222 201 223 205 224 208 225 211 226 215 228 221 234 223 238 223 241 225 244 226 248 227 252 228 257 229 265 228 270 229 274 229 276 228 283 227 288 226 292 225 294 218 301 206 307 203 308 199 309 196 310 192 311 188 312 182 313 170 313 167 313 158 313 155 313 152 312 144 312 141 311 135 305 133 302 127 290 126 287 125 282 124 278 123 273 122 269 123 263 123 260 122 247 123 243 128 238 134 235 136 235 141 232 144 232 147 230 154 229 157 227 161 228 164 226 168 225 186 225 189 225 192 227 194 227 196 228 200 231 204 235 206 238 208 241 209 244 210 247 210 255 211 259 212 260 213 264 211 265 210 267 210 270 209 273 208 275 206 275 207 277 203 281 203 277 202 279 201 281 200 283 202 284 195 291 192 293 190 293 187 295 189 297 185 298 181 300 179 301 177 298 180 295 182 294 185 294 181 293 183 291 185 292 183 291 181 292 182 294 180 295 178 296 176 299 175 301 177 299 179 301 176 304 174 304 172 305 170 307 168 308 165 309 162 307 164 305 167 304 170 304 167 304 164 305 161 305 156 305 152 306 151 307 141 307 151 307 155 306 156 305 162 306 163 309 158 311 154 311 158 311 162 310 165 309 168 308 178 303 181 300 185 298 196 298 199 297 205 294 212 287 215 281 216 277 216 267 215 265 212 263 211 259 210 255 210 247 209 244 208 241 207 239 205 236 203 234 201 232 198 229 194 227 192 227 189 225 186 225 168 225 165 227 161 228 157 227 154 229 151 229 147 230 144 231 141 232 136 235 134 235 126 239 123 242 122 247 123 260 123 263 122 269 123 273 124 278 125 282 126 287 127 290 128 293 133 303 136 307 140 311 144 312 151 312 155 313 157 315 156 317 157 315 168 314 168 317 168 315 170 313 184 315 183 313 190 311 193 312 192 314 193 312 197 310 200 309 204 308 220 300 225 295 226 293 227 289 227 284 228 277 231 275 228 273 228 270 229 265 228 256 227 251 226 248 225 244 223 241 223 238 222 235 221 233 216 228 214 228 209 225 205 224 201 223 197 222 190 222 185 220 185 218 184 222 173 221 172 219 173 216 190 216 195 218 194 220 195 218 202 218 206 219 210 220 213 221 214 222 217 223 220 224 222 224 224 222 224 219 218 213 214 210 211 208 203 204 201 204 198 202 195 201 191 200 187 199 177 198 " style="stroke:gray;fill:none"/><path d="M202 280 202 283 " style="stroke:gray;fill:none"/><path d="M213 264 216 267 216 277 215 281 214 283 212 286 204 294 201 296 199 297 196 298 190 298 188 295 190 293 192 293 194 292 197 290 202 285 203 282 207 278 208 276 209 273 209 271 210 267 " style="stroke:gray;fill:none"/><path d="M173 198 177 198 187 199 191 200 195 201 198 202 201 204 203 204 209 207 213 210 217 213 224 220 224 222 222 224 220 224 217 223 214 222 211 221 210 220 206 219 202 218 195 218 191 217 190 216 173 216 164 217 159 218 155 219 152 220 149 221 146 222 143 223 127 231 125 233 122 235 119 237 117 238 115 236 115 233 117 229 119 226 122 222 128 216 132 213 136 210 139 208 145 205 147 205 150 203 153 202 157 201 162 201 165 199 " style="stroke:gray;fill:none"/><path d="M316 198 312 200 314 199 318 197 " style="stroke:gray;fill:none"/><path d="M320 195 " style="stroke:gray;fill:none"/><path d="M215 191 218 192 220 191 223 194 220 196 223 194 226 194 228 192 232 192 232 194 227 199 222 200 216 200 222 200 228 199 232 195 229 192 225 194 223 194 222 192 220 191 218 191 " style="stroke:gray;fill:none"/><path d="M177 191 179 191 " style="stroke:gray;fill:none"/><path d="M364 190 364 196 " style="stroke:gray;fill:none"/><path d="M211 188 213 189 215 189 213 189 " style="stroke:gray;fill:none"/><path d="M191 190 193 191 195 191 198 192 200 194 203 194 206 196 209 196 212 199 214 200 212 199 215 198 217 197 216 194 211 194 208 196 206 196 203 194 201 194 198 192 196 192 193 191 191 190 192 187 " style="stroke:gray;fill:none"/><path d="M211 194 217 196 215 198 212 198 209 196 " style="stroke:gray;fill:none"/><path d="M226 186 227 190 224 189 224 187 225 190 227 190 229 188 231 188 228 188 " style="stroke:gray;fill:none"/><path d="M194 186 " style="stroke:gray;fill:none"/><path d="M322 185 319 188 " style="stroke:gray;fill:none"/><path d="M245 184 246 186 " style="stroke:gray;fill:none"/><path d="M173 183 173 185 176 188 182 187 176 188 174 186 " style="stroke:gray;fill:none"/><path d="M243 182 " style="stroke:gray;fill:none"/><path d="M364 182 " style="stroke:gray;fill:none"/><path d="M225 180 " style="stroke:gray;fill:none"/><path d="M320 179 " style="stroke:gray;fill:none"/><path d="M167 179 168 182 " style="stroke:gray;fill:none"/><path d="M363 178 " style="stroke:gray;fill:none"/><path d="M340 177 " style="stroke:gray;fill:none"/><path d="M293 177 " style="stroke:gray;fill:none"/><path d="M224 177 " style="stroke:gray;fill:none"/><path d="M74 179 77 179 76 177 " style="stroke:gray;fill:none"/><path d="M74 178 77 178 " style="stroke:gray;fill:none"/><path d="M324 176 322 178 " style="stroke:gray;fill:none"/><path d="M362 175 " style="stroke:gray;fill:none"/><path d="M236 175 237 177 " style="stroke:gray;fill:none"/><path d="M342 174 " style="stroke:gray;fill:none"/><path d="M295 174 " style="stroke:gray;fill:none"/><path d="M288 174 289 176 " style="stroke:gray;fill:none"/><path d="M282 174 284 177 286 177 290 178 291 179 296 180 304 180 297 180 292 179 286 177 285 175 284 177 " style="stroke:gray;fill:none"/><path d="M301 173 " style="stroke:gray;fill:none"/><path d="M230 172 " style="stroke:gray;fill:none"/><path d="M163 172 163 175 164 180 168 188 172 192 175 193 186 193 190 195 195 195 198 196 201 197 204 198 208 200 210 202 213 204 223 204 225 203 228 201 226 202 223 204 214 204 212 203 210 201 204 198 201 197 198 196 192 194 190 195 185 194 184 191 187 190 184 190 183 193 175 193 173 192 167 186 164 180 163 175 " style="stroke:gray;fill:none"/><path d="M327 170 " style="stroke:gray;fill:none"/><path d="M231 170 " style="stroke:gray;fill:none"/><path d="M335 169 335 172 332 176 329 179 325 182 323 183 325 182 327 181 328 179 330 179 332 177 335 173 " style="stroke:gray;fill:none"/><path d="M337 169 " style="stroke:gray;fill:none"/><path d="M283 168 283 170 " style="stroke:gray;fill:none"/><path d="M219 168 226 175 228 178 231 182 231 183 236 188 236 193 235 195 236 187 230 181 227 177 227 176 225 173 " style="stroke:gray;fill:none"/><path d="M293 167 293 169 " style="stroke:gray;fill:none"/><path d="M235 168 " style="stroke:gray;fill:none"/><path d="M305 166 305 168 " style="stroke:gray;fill:none"/><path d="M232 166 233 168 " style="stroke:gray;fill:none"/><path d="M338 165 335 166 333 168 328 167 324 169 321 168 317 170 311 169 306 171 300 170 300 167 299 171 293 171 290 171 285 172 282 172 275 171 263 172 255 170 255 168 250 167 251 169 255 170 241 170 233 171 232 173 235 170 241 170 262 171 263 172 275 171 282 172 285 172 291 172 291 174 293 171 298 172 300 170 306 171 311 169 317 170 320 171 321 172 325 172 328 174 326 176 323 180 322 180 321 182 326 177 333 169 333 168 335 166 338 165 340 167 341 169 340 171 337 175 329 181 324 188 320 191 317 192 315 194 311 196 308 197 306 197 304 198 302 196 304 194 307 193 309 191 312 190 316 187 318 185 317 181 315 180 309 180 306 178 303 178 300 177 297 174 298 176 300 177 302 177 306 178 308 180 315 180 318 184 314 188 310 191 303 194 303 198 298 198 299 196 298 198 296 200 295 201 273 201 270 200 266 199 263 198 260 197 252 193 250 191 247 190 232 175 230 174 245 189 248 191 251 193 259 197 262 198 265 199 269 200 272 201 295 201 298 200 302 199 305 198 308 197 311 196 317 193 319 191 322 190 325 188 337 176 340 172 341 170 341 168 340 166 " style="stroke:gray;fill:none"/><path d="M328 167 333 168 328 173 326 173 321 172 317 170 321 168 324 169 " style="stroke:gray;fill:none"/><path d="M352 163 350 165 348 168 348 170 347 172 345 175 343 178 339 182 337 184 330 191 324 196 320 198 319 201 317 204 312 203 310 203 306 205 304 206 298 203 298 205 304 206 301 208 297 208 295 209 294 211 295 213 297 215 301 217 303 218 301 219 301 221 303 222 301 220 303 218 311 226 313 227 316 228 321 227 324 227 328 229 331 229 333 228 336 226 338 224 341 220 344 219 349 219 352 219 354 217 361 211 361 209 365 202 366 199 367 196 367 181 366 177 357 163 " style="stroke:gray;fill:none"/><path d="M300 208 302 209 304 211 309 212 314 212 317 215 319 217 320 220 321 223 320 227 316 228 313 227 304 218 299 216 294 211 " style="stroke:gray;fill:none"/><path d="M353 163 356 163 358 164 360 166 362 169 366 177 367 181 367 196 366 199 365 202 361 210 353 218 349 219 344 219 341 220 339 221 337 224 336 222 333 222 325 215 332 222 335 222 337 224 334 227 331 229 328 229 322 226 321 223 320 220 319 219 319 216 316 213 314 212 308 213 306 212 304 210 304 207 307 204 310 203 312 203 314 202 318 203 318 207 319 205 321 207 320 205 318 202 320 199 322 197 325 195 326 195 331 191 339 184 342 180 344 177 346 174 348 169 350 166 " style="stroke:gray;fill:none"/><path d="M339 163 " style="stroke:gray;fill:none"/><path d="M336 163 " style="stroke:gray;fill:none"/><path d="M333 164 " style="stroke:gray;fill:none"/><path d="M248 163 " style="stroke:gray;fill:none"/><path d="M208 163 " style="stroke:gray;fill:none"/><path d="M313 161 315 161 " style="stroke:gray;fill:none"/><path d="M164 153 " style="stroke:gray;fill:none"/><path d="M287 150 287 152 " style="stroke:gray;fill:none"/><path d="M275 150 275 152 " style="stroke:gray;fill:none"/><path d="M247 150 " style="stroke:gray;fill:none"/><path d="M245 150 " style="stroke:gray;fill:none"/><path d="M300 149 300 151 " style="stroke:gray;fill:none"/><path d="M292 149 292 151 " style="stroke:gray;fill:none"/><path d="M187 149 " style="stroke:gray;fill:none"/><path d="M305 148 305 150 " style="stroke:gray;fill:none"/><path d="M323 148 " style="stroke:gray;fill:none"/><path d="M335 147 " style="stroke:gray;fill:none"/><path d="M329 147 " style="stroke:gray;fill:none"/><path d="M259 146 271 146 " style="stroke:gray;fill:none"/><path d="M337 146 " style="stroke:gray;fill:none"/><path d="M287 145 " style="stroke:gray;fill:none"/><path d="M187 144 187 146 " style="stroke:gray;fill:none"/><path d="M5 144 3 145 5 148 7 145 " style="stroke:gray;fill:none"/><path d="M5 144 7 146 5 148 3 146 " style="stroke:gray;fill:none"/><path d="M298 144 301 142 " style="stroke:gray;fill:none"/><path d="M171 139 169 143 171 141 " style="stroke:gray;fill:none"/><path d="M206 138 207 140 " style="stroke:gray;fill:none"/><path d="M179 137 " style="stroke:gray;fill:none"/><path d="M341 134 340 137 338 139 336 140 332 140 330 141 332 140 337 140 339 139 342 139 " style="stroke:gray;fill:none"/><path d="M247 134 " style="stroke:gray;fill:none"/><path d="M348 132 347 136 " style="stroke:gray;fill:none"/><path d="M363 131 " style="stroke:gray;fill:none"/><path d="M360 128 358 129 357 132 362 136 364 138 364 140 360 144 356 145 353 146 349 147 345 148 339 149 333 150 327 151 317 152 306 153 293 154 276 155 240 155 226 154 223 153 220 153 218 153 215 151 211 151 208 150 205 147 205 145 207 143 211 140 210 135 206 135 199 139 197 139 193 142 192 144 192 151 195 154 201 157 204 158 207 159 211 160 215 161 221 162 226 163 235 164 243 165 261 166 282 166 299 165 310 164 313 164 315 164 318 163 319 162 325 161 330 161 335 160 339 159 344 158 348 157 352 156 355 155 358 153 360 153 363 152 370 148 372 148 377 143 378 141 378 138 377 136 373 132 371 131 369 131 366 129 363 128 " style="stroke:gray;fill:none"/><path d="M360 128 363 128 366 129 369 131 371 131 378 138 378 141 371 148 369 148 365 150 363 152 359 153 357 153 355 155 352 156 348 156 345 157 344 158 339 159 334 160 330 161 324 161 319 162 316 163 315 164 313 164 310 164 299 165 282 166 261 166 243 165 235 164 226 163 221 162 215 161 211 160 207 159 204 158 196 154 192 150 192 145 195 142 198 139 206 135 209 135 211 137 211 139 206 143 204 145 205 147 206 149 211 151 215 151 218 153 220 153 223 153 226 154 240 155 276 155 293 154 306 153 317 152 327 151 333 150 339 149 345 148 349 147 354 146 357 145 360 144 362 143 365 140 363 136 357 131 " style="stroke:gray;fill:none"/><path d="M341 126 341 128 " style="stroke:gray;fill:none"/><path d="M245 126 " style="stroke:gray;fill:none"/><path d="M422 125 420 128 422 129 424 127 " style="stroke:gray;fill:none"/><path d="M422 125 424 127 422 129 420 127 " style="stroke:gray;fill:none"/><path d="M347 125 347 129 " style="stroke:gray;fill:none"/><path d="M193 125 190 126 187 127 185 128 183 129 185 128 187 127 190 126 " style="stroke:gray;fill:none"/><path d="M341 124 " style="stroke:gray;fill:none"/><path d="M200 124 " style="stroke:gray;fill:none"/><path d="M197 124 197 126 195 126 193 128 191 129 189 129 186 131 182 131 180 132 175 137 173 138 173 142 169 146 167 146 166 149 166 155 164 157 163 161 163 167 164 170 165 172 167 174 169 178 172 179 175 182 176 184 178 185 182 184 186 185 194 184 197 183 198 182 201 181 203 182 207 182 209 186 212 185 217 187 217 188 221 188 217 188 218 185 216 186 213 186 211 185 208 183 206 181 201 181 197 182 194 184 186 185 183 185 175 183 174 180 171 179 168 176 166 173 164 170 163 166 163 162 164 158 166 155 166 150 168 148 170 146 172 144 174 140 175 137 177 137 180 134 181 132 183 131 186 131 189 129 191 129 196 126 202 125 204 127 203 130 197 133 195 133 191 135 186 140 185 142 184 145 184 149 186 152 186 154 191 159 197 162 200 163 203 164 206 165 209 165 213 166 217 171 215 173 214 175 214 178 215 180 217 182 219 183 223 181 225 183 221 184 225 183 223 181 221 177 222 175 221 173 219 173 221 177 219 177 217 175 219 178 217 182 215 180 214 178 214 175 217 172 217 169 214 166 210 165 207 165 204 164 201 163 198 162 192 159 186 153 186 151 184 149 184 145 185 142 192 135 198 132 200 132 203 130 208 130 210 129 209 124 204 124 208 124 210 126 209 129 206 130 204 128 204 126 202 125 199 126 " style="stroke:gray;fill:none"/><path d="M219 183 " style="stroke:gray;fill:none"/><path d="M220 177 222 181 219 181 " style="stroke:gray;fill:none"/><path d="M195 123 " style="stroke:gray;fill:none"/><path d="M346 120 346 122 " style="stroke:gray;fill:none"/><path d="M341 113 " style="stroke:gray;fill:none"/><path d="M338 104 " style="stroke:gray;fill:none"/><path d="M246 104 244 106 243 108 243 110 246 115 245 120 248 116 270 127 272 127 279 131 282 132 284 132 289 135 292 136 294 136 297 138 299 138 302 140 304 140 308 142 310 143 308 142 304 140 302 140 299 138 297 138 294 136 292 136 289 135 284 132 282 132 279 131 272 127 270 127 250 117 247 115 244 112 243 110 243 108 249 105 258 109 260 111 270 116 272 116 281 121 283 121 286 123 289 124 291 124 296 127 298 127 301 128 306 131 308 131 311 133 313 133 320 137 322 137 324 138 326 140 326 142 326 139 324 138 322 137 320 137 313 133 311 133 308 131 306 131 301 128 299 128 296 127 291 124 289 124 286 123 283 121 281 121 272 116 270 116 262 112 260 110 248 104 " style="stroke:gray;fill:none"/><path d="M197 101 " style="stroke:gray;fill:none"/><path d="M197 99 " style="stroke:gray;fill:none"/><path d="M335 98 333 99 336 100 " style="stroke:gray;fill:none"/><path d="M333 96 " style="stroke:gray;fill:none"/><path d="M192 95 192 97 " style="stroke:gray;fill:none"/><path d="M327 90 328 93 329 96 330 100 334 103 330 99 330 96 328 93 " style="stroke:gray;fill:none"/><path d="M158 88 156 90 155 92 155 95 157 95 161 91 160 88 " style="stroke:gray;fill:none"/><path d="M161 89 160 92 156 95 156 91 " style="stroke:gray;fill:none"/><path d="M323 87 " style="stroke:gray;fill:none"/><path d="M193 87 197 87 " style="stroke:gray;fill:none"/><path d="M321 86 " style="stroke:gray;fill:none"/><path d="M180 86 " style="stroke:gray;fill:none"/><path d="M159 86 164 86 167 88 171 91 174 93 178 96 182 99 188 104 194 109 199 114 200 116 197 119 195 120 192 120 188 121 180 125 177 127 174 129 167 136 165 139 165 140 160 145 158 145 154 141 152 138 148 130 147 126 146 122 146 112 147 108 148 104 149 101 152 95 153 93 152 96 149 101 148 104 147 108 146 112 146 122 147 126 148 130 153 140 155 143 157 145 160 145 162 144 164 142 166 139 166 138 175 129 179 126 182 125 184 123 188 121 191 121 195 120 197 119 199 118 200 116 199 113 195 109 189 104 183 99 180 97 179 97 175 93 172 91 169 89 166 87 164 86 " style="stroke:gray;fill:none"/><path d="M369 85 367 87 369 89 371 87 " style="stroke:gray;fill:none"/><path d="M369 85 371 87 369 89 367 87 " style="stroke:gray;fill:none"/><path d="M316 83 " style="stroke:gray;fill:none"/><path d="M198 81 198 84 " style="stroke:gray;fill:none"/><path d="M261 78 " style="stroke:gray;fill:none"/><path d="M259 78 " style="stroke:gray;fill:none"/><path d="M252 78 250 79 248 81 245 83 244 83 232 95 229 99 227 102 224 108 223 111 222 114 222 116 220 119 219 124 218 132 218 141 223 147 226 148 241 149 241 152 241 150 243 148 248 148 241 149 226 148 222 146 220 144 218 141 218 132 219 125 220 120 222 117 222 115 223 112 224 109 227 103 229 100 232 96 245 83 248 81 249 81 " style="stroke:gray;fill:none"/><path d="M307 77 " style="stroke:gray;fill:none"/><path d="M264 77 " style="stroke:gray;fill:none"/><path d="M299 75 301 75 304 76 302 76 " style="stroke:gray;fill:none"/><path d="M297 74 " style="stroke:gray;fill:none"/><path d="M271 75 269 75 267 77 266 79 264 79 266 79 270 75 273 74 " style="stroke:gray;fill:none"/><path d="M291 73 " style="stroke:gray;fill:none"/><path d="M280 73 " style="stroke:gray;fill:none"/><path d="M185 72 182 74 181 76 182 78 184 80 187 82 193 84 195 84 196 80 195 77 189 72 " style="stroke:gray;fill:none"/><path d="M185 72 189 72 191 73 195 77 196 80 194 84 192 85 189 82 186 80 185 80 181 76 " style="stroke:gray;fill:none"/><path d="M279 70 271 71 267 72 264 74 262 74 259 76 257 76 254 79 249 85 248 87 247 90 246 94 246 96 245 99 243 102 243 104 241 107 241 112 242 116 243 117 243 128 244 132 245 136 246 139 247 142 248 144 251 147 254 148 274 147 285 147 287 148 290 146 292 146 300 147 311 146 322 145 333 144 338 143 342 142 345 141 348 140 350 138 350 124 349 120 347 117 347 115 346 112 345 109 343 105 341 103 339 98 337 95 326 84 323 83 320 80 317 78 313 76 310 76 308 74 305 73 301 72 298 71 292 70 " style="stroke:gray;fill:none"/><path d="M331 90 333 92 330 92 " style="stroke:gray;fill:none"/><path d="M279 70 292 70 298 71 301 72 304 73 307 74 310 76 312 76 316 78 319 80 322 83 325 84 331 90 331 93 333 92 337 96 339 99 341 104 344 107 345 109 345 112 347 115 347 117 349 120 350 124 350 137 347 140 345 141 342 142 338 143 333 144 322 145 311 146 300 147 292 146 290 146 287 148 285 147 274 147 254 148 250 146 247 142 246 139 245 136 245 132 244 129 243 128 243 117 242 113 241 112 241 107 243 104 243 102 245 100 246 96 246 94 247 90 248 87 250 84 252 86 252 90 250 93 248 96 247 99 247 102 247 99 248 96 250 94 250 92 255 90 257 90 260 91 263 93 265 93 268 94 271 95 274 96 277 97 280 99 283 100 286 100 289 101 292 103 295 104 298 104 301 105 304 106 307 107 310 108 313 109 316 110 319 111 322 112 325 113 328 114 331 115 334 116 337 117 343 122 344 124 344 130 343 134 343 136 345 138 343 136 343 134 344 130 344 124 342 120 343 118 342 116 339 116 341 116 342 120 340 119 337 117 334 116 331 115 328 114 325 113 322 112 319 111 316 110 313 109 310 108 307 107 304 106 302 106 299 105 295 104 292 103 289 101 286 100 283 100 280 99 277 97 275 97 272 96 269 95 266 94 263 93 260 91 258 91 255 90 252 87 251 84 254 81 255 79 259 80 264 83 267 84 270 85 273 86 276 87 279 88 282 89 285 90 288 91 291 92 294 93 297 94 300 95 303 96 306 97 309 98 312 99 315 100 318 101 321 102 324 103 327 104 330 105 333 106 336 105 338 107 339 110 340 108 340 106 339 109 338 106 336 105 333 106 330 105 327 104 324 103 321 102 318 101 315 100 312 99 309 98 306 97 303 96 300 95 297 94 294 93 291 92 288 91 285 90 282 89 279 88 276 87 273 86 270 85 267 84 264 83 259 80 255 79 258 76 262 74 264 74 267 72 271 71 " style="stroke:gray;fill:none"/><path d="M150 70 147 73 146 75 147 77 148 79 153 79 156 76 158 76 162 78 164 80 166 80 171 84 175 87 179 90 183 93 187 96 192 100 198 105 204 111 210 116 214 116 214 111 204 101 197 95 193 92 189 89 185 86 182 84 179 82 177 81 175 81 173 80 171 78 163 74 161 74 156 71 153 70 " style="stroke:gray;fill:none"/><path d="M151 70 153 70 156 71 161 74 163 74 167 76 169 78 178 82 181 84 184 86 188 89 192 92 196 95 203 101 210 108 208 109 214 112 215 114 213 116 211 116 207 112 209 111 207 112 205 111 198 105 195 100 192 100 187 96 183 93 180 90 176 87 172 84 168 81 165 80 163 78 161 77 158 76 155 76 152 79 149 79 147 77 146 75 " style="stroke:gray;fill:none"/><path d="M64 60 62 62 64 64 66 62 " style="stroke:gray;fill:none"/><path d="M64 60 66 62 64 64 62 62 " style="stroke:gray;fill:none"/><path d="M258 33 262 37 271 45 273 48 273 50 275 52 277 56 278 58 276 55 271 44 265 38 " style="stroke:gray;fill:none"/><path d="M236 25 232 26 229 27 226 28 221 31 219 31 217 32 213 35 208 40 206 43 201 53 200 56 199 60 199 74 200 78 202 81 202 84 204 86 206 91 209 95 213 99 217 101 220 101 222 100 224 98 226 95 226 94 232 87 235 84 240 80 244 77 247 75 250 73 258 69 261 68 264 67 267 66 271 65 274 65 279 64 281 62 281 58 281 56 280 52 278 49 278 47 276 44 273 40 267 34 264 32 254 27 251 26 247 25 " style="stroke:gray;fill:none"/><path d="M236 25 247 25 251 26 254 27 256 28 258 29 258 31 260 30 262 31 266 34 273 41 276 45 278 48 280 52 281 56 281 58 282 60 278 64 274 65 270 66 267 66 264 67 261 68 258 69 246 75 243 77 239 80 234 84 232 86 227 92 225 95 225 96 220 101 217 101 214 99 209 94 206 90 205 87 203 85 202 83 202 81 200 78 199 74 199 60 200 56 201 53 204 47 206 44 208 41 214 35 218 32 226 28 229 27 232 26 " style="stroke:gray;fill:none"/><path d="M338 25 339 29 343 28 343 25 341 24 " style="stroke:gray;fill:none"/><path d="M341 24 343 26 342 29 340 29 338 26 " style="stroke:gray;fill:none"/></svg>