<svg width="429px" height="547px" xmlns="http://www.w3.org/2000/svg"><path d="M143 491 141 492 140 494 140 496 143 502 145 505 147 508 150 510 151 513 157 519 161 522 165 524 171 524 175 520 176 517 177 514 177 504 176 502 175 500 172 500 168 504 166 505 157 505 153 503 151 504 149 506 148 508 146 506 144 503 142 500 140 496 140 494 144 491 150 497 152 498 155 499 162 499 166 498 169 496 171 496 173 497 175 498 171 496 169 496 166 498 162 499 155 499 152 498 145 491 " style="stroke:gray;fill:none"/><path d="M172 500 175 501 177 504 177 514 176 517 175 519 170 524 166 524 162 522 158 519 151 512 149 509 149 507 153 503 157 505 166 505 170 503 " style="stroke:gray;fill:none"/><path d="M161 480 159 484 159 489 161 491 159 488 159 485 161 481 168 474 " style="stroke:gray;fill:none"/><path d="M98 474 93 479 93 481 91 483 90 485 89 488 88 491 88 502 89 504 91 506 93 507 97 507 101 506 104 505 118 498 121 496 127 490 129 486 129 484 125 480 115 480 111 479 109 478 106 475 104 475 102 474 " style="stroke:gray;fill:none"/><path d="M94 481 97 484 101 489 105 490 114 490 117 489 121 487 123 486 126 490 120 496 117 498 103 505 100 506 97 507 94 507 92 506 89 503 88 501 88 491 89 488 90 485 " style="stroke:gray;fill:none"/><path d="M102 474 105 475 107 477 111 479 115 480 125 480 129 484 129 486 127 489 121 487 117 489 114 490 105 490 102 489 96 482 93 480 " style="stroke:gray;fill:none"/><path d="M29 473 27 476 31 476 " style="stroke:gray;fill:none"/><path d="M29 473 31 475 27 475 " style="stroke:gray;fill:none"/><path d="M179 459 176 460 173 463 173 467 176 470 178 472 181 473 186 473 189 470 189 466 188 464 184 460 " style="stroke:gray;fill:none"/><path d="M179 459 183 460 189 466 189 469 185 473 181 473 179 472 176 470 174 468 173 466 173 464 177 460 " style="stroke:gray;fill:none"/><path d="M120 457 122 459 122 466 121 469 118 472 121 470 122 466 " style="stroke:gray;fill:none"/><path d="M102 447 102 460 103 464 104 466 110 472 112 473 115 474 122 474 125 473 127 471 129 468 130 464 131 459 131 455 130 453 125 453 118 454 115 452 113 452 110 450 107 446 " style="stroke:gray;fill:none"/><path d="M104 446 107 447 109 450 112 452 115 453 118 454 125 453 130 454 131 456 131 459 130 464 129 467 127 470 124 473 122 474 115 474 112 473 104 465 103 463 102 460 102 448 " style="stroke:gray;fill:none"/><path d="M124 441 122 443 120 446 122 445 " style="stroke:gray;fill:none"/><path d="M355 437 353 438 356 441 " style="stroke:gray;fill:none"/><path d="M355 437 355 441 353 439 " style="stroke:gray;fill:none"/><path d="M113 434 110 437 110 442 114 446 116 447 119 448 124 448 126 446 127 444 127 441 126 439 122 435 120 434 " style="stroke:gray;fill:none"/><path d="M114 434 120 434 127 441 127 443 126 445 123 448 119 448 116 447 110 441 110 438 " style="stroke:gray;fill:none"/><path d="M179 429 175 430 171 434 169 438 168 443 168 452 169 454 171 454 168 451 168 443 169 439 171 435 176 430 180 429 187 429 190 430 194 432 197 436 197 434 195 432 191 430 188 429 " style="stroke:gray;fill:none"/><path d="M217 388 216 390 216 394 215 397 214 400 213 401 212 405 211 409 210 413 209 417 208 420 207 424 207 427 209 429 211 429 213 427 214 424 215 421 216 416 216 412 217 408 218 407 219 403 220 398 220 393 221 391 222 389 220 387 " style="stroke:gray;fill:none"/><path d="M218 393 220 395 220 398 219 403 218 407 217 411 216 412 216 416 215 421 214 424 213 426 210 429 207 426 207 424 208 420 209 417 210 413 211 409 212 405 213 401 214 398 215 395 " style="stroke:gray;fill:none"/><path d="M220 387 221 392 219 394 217 393 216 390 " style="stroke:gray;fill:none"/><path d="M107 383 106 385 105 390 105 399 107 399 110 397 112 393 112 385 110 383 " style="stroke:gray;fill:none"/><path d="M108 383 110 383 112 385 112 392 110 396 107 399 105 397 105 390 106 385 " style="stroke:gray;fill:none"/><path d="M137 377 134 380 132 383 132 391 133 393 135 396 142 403 146 406 156 411 159 412 163 413 167 414 184 414 188 413 192 412 195 410 197 410 200 409 202 408 203 406 201 408 199 409 196 410 194 410 191 412 188 413 184 414 168 414 164 413 160 412 157 411 147 406 143 403 135 395 133 392 132 390 132 384 134 381 139 377 " style="stroke:gray;fill:none"/><path d="M187 377 " style="stroke:gray;fill:none"/><path d="M26 368 25 370 25 373 27 375 32 374 33 372 33 370 31 368 " style="stroke:gray;fill:none"/><path d="M29 367 33 371 32 373 30 375 28 375 26 369 " style="stroke:gray;fill:none"/><path d="M188 358 186 359 185 361 186 365 185 361 188 358 190 360 190 362 188 365 190 363 190 359 " style="stroke:gray;fill:none"/><path d="M191 352 178 353 175 354 171 358 171 365 169 371 165 371 159 370 156 368 152 368 150 366 150 364 153 362 153 360 150 357 145 358 143 363 143 366 143 368 147 372 153 375 155 376 153 375 149 373 143 367 143 363 144 360 147 357 150 357 153 361 150 364 150 366 152 368 156 368 159 370 157 372 157 375 159 377 161 378 165 379 169 379 172 379 183 379 185 378 185 373 184 371 187 368 188 372 189 374 193 375 196 372 197 370 198 366 199 360 199 356 198 354 194 352 " style="stroke:gray;fill:none"/><path d="M191 352 194 352 196 353 198 355 199 357 199 360 198 366 197 370 191 375 188 372 185 369 185 373 184 378 182 379 172 379 169 379 165 379 162 378 160 377 157 374 157 372 159 370 164 370 170 371 170 366 171 359 176 354 178 353 " style="stroke:gray;fill:none"/><path d="M331 338 330 340 334 341 " style="stroke:gray;fill:none"/><path d="M332 338 334 340 330 340 " style="stroke:gray;fill:none"/><path d="M104 330 102 332 98 337 96 340 94 344 93 348 92 352 92 356 93 360 94 363 95 365 101 371 104 372 108 373 112 373 115 373 117 373 119 372 122 369 122 367 120 363 118 363 111 356 110 353 105 348 105 346 107 344 108 342 107 330 " style="stroke:gray;fill:none"/><path d="M106 330 108 332 108 342 106 344 105 346 105 348 106 350 110 354 111 357 117 363 119 363 121 365 122 368 117 373 115 373 112 373 108 373 104 372 102 371 94 363 93 360 92 356 92 352 93 348 94 345 96 341 98 338 102 333 " style="stroke:gray;fill:none"/><path d="M244 327 239 328 236 329 226 334 223 336 220 338 209 350 221 338 224 336 227 334 237 329 240 328 244 327 246 327 248 329 250 331 250 329 248 328 246 327 " style="stroke:gray;fill:none"/><path d="M127 326 121 327 118 328 114 332 114 348 115 352 116 354 120 358 122 359 126 360 132 360 135 359 138 357 141 354 142 352 143 349 141 347 138 348 135 345 135 343 136 339 137 334 137 331 137 329 135 327 132 326 " style="stroke:gray;fill:none"/><path d="M127 326 132 326 134 327 137 330 137 334 137 338 136 342 135 343 135 346 137 348 140 348 141 353 136 358 132 360 126 360 123 359 121 358 115 352 114 348 114 333 119 328 121 327 " style="stroke:gray;fill:none"/><path d="M201 316 201 318 196 323 193 325 190 327 184 330 182 330 180 331 182 331 185 330 191 327 194 325 197 323 203 318 " style="stroke:gray;fill:none"/><path d="M233 315 224 324 220 327 217 329 214 331 208 334 206 334 203 336 199 337 195 338 190 339 184 340 162 339 154 340 154 343 156 345 158 346 163 347 194 346 203 346 206 349 206 354 205 359 204 365 203 371 202 374 200 377 197 380 194 382 191 383 188 384 184 385 165 385 161 384 157 383 154 382 144 377 134 367 131 367 128 370 123 376 122 376 119 379 117 382 118 391 118 394 115 400 113 403 111 405 110 407 110 409 108 411 107 414 106 417 105 421 104 425 104 428 105 430 109 431 112 428 116 427 118 427 121 428 125 430 130 435 132 438 132 439 137 440 139 438 141 435 144 431 145 429 146 427 144 423 147 420 149 421 151 421 154 423 157 424 159 424 162 424 160 427 158 432 157 435 157 450 156 455 155 459 154 463 151 468 151 470 148 475 147 478 147 484 149 488 153 492 156 493 162 493 165 492 171 489 175 486 178 483 178 480 175 477 168 470 167 468 167 462 168 460 172 456 175 454 178 454 181 454 184 454 186 455 188 457 192 457 195 454 196 451 197 448 198 444 199 440 200 435 201 431 201 424 202 420 203 417 204 413 205 412 205 409 206 404 208 401 209 397 209 394 210 390 211 387 213 383 219 377 233 364 238 358 241 354 243 351 244 348 246 346 252 334 253 331 253 327 250 324 245 322 242 320 237 315 " style="stroke:gray;fill:none"/><path d="M234 315 236 315 241 320 244 322 246 323 248 323 253 328 253 331 251 334 251 336 247 344 244 347 243 350 241 353 238 357 233 363 218 377 213 382 212 384 211 387 210 390 209 394 209 397 208 401 206 404 205 409 205 412 204 416 203 417 202 420 201 424 201 431 200 435 199 440 198 444 197 448 196 451 195 453 191 457 189 457 184 454 181 454 178 454 175 454 171 456 168 459 167 461 167 468 168 471 174 476 178 480 178 482 174 486 169 490 165 492 162 493 156 493 154 492 149 487 147 484 147 478 148 475 153 466 154 463 155 459 156 455 157 450 157 435 158 433 163 429 162 424 157 424 154 423 147 419 143 419 143 421 145 424 146 427 144 429 141 433 141 434 139 437 136 440 134 440 132 438 130 435 127 431 131 429 132 427 132 420 131 417 129 413 126 410 123 408 120 407 114 407 119 407 122 408 125 410 129 414 131 418 132 421 132 426 131 428 129 430 127 431 125 430 121 428 118 427 116 427 112 428 110 429 107 431 104 428 104 425 105 421 106 417 107 414 108 412 110 410 110 408 112 404 115 401 117 397 118 394 118 391 117 383 118 381 124 376 128 372 133 367 143 377 145 377 154 382 157 383 161 384 165 385 184 385 188 384 191 383 194 382 198 380 200 378 202 374 203 371 204 365 204 360 205 356 206 355 206 348 204 346 194 346 163 347 159 346 157 345 154 341 156 339 162 339 184 340 190 339 195 338 199 337 203 336 206 335 218 329 221 327 225 324 " style="stroke:gray;fill:none"/><path d="M173 315 175 315 " style="stroke:gray;fill:none"/><path d="M141 314 " style="stroke:gray;fill:none"/><path d="M188 311 177 312 176 313 157 313 155 314 153 315 153 313 152 315 154 315 157 313 177 312 181 312 183 314 187 314 188 311 193 312 189 313 193 313 193 311 " style="stroke:gray;fill:none"/><path d="M182 313 187 313 " style="stroke:gray;fill:none"/><path d="M133 308 139 313 " style="stroke:gray;fill:none"/><path d="M133 306 139 311 142 312 143 314 142 312 139 310 138 310 " style="stroke:gray;fill:none"/><path d="M217 301 215 302 208 306 205 307 203 307 200 309 197 310 195 310 197 312 200 311 201 308 203 307 206 306 208 306 211 307 213 306 213 304 215 302 " style="stroke:gray;fill:none"/><path d="M199 311 " style="stroke:gray;fill:none"/><path d="M209 306 212 306 " style="stroke:gray;fill:none"/><path d="M212 306 " style="stroke:gray;fill:none"/><path d="M229 301 226 302 224 304 221 305 219 307 215 309 213 309 210 311 207 312 204 313 201 314 198 315 194 316 190 317 184 318 175 319 151 319 142 318 141 317 138 318 136 322 134 321 131 318 133 316 136 316 133 316 131 318 132 320 137 321 142 325 147 330 149 331 153 332 157 333 162 334 186 334 191 333 195 332 198 331 201 330 204 329 207 327 209 327 213 325 216 323 220 320 228 312 231 308 233 304 233 302 231 300 " style="stroke:gray;fill:none"/><path d="M228 301 231 301 233 304 231 306 229 309 229 310 219 320 215 323 212 325 204 329 201 330 198 331 195 332 191 333 186 334 162 334 157 333 153 332 149 331 142 325 137 320 138 318 141 317 150 318 151 319 175 319 184 318 190 317 194 316 198 315 201 314 204 313 207 312 210 311 213 309 215 309 223 305 225 303 " style="stroke:gray;fill:none"/><path d="M246 291 244 293 244 297 247 300 251 300 252 300 253 295 249 291 " style="stroke:gray;fill:none"/><path d="M248 291 253 296 253 298 249 301 244 296 244 294 " style="stroke:gray;fill:none"/><path d="M126 283 126 286 128 289 128 291 134 302 135 304 134 302 128 291 128 289 126 286 " style="stroke:gray;fill:none"/><path d="M260 281 257 282 255 284 255 287 256 290 258 292 261 298 261 301 260 303 256 307 246 306 244 307 242 309 242 311 247 316 249 317 252 318 255 319 261 319 264 318 267 317 269 316 274 311 277 307 278 304 279 300 279 294 278 291 277 288 273 284 269 282 266 281 " style="stroke:gray;fill:none"/><path d="M260 281 266 281 269 282 272 284 277 289 278 291 279 294 279 300 278 304 277 306 274 310 268 316 264 318 261 319 255 319 252 318 248 316 242 310 246 306 257 307 260 304 261 301 261 298 260 295 258 291 256 289 255 287 255 285 258 282 " style="stroke:gray;fill:none"/><path d="M125 279 " style="stroke:gray;fill:none"/><path d="M120 276 120 278 121 275 123 279 122 282 121 280 121 282 122 284 124 285 124 282 123 279 122 275 " style="stroke:gray;fill:none"/><path d="M123 281 123 284 " style="stroke:gray;fill:none"/><path d="M124 274 124 276 " style="stroke:gray;fill:none"/><path d="M138 272 136 274 137 281 144 280 145 278 145 275 142 272 " style="stroke:gray;fill:none"/><path d="M139 272 141 272 145 276 145 278 142 281 138 281 136 279 136 275 " style="stroke:gray;fill:none"/><path d="M120 268 119 271 122 270 " style="stroke:gray;fill:none"/><path d="M97 262 96 264 95 268 95 278 96 284 97 288 98 291 99 293 101 295 104 298 107 297 108 295 107 292 106 288 105 287 104 283 103 278 103 267 102 262 " style="stroke:gray;fill:none"/><path d="M97 263 102 263 103 267 103 278 104 283 105 287 106 291 107 292 108 295 105 298 103 297 101 295 99 292 97 288 96 284 95 278 95 268 96 265 " style="stroke:gray;fill:none"/><path d="M111 251 109 255 108 259 108 265 109 268 112 271 113 275 112 278 114 281 114 285 112 287 112 289 113 292 114 295 115 298 118 304 122 308 128 307 129 305 127 302 123 294 123 292 122 289 121 287 117 283 116 281 115 274 115 269 117 267 116 259 116 256 116 253 114 251 " style="stroke:gray;fill:none"/><path d="M115 270 115 275 116 276 116 282 117 284 122 289 123 292 124 295 124 297 127 302 129 305 126 308 123 308 118 303 116 300 115 298 114 295 113 292 113 290 112 288 114 286 114 280 112 277 113 275 113 273 " style="stroke:gray;fill:none"/><path d="M113 250 116 256 116 259 117 266 114 269 112 270 109 267 108 265 108 259 109 256 111 252 " style="stroke:gray;fill:none"/><path d="M122 249 122 266 " style="stroke:gray;fill:none"/><path d="M28 243 26 244 26 246 29 246 " style="stroke:gray;fill:none"/><path d="M28 243 26 245 " style="stroke:gray;fill:none"/><path d="M133 237 " style="stroke:gray;fill:none"/><path d="M123 238 " style="stroke:gray;fill:none"/><path d="M242 237 242 239 243 242 244 245 245 248 246 249 247 253 248 258 249 273 251 272 252 274 254 271 255 267 255 258 254 250 253 246 252 242 251 240 247 236 " style="stroke:gray;fill:none"/><path d="M244 236 246 236 251 241 252 243 253 246 254 250 255 258 255 267 254 270 252 272 250 273 248 271 248 258 247 253 246 249 245 246 244 245 243 242 243 240 242 238 " style="stroke:gray;fill:none"/><path d="M135 236 " style="stroke:gray;fill:none"/><path d="M221 235 223 238 224 241 225 244 226 249 226 254 227 258 228 259 229 263 229 269 228 282 227 287 226 288 226 291 225 293 226 295 225 297 224 295 223 297 220 299 219 301 221 301 226 297 227 294 227 292 226 288 227 284 228 283 229 269 229 263 228 259 227 255 226 254 226 249 225 244 224 241 223 238 222 237 " style="stroke:gray;fill:none"/><path d="M224 296 225 298 220 300 " style="stroke:gray;fill:none"/><path d="M230 234 228 235 227 238 231 234 233 236 234 239 236 241 236 243 238 247 239 249 235 252 231 248 230 244 229 239 231 237 229 239 230 245 231 249 235 253 236 257 235 263 235 265 237 268 234 271 233 281 233 283 235 286 237 287 234 289 232 287 232 285 232 288 234 289 237 288 237 286 239 285 240 283 241 280 241 271 240 269 236 267 235 265 235 263 237 261 238 266 238 254 238 251 239 249 239 247 236 242 236 240 234 237 232 234 " style="stroke:gray;fill:none"/><path d="M238 268 240 270 241 272 241 279 240 282 238 285 236 286 234 284 233 282 234 272 " style="stroke:gray;fill:none"/><path d="M237 257 237 261 " style="stroke:gray;fill:none"/><path d="M236 252 238 254 235 256 234 254 " style="stroke:gray;fill:none"/><path d="M155 234 152 234 149 235 147 236 143 240 142 242 141 245 141 248 141 251 141 253 142 256 143 258 148 263 150 264 162 264 166 262 170 258 171 255 172 252 172 246 171 243 169 239 167 237 164 235 161 234 158 234 " style="stroke:gray;fill:none"/><path d="M155 234 158 234 161 234 165 236 170 241 171 243 172 246 172 252 171 255 170 257 164 263 162 264 150 264 146 260 144 258 142 256 141 253 141 251 141 248 141 245 142 242 149 235 152 234 " style="stroke:gray;fill:none"/><path d="M130 233 128 235 126 236 128 235 " style="stroke:gray;fill:none"/><path d="M132 232 " style="stroke:gray;fill:none"/><path d="M134 231 " style="stroke:gray;fill:none"/><path d="M173 225 165 226 162 228 155 228 151 229 148 231 145 231 142 233 139 234 137 235 139 234 142 233 145 231 148 231 151 229 155 228 162 228 165 226 173 225 187 225 191 226 195 228 198 230 203 235 206 239 209 245 210 249 210 257 211 261 212 262 212 264 210 267 210 269 209 272 207 274 204 274 203 276 202 279 200 281 199 283 201 281 203 276 207 276 205 278 203 281 203 282 199 285 195 291 191 293 189 294 188 297 186 297 180 300 178 302 175 304 171 306 169 306 164 309 161 310 156 311 148 312 145 312 148 312 156 311 161 310 164 309 169 306 171 306 174 305 177 303 179 301 182 299 185 298 188 298 195 298 199 297 203 295 206 293 211 288 213 285 215 281 216 277 216 267 215 265 212 263 211 261 210 257 210 249 209 245 207 242 207 240 205 237 202 233 200 231 197 229 191 226 187 225 " style="stroke:gray;fill:none"/><path d="M211 265 213 264 216 267 216 277 215 281 214 283 212 286 204 294 201 296 199 297 195 298 188 297 189 295 191 293 194 292 197 290 200 287 203 283 205 280 207 277 207 274 209 272 209 270 210 267 " style="stroke:gray;fill:none"/><path d="M155 222 152 223 148 225 150 226 147 227 145 226 144 228 141 228 139 228 137 229 139 228 141 228 144 228 142 230 140 230 137 231 135 233 132 234 129 237 126 238 124 240 122 243 120 247 119 249 118 245 120 242 122 240 119 243 118 245 118 249 120 249 121 246 122 243 128 237 132 234 135 233 137 231 139 231 142 230 144 229 145 227 147 228 150 227 153 225 155 225 159 224 159 222 " style="stroke:gray;fill:none"/><path d="M146 228 " style="stroke:gray;fill:none"/><path d="M152 223 156 224 152 226 149 225 " style="stroke:gray;fill:none"/><path d="M155 223 159 223 " style="stroke:gray;fill:none"/><path d="M161 223 164 223 164 221 " style="stroke:gray;fill:none"/><path d="M161 222 164 222 " style="stroke:gray;fill:none"/><path d="M167 220 166 222 179 221 190 221 194 222 199 223 204 224 208 225 211 226 214 227 219 231 222 231 220 229 218 228 215 227 212 226 214 225 209 223 206 223 199 223 199 222 197 221 195 223 190 221 178 222 176 222 175 220 171 220 170 222 169 220 " style="stroke:gray;fill:none"/><path d="M218 230 220 229 222 231 220 232 " style="stroke:gray;fill:none"/><path d="M218 230 " style="stroke:gray;fill:none"/><path d="M205 224 209 223 213 225 209 226 " style="stroke:gray;fill:none"/><path d="M196 222 199 222 " style="stroke:gray;fill:none"/><path d="M171 221 175 221 " style="stroke:gray;fill:none"/><path d="M168 222 " style="stroke:gray;fill:none"/><path d="M164 202 168 202 172 203 176 204 179 205 185 208 188 210 190 212 190 214 192 212 189 210 186 208 182 206 180 206 177 204 173 203 169 202 " style="stroke:gray;fill:none"/><path d="M322 202 322 205 325 208 328 207 328 204 325 201 " style="stroke:gray;fill:none"/><path d="M325 201 327 203 328 206 324 207 322 203 " style="stroke:gray;fill:none"/><path d="M166 199 162 200 157 201 154 202 151 203 147 204 145 206 143 206 135 210 131 213 127 216 122 221 120 224 118 227 116 231 115 234 115 238 119 238 123 234 126 233 129 230 131 229 133 228 131 229 128 231 125 233 122 235 118 238 115 237 115 234 116 231 117 229 120 225 122 222 128 216 132 213 136 210 139 208 143 206 145 206 148 204 151 203 154 202 157 201 162 200 166 199 187 199 191 200 195 201 198 202 201 204 203 204 207 206 210 208 213 210 217 213 223 219 224 221 219 223 217 223 214 222 211 221 210 220 206 219 202 218 195 218 191 217 190 216 171 216 164 217 159 218 155 219 151 220 148 221 145 222 137 226 135 227 137 226 145 222 148 221 151 220 155 219 159 218 164 217 171 216 190 216 194 217 195 218 202 218 206 219 210 220 213 221 214 222 217 223 219 223 223 223 224 220 223 218 218 213 214 210 211 208 201 203 198 202 195 201 191 200 187 199 " style="stroke:gray;fill:none"/><path d="M250 194 253 196 " style="stroke:gray;fill:none"/><path d="M248 193 " style="stroke:gray;fill:none"/><path d="M361 192 360 194 360 196 361 198 364 199 364 195 363 191 " style="stroke:gray;fill:none"/><path d="M362 191 364 193 364 195 365 197 363 199 360 196 360 194 " style="stroke:gray;fill:none"/><path d="M231 178 233 180 " style="stroke:gray;fill:none"/><path d="M330 171 328 172 325 173 322 172 326 172 328 173 330 171 332 170 " style="stroke:gray;fill:none"/><path d="M300 170 289 171 300 170 304 171 310 170 304 171 " style="stroke:gray;fill:none"/><path d="M232 170 231 172 231 174 232 176 235 180 242 186 244 188 240 188 234 182 238 187 241 189 243 189 246 189 245 191 246 189 248 190 250 192 253 194 255 195 257 195 260 197 256 197 258 198 261 199 264 200 265 201 269 202 273 202 273 200 270 200 265 199 262 198 257 195 255 195 253 194 250 192 246 189 243 187 232 176 231 174 231 172 233 170 245 170 280 172 282 171 286 172 282 171 280 172 245 170 " style="stroke:gray;fill:none"/><path d="M269 201 273 201 " style="stroke:gray;fill:none"/><path d="M264 200 270 200 " style="stroke:gray;fill:none"/><path d="M261 199 265 199 " style="stroke:gray;fill:none"/><path d="M259 198 262 198 " style="stroke:gray;fill:none"/><path d="M335 166 338 166 341 169 340 171 337 175 324 188 321 190 318 192 308 197 304 195 306 193 309 191 312 190 315 188 318 185 318 181 316 180 308 180 306 178 303 178 300 176 298 176 296 173 297 176 300 177 302 177 307 179 297 180 291 179 288 178 285 177 283 174 285 177 288 178 291 179 297 180 316 180 319 183 314 188 310 191 305 193 303 195 305 197 303 198 300 199 299 200 291 201 275 201 275 203 277 201 291 201 299 200 302 199 305 197 308 197 311 196 317 193 319 191 322 190 325 188 337 176 340 172 340 168 340 167 " style="stroke:gray;fill:none"/><path d="M269 166 273 166 " style="stroke:gray;fill:none"/><path d="M231 166 229 167 228 171 228 174 230 176 228 174 228 172 229 168 231 166 239 167 241 167 244 166 247 167 248 168 261 167 266 167 275 168 276 167 281 167 285 169 287 170 285 169 281 167 276 167 267 168 266 167 261 167 248 168 245 167 244 166 242 166 239 167 " style="stroke:gray;fill:none"/><path d="M354 165 354 168 357 171 359 175 359 177 362 182 363 184 364 182 365 180 365 178 363 174 360 170 358 167 357 165 " style="stroke:gray;fill:none"/><path d="M356 165 358 167 359 170 361 172 364 176 365 178 365 180 361 181 359 177 359 175 358 172 357 170 354 167 " style="stroke:gray;fill:none"/><path d="M247 165 258 166 " style="stroke:gray;fill:none"/><path d="M303 164 289 165 288 166 284 166 288 166 302 165 303 164 310 164 " style="stroke:gray;fill:none"/><path d="M315 163 318 163 " style="stroke:gray;fill:none"/><path d="M313 163 " style="stroke:gray;fill:none"/><path d="M327 162 324 163 321 164 320 165 313 165 311 167 313 169 320 169 326 168 331 167 333 166 333 163 331 162 " style="stroke:gray;fill:none"/><path d="M327 162 331 162 333 165 331 167 327 167 321 168 320 169 313 169 311 167 313 165 320 165 323 164 324 163 " style="stroke:gray;fill:none"/><path d="M321 162 " style="stroke:gray;fill:none"/><path d="M281 154 290 154 " style="stroke:gray;fill:none"/><path d="M243 154 270 155 " style="stroke:gray;fill:none"/><path d="M301 153 304 153 " style="stroke:gray;fill:none"/><path d="M265 151 270 151 273 153 278 153 281 151 284 151 281 151 278 153 273 153 270 151 " style="stroke:gray;fill:none"/><path d="M251 151 263 151 " style="stroke:gray;fill:none"/><path d="M231 151 233 151 236 153 240 153 243 151 245 151 243 151 240 153 236 153 233 151 " style="stroke:gray;fill:none"/><path d="M207 150 210 150 214 151 219 152 220 153 227 154 233 154 227 154 220 153 215 152 214 151 210 150 " style="stroke:gray;fill:none"/><path d="M333 149 325 150 324 151 314 152 306 152 314 152 324 151 332 150 333 149 338 149 " style="stroke:gray;fill:none"/><path d="M191 147 192 149 192 151 195 154 203 158 207 159 210 160 214 161 218 162 223 163 232 164 239 164 232 164 223 163 218 162 214 161 210 160 207 159 203 158 199 156 196 154 192 150 " style="stroke:gray;fill:none"/><path d="M305 146 289 147 288 148 264 149 250 149 227 148 226 147 220 147 221 150 227 150 221 147 226 147 249 148 250 149 264 149 288 148 304 147 305 146 310 149 306 149 303 151 301 150 298 152 291 152 288 150 290 151 298 152 301 150 303 151 306 149 310 146 " style="stroke:gray;fill:none"/><path d="M333 145 " style="stroke:gray;fill:none"/><path d="M302 145 " style="stroke:gray;fill:none"/><path d="M207 146 210 147 210 145 " style="stroke:gray;fill:none"/><path d="M207 146 210 146 " style="stroke:gray;fill:none"/><path d="M205 145 205 147 " style="stroke:gray;fill:none"/><path d="M190 145 " style="stroke:gray;fill:none"/><path d="M325 144 313 145 325 144 330 144 " style="stroke:gray;fill:none"/><path d="M3 146 6 148 6 144 " style="stroke:gray;fill:none"/><path d="M5 144 5 148 3 146 " style="stroke:gray;fill:none"/><path d="M188 145 190 143 " style="stroke:gray;fill:none"/><path d="M340 142 332 143 340 142 345 143 345 145 343 147 338 146 335 146 338 146 343 147 345 145 345 142 " style="stroke:gray;fill:none"/><path d="M218 141 219 143 220 145 219 143 " style="stroke:gray;fill:none"/><path d="M191 141 " style="stroke:gray;fill:none"/><path d="M189 141 191 139 " style="stroke:gray;fill:none"/><path d="M206 135 197 140 194 141 193 143 195 141 198 139 206 135 208 135 211 139 208 142 211 140 211 138 210 136 " style="stroke:gray;fill:none"/><path d="M179 136 177 138 181 135 183 134 " style="stroke:gray;fill:none"/><path d="M180 132 177 134 175 138 178 134 181 132 183 132 " style="stroke:gray;fill:none"/><path d="M358 129 358 133 360 135 364 138 364 140 361 143 359 144 355 145 352 146 349 146 347 147 349 146 352 146 355 145 359 144 362 143 364 141 364 138 361 135 358 132 358 130 360 128 362 128 366 129 369 130 371 131 378 138 378 141 371 148 361 153 358 154 355 155 352 156 349 157 345 158 341 159 336 160 332 160 336 160 341 159 345 158 349 157 352 156 355 155 358 154 361 153 366 150 368 150 372 148 377 143 378 141 378 138 377 136 373 132 369 130 366 129 362 128 " style="stroke:gray;fill:none"/><path d="M422 125 420 128 424 128 " style="stroke:gray;fill:none"/><path d="M422 125 424 127 420 127 " style="stroke:gray;fill:none"/><path d="M222 108 222 110 " style="stroke:gray;fill:none"/><path d="M225 102 225 104 224 109 223 112 220 112 219 114 218 116 218 121 217 128 214 131 213 133 213 136 214 138 218 139 219 137 219 134 219 131 219 124 220 120 221 117 222 114 227 104 228 102 227 105 225 107 225 104 " style="stroke:gray;fill:none"/><path d="M223 113 222 116 221 119 220 120 219 124 219 131 219 134 219 137 217 139 214 138 213 136 213 133 214 131 217 128 217 122 218 116 219 114 " style="stroke:gray;fill:none"/><path d="M182 97 182 100 186 103 188 105 195 111 199 113 200 115 199 117 196 119 193 120 196 121 197 119 199 120 200 115 202 115 202 113 201 115 200 112 196 111 190 105 190 103 187 103 183 100 " style="stroke:gray;fill:none"/><path d="M193 120 196 120 " style="stroke:gray;fill:none"/><path d="M198 120 " style="stroke:gray;fill:none"/><path d="M189 105 " style="stroke:gray;fill:none"/><path d="M162 89 156 96 157 94 159 92 161 91 " style="stroke:gray;fill:none"/><path d="M252 87 253 89 255 90 257 90 260 92 262 92 265 93 268 95 271 96 274 97 277 98 280 99 283 100 286 101 289 102 292 103 295 104 298 105 301 106 303 106 306 107 310 108 313 109 316 111 319 112 322 113 325 113 328 115 331 115 334 116 337 117 340 119 342 121 344 125 345 138 344 125 343 122 339 118 337 117 334 116 331 115 328 115 325 113 322 113 319 112 316 111 313 109 310 108 306 107 303 106 301 106 298 105 295 104 292 103 289 102 286 101 283 100 280 99 277 98 274 97 271 96 268 95 265 93 263 93 260 92 257 90 255 90 " style="stroke:gray;fill:none"/><path d="M159 87 156 90 153 94 149 102 148 106 147 110 147 123 148 127 149 131 150 134 152 138 154 141 156 143 158 144 161 144 164 141 168 136 168 135 174 129 178 126 181 125 183 123 187 121 191 120 187 121 179 125 176 127 173 129 168 134 165 138 165 139 160 144 158 144 153 139 151 136 150 134 149 131 148 127 147 123 147 110 148 106 149 102 151 99 152 96 154 96 156 91 160 87 165 87 168 89 171 91 174 94 176 95 178 97 180 95 177 95 175 94 172 91 169 89 166 87 " style="stroke:gray;fill:none"/><path d="M179 97 " style="stroke:gray;fill:none"/><path d="M238 85 234 89 " style="stroke:gray;fill:none"/><path d="M240 86 235 92 233 94 233 91 232 93 230 95 230 100 232 97 234 94 234 93 244 84 " style="stroke:gray;fill:none"/><path d="M229 97 229 100 " style="stroke:gray;fill:none"/><path d="M230 98 " style="stroke:gray;fill:none"/><path d="M232 93 233 95 231 97 230 95 " style="stroke:gray;fill:none"/><path d="M240 84 " style="stroke:gray;fill:none"/><path d="M244 82 " style="stroke:gray;fill:none"/><path d="M326 82 " style="stroke:gray;fill:none"/><path d="M254 80 251 82 250 84 250 86 248 89 248 92 246 95 245 98 244 101 244 105 243 107 243 110 243 112 242 124 243 129 244 133 245 136 246 139 249 145 251 146 248 143 246 139 245 136 244 133 243 129 242 124 245 113 255 119 257 121 259 122 261 122 276 130 279 131 281 131 284 133 286 133 289 135 292 136 294 136 299 139 302 140 304 140 309 143 311 144 309 143 304 140 302 140 299 139 294 136 292 136 289 135 286 133 284 133 281 131 279 131 276 130 261 122 259 122 257 120 248 116 243 111 242 108 244 106 244 101 245 98 246 95 248 92 248 89 250 86 250 84 " style="stroke:gray;fill:none"/><path d="M255 74 " style="stroke:gray;fill:none"/><path d="M311 73 " style="stroke:gray;fill:none"/><path d="M258 73 " style="stroke:gray;fill:none"/><path d="M183 74 183 76 183 79 187 82 187 84 195 83 195 81 197 80 197 78 194 77 191 73 " style="stroke:gray;fill:none"/><path d="M188 84 " style="stroke:gray;fill:none"/><path d="M196 80 " style="stroke:gray;fill:none"/><path d="M185 73 190 73 195 78 195 82 193 84 190 84 189 82 184 79 182 77 183 75 " style="stroke:gray;fill:none"/><path d="M260 72 " style="stroke:gray;fill:none"/><path d="M306 71 309 72 " style="stroke:gray;fill:none"/><path d="M263 71 " style="stroke:gray;fill:none"/><path d="M303 70 " style="stroke:gray;fill:none"/><path d="M275 70 270 71 266 72 262 73 259 75 254 76 251 77 250 80 246 82 248 82 250 80 254 78 255 76 257 75 259 75 262 73 266 72 270 71 275 70 293 70 299 71 303 72 306 73 309 74 312 75 314 77 317 78 321 81 327 87 336 95 338 98 340 102 338 104 335 105 331 105 327 104 324 102 321 101 318 100 315 100 312 99 309 98 306 97 303 96 300 95 297 94 294 93 291 92 288 91 285 90 282 89 279 88 276 87 273 85 270 84 267 83 265 83 262 81 260 81 258 80 260 81 262 81 265 83 267 83 270 84 273 85 276 87 279 88 282 89 285 90 288 91 291 92 294 93 297 94 300 95 303 96 306 97 309 98 312 99 315 100 318 100 321 101 324 102 327 104 331 105 336 105 340 102 341 104 343 106 345 109 346 111 347 114 348 117 349 121 350 128 350 136 349 138 347 140 349 139 350 137 350 128 349 121 348 117 347 114 346 111 343 105 341 103 340 100 338 97 336 94 329 87 323 82 322 82 320 80 323 80 321 79 318 76 316 75 314 74 316 75 318 76 321 79 319 80 317 78 314 77 312 75 309 74 306 73 303 72 299 71 293 70 " style="stroke:gray;fill:none"/><path d="M267 70 " style="stroke:gray;fill:none"/><path d="M151 70 149 71 147 73 146 75 147 78 149 80 149 82 150 80 151 82 152 79 156 76 158 76 166 80 170 83 173 85 177 88 181 91 187 96 192 100 198 105 204 111 210 116 214 115 214 111 204 101 197 95 194 93 190 90 185 86 182 85 180 83 177 82 175 80 161 73 159 73 156 71 153 70 " style="stroke:gray;fill:none"/><path d="M151 70 153 70 158 73 160 73 163 75 165 75 167 76 169 78 178 82 181 84 184 86 188 89 192 92 196 95 203 101 214 112 214 114 211 116 206 111 199 105 193 100 188 96 183 92 179 89 175 86 172 84 168 81 165 80 163 78 159 76 155 76 151 80 148 79 147 77 146 75 " style="stroke:gray;fill:none"/><path d="M295 69 298 69 " style="stroke:gray;fill:none"/><path d="M270 69 " style="stroke:gray;fill:none"/><path d="M289 68 292 68 " style="stroke:gray;fill:none"/><path d="M273 68 275 68 " style="stroke:gray;fill:none"/><path d="M257 33 259 34 264 38 270 44 272 47 274 52 276 55 278 57 276 55 274 50 272 48 272 46 270 43 265 38 260 34 " style="stroke:gray;fill:none"/><path d="M237 25 234 26 231 28 229 28 225 29 221 31 219 33 217 33 213 36 207 42 205 45 202 51 201 54 200 57 199 61 199 73 200 77 201 80 202 83 204 85 205 87 205 89 207 92 215 100 217 101 219 101 221 100 225 96 228 92 228 91 237 82 242 78 245 76 248 74 251 72 255 70 257 70 260 68 263 67 267 66 270 66 274 65 278 64 280 63 281 61 282 59 281 56 280 52 279 49 278 47 276 44 273 40 267 34 264 32 254 27 251 26 247 25 " style="stroke:gray;fill:none"/><path d="M237 25 247 25 251 26 254 27 256 28 258 30 260 30 263 32 266 34 273 41 276 45 278 48 280 52 281 56 282 59 281 61 278 64 274 65 270 66 267 66 263 67 260 68 257 70 255 70 249 73 246 75 243 77 240 79 236 82 228 90 226 93 226 94 216 100 207 91 205 88 201 80 200 77 199 73 199 61 200 57 201 54 202 51 204 47 206 44 214 36 218 33 221 32 223 30 226 29 229 28 231 28 234 26 " style="stroke:gray;fill:none"/></svg>