<svg width="429px" height="547px" xmlns="http://www.w3.org/2000/svg"><path d="M174 525 " style="stroke:gray;fill:none"/><path d="M156 521 " style="stroke:gray;fill:none"/><path d="M179 512 " style="stroke:gray;fill:none"/><path d="M179 508 " style="stroke:gray;fill:none"/><path d="M89 508 " style="stroke:gray;fill:none"/><path d="M121 499 " style="stroke:gray;fill:none"/><path d="M173 491 173 493 174 495 176 496 " style="stroke:gray;fill:none"/><path d="M180 484 " style="stroke:gray;fill:none"/><path d="M180 481 " style="stroke:gray;fill:none"/><path d="M144 479 144 483 143 485 141 487 138 489 137 491 137 493 140 499 142 501 143 504 145 507 149 509 151 512 151 513 157 519 161 522 163 522 166 524 170 524 172 523 175 520 176 518 177 515 177 504 176 502 176 499 174 497 172 496 169 496 166 498 162 499 155 499 152 498 145 491 143 490 141 491 140 494 143 490 150 497 152 498 155 499 162 499 166 498 169 496 172 496 174 497 176 499 171 500 166 505 158 505 155 504 151 504 149 507 147 508 145 506 143 503 142 500 140 498 138 495 137 493 137 491 138 489 140 487 143 486 143 484 " style="stroke:gray;fill:none"/><path d="M172 500 174 500 176 502 177 504 177 515 176 518 170 524 166 524 162 522 158 519 151 512 149 509 149 506 151 504 155 504 158 505 166 505 168 504 " style="stroke:gray;fill:none"/><path d="M282 478 285 478 " style="stroke:gray;fill:none"/><path d="M128 477 129 479 130 486 129 488 127 490 126 488 124 486 121 486 116 489 113 490 106 490 103 489 101 488 97 484 95 482 93 481 90 484 89 487 88 490 88 502 89 504 92 507 97 507 100 506 103 505 106 503 108 503 111 501 113 501 116 499 118 497 121 496 129 487 130 479 " style="stroke:gray;fill:none"/><path d="M94 481 98 485 103 489 106 490 113 490 116 489 121 486 124 486 126 488 126 490 120 496 117 498 114 499 112 501 108 503 106 503 103 505 100 506 97 507 93 507 88 502 88 490 89 487 90 485 " style="stroke:gray;fill:none"/><path d="M27 478 " style="stroke:gray;fill:none"/><path d="M181 477 180 479 184 476 " style="stroke:gray;fill:none"/><path d="M121 476 121 478 " style="stroke:gray;fill:none"/><path d="M126 475 126 477 " style="stroke:gray;fill:none"/><path d="M94 475 92 477 " style="stroke:gray;fill:none"/><path d="M282 474 280 476 280 479 281 481 285 482 287 480 287 477 286 475 284 474 " style="stroke:gray;fill:none"/><path d="M284 474 287 477 287 479 283 482 280 479 280 477 " style="stroke:gray;fill:none"/><path d="M166 474 164 475 164 477 162 478 159 483 159 485 158 489 159 491 158 489 158 486 160 488 162 490 159 487 159 484 161 480 164 478 165 475 168 474 " style="stroke:gray;fill:none"/><path d="M102 473 104 474 106 476 112 479 116 480 124 479 126 480 128 482 126 480 124 479 116 480 112 479 108 477 105 474 " style="stroke:gray;fill:none"/><path d="M28 474 31 475 28 476 31 475 " style="stroke:gray;fill:none"/><path d="M27 470 26 472 26 475 26 472 28 470 30 470 34 475 31 478 34 476 34 473 32 471 30 470 " style="stroke:gray;fill:none"/><path d="M180 462 178 463 176 466 178 468 178 464 " style="stroke:gray;fill:none"/><path d="M177 464 177 467 " style="stroke:gray;fill:none"/><path d="M176 460 173 463 173 468 176 471 178 471 181 473 186 473 188 471 189 469 189 466 188 464 185 461 183 460 " style="stroke:gray;fill:none"/><path d="M177 460 183 460 189 466 189 469 185 473 181 473 177 471 173 467 173 464 " style="stroke:gray;fill:none"/><path d="M184 458 " style="stroke:gray;fill:none"/><path d="M175 458 " style="stroke:gray;fill:none"/><path d="M196 457 195 459 192 461 191 463 191 465 191 463 195 460 " style="stroke:gray;fill:none"/><path d="M121 457 122 459 122 468 121 470 118 472 121 471 122 469 " style="stroke:gray;fill:none"/><path d="M132 454 " style="stroke:gray;fill:none"/><path d="M104 450 " style="stroke:gray;fill:none"/><path d="M102 447 101 449 101 457 102 460 103 461 103 464 103 467 103 469 98 473 96 475 93 479 96 477 101 471 102 471 104 466 110 472 112 473 115 474 119 475 119 478 120 474 122 474 125 473 128 470 128 468 130 465 131 460 131 456 130 454 128 453 125 453 118 454 115 452 113 452 107 446 " style="stroke:gray;fill:none"/><path d="M104 446 106 446 112 452 115 453 118 454 125 453 128 453 130 455 131 457 131 460 130 465 128 469 124 473 122 474 119 475 115 474 111 472 104 465 103 463 102 460 101 457 101 449 " style="stroke:gray;fill:none"/><path d="M139 442 138 444 136 447 133 448 132 450 132 452 132 450 136 447 138 445 " style="stroke:gray;fill:none"/><path d="M354 440 356 440 " style="stroke:gray;fill:none"/><path d="M354 438 " style="stroke:gray;fill:none"/><path d="M352 436 352 443 354 444 358 443 358 439 357 437 355 435 " style="stroke:gray;fill:none"/><path d="M353 435 356 436 358 439 358 442 356 444 354 444 352 442 " style="stroke:gray;fill:none"/><path d="M113 434 110 437 110 442 113 445 115 447 119 448 124 448 126 446 127 443 127 441 126 438 124 436 120 434 " style="stroke:gray;fill:none"/><path d="M114 434 120 434 123 436 126 439 127 441 127 443 126 445 123 448 118 447 120 446 123 443 124 441 120 446 118 447 116 447 113 445 111 443 110 441 110 438 " style="stroke:gray;fill:none"/><path d="M104 434 105 440 102 443 104 442 105 440 " style="stroke:gray;fill:none"/><path d="M203 433 202 436 205 432 207 432 211 432 208 433 " style="stroke:gray;fill:none"/><path d="M114 432 " style="stroke:gray;fill:none"/><path d="M119 430 119 432 " style="stroke:gray;fill:none"/><path d="M177 429 175 430 172 432 170 435 169 438 168 442 168 452 169 454 171 454 168 451 168 442 169 439 170 436 172 434 174 432 176 430 178 429 188 429 191 430 193 431 197 435 194 431 192 430 189 429 " style="stroke:gray;fill:none"/><path d="M102 428 102 430 102 434 " style="stroke:gray;fill:none"/><path d="M155 426 157 429 " style="stroke:gray;fill:none"/><path d="M151 424 148 428 149 426 " style="stroke:gray;fill:none"/><path d="M147 423 " style="stroke:gray;fill:none"/><path d="M103 399 103 403 106 406 106 409 105 404 " style="stroke:gray;fill:none"/><path d="M282 389 " style="stroke:gray;fill:none"/><path d="M217 389 216 391 215 394 214 397 213 401 212 405 211 409 210 412 209 416 208 420 207 424 208 429 211 429 213 427 214 425 215 422 216 418 217 413 218 409 219 404 220 399 221 394 221 390 219 388 " style="stroke:gray;fill:none"/><path d="M219 388 221 390 221 394 220 399 219 404 218 409 217 413 216 418 215 422 214 425 209 429 207 427 207 424 208 420 209 416 210 412 211 409 212 405 213 401 214 397 215 394 216 391 " style="stroke:gray;fill:none"/><path d="M279 387 279 390 281 391 285 391 285 386 " style="stroke:gray;fill:none"/><path d="M281 386 285 387 284 391 281 391 279 388 " style="stroke:gray;fill:none"/><path d="M220 386 " style="stroke:gray;fill:none"/><path d="M220 384 " style="stroke:gray;fill:none"/><path d="M113 382 115 382 " style="stroke:gray;fill:none"/><path d="M182 382 " style="stroke:gray;fill:none"/><path d="M110 381 " style="stroke:gray;fill:none"/><path d="M221 379 223 381 224 383 223 389 224 383 223 381 " style="stroke:gray;fill:none"/><path d="M188 376 " style="stroke:gray;fill:none"/><path d="M136 378 134 380 132 382 132 391 134 395 137 399 140 402 143 404 146 406 151 408 153 410 155 411 158 412 162 413 166 414 185 414 189 413 193 412 196 410 199 410 201 409 203 406 200 409 198 410 195 410 192 412 188 413 184 414 167 414 163 413 159 412 156 411 154 410 152 408 147 406 144 404 141 402 137 398 134 394 132 390 132 383 134 380 136 378 139 376 " style="stroke:gray;fill:none"/><path d="M105 375 107 377 107 379 106 382 106 385 105 389 105 394 104 396 105 398 108 399 110 397 111 395 112 392 112 385 110 383 107 380 107 377 " style="stroke:gray;fill:none"/><path d="M108 383 110 383 112 385 112 392 111 395 107 399 105 394 105 389 106 385 " style="stroke:gray;fill:none"/><path d="M35 368 " style="stroke:gray;fill:none"/><path d="M118 367 117 369 115 369 112 371 110 371 113 371 117 369 " style="stroke:gray;fill:none"/><path d="M27 367 25 369 24 371 25 373 27 375 31 375 33 373 33 369 31 367 " style="stroke:gray;fill:none"/><path d="M28 367 30 367 33 370 33 372 30 375 28 375 24 371 " style="stroke:gray;fill:none"/><path d="M32 365 " style="stroke:gray;fill:none"/><path d="M236 364 " style="stroke:gray;fill:none"/><path d="M127 364 127 366 129 364 " style="stroke:gray;fill:none"/><path d="M128 366 " style="stroke:gray;fill:none"/><path d="M26 365 30 364 " style="stroke:gray;fill:none"/><path d="M136 361 136 363 136 365 " style="stroke:gray;fill:none"/><path d="M139 360 139 363 138 365 139 363 " style="stroke:gray;fill:none"/><path d="M186 359 185 361 189 362 189 359 " style="stroke:gray;fill:none"/><path d="M188 362 185 361 " style="stroke:gray;fill:none"/><path d="M169 359 168 361 163 361 161 360 163 361 " style="stroke:gray;fill:none"/><path d="M148 357 145 358 144 361 143 363 143 366 144 369 147 372 153 375 155 376 153 375 149 373 143 367 143 363 144 360 147 357 150 356 154 360 158 360 160 357 158 358 155 360 152 357 " style="stroke:gray;fill:none"/><path d="M244 354 242 357 " style="stroke:gray;fill:none"/><path d="M157 351 155 353 151 354 149 354 151 354 155 353 157 351 160 351 171 352 160 351 " style="stroke:gray;fill:none"/><path d="M139 351 " style="stroke:gray;fill:none"/><path d="M190 349 189 353 177 353 171 358 170 364 169 371 165 370 165 365 157 365 155 363 152 362 150 364 150 366 152 368 156 368 159 370 157 371 156 373 157 375 159 377 162 378 164 378 169 380 169 383 169 381 171 379 183 379 186 376 185 373 184 371 188 370 188 373 190 375 193 375 195 374 197 370 198 366 199 360 199 355 197 353 195 352 190 351 " style="stroke:gray;fill:none"/><path d="M153 362 155 364 157 365 166 366 165 370 159 370 156 368 152 368 150 366 150 364 " style="stroke:gray;fill:none"/><path d="M191 352 195 352 199 356 199 360 198 366 197 370 196 372 194 374 192 375 190 375 188 373 188 369 185 369 185 373 185 376 182 379 171 379 168 379 165 379 162 378 160 377 156 373 159 370 166 371 170 370 170 364 171 359 172 357 175 354 177 353 " style="stroke:gray;fill:none"/><path d="M188 349 188 351 " style="stroke:gray;fill:none"/><path d="M142 346 " style="stroke:gray;fill:none"/><path d="M91 346 " style="stroke:gray;fill:none"/><path d="M92 343 " style="stroke:gray;fill:none"/><path d="M146 341 146 343 147 346 150 348 153 346 150 348 147 345 146 343 149 343 151 343 149 342 " style="stroke:gray;fill:none"/><path d="M93 341 " style="stroke:gray;fill:none"/><path d="M94 339 " style="stroke:gray;fill:none"/><path d="M141 338 140 340 139 344 142 343 143 339 148 338 142 340 142 342 140 344 139 341 " style="stroke:gray;fill:none"/><path d="M330 339 331 342 334 342 336 341 336 338 334 338 " style="stroke:gray;fill:none"/><path d="M332 337 336 340 334 340 332 342 330 340 " style="stroke:gray;fill:none"/><path d="M144 333 148 334 148 336 152 336 150 337 152 337 152 335 150 335 " style="stroke:gray;fill:none"/><path d="M99 332 " style="stroke:gray;fill:none"/><path d="M144 331 " style="stroke:gray;fill:none"/><path d="M142 330 142 332 141 334 142 336 145 336 143 336 142 332 " style="stroke:gray;fill:none"/><path d="M104 330 101 333 98 337 96 340 94 344 93 348 92 352 92 356 93 360 94 363 95 365 101 371 104 372 108 373 112 373 115 373 117 373 119 372 122 369 122 366 117 362 111 356 110 353 105 348 105 346 107 344 108 342 107 330 " style="stroke:gray;fill:none"/><path d="M106 330 108 332 108 342 106 344 105 346 105 348 106 350 110 354 111 357 116 362 119 363 121 365 122 368 117 373 115 373 112 373 108 373 104 372 102 371 94 363 93 360 92 356 92 352 93 348 94 345 96 341 98 338 101 334 " style="stroke:gray;fill:none"/><path d="M242 327 239 328 236 329 233 330 227 333 225 335 222 336 216 341 208 349 217 341 223 336 226 335 228 333 234 330 237 329 240 328 243 327 247 327 249 328 250 330 248 327 " style="stroke:gray;fill:none"/><path d="M127 326 121 327 118 328 114 332 114 349 115 352 116 354 120 358 123 359 126 360 132 360 135 359 138 357 141 354 143 350 141 353 136 358 132 360 126 360 123 359 121 358 115 352 114 349 114 333 119 328 121 327 127 326 132 326 134 327 137 330 137 334 137 338 136 342 135 343 135 345 136 347 142 348 138 348 135 345 135 343 136 339 137 334 137 331 137 329 135 327 132 326 " style="stroke:gray;fill:none"/><path d="M136 324 " style="stroke:gray;fill:none"/><path d="M133 324 " style="stroke:gray;fill:none"/><path d="M253 323 254 321 " style="stroke:gray;fill:none"/><path d="M140 320 " style="stroke:gray;fill:none"/><path d="M203 318 200 319 198 321 195 324 191 327 189 327 187 328 184 330 182 331 184 331 186 330 188 328 190 327 192 327 196 324 200 321 201 319 " style="stroke:gray;fill:none"/><path d="M203 316 " style="stroke:gray;fill:none"/><path d="M201 317 " style="stroke:gray;fill:none"/><path d="M164 316 " style="stroke:gray;fill:none"/><path d="M129 316 129 319 " style="stroke:gray;fill:none"/><path d="M234 315 232 316 224 324 220 327 217 329 214 331 206 335 203 336 199 337 195 338 190 339 184 340 162 339 156 339 154 340 154 343 156 345 158 346 163 347 173 348 173 351 173 349 175 347 180 348 180 351 180 349 182 347 194 346 203 346 206 349 206 354 205 359 204 364 203 365 203 371 202 374 200 377 197 380 194 382 191 383 188 384 184 385 165 385 161 384 158 383 155 382 152 381 148 379 146 377 143 376 137 370 134 367 131 367 128 370 123 376 122 376 119 379 117 382 116 385 114 385 117 386 118 391 118 394 117 397 115 400 112 403 112 405 110 407 110 409 108 411 107 414 106 417 105 420 104 424 104 428 105 430 109 431 111 429 113 428 116 427 118 427 121 428 125 430 130 435 132 438 132 439 138 439 142 434 145 430 146 427 144 423 145 418 149 421 151 421 156 424 158 424 163 425 160 427 161 429 159 432 157 435 157 448 156 454 155 458 154 463 153 466 151 468 148 474 147 477 147 479 147 482 147 484 149 488 153 492 156 493 162 493 165 492 171 489 174 487 178 483 178 479 173 475 170 472 167 468 167 462 168 460 173 455 175 454 178 454 181 454 184 454 186 456 188 457 192 457 195 454 196 451 197 448 198 445 199 441 199 435 200 432 201 431 201 425 202 421 203 417 204 413 205 409 206 405 207 402 208 398 209 394 210 390 211 387 212 385 214 382 219 377 234 363 238 358 241 354 243 351 245 348 252 334 253 331 253 328 252 326 250 324 245 322 242 320 238 316 236 315 " style="stroke:gray;fill:none"/><path d="M234 315 236 315 241 320 244 322 246 323 248 323 253 328 253 331 251 334 251 336 247 344 245 347 243 350 241 353 238 357 234 362 218 377 214 381 212 384 211 387 210 390 209 394 209 397 208 401 206 404 205 409 204 413 203 417 202 421 201 425 201 431 200 434 199 435 199 441 198 445 197 448 196 451 195 453 191 457 189 457 184 454 181 454 178 454 175 454 171 456 168 459 167 461 167 468 168 470 170 473 172 475 178 480 178 482 173 487 169 490 165 492 162 493 156 493 154 492 149 487 147 484 147 482 147 479 147 477 153 466 154 463 155 458 156 454 157 448 157 435 158 433 163 429 162 424 160 425 156 424 151 421 149 421 147 419 145 418 144 423 146 427 145 429 142 432 139 436 139 437 136 440 134 440 132 438 130 435 127 431 131 429 132 427 132 418 131 416 129 413 125 409 123 408 120 407 117 406 114 407 117 407 120 407 124 409 129 414 131 417 132 419 132 426 131 428 129 430 127 431 125 430 121 428 118 427 116 427 113 428 109 430 107 431 104 428 104 424 105 420 106 417 107 414 108 412 110 410 110 408 112 404 115 401 117 397 118 394 118 391 117 383 118 381 124 376 128 372 134 368 135 368 137 370 142 376 152 381 155 382 158 383 161 384 165 385 184 385 188 384 191 383 194 382 198 380 200 378 202 374 203 371 203 365 204 360 205 359 206 354 206 348 204 346 194 346 182 347 179 347 175 347 172 347 163 347 158 346 154 341 156 339 162 339 184 340 190 339 195 338 199 337 203 336 206 335 218 329 221 327 225 324 " style="stroke:gray;fill:none"/><path d="M187 314 " style="stroke:gray;fill:none"/><path d="M141 315 " style="stroke:gray;fill:none"/><path d="M276 313 273 316 " style="stroke:gray;fill:none"/><path d="M199 312 " style="stroke:gray;fill:none"/><path d="M132 309 133 313 136 313 138 314 136 313 134 313 132 311 " style="stroke:gray;fill:none"/><path d="M260 307 261 309 264 310 267 312 268 310 270 311 268 310 265 310 262 309 " style="stroke:gray;fill:none"/><path d="M132 307 " style="stroke:gray;fill:none"/><path d="M117 307 119 310 121 310 124 316 119 316 117 317 110 324 107 324 103 328 106 327 108 324 110 324 112 323 115 319 117 317 119 316 125 315 125 313 123 311 120 310 " style="stroke:gray;fill:none"/><path d="M235 306 232 310 237 310 237 306 " style="stroke:gray;fill:none"/><path d="M236 306 236 311 232 310 " style="stroke:gray;fill:none"/><path d="M406 306 403 309 403 311 404 313 406 315 408 315 411 314 412 312 412 307 410 306 " style="stroke:gray;fill:none"/><path d="M410 306 412 308 412 312 410 314 407 315 403 311 403 309 " style="stroke:gray;fill:none"/><path d="M114 302 " style="stroke:gray;fill:none"/><path d="M223 301 " style="stroke:gray;fill:none"/><path d="M240 300 " style="stroke:gray;fill:none"/><path d="M230 300 228 301 226 302 224 304 221 305 219 307 215 309 213 309 210 311 207 312 204 313 201 313 198 315 194 316 189 317 184 318 173 319 154 319 142 318 141 317 138 318 136 321 134 321 131 318 133 316 136 316 133 316 131 318 132 320 137 321 142 325 147 330 149 331 152 332 156 333 161 334 186 334 191 333 195 332 198 331 201 330 204 329 211 325 213 325 216 323 220 320 228 312 231 308 232 305 233 303 232 301 " style="stroke:gray;fill:none"/><path d="M229 301 231 301 233 304 231 306 229 309 229 310 219 320 215 323 212 325 204 329 201 330 198 331 195 332 191 333 186 334 161 334 156 333 152 332 149 331 142 325 137 320 138 318 141 317 153 318 154 319 173 319 184 318 189 317 194 316 198 315 201 313 204 313 207 312 210 311 213 309 215 309 223 305 225 303 " style="stroke:gray;fill:none"/><path d="M188 299 190 298 " style="stroke:gray;fill:none"/><path d="M111 298 109 299 107 301 105 301 101 299 105 301 107 301 111 298 113 300 " style="stroke:gray;fill:none"/><path d="M99 297 " style="stroke:gray;fill:none"/><path d="M228 295 228 297 226 299 228 298 " style="stroke:gray;fill:none"/><path d="M196 294 198 294 " style="stroke:gray;fill:none"/><path d="M125 292 " style="stroke:gray;fill:none"/><path d="M246 291 244 293 244 296 245 298 247 300 251 300 252 300 253 295 251 292 " style="stroke:gray;fill:none"/><path d="M247 291 249 291 251 293 253 296 253 298 249 301 244 296 244 294 " style="stroke:gray;fill:none"/><path d="M238 291 237 293 237 295 239 302 242 302 243 300 242 298 243 300 241 302 238 301 237 295 237 293 238 291 242 291 242 293 241 296 241 294 242 290 " style="stroke:gray;fill:none"/><path d="M229 290 " style="stroke:gray;fill:none"/><path d="M230 287 " style="stroke:gray;fill:none"/><path d="M122 284 " style="stroke:gray;fill:none"/><path d="M108 285 110 286 108 285 110 284 " style="stroke:gray;fill:none"/><path d="M247 284 " style="stroke:gray;fill:none"/><path d="M99 282 102 282 " style="stroke:gray;fill:none"/><path d="M259 281 257 282 255 284 255 287 256 290 258 292 261 298 261 301 260 303 256 307 246 306 242 308 242 311 246 315 252 318 255 319 262 319 265 318 269 316 275 310 277 307 278 304 279 301 279 293 278 290 277 288 272 283 270 282 266 281 " style="stroke:gray;fill:none"/><path d="M259 281 266 281 269 282 271 283 277 289 279 293 279 301 278 304 277 306 275 309 268 316 265 318 262 319 255 319 252 318 248 316 242 309 244 307 246 306 257 307 260 304 261 301 261 298 260 295 258 291 256 289 255 287 255 285 " style="stroke:gray;fill:none"/><path d="M248 281 245 282 245 285 247 287 249 287 251 285 252 282 251 285 249 287 247 287 245 285 245 283 247 281 250 280 " style="stroke:gray;fill:none"/><path d="M119 281 " style="stroke:gray;fill:none"/><path d="M109 280 108 282 109 280 110 282 " style="stroke:gray;fill:none"/><path d="M254 275 253 277 252 280 253 277 " style="stroke:gray;fill:none"/><path d="M120 275 122 277 " style="stroke:gray;fill:none"/><path d="M118 275 " style="stroke:gray;fill:none"/><path d="M136 274 135 277 136 279 138 281 142 281 144 280 143 273 " style="stroke:gray;fill:none"/><path d="M138 273 142 273 144 275 143 280 141 281 139 281 135 277 136 275 " style="stroke:gray;fill:none"/><path d="M256 272 " style="stroke:gray;fill:none"/><path d="M120 273 " style="stroke:gray;fill:none"/><path d="M107 269 107 276 109 276 109 271 " style="stroke:gray;fill:none"/><path d="M108 276 " style="stroke:gray;fill:none"/><path d="M108 271 108 274 " style="stroke:gray;fill:none"/><path d="M275 268 " style="stroke:gray;fill:none"/><path d="M236 268 234 270 233 273 232 284 233 286 235 287 238 287 240 283 241 280 242 275 242 272 241 270 239 268 " style="stroke:gray;fill:none"/><path d="M238 268 242 272 242 275 241 280 240 283 238 286 236 288 232 284 233 273 234 271 " style="stroke:gray;fill:none"/><path d="M231 268 " style="stroke:gray;fill:none"/><path d="M113 268 " style="stroke:gray;fill:none"/><path d="M272 267 271 269 268 268 " style="stroke:gray;fill:none"/><path d="M210 269 210 273 209 275 207 279 205 282 193 293 192 297 198 297 202 295 205 293 211 287 213 283 214 280 215 276 215 274 215 271 215 268 213 267 " style="stroke:gray;fill:none"/><path d="M212 270 214 270 215 274 215 276 214 280 211 286 204 293 200 296 198 297 191 295 193 293 196 292 205 283 207 280 208 278 208 276 210 272 " style="stroke:gray;fill:none"/><path d="M213 267 215 269 210 269 " style="stroke:gray;fill:none"/><path d="M265 267 264 271 265 273 270 272 273 272 270 272 266 273 264 271 267 266 " style="stroke:gray;fill:none"/><path d="M257 265 " style="stroke:gray;fill:none"/><path d="M215 264 " style="stroke:gray;fill:none"/><path d="M97 262 96 265 95 267 95 279 96 285 97 288 98 291 99 293 101 295 103 297 105 298 107 297 107 292 106 288 105 283 104 282 103 277 103 265 102 262 " style="stroke:gray;fill:none"/><path d="M97 263 102 263 103 265 103 277 104 282 105 287 106 288 107 292 107 296 105 298 103 297 101 295 99 292 97 288 96 285 95 279 95 267 " style="stroke:gray;fill:none"/><path d="M213 261 212 263 212 265 " style="stroke:gray;fill:none"/><path d="M156 261 154 262 156 261 159 262 " style="stroke:gray;fill:none"/><path d="M234 260 " style="stroke:gray;fill:none"/><path d="M257 258 " style="stroke:gray;fill:none"/><path d="M100 258 98 259 100 258 103 260 102 258 " style="stroke:gray;fill:none"/><path d="M106 257 105 260 " style="stroke:gray;fill:none"/><path d="M281 255 " style="stroke:gray;fill:none"/><path d="M234 256 " style="stroke:gray;fill:none"/><path d="M168 255 " style="stroke:gray;fill:none"/><path d="M238 254 236 256 235 264 235 266 235 264 237 255 238 258 238 262 239 266 240 264 238 258 " style="stroke:gray;fill:none"/><path d="M229 253 229 255 " style="stroke:gray;fill:none"/><path d="M249 252 251 252 " style="stroke:gray;fill:none"/><path d="M161 251 161 254 163 254 162 251 165 253 164 251 " style="stroke:gray;fill:none"/><path d="M120 250 " style="stroke:gray;fill:none"/><path d="M111 251 111 253 109 256 109 268 112 271 112 278 114 281 114 285 112 288 112 290 113 293 114 296 118 304 122 308 126 308 128 306 128 303 127 301 125 299 125 297 123 294 123 292 122 289 121 287 116 282 115 274 115 269 119 268 121 270 121 268 119 268 117 266 117 258 115 251 " style="stroke:gray;fill:none"/><path d="M113 250 116 253 117 258 117 266 115 268 115 275 116 282 117 284 122 289 123 292 123 294 125 297 125 299 128 304 128 306 126 308 123 308 117 302 115 298 115 296 113 293 112 290 112 288 114 286 114 281 113 278 112 277 112 270 109 267 109 256 111 252 " style="stroke:gray;fill:none"/><path d="M109 250 108 252 107 254 108 252 " style="stroke:gray;fill:none"/><path d="M287 248 " style="stroke:gray;fill:none"/><path d="M114 248 " style="stroke:gray;fill:none"/><path d="M285 248 " style="stroke:gray;fill:none"/><path d="M288 246 " style="stroke:gray;fill:none"/><path d="M111 244 " style="stroke:gray;fill:none"/><path d="M25 244 25 246 26 248 30 247 26 247 25 245 27 243 30 245 30 243 " style="stroke:gray;fill:none"/><path d="M117 241 116 243 116 247 120 245 119 247 116 246 116 243 118 241 119 243 " style="stroke:gray;fill:none"/><path d="M128 240 126 242 " style="stroke:gray;fill:none"/><path d="M242 237 242 239 243 242 244 245 245 248 246 249 247 253 248 259 248 271 249 273 253 273 254 271 255 267 255 253 254 249 253 246 252 242 251 240 247 236 " style="stroke:gray;fill:none"/><path d="M244 236 246 236 251 241 252 243 253 246 254 249 255 253 255 267 254 271 252 273 248 271 248 259 247 253 246 249 245 246 244 245 243 242 243 240 242 238 " style="stroke:gray;fill:none"/><path d="M153 236 155 236 " style="stroke:gray;fill:none"/><path d="M388 235 386 237 388 235 393 236 392 244 386 243 385 241 388 238 390 240 388 242 390 240 388 238 385 239 385 241 386 244 393 244 392 235 " style="stroke:gray;fill:none"/><path d="M229 237 229 241 229 243 230 247 232 251 237 252 239 250 239 248 238 245 237 242 236 239 232 235 " style="stroke:gray;fill:none"/><path d="M231 235 236 240 237 242 238 245 238 247 239 249 235 253 232 250 230 247 229 243 229 241 228 239 230 237 " style="stroke:gray;fill:none"/><path d="M228 235 " style="stroke:gray;fill:none"/><path d="M112 235 112 239 114 243 114 245 110 248 112 248 114 245 114 243 112 239 " style="stroke:gray;fill:none"/><path d="M312 233 316 236 319 236 322 233 319 236 317 236 315 234 " style="stroke:gray;fill:none"/><path d="M154 233 151 234 149 235 145 238 143 241 141 245 140 248 141 252 142 256 144 259 147 262 149 263 151 263 154 265 159 265 162 263 164 263 166 261 168 259 170 257 170 255 172 252 172 246 169 240 165 236 163 235 161 235 158 233 " style="stroke:gray;fill:none"/><path d="M154 233 158 233 160 235 162 235 164 236 169 241 171 244 172 246 172 252 170 254 170 256 168 259 166 261 163 263 161 263 159 265 154 265 152 263 149 263 144 258 142 255 141 252 140 248 141 245 142 243 144 240 147 237 151 234 " style="stroke:gray;fill:none"/><path d="M296 233 " style="stroke:gray;fill:none"/><path d="M311 230 " style="stroke:gray;fill:none"/><path d="M301 229 300 233 298 236 293 241 292 243 292 245 290 249 287 253 285 255 283 260 281 262 279 265 275 273 275 276 273 278 273 280 275 282 273 280 273 278 275 276 275 273 278 267 280 264 282 262 284 257 286 255 289 251 292 245 292 243 298 237 301 230 308 229 " style="stroke:gray;fill:none"/><path d="M220 227 224 230 224 234 223 228 " style="stroke:gray;fill:none"/><path d="M218 226 " style="stroke:gray;fill:none"/><path d="M212 224 " style="stroke:gray;fill:none"/><path d="M208 223 " style="stroke:gray;fill:none"/><path d="M153 223 " style="stroke:gray;fill:none"/><path d="M206 222 " style="stroke:gray;fill:none"/><path d="M200 221 " style="stroke:gray;fill:none"/><path d="M197 220 196 222 193 223 190 221 185 222 170 221 167 223 164 222 156 224 152 225 148 226 136 232 134 234 127 237 123 241 122 243 123 246 123 265 123 268 123 264 122 248 122 245 122 243 128 237 131 236 133 234 149 226 153 225 156 224 164 222 167 223 170 221 185 222 190 221 193 223 196 222 202 223 209 225 212 226 216 228 221 233 222 235 223 238 224 241 225 244 226 248 227 253 228 257 229 263 229 266 228 274 228 277 228 284 227 288 226 292 225 294 223 297 220 299 218 302 212 305 209 306 207 306 204 308 200 309 195 310 191 311 187 312 178 312 175 314 168 314 159 313 156 313 153 313 150 313 152 311 158 310 163 310 166 309 168 307 170 307 178 303 182 300 185 298 187 296 189 294 194 289 196 287 198 285 201 281 202 278 204 276 206 271 208 269 209 266 210 263 210 258 210 255 210 248 209 244 206 238 204 235 198 229 192 226 188 225 169 225 165 226 164 227 157 227 154 228 150 229 147 231 145 231 142 233 140 233 135 236 133 237 135 236 140 233 142 233 145 231 147 231 150 229 154 228 157 227 164 227 168 226 169 225 188 225 192 226 194 227 197 229 205 237 207 240 209 244 210 248 210 255 210 258 210 263 208 266 208 268 207 270 205 272 203 277 201 280 199 283 196 287 193 290 191 292 186 297 183 299 180 301 176 304 170 307 168 307 163 310 157 311 152 311 148 312 144 311 141 312 139 309 135 306 135 304 134 301 130 293 128 291 128 289 125 287 127 286 125 285 126 282 125 278 124 275 122 273 124 272 122 273 124 275 125 279 125 281 123 281 124 284 125 287 128 290 128 292 131 295 132 297 132 299 132 302 129 299 128 295 129 299 131 302 133 301 134 304 135 307 137 309 139 311 141 312 143 311 147 312 150 313 151 316 152 314 157 314 157 316 159 313 167 313 168 316 169 314 175 314 175 316 176 313 178 312 184 313 185 315 185 312 187 312 191 311 192 310 196 309 201 309 205 308 208 306 210 306 213 305 223 297 225 294 227 293 226 289 228 284 230 284 228 283 228 277 231 274 231 271 228 274 228 267 231 265 230 258 227 256 227 253 226 248 225 244 224 241 223 238 222 234 220 231 217 228 215 228 210 225 206 225 204 224 204 222 201 224 198 223 " style="stroke:gray;fill:none"/><path d="M125 282 125 285 " style="stroke:gray;fill:none"/><path d="M229 258 231 260 230 265 228 261 " style="stroke:gray;fill:none"/><path d="M180 219 " style="stroke:gray;fill:none"/><path d="M358 218 352 224 347 228 344 229 341 229 338 230 336 231 338 230 340 230 344 229 347 228 349 227 351 224 " style="stroke:gray;fill:none"/><path d="M127 213 " style="stroke:gray;fill:none"/><path d="M363 211 362 213 " style="stroke:gray;fill:none"/><path d="M130 211 " style="stroke:gray;fill:none"/><path d="M218 209 221 207 " style="stroke:gray;fill:none"/><path d="M224 206 " style="stroke:gray;fill:none"/><path d="M282 205 280 207 282 205 286 207 " style="stroke:gray;fill:none"/><path d="M275 204 277 204 " style="stroke:gray;fill:none"/><path d="M165 202 169 202 173 203 176 204 179 205 185 208 187 210 189 211 191 212 190 214 192 212 190 211 188 210 186 208 180 205 177 204 176 202 175 204 173 202 170 202 " style="stroke:gray;fill:none"/><path d="M250 201 " style="stroke:gray;fill:none"/><path d="M323 200 321 202 321 205 322 207 325 210 329 209 329 203 327 201 325 200 " style="stroke:gray;fill:none"/><path d="M323 200 325 200 329 204 329 208 326 210 321 205 321 202 " style="stroke:gray;fill:none"/><path d="M234 201 231 203 229 203 231 203 233 202 234 204 237 205 235 204 233 202 236 200 " style="stroke:gray;fill:none"/><path d="M250 199 " style="stroke:gray;fill:none"/><path d="M368 199 " style="stroke:gray;fill:none"/><path d="M173 198 167 199 162 200 156 201 153 202 150 203 147 204 145 206 143 206 135 210 131 213 127 216 122 221 119 225 115 233 115 238 119 238 122 236 125 233 128 231 131 230 133 228 145 222 148 221 151 220 155 219 159 218 164 217 172 216 190 216 194 217 195 218 202 218 206 219 210 220 213 221 214 222 217 223 220 224 222 224 224 222 224 219 218 213 214 210 211 208 201 203 198 202 195 201 192 200 187 199 178 198 " style="stroke:gray;fill:none"/><path d="M173 198 178 198 187 199 192 200 195 201 198 202 201 204 203 204 209 207 213 210 217 213 224 220 224 222 222 224 220 224 217 223 214 222 211 221 210 220 206 219 202 218 195 218 191 217 190 216 172 216 164 217 159 218 155 219 151 220 148 221 145 222 127 231 124 233 121 236 118 238 115 237 115 233 116 231 118 229 119 226 122 222 128 216 132 213 136 210 139 208 143 206 145 206 150 203 153 202 156 201 162 200 167 199 " style="stroke:gray;fill:none"/><path d="M164 197 " style="stroke:gray;fill:none"/><path d="M250 197 " style="stroke:gray;fill:none"/><path d="M166 195 " style="stroke:gray;fill:none"/><path d="M300 196 295 198 296 196 299 195 301 197 303 196 303 194 " style="stroke:gray;fill:none"/><path d="M166 191 167 193 " style="stroke:gray;fill:none"/><path d="M323 185 " style="stroke:gray;fill:none"/><path d="M324 183 326 183 " style="stroke:gray;fill:none"/><path d="M162 183 163 186 164 188 166 189 164 188 163 186 " style="stroke:gray;fill:none"/><path d="M367 180 367 184 368 194 367 184 " style="stroke:gray;fill:none"/><path d="M324 181 " style="stroke:gray;fill:none"/><path d="M330 178 327 179 " style="stroke:gray;fill:none"/><path d="M229 178 " style="stroke:gray;fill:none"/><path d="M74 178 77 178 " style="stroke:gray;fill:none"/><path d="M74 178 77 178 " style="stroke:gray;fill:none"/><path d="M227 175 " style="stroke:gray;fill:none"/><path d="M366 174 " style="stroke:gray;fill:none"/><path d="M281 175 " style="stroke:gray;fill:none"/><path d="M234 174 236 176 236 174 " style="stroke:gray;fill:none"/><path d="M332 173 330 175 328 177 " style="stroke:gray;fill:none"/><path d="M295 173 295 175 " style="stroke:gray;fill:none"/><path d="M193 173 191 174 188 176 186 178 185 180 186 182 196 183 200 181 202 180 201 175 199 174 195 173 " style="stroke:gray;fill:none"/><path d="M193 173 195 173 199 174 201 175 202 179 200 181 196 183 188 183 185 180 190 175 " style="stroke:gray;fill:none"/><path d="M75 172 72 175 71 177 71 179 72 181 78 181 80 179 80 177 78 173 " style="stroke:gray;fill:none"/><path d="M76 172 79 175 80 178 77 181 73 181 71 179 71 177 74 173 " style="stroke:gray;fill:none"/><path d="M169 171 171 171 " style="stroke:gray;fill:none"/><path d="M364 170 " style="stroke:gray;fill:none"/><path d="M174 170 " style="stroke:gray;fill:none"/><path d="M167 171 " style="stroke:gray;fill:none"/><path d="M289 169 " style="stroke:gray;fill:none"/><path d="M267 169 277 169 " style="stroke:gray;fill:none"/><path d="M294 168 " style="stroke:gray;fill:none"/><path d="M291 168 " style="stroke:gray;fill:none"/><path d="M239 168 248 168 " style="stroke:gray;fill:none"/><path d="M232 168 " style="stroke:gray;fill:none"/><path d="M172 168 169 169 171 169 174 168 " style="stroke:gray;fill:none"/><path d="M235 167 " style="stroke:gray;fill:none"/><path d="M331 166 327 167 326 168 320 169 314 170 301 171 285 170 285 168 286 171 281 172 258 171 258 169 256 171 247 171 233 170 231 171 231 175 234 179 241 186 245 189 248 191 251 193 255 195 257 195 259 197 261 197 264 199 268 200 273 201 278 201 284 202 287 204 287 209 288 211 289 214 291 217 293 219 296 223 295 229 293 229 292 231 291 233 291 235 290 237 288 240 283 245 281 250 279 252 278 255 276 258 274 261 270 264 268 262 268 259 269 246 270 242 272 241 273 235 274 232 275 231 276 227 276 218 277 213 278 212 277 207 272 206 269 203 266 202 262 202 260 205 257 201 253 205 252 208 251 206 252 208 253 217 253 227 252 232 247 233 244 230 242 229 244 228 247 225 246 214 247 208 247 206 246 199 247 194 244 194 242 194 241 197 244 194 246 199 247 206 247 208 246 214 247 225 245 226 242 227 241 224 241 209 240 206 239 205 239 202 239 199 240 195 240 193 239 199 239 202 239 205 240 208 241 209 241 224 243 228 242 231 239 234 235 234 229 228 229 225 227 222 226 219 227 222 229 225 229 229 233 233 235 234 240 234 242 232 243 230 245 231 247 233 249 234 251 234 252 232 253 227 252 216 252 208 253 205 257 201 259 203 260 205 260 208 259 215 257 217 255 217 258 218 257 226 255 226 257 226 259 228 259 234 257 236 254 237 253 240 256 236 259 235 259 228 258 216 259 209 260 205 263 202 266 202 269 203 272 206 273 211 273 213 271 216 271 218 269 221 268 227 268 233 266 236 265 239 264 242 264 254 263 257 262 260 260 263 260 276 257 279 255 280 257 279 259 278 260 263 262 260 263 257 264 254 264 242 265 239 266 236 268 234 268 227 269 221 271 218 271 216 273 213 273 211 272 209 274 207 276 207 278 209 278 212 277 217 276 218 276 227 275 231 274 234 273 237 272 240 270 242 269 246 268 259 268 262 270 264 273 263 275 260 278 256 278 254 280 252 282 247 287 242 290 238 291 235 291 233 292 231 294 229 296 229 296 222 292 218 290 215 289 212 287 209 288 204 288 202 290 202 296 201 300 200 303 199 306 197 308 197 311 196 317 193 319 191 322 190 326 187 337 176 339 173 340 171 341 169 340 167 " style="stroke:gray;fill:none"/><path d="M322 182 320 184 " style="stroke:gray;fill:none"/><path d="M331 166 338 166 341 169 339 171 337 174 337 175 325 187 321 190 318 191 316 193 313 195 310 196 307 197 305 195 307 193 310 192 313 190 316 188 321 181 325 178 326 175 322 180 319 181 315 181 308 180 306 178 304 178 301 177 299 176 297 173 298 176 301 177 303 177 307 179 295 179 296 177 295 179 291 179 287 178 285 177 284 174 283 176 286 177 290 178 291 179 296 180 315 181 318 180 319 184 315 188 312 190 309 192 308 192 305 194 306 197 304 198 301 199 300 200 296 201 291 201 288 201 286 201 279 202 277 200 290 199 278 199 276 201 273 201 268 200 264 199 250 192 246 189 242 186 234 178 231 174 232 171 234 170 246 170 280 171 281 172 285 172 301 171 314 170 321 168 324 169 327 169 329 172 327 173 324 173 320 172 318 171 320 172 324 173 327 173 330 172 333 168 329 169 326 168 " style="stroke:gray;fill:none"/><path d="M319 166 " style="stroke:gray;fill:none"/><path d="M325 165 " style="stroke:gray;fill:none"/><path d="M354 165 352 167 352 171 358 177 361 182 364 182 365 180 366 178 365 176 364 173 362 170 360 167 358 165 " style="stroke:gray;fill:none"/><path d="M356 164 360 168 362 171 364 174 365 177 365 180 362 182 360 180 357 176 357 175 351 168 " style="stroke:gray;fill:none"/><path d="M331 164 " style="stroke:gray;fill:none"/><path d="M362 163 364 167 363 165 " style="stroke:gray;fill:none"/><path d="M335 164 " style="stroke:gray;fill:none"/><path d="M211 163 " style="stroke:gray;fill:none"/><path d="M340 163 " style="stroke:gray;fill:none"/><path d="M354 161 352 162 350 164 348 169 346 172 344 175 342 178 329 191 323 196 320 198 318 198 316 200 310 203 307 204 303 205 299 205 295 206 293 207 292 209 291 212 294 216 300 222 303 223 305 225 311 228 313 228 316 230 323 231 326 231 333 230 336 229 339 228 342 227 348 224 351 222 358 216 360 214 360 212 361 210 363 209 364 206 365 204 367 202 365 202 365 199 366 194 365 192 363 190 361 190 359 192 359 196 360 199 365 201 366 203 364 206 363 208 360 211 360 213 357 216 349 223 346 225 342 227 339 228 336 229 333 230 326 231 323 231 316 230 313 228 311 228 307 226 304 224 301 222 294 215 291 211 292 209 295 206 299 205 303 205 307 204 310 203 322 197 325 195 331 190 341 180 344 176 345 173 347 171 349 166 356 162 359 163 357 162 " style="stroke:gray;fill:none"/><path d="M362 190 366 194 366 198 364 200 362 200 359 197 358 194 " style="stroke:gray;fill:none"/><path d="M347 160 349 161 348 163 347 165 343 166 347 165 349 162 349 160 " style="stroke:gray;fill:none"/><path d="M356 159 " style="stroke:gray;fill:none"/><path d="M363 156 361 158 361 160 361 158 363 156 366 155 " style="stroke:gray;fill:none"/><path d="M274 151 " style="stroke:gray;fill:none"/><path d="M247 151 245 152 247 151 269 152 " style="stroke:gray;fill:none"/><path d="M289 151 " style="stroke:gray;fill:none"/><path d="M272 150 271 152 " style="stroke:gray;fill:none"/><path d="M229 151 " style="stroke:gray;fill:none"/><path d="M221 149 " style="stroke:gray;fill:none"/><path d="M312 149 " style="stroke:gray;fill:none"/><path d="M379 147 377 148 " style="stroke:gray;fill:none"/><path d="M326 147 " style="stroke:gray;fill:none"/><path d="M211 147 " style="stroke:gray;fill:none"/><path d="M333 147 " style="stroke:gray;fill:none"/><path d="M209 146 " style="stroke:gray;fill:none"/><path d="M154 146 156 148 163 149 155 147 157 146 " style="stroke:gray;fill:none"/><path d="M174 145 171 146 170 148 170 151 172 152 168 152 171 153 174 151 177 150 177 145 " style="stroke:gray;fill:none"/><path d="M174 145 177 146 176 151 174 151 172 152 170 150 170 148 172 146 " style="stroke:gray;fill:none"/><path d="M6 146 " style="stroke:gray;fill:none"/><path d="M4 145 4 147 " style="stroke:gray;fill:none"/><path d="M345 145 " style="stroke:gray;fill:none"/><path d="M351 143 " style="stroke:gray;fill:none"/><path d="M212 143 " style="stroke:gray;fill:none"/><path d="M8 144 " style="stroke:gray;fill:none"/><path d="M214 142 215 147 " style="stroke:gray;fill:none"/><path d="M175 143 " style="stroke:gray;fill:none"/><path d="M3 142 0 145 1 149 6 149 8 148 6 148 0 148 0 146 1 144 3 142 5 142 " style="stroke:gray;fill:none"/><path d="M329 141 " style="stroke:gray;fill:none"/><path d="M190 141 " style="stroke:gray;fill:none"/><path d="M355 138 354 140 " style="stroke:gray;fill:none"/><path d="M221 138 223 140 221 141 223 140 226 145 227 143 224 140 224 137 " style="stroke:gray;fill:none"/><path d="M149 137 149 139 148 144 155 151 156 154 159 157 160 160 159 157 156 154 154 149 149 145 148 143 149 139 151 142 154 144 149 139 " style="stroke:gray;fill:none"/><path d="M169 137 " style="stroke:gray;fill:none"/><path d="M356 135 358 136 " style="stroke:gray;fill:none"/><path d="M346 136 348 135 " style="stroke:gray;fill:none"/><path d="M194 132 " style="stroke:gray;fill:none"/><path d="M379 132 " style="stroke:gray;fill:none"/><path d="M353 131 354 133 354 135 353 137 354 133 " style="stroke:gray;fill:none"/><path d="M209 132 " style="stroke:gray;fill:none"/><path d="M176 131 173 133 " style="stroke:gray;fill:none"/><path d="M376 130 " style="stroke:gray;fill:none"/><path d="M146 131 " style="stroke:gray;fill:none"/><path d="M374 129 " style="stroke:gray;fill:none"/><path d="M358 129 358 133 360 135 362 137 364 140 361 143 359 144 355 145 352 146 348 147 343 148 337 149 330 150 322 151 312 152 301 153 284 154 231 154 221 153 215 152 211 151 209 150 205 146 211 140 212 137 210 135 206 135 203 136 195 140 192 143 191 145 191 149 192 151 196 155 200 157 203 158 206 159 210 160 214 161 218 162 223 163 230 164 238 165 250 166 293 166 305 165 313 164 321 163 327 162 332 161 336 160 341 159 345 158 349 157 352 156 356 155 359 154 362 153 372 148 375 146 377 144 378 142 378 137 377 135 375 133 369 130 366 129 363 128 " style="stroke:gray;fill:none"/><path d="M360 128 363 128 366 129 369 130 371 132 374 133 377 136 378 138 378 141 377 143 374 146 371 148 366 150 364 152 362 152 359 154 356 155 352 156 349 157 345 158 341 159 336 160 332 161 327 162 321 163 313 164 305 165 293 166 250 166 238 165 230 164 223 163 218 162 214 161 210 160 207 159 203 158 197 155 191 149 191 146 192 144 196 140 201 138 203 136 206 135 209 135 212 138 205 145 205 147 208 150 211 151 215 152 221 153 231 154 284 154 301 153 312 152 322 151 330 150 337 149 343 148 348 147 352 146 355 145 359 144 362 143 364 141 364 138 362 135 358 132 358 130 " style="stroke:gray;fill:none"/><path d="M346 127 346 133 " style="stroke:gray;fill:none"/><path d="M202 128 " style="stroke:gray;fill:none"/><path d="M198 127 " style="stroke:gray;fill:none"/><path d="M182 127 " style="stroke:gray;fill:none"/><path d="M423 126 " style="stroke:gray;fill:none"/><path d="M421 126 423 128 " style="stroke:gray;fill:none"/><path d="M422 123 418 124 418 128 419 131 426 131 426 127 424 123 " style="stroke:gray;fill:none"/><path d="M421 124 423 123 425 125 426 127 425 131 418 130 418 128 417 126 419 124 " style="stroke:gray;fill:none"/><path d="M191 123 " style="stroke:gray;fill:none"/><path d="M194 122 " style="stroke:gray;fill:none"/><path d="M358 121 353 122 358 121 360 122 364 125 362 123 360 122 " style="stroke:gray;fill:none"/><path d="M217 119 217 124 " style="stroke:gray;fill:none"/><path d="M199 121 203 120 205 120 208 123 210 122 212 125 210 127 209 129 207 127 206 124 197 124 194 126 190 126 182 130 178 133 170 141 168 144 168 146 164 153 163 156 162 163 162 168 163 176 165 179 165 181 168 187 173 192 176 193 188 193 191 194 195 195 199 196 202 197 210 201 212 203 214 204 222 204 224 202 226 202 230 199 236 193 236 188 232 183 230 181 227 179 225 176 224 173 219 168 216 167 213 166 210 165 206 165 203 164 200 163 198 161 196 160 194 160 186 152 185 150 185 144 187 141 193 135 201 131 204 130 206 130 210 129 210 127 212 126 212 123 210 122 208 123 205 119 202 119 " style="stroke:gray;fill:none"/><path d="M197 124 207 125 208 128 206 130 203 131 201 131 198 132 194 134 192 135 189 138 185 138 183 135 186 132 188 131 192 130 194 130 192 130 187 131 183 135 181 138 179 136 180 138 178 139 175 140 177 140 180 138 183 137 185 138 189 138 187 141 185 144 185 150 186 153 192 159 196 161 198 162 196 163 195 165 197 167 200 169 204 171 206 171 209 173 213 173 216 172 217 170 215 172 213 173 209 173 206 171 204 171 202 170 200 168 197 167 195 165 200 163 202 163 205 164 206 165 210 165 213 166 216 168 218 168 224 174 225 177 227 179 229 181 232 184 236 189 236 192 229 199 225 202 221 204 215 204 213 203 211 201 207 199 205 199 202 197 199 196 195 195 192 194 188 193 177 193 174 192 168 186 165 180 165 178 163 175 162 168 162 164 163 156 164 153 166 149 168 147 168 145 170 142 179 133 183 130 186 129 188 127 190 126 194 126 " style="stroke:gray;fill:none"/><path d="M344 117 344 119 " style="stroke:gray;fill:none"/><path d="M204 117 " style="stroke:gray;fill:none"/><path d="M204 115 " style="stroke:gray;fill:none"/><path d="M202 113 " style="stroke:gray;fill:none"/><path d="M144 110 " style="stroke:gray;fill:none"/><path d="M217 106 217 108 219 107 " style="stroke:gray;fill:none"/><path d="M218 108 " style="stroke:gray;fill:none"/><path d="M347 105 " style="stroke:gray;fill:none"/><path d="M212 104 215 104 " style="stroke:gray;fill:none"/><path d="M191 103 " style="stroke:gray;fill:none"/><path d="M224 101 " style="stroke:gray;fill:none"/><path d="M188 101 " style="stroke:gray;fill:none"/><path d="M154 100 152 102 152 104 151 108 150 109 150 111 150 109 151 105 152 102 " style="stroke:gray;fill:none"/><path d="M234 100 232 100 232 103 236 107 240 110 241 106 241 103 238 100 " style="stroke:gray;fill:none"/><path d="M236 99 240 107 238 108 233 100 " style="stroke:gray;fill:none"/><path d="M185 99 " style="stroke:gray;fill:none"/><path d="M148 99 147 101 146 104 146 106 146 104 147 101 " style="stroke:gray;fill:none"/><path d="M227 98 " style="stroke:gray;fill:none"/><path d="M149 97 " style="stroke:gray;fill:none"/><path d="M207 97 " style="stroke:gray;fill:none"/><path d="M204 93 202 95 " style="stroke:gray;fill:none"/><path d="M177 92 " style="stroke:gray;fill:none"/><path d="M201 90 199 91 " style="stroke:gray;fill:none"/><path d="M174 90 " style="stroke:gray;fill:none"/><path d="M365 89 366 91 372 89 370 91 " style="stroke:gray;fill:none"/><path d="M171 88 " style="stroke:gray;fill:none"/><path d="M192 87 " style="stroke:gray;fill:none"/><path d="M169 87 " style="stroke:gray;fill:none"/><path d="M195 86 195 90 " style="stroke:gray;fill:none"/><path d="M368 86 370 86 " style="stroke:gray;fill:none"/><path d="M198 85 198 87 201 87 " style="stroke:gray;fill:none"/><path d="M196 84 " style="stroke:gray;fill:none"/><path d="M188 85 " style="stroke:gray;fill:none"/><path d="M164 84 164 86 162 86 164 87 167 89 168 89 171 91 175 94 178 96 184 101 189 105 193 108 200 116 197 119 195 120 191 120 187 121 179 125 176 127 171 131 168 134 165 138 165 139 161 143 159 144 156 143 153 139 149 131 148 128 147 125 146 118 146 116 147 108 148 105 149 102 151 99 152 96 156 96 161 90 159 87 157 88 153 93 151 96 151 99 149 102 148 105 147 108 146 116 146 118 147 125 148 128 149 131 150 134 153 140 156 144 159 144 162 143 164 141 167 137 167 136 174 129 177 127 180 125 183 124 185 122 188 121 191 120 195 120 199 118 200 114 194 108 190 105 185 101 180 97 176 94 172 91 169 89 168 89 164 86 " style="stroke:gray;fill:none"/><path d="M160 87 161 89 157 93 156 96 152 96 153 94 157 90 158 88 " style="stroke:gray;fill:none"/><path d="M146 84 148 86 151 86 153 88 151 86 148 86 " style="stroke:gray;fill:none"/><path d="M369 82 367 83 367 88 370 88 366 87 367 83 369 82 372 85 372 87 371 83 " style="stroke:gray;fill:none"/><path d="M327 81 329 82 331 83 333 85 333 87 333 85 331 83 329 82 " style="stroke:gray;fill:none"/><path d="M156 82 158 83 156 82 158 81 " style="stroke:gray;fill:none"/><path d="M198 80 " style="stroke:gray;fill:none"/><path d="M185 77 " style="stroke:gray;fill:none"/><path d="M161 76 " style="stroke:gray;fill:none"/><path d="M180 75 178 77 176 77 179 77 " style="stroke:gray;fill:none"/><path d="M315 73 317 73 322 77 324 79 319 74 " style="stroke:gray;fill:none"/><path d="M170 73 178 73 " style="stroke:gray;fill:none"/><path d="M187 72 182 74 183 79 187 82 190 84 192 85 194 84 196 81 195 78 194 75 192 73 189 72 " style="stroke:gray;fill:none"/><path d="M187 72 189 72 191 73 194 76 195 78 196 81 192 85 189 82 186 80 185 80 182 77 182 75 184 73 " style="stroke:gray;fill:none"/><path d="M167 72 " style="stroke:gray;fill:none"/><path d="M197 71 196 73 197 77 196 73 " style="stroke:gray;fill:none"/><path d="M165 71 " style="stroke:gray;fill:none"/><path d="M276 70 271 71 267 73 262 73 259 75 257 75 255 77 248 80 244 83 238 88 231 96 228 100 228 102 222 113 221 116 220 119 219 123 218 129 218 133 218 136 218 142 221 146 226 148 242 149 242 152 242 150 244 148 251 149 286 148 303 147 312 146 313 145 324 145 332 144 338 143 339 142 346 142 350 138 350 124 349 120 348 117 347 114 346 111 343 105 341 103 341 101 340 99 337 95 335 92 331 88 325 83 321 80 319 79 317 79 314 77 309 74 306 73 303 72 300 71 292 70 " style="stroke:gray;fill:none"/><path d="M276 70 292 70 300 71 303 73 305 73 308 75 310 75 312 77 316 79 318 79 320 80 324 83 330 88 335 93 337 96 340 100 341 102 341 104 344 107 346 111 347 114 348 117 349 120 350 124 350 137 347 140 343 136 343 122 337 117 334 116 331 115 328 114 325 113 322 112 319 111 316 110 313 109 310 108 307 107 304 106 301 105 299 105 295 104 292 103 289 101 287 101 284 100 281 99 278 98 275 97 272 96 269 95 266 94 263 92 261 92 258 91 256 90 251 85 252 83 254 82 255 80 258 80 261 81 264 83 266 83 269 84 272 85 275 86 278 87 281 88 284 90 287 91 290 92 293 93 296 94 300 95 303 96 305 96 308 97 311 98 314 99 315 100 318 101 321 102 323 102 326 104 330 105 333 106 336 105 342 111 343 113 343 115 341 117 343 115 343 113 341 109 338 106 336 105 339 104 338 103 336 105 332 105 330 105 326 104 323 102 321 102 318 101 315 100 312 99 311 98 308 97 305 96 303 96 300 95 296 94 293 93 290 92 287 91 284 90 281 88 278 87 275 86 272 85 269 84 266 83 264 83 261 81 258 80 254 80 252 82 252 87 254 89 258 91 260 91 263 92 266 94 269 95 272 96 275 97 278 98 281 99 284 100 287 101 289 101 292 103 295 104 298 104 301 105 304 106 307 107 310 108 313 109 316 110 319 111 322 112 325 113 328 114 331 115 334 116 337 117 339 118 343 122 342 139 344 138 347 140 345 142 338 143 332 144 324 145 313 145 304 146 303 147 286 148 253 148 252 146 248 143 246 140 245 137 244 134 243 130 242 125 244 112 246 114 245 116 246 114 248 115 252 117 254 119 266 125 268 125 279 131 282 132 284 132 289 135 292 136 294 136 297 138 299 138 302 140 304 140 309 143 311 144 309 143 304 140 302 140 299 138 297 138 294 136 292 136 289 135 284 132 282 132 279 131 268 125 266 125 256 120 254 118 249 116 244 112 243 108 249 105 256 108 258 110 274 118 276 118 283 122 286 123 288 123 293 126 295 126 298 128 300 128 303 129 308 132 310 132 313 134 315 134 322 138 324 138 326 142 326 139 324 138 322 138 315 134 313 134 310 132 308 132 303 129 301 129 298 128 295 126 293 126 288 123 286 123 283 122 276 118 274 118 260 111 258 109 249 105 245 105 243 103 244 99 245 96 247 93 247 90 248 88 249 86 248 88 247 90 247 93 244 98 244 101 243 103 245 105 243 107 242 113 242 125 243 130 244 134 245 137 246 140 247 142 249 145 251 149 244 148 241 148 226 148 223 147 221 145 219 143 218 136 218 133 218 129 219 123 220 119 221 116 222 113 228 101 231 97 238 90 240 88 245 83 249 80 252 78 262 73 267 73 270 72 271 71 " style="stroke:gray;fill:none"/><path d="M150 70 147 72 148 80 150 81 152 79 157 76 159 78 162 78 164 79 167 81 170 83 174 86 178 89 181 91 186 95 191 99 197 105 204 111 210 116 212 116 214 115 215 112 200 97 196 94 193 92 189 89 185 86 182 84 179 82 174 80 172 78 170 78 166 76 163 73 161 72 157 71 153 70 " style="stroke:gray;fill:none"/><path d="M158 72 160 72 164 74 167 77 169 78 171 78 173 80 178 82 181 84 184 86 188 89 191 92 194 94 195 94 200 99 215 113 211 116 206 111 199 105 192 99 187 95 182 91 179 89 175 86 171 83 168 81 165 79 163 78 160 78 158 77 156 74 " style="stroke:gray;fill:none"/><path d="M151 70 153 70 156 74 156 75 152 79 149 77 152 79 150 81 148 80 148 72 " style="stroke:gray;fill:none"/><path d="M273 69 " style="stroke:gray;fill:none"/><path d="M158 68 161 69 163 70 161 69 " style="stroke:gray;fill:none"/><path d="M295 67 304 67 307 68 309 71 309 69 307 68 304 67 " style="stroke:gray;fill:none"/><path d="M281 68 " style="stroke:gray;fill:none"/><path d="M155 67 " style="stroke:gray;fill:none"/><path d="M147 66 144 67 144 70 143 73 142 74 142 77 144 80 143 78 142 74 143 71 145 67 147 66 150 66 " style="stroke:gray;fill:none"/><path d="M284 65 286 66 288 67 286 66 " style="stroke:gray;fill:none"/><path d="M283 63 " style="stroke:gray;fill:none"/><path d="M284 61 " style="stroke:gray;fill:none"/><path d="M195 61 191 62 191 64 192 62 193 64 194 62 195 66 " style="stroke:gray;fill:none"/><path d="M63 61 65 63 " style="stroke:gray;fill:none"/><path d="M60 59 59 61 59 63 60 65 67 66 67 60 65 59 " style="stroke:gray;fill:none"/><path d="M61 59 64 59 66 60 66 66 60 65 59 63 59 61 " style="stroke:gray;fill:none"/><path d="M198 58 197 62 " style="stroke:gray;fill:none"/><path d="M283 54 284 57 " style="stroke:gray;fill:none"/><path d="M196 42 194 43 193 45 194 47 197 48 200 48 201 45 200 42 " style="stroke:gray;fill:none"/><path d="M196 42 199 42 201 45 199 47 196 48 193 45 " style="stroke:gray;fill:none"/><path d="M277 37 280 36 283 39 284 41 284 46 283 48 284 46 284 40 282 37 280 36 " style="stroke:gray;fill:none"/><path d="M273 36 275 38 276 40 275 37 " style="stroke:gray;fill:none"/><path d="M271 35 " style="stroke:gray;fill:none"/><path d="M257 33 263 37 271 45 273 48 273 50 275 52 277 57 279 58 276 55 271 44 265 38 260 34 " style="stroke:gray;fill:none"/><path d="M260 27 262 28 " style="stroke:gray;fill:none"/><path d="M257 26 " style="stroke:gray;fill:none"/><path d="M234 25 230 26 227 27 224 28 220 30 217 32 214 34 208 40 205 44 202 50 201 53 200 56 199 61 199 73 200 77 201 80 202 83 204 86 204 88 206 91 208 94 213 99 216 101 221 101 224 98 226 95 226 94 241 79 244 77 247 75 250 73 254 71 256 71 261 68 264 67 268 66 271 66 276 65 279 64 281 62 281 56 280 52 279 49 278 47 276 44 273 40 266 33 263 31 261 30 259 30 252 26 249 25 " style="stroke:gray;fill:none"/><path d="M235 25 248 25 251 26 254 27 257 29 257 31 260 30 262 31 265 33 273 41 277 46 280 52 281 56 281 61 278 64 276 65 271 66 267 67 264 67 260 68 255 71 253 71 249 73 246 75 243 77 239 80 227 92 225 95 225 96 220 101 217 101 214 99 208 93 206 90 204 87 204 85 201 80 200 77 199 73 199 61 200 57 201 54 202 51 205 45 208 41 215 34 218 32 221 30 225 28 228 27 231 26 " style="stroke:gray;fill:none"/><path d="M338 22 337 26 338 29 345 28 344 23 342 22 " style="stroke:gray;fill:none"/><path d="M339 22 342 22 345 25 345 27 343 29 339 29 338 25 " style="stroke:gray;fill:none"/></svg>