<svg width="429px" height="547px" xmlns="http://www.w3.org/2000/svg"><path d="M89 508 " style="stroke:gray;fill:none"/><path d="M152 504 " style="stroke:gray;fill:none"/><path d="M171 498 169 499 166 503 162 503 157 503 154 501 151 501 149 502 148 504 148 507 149 510 151 513 158 520 162 523 164 524 167 524 171 524 175 520 176 517 177 514 177 504 176 501 175 499 173 498 " style="stroke:gray;fill:none"/><path d="M174 499 176 501 177 504 177 514 176 517 175 519 167 524 165 524 163 523 159 520 151 512 149 509 148 507 148 504 151 501 154 501 159 503 162 503 165 505 168 502 " style="stroke:gray;fill:none"/><path d="M151 497 " style="stroke:gray;fill:none"/><path d="M172 493 " style="stroke:gray;fill:none"/><path d="M143 489 141 490 140 493 140 496 140 498 142 502 144 504 145 506 146 508 145 505 144 503 142 501 140 498 140 496 140 492 144 491 145 489 147 491 147 493 151 494 153 497 158 499 160 499 163 497 166 496 169 495 171 495 173 496 168 495 165 497 163 497 160 499 158 499 157 497 155 498 153 495 150 494 147 492 146 489 " style="stroke:gray;fill:none"/><path d="M120 487 124 487 " style="stroke:gray;fill:none"/><path d="M144 483 142 487 138 489 138 492 138 490 142 487 " style="stroke:gray;fill:none"/><path d="M95 482 97 485 " style="stroke:gray;fill:none"/><path d="M128 477 " style="stroke:gray;fill:none"/><path d="M282 476 281 479 283 482 285 481 285 476 " style="stroke:gray;fill:none"/><path d="M282 477 284 476 286 479 283 481 281 479 " style="stroke:gray;fill:none"/><path d="M181 477 " style="stroke:gray;fill:none"/><path d="M123 476 125 478 123 480 116 480 123 480 125 478 130 483 129 486 130 482 125 478 " style="stroke:gray;fill:none"/><path d="M178 476 " style="stroke:gray;fill:none"/><path d="M126 476 " style="stroke:gray;fill:none"/><path d="M167 474 164 477 161 480 159 484 159 488 162 490 159 487 159 484 160 482 163 478 167 474 169 474 " style="stroke:gray;fill:none"/><path d="M32 471 34 473 31 475 27 473 27 477 31 477 34 476 34 473 " style="stroke:gray;fill:none"/><path d="M28 473 31 474 30 477 28 477 26 475 " style="stroke:gray;fill:none"/><path d="M27 470 30 470 " style="stroke:gray;fill:none"/><path d="M103 469 102 471 100 472 97 474 96 476 95 479 91 482 90 485 89 488 88 491 88 502 89 504 92 507 98 507 101 506 105 505 117 499 120 497 123 495 126 492 127 487 126 484 124 483 122 483 118 485 115 488 111 490 106 490 102 487 99 484 99 481 101 478 101 476 98 474 101 472 103 473 105 474 107 476 111 478 113 479 115 476 114 478 112 478 108 476 106 474 104 473 101 472 " style="stroke:gray;fill:none"/><path d="M98 474 100 479 99 481 99 485 101 487 104 489 106 490 111 490 114 488 116 488 120 484 122 483 124 483 127 486 128 488 126 490 122 495 119 497 116 499 104 505 101 506 98 507 93 507 88 502 88 491 89 488 90 485 91 483 96 479 96 477 " style="stroke:gray;fill:none"/><path d="M170 467 " style="stroke:gray;fill:none"/><path d="M170 463 " style="stroke:gray;fill:none"/><path d="M178 464 177 466 179 469 177 466 178 464 180 462 " style="stroke:gray;fill:none"/><path d="M190 460 " style="stroke:gray;fill:none"/><path d="M195 459 193 460 191 462 193 460 " style="stroke:gray;fill:none"/><path d="M178 460 175 461 173 463 173 468 177 472 181 473 186 473 189 470 189 466 188 464 185 461 183 460 181 460 " style="stroke:gray;fill:none"/><path d="M181 460 183 460 189 466 189 469 185 473 182 473 178 472 173 467 173 464 177 460 " style="stroke:gray;fill:none"/><path d="M172 459 " style="stroke:gray;fill:none"/><path d="M120 456 121 458 122 465 121 469 118 472 121 470 122 465 122 458 " style="stroke:gray;fill:none"/><path d="M102 447 101 449 102 461 104 464 104 466 107 470 111 473 114 474 124 474 128 470 129 468 130 465 131 460 131 456 130 454 124 453 118 454 115 453 112 451 107 446 " style="stroke:gray;fill:none"/><path d="M104 446 106 446 111 451 115 453 118 454 124 453 128 453 131 456 131 460 130 465 128 469 123 474 114 474 112 473 109 470 107 468 104 465 102 461 101 449 " style="stroke:gray;fill:none"/><path d="M138 444 136 445 133 448 132 450 " style="stroke:gray;fill:none"/><path d="M354 443 357 443 " style="stroke:gray;fill:none"/><path d="M107 442 107 444 " style="stroke:gray;fill:none"/><path d="M130 441 " style="stroke:gray;fill:none"/><path d="M123 440 123 443 120 446 122 445 " style="stroke:gray;fill:none"/><path d="M356 436 353 437 353 441 357 441 " style="stroke:gray;fill:none"/><path d="M354 437 357 438 356 441 353 440 " style="stroke:gray;fill:none"/><path d="M105 436 106 439 104 443 105 441 107 439 105 438 " style="stroke:gray;fill:none"/><path d="M123 432 " style="stroke:gray;fill:none"/><path d="M211 431 " style="stroke:gray;fill:none"/><path d="M203 433 206 431 " style="stroke:gray;fill:none"/><path d="M118 433 116 434 113 434 110 437 110 442 113 445 115 447 118 448 124 448 127 445 127 441 126 438 123 435 121 434 118 433 120 431 " style="stroke:gray;fill:none"/><path d="M116 434 119 434 122 435 126 439 127 441 127 444 123 448 118 448 116 447 113 445 111 443 110 441 110 438 114 434 " style="stroke:gray;fill:none"/><path d="M113 432 " style="stroke:gray;fill:none"/><path d="M181 428 178 429 174 431 171 434 169 438 168 442 168 452 170 454 168 452 168 442 169 438 170 436 176 430 178 429 181 428 183 428 188 429 191 430 193 431 197 435 195 432 191 430 188 429 183 428 " style="stroke:gray;fill:none"/><path d="M159 428 " style="stroke:gray;fill:none"/><path d="M149 425 " style="stroke:gray;fill:none"/><path d="M148 423 " style="stroke:gray;fill:none"/><path d="M114 407 117 406 120 407 124 409 130 415 131 417 132 420 132 427 128 430 131 429 132 427 132 420 131 417 129 413 126 410 120 407 117 406 " style="stroke:gray;fill:none"/><path d="M103 400 104 402 106 405 107 408 106 404 108 402 106 404 " style="stroke:gray;fill:none"/><path d="M218 393 " style="stroke:gray;fill:none"/><path d="M214 391 " style="stroke:gray;fill:none"/><path d="M223 389 " style="stroke:gray;fill:none"/><path d="M219 388 217 389 216 391 215 393 214 397 214 400 213 404 212 407 211 408 210 412 209 416 208 420 207 423 207 427 208 429 210 429 213 427 214 425 215 422 216 417 216 413 217 409 218 408 219 404 220 399 221 394 221 390 " style="stroke:gray;fill:none"/><path d="M219 388 221 390 221 394 220 399 219 404 218 408 217 412 216 413 216 417 215 422 214 425 210 429 208 428 207 423 208 420 209 416 210 412 211 408 212 405 213 401 214 397 215 393 216 391 " style="stroke:gray;fill:none"/><path d="M279 387 279 390 283 390 284 387 " style="stroke:gray;fill:none"/><path d="M283 387 282 390 279 388 " style="stroke:gray;fill:none"/><path d="M220 386 " style="stroke:gray;fill:none"/><path d="M217 386 " style="stroke:gray;fill:none"/><path d="M217 383 " style="stroke:gray;fill:none"/><path d="M107 383 106 385 106 388 105 393 104 394 104 397 105 399 108 400 110 398 111 396 112 392 112 385 111 383 " style="stroke:gray;fill:none"/><path d="M108 383 110 383 112 385 112 392 111 395 110 397 108 399 106 399 104 397 104 394 105 389 106 385 " style="stroke:gray;fill:none"/><path d="M113 383 115 382 " style="stroke:gray;fill:none"/><path d="M219 381 222 385 222 387 223 385 221 381 221 384 " style="stroke:gray;fill:none"/><path d="M185 382 " style="stroke:gray;fill:none"/><path d="M166 382 " style="stroke:gray;fill:none"/><path d="M107 381 111 381 " style="stroke:gray;fill:none"/><path d="M189 378 " style="stroke:gray;fill:none"/><path d="M139 376 137 377 133 381 132 383 132 385 132 388 132 390 135 396 137 399 139 401 143 404 146 406 156 411 160 412 164 413 169 414 180 414 187 413 191 412 194 411 197 410 200 408 203 406 201 408 197 410 194 411 191 412 187 413 180 414 169 414 164 413 160 412 156 411 148 407 145 405 141 402 136 397 134 394 132 390 132 388 132 385 132 383 " style="stroke:gray;fill:none"/><path d="M115 377 117 378 115 377 117 376 " style="stroke:gray;fill:none"/><path d="M106 376 107 378 " style="stroke:gray;fill:none"/><path d="M185 371 188 371 " style="stroke:gray;fill:none"/><path d="M185 371 188 371 " style="stroke:gray;fill:none"/><path d="M27 367 25 369 25 373 27 375 31 375 34 372 33 369 31 367 " style="stroke:gray;fill:none"/><path d="M28 367 30 367 33 370 33 372 30 375 28 375 25 372 25 370 " style="stroke:gray;fill:none"/><path d="M159 368 161 366 " style="stroke:gray;fill:none"/><path d="M118 366 115 370 112 371 110 371 112 371 115 370 117 369 " style="stroke:gray;fill:none"/><path d="M127 364 127 366 129 364 " style="stroke:gray;fill:none"/><path d="M128 366 " style="stroke:gray;fill:none"/><path d="M201 363 " style="stroke:gray;fill:none"/><path d="M152 363 151 367 155 367 154 364 " style="stroke:gray;fill:none"/><path d="M152 363 154 364 154 367 150 365 " style="stroke:gray;fill:none"/><path d="M140 362 138 365 " style="stroke:gray;fill:none"/><path d="M135 362 136 364 " style="stroke:gray;fill:none"/><path d="M123 362 " style="stroke:gray;fill:none"/><path d="M202 361 " style="stroke:gray;fill:none"/><path d="M186 361 189 363 189 359 " style="stroke:gray;fill:none"/><path d="M188 359 188 363 186 361 " style="stroke:gray;fill:none"/><path d="M140 360 " style="stroke:gray;fill:none"/><path d="M202 355 " style="stroke:gray;fill:none"/><path d="M169 356 " style="stroke:gray;fill:none"/><path d="M162 354 161 356 156 355 153 355 156 355 158 357 156 359 154 359 151 356 149 356 145 358 147 357 150 356 153 359 157 359 161 357 161 359 163 361 168 359 167 361 163 361 161 359 161 356 " style="stroke:gray;fill:none"/><path d="M202 351 " style="stroke:gray;fill:none"/><path d="M200 351 " style="stroke:gray;fill:none"/><path d="M138 350 139 352 " style="stroke:gray;fill:none"/><path d="M193 350 " style="stroke:gray;fill:none"/><path d="M196 348 196 350 " style="stroke:gray;fill:none"/><path d="M152 342 " style="stroke:gray;fill:none"/><path d="M148 342 150 343 " style="stroke:gray;fill:none"/><path d="M146 341 " style="stroke:gray;fill:none"/><path d="M152 340 " style="stroke:gray;fill:none"/><path d="M142 341 142 343 140 345 145 345 145 348 145 351 146 347 148 347 153 346 151 348 149 348 147 347 146 345 144 344 144 342 143 344 144 340 " style="stroke:gray;fill:none"/><path d="M330 340 332 342 334 342 335 338 " style="stroke:gray;fill:none"/><path d="M332 338 335 340 332 342 330 340 " style="stroke:gray;fill:none"/><path d="M147 337 " style="stroke:gray;fill:none"/><path d="M160 337 " style="stroke:gray;fill:none"/><path d="M158 337 " style="stroke:gray;fill:none"/><path d="M145 336 " style="stroke:gray;fill:none"/><path d="M110 335 112 335 " style="stroke:gray;fill:none"/><path d="M178 332 " style="stroke:gray;fill:none"/><path d="M144 331 145 334 148 334 152 336 150 337 148 339 146 339 144 338 146 339 149 340 150 337 152 337 152 335 150 335 146 334 " style="stroke:gray;fill:none"/><path d="M142 330 141 337 140 339 " style="stroke:gray;fill:none"/><path d="M110 330 113 330 " style="stroke:gray;fill:none"/><path d="M104 330 101 333 98 337 96 340 94 344 93 348 92 351 92 358 93 361 94 364 101 371 103 372 107 372 110 374 114 374 117 373 121 371 121 364 118 363 111 356 110 353 105 348 105 346 107 344 108 342 108 331 106 330 " style="stroke:gray;fill:none"/><path d="M106 330 108 332 108 342 106 344 105 346 105 348 106 350 110 354 111 357 117 363 119 363 122 366 122 369 120 371 117 373 114 374 110 374 107 372 104 372 102 371 94 363 93 361 92 358 92 351 93 348 94 345 96 341 98 338 101 334 " style="stroke:gray;fill:none"/><path d="M243 327 239 328 236 329 224 335 221 337 216 341 210 347 209 350 218 340 223 336 226 334 236 329 239 328 243 327 246 327 248 328 250 331 248 328 246 327 " style="stroke:gray;fill:none"/><path d="M124 326 121 327 118 328 115 331 114 333 114 350 116 354 120 358 122 359 126 360 132 360 135 359 138 357 140 355 142 352 142 348 139 348 136 342 136 339 137 335 138 334 138 331 137 329 135 327 132 326 " style="stroke:gray;fill:none"/><path d="M124 326 132 326 134 327 138 331 138 334 137 338 136 339 136 342 136 346 138 348 142 349 142 351 141 353 136 358 132 360 126 360 123 359 121 358 115 352 114 350 114 334 115 332 119 328 121 327 " style="stroke:gray;fill:none"/><path d="M136 325 " style="stroke:gray;fill:none"/><path d="M119 324 117 325 119 324 121 325 " style="stroke:gray;fill:none"/><path d="M132 324 " style="stroke:gray;fill:none"/><path d="M128 322 " style="stroke:gray;fill:none"/><path d="M254 321 " style="stroke:gray;fill:none"/><path d="M140 320 " style="stroke:gray;fill:none"/><path d="M137 319 " style="stroke:gray;fill:none"/><path d="M273 316 " style="stroke:gray;fill:none"/><path d="M202 316 202 318 198 322 194 325 191 327 187 329 185 329 182 331 180 331 182 331 185 329 187 329 193 326 196 324 200 321 202 319 " style="stroke:gray;fill:none"/><path d="M124 316 118 317 116 318 114 321 110 324 107 325 106 327 109 324 112 323 118 317 " style="stroke:gray;fill:none"/><path d="M234 315 232 316 224 324 219 328 216 330 214 330 212 332 208 334 205 335 202 336 199 337 195 338 190 339 184 340 162 339 156 339 154 340 154 343 157 346 162 347 172 348 169 352 162 352 159 350 155 349 153 350 150 353 145 355 143 357 142 361 142 368 147 373 153 376 155 376 157 375 159 377 161 378 165 379 171 380 178 380 184 379 187 377 188 374 191 376 194 375 196 373 197 370 198 367 199 360 199 355 196 352 191 352 189 349 189 353 177 353 175 354 173 355 171 358 171 361 168 366 167 371 165 371 158 370 155 371 156 375 153 375 148 373 142 367 142 362 143 357 145 355 147 354 151 353 153 350 155 349 159 350 162 352 170 353 173 352 172 349 174 347 182 347 184 349 184 351 184 349 186 347 194 346 203 346 205 348 206 350 206 354 205 358 204 363 203 369 202 373 200 377 197 380 194 382 191 383 187 384 184 385 166 385 162 384 158 383 155 382 152 381 150 379 143 376 138 370 135 367 131 367 127 372 125 374 119 379 117 382 116 386 114 386 117 387 118 391 118 393 117 396 115 400 113 402 112 405 110 407 108 411 107 414 106 417 105 420 104 424 104 429 106 432 108 432 111 429 113 428 121 428 123 429 128 433 130 435 132 438 132 439 137 440 140 437 142 434 145 430 145 428 145 425 144 422 147 420 149 421 151 421 153 422 156 424 159 425 161 424 163 426 162 429 158 432 157 435 157 449 156 454 155 458 154 462 153 465 150 470 150 472 147 477 146 481 147 484 148 486 150 489 152 491 156 493 162 493 165 492 168 490 170 490 174 487 178 483 178 479 173 475 171 473 167 468 167 466 167 463 168 460 172 456 175 454 184 454 186 456 188 457 192 457 195 454 196 451 197 448 198 445 199 441 200 437 201 431 201 425 202 421 203 417 204 414 205 410 206 406 207 402 208 399 209 398 209 395 210 390 211 387 213 383 218 378 234 363 238 358 241 354 243 351 245 348 247 345 251 337 251 334 253 331 253 327 252 325 250 323 247 323 244 321 241 318 238 316 236 315 " style="stroke:gray;fill:none"/><path d="M190 352 195 352 199 356 199 360 198 367 197 370 196 372 193 375 191 376 188 374 183 379 178 380 171 380 165 379 161 378 158 376 156 371 159 370 165 371 167 371 169 370 168 366 171 361 171 359 172 357 175 354 177 353 " style="stroke:gray;fill:none"/><path d="M234 315 236 315 239 318 243 321 247 323 249 323 252 326 253 328 253 331 251 334 251 336 247 344 245 347 243 350 241 353 238 357 234 362 217 378 213 382 212 384 211 387 210 390 210 394 209 398 206 404 205 413 203 417 202 421 201 425 201 431 200 437 199 441 198 445 197 448 196 451 195 453 191 457 189 457 184 454 175 454 173 455 170 457 168 459 167 461 167 463 167 466 167 468 168 470 171 473 173 475 178 480 178 482 173 487 169 490 167 490 162 493 156 493 154 492 149 487 147 484 146 481 147 477 152 468 153 465 154 462 155 458 156 454 157 449 157 435 158 433 163 429 163 425 161 424 156 424 151 421 149 421 147 420 144 420 144 422 145 425 145 429 142 433 140 436 136 440 134 440 132 438 130 435 128 433 124 429 121 428 113 428 110 429 108 431 105 430 104 428 104 424 105 420 106 417 107 414 112 404 114 402 116 399 117 396 118 393 118 391 117 383 118 381 125 374 127 372 132 367 134 367 138 371 142 376 152 381 155 382 158 383 162 384 166 385 184 385 187 384 191 383 194 382 198 380 200 378 202 374 203 369 203 364 204 359 205 358 206 354 206 349 205 347 194 346 186 347 185 348 183 348 174 347 171 347 162 347 158 346 154 341 156 339 162 339 184 340 190 339 195 338 199 337 202 336 205 335 208 334 218 329 221 327 225 324 " style="stroke:gray;fill:none"/><path d="M406 314 408 314 " style="stroke:gray;fill:none"/><path d="M138 313 136 315 " style="stroke:gray;fill:none"/><path d="M233 312 " style="stroke:gray;fill:none"/><path d="M135 311 " style="stroke:gray;fill:none"/><path d="M133 311 " style="stroke:gray;fill:none"/><path d="M124 311 127 313 128 317 128 320 124 320 125 322 125 320 131 320 131 317 130 319 128 317 128 313 126 312 " style="stroke:gray;fill:none"/><path d="M239 309 " style="stroke:gray;fill:none"/><path d="M119 309 " style="stroke:gray;fill:none"/><path d="M408 307 406 308 404 308 403 310 405 312 406 310 407 312 411 311 412 309 410 307 " style="stroke:gray;fill:none"/><path d="M409 307 411 310 408 312 406 309 " style="stroke:gray;fill:none"/><path d="M261 307 262 309 264 310 270 310 264 310 " style="stroke:gray;fill:none"/><path d="M236 305 235 312 237 311 " style="stroke:gray;fill:none"/><path d="M255 303 " style="stroke:gray;fill:none"/><path d="M243 301 241 303 241 305 " style="stroke:gray;fill:none"/><path d="M238 301 239 304 " style="stroke:gray;fill:none"/><path d="M230 300 226 302 224 304 221 305 219 307 215 309 213 309 210 311 207 312 204 313 201 314 198 315 194 316 189 317 184 318 174 319 153 319 141 318 140 317 133 317 134 321 137 321 143 327 147 330 149 331 152 332 156 333 160 334 187 334 191 333 196 332 199 331 202 330 211 325 213 325 216 323 219 321 228 312 232 307 233 304 233 300 " style="stroke:gray;fill:none"/><path d="M230 301 233 301 233 304 232 306 229 310 218 321 215 323 212 325 202 330 199 331 196 332 191 333 187 334 160 334 156 333 152 332 149 331 144 327 138 321 135 321 134 317 140 317 152 318 153 319 174 319 184 318 189 317 194 316 198 315 201 314 204 313 207 312 210 311 213 309 215 309 223 305 225 303 " style="stroke:gray;fill:none"/><path d="M258 299 " style="stroke:gray;fill:none"/><path d="M112 298 " style="stroke:gray;fill:none"/><path d="M233 298 235 299 " style="stroke:gray;fill:none"/><path d="M241 296 " style="stroke:gray;fill:none"/><path d="M184 295 " style="stroke:gray;fill:none"/><path d="M241 294 " style="stroke:gray;fill:none"/><path d="M187 293 " style="stroke:gray;fill:none"/><path d="M247 291 245 292 244 296 245 298 247 300 250 301 252 300 253 298 253 296 251 292 " style="stroke:gray;fill:none"/><path d="M247 291 249 291 251 293 253 296 253 298 249 301 244 296 244 294 " style="stroke:gray;fill:none"/><path d="M235 291 " style="stroke:gray;fill:none"/><path d="M231 291 229 292 228 294 227 296 228 298 228 294 231 291 233 291 " style="stroke:gray;fill:none"/><path d="M126 290 127 292 127 294 129 297 129 299 131 303 134 306 133 304 131 302 127 294 127 292 " style="stroke:gray;fill:none"/><path d="M240 289 237 292 237 297 237 292 242 291 242 289 " style="stroke:gray;fill:none"/><path d="M128 289 129 291 129 293 130 295 132 297 135 303 136 306 138 307 135 304 131 295 129 293 129 291 " style="stroke:gray;fill:none"/><path d="M230 285 " style="stroke:gray;fill:none"/><path d="M110 284 " style="stroke:gray;fill:none"/><path d="M108 282 108 285 " style="stroke:gray;fill:none"/><path d="M102 282 99 283 " style="stroke:gray;fill:none"/><path d="M259 281 257 282 255 284 255 288 256 290 258 292 261 298 261 301 260 303 257 306 255 307 246 306 242 308 242 311 245 314 248 317 251 318 255 319 262 319 265 318 269 316 275 310 277 307 278 304 279 301 279 293 278 290 277 288 272 283 270 283 267 281 " style="stroke:gray;fill:none"/><path d="M259 281 267 281 271 283 278 290 279 293 279 301 278 304 277 306 275 309 267 317 265 318 262 319 255 319 251 318 249 317 245 314 243 312 242 309 244 307 246 306 256 307 258 306 260 304 261 301 261 298 260 295 258 291 256 289 255 287 255 285 " style="stroke:gray;fill:none"/><path d="M108 280 " style="stroke:gray;fill:none"/><path d="M252 277 " style="stroke:gray;fill:none"/><path d="M246 277 245 282 245 286 250 286 252 286 250 286 247 287 245 282 246 277 249 278 " style="stroke:gray;fill:none"/><path d="M273 276 272 278 272 280 272 278 275 275 " style="stroke:gray;fill:none"/><path d="M139 272 137 273 137 281 144 280 145 278 145 275 142 272 " style="stroke:gray;fill:none"/><path d="M139 272 141 272 145 276 145 278 142 281 138 281 136 279 136 275 " style="stroke:gray;fill:none"/><path d="M109 271 109 273 " style="stroke:gray;fill:none"/><path d="M267 269 " style="stroke:gray;fill:none"/><path d="M118 269 " style="stroke:gray;fill:none"/><path d="M107 269 106 271 106 275 107 277 106 275 106 271 " style="stroke:gray;fill:none"/><path d="M236 268 234 270 233 280 234 288 236 289 239 286 239 284 241 281 241 269 239 268 " style="stroke:gray;fill:none"/><path d="M240 269 241 281 239 285 235 288 233 286 233 280 234 271 " style="stroke:gray;fill:none"/><path d="M244 267 " style="stroke:gray;fill:none"/><path d="M120 266 " style="stroke:gray;fill:none"/><path d="M212 265 210 267 209 274 207 278 205 281 203 284 198 289 193 293 189 294 187 296 185 298 180 300 178 302 174 305 171 306 169 306 164 309 161 310 156 311 150 311 156 311 161 310 164 309 169 306 171 306 174 305 176 304 179 301 182 299 184 299 186 297 189 296 190 298 194 298 198 297 201 296 203 295 206 293 210 289 213 285 214 283 215 280 216 276 216 268 215 266 " style="stroke:gray;fill:none"/><path d="M190 293 192 293 194 295 195 297 191 298 189 296 " style="stroke:gray;fill:none"/><path d="M212 265 215 266 216 269 216 276 215 279 214 282 213 284 210 288 205 293 202 295 200 296 197 297 194 296 193 294 199 289 203 285 205 282 207 279 208 277 208 275 209 272 210 270 213 268 210 267 " style="stroke:gray;fill:none"/><path d="M240 264 242 267 " style="stroke:gray;fill:none"/><path d="M120 264 " style="stroke:gray;fill:none"/><path d="M244 264 " style="stroke:gray;fill:none"/><path d="M282 262 " style="stroke:gray;fill:none"/><path d="M233 268 233 262 " style="stroke:gray;fill:none"/><path d="M208 262 " style="stroke:gray;fill:none"/><path d="M98 261 97 264 96 267 95 268 95 282 96 286 98 289 98 291 100 295 103 298 107 297 107 293 106 291 105 287 104 281 103 276 103 264 102 262 " style="stroke:gray;fill:none"/><path d="M97 263 101 262 103 264 103 276 104 281 105 287 106 291 107 293 108 295 104 298 100 294 96 286 95 282 95 268 96 265 " style="stroke:gray;fill:none"/><path d="M266 260 " style="stroke:gray;fill:none"/><path d="M162 259 162 261 164 260 " style="stroke:gray;fill:none"/><path d="M106 259 104 260 " style="stroke:gray;fill:none"/><path d="M100 259 " style="stroke:gray;fill:none"/><path d="M147 258 " style="stroke:gray;fill:none"/><path d="M249 253 252 253 " style="stroke:gray;fill:none"/><path d="M119 251 " style="stroke:gray;fill:none"/><path d="M144 250 145 253 " style="stroke:gray;fill:none"/><path d="M144 250 144 253 " style="stroke:gray;fill:none"/><path d="M111 251 109 254 108 259 108 265 109 268 112 271 112 279 114 281 114 285 112 288 112 290 113 293 114 296 116 299 116 301 117 303 123 309 128 308 128 306 128 302 126 300 124 296 124 294 122 291 122 289 121 287 117 283 116 281 115 274 115 270 117 267 117 254 116 252 114 250 " style="stroke:gray;fill:none"/><path d="M114 250 116 252 117 254 117 266 115 269 115 274 116 281 117 284 122 289 122 291 124 294 124 296 127 302 129 305 128 307 123 308 117 302 114 296 113 293 112 290 112 288 114 285 114 281 112 278 112 270 109 267 108 265 108 259 109 255 111 252 " style="stroke:gray;fill:none"/><path d="M228 249 " style="stroke:gray;fill:none"/><path d="M283 245 " style="stroke:gray;fill:none"/><path d="M227 244 " style="stroke:gray;fill:none"/><path d="M145 244 143 248 145 248 " style="stroke:gray;fill:none"/><path d="M116 243 116 245 " style="stroke:gray;fill:none"/><path d="M26 243 26 247 30 246 30 243 " style="stroke:gray;fill:none"/><path d="M27 243 30 245 26 246 " style="stroke:gray;fill:none"/><path d="M393 243 " style="stroke:gray;fill:none"/><path d="M166 242 166 244 168 244 " style="stroke:gray;fill:none"/><path d="M167 244 " style="stroke:gray;fill:none"/><path d="M145 242 " style="stroke:gray;fill:none"/><path d="M388 241 " style="stroke:gray;fill:none"/><path d="M147 240 " style="stroke:gray;fill:none"/><path d="M149 238 " style="stroke:gray;fill:none"/><path d="M112 238 113 240 112 242 112 246 112 248 114 247 119 245 117 247 112 246 112 242 " style="stroke:gray;fill:none"/><path d="M243 236 242 239 244 243 244 245 245 249 246 250 247 253 248 262 249 274 252 274 254 272 255 268 255 253 254 249 253 245 251 242 251 240 247 236 " style="stroke:gray;fill:none"/><path d="M243 237 246 236 251 241 253 245 254 249 255 253 255 268 254 271 252 273 250 274 248 272 248 262 247 253 246 250 245 246 244 245 243 242 242 239 " style="stroke:gray;fill:none"/><path d="M154 236 158 237 " style="stroke:gray;fill:none"/><path d="M112 236 " style="stroke:gray;fill:none"/><path d="M386 238 387 244 390 244 391 242 391 238 387 237 392 236 393 238 392 236 " style="stroke:gray;fill:none"/><path d="M387 238 391 239 391 241 390 243 388 244 386 242 " style="stroke:gray;fill:none"/><path d="M229 236 228 238 228 240 229 244 230 247 231 250 235 254 236 256 236 266 237 262 238 265 238 262 239 258 237 253 239 251 239 247 238 244 235 238 232 235 " style="stroke:gray;fill:none"/><path d="M231 235 236 240 238 244 239 247 239 250 237 252 237 254 238 257 239 258 236 261 236 256 235 253 231 249 230 247 229 244 228 240 228 238 " style="stroke:gray;fill:none"/><path d="M273 233 273 236 271 241 269 241 270 245 269 257 268 258 268 264 268 258 269 246 270 245 269 242 272 240 273 236 " style="stroke:gray;fill:none"/><path d="M154 233 151 234 147 236 143 240 142 242 141 245 141 249 141 252 141 254 143 258 148 263 151 264 161 264 164 263 166 262 169 259 171 255 171 243 170 241 165 236 161 234 158 233 " style="stroke:gray;fill:none"/><path d="M150 260 " style="stroke:gray;fill:none"/><path d="M154 233 158 233 161 234 163 235 171 243 171 255 170 257 164 263 161 264 151 264 148 262 151 258 149 258 150 260 148 262 146 260 144 258 142 256 141 254 141 252 141 249 141 245 143 241 149 235 151 234 " style="stroke:gray;fill:none"/><path d="M268 231 268 235 264 242 264 255 263 259 262 262 260 265 260 274 263 276 259 277 257 279 254 279 253 282 252 284 254 280 257 279 260 277 263 277 263 275 260 274 260 265 262 262 263 259 264 255 264 242 266 238 268 236 270 237 268 236 270 235 268 234 " style="stroke:gray;fill:none"/><path d="M242 231 239 234 235 234 240 234 243 231 245 233 244 231 " style="stroke:gray;fill:none"/><path d="M342 228 " style="stroke:gray;fill:none"/><path d="M222 228 222 230 224 232 226 233 228 234 226 233 223 227 225 226 " style="stroke:gray;fill:none"/><path d="M170 225 165 226 164 227 158 227 154 228 151 229 148 230 145 231 140 234 138 234 130 238 125 243 130 238 138 234 140 234 145 231 148 230 151 229 154 228 158 227 164 227 169 226 170 225 187 225 191 226 195 228 198 230 204 236 207 240 208 242 209 245 210 249 211 256 211 262 209 264 204 275 202 277 201 280 198 284 195 288 193 290 197 286 200 282 201 279 203 277 208 266 210 264 211 262 211 256 210 249 209 245 208 242 206 238 203 234 200 231 197 229 191 226 187 225 " style="stroke:gray;fill:none"/><path d="M298 224 297 229 294 231 291 234 290 238 288 241 285 244 285 246 283 248 280 252 279 256 276 258 274 261 274 262 272 264 270 264 272 266 270 268 268 266 269 268 272 267 272 265 274 262 276 259 280 256 280 253 283 249 285 247 285 245 288 242 290 239 291 237 292 234 294 232 296 230 298 234 296 236 293 240 291 245 289 247 287 249 287 251 284 254 283 256 282 259 278 264 278 266 276 268 276 270 273 273 270 274 267 274 265 272 263 271 265 269 265 267 263 266 265 265 266 262 263 266 265 268 263 271 266 274 270 274 274 273 276 271 276 269 278 267 278 265 279 262 283 259 284 255 287 252 287 250 289 249 291 246 293 241 296 237 300 233 300 230 304 227 301 228 300 230 297 233 296 230 298 228 " style="stroke:gray;fill:none"/><path d="M227 223 228 227 229 229 231 231 228 227 " style="stroke:gray;fill:none"/><path d="M170 221 164 222 160 223 156 224 153 225 150 226 147 227 142 230 140 230 134 233 132 235 127 237 122 242 121 239 120 242 122 246 122 270 123 277 124 280 125 284 126 285 126 288 126 284 125 280 124 279 123 276 124 274 122 270 123 246 121 245 122 243 129 236 134 234 136 232 140 230 142 230 147 227 150 226 153 225 156 224 160 223 164 222 170 221 191 221 196 222 202 223 206 224 209 225 212 226 216 228 221 233 222 235 222 237 224 240 225 243 226 247 227 252 228 257 229 262 228 270 228 273 228 276 227 282 227 289 226 292 224 296 220 300 217 302 211 305 209 305 206 307 202 308 199 309 196 310 192 311 188 312 179 313 149 313 143 312 140 311 138 310 136 308 134 309 132 308 129 311 133 315 132 313 129 311 132 308 134 309 139 311 142 312 148 313 179 313 188 312 192 311 196 310 199 309 202 308 206 307 209 305 211 305 221 300 223 298 225 295 226 292 227 289 227 282 228 276 228 273 228 270 229 262 228 257 227 256 229 251 227 252 225 246 226 242 224 242 224 240 222 237 222 235 220 231 218 229 212 226 209 225 206 224 202 223 196 222 191 221 " style="stroke:gray;fill:none"/><path d="M349 221 " style="stroke:gray;fill:none"/><path d="M216 209 " style="stroke:gray;fill:none"/><path d="M274 207 273 211 273 214 272 217 271 221 270 222 270 225 269 229 269 227 270 225 271 229 270 233 271 229 272 225 270 224 272 223 272 218 275 219 275 226 273 231 274 228 275 222 276 220 273 218 273 215 273 211 272 209 274 207 277 208 277 217 276 207 " style="stroke:gray;fill:none"/><path d="M210 204 211 206 " style="stroke:gray;fill:none"/><path d="M365 202 364 204 364 206 362 210 359 214 355 217 353 219 350 223 348 224 345 223 342 225 340 226 338 228 335 229 330 230 319 230 315 229 314 228 307 227 313 228 317 229 318 230 332 229 335 230 337 228 339 228 341 226 344 224 348 224 345 227 347 226 351 223 353 221 356 217 357 217 359 215 362 211 364 207 364 205 " style="stroke:gray;fill:none"/><path d="M205 203 207 202 " style="stroke:gray;fill:none"/><path d="M167 202 170 202 174 203 177 204 180 205 186 208 189 210 191 212 191 214 191 211 188 209 180 205 177 204 174 203 170 202 " style="stroke:gray;fill:none"/><path d="M323 201 322 205 324 209 329 208 329 204 326 201 " style="stroke:gray;fill:none"/><path d="M323 201 325 201 327 202 329 204 328 209 325 209 323 207 321 203 " style="stroke:gray;fill:none"/><path d="M302 201 301 204 " style="stroke:gray;fill:none"/><path d="M225 201 " style="stroke:gray;fill:none"/><path d="M308 200 " style="stroke:gray;fill:none"/><path d="M274 200 278 201 280 201 278 201 " style="stroke:gray;fill:none"/><path d="M255 200 253 203 252 208 253 232 252 234 250 236 252 234 255 232 256 228 259 229 259 233 257 235 254 238 256 235 258 235 259 233 259 229 259 211 258 208 259 202 258 208 256 208 254 210 252 208 254 204 255 206 253 203 " style="stroke:gray;fill:none"/><path d="M257 208 258 212 257 228 254 232 253 211 " style="stroke:gray;fill:none"/><path d="M310 199 " style="stroke:gray;fill:none"/><path d="M165 199 162 200 161 201 156 201 153 202 150 203 147 205 145 205 142 206 138 208 135 210 131 213 127 216 122 221 119 225 117 228 116 230 115 233 115 238 118 238 120 237 123 235 125 233 128 231 131 229 143 223 145 223 148 221 151 220 155 219 158 218 164 217 171 216 191 216 196 217 202 218 206 219 210 220 213 221 214 222 217 223 220 224 222 224 224 223 224 219 217 212 214 210 211 208 203 204 201 204 198 202 195 201 192 200 187 199 " style="stroke:gray;fill:none"/><path d="M165 199 187 199 192 200 195 201 198 202 201 204 203 204 209 207 212 209 216 212 224 220 224 222 222 224 220 224 217 223 214 222 211 221 210 220 206 219 202 218 196 217 191 216 171 216 164 217 158 218 155 219 151 220 148 221 145 223 142 223 140 225 134 228 132 228 130 229 127 231 124 233 122 235 119 237 115 237 115 233 117 229 119 226 122 222 128 216 132 213 136 210 139 208 145 205 147 205 150 203 153 202 156 201 161 201 " style="stroke:gray;fill:none"/><path d="M253 198 " style="stroke:gray;fill:none"/><path d="M317 197 315 198 312 199 315 199 " style="stroke:gray;fill:none"/><path d="M293 197 289 198 288 199 280 199 288 199 292 198 293 197 295 197 " style="stroke:gray;fill:none"/><path d="M242 196 241 198 " style="stroke:gray;fill:none"/><path d="M189 198 190 196 193 196 195 199 195 197 193 196 " style="stroke:gray;fill:none"/><path d="M300 195 297 196 " style="stroke:gray;fill:none"/><path d="M251 195 " style="stroke:gray;fill:none"/><path d="M248 195 246 197 246 202 246 204 247 207 246 217 247 218 247 224 247 218 246 208 247 207 247 205 246 202 246 197 " style="stroke:gray;fill:none"/><path d="M168 195 " style="stroke:gray;fill:none"/><path d="M320 194 319 196 " style="stroke:gray;fill:none"/><path d="M246 192 " style="stroke:gray;fill:none"/><path d="M361 191 360 193 360 197 360 198 363 199 365 200 366 198 366 196 364 192 " style="stroke:gray;fill:none"/><path d="M362 191 365 194 366 196 366 198 364 200 360 198 360 194 360 193 " style="stroke:gray;fill:none"/><path d="M240 188 240 193 238 194 236 195 233 197 228 202 225 204 221 206 218 207 214 207 216 207 218 207 222 206 226 204 229 202 235 196 237 195 239 197 240 201 241 208 241 219 243 225 242 226 245 226 242 226 242 223 241 219 241 208 239 202 240 200 239 197 237 195 240 193 243 192 239 192 240 188 242 189 " style="stroke:gray;fill:none"/><path d="M170 188 171 190 173 191 175 192 187 192 193 193 196 194 201 197 203 197 206 199 208 199 210 200 212 202 216 204 219 204 217 204 213 202 211 200 209 199 206 198 204 198 201 196 199 196 196 194 193 193 187 192 175 192 173 191 " style="stroke:gray;fill:none"/><path d="M367 179 367 193 " style="stroke:gray;fill:none"/><path d="M294 177 " style="stroke:gray;fill:none"/><path d="M283 174 285 177 288 178 290 178 292 179 297 180 304 180 297 180 292 179 290 178 288 178 285 177 " style="stroke:gray;fill:none"/><path d="M194 174 190 176 187 179 189 183 192 184 195 182 197 181 200 180 200 177 198 175 196 174 " style="stroke:gray;fill:none"/><path d="M194 174 196 174 200 179 198 181 195 182 192 184 190 183 188 181 188 179 192 175 " style="stroke:gray;fill:none"/><path d="M73 175 74 181 78 179 77 174 " style="stroke:gray;fill:none"/><path d="M76 174 78 176 78 178 76 180 73 179 73 176 " style="stroke:gray;fill:none"/><path d="M343 172 341 176 338 178 341 176 " style="stroke:gray;fill:none"/><path d="M343 170 " style="stroke:gray;fill:none"/><path d="M325 171 " style="stroke:gray;fill:none"/><path d="M348 169 347 171 346 173 344 176 341 180 330 191 325 195 322 197 318 200 315 201 313 203 311 203 308 205 303 206 299 205 296 206 294 208 291 207 290 212 292 216 294 218 298 222 300 223 302 224 300 222 294 216 292 215 290 212 290 209 293 210 293 212 297 217 300 220 305 224 308 225 310 226 308 225 306 224 302 221 296 215 293 210 297 206 303 206 308 205 311 203 313 203 315 202 317 200 320 199 324 196 327 194 332 190 340 182 343 178 345 175 347 171 " style="stroke:gray;fill:none"/><path d="M335 166 332 167 333 169 331 169 329 172 326 173 324 173 321 172 318 170 322 169 326 168 327 167 330 167 327 167 322 168 319 169 318 170 313 169 311 169 300 170 299 171 286 172 283 172 267 170 267 168 264 170 264 168 263 171 246 170 234 170 232 171 231 173 231 175 235 180 242 186 244 189 246 190 249 192 252 193 254 195 256 196 258 196 261 197 263 199 259 200 256 198 258 199 262 200 263 199 265 199 269 200 271 201 274 204 280 203 283 203 288 205 288 208 288 204 291 201 297 201 301 199 297 200 291 201 288 201 285 201 288 204 285 204 280 203 275 204 272 201 270 200 266 199 264 199 261 197 259 197 255 195 253 193 250 192 247 190 244 187 234 178 231 173 234 170 246 170 282 171 283 172 286 172 297 173 293 174 288 175 293 174 297 174 298 176 301 177 303 177 306 178 308 180 316 180 319 182 320 179 324 179 326 177 326 175 325 177 320 179 316 180 309 180 306 178 304 178 301 177 299 176 297 173 300 170 311 169 313 169 317 170 320 171 321 172 324 173 326 173 329 172 331 171 333 170 336 166 339 166 341 169 339 171 337 174 337 175 324 188 321 190 318 192 308 197 306 197 304 198 302 196 305 193 307 193 309 192 312 190 315 188 319 184 322 182 324 181 320 184 318 184 313 189 310 191 306 193 303 194 302 196 303 198 305 198 308 197 311 195 313 195 317 193 319 191 322 190 325 188 336 177 339 173 341 169 340 166 " style="stroke:gray;fill:none"/><path d="M354 165 353 167 354 169 357 172 361 181 364 182 365 180 365 177 363 173 360 170 359 167 357 165 " style="stroke:gray;fill:none"/><path d="M356 165 360 169 361 172 364 175 365 178 365 180 361 181 358 175 358 173 356 171 353 167 " style="stroke:gray;fill:none"/><path d="M221 167 225 171 228 171 230 170 228 166 229 170 226 171 223 169 221 167 223 165 " style="stroke:gray;fill:none"/><path d="M352 163 350 165 348 165 346 167 343 167 347 167 349 165 351 165 " style="stroke:gray;fill:none"/><path d="M355 162 " style="stroke:gray;fill:none"/><path d="M199 162 197 163 196 165 197 167 200 168 203 170 206 171 210 172 213 172 215 170 213 172 210 171 210 168 209 171 206 171 203 170 199 168 196 165 199 162 202 163 205 164 208 165 212 167 212 170 216 168 217 172 219 171 225 177 231 184 235 190 227 199 228 197 230 195 234 192 235 190 235 188 231 183 225 176 220 171 215 167 212 167 209 166 206 165 205 164 202 163 " style="stroke:gray;fill:none"/><path d="M346 161 " style="stroke:gray;fill:none"/><path d="M341 163 343 161 " style="stroke:gray;fill:none"/><path d="M197 161 " style="stroke:gray;fill:none"/><path d="M348 159 349 163 " style="stroke:gray;fill:none"/><path d="M357 157 356 160 359 164 362 167 363 169 364 171 362 168 361 165 359 162 " style="stroke:gray;fill:none"/><path d="M166 156 165 158 164 161 164 174 165 178 166 179 167 182 166 179 165 175 164 174 164 162 165 158 " style="stroke:gray;fill:none"/><path d="M164 148 163 150 162 156 161 172 161 174 162 178 163 181 165 185 167 187 168 189 168 191 169 193 171 194 170 196 171 193 168 190 167 188 167 186 165 184 162 178 161 174 161 172 162 156 163 151 164 150 " style="stroke:gray;fill:none"/><path d="M160 148 162 148 " style="stroke:gray;fill:none"/><path d="M157 147 " style="stroke:gray;fill:none"/><path d="M2 145 0 145 3 146 0 147 3 148 6 149 8 147 8 145 " style="stroke:gray;fill:none"/><path d="M0 148 3 148 " style="stroke:gray;fill:none"/><path d="M4 144 7 145 6 148 3 147 " style="stroke:gray;fill:none"/><path d="M305 143 " style="stroke:gray;fill:none"/><path d="M170 143 168 145 166 149 166 152 167 154 169 154 171 153 174 150 173 143 " style="stroke:gray;fill:none"/><path d="M172 143 174 145 174 150 172 152 168 154 166 152 166 150 168 146 " style="stroke:gray;fill:none"/><path d="M162 143 " style="stroke:gray;fill:none"/><path d="M168 142 " style="stroke:gray;fill:none"/><path d="M356 141 " style="stroke:gray;fill:none"/><path d="M352 141 352 143 349 142 352 143 " style="stroke:gray;fill:none"/><path d="M361 139 " style="stroke:gray;fill:none"/><path d="M353 139 " style="stroke:gray;fill:none"/><path d="M169 140 " style="stroke:gray;fill:none"/><path d="M347 137 " style="stroke:gray;fill:none"/><path d="M190 137 188 139 186 142 185 144 185 146 185 149 185 151 186 154 190 158 193 160 195 162 195 160 191 158 186 153 185 151 185 149 185 146 185 144 188 141 189 139 " style="stroke:gray;fill:none"/><path d="M356 136 " style="stroke:gray;fill:none"/><path d="M354 136 " style="stroke:gray;fill:none"/><path d="M193 136 " style="stroke:gray;fill:none"/><path d="M173 135 171 137 " style="stroke:gray;fill:none"/><path d="M156 135 " style="stroke:gray;fill:none"/><path d="M159 135 " style="stroke:gray;fill:none"/><path d="M197 132 199 132 " style="stroke:gray;fill:none"/><path d="M426 131 " style="stroke:gray;fill:none"/><path d="M421 131 " style="stroke:gray;fill:none"/><path d="M346 131 348 131 " style="stroke:gray;fill:none"/><path d="M202 131 " style="stroke:gray;fill:none"/><path d="M161 131 162 133 162 135 161 138 159 140 157 140 155 138 153 135 156 132 154 133 153 135 154 137 156 140 159 140 161 138 162 135 " style="stroke:gray;fill:none"/><path d="M180 129 " style="stroke:gray;fill:none"/><path d="M360 128 358 129 358 133 360 135 364 138 364 140 361 143 358 144 355 145 352 146 348 147 342 148 336 149 330 150 321 151 311 152 299 153 282 154 231 154 222 153 216 152 211 151 208 150 205 147 205 145 207 143 211 140 211 136 209 135 206 135 196 140 192 144 191 146 191 148 192 151 195 154 201 157 203 157 206 159 209 160 213 161 218 162 223 163 231 164 240 165 256 166 288 166 302 165 313 164 320 163 326 162 331 161 337 160 341 159 346 158 349 157 352 156 355 155 359 154 362 152 364 152 372 148 378 142 378 137 373 132 369 130 366 129 363 128 " style="stroke:gray;fill:none"/><path d="M360 128 362 128 366 129 369 130 371 131 378 138 378 141 371 148 361 153 358 154 355 155 352 156 349 157 346 158 341 159 337 160 331 161 326 162 320 163 313 164 302 165 288 166 256 166 240 165 231 164 223 163 218 162 213 161 209 160 206 159 203 157 201 157 199 156 196 154 192 150 191 148 191 146 198 139 206 135 208 135 210 136 211 139 206 143 205 145 205 148 207 150 210 150 215 151 216 152 222 153 231 154 282 154 299 153 311 152 321 151 330 150 336 149 342 148 348 147 352 146 355 145 358 144 362 143 364 141 364 137 362 135 358 132 358 130 " style="stroke:gray;fill:none"/><path d="M182 128 " style="stroke:gray;fill:none"/><path d="M352 127 353 133 355 132 353 131 355 130 353 129 " style="stroke:gray;fill:none"/><path d="M153 125 " style="stroke:gray;fill:none"/><path d="M151 125 " style="stroke:gray;fill:none"/><path d="M420 125 420 129 426 127 424 126 " style="stroke:gray;fill:none"/><path d="M421 125 423 125 426 128 420 128 " style="stroke:gray;fill:none"/><path d="M198 124 201 124 " style="stroke:gray;fill:none"/><path d="M167 124 162 125 156 126 152 127 152 129 156 130 158 130 162 129 166 128 169 124 " style="stroke:gray;fill:none"/><path d="M167 124 169 127 167 127 163 128 162 129 158 130 156 130 152 128 156 126 162 125 " style="stroke:gray;fill:none"/><path d="M151 123 " style="stroke:gray;fill:none"/><path d="M342 117 " style="stroke:gray;fill:none"/><path d="M245 116 " style="stroke:gray;fill:none"/><path d="M189 110 189 112 191 112 191 110 " style="stroke:gray;fill:none"/><path d="M190 112 " style="stroke:gray;fill:none"/><path d="M147 109 146 111 146 121 147 127 148 132 149 135 151 137 152 140 155 144 164 145 165 143 166 145 165 143 166 141 167 139 169 136 176 129 179 127 182 126 185 123 187 123 192 120 196 121 195 124 193 125 190 125 186 127 184 130 179 132 175 136 174 138 174 141 176 139 178 139 181 138 184 136 186 136 189 135 191 134 194 132 196 130 200 129 198 130 195 130 192 133 186 136 184 136 181 138 178 139 175 137 180 132 186 129 192 128 196 128 201 127 204 125 207 126 206 129 203 128 207 129 207 125 204 125 201 127 196 128 191 129 187 126 189 126 193 125 195 124 195 120 197 119 195 120 192 120 187 123 185 123 183 124 180 127 177 128 174 130 171 133 167 138 167 140 165 143 164 141 163 145 157 145 155 143 152 139 151 136 149 134 148 131 147 127 146 121 146 111 " style="stroke:gray;fill:none"/><path d="M340 107 341 109 343 111 344 113 345 119 345 122 345 119 344 113 342 109 " style="stroke:gray;fill:none"/><path d="M161 105 161 107 161 105 164 103 " style="stroke:gray;fill:none"/><path d="M247 102 " style="stroke:gray;fill:none"/><path d="M225 102 222 103 224 104 " style="stroke:gray;fill:none"/><path d="M182 99 185 102 186 99 " style="stroke:gray;fill:none"/><path d="M185 100 " style="stroke:gray;fill:none"/><path d="M160 96 157 97 155 99 157 98 160 96 162 95 " style="stroke:gray;fill:none"/><path d="M165 94 " style="stroke:gray;fill:none"/><path d="M167 93 " style="stroke:gray;fill:none"/><path d="M370 91 " style="stroke:gray;fill:none"/><path d="M367 91 " style="stroke:gray;fill:none"/><path d="M173 91 176 94 181 97 179 95 " style="stroke:gray;fill:none"/><path d="M173 89 " style="stroke:gray;fill:none"/><path d="M236 88 " style="stroke:gray;fill:none"/><path d="M199 87 197 89 199 87 201 87 " style="stroke:gray;fill:none"/><path d="M169 86 170 89 " style="stroke:gray;fill:none"/><path d="M161 86 158 87 156 89 154 92 153 95 151 97 150 99 150 101 148 104 148 107 149 109 152 110 158 106 158 109 160 110 165 110 167 108 169 108 171 107 171 103 169 103 165 99 167 102 170 103 168 105 169 107 167 108 164 110 160 110 158 108 158 105 156 105 153 108 151 110 148 107 148 105 149 102 150 99 153 96 154 93 156 90 159 87 161 86 163 86 169 91 170 94 168 96 165 97 162 97 163 99 163 97 166 96 168 96 170 95 170 92 168 90 163 86 " style="stroke:gray;fill:none"/><path d="M368 84 367 89 371 89 371 85 " style="stroke:gray;fill:none"/><path d="M368 85 371 86 370 89 367 88 " style="stroke:gray;fill:none"/><path d="M240 84 " style="stroke:gray;fill:none"/><path d="M238 84 " style="stroke:gray;fill:none"/><path d="M190 84 193 85 " style="stroke:gray;fill:none"/><path d="M163 84 " style="stroke:gray;fill:none"/><path d="M146 80 147 82 149 85 151 85 154 84 152 83 154 81 150 85 147 82 " style="stroke:gray;fill:none"/><path d="M249 78 " style="stroke:gray;fill:none"/><path d="M203 76 " style="stroke:gray;fill:none"/><path d="M179 76 177 77 " style="stroke:gray;fill:none"/><path d="M202 73 " style="stroke:gray;fill:none"/><path d="M255 73 257 73 " style="stroke:gray;fill:none"/><path d="M195 73 197 72 " style="stroke:gray;fill:none"/><path d="M185 72 183 73 181 74 181 79 186 82 186 84 188 84 187 82 184 80 183 80 181 78 181 75 183 73 185 72 190 72 195 77 196 80 196 84 194 87 194 90 194 88 196 85 196 80 195 76 192 73 190 72 " style="stroke:gray;fill:none"/><path d="M263 70 " style="stroke:gray;fill:none"/><path d="M150 70 147 73 147 77 147 78 153 79 156 76 158 76 166 80 170 84 173 85 177 89 180 91 181 91 185 94 191 99 197 105 204 111 210 116 214 116 214 111 204 101 197 95 194 93 190 90 186 87 182 84 179 82 165 75 163 75 154 70 " style="stroke:gray;fill:none"/><path d="M151 70 153 70 162 75 164 75 178 82 181 84 184 86 188 89 192 92 196 95 203 101 214 112 213 116 211 116 206 111 199 105 198 105 193 100 187 95 183 92 179 89 175 86 172 84 168 81 165 79 161 77 158 76 155 76 152 79 149 79 146 75 " style="stroke:gray;fill:none"/><path d="M276 68 " style="stroke:gray;fill:none"/><path d="M67 66 " style="stroke:gray;fill:none"/><path d="M197 61 197 63 " style="stroke:gray;fill:none"/><path d="M62 59 60 60 60 62 62 64 63 66 66 64 65 59 " style="stroke:gray;fill:none"/><path d="M63 66 " style="stroke:gray;fill:none"/><path d="M60 61 66 61 65 64 61 63 " style="stroke:gray;fill:none"/><path d="M275 50 277 52 " style="stroke:gray;fill:none"/><path d="M272 45 274 48 " style="stroke:gray;fill:none"/><path d="M262 34 264 37 266 38 264 37 " style="stroke:gray;fill:none"/><path d="M232 29 " style="stroke:gray;fill:none"/><path d="M234 28 236 28 247 30 236 28 " style="stroke:gray;fill:none"/><path d="M234 25 230 26 227 27 224 29 222 29 220 30 217 33 214 34 209 39 205 44 202 50 201 53 200 57 199 64 199 74 200 77 201 80 202 83 206 91 215 100 217 101 219 101 221 100 223 99 226 95 228 92 228 91 237 82 240 80 241 80 245 76 248 74 251 72 255 70 258 70 261 68 264 67 267 66 272 65 278 65 281 67 284 67 286 69 274 70 269 72 267 71 264 72 262 73 260 75 256 77 254 77 252 78 250 80 248 80 243 84 235 92 234 90 235 92 233 93 232 96 229 99 227 104 225 106 222 113 217 113 221 115 221 118 217 122 217 119 214 119 213 122 214 120 217 120 217 123 219 124 219 127 218 130 215 134 212 134 211 132 211 129 213 124 211 123 209 122 211 119 209 122 207 120 205 117 204 120 208 121 203 122 200 119 200 117 204 114 200 114 197 110 192 106 191 106 190 102 188 101 188 103 194 109 201 116 199 118 200 120 202 122 209 122 212 125 212 128 211 132 212 134 214 135 216 133 217 131 217 140 214 139 219 143 219 147 217 149 215 149 219 148 220 144 221 146 223 147 231 148 287 148 304 147 311 146 312 145 324 145 332 144 338 143 341 141 345 141 343 139 340 142 337 143 331 144 324 145 313 145 304 140 302 140 299 138 297 138 294 136 292 136 289 135 284 132 282 132 279 131 272 127 270 127 250 117 247 115 244 112 243 110 243 107 245 105 249 105 258 109 260 111 270 116 272 116 281 121 283 121 286 123 289 124 291 124 296 127 298 127 301 128 306 131 308 131 311 133 313 133 320 137 322 137 324 138 326 142 328 140 331 141 328 140 326 139 324 138 322 137 320 137 318 136 313 133 311 133 308 131 306 131 301 128 299 128 296 127 291 124 289 124 286 123 283 121 281 121 272 116 270 116 262 112 260 110 249 105 246 105 243 104 244 100 246 97 246 95 248 92 248 89 252 86 253 89 255 90 257 90 260 91 263 93 265 93 268 94 271 95 274 96 277 97 280 98 283 99 286 100 289 101 292 103 295 104 298 104 301 105 304 106 307 107 310 108 313 109 316 110 319 111 322 112 325 113 328 114 331 115 334 116 337 117 339 118 343 122 343 136 345 139 348 140 351 137 351 134 350 123 349 120 348 116 347 113 346 110 343 104 341 102 341 100 338 97 335 93 325 83 322 81 319 79 315 76 313 75 311 75 308 73 305 72 302 71 297 70 290 70 286 69 285 67 282 67 278 65 282 61 282 57 281 54 280 50 278 48 277 45 275 42 266 33 262 30 260 30 257 28 254 27 251 26 248 25 " style="stroke:gray;fill:none"/><path d="M286 69 289 69 297 70 301 71 304 72 307 73 310 75 312 75 314 76 318 79 321 81 324 83 336 95 336 97 341 101 347 113 348 116 349 120 350 124 351 134 351 136 347 140 343 136 343 122 337 117 334 116 331 115 328 114 325 113 322 112 319 111 316 110 313 109 310 108 307 107 304 106 301 105 298 104 295 104 292 103 289 101 287 101 284 100 281 99 278 98 275 97 272 96 269 95 266 94 263 93 260 91 258 91 255 90 252 87 251 84 254 82 255 80 259 80 264 83 267 84 270 85 273 86 276 87 279 88 282 89 285 90 288 91 291 92 294 93 297 94 300 95 303 96 306 97 309 98 312 99 315 100 318 101 321 102 324 103 327 104 330 105 333 106 336 105 338 107 336 105 338 103 340 104 338 102 337 100 338 103 336 105 332 105 330 105 327 104 324 103 321 102 318 101 315 100 312 99 309 98 306 97 303 96 300 95 297 94 294 93 291 92 288 91 285 90 282 89 279 88 276 87 273 86 270 85 267 84 264 83 259 80 254 80 252 82 251 84 249 86 248 89 248 92 246 95 245 98 244 100 243 104 243 111 245 114 248 116 270 127 272 127 279 131 282 132 284 132 289 135 291 135 294 136 297 138 299 138 302 140 304 140 310 143 312 145 303 147 300 146 302 145 299 147 286 148 253 148 248 143 246 139 245 136 244 133 243 129 242 124 242 113 242 124 243 129 244 133 245 136 246 139 250 146 252 147 231 148 223 147 219 143 218 141 218 129 219 123 220 119 221 115 226 105 228 103 229 100 232 97 235 93 244 84 249 80 251 80 253 78 255 77 257 77 259 76 261 75 262 73 265 72 270 72 274 70 277 71 " style="stroke:gray;fill:none"/><path d="M234 25 248 25 252 27 250 28 250 31 253 33 256 35 259 37 262 38 264 40 266 40 268 42 270 45 270 47 273 53 275 55 276 57 276 59 276 62 278 61 276 59 276 56 274 53 272 51 270 47 270 45 268 41 265 40 261 38 258 36 255 34 252 32 250 29 252 27 254 27 257 28 261 30 265 33 275 43 278 47 280 51 281 54 282 57 282 60 277 65 271 66 267 66 264 67 260 68 257 70 255 70 249 73 246 75 243 77 239 80 236 82 229 89 226 93 226 94 224 97 221 100 219 101 217 101 206 90 205 87 203 85 202 83 201 80 200 77 199 74 199 64 200 57 201 54 202 51 205 45 209 40 215 34 217 33 220 32 221 30 223 29 225 29 228 27 231 26 " style="stroke:gray;fill:none"/><path d="M338 25 339 29 342 29 344 28 342 24 " style="stroke:gray;fill:none"/><path d="M341 24 343 27 340 29 338 26 " style="stroke:gray;fill:none"/></svg>