<svg width="429px" height="547px" xmlns="http://www.w3.org/2000/svg"><path d="M155 522 155 524 157 524 157 522 " style="stroke:gray;fill:none"/><path d="M156 524 " style="stroke:gray;fill:none"/><path d="M90 512 92 513 90 512 92 511 " style="stroke:gray;fill:none"/><path d="M84 500 83 502 84 500 85 502 " style="stroke:gray;fill:none"/><path d="M140 490 141 492 140 496 141 499 142 501 144 504 146 506 149 510 151 513 157 519 161 522 165 524 171 524 175 520 176 517 177 514 177 504 176 502 174 500 172 500 168 504 166 505 157 505 153 503 151 504 149 506 148 508 146 506 144 503 142 500 140 496 140 494 144 491 150 497 152 498 155 499 162 499 166 498 169 496 171 496 173 497 175 498 173 497 169 496 166 498 162 499 155 499 152 498 145 491 143 491 " style="stroke:gray;fill:none"/><path d="M173 500 177 504 177 514 176 517 175 519 170 524 166 524 162 522 158 519 149 510 149 507 153 503 157 505 166 505 170 503 " style="stroke:gray;fill:none"/><path d="M179 487 178 490 179 487 180 489 " style="stroke:gray;fill:none"/><path d="M142 485 " style="stroke:gray;fill:none"/><path d="M138 484 140 485 " style="stroke:gray;fill:none"/><path d="M133 482 133 491 135 491 135 485 133 484 " style="stroke:gray;fill:none"/><path d="M134 488 134 491 " style="stroke:gray;fill:none"/><path d="M134 485 134 488 " style="stroke:gray;fill:none"/><path d="M136 483 137 481 141 481 143 482 " style="stroke:gray;fill:none"/><path d="M91 483 90 485 89 488 88 491 88 502 89 504 91 506 93 507 97 507 101 506 104 505 118 498 121 496 127 490 126 488 124 487 121 487 117 489 114 490 105 490 102 489 96 482 94 481 " style="stroke:gray;fill:none"/><path d="M94 481 97 484 101 489 105 490 114 490 117 489 121 487 123 486 126 490 120 496 117 498 103 505 100 506 97 507 94 507 92 506 89 503 88 501 88 491 89 488 90 485 " style="stroke:gray;fill:none"/><path d="M130 474 133 479 141 479 141 477 136 477 133 474 " style="stroke:gray;fill:none"/><path d="M130 475 133 474 135 477 141 478 134 479 " style="stroke:gray;fill:none"/><path d="M99 473 93 479 102 474 105 475 107 477 111 479 115 480 125 480 129 484 129 486 128 488 129 483 127 481 125 480 115 480 111 479 109 478 106 475 104 475 101 473 " style="stroke:gray;fill:none"/><path d="M27 474 27 476 29 477 31 476 30 473 " style="stroke:gray;fill:none"/><path d="M29 473 31 475 29 477 27 475 " style="stroke:gray;fill:none"/><path d="M178 464 177 466 179 469 177 466 178 464 180 462 " style="stroke:gray;fill:none"/><path d="M178 460 176 460 173 463 173 467 176 470 178 472 181 473 186 473 189 470 189 466 188 464 185 461 183 460 181 460 " style="stroke:gray;fill:none"/><path d="M181 460 183 460 189 466 189 469 185 473 181 473 179 472 176 470 174 468 173 466 173 464 177 460 " style="stroke:gray;fill:none"/><path d="M121 457 122 459 122 465 121 469 118 472 121 470 122 465 " style="stroke:gray;fill:none"/><path d="M102 447 101 449 102 460 103 464 104 466 111 473 114 474 122 474 125 473 127 471 129 468 130 464 131 459 131 456 130 454 128 453 125 453 118 454 112 451 109 449 107 446 " style="stroke:gray;fill:none"/><path d="M104 446 107 447 109 449 111 451 115 453 118 454 125 453 128 453 130 455 131 457 131 459 130 464 129 467 128 469 124 473 122 474 114 474 112 473 104 465 103 463 102 460 101 449 " style="stroke:gray;fill:none"/><path d="M123 440 123 443 120 446 122 445 " style="stroke:gray;fill:none"/><path d="M355 437 353 438 354 441 356 441 357 439 " style="stroke:gray;fill:none"/><path d="M355 437 357 439 355 441 353 439 " style="stroke:gray;fill:none"/><path d="M116 434 113 434 110 437 110 442 113 445 115 447 118 448 124 448 126 446 127 444 127 441 126 439 121 434 119 434 " style="stroke:gray;fill:none"/><path d="M116 434 120 434 127 441 127 443 126 445 123 448 118 448 116 447 113 445 111 443 110 441 110 438 114 434 " style="stroke:gray;fill:none"/><path d="M181 428 178 429 174 431 171 434 169 438 168 442 168 452 170 454 168 452 168 442 169 438 170 436 176 430 178 429 181 428 183 428 188 429 191 430 193 431 197 435 195 432 191 430 188 429 183 428 " style="stroke:gray;fill:none"/><path d="M104 400 " style="stroke:gray;fill:none"/><path d="M98 401 100 402 98 401 100 400 " style="stroke:gray;fill:none"/><path d="M226 384 226 386 228 386 228 384 " style="stroke:gray;fill:none"/><path d="M227 386 " style="stroke:gray;fill:none"/><path d="M107 383 106 385 105 390 105 397 108 399 110 397 111 395 112 392 112 385 110 383 " style="stroke:gray;fill:none"/><path d="M108 383 110 383 112 385 112 392 110 396 107 399 105 397 105 390 106 385 " style="stroke:gray;fill:none"/><path d="M220 382 221 384 221 388 219 387 217 388 216 391 220 387 221 391 219 394 216 393 215 395 215 397 214 400 213 401 212 405 212 408 211 412 210 413 209 417 208 420 207 424 208 428 211 429 213 427 214 424 215 421 216 416 216 412 217 408 218 407 219 403 220 398 220 394 221 391 222 390 222 384 " style="stroke:gray;fill:none"/><path d="M218 393 220 395 220 398 219 403 218 407 217 411 216 412 216 416 215 421 214 424 213 426 210 429 207 426 207 424 208 420 209 417 210 413 211 409 212 405 213 401 214 398 215 395 " style="stroke:gray;fill:none"/><path d="M228 380 " style="stroke:gray;fill:none"/><path d="M225 377 226 380 225 377 227 376 " style="stroke:gray;fill:none"/><path d="M187 377 " style="stroke:gray;fill:none"/><path d="M139 376 137 377 133 381 132 383 132 385 132 388 132 390 135 396 137 399 139 401 143 404 146 406 156 411 160 412 164 413 169 414 180 414 187 413 191 412 194 411 197 410 200 408 203 407 204 405 201 408 197 410 194 411 191 412 187 413 180 414 169 414 164 413 160 412 156 411 148 407 145 405 141 402 136 397 134 394 132 390 132 388 132 385 132 383 " style="stroke:gray;fill:none"/><path d="M27 367 25 369 25 373 27 375 31 375 33 373 33 370 31 368 29 367 " style="stroke:gray;fill:none"/><path d="M29 367 33 372 30 375 28 375 25 372 25 370 " style="stroke:gray;fill:none"/><path d="M118 366 115 370 112 371 110 371 112 371 115 370 117 369 " style="stroke:gray;fill:none"/><path d="M188 358 186 359 185 361 186 365 185 361 188 358 190 360 190 362 188 365 190 363 190 359 " style="stroke:gray;fill:none"/><path d="M191 352 178 353 174 355 171 358 171 365 169 371 165 371 159 370 156 368 152 368 150 366 150 364 153 362 152 358 150 357 145 358 144 361 142 363 142 365 144 369 148 373 153 375 155 376 153 375 149 373 143 367 143 363 144 360 147 357 150 357 153 361 150 364 150 366 152 368 156 368 159 370 157 372 157 375 159 377 162 378 165 379 169 379 172 379 179 380 183 379 185 377 185 373 184 371 187 368 188 372 189 374 191 375 193 375 196 372 197 370 198 366 199 360 199 356 198 354 194 352 " style="stroke:gray;fill:none"/><path d="M191 352 194 352 196 353 198 355 199 357 199 360 198 366 197 370 191 375 188 372 185 369 185 373 185 376 182 379 179 380 172 379 169 379 165 379 162 378 160 377 157 374 157 372 159 370 164 370 170 371 170 366 171 359 176 354 178 353 " style="stroke:gray;fill:none"/><path d="M139 352 " style="stroke:gray;fill:none"/><path d="M247 350 249 351 247 350 249 349 " style="stroke:gray;fill:none"/><path d="M331 338 330 340 332 342 334 341 " style="stroke:gray;fill:none"/><path d="M332 338 334 340 332 342 330 340 " style="stroke:gray;fill:none"/><path d="M104 330 102 332 98 337 96 340 96 342 94 344 93 347 92 351 92 358 93 361 95 365 101 371 104 372 107 372 110 374 114 374 117 373 119 372 122 369 122 367 121 365 118 362 111 356 110 353 105 348 105 346 107 344 108 342 107 330 " style="stroke:gray;fill:none"/><path d="M106 330 108 332 108 342 106 344 105 346 105 348 106 350 110 354 111 357 116 362 122 368 117 373 114 374 110 374 107 372 104 372 102 371 95 364 93 361 92 358 92 351 93 347 96 341 98 338 102 333 " style="stroke:gray;fill:none"/><path d="M243 327 239 328 236 329 224 335 221 337 216 341 210 347 209 350 218 340 223 336 226 334 236 329 239 328 243 327 246 327 248 328 250 331 248 328 246 327 " style="stroke:gray;fill:none"/><path d="M125 326 121 327 118 328 114 332 114 349 115 352 116 354 120 358 123 359 126 360 132 360 135 359 138 357 141 354 142 352 142 350 144 348 141 347 138 348 135 345 135 343 136 339 137 334 137 331 137 329 135 327 132 326 " style="stroke:gray;fill:none"/><path d="M140 348 144 348 142 350 " style="stroke:gray;fill:none"/><path d="M125 326 132 326 134 327 137 330 137 334 137 338 136 342 135 343 135 345 136 347 140 348 141 353 136 358 132 360 126 360 123 359 121 358 115 352 114 349 114 333 119 328 121 327 " style="stroke:gray;fill:none"/><path d="M140 320 " style="stroke:gray;fill:none"/><path d="M202 316 202 318 198 322 194 325 191 327 187 329 185 329 182 331 180 331 182 331 185 329 187 329 193 326 196 324 200 321 202 319 " style="stroke:gray;fill:none"/><path d="M233 315 224 324 220 327 217 329 214 331 206 335 203 336 199 337 195 338 190 339 184 340 162 339 154 340 154 343 156 345 158 345 162 346 163 347 182 347 185 347 194 346 203 346 206 349 206 354 205 358 204 359 204 364 203 370 202 374 200 377 197 380 194 382 191 383 188 384 184 385 165 385 161 384 158 383 155 382 152 381 146 378 143 376 134 367 131 367 128 370 123 376 122 376 119 379 117 382 118 391 118 394 117 397 116 399 113 402 111 405 111 407 109 409 109 411 107 414 106 417 105 420 104 424 104 428 105 430 107 430 109 431 111 429 113 428 116 427 118 427 121 428 123 429 126 431 130 435 132 438 132 439 137 440 139 438 141 435 144 431 145 429 146 427 145 424 144 422 144 419 147 419 154 423 157 424 159 424 162 424 160 427 158 432 157 435 157 450 156 455 155 459 154 463 150 470 150 472 148 475 147 478 147 484 149 488 153 492 156 493 162 493 165 492 171 489 174 487 178 483 178 480 175 477 168 470 167 468 167 462 168 460 172 456 175 454 178 454 181 454 184 454 186 456 189 457 192 457 194 455 196 451 197 448 198 445 199 441 199 436 200 432 201 431 201 424 202 420 203 417 204 413 205 409 206 406 207 405 207 402 208 399 209 398 209 394 210 390 211 387 212 385 214 382 219 377 233 364 238 358 241 354 243 351 245 348 251 336 251 334 253 331 253 327 250 324 248 323 246 323 242 320 238 316 236 315 " style="stroke:gray;fill:none"/><path d="M234 315 236 315 241 320 244 322 246 323 248 323 250 324 252 326 253 328 253 331 251 334 251 336 247 344 245 347 243 350 241 353 238 357 233 363 218 377 214 381 212 384 211 387 210 390 209 394 209 398 208 401 207 402 207 405 206 408 205 409 204 413 203 417 202 420 201 424 201 431 200 435 199 436 199 441 198 445 197 448 196 451 195 453 191 457 189 457 184 454 181 454 178 454 175 454 171 456 168 459 167 461 167 468 168 471 170 473 167 474 164 477 161 480 159 484 159 488 162 490 159 487 159 484 160 482 163 478 167 474 170 473 173 476 178 480 178 482 173 487 169 490 165 492 162 493 156 493 154 492 149 487 147 484 147 478 148 475 153 466 154 463 155 459 156 455 157 450 157 435 158 433 163 429 162 424 157 424 154 423 147 419 143 419 143 421 145 424 146 427 144 429 141 433 141 434 139 437 136 440 134 440 132 438 130 435 127 431 129 430 131 429 132 427 132 420 131 417 129 413 126 410 120 407 117 406 114 407 117 406 120 407 124 409 130 415 131 417 132 420 132 427 129 430 126 431 124 429 121 428 118 427 116 427 113 428 110 429 108 431 106 430 104 428 104 424 105 420 106 417 107 414 109 410 111 408 111 406 112 404 115 401 117 397 118 394 118 391 117 383 118 381 124 376 128 372 133 367 142 376 152 381 155 382 158 383 161 384 165 385 184 385 188 384 191 383 194 382 198 380 200 378 202 374 203 370 204 364 204 359 205 355 206 354 206 348 204 346 194 346 185 347 182 347 163 347 159 346 157 345 154 341 156 339 162 339 184 340 190 339 195 338 199 337 203 336 206 335 218 329 221 327 225 324 " style="stroke:gray;fill:none"/><path d="M157 313 160 315 164 315 164 313 159 314 " style="stroke:gray;fill:none"/><path d="M159 314 164 314 " style="stroke:gray;fill:none"/><path d="M230 300 228 302 226 302 224 303 222 305 219 307 215 309 213 309 210 311 207 312 204 313 201 314 198 315 194 316 189 317 184 318 176 317 174 319 153 319 141 318 137 317 136 316 133 316 131 318 132 320 137 321 142 325 147 330 149 331 153 332 156 333 161 334 186 334 191 333 195 332 198 331 201 330 204 329 207 327 209 327 213 325 216 323 220 320 228 312 231 308 233 304 232 301 " style="stroke:gray;fill:none"/><path d="M133 316 136 316 138 318 136 322 134 321 131 318 " style="stroke:gray;fill:none"/><path d="M229 301 231 301 233 304 231 306 229 309 229 310 219 320 215 323 212 325 204 329 201 330 198 331 195 332 191 333 186 334 161 334 156 333 153 332 149 331 142 325 137 319 141 318 153 319 174 319 184 318 189 317 194 316 198 315 201 314 204 313 207 312 210 311 213 309 215 309 223 305 225 303 " style="stroke:gray;fill:none"/><path d="M92 292 " style="stroke:gray;fill:none"/><path d="M246 291 244 293 244 297 247 300 250 301 252 300 253 298 253 295 249 291 " style="stroke:gray;fill:none"/><path d="M248 291 253 296 253 298 249 301 244 296 244 294 " style="stroke:gray;fill:none"/><path d="M92 290 " style="stroke:gray;fill:none"/><path d="M228 284 227 286 227 289 225 292 225 294 223 297 221 299 217 302 211 305 209 305 206 307 203 308 200 309 197 310 193 311 189 312 184 312 181 312 178 312 175 314 166 313 175 314 178 312 181 312 184 312 189 312 193 311 198 310 201 308 203 308 206 307 209 306 214 303 216 303 219 301 221 299 223 297 225 295 226 293 227 289 227 286 " style="stroke:gray;fill:none"/><path d="M102 282 99 283 " style="stroke:gray;fill:none"/><path d="M259 281 257 282 255 284 255 287 261 298 261 301 260 303 256 307 246 306 244 307 242 309 242 311 247 316 249 317 252 318 255 319 261 319 264 318 267 317 269 316 275 310 277 307 278 304 279 300 279 294 278 291 277 288 272 283 270 283 267 281 " style="stroke:gray;fill:none"/><path d="M259 281 267 281 271 283 277 289 278 291 279 294 279 300 278 304 277 306 275 309 268 316 264 318 261 319 255 319 252 318 248 316 242 310 246 306 257 307 259 305 261 307 262 309 264 310 271 310 264 310 259 305 261 301 261 298 260 295 258 291 256 289 255 287 255 285 " style="stroke:gray;fill:none"/><path d="M232 276 232 287 234 289 236 290 235 292 233 294 235 292 236 289 239 286 237 287 234 289 232 287 " style="stroke:gray;fill:none"/><path d="M251 275 " style="stroke:gray;fill:none"/><path d="M138 272 136 274 137 281 144 280 145 278 145 275 142 272 " style="stroke:gray;fill:none"/><path d="M139 272 141 272 145 276 145 278 142 281 138 281 136 279 136 275 " style="stroke:gray;fill:none"/><path d="M236 269 234 271 234 283 235 285 237 285 240 282 241 279 241 272 240 270 " style="stroke:gray;fill:none"/><path d="M238 269 241 272 241 278 240 281 236 285 234 283 234 272 " style="stroke:gray;fill:none"/><path d="M97 262 97 264 96 267 95 268 95 281 96 285 97 288 98 291 99 293 101 295 104 298 107 297 108 295 107 292 106 288 105 287 104 282 103 276 103 265 102 262 " style="stroke:gray;fill:none"/><path d="M97 263 102 263 103 265 103 276 104 282 105 287 106 291 107 292 108 295 104 298 101 295 99 292 97 288 96 285 95 281 95 268 96 265 " style="stroke:gray;fill:none"/><path d="M238 254 238 256 240 260 238 263 238 266 238 263 240 260 238 256 " style="stroke:gray;fill:none"/><path d="M234 254 234 260 235 265 236 267 235 265 234 260 " style="stroke:gray;fill:none"/><path d="M249 253 252 253 " style="stroke:gray;fill:none"/><path d="M273 252 272 254 273 252 274 254 " style="stroke:gray;fill:none"/><path d="M111 251 109 255 108 259 108 265 109 268 112 271 113 273 113 275 112 278 114 280 114 285 113 287 113 290 113 292 114 295 115 299 117 301 118 304 122 308 126 308 128 307 128 303 123 294 123 292 122 289 121 287 116 282 115 274 115 269 117 267 117 254 114 251 " style="stroke:gray;fill:none"/><path d="M115 270 115 275 116 276 116 282 117 284 122 289 123 292 124 295 124 297 128 304 128 306 126 308 123 308 117 302 115 298 114 295 113 292 113 290 112 288 114 286 114 280 112 277 113 275 113 273 " style="stroke:gray;fill:none"/><path d="M113 250 117 254 117 266 114 269 112 270 109 267 108 265 108 259 109 256 111 252 " style="stroke:gray;fill:none"/><path d="M26 244 26 246 28 247 30 245 28 243 " style="stroke:gray;fill:none"/><path d="M28 243 30 245 28 247 26 245 " style="stroke:gray;fill:none"/><path d="M228 242 229 245 " style="stroke:gray;fill:none"/><path d="M230 237 230 241 231 246 232 250 234 252 236 252 238 251 238 247 236 243 236 241 235 239 233 237 " style="stroke:gray;fill:none"/><path d="M232 237 235 240 236 242 236 244 238 247 239 249 235 252 232 249 231 246 230 241 " style="stroke:gray;fill:none"/><path d="M243 236 242 238 242 240 244 243 245 246 246 249 247 253 248 261 249 273 252 273 254 271 255 267 255 254 254 250 253 245 251 242 251 240 247 236 " style="stroke:gray;fill:none"/><path d="M244 236 246 236 251 241 253 245 254 250 255 254 255 267 254 270 252 272 250 273 248 271 248 261 247 253 246 249 245 246 244 245 243 242 243 240 242 238 " style="stroke:gray;fill:none"/><path d="M284 235 285 238 283 239 282 241 281 243 281 246 278 248 277 252 276 247 276 253 278 253 278 249 281 246 281 243 282 241 286 237 286 235 " style="stroke:gray;fill:none"/><path d="M285 235 285 238 " style="stroke:gray;fill:none"/><path d="M230 234 228 235 227 238 233 235 " style="stroke:gray;fill:none"/><path d="M278 233 277 236 276 239 275 240 274 243 274 247 274 243 275 240 276 237 278 233 278 238 278 240 278 238 280 235 281 237 282 235 280 235 " style="stroke:gray;fill:none"/><path d="M155 234 152 234 149 235 147 236 143 240 142 242 141 245 141 248 141 251 141 253 142 256 143 258 148 263 151 264 162 264 166 262 169 259 171 255 172 252 172 246 171 243 170 241 168 238 164 235 161 234 158 234 " style="stroke:gray;fill:none"/><path d="M155 234 158 234 161 234 163 235 166 238 168 240 171 243 172 246 172 252 171 255 170 257 164 263 162 264 151 264 149 263 142 256 141 253 141 251 141 248 141 245 142 242 149 235 152 234 " style="stroke:gray;fill:none"/><path d="M291 222 291 224 293 224 293 222 " style="stroke:gray;fill:none"/><path d="M292 224 " style="stroke:gray;fill:none"/><path d="M170 221 164 222 160 223 156 224 153 226 150 227 147 227 144 228 142 230 140 230 132 234 129 236 126 238 123 241 122 243 123 267 122 272 122 274 124 276 123 278 125 280 124 283 125 287 127 289 128 293 130 296 130 298 133 303 133 305 137 310 139 310 142 312 138 312 141 313 147 312 154 313 156 311 160 311 164 310 168 308 170 306 172 306 178 303 181 300 184 298 187 297 189 296 194 298 196 298 206 293 210 289 213 285 215 281 216 278 217 274 217 270 215 266 212 265 210 267 209 271 209 273 207 276 203 276 202 279 200 281 199 285 199 283 201 281 202 278 206 278 204 281 204 282 202 285 198 289 194 292 191 293 188 297 186 298 184 298 182 299 179 301 176 304 172 306 170 306 163 310 159 311 156 311 154 313 148 313 143 312 140 311 138 309 136 307 133 304 133 302 127 291 127 289 125 287 127 286 124 283 125 280 123 278 124 275 122 272 124 272 123 267 122 243 127 238 130 236 133 234 136 233 139 233 137 235 139 234 142 233 145 231 147 231 150 229 154 228 157 227 164 227 168 226 169 225 188 225 191 226 195 228 198 230 204 236 207 240 209 244 210 248 211 255 212 261 212 263 214 261 216 264 216 262 213 261 211 259 210 254 210 248 209 244 206 238 203 234 199 230 196 228 192 226 189 225 168 225 164 226 163 227 156 227 153 228 149 229 146 231 144 231 141 233 138 232 140 231 147 227 151 226 153 226 156 224 160 223 164 222 170 221 190 221 196 222 202 223 206 224 209 225 212 226 216 228 221 233 222 235 222 237 224 240 225 243 226 248 226 254 228 257 229 263 228 270 228 274 229 276 228 274 228 270 229 262 228 257 226 254 226 248 225 243 224 240 222 237 222 234 221 232 217 228 215 227 212 226 209 225 206 224 202 223 196 222 190 221 " style="stroke:gray;fill:none"/><path d="M212 265 215 266 217 270 217 274 216 278 215 281 214 283 211 287 205 293 202 295 196 298 194 298 190 295 193 292 196 291 200 288 202 286 204 283 206 280 208 276 209 273 209 271 210 267 " style="stroke:gray;fill:none"/><path d="M359 221 364 222 364 220 " style="stroke:gray;fill:none"/><path d="M359 221 364 221 " style="stroke:gray;fill:none"/><path d="M266 219 266 221 268 221 268 219 " style="stroke:gray;fill:none"/><path d="M267 221 " style="stroke:gray;fill:none"/><path d="M263 219 262 228 264 227 262 227 263 219 264 224 266 226 264 223 " style="stroke:gray;fill:none"/><path d="M167 202 170 202 174 203 177 204 180 205 186 208 189 210 191 212 191 214 191 211 188 209 180 205 177 204 174 203 170 202 " style="stroke:gray;fill:none"/><path d="M322 201 321 205 324 209 329 208 329 204 326 201 " style="stroke:gray;fill:none"/><path d="M325 200 329 204 328 209 325 209 323 207 321 203 " style="stroke:gray;fill:none"/><path d="M166 199 162 200 157 201 153 202 150 203 147 205 145 205 135 210 131 213 127 216 122 221 120 224 118 227 115 233 116 238 119 238 122 235 125 233 128 231 133 229 135 227 143 223 145 223 148 221 151 220 155 219 159 218 164 217 173 216 188 217 190 216 195 218 202 218 206 219 210 220 213 221 214 222 217 223 219 223 221 224 223 223 224 221 223 218 218 213 214 210 211 208 201 203 198 202 195 201 191 200 187 199 " style="stroke:gray;fill:none"/><path d="M166 199 187 199 191 200 195 201 198 202 201 204 203 204 207 206 210 208 213 210 217 213 223 219 224 221 219 223 217 223 214 222 211 221 210 220 206 219 202 218 195 218 190 216 188 217 173 216 164 217 159 218 155 219 151 220 148 221 145 223 143 223 127 231 124 233 122 235 118 238 115 237 115 233 117 229 120 225 122 222 128 216 132 213 136 210 139 208 145 205 147 205 150 203 153 202 157 201 162 200 " style="stroke:gray;fill:none"/><path d="M371 197 370 201 372 201 " style="stroke:gray;fill:none"/><path d="M371 197 371 201 " style="stroke:gray;fill:none"/><path d="M257 196 259 197 261 197 264 198 268 199 269 200 272 201 277 202 280 202 294 201 280 202 277 202 272 201 269 200 265 199 262 198 261 197 259 197 " style="stroke:gray;fill:none"/><path d="M248 196 248 199 249 196 252 197 250 198 252 198 252 196 " style="stroke:gray;fill:none"/><path d="M361 190 360 192 359 194 359 197 360 199 365 200 366 198 366 195 364 191 " style="stroke:gray;fill:none"/><path d="M362 190 365 193 366 195 365 199 361 199 359 197 359 194 360 192 " style="stroke:gray;fill:none"/><path d="M367 180 367 193 " style="stroke:gray;fill:none"/><path d="M280 172 283 173 283 176 285 177 287 178 291 179 297 180 313 180 319 182 319 184 317 186 314 188 311 190 306 192 304 193 304 196 305 193 312 190 315 188 318 186 319 183 326 182 328 181 333 176 330 179 326 182 320 182 314 181 308 180 306 178 303 178 300 176 298 176 296 174 297 176 300 177 302 177 307 179 297 180 291 179 287 178 285 177 283 175 284 172 286 172 " style="stroke:gray;fill:none"/><path d="M273 172 278 172 " style="stroke:gray;fill:none"/><path d="M253 172 255 172 " style="stroke:gray;fill:none"/><path d="M286 170 " style="stroke:gray;fill:none"/><path d="M330 171 328 172 325 173 323 173 320 171 317 171 320 171 323 173 325 173 329 172 331 171 333 169 " style="stroke:gray;fill:none"/><path d="M315 169 304 170 303 171 288 171 303 171 314 170 315 169 317 169 " style="stroke:gray;fill:none"/><path d="M256 170 253 170 256 170 271 171 272 170 279 170 272 170 " style="stroke:gray;fill:none"/><path d="M256 170 272 170 " style="stroke:gray;fill:none"/><path d="M336 168 337 171 " style="stroke:gray;fill:none"/><path d="M320 169 327 167 330 167 327 167 320 169 321 166 " style="stroke:gray;fill:none"/><path d="M354 165 353 167 352 169 353 171 358 176 359 179 361 182 364 182 364 180 365 176 364 172 360 170 359 167 357 165 " style="stroke:gray;fill:none"/><path d="M356 165 360 169 361 172 363 174 365 177 365 179 364 181 362 182 360 180 358 177 357 174 352 169 353 167 " style="stroke:gray;fill:none"/><path d="M337 165 335 166 332 167 334 167 337 165 341 169 340 171 337 175 324 188 321 190 318 192 315 194 313 194 308 197 305 198 302 199 298 200 295 199 295 197 297 195 300 194 302 194 300 194 297 195 295 196 296 200 298 200 302 199 305 198 308 197 311 196 319 192 322 190 325 188 337 176 340 172 340 168 339 166 " style="stroke:gray;fill:none"/><path d="M330 165 " style="stroke:gray;fill:none"/><path d="M324 165 327 165 " style="stroke:gray;fill:none"/><path d="M354 161 352 162 349 165 348 167 348 169 346 171 345 174 342 178 337 184 334 187 328 192 324 195 321 197 317 200 315 200 313 202 309 204 305 205 299 205 296 206 292 210 292 212 294 215 296 218 298 220 301 221 303 223 312 227 314 229 318 230 330 230 336 229 340 228 348 224 354 219 359 214 362 210 364 206 364 204 365 202 364 204 362 209 359 213 353 219 347 224 339 228 336 229 329 230 318 230 315 229 305 224 302 222 299 220 296 217 293 213 292 210 296 206 299 205 305 205 309 204 319 199 322 197 325 195 329 192 335 187 337 185 341 180 344 176 346 173 349 166 354 161 356 161 362 167 363 170 362 168 360 165 360 164 358 162 356 161 " style="stroke:gray;fill:none"/><path d="M194 160 196 161 195 165 197 167 205 171 207 171 210 173 213 173 218 171 213 172 210 172 208 172 205 171 203 170 201 168 199 168 195 164 196 161 200 162 203 164 206 165 209 165 213 166 216 167 219 169 224 174 226 177 229 181 229 182 236 189 236 192 229 199 225 202 221 204 216 203 218 202 221 201 223 200 225 199 223 200 221 201 219 201 216 203 214 203 210 201 208 198 211 195 215 194 218 193 223 193 226 192 227 191 233 192 227 191 224 192 223 193 218 193 215 194 211 195 209 196 207 199 205 199 202 197 199 196 195 195 192 194 188 193 180 192 177 192 177 194 179 194 177 193 180 192 184 194 182 195 184 195 185 193 188 193 192 194 195 195 199 196 202 197 205 199 207 199 209 200 211 202 213 203 217 204 221 204 224 202 226 202 230 199 236 193 236 188 229 181 226 177 226 176 223 172 220 169 216 167 213 166 209 165 206 165 203 164 200 162 198 162 196 161 " style="stroke:gray;fill:none"/><path d="M362 159 " style="stroke:gray;fill:none"/><path d="M360 158 362 157 " style="stroke:gray;fill:none"/><path d="M191 155 194 157 " style="stroke:gray;fill:none"/><path d="M192 155 194 157 191 157 " style="stroke:gray;fill:none"/><path d="M187 154 189 155 " style="stroke:gray;fill:none"/><path d="M287 150 " style="stroke:gray;fill:none"/><path d="M378 149 378 153 382 153 382 151 380 149 " style="stroke:gray;fill:none"/><path d="M379 149 382 152 378 152 " style="stroke:gray;fill:none"/><path d="M299 149 303 149 " style="stroke:gray;fill:none"/><path d="M309 148 " style="stroke:gray;fill:none"/><path d="M0 147 0 149 " style="stroke:gray;fill:none"/><path d="M305 146 289 147 288 148 253 148 262 148 264 150 271 150 263 149 288 148 304 147 305 146 309 146 " style="stroke:gray;fill:none"/><path d="M340 145 " style="stroke:gray;fill:none"/><path d="M334 145 336 145 " style="stroke:gray;fill:none"/><path d="M205 145 205 147 " style="stroke:gray;fill:none"/><path d="M342 144 " style="stroke:gray;fill:none"/><path d="M325 144 313 145 311 146 313 145 325 144 332 144 " style="stroke:gray;fill:none"/><path d="M5 144 3 145 4 148 6 148 7 146 " style="stroke:gray;fill:none"/><path d="M5 144 7 146 5 148 3 146 " style="stroke:gray;fill:none"/><path d="M340 143 334 143 340 143 342 142 " style="stroke:gray;fill:none"/><path d="M190 142 189 144 187 146 189 144 " style="stroke:gray;fill:none"/><path d="M213 140 212 144 208 145 208 147 215 147 " style="stroke:gray;fill:none"/><path d="M210 144 214 147 208 146 " style="stroke:gray;fill:none"/><path d="M214 140 214 144 " style="stroke:gray;fill:none"/><path d="M187 141 185 145 185 150 187 152 187 149 186 151 185 145 186 143 190 140 " style="stroke:gray;fill:none"/><path d="M219 139 219 143 225 148 242 148 244 150 250 150 251 148 243 149 225 148 222 146 220 144 219 142 " style="stroke:gray;fill:none"/><path d="M243 149 250 149 " style="stroke:gray;fill:none"/><path d="M0 139 1 145 " style="stroke:gray;fill:none"/><path d="M354 138 354 140 356 140 356 138 " style="stroke:gray;fill:none"/><path d="M355 140 " style="stroke:gray;fill:none"/><path d="M212 138 209 141 211 140 " style="stroke:gray;fill:none"/><path d="M219 129 218 132 219 137 218 132 " style="stroke:gray;fill:none"/><path d="M217 129 215 132 213 132 214 135 217 137 214 135 214 132 216 132 " style="stroke:gray;fill:none"/><path d="M359 128 357 130 358 134 361 135 364 138 364 140 361 143 359 144 355 145 352 146 348 147 344 148 337 149 331 150 323 151 314 152 303 153 288 154 266 155 248 155 230 154 221 153 215 152 211 151 210 150 206 149 210 150 214 151 215 152 221 153 230 154 248 155 266 155 288 154 303 153 314 152 323 151 331 150 337 149 344 148 348 147 352 146 356 145 359 144 362 143 364 141 364 137 362 135 359 134 357 131 360 128 362 128 366 129 372 132 378 138 378 141 372 147 369 149 361 153 358 154 355 155 352 156 349 157 345 158 341 159 336 160 331 161 326 162 320 163 314 164 303 165 289 166 254 165 248 166 245 166 239 165 232 164 231 163 223 163 218 162 214 161 210 160 206 159 203 157 201 157 199 156 196 154 191 149 191 146 198 139 204 136 207 135 209 135 211 136 206 135 203 137 201 137 197 139 192 144 191 146 191 149 192 151 195 154 203 158 206 159 210 160 214 161 218 162 223 163 231 163 238 164 245 166 242 168 231 169 237 169 233 170 231 172 230 175 229 171 229 175 231 175 233 177 232 179 234 180 236 184 239 183 243 187 241 188 239 186 241 188 244 188 246 189 248 191 248 193 251 192 253 194 254 196 255 194 252 192 247 190 245 188 243 186 239 183 237 181 236 179 234 177 231 175 232 172 234 173 233 170 247 171 251 171 251 169 248 168 251 170 247 171 237 169 242 168 245 167 246 166 249 165 254 165 289 166 303 165 314 164 320 163 326 162 331 161 336 160 341 159 345 158 349 157 352 156 355 155 358 154 361 153 364 152 370 149 373 147 378 142 378 137 373 132 369 130 366 129 362 128 " style="stroke:gray;fill:none"/><path d="M249 193 " style="stroke:gray;fill:none"/><path d="M237 184 " style="stroke:gray;fill:none"/><path d="M233 179 " style="stroke:gray;fill:none"/><path d="M428 128 " style="stroke:gray;fill:none"/><path d="M420 126 420 128 422 129 424 128 423 125 " style="stroke:gray;fill:none"/><path d="M422 125 424 127 422 129 420 127 " style="stroke:gray;fill:none"/><path d="M354 125 " style="stroke:gray;fill:none"/><path d="M202 124 197 125 193 126 188 127 182 130 179 132 172 139 168 144 168 146 165 151 164 154 163 158 162 163 162 171 163 175 164 178 165 181 168 187 172 191 175 192 173 191 168 186 164 178 163 175 162 171 162 163 163 158 165 153 170 154 172 152 175 151 176 144 175 142 178 139 180 138 187 137 180 138 176 140 175 143 176 149 173 152 171 152 169 154 165 153 165 151 168 145 172 140 180 132 184 129 186 129 189 127 194 126 198 125 202 124 208 125 209 127 207 129 205 130 202 130 198 133 196 132 192 135 190 137 193 135 197 132 203 130 205 130 208 126 208 124 " style="stroke:gray;fill:none"/><path d="M355 123 " style="stroke:gray;fill:none"/><path d="M221 118 220 122 219 127 219 123 " style="stroke:gray;fill:none"/><path d="M242 113 242 124 243 130 244 134 245 137 248 142 248 144 251 146 248 143 245 137 244 134 243 130 242 124 " style="stroke:gray;fill:none"/><path d="M218 114 219 112 " style="stroke:gray;fill:none"/><path d="M218 108 220 109 218 108 220 107 " style="stroke:gray;fill:none"/><path d="M164 104 163 108 165 108 " style="stroke:gray;fill:none"/><path d="M164 104 164 108 " style="stroke:gray;fill:none"/><path d="M210 100 210 102 211 104 213 104 211 100 214 102 " style="stroke:gray;fill:none"/><path d="M206 96 " style="stroke:gray;fill:none"/><path d="M203 91 202 94 204 96 202 94 203 91 204 93 206 94 204 93 " style="stroke:gray;fill:none"/><path d="M138 90 138 92 143 91 143 89 141 88 " style="stroke:gray;fill:none"/><path d="M141 88 143 90 141 92 138 90 " style="stroke:gray;fill:none"/><path d="M340 87 340 93 341 95 344 98 344 100 345 102 347 102 347 98 343 94 343 90 343 94 346 97 347 99 346 102 344 100 344 98 341 95 340 93 340 88 342 88 " style="stroke:gray;fill:none"/><path d="M161 86 157 88 155 91 154 94 151 97 149 101 148 104 147 108 146 113 146 121 147 126 148 130 150 133 150 135 152 138 154 141 156 144 159 145 163 143 165 140 168 136 168 135 173 130 178 126 181 125 183 123 185 122 188 121 190 121 194 120 197 119 199 118 199 113 196 110 191 106 186 102 182 99 181 99 176 94 172 91 171 91 167 88 165 86 170 91 174 94 179 98 183 101 184 101 190 106 195 110 200 116 197 119 194 120 191 120 188 121 185 122 181 124 179 126 176 127 172 130 169 133 165 138 163 141 163 142 161 144 159 145 157 144 155 142 153 139 151 136 150 134 150 132 148 130 147 125 146 121 146 113 147 108 148 104 149 101 151 98 152 96 153 99 153 96 156 90 159 87 161 86 164 89 164 91 160 95 157 96 155 99 159 95 164 91 163 87 " style="stroke:gray;fill:none"/><path d="M369 85 367 87 371 87 " style="stroke:gray;fill:none"/><path d="M369 85 371 87 367 87 " style="stroke:gray;fill:none"/><path d="M235 89 239 88 234 91 232 95 229 99 225 107 224 109 221 114 220 116 222 116 222 113 227 104 228 102 229 104 231 106 233 106 236 108 238 110 240 111 238 109 234 106 230 105 228 102 229 100 232 97 233 95 235 96 239 100 242 100 240 100 237 97 235 96 233 95 234 93 236 92 240 88 240 85 " style="stroke:gray;fill:none"/><path d="M239 85 239 88 " style="stroke:gray;fill:none"/><path d="M255 80 253 82 251 84 249 86 247 90 247 94 244 99 244 105 243 107 243 111 245 114 248 116 272 128 274 128 279 131 281 131 284 133 286 133 289 135 292 136 294 136 299 139 302 140 304 140 308 142 310 143 308 142 304 140 302 140 299 139 294 136 292 136 289 135 286 133 284 133 281 131 279 131 274 128 272 128 250 117 247 115 244 112 242 108 246 104 248 104 260 110 262 112 270 116 272 116 281 121 284 122 286 122 289 124 291 124 296 127 298 127 301 128 306 131 308 131 311 133 313 133 318 136 320 136 324 138 326 140 326 142 326 139 324 138 320 136 318 136 313 133 311 133 308 131 306 131 301 128 299 128 296 127 291 124 289 124 286 122 284 122 281 121 272 116 270 116 264 113 262 111 248 104 245 105 244 100 245 97 247 94 247 90 249 86 252 86 253 89 255 90 257 90 260 92 262 92 265 93 268 95 271 96 274 97 277 98 280 99 283 100 286 100 289 101 292 103 295 104 298 105 301 105 304 107 307 107 310 108 313 109 316 111 319 112 322 112 325 113 328 114 331 115 334 116 337 117 339 118 343 122 344 125 345 139 344 137 344 125 343 121 341 119 337 117 334 116 331 115 328 114 325 113 322 112 319 112 316 111 313 109 310 108 307 107 304 107 301 105 298 105 295 104 292 103 289 101 286 100 283 100 280 99 277 98 274 97 271 96 268 95 265 93 263 93 260 92 257 90 255 90 252 87 251 84 253 82 256 80 259 80 262 81 265 83 267 83 270 85 273 86 276 87 279 88 282 89 285 90 288 91 291 92 294 93 297 94 300 95 303 96 306 97 309 98 312 99 315 100 318 101 321 102 324 103 327 104 331 105 334 106 337 104 339 103 336 104 334 106 331 105 327 104 324 103 321 102 318 101 315 100 312 99 309 98 306 97 303 96 300 95 297 94 294 93 291 92 288 91 285 90 282 89 279 88 276 87 273 86 270 85 267 83 265 83 262 81 259 80 " style="stroke:gray;fill:none"/><path d="M156 82 157 80 " style="stroke:gray;fill:none"/><path d="M321 79 321 82 325 85 329 88 330 88 334 92 337 96 339 99 341 102 341 104 343 106 345 109 346 112 347 115 348 118 349 122 350 125 350 136 349 138 346 141 344 141 347 141 349 139 350 137 350 125 349 122 348 118 347 115 346 112 345 109 343 105 341 103 341 101 339 98 337 95 334 91 331 88 327 85 326 85 321 81 " style="stroke:gray;fill:none"/><path d="M163 74 " style="stroke:gray;fill:none"/><path d="M310 73 " style="stroke:gray;fill:none"/><path d="M161 73 " style="stroke:gray;fill:none"/><path d="M185 72 183 73 182 78 184 80 187 82 190 84 193 85 195 84 195 80 195 78 194 76 190 72 " style="stroke:gray;fill:none"/><path d="M185 72 191 73 195 78 195 80 196 82 193 85 191 84 189 82 186 80 185 80 182 74 " style="stroke:gray;fill:none"/><path d="M140 72 139 74 140 77 139 74 141 72 142 77 142 72 " style="stroke:gray;fill:none"/><path d="M150 70 147 73 148 79 153 79 155 77 157 76 159 77 162 78 164 79 168 82 171 85 174 87 175 87 178 89 182 92 187 96 191 99 199 107 206 113 210 116 215 115 215 112 213 109 211 107 203 101 197 95 192 91 189 89 185 86 182 84 179 82 176 80 174 80 172 78 170 78 168 77 165 75 163 76 165 75 168 77 171 78 173 80 175 80 178 82 181 84 184 86 188 89 191 91 196 95 203 101 209 106 211 109 214 111 215 114 213 116 211 116 207 113 200 107 192 99 189 97 188 97 183 92 179 89 176 87 173 85 172 85 169 82 165 79 163 78 160 78 158 77 156 75 157 72 159 72 157 71 153 70 " style="stroke:gray;fill:none"/><path d="M151 70 153 70 157 72 155 77 152 79 149 79 147 77 147 74 " style="stroke:gray;fill:none"/><path d="M177 69 179 70 177 69 179 68 " style="stroke:gray;fill:none"/><path d="M164 68 162 69 162 71 165 72 167 73 171 74 175 74 171 74 167 73 164 71 162 70 164 68 167 68 170 71 173 72 175 72 172 71 169 69 167 68 " style="stroke:gray;fill:none"/><path d="M302 67 303 70 301 72 298 72 292 70 294 69 291 71 289 68 273 68 272 71 270 69 268 69 266 70 265 73 262 74 260 74 258 76 256 76 250 79 247 81 244 83 242 85 245 83 246 87 246 83 248 81 251 79 261 74 263 74 268 71 273 70 290 70 297 71 301 72 304 73 307 74 310 75 312 76 314 78 316 78 318 79 316 77 318 76 316 76 315 78 313 76 313 74 308 75 305 73 307 72 305 71 304 67 " style="stroke:gray;fill:none"/><path d="M312 76 " style="stroke:gray;fill:none"/><path d="M304 70 306 72 302 72 " style="stroke:gray;fill:none"/><path d="M268 70 271 70 " style="stroke:gray;fill:none"/><path d="M273 69 289 69 " style="stroke:gray;fill:none"/><path d="M302 69 " style="stroke:gray;fill:none"/><path d="M195 65 195 69 " style="stroke:gray;fill:none"/><path d="M64 60 62 61 64 64 " style="stroke:gray;fill:none"/><path d="M64 60 64 64 62 62 " style="stroke:gray;fill:none"/><path d="M196 59 196 63 " style="stroke:gray;fill:none"/><path d="M194 58 194 63 193 69 193 64 " style="stroke:gray;fill:none"/><path d="M196 57 " style="stroke:gray;fill:none"/><path d="M203 49 202 51 201 53 200 56 199 60 199 74 200 78 201 81 204 86 204 88 209 93 210 96 213 98 209 94 206 90 204 87 201 81 200 78 199 74 199 60 200 56 201 53 202 51 " style="stroke:gray;fill:none"/><path d="M198 43 199 48 202 47 203 45 202 43 " style="stroke:gray;fill:none"/><path d="M202 43 203 45 198 47 198 44 " style="stroke:gray;fill:none"/><path d="M279 35 279 37 281 37 281 35 " style="stroke:gray;fill:none"/><path d="M280 37 " style="stroke:gray;fill:none"/><path d="M258 32 261 36 272 46 274 51 276 53 276 55 278 57 276 62 277 59 279 57 276 55 276 53 273 47 271 44 264 37 " style="stroke:gray;fill:none"/><path d="M242 28 236 31 233 34 230 38 228 42 228 44 226 47 225 50 225 60 226 64 228 67 228 69 229 71 231 74 235 78 238 78 236 78 230 72 228 69 228 67 226 64 225 60 225 50 226 47 228 44 228 42 229 40 232 36 238 30 242 28 245 28 249 29 252 30 254 31 256 32 254 31 252 30 249 29 245 28 " style="stroke:gray;fill:none"/><path d="M235 25 232 26 228 27 225 28 219 31 217 33 214 34 208 40 207 43 205 46 206 44 208 41 215 34 218 32 221 30 223 29 225 29 228 27 232 26 235 25 247 25 251 26 254 27 258 29 260 31 265 33 273 41 277 46 280 52 281 55 282 58 282 60 277 65 274 64 270 65 265 66 262 67 259 68 247 74 244 76 239 80 234 84 232 86 227 92 225 95 225 96 220 101 217 101 215 99 217 101 220 101 222 100 224 98 227 94 231 89 231 88 235 84 241 79 245 76 248 74 259 69 262 69 261 72 263 69 264 71 263 69 261 68 265 67 269 66 270 65 275 64 277 65 279 64 281 62 282 60 282 58 281 55 280 52 279 49 277 45 273 40 266 33 254 27 251 26 247 25 " style="stroke:gray;fill:none"/><path d="M227 22 227 24 229 24 229 22 " style="stroke:gray;fill:none"/><path d="M228 24 " style="stroke:gray;fill:none"/></svg>