<svg width="429px" height="547px" xmlns="http://www.w3.org/2000/svg"><path d="M175 524 172 526 " style="stroke:gray;fill:none"/><path d="M160 524 " style="stroke:gray;fill:none"/><path d="M156 521 158 523 " style="stroke:gray;fill:none"/><path d="M149 514 " style="stroke:gray;fill:none"/><path d="M147 511 " style="stroke:gray;fill:none"/><path d="M101 508 " style="stroke:gray;fill:none"/><path d="M103 507 105 507 " style="stroke:gray;fill:none"/><path d="M88 507 89 509 95 509 98 509 95 509 91 510 " style="stroke:gray;fill:none"/><path d="M107 506 " style="stroke:gray;fill:none"/><path d="M109 505 " style="stroke:gray;fill:none"/><path d="M179 503 179 513 " style="stroke:gray;fill:none"/><path d="M117 501 " style="stroke:gray;fill:none"/><path d="M170 501 168 504 166 505 158 505 155 504 151 504 149 506 149 509 151 513 157 519 161 522 163 522 166 524 170 524 172 523 175 520 176 518 177 515 177 504 174 501 " style="stroke:gray;fill:none"/><path d="M173 500 177 504 177 515 176 518 170 524 166 524 162 522 158 519 151 512 149 509 149 506 151 504 155 504 158 505 166 505 168 504 " style="stroke:gray;fill:none"/><path d="M119 500 " style="stroke:gray;fill:none"/><path d="M121 499 " style="stroke:gray;fill:none"/><path d="M86 496 86 500 " style="stroke:gray;fill:none"/><path d="M143 491 141 492 140 495 144 491 150 497 152 498 155 499 162 499 166 498 169 496 171 496 174 498 171 496 169 496 166 498 162 499 155 499 152 498 145 491 " style="stroke:gray;fill:none"/><path d="M175 489 174 494 177 497 178 500 177 497 176 495 173 491 " style="stroke:gray;fill:none"/><path d="M144 489 " style="stroke:gray;fill:none"/><path d="M91 483 90 485 89 488 88 491 88 502 89 504 92 507 97 507 100 506 103 505 106 503 109 503 111 501 114 500 116 498 119 497 122 495 127 490 126 488 124 486 121 486 116 489 113 490 106 490 103 489 101 488 97 484 95 482 " style="stroke:gray;fill:none"/><path d="M94 481 98 485 103 489 106 490 113 490 116 489 121 486 124 486 126 488 126 490 120 496 117 498 114 499 112 501 108 503 106 503 103 505 100 506 97 507 93 507 88 502 88 491 89 488 90 485 " style="stroke:gray;fill:none"/><path d="M144 479 144 483 143 485 139 486 137 488 137 490 137 493 140 499 141 502 143 504 145 506 145 508 147 508 145 507 145 505 143 502 140 499 142 499 140 498 138 496 137 493 137 490 137 488 139 486 143 486 143 484 " style="stroke:gray;fill:none"/><path d="M285 479 " style="stroke:gray;fill:none"/><path d="M95 477 93 479 " style="stroke:gray;fill:none"/><path d="M128 476 129 478 131 480 131 488 130 491 128 493 130 491 131 488 131 479 " style="stroke:gray;fill:none"/><path d="M186 476 184 476 182 477 181 479 181 482 180 484 181 479 184 476 186 476 188 475 " style="stroke:gray;fill:none"/><path d="M126 476 " style="stroke:gray;fill:none"/><path d="M282 474 280 480 282 482 286 482 288 480 288 478 287 475 284 474 " style="stroke:gray;fill:none"/><path d="M285 475 287 477 288 479 285 482 283 482 279 477 281 475 " style="stroke:gray;fill:none"/><path d="M101 473 103 474 105 475 107 477 111 479 115 480 125 480 129 484 128 487 129 484 125 480 115 480 111 479 109 478 106 475 103 474 " style="stroke:gray;fill:none"/><path d="M29 473 27 475 31 475 " style="stroke:gray;fill:none"/><path d="M29 473 31 475 27 475 " style="stroke:gray;fill:none"/><path d="M148 469 " style="stroke:gray;fill:none"/><path d="M131 469 " style="stroke:gray;fill:none"/><path d="M29 469 27 470 25 472 24 475 25 477 32 478 34 476 33 471 31 470 " style="stroke:gray;fill:none"/><path d="M29 469 31 470 34 473 33 477 31 478 27 478 24 475 25 472 27 470 " style="stroke:gray;fill:none"/><path d="M149 467 " style="stroke:gray;fill:none"/><path d="M102 467 101 471 96 473 92 476 91 478 91 480 91 478 94 475 97 473 98 473 101 471 " style="stroke:gray;fill:none"/><path d="M180 462 178 463 176 466 178 468 178 464 " style="stroke:gray;fill:none"/><path d="M177 464 177 467 " style="stroke:gray;fill:none"/><path d="M177 460 173 464 173 467 179 472 182 473 186 473 189 470 189 466 188 464 185 461 183 460 " style="stroke:gray;fill:none"/><path d="M177 460 183 460 189 466 189 469 185 473 183 473 179 472 176 470 174 468 173 466 173 464 " style="stroke:gray;fill:none"/><path d="M184 458 " style="stroke:gray;fill:none"/><path d="M175 458 " style="stroke:gray;fill:none"/><path d="M196 457 194 461 191 464 191 466 191 464 195 460 " style="stroke:gray;fill:none"/><path d="M121 457 122 459 122 468 121 470 118 472 121 471 122 469 " style="stroke:gray;fill:none"/><path d="M99 451 99 457 " style="stroke:gray;fill:none"/><path d="M104 450 " style="stroke:gray;fill:none"/><path d="M102 447 102 451 102 460 103 464 105 467 110 472 112 473 115 474 122 474 125 473 128 470 128 468 130 465 131 459 131 457 130 455 128 453 125 453 118 454 115 452 113 452 107 446 " style="stroke:gray;fill:none"/><path d="M104 446 106 446 112 452 115 453 118 454 120 455 125 453 128 453 130 455 131 457 131 459 130 465 128 469 124 473 122 474 115 474 112 473 105 466 103 463 102 460 102 451 101 449 " style="stroke:gray;fill:none"/><path d="M139 441 138 445 136 447 133 449 133 456 133 449 135 447 137 447 138 445 139 443 " style="stroke:gray;fill:none"/><path d="M102 438 102 442 101 444 100 446 102 443 " style="stroke:gray;fill:none"/><path d="M104 435 104 440 " style="stroke:gray;fill:none"/><path d="M354 434 352 435 350 438 351 440 352 443 354 444 358 443 358 438 356 435 " style="stroke:gray;fill:none"/><path d="M354 434 356 436 353 439 356 440 353 439 356 436 358 439 358 442 356 444 354 444 352 442 351 440 350 438 " style="stroke:gray;fill:none"/><path d="M113 434 110 437 110 442 115 447 119 448 124 448 126 446 127 443 127 441 126 439 124 436 122 435 120 434 " style="stroke:gray;fill:none"/><path d="M114 434 120 434 123 436 125 438 127 441 127 443 126 445 123 448 118 447 120 446 123 443 124 441 120 446 118 447 116 447 110 441 110 438 " style="stroke:gray;fill:none"/><path d="M155 433 " style="stroke:gray;fill:none"/><path d="M212 431 210 433 208 433 205 432 202 436 203 434 205 432 207 432 " style="stroke:gray;fill:none"/><path d="M114 432 " style="stroke:gray;fill:none"/><path d="M119 430 119 432 " style="stroke:gray;fill:none"/><path d="M178 429 175 430 172 432 170 435 169 438 168 442 168 452 169 454 171 454 168 451 168 442 169 439 170 436 172 434 174 432 176 430 179 429 187 429 190 430 194 432 197 435 195 432 191 430 188 429 " style="stroke:gray;fill:none"/><path d="M102 427 101 429 101 431 102 435 101 431 101 429 " style="stroke:gray;fill:none"/><path d="M148 428 154 426 156 428 156 431 156 427 154 426 " style="stroke:gray;fill:none"/><path d="M147 423 " style="stroke:gray;fill:none"/><path d="M115 405 114 407 120 407 122 408 125 410 129 414 131 417 132 420 132 426 131 428 129 430 131 429 132 427 132 419 131 416 129 413 126 410 123 408 120 407 117 407 " style="stroke:gray;fill:none"/><path d="M106 401 " style="stroke:gray;fill:none"/><path d="M102 395 101 397 101 399 103 404 106 406 106 409 106 406 103 404 101 399 101 397 " style="stroke:gray;fill:none"/><path d="M218 392 216 393 215 395 215 397 214 400 213 401 213 404 212 408 211 411 210 412 209 416 208 420 207 424 207 426 208 428 211 429 213 427 214 425 215 422 216 417 217 413 218 408 219 404 220 399 220 394 " style="stroke:gray;fill:none"/><path d="M218 392 220 394 220 399 219 404 218 408 217 413 216 417 215 422 214 425 210 429 207 426 207 424 208 420 209 416 210 412 211 409 212 405 213 401 214 398 215 395 " style="stroke:gray;fill:none"/><path d="M283 389 " style="stroke:gray;fill:none"/><path d="M217 388 216 391 221 388 " style="stroke:gray;fill:none"/><path d="M281 385 278 386 277 388 278 390 281 392 283 392 285 391 285 386 283 385 " style="stroke:gray;fill:none"/><path d="M283 386 286 387 285 391 281 391 280 391 277 388 279 386 " style="stroke:gray;fill:none"/><path d="M220 384 218 385 220 384 222 385 " style="stroke:gray;fill:none"/><path d="M113 382 115 382 " style="stroke:gray;fill:none"/><path d="M181 382 " style="stroke:gray;fill:none"/><path d="M110 381 " style="stroke:gray;fill:none"/><path d="M223 380 225 384 225 386 224 388 222 390 222 393 223 390 225 387 225 384 " style="stroke:gray;fill:none"/><path d="M221 380 " style="stroke:gray;fill:none"/><path d="M188 376 " style="stroke:gray;fill:none"/><path d="M133 381 132 383 132 391 134 395 143 404 146 406 156 411 159 412 162 413 167 414 185 414 189 413 192 412 196 411 199 409 201 409 203 406 200 409 198 409 195 411 191 412 188 413 184 414 167 414 163 413 160 412 157 411 147 406 144 404 134 394 132 390 132 384 133 382 139 376 " style="stroke:gray;fill:none"/><path d="M103 374 105 375 105 381 107 384 105 389 105 394 104 396 105 398 108 399 110 397 111 395 112 392 112 385 110 383 107 383 105 381 105 375 " style="stroke:gray;fill:none"/><path d="M108 383 110 383 112 385 112 392 111 395 107 399 105 394 105 389 106 385 " style="stroke:gray;fill:none"/><path d="M100 373 " style="stroke:gray;fill:none"/><path d="M26 368 25 373 27 375 31 375 33 373 33 370 31 368 " style="stroke:gray;fill:none"/><path d="M29 367 33 372 30 375 28 375 25 372 25 370 " style="stroke:gray;fill:none"/><path d="M118 365 117 367 116 369 112 371 110 371 113 371 116 370 117 368 " style="stroke:gray;fill:none"/><path d="M236 364 " style="stroke:gray;fill:none"/><path d="M138 364 " style="stroke:gray;fill:none"/><path d="M28 363 25 365 28 363 30 363 33 364 35 366 35 369 35 366 33 364 30 363 " style="stroke:gray;fill:none"/><path d="M163 362 163 365 166 366 166 369 164 365 164 361 169 361 " style="stroke:gray;fill:none"/><path d="M155 361 155 364 157 365 161 364 160 360 " style="stroke:gray;fill:none"/><path d="M156 360 161 361 160 365 157 365 155 363 " style="stroke:gray;fill:none"/><path d="M138 360 136 362 136 364 136 362 " style="stroke:gray;fill:none"/><path d="M186 359 185 361 189 362 189 359 " style="stroke:gray;fill:none"/><path d="M188 362 185 361 " style="stroke:gray;fill:none"/><path d="M145 358 143 363 143 366 143 368 147 372 153 375 155 376 153 375 149 373 143 367 143 363 144 360 147 357 150 357 153 361 150 364 150 366 152 368 157 369 152 368 150 366 150 364 153 362 153 360 150 357 " style="stroke:gray;fill:none"/><path d="M244 354 242 357 " style="stroke:gray;fill:none"/><path d="M191 352 177 353 175 354 173 355 172 357 171 359 170 364 169 371 165 371 159 370 157 372 158 376 162 378 165 379 170 380 170 383 170 381 172 379 182 379 184 378 185 376 185 373 184 371 188 370 188 373 190 375 192 375 196 373 196 371 197 367 198 366 199 360 199 355 196 352 " style="stroke:gray;fill:none"/><path d="M191 352 195 352 199 356 199 360 198 366 197 370 196 372 194 374 192 375 190 375 188 373 188 369 185 369 185 373 185 376 182 379 172 379 169 379 165 379 162 378 160 377 157 374 157 372 159 370 164 370 170 371 170 364 171 359 172 357 175 354 177 353 " style="stroke:gray;fill:none"/><path d="M139 351 " style="stroke:gray;fill:none"/><path d="M147 343 148 346 150 346 148 343 150 343 152 345 150 343 " style="stroke:gray;fill:none"/><path d="M142 341 " style="stroke:gray;fill:none"/><path d="M140 341 139 344 141 343 " style="stroke:gray;fill:none"/><path d="M334 340 " style="stroke:gray;fill:none"/><path d="M94 339 92 341 92 343 91 346 90 347 90 349 90 347 91 344 92 341 " style="stroke:gray;fill:none"/><path d="M143 338 " style="stroke:gray;fill:none"/><path d="M330 338 330 342 332 343 334 343 336 342 336 338 334 337 " style="stroke:gray;fill:none"/><path d="M335 338 335 342 330 341 330 339 " style="stroke:gray;fill:none"/><path d="M147 338 149 339 151 337 " style="stroke:gray;fill:none"/><path d="M141 337 141 339 " style="stroke:gray;fill:none"/><path d="M96 336 " style="stroke:gray;fill:none"/><path d="M143 336 149 335 151 335 149 334 144 334 149 335 142 335 143 331 " style="stroke:gray;fill:none"/><path d="M98 333 100 331 " style="stroke:gray;fill:none"/><path d="M107 330 102 332 99 336 96 340 94 344 93 348 92 352 92 356 93 360 94 363 95 365 100 370 102 371 105 372 108 373 112 373 115 373 117 373 119 372 121 370 121 366 120 363 118 363 110 355 109 352 105 348 105 346 107 344 108 342 " style="stroke:gray;fill:none"/><path d="M104 331 108 332 108 342 106 344 105 346 105 348 106 350 109 354 111 357 117 363 119 363 121 365 122 368 117 373 115 373 112 373 108 373 105 372 101 370 94 363 93 360 92 356 92 352 93 348 94 345 96 341 99 337 102 333 " style="stroke:gray;fill:none"/><path d="M243 327 239 328 236 329 233 330 227 333 224 335 221 337 211 346 209 348 209 350 212 346 222 337 225 335 228 333 234 330 237 329 240 328 244 327 247 327 250 330 248 327 " style="stroke:gray;fill:none"/><path d="M127 326 121 327 118 328 115 331 114 333 114 348 115 352 116 354 119 357 122 359 126 360 131 360 134 359 138 357 140 355 142 352 142 350 141 353 136 358 134 358 131 360 126 360 123 359 120 357 115 352 114 348 114 334 115 332 119 328 121 327 127 326 132 326 134 327 137 330 137 334 137 338 136 342 135 343 135 345 137 348 139 349 142 348 138 348 135 345 135 343 136 339 137 334 137 331 137 329 135 327 132 326 " style="stroke:gray;fill:none"/><path d="M136 324 " style="stroke:gray;fill:none"/><path d="M133 324 " style="stroke:gray;fill:none"/><path d="M253 324 255 321 " style="stroke:gray;fill:none"/><path d="M140 320 " style="stroke:gray;fill:none"/><path d="M203 318 200 319 198 321 195 324 192 326 189 328 183 331 180 331 184 331 190 328 193 326 196 324 200 321 201 319 " style="stroke:gray;fill:none"/><path d="M129 318 " style="stroke:gray;fill:none"/><path d="M203 316 " style="stroke:gray;fill:none"/><path d="M201 317 " style="stroke:gray;fill:none"/><path d="M234 315 232 316 224 324 220 327 217 329 214 331 206 335 203 336 199 337 195 338 190 339 184 340 162 339 154 340 154 343 156 345 158 346 163 347 174 348 173 352 160 351 157 351 155 353 152 353 149 354 147 355 149 354 151 354 155 353 157 351 160 351 174 351 174 349 176 347 179 348 179 351 179 349 181 347 194 346 203 346 206 349 206 354 205 359 204 365 203 371 202 374 201 376 197 380 194 382 191 383 188 384 184 385 165 385 161 384 157 383 154 382 144 377 137 369 133 367 131 367 128 370 123 376 122 376 119 379 117 382 116 385 114 385 117 386 118 391 118 394 117 397 115 400 113 403 111 405 110 407 110 409 108 411 107 414 106 417 105 420 104 424 104 427 106 431 109 431 111 429 113 428 116 427 118 427 122 428 125 430 130 435 132 438 132 439 137 440 139 438 142 434 145 430 146 427 144 423 147 420 149 421 151 421 156 424 159 424 162 424 160 427 161 429 159 432 157 435 157 449 156 455 155 458 154 459 154 463 153 466 149 474 147 476 147 479 147 482 147 484 149 488 153 492 156 493 161 493 165 492 171 489 175 486 178 483 178 479 175 476 169 471 167 468 167 462 168 460 173 455 175 454 178 454 181 454 184 454 189 457 192 457 195 454 196 451 197 448 198 445 199 441 199 435 200 432 201 431 201 425 202 421 203 417 204 413 205 409 206 405 207 402 208 398 209 394 210 390 211 387 213 383 219 377 233 364 238 358 240 355 243 351 245 348 250 338 250 336 252 334 253 331 253 328 252 326 250 324 245 322 242 320 238 316 236 315 " style="stroke:gray;fill:none"/><path d="M158 488 " style="stroke:gray;fill:none"/><path d="M234 315 236 315 241 320 244 322 246 323 248 323 253 328 253 331 250 336 250 338 247 344 245 347 243 350 240 354 238 357 233 363 218 377 213 382 212 384 211 387 210 390 209 394 209 397 208 401 206 404 205 409 204 413 203 417 202 421 201 425 201 431 200 434 199 435 199 441 198 445 197 448 196 451 195 453 191 457 189 457 184 454 181 454 178 454 175 454 171 456 168 459 167 461 167 468 169 472 173 476 178 480 178 482 174 486 169 490 165 492 161 491 161 489 159 487 159 485 160 482 162 479 168 474 166 474 162 478 160 481 159 484 157 487 159 488 161 490 162 492 156 493 154 492 149 487 147 484 147 482 147 479 147 477 153 466 154 463 154 459 155 456 156 455 157 449 157 435 158 433 163 429 162 424 159 424 156 424 151 421 149 421 147 419 144 419 144 423 146 427 145 429 142 432 139 436 139 437 136 440 134 440 132 438 130 435 130 434 126 430 122 428 118 427 116 427 113 428 109 430 107 431 105 429 104 427 104 424 105 420 106 417 107 414 108 412 110 410 110 408 112 404 115 401 117 397 118 394 118 391 117 383 118 381 124 376 128 372 134 368 135 368 137 370 143 377 145 377 154 382 157 383 161 384 165 385 184 385 188 384 191 383 194 382 198 380 201 377 202 374 203 371 204 365 204 360 205 355 207 351 206 348 204 346 194 346 181 347 178 347 176 347 173 347 163 347 158 346 154 341 156 339 162 339 184 340 190 339 195 338 199 337 203 336 206 335 218 329 221 327 225 324 " style="stroke:gray;fill:none"/><path d="M143 314 " style="stroke:gray;fill:none"/><path d="M276 313 275 315 272 316 275 315 " style="stroke:gray;fill:none"/><path d="M195 312 " style="stroke:gray;fill:none"/><path d="M199 311 " style="stroke:gray;fill:none"/><path d="M133 312 136 311 " style="stroke:gray;fill:none"/><path d="M406 309 407 311 410 309 409 311 " style="stroke:gray;fill:none"/><path d="M235 307 234 311 237 310 237 307 " style="stroke:gray;fill:none"/><path d="M237 308 236 311 233 309 " style="stroke:gray;fill:none"/><path d="M116 306 118 308 122 311 120 315 117 315 113 320 110 323 107 324 103 328 109 323 112 322 115 317 117 315 121 316 123 316 122 311 118 308 " style="stroke:gray;fill:none"/><path d="M405 306 403 308 403 312 404 314 406 315 409 315 411 314 412 307 410 306 " style="stroke:gray;fill:none"/><path d="M410 306 412 308 411 314 409 315 406 315 403 312 403 308 405 306 " style="stroke:gray;fill:none"/><path d="M115 304 " style="stroke:gray;fill:none"/><path d="M229 301 226 302 224 304 221 305 219 307 215 309 213 309 210 311 207 312 205 312 202 314 198 315 194 316 190 317 184 318 174 319 151 319 141 318 138 318 136 321 134 321 131 318 133 316 136 316 133 316 131 319 133 321 137 321 141 324 147 330 149 331 153 332 157 333 161 334 186 334 191 333 195 332 198 331 201 330 204 329 211 325 213 325 216 323 220 320 228 312 231 308 232 305 233 303 232 301 " style="stroke:gray;fill:none"/><path d="M229 301 231 301 233 304 231 306 229 309 229 310 219 320 215 323 212 325 204 329 201 330 198 331 195 332 191 333 186 334 179 333 161 334 157 333 153 332 149 331 142 325 137 320 138 318 141 318 151 319 174 319 184 318 190 317 194 316 198 315 202 314 205 312 207 312 210 311 213 309 215 309 223 305 225 303 " style="stroke:gray;fill:none"/><path d="M100 299 102 301 110 300 112 300 114 302 112 300 109 300 102 301 " style="stroke:gray;fill:none"/><path d="M99 297 " style="stroke:gray;fill:none"/><path d="M238 296 239 298 239 302 241 302 241 298 " style="stroke:gray;fill:none"/><path d="M240 298 240 302 " style="stroke:gray;fill:none"/><path d="M131 296 132 298 133 300 132 298 " style="stroke:gray;fill:none"/><path d="M186 294 183 296 " style="stroke:gray;fill:none"/><path d="M125 292 " style="stroke:gray;fill:none"/><path d="M246 291 244 293 244 296 245 298 247 300 250 301 252 300 253 298 253 295 251 292 " style="stroke:gray;fill:none"/><path d="M247 291 249 291 251 293 253 296 253 298 249 301 244 296 244 294 " style="stroke:gray;fill:none"/><path d="M239 290 238 292 238 294 238 292 240 290 240 294 241 290 " style="stroke:gray;fill:none"/><path d="M230 289 " style="stroke:gray;fill:none"/><path d="M124 289 " style="stroke:gray;fill:none"/><path d="M197 285 194 288 " style="stroke:gray;fill:none"/><path d="M94 285 " style="stroke:gray;fill:none"/><path d="M247 284 " style="stroke:gray;fill:none"/><path d="M99 282 102 282 " style="stroke:gray;fill:none"/><path d="M93 283 " style="stroke:gray;fill:none"/><path d="M260 281 257 282 255 284 255 287 256 290 258 292 261 298 261 302 256 307 246 306 242 308 242 311 247 316 249 316 252 318 255 319 262 319 265 318 269 316 275 310 277 307 278 304 279 300 279 293 277 290 277 288 273 284 270 282 266 281 " style="stroke:gray;fill:none"/><path d="M260 281 266 281 269 282 272 284 277 289 279 293 279 300 278 304 277 306 275 309 268 316 265 318 262 319 255 319 252 318 248 316 242 309 244 307 246 306 257 307 259 305 261 307 263 310 265 311 270 311 266 311 264 310 261 306 259 305 261 302 261 298 260 295 258 291 256 289 255 287 255 285 258 282 " style="stroke:gray;fill:none"/><path d="M201 281 199 284 " style="stroke:gray;fill:none"/><path d="M108 281 109 284 110 286 108 285 110 284 108 282 110 282 " style="stroke:gray;fill:none"/><path d="M248 281 245 282 245 285 247 287 249 287 251 285 252 282 251 285 249 287 247 287 245 285 245 283 247 281 250 280 " style="stroke:gray;fill:none"/><path d="M202 279 " style="stroke:gray;fill:none"/><path d="M119 277 119 279 " style="stroke:gray;fill:none"/><path d="M254 275 253 277 252 280 253 277 " style="stroke:gray;fill:none"/><path d="M205 275 " style="stroke:gray;fill:none"/><path d="M120 275 " style="stroke:gray;fill:none"/><path d="M256 272 " style="stroke:gray;fill:none"/><path d="M138 272 136 274 137 281 144 280 145 278 145 275 142 272 " style="stroke:gray;fill:none"/><path d="M139 272 141 272 144 279 142 281 138 281 136 279 136 275 " style="stroke:gray;fill:none"/><path d="M231 269 " style="stroke:gray;fill:none"/><path d="M235 269 233 273 233 285 234 287 237 287 239 285 240 283 241 280 242 275 242 272 241 270 239 268 " style="stroke:gray;fill:none"/><path d="M238 268 242 272 242 275 241 280 240 283 235 287 233 285 233 273 234 271 " style="stroke:gray;fill:none"/><path d="M113 268 " style="stroke:gray;fill:none"/><path d="M119 267 " style="stroke:gray;fill:none"/><path d="M93 267 92 269 92 275 93 277 92 275 92 269 " style="stroke:gray;fill:none"/><path d="M273 266 272 268 268 269 265 269 266 273 268 273 273 271 269 271 271 270 " style="stroke:gray;fill:none"/><path d="M266 269 269 270 267 273 265 271 " style="stroke:gray;fill:none"/><path d="M260 265 259 271 260 275 257 278 255 280 257 279 259 277 260 275 259 271 " style="stroke:gray;fill:none"/><path d="M235 264 235 266 " style="stroke:gray;fill:none"/><path d="M97 262 97 264 96 267 95 268 95 277 96 284 97 288 99 291 99 293 101 296 107 297 107 292 106 289 105 288 105 283 104 279 103 278 103 267 101 262 " style="stroke:gray;fill:none"/><path d="M97 263 100 262 102 264 103 267 103 278 104 282 105 283 105 288 106 291 107 292 106 297 103 297 101 295 99 292 97 288 96 284 95 277 95 268 96 265 " style="stroke:gray;fill:none"/><path d="M277 261 " style="stroke:gray;fill:none"/><path d="M279 261 " style="stroke:gray;fill:none"/><path d="M234 260 " style="stroke:gray;fill:none"/><path d="M209 260 208 262 208 265 207 268 206 269 206 271 205 273 206 271 206 269 207 266 208 265 208 262 " style="stroke:gray;fill:none"/><path d="M120 260 " style="stroke:gray;fill:none"/><path d="M281 258 " style="stroke:gray;fill:none"/><path d="M106 257 105 259 103 259 100 258 98 259 100 258 102 258 106 259 " style="stroke:gray;fill:none"/><path d="M257 256 258 258 258 265 257 267 258 265 258 258 " style="stroke:gray;fill:none"/><path d="M281 255 " style="stroke:gray;fill:none"/><path d="M236 256 236 262 237 255 238 258 238 262 240 264 240 266 240 264 238 258 238 255 " style="stroke:gray;fill:none"/><path d="M234 256 " style="stroke:gray;fill:none"/><path d="M119 254 119 256 " style="stroke:gray;fill:none"/><path d="M229 253 " style="stroke:gray;fill:none"/><path d="M251 251 249 252 " style="stroke:gray;fill:none"/><path d="M111 251 111 253 109 256 109 267 110 269 112 271 112 277 113 280 114 281 114 285 113 287 113 290 113 292 114 295 116 298 116 300 118 304 122 308 126 308 128 307 128 303 124 296 124 294 122 291 122 289 121 287 116 282 115 275 115 269 117 267 117 257 115 251 " style="stroke:gray;fill:none"/><path d="M113 250 116 253 117 257 117 266 115 268 115 275 116 282 117 284 122 289 123 292 124 295 124 297 128 304 128 306 126 308 123 308 117 302 116 300 116 298 114 295 113 292 113 290 112 288 114 286 114 281 113 278 112 277 112 270 110 268 109 266 109 256 111 252 " style="stroke:gray;fill:none"/><path d="M119 249 " style="stroke:gray;fill:none"/><path d="M287 248 " style="stroke:gray;fill:none"/><path d="M286 246 285 248 " style="stroke:gray;fill:none"/><path d="M289 245 " style="stroke:gray;fill:none"/><path d="M28 246 " style="stroke:gray;fill:none"/><path d="M290 243 " style="stroke:gray;fill:none"/><path d="M119 243 118 246 " style="stroke:gray;fill:none"/><path d="M25 244 26 248 31 247 31 243 " style="stroke:gray;fill:none"/><path d="M27 243 31 244 31 246 29 248 27 248 25 245 " style="stroke:gray;fill:none"/><path d="M116 243 116 246 116 243 119 241 " style="stroke:gray;fill:none"/><path d="M389 238 388 242 390 242 " style="stroke:gray;fill:none"/><path d="M256 237 254 238 254 241 256 237 258 237 " style="stroke:gray;fill:none"/><path d="M243 236 242 239 244 243 244 245 245 248 246 249 247 252 248 259 248 271 249 273 253 273 253 271 254 268 255 267 255 253 254 249 253 246 252 243 250 239 247 236 " style="stroke:gray;fill:none"/><path d="M243 237 246 236 250 240 253 246 254 249 255 253 255 267 254 270 252 272 248 271 248 259 247 252 246 249 245 246 244 245 243 242 242 239 " style="stroke:gray;fill:none"/><path d="M388 235 386 236 385 238 386 245 391 245 387 245 385 243 385 238 388 235 394 236 394 242 393 244 393 235 " style="stroke:gray;fill:none"/><path d="M232 235 230 236 228 239 229 242 230 246 233 252 236 252 238 250 238 247 238 245 237 242 236 239 " style="stroke:gray;fill:none"/><path d="M232 236 236 240 237 242 238 245 238 247 239 249 235 253 232 250 230 246 229 242 228 239 " style="stroke:gray;fill:none"/><path d="M225 235 " style="stroke:gray;fill:none"/><path d="M152 234 149 235 147 236 143 240 142 242 141 245 141 248 141 251 141 253 142 256 143 258 148 263 151 264 154 265 158 265 162 264 166 262 169 259 171 255 172 252 172 246 171 243 170 241 168 238 164 235 161 234 " style="stroke:gray;fill:none"/><path d="M152 234 161 234 163 235 166 238 168 240 171 243 172 246 172 252 171 255 170 257 164 263 162 264 158 265 154 265 151 264 149 263 146 261 144 259 142 256 141 253 141 251 141 248 141 245 142 242 149 235 " style="stroke:gray;fill:none"/><path d="M294 233 295 235 296 232 " style="stroke:gray;fill:none"/><path d="M113 231 112 233 111 235 111 240 112 246 108 250 107 252 107 255 107 252 109 250 111 248 111 240 111 235 112 233 " style="stroke:gray;fill:none"/><path d="M114 229 " style="stroke:gray;fill:none"/><path d="M244 228 244 230 " style="stroke:gray;fill:none"/><path d="M115 227 " style="stroke:gray;fill:none"/><path d="M347 224 345 225 342 227 339 228 337 228 339 228 342 227 345 225 " style="stroke:gray;fill:none"/><path d="M171 224 168 225 164 226 163 227 157 227 153 228 150 229 147 230 144 231 140 233 138 234 140 233 144 231 147 230 150 229 153 228 157 227 163 227 167 226 168 225 171 224 175 224 189 225 192 226 198 229 204 235 206 238 208 241 209 244 210 247 210 255 211 261 213 264 211 265 210 267 210 269 209 272 208 275 206 277 204 282 195 291 192 292 189 294 188 298 185 298 179 301 176 304 166 309 163 310 158 311 150 311 158 311 163 310 166 309 173 305 175 305 178 303 181 300 185 298 195 298 199 297 203 295 206 293 211 288 213 285 214 283 215 280 216 276 216 267 215 265 212 263 211 261 210 255 210 247 209 244 208 241 207 239 205 236 203 233 200 230 192 226 189 225 175 224 " style="stroke:gray;fill:none"/><path d="M213 264 216 267 216 276 215 280 214 283 212 286 204 294 201 296 199 297 195 298 189 297 189 295 191 293 194 292 197 290 204 283 208 275 208 273 209 270 210 267 " style="stroke:gray;fill:none"/><path d="M351 221 349 223 " style="stroke:gray;fill:none"/><path d="M200 220 " style="stroke:gray;fill:none"/><path d="M164 220 163 223 160 223 156 224 153 225 150 226 147 227 134 234 129 236 127 238 123 241 122 243 122 271 123 276 124 282 125 285 126 289 127 292 129 295 129 299 131 302 133 305 137 309 140 311 142 312 147 312 150 313 151 315 153 313 175 315 178 312 181 312 182 314 184 312 188 312 192 311 195 309 200 309 203 308 206 307 209 305 211 305 219 301 224 296 226 292 226 289 228 284 230 283 228 283 228 277 231 275 228 274 228 270 229 263 228 257 226 254 226 248 225 244 224 241 223 238 222 235 220 231 218 229 214 227 212 227 209 225 205 224 201 223 196 222 190 221 176 220 170 222 " style="stroke:gray;fill:none"/><path d="M171 221 190 221 196 222 201 223 205 224 209 225 212 227 214 227 217 229 220 232 222 235 223 238 224 241 225 244 226 248 226 254 228 257 229 263 228 270 228 274 228 277 228 284 227 288 226 292 225 294 217 302 211 305 209 305 206 307 203 308 200 309 195 309 192 311 188 312 184 312 181 312 178 312 175 314 153 313 150 313 148 312 143 312 141 311 138 309 133 304 130 300 129 298 129 294 127 291 126 288 126 285 124 282 124 276 122 271 122 244 125 241 129 238 132 235 135 234 137 232 147 227 150 226 153 225 156 224 160 223 164 222 " style="stroke:gray;fill:none"/><path d="M353 220 356 217 " style="stroke:gray;fill:none"/><path d="M127 213 " style="stroke:gray;fill:none"/><path d="M130 211 " style="stroke:gray;fill:none"/><path d="M273 207 272 210 273 213 268 222 268 231 267 234 266 238 265 241 263 244 263 248 264 254 263 257 261 260 262 258 263 255 264 254 263 248 263 244 265 241 266 238 267 234 268 231 268 222 273 213 273 211 " style="stroke:gray;fill:none"/><path d="M139 205 " style="stroke:gray;fill:none"/><path d="M141 204 " style="stroke:gray;fill:none"/><path d="M166 202 169 202 173 203 176 204 179 205 185 208 187 210 189 211 191 212 190 214 192 212 190 211 188 210 186 208 180 205 177 204 175 204 173 202 170 202 " style="stroke:gray;fill:none"/><path d="M265 201 " style="stroke:gray;fill:none"/><path d="M322 201 321 205 323 208 325 210 329 209 329 203 327 201 " style="stroke:gray;fill:none"/><path d="M325 200 329 204 329 208 326 210 322 206 321 203 " style="stroke:gray;fill:none"/><path d="M260 202 259 209 259 235 259 209 260 202 263 200 " style="stroke:gray;fill:none"/><path d="M173 198 167 199 163 200 162 201 156 201 153 202 150 203 147 204 145 206 143 206 135 210 131 214 128 216 127 216 122 221 120 224 118 227 115 233 116 238 118 238 120 237 122 235 125 233 128 231 131 229 145 222 148 221 151 220 155 219 159 218 164 217 171 216 190 216 194 217 195 218 202 218 206 219 210 220 213 221 214 222 217 223 220 224 222 224 224 223 224 219 218 213 214 210 211 208 203 204 201 204 198 202 195 201 191 200 187 199 178 198 " style="stroke:gray;fill:none"/><path d="M173 198 178 198 187 199 191 200 195 201 198 202 201 204 203 204 209 207 213 210 217 213 224 220 224 222 222 224 220 224 217 223 214 222 211 221 210 220 206 219 202 218 195 218 191 217 190 216 171 216 164 217 159 218 155 219 151 220 148 221 145 222 132 229 130 229 127 231 125 233 122 235 117 238 115 236 115 233 116 231 118 228 120 225 122 222 128 216 131 214 132 214 136 210 139 208 143 206 145 206 150 203 153 202 156 201 162 201 166 200 167 199 " style="stroke:gray;fill:none"/><path d="M161 198 " style="stroke:gray;fill:none"/><path d="M236 196 234 199 231 201 228 202 226 204 223 206 220 207 218 207 216 209 218 207 220 207 223 206 225 205 228 203 230 201 233 200 237 196 238 202 239 206 240 207 241 212 242 227 241 233 238 234 236 234 234 233 230 229 229 227 228 224 227 221 226 219 228 222 228 224 229 228 231 230 236 234 238 234 242 232 242 227 241 212 240 207 239 203 238 202 238 196 " style="stroke:gray;fill:none"/><path d="M300 195 296 197 290 198 286 199 279 199 286 199 290 198 291 197 295 196 296 198 298 196 " style="stroke:gray;fill:none"/><path d="M247 195 247 199 247 201 246 204 247 207 246 212 247 217 248 218 250 233 248 232 248 218 247 213 246 212 247 207 247 205 246 202 247 199 246 197 250 194 253 196 255 198 255 201 253 203 252 205 251 227 252 205 253 203 255 201 255 198 252 195 " style="stroke:gray;fill:none"/><path d="M360 191 359 193 359 197 360 199 365 201 365 199 366 194 365 192 363 190 " style="stroke:gray;fill:none"/><path d="M362 190 366 194 365 199 361 199 359 197 359 193 " style="stroke:gray;fill:none"/><path d="M316 190 " style="stroke:gray;fill:none"/><path d="M241 189 241 191 243 191 " style="stroke:gray;fill:none"/><path d="M242 191 " style="stroke:gray;fill:none"/><path d="M367 187 367 192 " style="stroke:gray;fill:none"/><path d="M323 183 " style="stroke:gray;fill:none"/><path d="M367 181 369 186 369 194 368 200 367 202 365 204 365 206 363 207 360 211 362 209 363 211 359 215 358 218 354 222 349 225 347 228 345 228 341 229 340 230 315 229 311 230 308 229 307 228 303 228 301 229 300 231 300 234 294 240 292 244 292 246 290 249 287 252 283 261 279 265 275 273 274 277 274 280 275 282 275 280 275 277 275 273 278 267 282 263 286 254 289 251 291 248 292 246 292 244 293 242 299 236 300 234 300 231 303 228 307 228 310 229 311 230 340 230 344 229 347 228 352 224 358 218 363 212 363 208 365 207 365 205 367 203 368 200 369 194 369 185 " style="stroke:gray;fill:none"/><path d="M319 179 321 179 " style="stroke:gray;fill:none"/><path d="M74 179 " style="stroke:gray;fill:none"/><path d="M330 178 327 181 325 182 327 181 " style="stroke:gray;fill:none"/><path d="M297 178 " style="stroke:gray;fill:none"/><path d="M165 178 166 180 166 182 168 186 170 188 175 192 179 193 189 193 193 194 196 195 199 196 202 197 205 198 209 200 211 202 213 203 216 204 221 204 223 203 221 204 216 204 205 198 202 197 199 196 196 195 193 194 189 193 179 193 175 192 172 190 169 187 167 184 166 182 166 180 " style="stroke:gray;fill:none"/><path d="M77 178 " style="stroke:gray;fill:none"/><path d="M325 175 323 179 321 182 326 178 328 175 " style="stroke:gray;fill:none"/><path d="M294 175 296 175 " style="stroke:gray;fill:none"/><path d="M76 175 " style="stroke:gray;fill:none"/><path d="M289 174 290 176 " style="stroke:gray;fill:none"/><path d="M283 174 284 177 286 177 290 178 291 179 294 179 297 181 304 180 297 181 294 179 291 179 287 178 285 177 " style="stroke:gray;fill:none"/><path d="M366 173 " style="stroke:gray;fill:none"/><path d="M164 174 " style="stroke:gray;fill:none"/><path d="M74 172 72 174 71 176 70 179 71 181 78 181 80 179 80 176 78 174 77 171 " style="stroke:gray;fill:none"/><path d="M78 172 78 174 80 177 79 180 77 181 72 181 70 179 71 176 " style="stroke:gray;fill:none"/><path d="M336 169 336 171 " style="stroke:gray;fill:none"/><path d="M334 166 333 168 327 167 322 168 319 169 318 170 316 170 313 170 304 171 291 172 288 172 285 172 283 172 266 170 266 168 263 170 263 168 262 171 246 171 244 169 244 167 243 170 234 170 232 171 232 176 235 180 240 185 244 188 248 191 262 198 264 198 268 200 270 202 272 204 274 205 276 205 276 207 278 208 278 212 277 217 276 218 276 228 275 231 274 232 274 236 273 240 272 241 271 244 271 250 270 255 269 256 270 263 273 263 274 261 276 258 278 255 280 252 281 249 282 247 283 245 287 242 288 240 290 237 290 235 291 232 296 228 296 222 291 217 289 214 287 210 286 205 284 204 281 204 274 205 272 203 270 202 268 201 271 200 294 201 300 200 303 198 305 198 308 197 311 196 317 193 319 191 322 190 326 187 336 177 339 173 340 171 339 166 " style="stroke:gray;fill:none"/><path d="M281 204 284 204 286 205 287 210 290 216 292 219 296 223 296 227 294 229 291 232 291 234 288 240 284 243 282 247 281 250 279 253 277 256 275 258 274 261 272 263 269 262 269 256 270 251 271 250 271 244 272 241 273 237 274 236 274 232 275 229 276 228 276 218 277 213 278 212 277 206 " style="stroke:gray;fill:none"/><path d="M328 167 333 168 330 171 328 172 326 172 323 172 321 171 318 170 322 168 " style="stroke:gray;fill:none"/><path d="M335 166 338 166 340 168 340 171 336 176 324 188 320 191 317 192 315 194 313 195 311 195 308 197 304 198 302 196 304 194 307 193 309 191 312 190 315 188 319 184 318 181 315 180 308 180 305 178 303 178 299 176 298 173 298 176 301 177 303 178 305 178 308 180 315 180 317 181 319 183 314 188 310 191 307 192 304 194 302 196 302 199 300 200 294 201 272 201 268 200 265 199 262 198 250 192 246 189 242 186 234 178 231 173 234 170 244 170 282 171 283 172 285 172 288 172 291 172 304 171 313 170 316 170 318 170 321 171 323 172 326 172 328 173 331 171 333 169 " style="stroke:gray;fill:none"/><path d="M223 168 225 170 229 168 226 166 228 167 228 170 226 170 224 166 " style="stroke:gray;fill:none"/><path d="M345 165 " style="stroke:gray;fill:none"/><path d="M355 164 353 165 352 167 352 170 353 172 358 177 361 182 364 182 365 180 366 178 364 176 364 174 363 172 360 169 359 166 357 165 " style="stroke:gray;fill:none"/><path d="M355 164 357 165 360 168 361 171 364 174 365 177 365 180 362 182 360 180 357 176 357 175 352 170 352 167 " style="stroke:gray;fill:none"/><path d="M352 162 349 165 349 167 348 169 346 171 345 174 342 178 328 192 323 196 320 197 317 200 311 203 308 204 304 205 299 205 295 206 293 207 291 210 291 212 294 216 299 221 302 223 311 227 313 228 311 227 304 224 300 221 294 215 291 211 292 209 295 206 299 205 304 205 308 204 311 203 319 199 322 197 325 195 330 191 341 180 344 176 346 173 349 166 357 162 355 161 " style="stroke:gray;fill:none"/><path d="M345 161 342 162 343 164 343 162 346 161 347 164 347 161 " style="stroke:gray;fill:none"/><path d="M163 161 " style="stroke:gray;fill:none"/><path d="M358 157 358 159 359 163 361 163 364 166 365 170 364 166 363 164 359 162 359 160 " style="stroke:gray;fill:none"/><path d="M361 155 363 155 " style="stroke:gray;fill:none"/><path d="M249 152 " style="stroke:gray;fill:none"/><path d="M233 150 233 152 " style="stroke:gray;fill:none"/><path d="M221 148 " style="stroke:gray;fill:none"/><path d="M157 148 159 148 " style="stroke:gray;fill:none"/><path d="M377 147 " style="stroke:gray;fill:none"/><path d="M5 144 4 147 5 144 6 147 " style="stroke:gray;fill:none"/><path d="M305 143 " style="stroke:gray;fill:none"/><path d="M380 141 " style="stroke:gray;fill:none"/><path d="M1 142 0 145 1 149 10 148 10 145 9 143 7 142 5 141 " style="stroke:gray;fill:none"/><path d="M2 141 5 141 7 142 10 145 9 149 0 148 0 146 " style="stroke:gray;fill:none"/><path d="M330 141 " style="stroke:gray;fill:none"/><path d="M172 140 168 144 166 148 165 151 165 154 164 156 165 154 165 152 166 149 168 145 170 142 " style="stroke:gray;fill:none"/><path d="M380 139 " style="stroke:gray;fill:none"/><path d="M213 139 216 141 218 145 218 147 215 149 218 148 218 145 216 142 215 139 " style="stroke:gray;fill:none"/><path d="M221 138 222 140 222 142 224 144 222 142 222 140 " style="stroke:gray;fill:none"/><path d="M207 139 " style="stroke:gray;fill:none"/><path d="M341 137 339 139 336 140 338 139 " style="stroke:gray;fill:none"/><path d="M353 138 354 141 356 141 360 140 356 141 353 140 353 138 356 136 358 138 360 138 358 137 " style="stroke:gray;fill:none"/><path d="M174 133 172 135 166 142 165 145 161 149 161 155 162 158 161 160 161 163 162 165 163 177 162 180 163 182 164 185 165 187 167 189 168 192 169 194 167 196 165 196 163 197 165 196 169 195 169 193 167 191 167 189 166 187 164 185 163 182 162 180 163 177 162 165 161 163 161 160 162 158 161 155 161 149 165 145 166 142 173 135 " style="stroke:gray;fill:none"/><path d="M377 132 379 134 " style="stroke:gray;fill:none"/><path d="M179 129 176 132 " style="stroke:gray;fill:none"/><path d="M358 129 357 132 360 135 364 138 364 140 361 143 359 144 355 145 352 146 348 147 344 148 338 149 332 150 324 151 315 152 304 153 291 154 270 155 243 155 227 154 220 153 215 152 211 151 208 150 206 148 205 146 206 144 210 141 210 135 206 135 203 137 201 137 199 139 196 140 192 144 191 146 191 148 192 151 195 154 203 158 206 159 210 160 214 161 218 162 223 163 232 164 240 164 248 166 248 169 248 167 250 165 257 165 287 166 302 165 312 164 320 163 326 162 331 161 336 160 341 159 345 158 349 157 352 156 356 155 359 153 361 153 364 151 366 151 372 148 377 143 378 141 378 138 377 136 373 132 369 130 366 129 363 128 " style="stroke:gray;fill:none"/><path d="M360 128 362 128 366 129 369 130 371 131 378 138 378 141 371 148 361 153 358 154 355 155 352 156 349 157 345 158 341 159 336 160 331 161 326 162 320 163 312 164 302 165 287 166 257 165 250 165 247 165 240 164 232 164 223 163 218 162 214 161 210 160 206 159 203 158 199 156 196 154 192 150 191 148 191 146 198 139 206 135 209 135 211 137 211 139 209 141 206 143 205 145 205 147 206 149 210 150 214 151 215 152 220 153 227 154 243 155 270 155 291 154 304 153 315 152 324 151 332 150 338 149 344 148 348 147 352 146 355 145 359 144 362 143 364 141 364 137 362 135 358 132 358 130 " style="stroke:gray;fill:none"/><path d="M347 127 " style="stroke:gray;fill:none"/><path d="M422 125 420 128 424 128 " style="stroke:gray;fill:none"/><path d="M422 125 424 127 420 127 " style="stroke:gray;fill:none"/><path d="M195 125 191 126 188 127 184 129 180 132 177 134 173 138 177 136 177 138 182 134 180 136 178 137 178 134 182 132 184 130 189 127 192 126 195 125 197 125 " style="stroke:gray;fill:none"/><path d="M199 124 206 124 208 126 208 128 206 130 203 131 201 131 198 132 195 133 192 135 187 140 185 144 185 150 186 153 189 157 192 159 200 163 203 164 205 164 208 166 211 167 216 167 218 168 222 172 224 175 226 178 226 179 234 187 235 192 235 193 228 199 231 198 235 194 235 192 235 189 234 186 226 178 224 175 224 174 222 171 220 169 216 167 212 167 209 166 206 165 203 164 200 163 194 160 191 157 189 155 186 152 185 150 185 144 186 142 193 135 196 133 198 132 201 131 203 131 206 130 208 129 207 124 " style="stroke:gray;fill:none"/><path d="M352 123 352 125 353 127 356 128 352 125 " style="stroke:gray;fill:none"/><path d="M421 122 419 123 417 125 418 131 420 132 424 132 427 131 427 128 426 125 425 123 423 122 " style="stroke:gray;fill:none"/><path d="M421 122 423 122 426 125 426 128 426 131 424 132 420 132 418 131 417 125 419 123 " style="stroke:gray;fill:none"/><path d="M214 121 214 124 215 121 216 124 216 121 " style="stroke:gray;fill:none"/><path d="M209 120 " style="stroke:gray;fill:none"/><path d="M201 120 198 122 195 122 191 123 188 124 183 127 181 128 183 127 188 124 191 123 195 122 198 122 201 120 206 120 " style="stroke:gray;fill:none"/><path d="M217 113 219 114 " style="stroke:gray;fill:none"/><path d="M203 113 207 118 209 118 " style="stroke:gray;fill:none"/><path d="M343 112 " style="stroke:gray;fill:none"/><path d="M211 113 " style="stroke:gray;fill:none"/><path d="M341 110 " style="stroke:gray;fill:none"/><path d="M341 108 " style="stroke:gray;fill:none"/><path d="M196 107 " style="stroke:gray;fill:none"/><path d="M151 107 151 109 150 111 151 109 " style="stroke:gray;fill:none"/><path d="M212 105 " style="stroke:gray;fill:none"/><path d="M217 103 219 103 221 104 222 107 221 104 219 103 " style="stroke:gray;fill:none"/><path d="M215 102 " style="stroke:gray;fill:none"/><path d="M191 103 " style="stroke:gray;fill:none"/><path d="M153 102 152 104 " style="stroke:gray;fill:none"/><path d="M334 99 335 102 " style="stroke:gray;fill:none"/><path d="M153 100 " style="stroke:gray;fill:none"/><path d="M148 99 " style="stroke:gray;fill:none"/><path d="M185 98 " style="stroke:gray;fill:none"/><path d="M206 94 " style="stroke:gray;fill:none"/><path d="M181 95 " style="stroke:gray;fill:none"/><path d="M189 93 " style="stroke:gray;fill:none"/><path d="M337 92 340 95 342 98 343 100 344 102 343 100 341 96 " style="stroke:gray;fill:none"/><path d="M330 92 331 94 333 97 331 95 " style="stroke:gray;fill:none"/><path d="M250 91 " style="stroke:gray;fill:none"/><path d="M164 89 " style="stroke:gray;fill:none"/><path d="M369 88 " style="stroke:gray;fill:none"/><path d="M198 88 " style="stroke:gray;fill:none"/><path d="M193 88 196 91 200 93 205 99 206 99 209 103 206 99 200 94 198 92 " style="stroke:gray;fill:none"/><path d="M190 87 " style="stroke:gray;fill:none"/><path d="M162 86 159 87 157 88 153 93 151 96 150 98 149 101 149 103 147 105 147 108 146 116 146 119 147 124 148 128 149 132 153 140 156 144 159 144 161 143 159 144 156 143 153 139 149 131 148 128 147 124 146 119 146 116 147 108 148 104 149 101 151 97 153 95 157 95 161 89 159 90 159 92 153 94 157 89 159 87 162 86 164 86 168 89 171 91 175 94 178 96 183 100 189 105 194 109 200 116 197 119 194 120 191 120 187 121 179 125 176 127 167 136 164 140 163 142 161 145 163 144 164 141 167 137 177 127 180 125 188 121 191 120 194 120 198 119 200 117 200 114 195 109 190 105 184 100 179 96 176 94 172 91 169 89 165 86 " style="stroke:gray;fill:none"/><path d="M165 84 167 84 " style="stroke:gray;fill:none"/><path d="M328 83 331 85 " style="stroke:gray;fill:none"/><path d="M174 83 " style="stroke:gray;fill:none"/><path d="M367 83 366 88 366 91 372 90 372 83 370 82 " style="stroke:gray;fill:none"/><path d="M370 82 372 84 371 91 366 88 367 83 " style="stroke:gray;fill:none"/><path d="M199 82 199 85 200 87 203 89 199 85 " style="stroke:gray;fill:none"/><path d="M163 83 " style="stroke:gray;fill:none"/><path d="M147 81 147 84 155 85 155 88 156 85 159 85 161 84 157 84 155 85 154 81 153 84 148 84 " style="stroke:gray;fill:none"/><path d="M255 80 253 81 251 83 251 85 252 87 253 89 255 90 257 90 260 91 263 93 265 93 268 94 271 95 274 96 277 97 280 98 283 99 286 100 289 101 292 103 295 104 298 104 301 105 304 106 307 107 310 108 313 109 316 110 319 111 322 112 325 113 328 114 331 115 334 116 337 117 340 119 342 121 344 124 345 139 344 137 344 124 342 121 342 116 340 112 340 116 342 117 341 120 337 117 334 116 331 115 328 114 325 113 322 112 319 111 316 110 313 109 310 108 307 107 304 106 301 105 298 104 295 104 292 103 289 101 287 101 284 100 281 99 278 98 275 97 272 96 269 95 266 94 263 93 260 91 258 91 255 90 252 87 251 84 254 81 256 80 259 80 264 83 267 84 270 85 272 85 275 86 276 87 279 88 281 88 284 90 287 91 291 92 294 93 297 94 299 94 302 95 305 96 308 97 311 98 314 99 317 100 320 101 323 102 326 103 329 104 332 105 335 106 338 108 339 110 337 107 335 106 337 104 339 103 337 103 337 101 337 103 332 105 330 105 327 104 324 103 321 102 318 101 315 100 312 99 309 98 306 97 303 96 300 95 297 94 294 93 291 92 287 91 284 90 281 88 279 88 276 87 273 86 272 85 270 85 267 84 264 83 259 80 " style="stroke:gray;fill:none"/><path d="M324 80 " style="stroke:gray;fill:none"/><path d="M156 79 159 80 161 81 159 80 " style="stroke:gray;fill:none"/><path d="M198 78 " style="stroke:gray;fill:none"/><path d="M262 77 260 78 262 77 264 77 " style="stroke:gray;fill:none"/><path d="M185 77 " style="stroke:gray;fill:none"/><path d="M188 75 " style="stroke:gray;fill:none"/><path d="M171 75 179 77 180 80 180 77 178 75 " style="stroke:gray;fill:none"/><path d="M150 75 152 76 " style="stroke:gray;fill:none"/><path d="M315 74 317 75 319 77 321 78 319 76 317 75 " style="stroke:gray;fill:none"/><path d="M195 73 " style="stroke:gray;fill:none"/><path d="M153 74 " style="stroke:gray;fill:none"/><path d="M197 73 " style="stroke:gray;fill:none"/><path d="M182 72 182 76 184 74 187 72 189 72 191 73 194 76 195 78 196 81 192 85 189 82 186 80 185 80 182 78 184 80 187 82 188 82 192 86 196 85 192 85 194 84 195 80 195 78 194 75 192 73 189 72 187 72 184 72 " style="stroke:gray;fill:none"/><path d="M182 73 185 73 " style="stroke:gray;fill:none"/><path d="M260 72 " style="stroke:gray;fill:none"/><path d="M187 70 " style="stroke:gray;fill:none"/><path d="M150 70 147 73 146 76 147 78 153 79 156 76 158 76 162 78 164 80 166 80 170 84 173 85 175 88 178 89 182 92 186 95 192 100 197 105 204 111 210 116 214 116 214 111 204 101 197 95 193 92 189 89 185 86 182 84 179 82 177 82 175 80 168 77 166 75 162 73 159 73 156 71 153 70 " style="stroke:gray;fill:none"/><path d="M151 70 153 70 158 73 161 73 167 76 169 78 178 82 181 84 184 86 188 89 192 92 196 95 203 101 214 112 215 114 213 116 211 116 206 111 199 105 198 105 193 100 187 95 183 92 179 89 175 86 172 84 168 81 165 80 163 78 159 76 155 76 152 79 149 79 146 76 147 74 " style="stroke:gray;fill:none"/><path d="M146 70 " style="stroke:gray;fill:none"/><path d="M150 68 154 67 156 68 154 67 " style="stroke:gray;fill:none"/><path d="M62 63 65 63 " style="stroke:gray;fill:none"/><path d="M60 59 59 61 59 65 61 67 64 67 67 66 68 64 67 59 " style="stroke:gray;fill:none"/><path d="M61 59 66 59 68 61 68 64 66 66 64 67 61 67 59 65 59 61 " style="stroke:gray;fill:none"/><path d="M198 57 197 59 197 62 197 59 " style="stroke:gray;fill:none"/><path d="M283 54 283 56 " style="stroke:gray;fill:none"/><path d="M282 50 282 52 " style="stroke:gray;fill:none"/><path d="M272 35 274 36 277 42 279 44 280 46 281 48 280 46 278 42 276 40 274 36 " style="stroke:gray;fill:none"/><path d="M257 33 263 37 271 45 273 48 276 55 277 57 279 57 276 55 276 53 275 51 273 49 271 44 265 38 260 34 " style="stroke:gray;fill:none"/><path d="M260 27 262 28 " style="stroke:gray;fill:none"/><path d="M234 25 230 26 227 27 224 28 218 31 214 34 208 40 204 45 203 47 202 50 202 52 200 55 199 61 199 75 200 79 202 81 202 83 206 91 215 100 217 101 220 101 222 100 224 98 226 95 228 92 228 91 237 82 241 79 244 77 247 75 251 72 255 70 258 69 261 68 264 70 263 68 266 67 270 66 271 65 276 64 280 63 281 66 283 66 287 67 289 69 277 70 270 71 266 72 263 73 260 75 258 75 256 77 254 78 252 78 249 80 246 82 243 84 232 95 230 98 228 101 225 108 223 110 221 114 220 119 219 123 219 128 217 132 216 128 214 128 214 126 213 128 212 130 212 133 211 131 216 129 216 131 217 135 214 136 218 136 218 141 223 147 227 148 238 149 238 152 238 150 240 148 245 149 247 152 245 150 251 148 287 148 303 147 311 146 312 145 324 145 331 144 338 143 343 142 347 141 350 138 349 130 349 128 349 125 349 122 348 116 346 114 346 112 345 109 343 105 341 103 341 101 339 98 336 94 334 91 331 88 326 84 322 81 319 79 310 75 308 73 306 73 303 72 301 69 299 68 295 68 299 68 302 71 299 72 293 71 289 69 287 67 284 67 281 65 283 64 284 61 284 59 284 61 283 63 280 63 281 56 280 52 279 49 277 47 276 44 273 40 266 33 263 31 261 30 258 29 258 27 257 29 255 27 253 27 251 25 250 27 254 27 256 28 257 31 260 30 262 31 265 33 273 41 277 46 280 52 281 56 281 61 278 64 275 65 270 66 267 66 264 67 260 68 257 70 255 70 249 73 246 75 243 77 240 79 236 82 229 89 227 92 227 93 225 96 220 101 217 101 206 90 204 87 204 85 201 80 200 77 199 74 199 61 200 56 202 53 202 51 203 48 204 46 208 41 215 34 219 31 225 28 227 28 230 26 235 25 249 25 " style="stroke:gray;fill:none"/><path d="M288 70 291 70 293 71 298 72 304 72 307 73 309 75 318 79 321 81 325 84 330 88 334 92 336 95 339 99 341 102 341 104 344 107 345 109 346 112 347 115 348 118 349 122 349 125 349 128 349 130 350 137 346 141 342 142 337 143 331 144 324 145 312 145 310 143 304 140 302 140 299 138 297 138 294 136 291 135 289 135 284 132 282 132 279 131 272 127 270 127 250 117 247 115 243 111 243 107 245 105 249 105 258 109 260 111 270 116 272 116 281 121 283 121 286 123 289 124 291 124 296 127 298 127 301 128 306 131 308 131 311 133 313 133 322 138 324 138 326 140 326 142 326 139 324 138 322 138 313 133 311 133 308 131 306 131 301 128 299 128 296 127 291 124 289 124 286 123 283 121 281 121 272 116 270 116 262 112 260 110 249 105 244 104 244 101 245 97 247 94 247 90 248 87 249 85 248 87 248 89 247 93 246 96 245 97 244 101 243 106 243 112 245 114 248 116 270 127 272 127 279 131 282 132 284 132 289 135 291 135 294 136 297 138 299 138 302 140 304 140 310 143 312 145 302 147 286 148 251 147 247 142 246 140 245 136 244 133 243 131 243 128 243 124 242 119 242 117 243 114 243 116 242 119 243 124 243 128 243 131 244 133 245 136 246 140 248 144 244 148 240 148 237 148 227 148 223 147 219 143 218 141 218 129 219 123 220 119 221 115 227 103 229 100 231 97 245 83 248 81 251 79 259 75 261 75 264 73 267 72 271 71 278 70 " style="stroke:gray;fill:none"/><path d="M340 24 343 26 " style="stroke:gray;fill:none"/><path d="M339 21 337 23 338 29 340 30 342 30 344 29 346 28 345 23 341 21 " style="stroke:gray;fill:none"/><path d="M339 21 341 21 343 22 346 25 346 27 344 29 342 30 340 30 337 27 337 23 " style="stroke:gray;fill:none"/></svg>