<svg width="429px" height="547px" xmlns="http://www.w3.org/2000/svg"><path d="M173 500 171 501 167 505 157 505 153 503 151 504 149 507 149 510 151 513 157 519 161 522 165 524 171 524 175 520 176 517 177 514 177 504 176 502 175 500 " style="stroke:gray;fill:none"/><path d="M175 501 177 504 177 514 176 517 175 519 170 524 166 524 162 522 158 519 151 512 149 509 149 507 153 503 157 505 167 505 169 504 " style="stroke:gray;fill:none"/><path d="M141 492 140 494 140 496 143 502 145 505 147 508 146 506 144 503 142 500 140 496 140 494 144 491 150 497 152 498 155 499 162 499 166 498 169 496 171 496 173 497 175 498 171 496 169 496 166 498 162 499 155 499 152 498 146 492 " style="stroke:gray;fill:none"/><path d="M98 474 92 480 102 474 105 475 107 477 111 479 115 480 124 479 129 484 129 486 127 489 121 487 115 490 104 490 100 488 97 485 94 482 91 483 90 485 89 488 88 491 88 502 89 504 91 506 93 507 97 507 101 506 104 505 118 498 121 496 127 490 129 486 129 484 128 482 126 480 124 479 115 480 111 479 108 477 106 475 104 475 102 474 " style="stroke:gray;fill:none"/><path d="M94 482 98 487 101 489 104 490 115 490 121 487 123 486 126 490 120 496 117 498 103 505 100 506 97 507 94 507 92 506 89 503 88 501 88 491 89 488 90 485 " style="stroke:gray;fill:none"/><path d="M29 473 27 476 31 476 " style="stroke:gray;fill:none"/><path d="M29 473 31 475 27 475 " style="stroke:gray;fill:none"/><path d="M178 464 177 466 179 469 177 466 178 464 180 462 " style="stroke:gray;fill:none"/><path d="M178 460 176 460 173 463 173 467 178 472 181 473 186 473 189 470 189 466 188 464 185 461 183 460 181 460 " style="stroke:gray;fill:none"/><path d="M181 460 183 460 189 466 189 469 185 473 181 473 179 472 173 466 173 464 177 460 " style="stroke:gray;fill:none"/><path d="M121 457 122 459 122 465 121 469 118 472 121 470 122 465 " style="stroke:gray;fill:none"/><path d="M102 447 101 449 102 460 103 464 104 466 111 473 114 474 122 474 125 473 127 471 129 468 130 464 131 459 131 455 129 454 127 453 125 453 118 454 112 451 109 449 107 446 " style="stroke:gray;fill:none"/><path d="M104 446 107 447 109 449 111 451 115 453 118 454 125 454 127 453 130 455 131 459 130 464 129 467 127 470 124 473 122 474 114 474 112 473 104 465 103 463 102 460 101 449 " style="stroke:gray;fill:none"/><path d="M123 440 123 443 120 446 122 445 " style="stroke:gray;fill:none"/><path d="M353 439 355 441 356 437 " style="stroke:gray;fill:none"/><path d="M355 437 357 439 355 441 353 439 " style="stroke:gray;fill:none"/><path d="M116 434 113 434 110 437 110 442 113 445 115 447 119 448 123 448 127 444 127 441 126 439 121 434 119 434 " style="stroke:gray;fill:none"/><path d="M116 434 120 434 127 441 127 443 126 445 124 447 122 448 119 448 116 447 113 445 111 443 110 441 110 438 114 434 " style="stroke:gray;fill:none"/><path d="M181 428 178 429 174 431 171 434 169 438 168 442 168 452 170 454 168 452 168 442 169 438 170 436 176 430 178 429 181 428 183 428 188 429 191 430 193 431 197 435 195 432 191 430 188 429 183 428 " style="stroke:gray;fill:none"/><path d="M280 386 279 388 280 390 283 388 " style="stroke:gray;fill:none"/><path d="M281 386 283 388 281 390 279 388 " style="stroke:gray;fill:none"/><path d="M220 386 218 387 216 390 216 394 215 397 214 398 213 401 212 405 211 409 210 413 209 417 208 420 207 424 207 428 209 429 211 429 213 427 214 424 215 421 216 416 216 412 217 408 218 407 219 403 220 398 220 394 221 391 222 390 222 388 " style="stroke:gray;fill:none"/><path d="M218 393 220 395 220 398 219 403 218 407 217 411 216 412 216 416 215 421 214 424 213 426 210 429 208 428 207 424 208 420 209 417 210 413 211 409 212 405 213 401 214 398 215 395 " style="stroke:gray;fill:none"/><path d="M220 386 222 388 222 390 218 393 217 393 216 390 " style="stroke:gray;fill:none"/><path d="M108 383 106 385 105 391 105 397 108 399 106 401 104 399 106 401 108 400 110 397 111 395 112 392 112 385 110 383 " style="stroke:gray;fill:none"/><path d="M108 383 110 383 112 385 112 391 111 394 110 396 107 398 105 396 105 391 106 385 " style="stroke:gray;fill:none"/><path d="M187 377 189 376 " style="stroke:gray;fill:none"/><path d="M139 376 137 377 133 381 132 383 132 385 132 388 132 390 135 396 137 399 139 401 143 404 146 406 156 411 160 412 164 413 169 414 180 414 187 413 191 412 194 411 197 410 200 408 203 407 204 405 201 408 197 410 194 411 191 412 187 413 180 414 169 414 164 413 160 412 156 411 148 407 145 405 141 402 136 397 134 394 132 390 132 388 132 385 132 383 " style="stroke:gray;fill:none"/><path d="M27 367 25 369 25 373 27 375 31 375 33 373 33 370 31 368 29 367 " style="stroke:gray;fill:none"/><path d="M29 367 33 372 30 375 28 375 25 372 25 370 " style="stroke:gray;fill:none"/><path d="M118 366 115 370 112 371 110 371 112 371 115 370 117 369 " style="stroke:gray;fill:none"/><path d="M155 361 155 364 157 365 161 364 160 360 " style="stroke:gray;fill:none"/><path d="M156 360 161 361 160 365 157 365 155 363 " style="stroke:gray;fill:none"/><path d="M169 359 168 361 163 362 163 365 166 366 166 369 164 365 164 361 169 361 " style="stroke:gray;fill:none"/><path d="M188 358 186 359 185 361 186 365 185 361 188 358 190 360 190 362 188 365 190 363 190 359 " style="stroke:gray;fill:none"/><path d="M182 353 178 353 175 354 171 358 171 365 169 371 165 371 159 370 156 368 152 368 150 366 150 364 153 362 152 358 150 357 145 358 143 363 143 366 144 369 147 372 153 375 155 376 153 375 149 373 143 367 143 363 144 360 147 357 150 357 153 361 150 364 150 366 152 368 156 368 159 370 157 372 157 375 159 377 161 378 165 379 171 380 183 379 185 377 185 373 184 371 187 368 188 372 191 375 193 375 196 372 197 370 198 366 199 360 199 356 198 354 194 352 192 352 189 353 188 354 185 353 187 352 " style="stroke:gray;fill:none"/><path d="M192 352 194 352 196 353 198 355 199 357 199 360 198 366 197 370 192 375 190 374 188 372 185 369 185 373 185 376 182 379 171 380 165 379 162 378 160 377 157 374 157 372 159 370 164 370 170 371 170 366 171 359 176 354 178 353 182 353 189 354 " style="stroke:gray;fill:none"/><path d="M139 352 " style="stroke:gray;fill:none"/><path d="M331 338 330 340 334 341 " style="stroke:gray;fill:none"/><path d="M332 338 334 340 330 340 " style="stroke:gray;fill:none"/><path d="M104 330 102 332 98 337 96 340 94 344 93 348 92 352 92 357 93 361 95 365 101 371 103 372 108 373 112 373 115 373 117 373 119 372 122 369 122 367 121 365 118 362 111 356 110 353 105 348 105 346 107 344 108 342 107 330 " style="stroke:gray;fill:none"/><path d="M106 330 108 332 108 342 106 344 105 346 105 349 110 354 111 357 116 362 122 368 117 373 115 373 112 373 108 373 104 372 102 371 94 363 93 361 92 357 92 352 93 348 94 345 96 341 98 338 102 333 " style="stroke:gray;fill:none"/><path d="M243 327 239 328 236 329 224 335 221 337 216 341 210 347 209 350 218 340 223 336 226 334 236 329 239 328 243 327 246 327 248 328 250 331 248 328 246 327 " style="stroke:gray;fill:none"/><path d="M125 326 121 327 118 328 114 332 114 349 115 352 116 354 120 358 122 358 125 360 132 360 135 359 138 357 141 354 142 352 142 350 140 348 142 346 144 349 142 346 138 348 135 345 135 343 136 339 137 334 137 331 137 329 135 327 132 326 " style="stroke:gray;fill:none"/><path d="M125 326 132 326 134 327 137 330 137 334 137 338 136 342 135 343 135 345 136 347 138 348 140 348 141 353 137 357 134 359 132 360 125 360 121 358 115 352 114 349 114 333 119 328 121 327 " style="stroke:gray;fill:none"/><path d="M140 320 " style="stroke:gray;fill:none"/><path d="M202 316 202 318 198 322 194 325 191 327 187 329 185 329 182 331 180 331 182 331 185 329 187 329 193 326 196 324 200 321 202 319 " style="stroke:gray;fill:none"/><path d="M233 315 224 324 220 327 217 329 214 331 206 335 202 336 199 337 195 338 190 339 184 340 162 339 154 340 154 343 156 345 158 346 163 347 173 347 176 347 178 347 181 347 193 347 199 346 200 345 202 345 206 349 206 354 205 358 204 359 204 364 203 370 202 374 200 377 197 380 194 382 191 383 188 384 184 385 165 385 161 384 158 383 155 382 152 381 146 378 143 376 141 374 139 372 134 367 132 367 129 370 122 376 119 379 117 383 118 390 118 394 117 397 115 400 113 402 111 405 111 407 109 409 108 411 107 414 106 417 105 421 104 425 104 428 106 431 108 431 113 428 116 427 118 427 122 428 126 431 130 435 132 438 132 439 137 440 139 438 141 435 144 431 145 429 144 423 147 420 149 420 151 421 153 423 157 424 160 425 163 425 160 427 158 432 157 435 157 450 156 455 155 459 154 463 150 470 150 472 148 475 147 478 147 484 148 486 150 488 152 490 154 492 156 493 162 493 165 492 171 489 174 487 178 483 178 480 175 477 168 470 167 468 167 462 168 460 172 456 175 454 178 454 181 454 184 454 189 457 192 457 194 455 196 451 197 448 198 444 199 440 199 435 200 432 201 431 201 424 202 420 203 417 204 413 205 412 205 409 206 404 208 401 209 397 209 394 210 390 211 387 212 385 214 382 219 377 233 364 238 358 241 354 243 351 245 348 252 334 253 331 253 327 250 324 245 322 242 320 237 315 " style="stroke:gray;fill:none"/><path d="M234 315 236 315 241 320 244 322 246 323 248 323 253 328 253 331 251 334 251 336 247 344 245 347 243 350 241 353 238 357 233 363 218 377 214 381 212 384 211 387 210 390 209 394 209 397 208 401 206 404 205 409 205 412 204 416 203 417 202 420 201 424 201 431 200 434 199 435 199 440 198 444 197 448 196 451 195 453 191 457 189 457 187 455 184 454 181 454 178 454 175 454 171 456 168 459 167 461 167 468 168 471 170 473 167 474 164 477 161 480 159 484 159 488 162 490 159 487 159 484 160 482 163 478 167 474 170 473 173 476 178 480 178 482 173 487 169 490 165 492 162 493 156 493 152 490 150 488 147 484 147 478 149 475 149 473 153 466 154 463 155 459 156 455 157 450 157 435 158 433 163 429 162 424 157 424 154 423 147 419 143 419 143 421 145 424 145 428 144 430 141 434 139 437 136 440 134 440 132 438 130 435 127 431 129 430 131 429 132 427 132 420 131 417 129 413 126 410 120 407 117 406 114 407 117 406 120 407 124 409 130 415 131 417 132 420 132 427 129 430 126 431 124 429 122 428 118 427 116 427 113 428 110 429 109 430 106 430 104 428 104 425 105 421 106 417 107 414 109 410 111 408 111 406 113 403 115 401 117 398 118 395 118 390 117 383 118 381 123 376 129 371 129 370 131 368 133 367 139 374 142 376 152 381 155 382 158 383 161 384 165 385 184 385 188 384 191 383 194 382 198 380 200 378 202 374 203 370 204 364 204 359 205 355 206 354 206 348 203 345 200 345 194 346 193 347 181 347 178 347 176 347 173 347 163 347 159 346 157 345 154 341 156 339 162 339 184 340 190 339 195 338 199 337 203 336 206 335 218 329 221 327 225 324 " style="stroke:gray;fill:none"/><path d="M229 301 226 302 224 304 221 306 215 309 213 309 210 311 207 312 204 313 201 314 198 315 194 316 189 317 184 318 174 319 153 319 141 318 137 317 136 316 133 316 131 318 132 320 137 321 142 325 147 330 149 331 152 332 156 333 161 334 186 334 191 333 195 332 198 331 201 330 204 329 207 327 209 327 213 325 216 323 220 320 228 312 231 308 233 304 233 302 231 300 " style="stroke:gray;fill:none"/><path d="M133 316 136 316 138 318 137 320 134 321 131 318 " style="stroke:gray;fill:none"/><path d="M229 301 231 301 233 304 231 306 229 309 229 310 219 320 215 323 212 325 204 329 201 330 198 331 195 332 191 333 186 334 161 334 156 333 152 332 149 331 142 325 137 319 141 318 153 319 174 319 184 318 189 317 194 316 198 315 201 314 204 313 207 312 210 311 213 309 215 309 223 305 225 303 " style="stroke:gray;fill:none"/><path d="M246 291 244 293 244 297 247 300 251 300 252 300 253 295 249 291 " style="stroke:gray;fill:none"/><path d="M248 291 253 296 253 298 249 301 244 296 244 294 " style="stroke:gray;fill:none"/><path d="M102 282 99 283 " style="stroke:gray;fill:none"/><path d="M259 281 257 282 255 284 255 287 256 290 258 292 261 298 261 301 260 303 256 307 244 307 242 309 242 311 247 316 249 317 252 318 255 319 261 319 264 318 267 317 269 316 274 311 277 307 278 304 279 300 279 294 278 291 277 288 272 283 269 282 266 281 " style="stroke:gray;fill:none"/><path d="M259 281 266 281 269 282 271 283 277 289 278 291 279 294 279 300 278 304 277 306 274 310 268 316 264 318 261 319 255 319 252 318 248 316 242 310 245 307 257 307 259 305 261 307 262 309 264 310 271 310 264 310 259 305 261 301 261 298 260 295 258 291 256 289 255 287 255 285 " style="stroke:gray;fill:none"/><path d="M121 277 121 279 123 279 123 277 " style="stroke:gray;fill:none"/><path d="M122 279 " style="stroke:gray;fill:none"/><path d="M232 276 232 287 234 289 237 288 234 289 232 287 " style="stroke:gray;fill:none"/><path d="M138 272 136 274 137 281 144 280 145 278 145 275 142 272 " style="stroke:gray;fill:none"/><path d="M139 272 141 272 144 279 142 281 138 281 136 279 136 275 " style="stroke:gray;fill:none"/><path d="M236 269 234 271 234 283 235 285 239 285 240 283 241 280 241 271 239 269 " style="stroke:gray;fill:none"/><path d="M238 269 241 272 241 279 240 282 239 284 236 285 234 283 234 272 " style="stroke:gray;fill:none"/><path d="M97 262 96 264 95 268 95 278 96 285 97 288 98 291 99 293 101 295 104 298 107 297 108 295 107 292 106 288 105 287 104 282 103 277 103 267 102 262 " style="stroke:gray;fill:none"/><path d="M97 263 102 263 103 267 103 277 104 282 105 287 106 291 107 292 108 295 105 298 103 297 101 295 99 292 97 288 96 285 95 278 95 268 96 265 " style="stroke:gray;fill:none"/><path d="M249 253 252 253 " style="stroke:gray;fill:none"/><path d="M113 250 111 251 110 253 109 255 108 260 108 265 110 269 111 269 113 275 112 278 114 281 114 285 112 287 112 289 113 292 114 295 115 298 118 304 122 308 128 307 129 304 127 301 123 294 123 292 122 289 121 287 117 283 116 281 115 274 115 269 117 267 117 254 115 251 " style="stroke:gray;fill:none"/><path d="M115 270 115 275 116 276 116 282 117 284 122 289 123 292 123 294 124 297 126 299 126 301 128 304 128 306 126 308 123 308 117 302 115 298 114 295 113 292 113 290 112 288 114 286 114 280 112 277 113 275 113 273 " style="stroke:gray;fill:none"/><path d="M113 250 117 254 117 266 114 269 111 269 109 267 108 265 108 260 109 256 111 252 " style="stroke:gray;fill:none"/><path d="M120 243 " style="stroke:gray;fill:none"/><path d="M26 245 29 247 29 243 " style="stroke:gray;fill:none"/><path d="M28 243 28 247 26 245 " style="stroke:gray;fill:none"/><path d="M387 238 386 240 388 242 390 240 " style="stroke:gray;fill:none"/><path d="M388 238 390 240 388 242 386 240 " style="stroke:gray;fill:none"/><path d="M123 238 124 241 122 242 121 245 120 248 119 245 120 248 122 267 123 272 124 275 125 276 125 282 126 285 127 289 128 291 130 293 130 295 134 302 135 304 134 302 132 299 132 297 130 295 130 293 127 288 126 284 125 281 125 275 124 272 123 271 122 267 121 248 121 245 122 243 124 242 125 240 125 238 " style="stroke:gray;fill:none"/><path d="M124 240 " style="stroke:gray;fill:none"/><path d="M243 236 242 238 242 240 244 243 245 246 246 249 247 253 248 261 248 272 250 274 251 272 252 274 254 271 255 267 255 255 254 251 253 246 252 242 251 240 247 236 " style="stroke:gray;fill:none"/><path d="M244 236 246 236 251 241 252 243 253 246 254 251 255 255 255 267 254 270 252 272 250 273 248 271 248 261 247 253 246 249 245 246 244 245 243 242 243 240 242 238 " style="stroke:gray;fill:none"/><path d="M230 234 228 235 227 238 231 234 233 236 234 239 236 241 236 243 238 247 239 249 235 252 231 248 230 243 229 239 231 237 230 241 230 244 231 249 235 253 235 256 234 260 235 265 236 267 235 265 234 260 235 256 234 254 236 252 238 254 238 256 240 260 238 263 238 266 238 263 240 260 238 254 238 251 239 249 239 247 236 242 236 240 234 237 232 234 " style="stroke:gray;fill:none"/><path d="M152 234 149 235 147 236 143 240 142 242 141 245 141 253 142 256 143 258 148 263 151 264 162 264 166 262 169 259 171 255 171 243 170 241 168 238 164 235 161 234 " style="stroke:gray;fill:none"/><path d="M152 234 161 234 163 235 166 238 168 240 170 242 171 244 171 254 169 258 165 262 161 264 151 264 149 263 142 256 141 253 141 245 143 241 148 236 " style="stroke:gray;fill:none"/><path d="M170 225 166 226 165 227 159 227 155 228 151 229 148 230 145 231 140 234 137 233 139 232 143 230 145 229 143 230 131 237 128 238 127 241 128 239 131 238 138 234 141 233 143 233 145 231 148 230 151 229 155 228 159 227 165 227 169 226 170 225 185 225 189 226 192 227 196 229 205 238 207 241 208 243 209 247 209 254 210 259 211 262 211 265 210 267 210 270 208 274 206 272 203 275 201 278 199 282 198 284 199 282 200 280 202 277 204 274 206 272 207 276 205 279 205 280 202 284 198 286 195 291 191 293 189 294 188 297 186 297 180 300 178 302 175 304 171 306 169 306 166 308 163 309 159 310 155 310 152 312 142 312 137 308 133 307 136 308 134 309 138 313 140 314 142 314 144 312 153 312 155 310 159 310 163 309 166 308 169 306 171 306 177 303 179 301 182 299 186 297 188 297 195 298 199 297 203 295 206 293 211 288 213 285 214 283 215 280 216 276 216 267 215 265 211 262 210 259 209 254 209 247 208 243 206 239 204 236 198 230 192 227 189 226 185 225 " style="stroke:gray;fill:none"/><path d="M140 313 143 313 " style="stroke:gray;fill:none"/><path d="M138 312 141 312 " style="stroke:gray;fill:none"/><path d="M136 308 139 311 137 312 135 310 " style="stroke:gray;fill:none"/><path d="M211 265 213 264 216 267 216 276 215 280 214 283 211 287 204 294 201 296 199 297 195 298 189 297 189 295 191 293 196 291 202 285 205 281 207 278 208 276 209 273 209 271 210 267 " style="stroke:gray;fill:none"/><path d="M184 222 190 222 197 223 202 224 206 225 209 226 212 227 215 229 220 234 222 238 223 241 223 245 225 248 224 250 226 253 227 257 228 261 228 281 227 286 226 289 225 292 223 295 221 297 217 300 214 301 212 303 208 305 204 305 201 306 196 309 193 310 189 311 185 310 182 312 179 312 179 314 181 314 183 311 185 310 189 311 193 310 196 309 199 307 201 306 204 305 206 306 210 304 214 302 216 300 219 299 224 294 225 292 226 289 227 286 228 281 228 261 227 257 226 253 224 250 225 248 223 245 223 241 222 238 219 232 216 229 212 227 209 226 206 225 202 224 197 223 190 222 " style="stroke:gray;fill:none"/><path d="M180 314 " style="stroke:gray;fill:none"/><path d="M178 220 176 222 169 222 163 223 159 224 156 225 155 226 152 227 150 227 152 227 155 226 158 225 159 224 163 223 169 222 177 221 182 222 182 220 " style="stroke:gray;fill:none"/><path d="M177 221 182 221 " style="stroke:gray;fill:none"/><path d="M167 202 170 202 174 203 177 204 180 205 186 208 189 210 191 212 191 214 191 211 188 209 180 205 177 204 174 203 170 202 " style="stroke:gray;fill:none"/><path d="M323 201 321 202 321 204 322 206 325 209 328 209 329 207 329 205 328 203 326 201 " style="stroke:gray;fill:none"/><path d="M323 201 325 201 329 205 329 207 326 209 321 203 " style="stroke:gray;fill:none"/><path d="M166 199 163 200 162 201 157 201 153 202 150 203 147 204 135 210 131 213 127 216 122 221 120 224 118 227 115 233 116 238 118 238 120 237 122 235 125 233 128 231 131 230 133 228 143 223 146 222 149 221 152 220 155 219 159 218 164 217 172 216 190 216 194 217 195 218 202 218 206 219 210 220 213 221 214 222 217 223 219 223 223 223 224 220 223 218 218 213 214 210 211 208 201 203 198 202 195 201 191 200 187 199 " style="stroke:gray;fill:none"/><path d="M166 199 187 199 191 200 195 201 198 202 201 204 203 204 207 206 210 208 213 210 217 213 223 219 224 221 219 223 217 223 214 222 211 221 210 220 206 219 202 218 195 218 191 217 190 216 172 216 164 217 159 218 155 219 152 220 149 221 146 222 142 223 140 225 127 231 125 233 122 235 119 237 117 238 115 236 115 233 117 229 120 225 122 222 128 216 132 213 136 210 139 208 145 205 147 205 150 203 153 202 157 201 162 201 " style="stroke:gray;fill:none"/><path d="M361 191 360 193 359 195 360 198 361 200 363 200 365 199 365 195 364 192 " style="stroke:gray;fill:none"/><path d="M362 191 365 194 366 197 362 200 360 198 359 195 360 193 " style="stroke:gray;fill:none"/><path d="M241 188 " style="stroke:gray;fill:none"/><path d="M329 180 326 183 322 186 324 184 " style="stroke:gray;fill:none"/><path d="M231 178 " style="stroke:gray;fill:none"/><path d="M194 174 190 176 188 178 188 181 189 183 192 184 195 182 198 181 198 175 196 174 " style="stroke:gray;fill:none"/><path d="M194 174 196 174 199 177 198 181 195 182 192 184 190 183 188 181 188 179 192 175 " style="stroke:gray;fill:none"/><path d="M313 169 302 171 285 170 275 170 273 172 271 170 253 170 251 172 244 173 240 173 237 171 234 172 230 172 231 174 229 174 230 176 232 175 239 185 244 187 246 189 243 189 246 192 249 194 253 196 256 197 258 197 257 195 255 196 253 195 255 194 253 193 249 191 245 188 241 184 239 182 236 179 234 177 231 174 233 171 237 171 240 173 244 173 286 172 302 171 313 169 317 170 " style="stroke:gray;fill:none"/><path d="M251 194 254 194 " style="stroke:gray;fill:none"/><path d="M246 189 248 190 250 192 252 193 249 194 246 192 " style="stroke:gray;fill:none"/><path d="M274 171 286 171 " style="stroke:gray;fill:none"/><path d="M252 171 272 171 " style="stroke:gray;fill:none"/><path d="M354 165 354 169 357 172 359 175 359 177 361 181 362 183 364 182 365 180 365 178 363 174 361 172 360 169 358 166 " style="stroke:gray;fill:none"/><path d="M356 165 358 167 361 171 361 173 364 176 365 178 365 180 361 181 359 177 359 175 358 173 356 171 354 168 " style="stroke:gray;fill:none"/><path d="M201 167 203 169 207 171 210 172 214 171 213 169 216 168 214 168 211 166 205 165 " style="stroke:gray;fill:none"/><path d="M202 165 205 165 211 166 213 168 214 170 212 172 210 172 207 171 205 170 202 168 " style="stroke:gray;fill:none"/><path d="M327 164 321 165 319 166 321 165 327 164 330 166 325 168 319 168 325 168 333 168 330 171 326 173 324 173 322 172 324 173 328 173 331 171 333 169 335 166 338 166 341 169 339 171 336 175 332 180 332 181 327 186 324 188 321 190 318 192 315 194 313 194 308 197 304 195 306 193 309 191 312 190 316 189 318 189 315 188 319 184 318 181 316 180 308 180 306 178 303 177 301 177 297 175 297 173 297 176 300 176 303 177 307 179 299 180 291 179 288 178 285 177 284 174 285 177 288 178 291 179 299 180 316 180 319 183 314 188 310 191 305 193 302 195 305 197 301 198 298 200 291 199 286 200 285 201 276 201 271 200 266 199 263 197 260 196 263 197 265 198 268 201 270 201 275 200 285 201 290 200 291 199 298 200 301 198 304 198 308 197 311 196 319 192 322 190 325 188 328 186 332 182 336 177 339 173 341 170 341 168 339 166 334 167 331 167 330 165 " style="stroke:gray;fill:none"/><path d="M269 201 " style="stroke:gray;fill:none"/><path d="M281 150 288 150 " style="stroke:gray;fill:none"/><path d="M297 149 303 149 " style="stroke:gray;fill:none"/><path d="M308 148 " style="stroke:gray;fill:none"/><path d="M305 146 290 147 289 148 270 150 271 148 289 148 304 147 305 146 308 146 " style="stroke:gray;fill:none"/><path d="M342 144 " style="stroke:gray;fill:none"/><path d="M3 146 6 148 6 144 " style="stroke:gray;fill:none"/><path d="M5 144 5 148 3 146 " style="stroke:gray;fill:none"/><path d="M171 142 168 145 166 149 166 151 167 153 170 153 173 151 174 149 173 143 " style="stroke:gray;fill:none"/><path d="M170 144 173 144 174 149 172 151 169 151 168 153 166 151 166 149 168 146 " style="stroke:gray;fill:none"/><path d="M170 144 173 144 " style="stroke:gray;fill:none"/><path d="M219 138 219 143 223 147 225 147 226 149 228 149 226 148 230 148 230 150 236 150 230 149 248 148 263 150 250 151 263 151 265 148 268 148 265 148 249 149 230 148 224 147 219 142 " style="stroke:gray;fill:none"/><path d="M189 129 184 130 178 133 174 137 173 139 171 140 174 138 177 139 180 137 182 137 184 135 186 134 188 134 190 132 " style="stroke:gray;fill:none"/><path d="M189 129 190 131 187 134 185 134 181 137 179 136 177 139 174 138 179 133 182 131 184 130 " style="stroke:gray;fill:none"/><path d="M360 128 358 129 358 133 360 135 363 137 364 140 361 143 359 144 355 145 352 146 348 147 343 148 338 149 331 150 322 151 312 152 303 153 289 153 286 153 284 153 270 154 269 155 251 155 229 154 220 153 215 152 210 151 208 150 205 147 205 145 207 143 211 140 211 138 210 136 208 135 206 135 203 137 201 137 197 139 192 144 191 146 191 148 192 151 195 154 201 157 204 158 207 159 211 160 215 161 218 162 223 163 232 164 242 165 266 166 291 166 299 165 300 164 311 164 318 163 325 162 330 161 336 160 341 159 346 158 349 157 352 156 355 155 358 154 361 153 366 150 368 150 372 148 377 143 378 141 378 138 377 136 373 132 371 131 369 131 366 129 362 128 " style="stroke:gray;fill:none"/><path d="M360 128 362 128 366 129 372 132 378 138 378 141 371 148 361 153 358 154 355 155 352 156 349 157 346 158 341 159 336 160 330 161 325 162 318 163 311 164 300 164 292 165 291 166 266 166 242 165 232 164 223 163 218 162 215 161 211 160 207 159 204 158 201 157 199 156 196 154 192 150 191 148 191 146 198 139 206 135 208 135 211 139 206 143 205 145 205 147 206 149 210 151 215 152 220 153 229 154 251 155 269 155 283 154 284 153 286 153 289 153 303 153 312 152 322 151 331 150 338 149 343 148 348 147 352 146 355 145 359 144 362 143 364 141 364 138 361 135 358 132 358 130 " style="stroke:gray;fill:none"/><path d="M422 125 422 129 424 127 " style="stroke:gray;fill:none"/><path d="M422 125 424 127 422 129 420 127 " style="stroke:gray;fill:none"/><path d="M220 123 219 125 217 128 216 132 218 136 218 133 219 125 " style="stroke:gray;fill:none"/><path d="M218 127 219 132 217 136 216 132 " style="stroke:gray;fill:none"/><path d="M219 120 221 120 " style="stroke:gray;fill:none"/><path d="M246 104 248 104 258 109 260 111 270 116 272 116 281 121 283 121 286 123 289 124 291 124 296 127 298 127 301 128 306 131 308 131 311 133 313 133 320 137 322 137 324 138 326 142 326 139 324 138 322 137 320 137 313 133 311 133 308 131 306 131 301 128 299 128 296 127 291 124 289 124 286 123 283 121 281 121 272 116 270 116 262 112 260 110 248 104 " style="stroke:gray;fill:none"/><path d="M228 102 225 109 222 110 223 112 220 114 220 117 222 117 222 113 224 112 225 109 227 104 229 102 230 100 " style="stroke:gray;fill:none"/><path d="M221 113 221 117 " style="stroke:gray;fill:none"/><path d="M223 112 " style="stroke:gray;fill:none"/><path d="M231 95 230 98 229 96 229 98 " style="stroke:gray;fill:none"/><path d="M161 87 159 87 157 88 154 92 152 95 152 97 149 102 148 105 147 109 148 114 147 116 147 119 148 121 148 126 149 130 150 133 152 136 152 138 154 141 157 144 160 144 162 143 164 141 168 136 168 135 174 129 178 126 181 125 183 123 187 121 190 120 193 119 197 119 199 117 198 112 192 107 186 102 181 98 176 94 173 92 170 90 167 88 164 87 " style="stroke:gray;fill:none"/><path d="M161 87 165 87 168 89 171 91 175 94 180 98 184 101 191 107 197 112 199 114 199 116 196 119 193 119 190 120 187 121 179 125 176 127 173 129 168 134 165 138 165 139 160 144 158 144 153 139 150 133 149 130 148 125 148 121 147 119 147 116 148 114 147 109 148 105 149 102 153 94 157 89 159 87 " style="stroke:gray;fill:none"/><path d="M369 85 367 88 371 88 " style="stroke:gray;fill:none"/><path d="M369 85 371 87 367 87 " style="stroke:gray;fill:none"/><path d="M242 83 244 84 241 86 239 85 239 87 241 87 244 85 " style="stroke:gray;fill:none"/><path d="M240 87 " style="stroke:gray;fill:none"/><path d="M247 79 247 82 246 84 247 82 249 81 249 79 " style="stroke:gray;fill:none"/><path d="M248 81 " style="stroke:gray;fill:none"/><path d="M185 73 183 74 182 76 182 78 186 81 189 83 191 84 195 83 195 79 194 76 191 73 " style="stroke:gray;fill:none"/><path d="M185 73 190 73 194 77 195 79 195 82 193 84 191 84 187 81 183 78 182 76 " style="stroke:gray;fill:none"/><path d="M303 73 305 73 308 73 309 75 312 76 315 78 318 79 320 81 323 84 327 87 328 87 335 94 339 99 340 102 338 104 335 105 332 105 330 105 327 104 324 103 321 102 318 101 315 100 312 99 309 98 306 97 303 96 300 95 297 94 294 93 291 92 288 91 285 90 282 89 279 88 276 87 273 86 270 85 267 84 264 83 259 80 257 80 259 80 264 83 267 84 270 85 273 86 276 87 279 88 282 89 285 90 288 91 291 92 294 93 297 94 300 95 303 96 306 97 309 98 312 99 315 100 318 101 321 102 324 103 327 104 330 105 332 105 335 105 337 104 340 102 342 104 343 107 345 109 345 111 347 114 348 118 349 122 350 128 350 137 345 139 344 137 344 124 343 122 342 120 339 118 337 117 334 116 331 115 328 114 325 113 322 112 319 111 316 110 313 109 310 108 307 107 304 107 301 105 298 105 295 104 292 103 289 101 286 100 283 100 280 99 277 98 274 97 271 95 269 95 266 94 263 93 260 91 258 91 255 90 252 87 251 84 253 81 256 78 253 80 251 83 249 87 248 90 248 92 246 95 245 98 244 101 244 105 243 107 243 110 243 112 242 123 243 129 244 133 245 136 246 139 251 146 253 147 248 143 246 139 245 136 244 133 243 129 242 123 244 112 245 114 248 116 270 127 272 127 279 131 282 132 284 132 289 135 292 136 294 136 299 139 302 140 304 140 308 142 310 143 308 142 304 140 302 140 299 139 294 136 292 136 289 135 284 132 282 132 279 131 272 127 270 127 250 117 247 115 243 111 242 108 244 106 244 101 245 98 246 95 248 92 248 90 249 87 251 85 252 87 253 89 255 90 257 90 260 91 263 93 265 93 268 94 271 95 274 97 277 98 280 99 283 100 286 100 289 101 292 103 295 104 298 105 301 105 304 107 307 107 310 108 313 109 316 110 319 111 322 112 325 113 328 114 331 115 334 116 337 117 340 119 342 121 344 124 344 138 346 140 343 142 339 143 331 144 324 145 310 146 324 145 331 144 333 143 335 145 338 145 334 144 339 143 343 142 346 140 348 140 350 138 350 128 349 122 348 118 347 114 345 111 345 109 342 103 340 101 339 98 335 93 329 87 325 84 321 81 320 81 317 78 315 77 317 76 315 75 312 74 309 74 308 72 306 73 303 72 305 71 " style="stroke:gray;fill:none"/><path d="M313 76 316 76 " style="stroke:gray;fill:none"/><path d="M309 74 312 74 314 75 311 76 " style="stroke:gray;fill:none"/><path d="M307 74 " style="stroke:gray;fill:none"/><path d="M151 70 149 71 147 73 146 75 148 79 153 79 156 76 158 76 164 79 167 81 170 83 174 86 178 89 182 92 186 95 192 100 197 105 204 111 210 116 214 115 214 111 204 101 197 95 193 92 189 89 185 86 182 84 179 82 170 78 168 76 166 76 163 74 160 73 158 73 153 70 " style="stroke:gray;fill:none"/><path d="M151 70 153 70 158 73 160 73 163 75 165 75 167 76 169 78 178 82 181 84 184 86 188 89 192 92 196 95 203 101 214 112 214 114 211 116 206 111 199 105 193 100 188 96 183 92 179 89 175 86 172 84 168 81 165 80 163 78 159 76 155 76 152 79 149 79 147 77 146 75 " style="stroke:gray;fill:none"/><path d="M272 69 269 69 272 69 289 69 275 70 269 71 266 72 265 73 262 72 264 71 267 70 265 70 261 72 263 73 260 74 256 74 260 74 258 76 256 76 258 76 261 74 263 74 266 72 269 71 275 70 292 70 296 71 297 72 301 72 299 71 301 70 296 71 293 71 290 70 289 68 " style="stroke:gray;fill:none"/><path d="M64 60 62 62 64 64 66 63 " style="stroke:gray;fill:none"/><path d="M64 60 66 62 64 64 62 62 " style="stroke:gray;fill:none"/><path d="M257 31 257 33 263 37 271 45 273 48 273 50 275 52 277 57 278 59 276 55 271 44 265 38 259 33 258 33 " style="stroke:gray;fill:none"/><path d="M237 25 232 26 229 28 227 28 224 29 222 30 220 32 217 33 214 35 207 42 205 45 202 51 201 54 200 57 199 60 199 73 200 77 201 80 205 87 205 89 207 92 215 100 218 101 220 101 222 100 224 98 226 95 229 91 229 90 236 83 241 79 244 77 248 74 251 72 253 71 255 71 258 69 261 68 264 67 267 66 271 65 275 65 278 64 280 63 281 61 282 59 281 55 280 52 279 49 277 45 274 41 267 34 264 32 254 27 251 26 247 25 " style="stroke:gray;fill:none"/><path d="M237 25 247 25 251 26 254 27 260 30 263 32 266 34 274 42 277 46 280 52 281 55 282 59 281 61 278 64 275 65 271 65 267 66 264 67 261 68 258 69 255 71 253 71 249 73 246 75 243 77 239 80 235 83 229 89 227 92 227 93 225 96 220 101 218 101 216 100 207 91 205 88 201 80 200 77 199 73 199 60 200 57 201 54 202 51 204 47 206 44 216 34 219 32 222 31 224 29 227 28 229 28 232 26 " style="stroke:gray;fill:none"/></svg>