<svg width="429px" height="547px" xmlns="http://www.w3.org/2000/svg"><path d="M170 501 168 504 166 505 158 505 155 504 151 504 149 506 149 509 151 513 157 519 161 522 163 522 166 524 170 524 172 523 174 521 176 517 177 514 177 504 174 501 " style="stroke:gray;fill:none"/><path d="M173 500 177 504 177 514 176 517 175 519 170 524 166 524 162 522 158 519 151 512 149 509 149 506 151 504 155 504 158 505 166 505 168 504 " style="stroke:gray;fill:none"/><path d="M91 483 90 485 89 488 88 491 88 502 89 504 92 507 97 507 100 506 103 505 106 503 108 503 116 499 118 497 121 496 126 491 126 488 124 486 121 486 116 489 113 490 106 490 103 489 101 488 97 484 95 482 " style="stroke:gray;fill:none"/><path d="M94 481 98 485 103 489 106 490 113 490 116 489 121 486 124 486 126 488 126 490 120 496 117 498 114 499 112 501 108 503 106 503 103 505 100 506 97 507 93 507 88 502 88 491 89 488 90 485 " style="stroke:gray;fill:none"/><path d="M161 480 159 484 161 490 159 488 159 485 161 481 168 474 " style="stroke:gray;fill:none"/><path d="M177 460 173 464 173 467 179 472 182 473 186 473 189 470 189 466 188 464 185 461 183 460 " style="stroke:gray;fill:none"/><path d="M177 460 183 460 189 466 189 469 185 473 182 473 179 472 176 470 174 468 173 466 173 464 " style="stroke:gray;fill:none"/><path d="M120 457 122 459 122 467 121 469 118 472 121 470 122 468 " style="stroke:gray;fill:none"/><path d="M105 445 103 446 102 460 103 463 105 467 110 472 112 473 115 474 119 475 122 474 125 473 128 470 128 468 130 465 131 459 131 457 130 455 128 453 125 453 118 454 115 453 113 452 107 446 " style="stroke:gray;fill:none"/><path d="M105 445 112 452 115 453 118 454 120 455 125 453 128 453 130 455 131 457 131 459 130 465 128 469 124 473 122 474 119 475 115 474 111 472 105 466 103 463 102 460 102 448 " style="stroke:gray;fill:none"/><path d="M113 434 110 437 110 442 114 446 116 447 119 448 124 448 126 446 127 443 127 441 126 439 124 436 122 435 120 434 " style="stroke:gray;fill:none"/><path d="M114 434 120 434 122 436 124 438 127 441 127 443 126 445 123 448 118 447 120 446 122 445 124 441 122 443 120 446 118 447 116 447 110 441 110 438 " style="stroke:gray;fill:none"/><path d="M179 429 175 430 171 434 169 438 168 443 168 452 169 454 171 454 168 451 168 443 169 439 171 435 176 430 180 429 187 429 190 430 194 432 197 435 195 432 191 430 188 429 " style="stroke:gray;fill:none"/><path d="M114 407 119 407 122 408 125 410 129 414 132 420 132 426 131 428 129 430 131 429 132 427 132 419 129 413 126 410 123 408 120 407 " style="stroke:gray;fill:none"/><path d="M218 392 216 393 215 395 215 397 214 400 213 401 213 404 212 408 211 411 210 412 209 416 208 420 207 424 207 426 208 428 211 429 213 427 214 425 215 422 216 417 217 412 218 408 219 403 220 398 220 394 " style="stroke:gray;fill:none"/><path d="M218 392 220 394 220 398 219 403 218 408 217 412 216 417 215 422 214 425 210 429 207 426 207 424 208 420 209 416 210 412 211 409 212 405 213 401 214 398 215 395 " style="stroke:gray;fill:none"/><path d="M107 383 106 385 105 390 105 394 104 396 105 398 108 399 110 397 111 395 112 392 112 385 110 383 " style="stroke:gray;fill:none"/><path d="M108 383 110 383 112 385 112 392 111 395 107 399 105 394 105 390 106 385 " style="stroke:gray;fill:none"/><path d="M137 377 134 380 132 383 132 391 133 393 135 396 142 403 146 406 156 411 159 412 163 413 167 414 184 414 188 413 192 412 195 411 200 408 203 406 201 408 199 408 194 411 191 412 188 413 184 414 168 414 164 413 160 412 157 411 147 406 143 403 135 395 133 392 132 390 132 384 134 381 139 377 " style="stroke:gray;fill:none"/><path d="M26 368 25 373 27 375 32 374 33 372 33 370 31 368 " style="stroke:gray;fill:none"/><path d="M29 367 33 371 32 373 30 375 28 375 25 372 25 370 " style="stroke:gray;fill:none"/><path d="M186 359 185 361 189 362 189 359 " style="stroke:gray;fill:none"/><path d="M188 362 185 361 " style="stroke:gray;fill:none"/><path d="M191 352 177 353 175 354 173 355 172 357 171 359 170 364 169 371 165 371 159 370 157 372 158 376 162 378 165 379 168 379 171 379 182 379 184 378 185 376 185 373 184 371 188 370 188 373 190 375 192 375 196 373 196 371 197 367 198 366 199 360 199 355 196 352 " style="stroke:gray;fill:none"/><path d="M191 352 195 352 199 356 199 360 198 366 197 370 196 372 194 374 192 375 190 375 188 373 188 369 185 369 185 373 185 376 182 379 171 379 168 379 165 379 162 378 160 377 157 374 157 372 159 370 164 370 170 371 170 364 171 359 172 357 175 354 177 353 " style="stroke:gray;fill:none"/><path d="M104 330 102 332 99 336 96 340 96 342 94 345 93 348 92 352 92 357 93 360 94 363 95 365 100 370 102 371 105 372 108 373 112 373 115 373 117 373 119 372 121 370 121 366 120 363 118 363 111 356 109 353 109 352 105 348 105 346 107 344 108 342 107 330 " style="stroke:gray;fill:none"/><path d="M106 330 108 332 108 342 106 344 105 346 105 348 106 350 109 354 111 357 117 363 119 363 121 365 122 368 117 373 115 373 112 373 108 373 105 372 101 370 94 363 93 360 92 357 92 352 93 348 94 345 96 341 99 337 102 333 " style="stroke:gray;fill:none"/><path d="M244 327 239 328 236 329 226 334 223 336 220 338 209 350 221 338 224 336 227 334 237 329 240 328 244 327 246 327 248 328 250 330 249 328 247 327 " style="stroke:gray;fill:none"/><path d="M126 326 121 327 118 328 115 331 114 333 114 349 115 352 116 354 119 357 123 359 126 360 131 360 134 359 138 357 141 354 141 352 142 350 141 353 136 358 134 358 131 360 126 360 123 359 120 357 115 352 114 349 114 334 115 332 119 328 121 327 126 326 132 326 134 327 137 330 137 334 137 338 136 342 135 343 135 345 137 348 139 349 142 348 138 348 135 345 135 343 136 339 137 334 137 331 137 329 135 327 132 326 " style="stroke:gray;fill:none"/><path d="M200 316 201 318 196 323 192 326 189 328 183 331 181 331 184 331 190 328 193 326 197 323 203 318 203 316 202 318 " style="stroke:gray;fill:none"/><path d="M234 315 232 316 224 324 220 327 217 329 214 331 206 335 203 336 199 337 195 338 190 339 184 340 162 339 154 340 154 343 156 345 158 346 163 347 172 347 175 347 180 347 183 347 194 346 203 346 206 349 206 354 205 358 204 359 204 364 203 370 202 374 201 376 197 380 194 382 191 383 188 384 184 385 165 385 161 384 157 383 154 382 144 377 137 369 133 367 131 367 128 370 123 376 122 376 119 379 117 382 118 391 118 394 117 397 115 400 112 403 112 405 107 414 106 417 105 420 104 425 104 427 106 431 109 431 111 429 113 428 116 427 118 427 122 428 125 430 130 435 132 438 132 439 138 439 142 434 144 431 145 429 146 427 144 423 147 420 149 421 151 421 156 424 158 424 163 425 161 429 159 427 161 429 159 432 157 435 157 449 156 455 155 459 154 463 153 466 147 477 147 479 147 482 147 484 149 488 153 492 156 493 162 493 165 492 171 489 175 486 178 483 178 480 177 478 175 476 168 470 167 468 167 466 167 463 167 461 173 455 175 454 178 454 181 454 184 454 189 457 192 457 194 455 196 451 197 448 198 444 199 440 199 435 200 432 201 431 201 425 202 421 203 417 204 413 205 409 206 405 207 402 208 398 209 394 210 390 211 387 213 383 219 377 233 364 237 359 240 355 243 351 245 348 250 338 250 336 253 331 253 328 252 326 250 324 245 322 242 320 238 316 236 315 " style="stroke:gray;fill:none"/><path d="M234 315 236 315 241 320 244 322 246 323 248 323 253 328 253 331 250 336 250 338 247 344 245 347 243 350 240 354 237 358 233 363 218 377 213 382 212 384 211 387 210 390 209 394 209 397 208 401 206 404 205 409 204 413 203 417 202 421 201 425 201 431 200 434 199 435 199 440 198 444 197 448 196 451 195 453 191 457 189 457 187 455 184 454 181 454 178 454 175 454 171 456 168 459 167 461 167 463 167 466 167 468 169 472 173 476 178 480 178 482 174 486 169 490 165 492 162 493 156 493 154 492 149 487 147 484 147 482 147 479 147 477 153 466 154 463 155 459 156 455 157 449 157 435 158 433 163 429 162 424 160 425 156 424 151 421 149 421 147 419 144 419 144 423 146 427 145 429 142 432 139 436 139 437 136 440 134 440 132 438 130 435 130 434 126 430 122 428 118 427 116 427 113 428 109 430 107 431 105 429 104 427 104 425 105 420 106 417 107 414 108 412 110 410 111 408 111 406 112 404 115 401 117 397 118 394 118 391 117 383 118 381 124 376 128 372 134 368 135 368 137 370 143 377 145 377 154 382 157 383 161 384 165 385 184 385 188 384 191 383 194 382 198 380 201 377 202 374 203 370 204 364 204 359 205 356 206 355 206 348 204 346 194 346 183 347 180 347 175 347 172 347 163 347 158 346 154 341 156 339 162 339 184 340 190 339 195 338 199 337 203 336 206 335 218 329 221 327 225 324 " style="stroke:gray;fill:none"/><path d="M229 301 226 302 224 304 221 305 219 307 215 309 213 309 210 311 207 312 204 313 201 314 198 315 194 316 189 317 184 318 175 319 151 319 142 318 141 317 138 318 137 321 140 324 147 330 150 331 153 332 157 333 161 334 186 334 191 333 195 332 198 331 201 330 204 329 211 325 213 325 216 323 220 320 228 312 231 308 232 305 233 303 232 301 " style="stroke:gray;fill:none"/><path d="M229 301 231 301 233 304 231 306 229 309 229 310 219 320 215 323 212 325 204 329 201 330 198 331 195 332 191 333 186 334 161 334 157 333 153 332 150 331 148 330 141 324 139 322 141 320 139 322 137 320 138 318 141 317 150 318 151 319 175 319 184 318 189 317 194 316 198 315 201 314 204 313 207 312 210 311 213 309 215 309 223 305 225 303 " style="stroke:gray;fill:none"/><path d="M246 291 244 293 244 296 245 298 247 300 250 301 252 300 253 298 253 295 251 292 " style="stroke:gray;fill:none"/><path d="M247 291 249 291 251 293 253 296 253 298 249 301 244 296 244 294 " style="stroke:gray;fill:none"/><path d="M260 281 256 283 256 285 256 288 256 290 258 292 260 295 261 298 261 302 256 307 246 306 242 308 242 310 243 312 247 316 249 316 252 318 255 319 261 319 264 318 267 316 269 316 275 310 277 306 278 303 279 300 279 294 278 291 276 287 273 284 269 282 266 281 " style="stroke:gray;fill:none"/><path d="M260 281 266 281 269 282 272 284 276 288 278 291 279 294 279 300 278 303 275 309 268 316 264 318 261 319 255 319 252 318 248 316 242 309 244 307 246 306 257 307 259 305 262 309 266 311 270 311 267 311 264 310 262 308 261 306 259 305 261 302 261 298 260 295 258 291 256 289 256 285 256 284 258 282 " style="stroke:gray;fill:none"/><path d="M140 272 138 273 136 275 136 278 137 280 141 281 143 280 144 274 142 273 " style="stroke:gray;fill:none"/><path d="M140 272 143 274 144 278 141 281 139 281 136 278 136 276 " style="stroke:gray;fill:none"/><path d="M235 269 233 273 233 285 234 287 237 287 239 285 240 283 241 280 242 275 242 272 241 270 239 268 " style="stroke:gray;fill:none"/><path d="M238 268 242 272 242 275 241 280 240 283 235 287 233 285 233 273 234 271 " style="stroke:gray;fill:none"/><path d="M97 263 96 265 95 268 95 278 96 284 97 288 101 296 107 297 107 292 106 288 105 284 104 283 103 279 103 265 102 263 " style="stroke:gray;fill:none"/><path d="M100 262 103 265 103 279 104 283 105 287 106 288 107 292 106 297 103 297 101 295 99 292 97 288 96 284 95 278 95 268 96 265 " style="stroke:gray;fill:none"/><path d="M236 256 236 262 237 255 238 258 238 262 240 264 238 258 238 255 " style="stroke:gray;fill:none"/><path d="M111 251 111 253 109 256 109 268 112 271 112 277 113 280 114 281 114 285 113 287 113 290 113 293 115 296 115 298 118 304 122 308 126 308 128 307 128 303 127 301 125 299 124 297 123 294 123 292 122 289 121 287 116 282 115 275 115 269 117 266 117 260 115 251 " style="stroke:gray;fill:none"/><path d="M113 250 116 253 117 260 117 266 115 268 115 275 116 282 117 284 122 289 123 292 124 295 124 297 128 304 128 306 126 308 123 308 117 302 115 298 115 296 113 293 113 290 112 288 115 285 114 281 113 278 112 277 112 270 109 267 109 256 111 252 " style="stroke:gray;fill:none"/><path d="M243 236 242 239 244 243 244 245 245 248 246 249 247 252 248 259 248 271 249 273 251 272 253 273 254 271 255 267 255 257 254 250 253 246 252 243 250 239 247 236 " style="stroke:gray;fill:none"/><path d="M243 237 246 236 250 240 253 246 254 250 255 257 255 267 254 271 252 273 250 273 248 271 248 259 247 252 246 249 245 246 244 245 243 242 242 239 " style="stroke:gray;fill:none"/><path d="M232 235 230 236 228 239 229 242 230 246 232 249 232 251 236 252 238 250 238 247 238 245 237 242 236 239 " style="stroke:gray;fill:none"/><path d="M232 236 236 240 237 242 238 245 238 247 239 249 235 253 232 250 230 246 229 242 228 239 " style="stroke:gray;fill:none"/><path d="M153 234 147 237 144 240 141 246 141 253 143 257 145 259 147 261 149 263 151 264 154 265 158 265 161 264 165 262 169 258 171 254 172 251 172 247 171 244 169 240 166 237 160 234 " style="stroke:gray;fill:none"/><path d="M153 234 160 234 164 236 169 241 171 244 172 247 172 251 171 254 170 256 163 263 161 264 158 265 154 265 151 264 148 262 144 258 142 255 141 253 141 246 143 242 149 236 " style="stroke:gray;fill:none"/><path d="M166 223 159 224 156 225 154 226 152 227 151 229 148 230 147 229 144 232 142 233 139 232 141 231 144 229 141 231 138 233 136 233 133 236 131 236 129 237 127 238 124 241 123 243 122 245 122 265 123 273 124 279 125 283 126 286 127 290 130 295 130 297 131 299 133 301 135 306 140 311 143 312 155 312 157 310 161 310 164 309 169 306 171 306 174 305 176 304 180 301 183 299 185 296 187 299 193 299 196 298 200 297 204 295 207 293 210 290 213 286 214 284 215 281 216 278 216 265 214 263 210 262 212 261 210 255 210 249 209 245 208 242 207 240 205 237 202 233 200 231 197 229 191 226 187 225 170 225 165 226 164 227 158 227 155 228 152 228 154 226 156 225 160 224 166 223 168 223 " style="stroke:gray;fill:none"/><path d="M170 225 187 225 191 226 195 228 198 230 203 235 206 239 208 242 209 245 210 249 211 256 210 259 210 262 214 263 216 265 216 277 215 280 214 283 213 285 210 289 206 293 203 295 199 297 196 297 194 298 191 295 194 292 197 290 198 290 202 286 204 283 206 280 209 274 209 272 210 269 214 266 211 267 210 269 210 271 206 279 204 282 202 285 199 288 197 286 198 284 199 282 201 280 202 277 204 274 207 272 205 272 203 275 202 278 199 281 198 284 197 286 199 288 196 291 192 293 191 295 192 297 194 298 188 299 186 296 183 297 182 299 179 301 178 301 174 305 171 306 169 306 164 309 161 310 157 310 154 312 143 312 141 311 135 305 133 300 131 298 129 294 129 292 127 290 126 286 125 282 124 279 123 273 122 265 122 245 124 243 133 236 136 235 137 233 142 233 145 232 146 230 149 229 152 228 155 229 158 227 164 227 " style="stroke:gray;fill:none"/><path d="M164 202 169 202 173 203 177 204 185 208 188 210 190 212 190 214 192 212 189 210 186 208 182 206 180 206 178 204 174 203 170 202 " style="stroke:gray;fill:none"/><path d="M322 201 321 205 323 208 325 210 329 209 329 203 327 201 " style="stroke:gray;fill:none"/><path d="M325 200 329 204 329 208 326 210 322 206 321 203 " style="stroke:gray;fill:none"/><path d="M173 198 165 199 162 201 158 201 154 202 151 203 148 204 145 206 143 206 137 209 134 211 130 214 126 217 123 220 120 224 118 227 116 231 115 234 116 238 119 238 122 235 125 233 128 231 131 229 145 222 148 221 151 220 155 219 159 218 164 217 171 216 190 216 194 217 195 218 202 218 206 219 210 220 213 221 214 222 217 223 220 224 222 224 224 222 224 219 218 213 214 210 211 208 203 204 201 204 198 202 195 201 191 200 187 199 178 198 " style="stroke:gray;fill:none"/><path d="M173 198 178 198 187 199 191 200 195 201 198 202 201 204 203 204 209 207 213 210 217 213 224 220 224 222 222 224 220 224 217 223 214 222 211 221 210 220 206 219 202 218 195 218 191 217 190 216 171 216 164 217 159 218 155 219 151 220 148 221 145 222 132 229 130 229 127 231 125 233 122 235 117 238 115 236 115 234 116 231 118 228 120 225 123 221 127 217 131 214 135 211 139 208 143 206 145 206 148 204 151 203 154 202 158 201 162 201 165 199 " style="stroke:gray;fill:none"/><path d="M195 173 192 175 189 176 187 178 186 180 187 184 193 184 196 183 198 182 201 180 200 175 198 174 " style="stroke:gray;fill:none"/><path d="M195 173 198 174 200 175 201 179 199 181 193 184 189 184 187 182 186 180 191 175 193 174 " style="stroke:gray;fill:none"/><path d="M334 169 " style="stroke:gray;fill:none"/><path d="M331 169 329 172 327 173 323 173 320 171 322 172 326 172 328 173 331 171 " style="stroke:gray;fill:none"/><path d="M322 166 320 169 317 170 304 171 288 172 281 171 279 171 274 172 271 174 256 173 256 170 254 170 253 172 247 173 240 173 237 171 234 171 232 172 232 175 233 177 242 186 247 190 250 191 252 193 258 196 261 197 264 198 267 199 270 200 276 199 280 199 289 200 299 199 305 198 308 197 311 196 317 193 319 191 322 190 326 187 336 177 339 173 341 170 339 166 334 166 327 167 326 166 " style="stroke:gray;fill:none"/><path d="M318 180 320 183 318 185 316 182 " style="stroke:gray;fill:none"/><path d="M255 172 " style="stroke:gray;fill:none"/><path d="M335 166 338 166 340 168 340 171 336 176 325 187 321 190 318 191 315 194 311 196 308 197 305 198 301 196 304 193 306 192 309 193 310 191 312 189 315 188 319 185 320 181 318 180 315 180 308 180 306 178 303 178 300 177 298 176 298 173 298 176 300 177 303 178 307 179 297 180 291 179 288 178 286 177 285 174 283 176 285 177 287 177 290 178 291 179 297 180 314 180 317 183 317 185 314 188 311 189 309 191 302 194 301 197 299 199 289 200 280 199 276 199 270 200 267 199 264 198 261 197 258 196 254 194 251 192 248 190 244 187 233 176 232 173 234 171 237 171 240 173 247 173 255 172 257 174 271 174 274 172 279 171 281 171 288 172 304 171 317 170 320 169 321 168 327 167 " style="stroke:gray;fill:none"/><path d="M322 167 327 167 " style="stroke:gray;fill:none"/><path d="M355 164 353 165 352 167 352 170 353 172 358 177 361 182 364 182 365 180 365 177 364 174 363 172 360 169 359 166 357 165 " style="stroke:gray;fill:none"/><path d="M355 164 357 165 360 168 361 171 364 174 365 177 365 180 362 182 360 180 357 176 357 175 352 170 352 167 " style="stroke:gray;fill:none"/><path d="M196 163 197 167 199 167 201 169 205 171 208 172 214 173 215 169 212 166 209 165 205 164 201 163 199 163 " style="stroke:gray;fill:none"/><path d="M197 162 201 163 205 164 209 165 212 166 216 170 214 172 208 172 205 171 203 170 201 168 198 167 196 165 " style="stroke:gray;fill:none"/><path d="M353 161 349 165 347 170 344 174 342 177 340 180 330 190 325 193 324 195 322 195 320 197 317 198 315 200 313 201 311 201 308 203 305 204 302 205 298 205 292 207 291 211 291 213 301 223 313 229 317 230 333 230 337 229 340 228 343 227 347 225 350 223 359 214 362 210 365 204 366 198 366 194 365 192 363 190 360 191 359 193 359 197 360 199 365 200 365 203 362 209 359 213 349 223 346 225 342 227 339 228 336 229 332 230 317 230 314 229 302 223 292 210 292 208 294 206 299 205 303 205 306 204 309 203 312 201 314 201 316 200 318 198 321 197 323 195 325 195 327 193 331 190 340 181 342 178 344 175 347 171 350 164 352 162 356 162 357 162 359 163 357 162 " style="stroke:gray;fill:none"/><path d="M362 190 366 194 365 199 361 199 359 197 359 193 " style="stroke:gray;fill:none"/><path d="M187 139 185 140 185 152 187 156 189 158 192 160 193 160 195 161 193 160 191 159 186 154 185 151 185 141 " style="stroke:gray;fill:none"/><path d="M358 129 358 133 360 135 364 138 364 140 360 144 356 145 353 146 349 147 345 148 338 149 332 150 323 151 314 152 304 153 290 154 271 155 246 155 227 154 219 153 214 152 210 151 208 150 205 146 211 140 211 136 209 135 207 135 204 136 201 137 197 139 195 141 191 146 191 148 192 151 195 154 201 157 204 158 207 159 210 160 214 161 219 162 224 163 232 164 240 165 257 166 288 166 302 165 312 164 319 163 325 162 330 161 336 160 340 159 344 158 348 157 352 156 355 155 358 154 361 153 364 151 366 151 372 148 374 146 378 141 378 138 377 136 373 132 371 131 368 130 365 129 361 128 " style="stroke:gray;fill:none"/><path d="M362 129 365 129 368 130 371 131 378 138 378 140 376 144 374 146 371 148 368 150 366 151 363 151 360 153 358 153 355 155 352 156 348 157 344 158 340 159 336 160 330 161 325 162 319 163 312 164 302 165 288 166 257 166 240 165 232 164 224 163 219 162 214 161 210 160 207 159 204 158 201 157 199 155 197 155 192 150 191 148 191 146 193 143 195 141 199 138 201 137 204 136 206 136 210 136 211 139 206 144 205 147 206 149 208 150 210 151 214 152 219 153 227 154 246 155 271 155 290 154 304 153 314 152 323 151 332 150 338 149 345 148 349 147 353 146 356 145 360 144 362 143 364 141 364 137 362 135 358 132 358 130 " style="stroke:gray;fill:none"/><path d="M201 125 204 125 206 128 203 130 197 127 192 127 188 128 185 129 182 130 178 133 171 140 171 142 168 145 166 149 166 152 164 154 163 158 162 164 163 168 165 172 167 175 171 179 175 181 178 182 181 183 185 184 181 183 178 182 175 181 173 180 166 172 168 171 168 169 166 169 168 170 166 172 164 170 164 168 162 164 163 158 164 154 166 152 169 154 171 153 173 151 175 151 176 149 176 145 175 143 173 143 171 141 176 139 178 139 182 138 187 137 191 135 194 132 196 131 199 131 202 129 205 129 209 128 206 128 205 125 " style="stroke:gray;fill:none"/><path d="M172 142 174 143 176 145 176 149 174 151 172 152 169 154 167 153 166 149 167 147 " style="stroke:gray;fill:none"/><path d="M193 127 200 130 198 131 195 131 193 132 190 135 186 137 182 138 178 139 175 137 179 133 183 130 186 129 189 128 " style="stroke:gray;fill:none"/><path d="M162 86 165 87 168 90 171 91 175 94 179 97 184 101 190 106 197 112 199 114 199 117 197 119 193 120 190 120 187 121 179 125 176 127 173 129 168 134 165 138 165 139 161 143 158 144 153 139 149 131 148 128 147 123 147 111 148 106 149 102 152 96 154 93 160 87 161 89 159 92 155 96 154 98 156 96 161 90 159 87 154 92 152 95 152 97 149 102 148 106 147 111 147 123 148 128 149 131 153 138 153 140 156 143 160 143 162 143 164 141 168 136 168 135 174 129 177 127 180 125 183 123 187 121 190 120 193 120 197 119 199 118 198 112 191 106 185 101 180 97 176 94 172 91 170 91 166 87 164 87 " style="stroke:gray;fill:none"/><path d="M257 80 255 81 249 84 248 81 231 98 229 100 228 103 222 114 221 117 220 121 219 126 218 135 218 138 219 141 220 144 222 146 225 146 227 148 243 149 269 148 270 150 281 150 283 147 288 147 290 149 292 149 292 147 283 147 243 149 227 148 225 146 223 146 220 142 223 139 227 142 227 145 228 142 223 139 221 140 220 142 218 138 218 135 219 126 220 121 221 117 222 114 228 102 230 100 231 102 232 104 235 107 238 108 242 112 242 124 243 129 244 133 245 136 246 139 249 145 252 146 249 144 247 141 246 139 245 136 244 133 243 129 242 124 243 110 244 112 245 114 248 116 272 128 274 128 279 131 281 131 284 133 286 133 289 135 292 136 294 136 299 139 302 140 304 140 308 142 310 143 308 142 304 140 302 140 299 139 294 136 292 136 289 135 286 133 284 133 281 131 279 131 274 128 272 128 250 117 247 115 244 112 243 110 243 108 249 105 260 110 262 112 270 116 272 116 281 121 284 122 286 122 289 124 291 124 296 127 298 127 301 128 306 131 308 131 311 133 313 133 318 136 320 136 324 138 327 142 326 139 323 138 320 136 318 136 313 133 311 133 308 131 306 131 301 128 299 128 296 127 291 124 289 124 286 122 284 122 281 121 272 116 270 116 264 113 262 111 249 105 246 105 244 106 242 111 240 109 237 107 236 107 231 102 231 99 248 82 249 89 248 92 246 95 246 97 245 99 241 101 239 101 236 99 233 100 236 99 239 101 242 102 244 102 245 100 245 98 246 95 248 92 249 86 252 86 253 89 255 90 257 90 260 92 262 92 265 93 268 95 271 96 274 97 277 98 280 99 283 100 286 100 289 101 292 103 295 104 298 105 301 105 304 107 307 107 310 108 313 109 316 110 319 111 322 112 325 113 328 114 331 115 334 116 337 117 339 118 343 122 344 127 345 137 345 139 345 137 344 127 343 122 337 117 334 116 331 115 328 114 325 113 322 112 319 111 316 110 313 109 310 108 307 107 304 107 301 105 298 105 295 104 292 103 289 101 286 100 283 100 280 99 277 98 274 97 271 96 268 95 265 93 263 93 260 92 257 90 255 90 252 87 251 85 255 81 257 80 259 80 262 81 265 83 267 83 270 85 273 86 276 87 279 88 282 89 285 90 288 91 291 92 294 93 297 94 300 95 303 96 306 97 309 98 312 99 315 100 318 101 321 102 324 103 327 104 330 105 333 106 335 106 339 105 337 105 335 106 333 106 330 105 327 104 324 103 321 102 318 101 315 100 312 99 309 98 306 97 303 96 300 95 297 94 294 93 291 92 288 91 285 90 282 89 279 88 276 87 273 86 270 85 267 83 265 83 262 81 259 80 " style="stroke:gray;fill:none"/><path d="M270 149 281 149 " style="stroke:gray;fill:none"/><path d="M289 148 292 148 " style="stroke:gray;fill:none"/><path d="M241 101 244 101 " style="stroke:gray;fill:none"/><path d="M265 73 262 74 259 75 257 76 255 78 253 78 250 81 254 78 256 78 258 76 262 74 265 73 267 73 " style="stroke:gray;fill:none"/><path d="M185 73 183 74 182 76 183 79 186 81 190 84 194 84 195 82 195 78 194 76 191 73 " style="stroke:gray;fill:none"/><path d="M185 73 190 73 195 78 195 82 193 84 191 84 188 82 185 80 182 76 " style="stroke:gray;fill:none"/><path d="M151 70 147 72 148 79 152 79 153 79 156 76 159 77 167 81 170 83 174 86 178 89 182 92 186 95 192 100 197 105 204 111 210 116 214 115 214 112 213 110 203 100 198 96 193 92 189 89 185 86 182 84 179 82 174 80 172 78 166 75 164 75 159 72 156 71 153 70 " style="stroke:gray;fill:none"/><path d="M151 70 153 70 156 71 159 72 164 75 166 75 170 77 172 79 177 81 181 84 184 86 188 89 192 92 197 96 202 100 214 112 214 114 211 116 206 111 199 105 193 100 187 95 184 93 180 90 175 86 172 84 168 81 166 81 164 79 162 78 159 77 157 77 155 76 150 80 147 77 147 73 149 71 " style="stroke:gray;fill:none"/><path d="M275 68 269 70 269 72 276 71 279 71 298 71 301 73 304 73 307 74 310 75 316 78 319 80 322 82 326 85 336 95 338 98 341 102 341 104 343 106 346 112 347 115 348 118 349 122 350 127 350 137 346 141 342 142 336 143 331 144 323 145 309 146 294 147 302 146 304 148 307 148 310 145 323 145 331 144 336 143 342 142 346 141 348 140 350 138 350 127 349 122 348 118 347 115 346 112 345 109 343 105 341 103 341 101 338 97 336 94 327 85 323 82 320 80 310 75 307 74 304 73 301 73 298 71 279 71 277 68 " style="stroke:gray;fill:none"/><path d="M303 147 307 147 " style="stroke:gray;fill:none"/><path d="M270 69 276 70 270 72 " style="stroke:gray;fill:none"/><path d="M276 70 " style="stroke:gray;fill:none"/><path d="M235 25 232 27 228 28 225 28 221 30 219 32 216 33 213 35 209 39 207 42 205 45 202 51 201 54 200 57 199 61 199 73 200 77 201 80 202 83 205 89 207 92 210 96 212 98 215 100 217 101 220 101 222 100 224 98 226 95 226 94 230 89 237 82 241 79 245 76 248 75 251 72 253 71 255 71 260 68 264 67 267 66 271 65 274 65 279 64 281 62 282 60 281 56 280 52 278 49 278 47 276 44 273 40 267 34 263 31 261 30 259 30 257 28 254 27 251 26 247 25 238 25 " style="stroke:gray;fill:none"/><path d="M235 25 238 25 247 25 251 26 254 27 257 28 259 30 257 31 262 31 266 34 273 41 277 46 280 52 280 55 281 57 279 59 278 57 276 55 271 44 265 38 260 34 257 33 263 37 271 45 273 48 273 50 275 52 277 57 279 59 282 60 278 64 274 65 270 66 267 66 264 67 260 68 255 71 253 71 249 73 246 75 243 77 240 79 235 83 230 88 227 92 227 93 225 96 220 101 218 101 216 100 213 98 210 95 207 91 205 88 204 85 202 83 201 80 200 77 199 73 199 61 200 57 201 54 202 51 204 49 205 46 207 43 209 40 214 35 217 33 220 32 223 29 226 28 229 27 232 27 " style="stroke:gray;fill:none"/></svg>