<svg width="429px" height="547px" xmlns="http://www.w3.org/2000/svg"><path d="M90 510 " style="stroke:gray;fill:none"/><path d="M170 500 166 504 157 504 154 503 152 502 150 503 149 505 148 507 149 510 151 513 158 520 161 521 164 524 167 524 171 524 174 521 176 518 177 514 177 504 176 502 175 500 173 499 " style="stroke:gray;fill:none"/><path d="M173 499 176 502 177 504 177 514 176 517 175 519 167 524 165 524 162 522 159 520 151 512 149 509 148 507 149 505 154 503 157 504 166 504 168 503 " style="stroke:gray;fill:none"/><path d="M85 499 " style="stroke:gray;fill:none"/><path d="M174 495 175 497 " style="stroke:gray;fill:none"/><path d="M173 492 " style="stroke:gray;fill:none"/><path d="M171 492 172 495 " style="stroke:gray;fill:none"/><path d="M146 492 150 496 154 498 164 498 167 497 168 496 170 495 168 496 165 497 164 498 154 498 152 497 " style="stroke:gray;fill:none"/><path d="M142 489 139 492 139 494 140 498 141 501 143 503 144 506 146 509 146 507 143 504 143 502 141 500 140 497 140 495 140 491 144 488 145 490 147 490 144 488 " style="stroke:gray;fill:none"/><path d="M143 484 142 486 139 486 137 488 137 490 136 492 137 490 137 488 139 486 143 486 " style="stroke:gray;fill:none"/><path d="M181 479 " style="stroke:gray;fill:none"/><path d="M98 479 " style="stroke:gray;fill:none"/><path d="M179 477 181 476 184 476 " style="stroke:gray;fill:none"/><path d="M128 476 131 479 " style="stroke:gray;fill:none"/><path d="M96 478 94 481 91 483 90 485 89 488 88 491 88 502 89 504 91 506 93 507 97 507 101 506 104 505 107 503 109 503 111 501 115 499 117 499 120 496 123 495 126 492 126 490 127 488 126 486 122 486 120 486 115 489 111 490 107 490 104 489 102 488 97 483 96 480 96 478 99 476 " style="stroke:gray;fill:none"/><path d="M97 481 97 483 98 485 100 487 104 489 107 490 111 490 115 489 120 486 122 486 124 485 126 491 122 495 119 497 116 499 104 505 101 506 97 507 93 507 88 502 88 491 89 488 90 485 " style="stroke:gray;fill:none"/><path d="M281 476 281 480 283 482 285 482 287 480 285 475 " style="stroke:gray;fill:none"/><path d="M284 475 286 477 286 480 284 482 281 479 281 477 " style="stroke:gray;fill:none"/><path d="M166 475 162 479 160 482 159 484 159 488 162 490 159 487 159 485 160 483 162 480 168 475 " style="stroke:gray;fill:none"/><path d="M126 475 126 479 129 481 129 489 127 479 " style="stroke:gray;fill:none"/><path d="M24 475 " style="stroke:gray;fill:none"/><path d="M104 474 108 477 112 479 116 480 122 480 124 479 122 480 116 480 112 479 110 478 107 475 " style="stroke:gray;fill:none"/><path d="M26 472 27 477 32 476 32 473 " style="stroke:gray;fill:none"/><path d="M28 473 32 475 30 477 27 476 " style="stroke:gray;fill:none"/><path d="M102 471 100 473 97 473 94 476 93 478 98 473 100 473 102 471 105 471 " style="stroke:gray;fill:none"/><path d="M34 472 " style="stroke:gray;fill:none"/><path d="M29 469 27 470 29 469 31 470 " style="stroke:gray;fill:none"/><path d="M102 469 " style="stroke:gray;fill:none"/><path d="M193 462 " style="stroke:gray;fill:none"/><path d="M178 464 178 466 181 470 179 468 178 465 181 462 " style="stroke:gray;fill:none"/><path d="M179 459 175 461 173 463 172 465 173 467 174 469 177 472 180 473 186 473 189 470 189 466 188 464 185 461 181 459 " style="stroke:gray;fill:none"/><path d="M179 459 181 459 183 460 188 465 189 467 189 469 185 473 180 473 178 472 173 467 172 465 177 460 " style="stroke:gray;fill:none"/><path d="M195 458 192 459 190 460 189 462 193 460 " style="stroke:gray;fill:none"/><path d="M119 456 122 459 122 465 121 469 118 472 121 470 122 465 122 458 " style="stroke:gray;fill:none"/><path d="M99 451 99 457 " style="stroke:gray;fill:none"/><path d="M118 451 " style="stroke:gray;fill:none"/><path d="M128 449 " style="stroke:gray;fill:none"/><path d="M126 449 " style="stroke:gray;fill:none"/><path d="M105 449 104 451 " style="stroke:gray;fill:none"/><path d="M135 447 131 449 133 453 132 450 135 447 137 447 " style="stroke:gray;fill:none"/><path d="M129 445 129 447 " style="stroke:gray;fill:none"/><path d="M110 446 " style="stroke:gray;fill:none"/><path d="M105 445 103 446 101 449 102 461 103 464 104 466 110 472 112 473 115 474 122 474 130 465 131 460 131 456 130 454 120 454 118 454 115 453 113 452 107 446 " style="stroke:gray;fill:none"/><path d="M105 445 111 451 115 453 118 454 120 454 128 453 131 456 131 460 130 465 128 469 124 473 122 474 115 474 111 472 104 465 102 461 101 449 " style="stroke:gray;fill:none"/><path d="M100 445 " style="stroke:gray;fill:none"/><path d="M133 443 131 445 131 447 131 445 133 443 137 445 138 443 " style="stroke:gray;fill:none"/><path d="M355 440 " style="stroke:gray;fill:none"/><path d="M123 439 123 442 120 446 123 443 " style="stroke:gray;fill:none"/><path d="M350 438 " style="stroke:gray;fill:none"/><path d="M102 438 102 441 " style="stroke:gray;fill:none"/><path d="M356 436 353 437 354 443 357 442 " style="stroke:gray;fill:none"/><path d="M354 437 357 438 356 443 353 442 " style="stroke:gray;fill:none"/><path d="M351 436 " style="stroke:gray;fill:none"/><path d="M354 434 " style="stroke:gray;fill:none"/><path d="M114 434 112 435 110 437 110 442 114 446 118 448 124 448 127 445 127 441 126 438 123 435 121 434 " style="stroke:gray;fill:none"/><path d="M114 434 120 434 122 435 126 439 127 441 127 444 123 448 118 448 116 447 110 441 110 438 " style="stroke:gray;fill:none"/><path d="M108 434 " style="stroke:gray;fill:none"/><path d="M105 434 105 438 103 443 105 442 106 437 " style="stroke:gray;fill:none"/><path d="M102 435 " style="stroke:gray;fill:none"/><path d="M112 433 " style="stroke:gray;fill:none"/><path d="M207 431 205 432 203 435 205 432 207 431 211 431 " style="stroke:gray;fill:none"/><path d="M101 431 " style="stroke:gray;fill:none"/><path d="M205 429 203 430 " style="stroke:gray;fill:none"/><path d="M179 429 176 430 174 432 172 434 170 436 169 439 168 444 168 451 169 453 171 454 169 452 168 450 168 444 169 440 170 437 172 434 174 432 177 430 180 429 186 429 190 430 194 432 197 436 197 434 195 432 191 430 187 429 " style="stroke:gray;fill:none"/><path d="M159 428 " style="stroke:gray;fill:none"/><path d="M153 426 156 429 " style="stroke:gray;fill:none"/><path d="M150 426 " style="stroke:gray;fill:none"/><path d="M148 424 " style="stroke:gray;fill:none"/><path d="M107 409 " style="stroke:gray;fill:none"/><path d="M209 407 " style="stroke:gray;fill:none"/><path d="M114 407 119 407 123 409 126 411 128 413 130 416 131 418 132 421 132 424 131 427 129 430 131 428 132 425 132 420 131 417 130 415 128 413 126 411 124 409 120 407 " style="stroke:gray;fill:none"/><path d="M103 400 104 402 105 404 108 405 106 404 104 402 " style="stroke:gray;fill:none"/><path d="M211 399 " style="stroke:gray;fill:none"/><path d="M219 388 217 389 216 391 216 393 215 396 214 397 213 401 213 404 212 408 210 412 207 411 210 412 210 415 209 419 207 424 204 423 207 424 208 428 211 429 213 427 214 425 215 422 216 417 217 412 218 408 219 403 220 399 221 394 221 390 " style="stroke:gray;fill:none"/><path d="M219 388 221 390 221 393 220 399 219 403 218 408 217 412 216 417 215 422 214 425 210 429 208 428 207 424 208 420 209 416 210 412 211 409 212 405 213 401 214 397 215 394 216 391 " style="stroke:gray;fill:none"/><path d="M279 386 279 390 284 391 284 389 286 388 286 390 286 387 284 387 " style="stroke:gray;fill:none"/><path d="M280 386 283 387 282 390 279 389 " style="stroke:gray;fill:none"/><path d="M220 385 218 386 " style="stroke:gray;fill:none"/><path d="M107 383 106 385 106 388 105 393 104 394 104 397 105 399 108 400 110 397 111 395 112 392 112 385 111 383 " style="stroke:gray;fill:none"/><path d="M108 383 110 383 112 385 112 392 111 395 109 398 107 400 104 397 104 394 105 389 106 385 " style="stroke:gray;fill:none"/><path d="M115 382 " style="stroke:gray;fill:none"/><path d="M223 380 225 384 225 387 225 384 " style="stroke:gray;fill:none"/><path d="M221 379 222 384 222 387 222 384 " style="stroke:gray;fill:none"/><path d="M109 379 107 381 109 379 111 381 " style="stroke:gray;fill:none"/><path d="M188 378 " style="stroke:gray;fill:none"/><path d="M138 377 135 380 133 382 132 384 132 389 133 392 134 394 136 397 141 402 145 405 148 406 150 408 154 410 157 411 160 412 164 413 168 414 182 414 188 413 191 412 194 411 197 410 201 408 203 406 201 407 196 410 193 411 190 412 187 413 182 414 169 414 165 413 161 412 158 411 155 410 151 408 149 406 146 405 142 402 136 396 134 393 133 391 132 388 132 385 133 383 135 380 137 378 140 377 " style="stroke:gray;fill:none"/><path d="M106 378 " style="stroke:gray;fill:none"/><path d="M196 376 " style="stroke:gray;fill:none"/><path d="M109 376 111 376 " style="stroke:gray;fill:none"/><path d="M198 375 " style="stroke:gray;fill:none"/><path d="M118 376 " style="stroke:gray;fill:none"/><path d="M199 373 " style="stroke:gray;fill:none"/><path d="M29 366 27 367 25 369 24 371 25 373 27 375 29 376 31 375 33 373 34 371 33 369 31 367 " style="stroke:gray;fill:none"/><path d="M29 366 34 371 29 376 24 371 " style="stroke:gray;fill:none"/><path d="M118 365 117 367 112 371 110 371 113 371 115 370 117 369 118 367 " style="stroke:gray;fill:none"/><path d="M32 364 35 366 " style="stroke:gray;fill:none"/><path d="M26 364 " style="stroke:gray;fill:none"/><path d="M138 364 " style="stroke:gray;fill:none"/><path d="M28 363 30 363 " style="stroke:gray;fill:none"/><path d="M136 362 136 364 " style="stroke:gray;fill:none"/><path d="M131 362 133 362 " style="stroke:gray;fill:none"/><path d="M126 362 124 365 125 367 128 367 126 367 124 364 " style="stroke:gray;fill:none"/><path d="M188 359 186 361 189 362 " style="stroke:gray;fill:none"/><path d="M188 359 186 361 " style="stroke:gray;fill:none"/><path d="M202 358 " style="stroke:gray;fill:none"/><path d="M189 352 177 353 175 354 173 355 172 357 171 359 171 362 169 365 168 370 158 370 156 371 155 373 156 375 159 377 161 378 165 379 171 380 178 380 183 379 185 378 187 375 185 371 187 370 185 371 186 376 183 379 178 380 171 380 165 379 161 378 158 376 155 373 158 370 169 370 169 365 171 362 171 359 172 357 175 354 177 353 189 352 195 352 199 356 199 361 198 365 197 370 196 372 193 375 191 375 189 374 191 375 194 375 196 373 197 370 198 365 199 361 199 356 195 352 " style="stroke:gray;fill:none"/><path d="M164 352 161 355 149 355 147 356 144 360 141 360 141 358 141 360 142 363 138 367 141 365 143 367 144 370 146 375 147 373 150 375 153 376 151 376 148 373 143 368 141 365 142 362 144 359 146 357 149 355 162 355 164 352 174 352 " style="stroke:gray;fill:none"/><path d="M137 350 139 351 " style="stroke:gray;fill:none"/><path d="M192 350 " style="stroke:gray;fill:none"/><path d="M199 348 197 350 199 348 202 349 203 351 201 354 203 353 203 350 201 348 " style="stroke:gray;fill:none"/><path d="M90 348 " style="stroke:gray;fill:none"/><path d="M150 346 " style="stroke:gray;fill:none"/><path d="M147 346 146 348 145 351 145 353 148 353 150 352 155 347 153 348 148 353 145 352 146 348 " style="stroke:gray;fill:none"/><path d="M108 346 108 348 " style="stroke:gray;fill:none"/><path d="M140 345 143 344 145 346 144 344 " style="stroke:gray;fill:none"/><path d="M138 344 " style="stroke:gray;fill:none"/><path d="M91 344 " style="stroke:gray;fill:none"/><path d="M148 343 " style="stroke:gray;fill:none"/><path d="M111 342 111 350 " style="stroke:gray;fill:none"/><path d="M142 341 " style="stroke:gray;fill:none"/><path d="M92 341 " style="stroke:gray;fill:none"/><path d="M333 340 " style="stroke:gray;fill:none"/><path d="M150 341 152 343 152 339 " style="stroke:gray;fill:none"/><path d="M141 339 " style="stroke:gray;fill:none"/><path d="M139 339 140 341 " style="stroke:gray;fill:none"/><path d="M143 338 " style="stroke:gray;fill:none"/><path d="M110 338 112 338 " style="stroke:gray;fill:none"/><path d="M332 337 330 340 331 342 336 341 336 338 334 337 " style="stroke:gray;fill:none"/><path d="M331 338 335 338 336 340 334 342 332 342 330 340 " style="stroke:gray;fill:none"/><path d="M147 338 148 339 151 337 " style="stroke:gray;fill:none"/><path d="M182 336 182 338 " style="stroke:gray;fill:none"/><path d="M169 336 169 338 " style="stroke:gray;fill:none"/><path d="M143 336 148 336 " style="stroke:gray;fill:none"/><path d="M110 336 112 336 " style="stroke:gray;fill:none"/><path d="M189 336 " style="stroke:gray;fill:none"/><path d="M203 333 " style="stroke:gray;fill:none"/><path d="M201 333 " style="stroke:gray;fill:none"/><path d="M199 334 " style="stroke:gray;fill:none"/><path d="M106 334 " style="stroke:gray;fill:none"/><path d="M205 332 " style="stroke:gray;fill:none"/><path d="M146 332 144 334 149 334 155 335 151 335 " style="stroke:gray;fill:none"/><path d="M208 331 " style="stroke:gray;fill:none"/><path d="M140 333 140 337 141 335 141 333 143 331 " style="stroke:gray;fill:none"/><path d="M140 330 " style="stroke:gray;fill:none"/><path d="M104 330 100 334 97 338 97 340 93 347 92 351 92 358 93 361 94 364 100 370 104 372 108 373 117 373 119 372 122 369 122 366 121 364 118 363 111 356 110 353 105 348 105 346 107 344 108 342 108 331 106 330 " style="stroke:gray;fill:none"/><path d="M106 330 108 332 108 341 105 346 105 348 106 350 111 355 111 357 117 363 119 363 122 366 122 368 117 373 108 373 104 372 101 370 94 363 93 361 92 358 92 351 93 347 95 343 97 341 97 339 100 335 " style="stroke:gray;fill:none"/><path d="M240 328 237 329 234 330 226 334 223 336 219 339 209 349 209 351 220 339 224 336 227 334 235 330 238 329 241 328 247 328 250 331 248 328 " style="stroke:gray;fill:none"/><path d="M213 328 " style="stroke:gray;fill:none"/><path d="M127 326 122 327 118 328 115 331 114 333 114 349 115 352 116 354 119 357 123 359 126 360 131 360 135 359 138 357 141 354 142 351 143 349 141 347 137 347 135 345 135 342 136 338 137 337 137 329 135 327 132 326 " style="stroke:gray;fill:none"/><path d="M127 326 132 326 134 327 137 330 137 337 136 341 135 342 135 345 136 347 141 347 143 350 141 353 136 358 134 359 131 360 126 360 123 359 120 357 116 353 114 349 114 333 119 328 122 327 " style="stroke:gray;fill:none"/><path d="M138 325 " style="stroke:gray;fill:none"/><path d="M109 323 " style="stroke:gray;fill:none"/><path d="M253 323 " style="stroke:gray;fill:none"/><path d="M248 320 " style="stroke:gray;fill:none"/><path d="M142 320 " style="stroke:gray;fill:none"/><path d="M118 319 117 321 114 324 111 325 107 325 104 328 108 325 112 324 114 324 116 323 118 319 119 322 121 323 123 323 125 324 123 323 121 323 119 321 " style="stroke:gray;fill:none"/><path d="M226 318 " style="stroke:gray;fill:none"/><path d="M245 317 247 318 245 319 " style="stroke:gray;fill:none"/><path d="M227 316 " style="stroke:gray;fill:none"/><path d="M202 316 " style="stroke:gray;fill:none"/><path d="M200 316 197 322 193 325 190 327 184 330 182 330 179 332 177 332 179 332 182 331 185 330 191 327 194 325 198 322 202 318 " style="stroke:gray;fill:none"/><path d="M130 318 132 316 " style="stroke:gray;fill:none"/><path d="M234 315 232 316 223 325 219 328 216 330 206 335 203 336 199 337 195 338 190 339 184 340 162 339 156 339 154 340 154 343 156 345 158 346 163 347 183 348 183 351 183 349 185 347 194 346 203 346 206 349 206 354 205 358 204 359 204 365 203 371 202 374 200 377 196 381 194 382 191 383 188 384 185 385 165 385 161 384 157 383 154 382 144 377 137 369 135 367 131 367 127 372 125 374 119 379 117 382 117 397 115 400 113 402 109 411 107 413 106 416 105 420 104 423 104 429 105 431 107 432 109 431 111 429 113 428 121 428 123 429 127 432 131 436 133 440 138 439 142 434 145 430 145 428 145 425 144 422 147 420 149 421 151 421 156 424 158 424 161 424 162 428 159 431 157 435 157 449 156 455 155 459 154 462 153 465 152 468 151 470 149 472 149 474 147 477 147 479 147 482 147 484 148 486 150 489 152 491 156 493 162 493 165 492 171 489 175 486 178 483 178 480 177 478 174 475 169 471 167 468 167 466 167 463 167 461 172 456 175 454 184 454 186 456 188 457 191 457 193 456 195 454 196 451 196 449 197 446 198 445 199 441 200 437 200 432 201 425 203 420 206 421 203 420 203 417 204 413 205 410 207 409 206 406 208 402 208 398 209 394 210 390 211 386 213 383 219 377 233 364 239 357 241 354 244 350 247 343 249 341 250 339 250 337 252 335 253 331 253 328 251 324 249 324 245 322 242 319 238 316 236 315 " style="stroke:gray;fill:none"/><path d="M234 315 236 315 239 318 243 321 250 324 252 326 253 328 253 331 252 334 247 344 245 346 244 349 241 353 239 356 233 363 218 377 213 382 211 386 210 390 209 394 208 398 208 402 207 405 206 406 205 410 204 413 203 417 202 421 201 425 201 431 200 437 199 441 198 445 197 448 196 451 195 453 191 457 188 457 186 455 184 454 175 454 173 455 170 457 168 459 167 461 167 463 167 466 167 468 168 470 170 472 172 474 178 480 178 482 174 486 170 489 167 490 165 492 162 493 156 493 154 492 149 487 147 484 147 482 147 479 147 477 152 468 153 465 154 462 155 459 156 455 157 449 157 435 158 433 162 429 161 424 156 424 151 421 149 421 147 420 144 420 144 422 145 425 145 429 142 433 139 437 136 440 134 440 132 438 130 435 130 434 128 432 124 429 121 428 112 428 109 430 107 432 104 429 104 423 105 420 106 416 108 412 110 410 111 408 111 406 112 404 114 402 116 399 117 397 117 383 118 381 125 374 127 372 132 367 134 367 137 370 142 376 145 378 149 380 151 380 154 382 157 383 161 384 165 385 185 385 188 384 192 383 195 382 197 381 200 378 202 374 203 371 204 365 204 359 205 355 206 354 206 349 205 347 194 346 185 347 182 347 163 347 158 346 154 341 156 339 162 339 184 340 190 339 195 338 199 337 203 336 206 335 218 329 221 327 225 324 " style="stroke:gray;fill:none"/><path d="M179 316 " style="stroke:gray;fill:none"/><path d="M124 315 " style="stroke:gray;fill:none"/><path d="M117 315 113 319 111 322 115 317 117 315 121 316 " style="stroke:gray;fill:none"/><path d="M275 314 274 316 " style="stroke:gray;fill:none"/><path d="M186 315 " style="stroke:gray;fill:none"/><path d="M143 314 147 316 " style="stroke:gray;fill:none"/><path d="M137 312 137 314 " style="stroke:gray;fill:none"/><path d="M134 311 " style="stroke:gray;fill:none"/><path d="M123 311 126 312 128 314 126 316 125 319 122 318 124 317 122 318 126 318 128 320 131 321 130 323 128 324 130 322 131 320 127 319 126 317 128 315 127 312 125 312 " style="stroke:gray;fill:none"/><path d="M207 309 " style="stroke:gray;fill:none"/><path d="M403 308 403 312 404 314 406 315 409 315 406 315 403 312 " style="stroke:gray;fill:none"/><path d="M406 308 407 312 411 312 411 307 " style="stroke:gray;fill:none"/><path d="M408 307 411 308 410 312 408 312 406 309 " style="stroke:gray;fill:none"/><path d="M261 306 264 310 271 310 265 310 " style="stroke:gray;fill:none"/><path d="M218 304 " style="stroke:gray;fill:none"/><path d="M245 303 240 304 238 306 239 310 238 313 239 310 238 306 240 304 245 303 247 304 " style="stroke:gray;fill:none"/><path d="M242 301 239 302 " style="stroke:gray;fill:none"/><path d="M231 300 229 301 226 302 224 303 222 305 219 307 215 309 212 310 209 311 206 312 203 313 201 313 198 315 194 316 190 317 183 318 175 319 152 319 143 318 142 317 133 318 133 320 135 321 137 321 144 328 147 330 150 331 153 332 157 333 161 334 177 335 176 338 176 336 178 334 185 334 191 333 195 332 198 331 201 330 204 329 216 323 220 320 229 311 232 307 233 304 233 302 " style="stroke:gray;fill:none"/><path d="M231 300 233 302 233 304 232 306 229 310 219 320 215 323 212 325 204 329 201 330 198 331 195 332 191 333 185 334 177 335 161 334 157 333 153 332 150 331 148 330 145 328 139 322 137 321 135 321 134 317 142 317 151 318 152 319 175 319 183 318 190 317 194 316 198 315 201 313 203 313 206 312 209 311 212 310 215 309 223 305 225 303 229 301 " style="stroke:gray;fill:none"/><path d="M112 300 " style="stroke:gray;fill:none"/><path d="M240 298 " style="stroke:gray;fill:none"/><path d="M110 298 104 300 106 301 109 300 " style="stroke:gray;fill:none"/><path d="M242 297 " style="stroke:gray;fill:none"/><path d="M112 297 " style="stroke:gray;fill:none"/><path d="M118 295 118 297 120 297 120 295 " style="stroke:gray;fill:none"/><path d="M119 297 " style="stroke:gray;fill:none"/><path d="M111 295 " style="stroke:gray;fill:none"/><path d="M240 294 " style="stroke:gray;fill:none"/><path d="M231 294 231 296 229 298 231 297 " style="stroke:gray;fill:none"/><path d="M183 296 186 294 " style="stroke:gray;fill:none"/><path d="M127 295 " style="stroke:gray;fill:none"/><path d="M255 293 " style="stroke:gray;fill:none"/><path d="M228 294 230 292 " style="stroke:gray;fill:none"/><path d="M247 291 245 292 244 294 244 296 245 298 247 300 251 300 252 300 253 296 251 292 " style="stroke:gray;fill:none"/><path d="M247 291 249 291 251 293 253 296 253 298 249 301 244 296 244 294 " style="stroke:gray;fill:none"/><path d="M241 291 " style="stroke:gray;fill:none"/><path d="M236 290 235 292 234 297 237 300 237 302 236 304 236 307 236 311 234 311 233 313 236 313 236 311 235 306 236 303 238 298 238 293 239 291 238 293 237 299 234 296 234 293 " style="stroke:gray;fill:none"/><path d="M231 290 " style="stroke:gray;fill:none"/><path d="M248 288 246 289 248 288 250 289 " style="stroke:gray;fill:none"/><path d="M252 288 " style="stroke:gray;fill:none"/><path d="M109 286 " style="stroke:gray;fill:none"/><path d="M103 286 100 287 " style="stroke:gray;fill:none"/><path d="M197 285 194 288 " style="stroke:gray;fill:none"/><path d="M242 284 241 286 " style="stroke:gray;fill:none"/><path d="M122 284 " style="stroke:gray;fill:none"/><path d="M275 283 " style="stroke:gray;fill:none"/><path d="M93 283 " style="stroke:gray;fill:none"/><path d="M111 282 " style="stroke:gray;fill:none"/><path d="M259 281 255 285 255 288 256 290 258 292 260 295 261 297 261 301 260 303 256 307 247 307 245 306 243 307 243 312 246 315 252 318 255 319 261 319 265 318 267 317 270 315 276 309 277 307 278 304 279 301 279 294 278 290 277 288 273 284 269 282 266 281 " style="stroke:gray;fill:none"/><path d="M259 281 266 281 269 282 272 284 278 290 279 294 279 301 278 304 276 308 268 316 264 318 261 319 255 319 252 318 248 316 242 309 247 307 256 307 258 306 260 304 261 301 261 297 260 294 257 291 255 287 255 285 " style="stroke:gray;fill:none"/><path d="M249 281 247 283 247 286 247 283 249 281 249 285 " style="stroke:gray;fill:none"/><path d="M119 281 " style="stroke:gray;fill:none"/><path d="M108 281 110 284 108 283 " style="stroke:gray;fill:none"/><path d="M98 280 102 281 " style="stroke:gray;fill:none"/><path d="M255 279 " style="stroke:gray;fill:none"/><path d="M257 278 " style="stroke:gray;fill:none"/><path d="M253 277 253 280 " style="stroke:gray;fill:none"/><path d="M110 276 110 279 " style="stroke:gray;fill:none"/><path d="M120 275 120 277 121 281 121 277 " style="stroke:gray;fill:none"/><path d="M118 275 118 279 " style="stroke:gray;fill:none"/><path d="M246 273 244 275 " style="stroke:gray;fill:none"/><path d="M110 274 " style="stroke:gray;fill:none"/><path d="M138 272 136 274 137 281 144 280 145 278 145 275 142 272 " style="stroke:gray;fill:none"/><path d="M139 272 141 272 145 276 145 278 142 281 138 281 136 279 136 275 " style="stroke:gray;fill:none"/><path d="M231 270 " style="stroke:gray;fill:none"/><path d="M119 270 119 273 " style="stroke:gray;fill:none"/><path d="M117 270 " style="stroke:gray;fill:none"/><path d="M266 271 267 269 " style="stroke:gray;fill:none"/><path d="M92 269 92 275 " style="stroke:gray;fill:none"/><path d="M238 267 236 268 234 270 233 272 232 282 232 285 233 287 235 288 237 288 239 286 239 284 241 281 242 274 242 272 240 268 " style="stroke:gray;fill:none"/><path d="M238 267 241 270 242 272 242 274 241 281 239 285 235 288 232 285 232 282 233 272 " style="stroke:gray;fill:none"/><path d="M120 266 " style="stroke:gray;fill:none"/><path d="M245 265 245 267 244 269 " style="stroke:gray;fill:none"/><path d="M240 264 240 266 " style="stroke:gray;fill:none"/><path d="M234 264 234 267 " style="stroke:gray;fill:none"/><path d="M232 264 232 267 " style="stroke:gray;fill:none"/><path d="M120 264 " style="stroke:gray;fill:none"/><path d="M282 263 " style="stroke:gray;fill:none"/><path d="M97 262 96 264 95 267 95 281 96 285 97 289 98 291 100 293 100 295 103 298 105 298 107 297 107 293 107 291 106 287 105 286 104 281 103 277 103 265 102 262 100 261 " style="stroke:gray;fill:none"/><path d="M100 261 102 263 103 265 103 277 104 281 105 286 106 290 107 291 107 293 108 295 104 298 100 294 97 288 96 285 95 281 95 267 96 264 " style="stroke:gray;fill:none"/><path d="M209 260 208 262 208 265 207 268 206 269 206 271 205 273 206 271 206 269 207 266 208 265 208 262 " style="stroke:gray;fill:none"/><path d="M111 260 114 261 114 259 " style="stroke:gray;fill:none"/><path d="M111 260 114 260 " style="stroke:gray;fill:none"/><path d="M102 259 " style="stroke:gray;fill:none"/><path d="M258 258 258 265 " style="stroke:gray;fill:none"/><path d="M105 259 " style="stroke:gray;fill:none"/><path d="M244 257 243 260 242 258 242 267 245 261 " style="stroke:gray;fill:none"/><path d="M233 256 " style="stroke:gray;fill:none"/><path d="M231 255 230 257 " style="stroke:gray;fill:none"/><path d="M268 254 269 256 269 259 " style="stroke:gray;fill:none"/><path d="M252 254 250 257 252 257 " style="stroke:gray;fill:none"/><path d="M241 254 243 255 " style="stroke:gray;fill:none"/><path d="M243 253 " style="stroke:gray;fill:none"/><path d="M243 251 " style="stroke:gray;fill:none"/><path d="M241 252 " style="stroke:gray;fill:none"/><path d="M229 251 " style="stroke:gray;fill:none"/><path d="M251 250 249 251 " style="stroke:gray;fill:none"/><path d="M111 251 109 255 108 258 108 265 109 268 112 271 112 278 113 281 114 282 114 285 112 288 112 290 113 293 114 296 117 301 117 303 122 308 124 309 126 309 128 308 129 304 127 300 125 298 125 296 123 293 123 291 121 287 117 283 115 279 115 277 116 274 115 269 117 266 117 254 114 251 " style="stroke:gray;fill:none"/><path d="M113 250 117 254 117 266 115 268 116 274 116 276 115 279 117 282 117 284 122 289 122 291 124 294 124 296 125 299 127 301 128 304 129 306 126 309 124 309 117 302 114 296 113 293 112 290 112 288 114 285 114 282 113 279 112 278 112 271 111 269 109 267 108 265 108 258 109 255 111 252 " style="stroke:gray;fill:none"/><path d="M241 248 243 249 " style="stroke:gray;fill:none"/><path d="M242 246 " style="stroke:gray;fill:none"/><path d="M124 244 123 246 122 270 124 272 121 272 124 275 124 280 125 285 127 288 125 291 127 290 128 292 131 298 133 300 135 304 136 306 134 303 132 298 130 296 127 290 126 287 125 284 124 279 123 274 124 272 122 269 122 247 " style="stroke:gray;fill:none"/><path d="M116 245 " style="stroke:gray;fill:none"/><path d="M393 244 " style="stroke:gray;fill:none"/><path d="M26 243 26 248 30 247 30 243 " style="stroke:gray;fill:none"/><path d="M27 243 30 244 30 246 26 247 " style="stroke:gray;fill:none"/><path d="M264 242 263 244 263 248 263 244 " style="stroke:gray;fill:none"/><path d="M120 241 " style="stroke:gray;fill:none"/><path d="M113 240 113 242 115 242 117 241 115 242 " style="stroke:gray;fill:none"/><path d="M389 239 388 241 " style="stroke:gray;fill:none"/><path d="M130 238 " style="stroke:gray;fill:none"/><path d="M256 237 254 239 256 237 258 237 " style="stroke:gray;fill:none"/><path d="M132 237 " style="stroke:gray;fill:none"/><path d="M386 238 387 244 390 244 392 242 392 239 391 237 389 236 " style="stroke:gray;fill:none"/><path d="M387 237 389 236 392 239 392 241 390 243 387 244 386 239 " style="stroke:gray;fill:none"/><path d="M240 236 238 237 " style="stroke:gray;fill:none"/><path d="M134 236 " style="stroke:gray;fill:none"/><path d="M392 235 394 236 394 239 " style="stroke:gray;fill:none"/><path d="M295 235 " style="stroke:gray;fill:none"/><path d="M246 235 243 236 242 239 244 243 244 245 245 248 246 249 247 252 247 263 248 273 251 274 253 273 254 271 255 268 255 253 254 249 253 245 250 239 " style="stroke:gray;fill:none"/><path d="M243 237 246 236 250 240 251 243 253 245 254 249 255 253 255 268 254 271 250 274 248 272 247 263 247 252 246 249 245 246 244 245 243 242 242 239 " style="stroke:gray;fill:none"/><path d="M231 235 229 236 228 238 228 240 229 244 230 248 231 250 235 254 235 261 236 265 238 265 239 261 239 258 238 255 238 252 239 250 239 247 238 244 235 238 233 236 " style="stroke:gray;fill:none"/><path d="M237 262 237 265 " style="stroke:gray;fill:none"/><path d="M231 235 236 240 238 244 239 247 239 250 237 252 237 254 238 257 239 258 238 262 235 261 235 253 230 248 229 244 228 240 228 238 " style="stroke:gray;fill:none"/><path d="M152 234 149 235 147 236 143 240 142 242 141 245 141 253 142 256 143 258 148 263 150 264 162 264 166 262 170 258 171 255 172 252 172 246 171 243 169 239 167 237 164 235 161 234 " style="stroke:gray;fill:none"/><path d="M152 234 161 234 163 235 166 237 169 240 171 243 172 246 172 252 171 255 170 257 164 263 162 264 150 264 142 256 141 253 141 245 142 242 149 235 " style="stroke:gray;fill:none"/><path d="M119 234 " style="stroke:gray;fill:none"/><path d="M295 233 " style="stroke:gray;fill:none"/><path d="M250 233 " style="stroke:gray;fill:none"/><path d="M237 234 240 233 " style="stroke:gray;fill:none"/><path d="M229 231 227 232 224 234 226 234 229 231 231 233 " style="stroke:gray;fill:none"/><path d="M346 229 " style="stroke:gray;fill:none"/><path d="M305 229 " style="stroke:gray;fill:none"/><path d="M302 229 " style="stroke:gray;fill:none"/><path d="M227 229 " style="stroke:gray;fill:none"/><path d="M224 229 225 231 223 231 " style="stroke:gray;fill:none"/><path d="M244 228 244 230 " style="stroke:gray;fill:none"/><path d="M242 228 242 231 " style="stroke:gray;fill:none"/><path d="M348 228 " style="stroke:gray;fill:none"/><path d="M251 227 " style="stroke:gray;fill:none"/><path d="M217 225 " style="stroke:gray;fill:none"/><path d="M168 225 163 227 157 227 153 228 150 229 147 230 144 231 138 234 136 235 138 234 144 231 147 230 150 229 153 228 157 227 163 227 168 225 173 226 188 225 192 226 194 227 197 229 205 237 207 240 209 244 210 248 210 255 211 261 213 264 211 265 210 267 210 270 209 273 207 276 205 275 202 278 201 280 200 282 201 280 203 277 207 276 206 278 205 280 203 283 200 284 195 291 192 293 191 293 189 294 188 298 185 298 179 301 176 304 168 308 165 309 162 310 158 311 148 312 143 312 140 311 138 309 135 308 133 306 132 303 130 300 129 298 130 300 131 303 133 305 134 307 131 308 130 310 131 313 134 314 132 313 130 310 132 308 135 308 137 309 139 311 142 312 148 312 158 311 162 310 165 309 168 308 178 303 181 300 185 298 195 298 199 297 205 294 211 288 213 285 214 283 215 280 216 276 216 267 215 265 212 263 211 261 210 255 210 248 209 244 206 238 204 235 199 230 196 228 192 226 188 225 173 226 " style="stroke:gray;fill:none"/><path d="M213 264 216 267 216 276 215 280 214 283 211 287 204 294 201 296 199 297 195 298 189 297 189 295 191 293 196 291 203 284 205 281 209 273 209 271 210 267 " style="stroke:gray;fill:none"/><path d="M212 224 " style="stroke:gray;fill:none"/><path d="M210 223 " style="stroke:gray;fill:none"/><path d="M268 222 267 232 " style="stroke:gray;fill:none"/><path d="M227 222 228 225 226 227 222 227 220 226 222 227 220 228 222 227 227 227 228 225 229 227 230 229 235 233 229 227 228 225 " style="stroke:gray;fill:none"/><path d="M201 221 " style="stroke:gray;fill:none"/><path d="M198 221 " style="stroke:gray;fill:none"/><path d="M186 218 186 220 184 222 176 222 170 219 169 222 166 223 161 224 158 223 157 221 157 224 155 224 153 222 153 225 151 226 149 226 144 229 142 229 139 230 137 232 130 235 127 237 125 239 123 241 121 243 119 246 119 247 117 249 115 247 113 246 113 244 113 246 112 248 115 248 118 250 119 248 121 245 121 244 125 241 129 236 134 234 136 232 142 229 144 229 149 226 152 225 155 224 161 224 166 223 169 222 170 221 175 221 184 222 187 222 196 222 200 223 204 224 209 225 212 226 216 228 221 233 222 235 222 237 224 240 225 244 226 248 227 251 228 257 229 262 229 270 228 282 227 290 224 296 219 301 207 307 204 307 201 309 197 310 193 311 188 312 182 313 175 314 151 314 149 314 151 314 175 314 181 314 183 312 189 311 194 310 195 313 196 310 198 309 201 309 204 307 207 307 219 301 222 299 225 300 222 299 223 297 226 294 227 291 228 282 228 271 229 264 231 262 233 260 231 261 230 263 228 261 228 257 227 251 226 248 225 244 224 240 222 237 222 234 221 232 217 228 215 227 213 227 210 225 205 225 201 224 196 222 196 220 195 222 186 221 " style="stroke:gray;fill:none"/><path d="M290 217 295 222 296 224 295 228 292 232 290 237 288 240 286 243 284 244 283 246 282 248 282 250 280 252 280 254 278 257 274 262 270 266 269 264 267 262 265 259 263 261 263 263 261 266 260 270 261 273 260 275 259 277 260 275 263 273 265 275 261 278 263 277 265 277 268 279 266 277 264 276 267 275 270 276 274 274 274 277 275 281 274 278 274 274 276 271 280 262 283 259 283 257 284 255 288 251 288 249 290 246 292 244 293 241 297 237 298 232 298 230 296 229 296 224 295 222 " style="stroke:gray;fill:none"/><path d="M294 230 298 231 299 234 293 240 293 242 290 245 290 247 288 248 288 250 286 253 284 254 283 256 282 260 280 263 278 265 275 272 272 275 270 276 268 276 265 275 262 273 260 271 261 267 262 264 263 261 267 260 267 262 268 264 269 266 271 266 274 263 275 260 278 258 278 256 280 255 281 252 283 248 283 246 287 241 290 238 290 236 292 232 " style="stroke:gray;fill:none"/><path d="M274 209 274 212 277 213 272 213 272 215 271 217 270 220 270 233 268 234 267 236 266 239 266 247 265 253 263 257 261 260 263 257 265 255 266 251 269 252 270 249 269 246 272 243 270 243 271 240 273 240 274 236 272 240 271 236 272 232 274 232 275 229 274 226 276 224 276 217 277 212 277 209 " style="stroke:gray;fill:none"/><path d="M274 214 276 217 276 223 274 226 275 229 272 231 272 235 270 241 271 244 269 246 269 248 269 252 265 250 265 248 266 239 268 235 270 233 270 220 271 217 " style="stroke:gray;fill:none"/><path d="M276 209 278 211 274 211 " style="stroke:gray;fill:none"/><path d="M219 209 " style="stroke:gray;fill:none"/><path d="M272 208 274 207 " style="stroke:gray;fill:none"/><path d="M242 207 243 209 " style="stroke:gray;fill:none"/><path d="M220 207 " style="stroke:gray;fill:none"/><path d="M215 208 217 207 " style="stroke:gray;fill:none"/><path d="M285 206 " style="stroke:gray;fill:none"/><path d="M281 206 " style="stroke:gray;fill:none"/><path d="M223 206 " style="stroke:gray;fill:none"/><path d="M225 205 " style="stroke:gray;fill:none"/><path d="M288 205 " style="stroke:gray;fill:none"/><path d="M254 204 253 206 253 231 251 236 252 232 253 206 255 204 258 205 259 209 258 232 255 233 254 236 259 233 259 235 259 209 258 204 " style="stroke:gray;fill:none"/><path d="M271 204 " style="stroke:gray;fill:none"/><path d="M264 203 266 203 " style="stroke:gray;fill:none"/><path d="M228 203 " style="stroke:gray;fill:none"/><path d="M208 203 " style="stroke:gray;fill:none"/><path d="M262 203 " style="stroke:gray;fill:none"/><path d="M256 202 259 202 " style="stroke:gray;fill:none"/><path d="M165 202 168 202 172 203 176 204 188 210 190 212 190 214 191 212 189 210 179 205 176 204 173 203 169 202 " style="stroke:gray;fill:none"/><path d="M231 201 " style="stroke:gray;fill:none"/><path d="M236 200 " style="stroke:gray;fill:none"/><path d="M323 199 320 201 319 203 320 205 322 208 326 212 330 211 330 203 326 199 " style="stroke:gray;fill:none"/><path d="M323 199 326 199 330 203 329 212 327 212 321 206 319 203 " style="stroke:gray;fill:none"/><path d="M285 199 289 199 " style="stroke:gray;fill:none"/><path d="M258 199 " style="stroke:gray;fill:none"/><path d="M255 199 " style="stroke:gray;fill:none"/><path d="M295 198 " style="stroke:gray;fill:none"/><path d="M235 198 " style="stroke:gray;fill:none"/><path d="M297 197 300 196 " style="stroke:gray;fill:none"/><path d="M249 196 250 199 252 200 252 202 252 200 250 198 " style="stroke:gray;fill:none"/><path d="M166 196 " style="stroke:gray;fill:none"/><path d="M177 196 " style="stroke:gray;fill:none"/><path d="M243 194 241 197 239 196 241 197 239 198 239 201 240 209 243 212 245 212 247 214 248 218 247 222 243 222 241 220 241 214 241 220 242 226 245 225 248 225 248 232 248 218 247 214 246 213 246 194 " style="stroke:gray;fill:none"/><path d="M244 221 246 221 248 223 245 225 242 223 " style="stroke:gray;fill:none"/><path d="M242 195 246 195 245 212 243 212 240 209 239 201 240 198 244 196 " style="stroke:gray;fill:none"/><path d="M333 192 332 194 333 192 334 194 " style="stroke:gray;fill:none"/><path d="M242 192 " style="stroke:gray;fill:none"/><path d="M168 191 169 193 170 196 170 193 " style="stroke:gray;fill:none"/><path d="M164 190 165 192 " style="stroke:gray;fill:none"/><path d="M361 189 358 190 356 192 357 195 359 199 360 201 365 201 366 199 366 194 365 191 363 189 " style="stroke:gray;fill:none"/><path d="M361 189 363 189 365 191 366 194 366 199 364 201 361 201 359 199 359 197 357 195 356 192 358 190 " style="stroke:gray;fill:none"/><path d="M240 192 238 194 240 192 241 189 " style="stroke:gray;fill:none"/><path d="M164 188 " style="stroke:gray;fill:none"/><path d="M322 186 320 188 " style="stroke:gray;fill:none"/><path d="M245 185 " style="stroke:gray;fill:none"/><path d="M368 183 368 185 367 190 368 185 " style="stroke:gray;fill:none"/><path d="M338 183 " style="stroke:gray;fill:none"/><path d="M326 183 324 185 " style="stroke:gray;fill:none"/><path d="M192 181 " style="stroke:gray;fill:none"/><path d="M163 181 " style="stroke:gray;fill:none"/><path d="M319 179 321 179 " style="stroke:gray;fill:none"/><path d="M190 179 " style="stroke:gray;fill:none"/><path d="M70 179 " style="stroke:gray;fill:none"/><path d="M341 176 338 179 336 183 331 188 326 192 323 194 318 195 318 198 315 200 309 203 306 204 302 205 297 205 294 206 292 208 294 206 297 205 302 205 306 204 309 203 316 199 319 198 321 195 323 194 326 192 327 192 332 188 336 184 336 182 338 181 340 179 " style="stroke:gray;fill:none"/><path d="M325 175 325 178 321 183 325 179 327 177 328 175 326 177 " style="stroke:gray;fill:none"/><path d="M325 178 " style="stroke:gray;fill:none"/><path d="M293 174 294 177 " style="stroke:gray;fill:none"/><path d="M283 174 284 177 286 177 290 178 293 180 295 179 303 180 295 179 293 180 290 178 287 178 284 176 " style="stroke:gray;fill:none"/><path d="M194 174 190 176 188 182 194 183 197 182 200 180 201 178 200 176 198 175 196 174 " style="stroke:gray;fill:none"/><path d="M194 174 196 174 198 175 201 178 197 182 194 183 190 183 187 179 189 177 192 175 " style="stroke:gray;fill:none"/><path d="M76 171 78 173 76 174 78 176 78 179 76 181 73 180 74 174 73 177 74 181 76 181 78 180 79 176 77 174 " style="stroke:gray;fill:none"/><path d="M347 170 " style="stroke:gray;fill:none"/><path d="M216 170 " style="stroke:gray;fill:none"/><path d="M331 170 328 172 324 172 322 171 319 171 322 171 324 173 326 173 329 172 331 170 333 169 " style="stroke:gray;fill:none"/><path d="M290 169 " style="stroke:gray;fill:none"/><path d="M263 169 278 169 " style="stroke:gray;fill:none"/><path d="M252 169 256 169 " style="stroke:gray;fill:none"/><path d="M228 169 " style="stroke:gray;fill:none"/><path d="M226 169 " style="stroke:gray;fill:none"/><path d="M292 168 " style="stroke:gray;fill:none"/><path d="M280 169 283 169 " style="stroke:gray;fill:none"/><path d="M247 168 250 168 " style="stroke:gray;fill:none"/><path d="M238 168 241 168 " style="stroke:gray;fill:none"/><path d="M211 169 " style="stroke:gray;fill:none"/><path d="M228 167 " style="stroke:gray;fill:none"/><path d="M226 167 " style="stroke:gray;fill:none"/><path d="M333 166 327 167 321 168 320 169 313 170 303 171 285 172 283 172 248 171 235 169 232 170 231 172 231 175 233 178 243 188 245 190 247 190 249 192 252 193 254 195 256 195 258 197 261 197 264 199 267 200 271 201 275 202 285 201 287 201 289 202 290 206 288 208 288 211 293 217 299 223 300 226 305 226 308 227 311 228 312 229 315 230 327 230 330 230 335 230 341 229 343 227 350 224 352 222 356 219 359 216 361 213 363 210 364 208 365 205 365 203 364 205 364 208 363 210 361 211 359 214 356 218 356 219 354 221 351 222 349 224 346 225 342 227 341 229 335 229 330 230 327 230 316 230 312 229 309 227 307 227 305 226 301 222 302 224 304 225 301 226 299 224 299 222 293 216 288 209 290 207 289 202 296 201 300 200 303 198 305 198 309 197 316 193 318 193 322 190 326 187 336 177 339 173 340 171 339 166 " style="stroke:gray;fill:none"/><path d="M334 166 338 166 340 168 340 170 339 172 336 176 324 188 320 191 317 193 313 195 311 195 309 197 304 198 302 196 304 194 307 193 309 191 311 190 314 188 316 190 316 187 318 185 317 181 315 180 309 180 306 178 303 178 300 177 298 176 296 173 297 176 300 177 302 177 306 178 308 180 315 180 318 184 316 187 313 188 310 191 307 192 304 194 302 196 302 199 300 200 296 201 290 201 287 201 285 201 276 202 271 201 267 200 264 199 261 197 259 197 257 196 254 195 253 193 251 192 248 190 246 190 245 188 233 177 231 174 231 172 233 170 235 169 248 171 283 172 285 172 303 171 313 170 320 169 326 168 327 167 " style="stroke:gray;fill:none"/><path d="M319 166 " style="stroke:gray;fill:none"/><path d="M321 165 325 165 " style="stroke:gray;fill:none"/><path d="M200 165 199 167 201 169 204 170 207 171 210 172 214 171 213 169 212 172 210 172 207 171 204 170 202 169 " style="stroke:gray;fill:none"/><path d="M345 164 " style="stroke:gray;fill:none"/><path d="M327 164 329 164 " style="stroke:gray;fill:none"/><path d="M361 163 363 166 363 168 363 165 " style="stroke:gray;fill:none"/><path d="M355 163 353 164 351 165 350 167 350 169 351 171 357 177 360 181 360 182 362 184 365 184 366 182 366 177 365 174 362 170 360 167 357 164 " style="stroke:gray;fill:none"/><path d="M355 163 357 164 359 166 361 169 363 172 365 175 366 177 366 182 364 184 361 183 359 180 356 176 356 175 350 169 350 167 353 164 " style="stroke:gray;fill:none"/><path d="M349 163 348 165 345 168 345 171 342 174 343 177 344 175 343 173 345 172 345 169 348 166 " style="stroke:gray;fill:none"/><path d="M342 162 342 164 " style="stroke:gray;fill:none"/><path d="M348 161 " style="stroke:gray;fill:none"/><path d="M355 158 354 161 351 159 351 162 353 161 357 161 359 162 " style="stroke:gray;fill:none"/><path d="M264 152 " style="stroke:gray;fill:none"/><path d="M281 151 " style="stroke:gray;fill:none"/><path d="M272 151 " style="stroke:gray;fill:none"/><path d="M260 151 258 152 " style="stroke:gray;fill:none"/><path d="M245 151 248 151 " style="stroke:gray;fill:none"/><path d="M233 151 " style="stroke:gray;fill:none"/><path d="M160 151 160 154 " style="stroke:gray;fill:none"/><path d="M301 150 " style="stroke:gray;fill:none"/><path d="M293 150 " style="stroke:gray;fill:none"/><path d="M289 150 " style="stroke:gray;fill:none"/><path d="M226 150 " style="stroke:gray;fill:none"/><path d="M308 149 " style="stroke:gray;fill:none"/><path d="M317 149 " style="stroke:gray;fill:none"/><path d="M313 149 " style="stroke:gray;fill:none"/><path d="M334 146 " style="stroke:gray;fill:none"/><path d="M218 146 216 149 218 148 " style="stroke:gray;fill:none"/><path d="M3 146 " style="stroke:gray;fill:none"/><path d="M338 145 340 145 " style="stroke:gray;fill:none"/><path d="M216 145 " style="stroke:gray;fill:none"/><path d="M10 145 9 149 " style="stroke:gray;fill:none"/><path d="M350 142 353 143 " style="stroke:gray;fill:none"/><path d="M330 141 " style="stroke:gray;fill:none"/><path d="M165 141 163 143 160 145 158 145 156 143 158 145 161 145 " style="stroke:gray;fill:none"/><path d="M2 141 4 142 0 145 0 147 2 149 7 148 7 144 4 141 " style="stroke:gray;fill:none"/><path d="M2 144 7 145 7 147 5 149 1 148 " style="stroke:gray;fill:none"/><path d="M4 144 " style="stroke:gray;fill:none"/><path d="M354 140 356 140 " style="stroke:gray;fill:none"/><path d="M221 140 " style="stroke:gray;fill:none"/><path d="M214 140 216 141 " style="stroke:gray;fill:none"/><path d="M360 139 " style="stroke:gray;fill:none"/><path d="M208 139 " style="stroke:gray;fill:none"/><path d="M186 139 " style="stroke:gray;fill:none"/><path d="M358 138 " style="stroke:gray;fill:none"/><path d="M354 138 356 138 " style="stroke:gray;fill:none"/><path d="M181 135 " style="stroke:gray;fill:none"/><path d="M216 134 216 137 " style="stroke:gray;fill:none"/><path d="M354 132 " style="stroke:gray;fill:none"/><path d="M147 130 147 132 148 136 150 138 151 141 153 144 154 146 157 148 161 148 163 146 165 147 163 146 160 148 157 148 154 145 153 142 151 140 149 137 148 135 148 132 " style="stroke:gray;fill:none"/><path d="M354 129 " style="stroke:gray;fill:none"/><path d="M207 129 204 130 201 131 193 135 191 137 189 139 186 142 185 144 184 147 185 150 187 154 191 158 194 160 196 160 198 161 200 163 204 165 208 166 212 166 216 167 219 168 223 172 224 175 227 179 232 184 236 189 236 192 235 194 232 197 228 200 225 202 222 204 220 204 217 204 215 204 213 203 211 201 207 199 205 199 202 197 199 196 196 195 193 194 187 194 184 193 181 193 177 193 173 191 168 186 165 180 164 177 164 175 162 173 162 159 164 156 164 152 166 150 168 151 170 153 173 151 174 149 174 144 171 144 169 145 167 147 167 149 165 151 163 149 165 151 164 154 163 158 162 159 162 173 164 176 164 178 165 181 168 187 172 191 174 192 177 193 181 194 180 198 172 198 165 199 161 200 156 201 153 202 150 203 147 204 135 210 132 212 128 215 122 221 119 225 117 228 117 230 115 234 114 236 115 238 119 238 122 236 125 233 128 231 131 229 143 223 145 223 148 221 151 220 154 219 158 218 163 217 171 216 191 216 194 218 201 218 206 219 210 220 213 221 214 222 217 223 220 224 223 224 225 222 224 219 218 213 214 210 210 207 208 207 201 203 198 202 195 201 192 200 187 199 180 198 184 193 187 194 192 194 196 195 199 196 202 197 210 201 212 203 214 204 217 204 220 204 222 204 226 202 229 200 233 197 235 195 236 193 236 189 235 187 232 183 227 178 224 174 223 171 220 168 217 167 213 167 209 166 205 165 195 160 192 158 187 153 186 150 184 147 185 144 188 140 192 136 195 134 201 131 204 131 207 129 210 129 " style="stroke:gray;fill:none"/><path d="M172 198 180 198 187 199 192 200 195 201 198 202 201 203 209 207 213 210 217 213 224 220 225 222 223 224 220 224 217 223 214 222 211 221 210 220 206 219 201 218 194 218 191 216 171 216 163 217 158 218 154 219 151 220 148 221 145 223 143 223 132 229 130 229 127 231 124 233 121 236 118 238 116 238 115 234 117 229 119 226 122 222 129 215 133 212 136 210 139 208 141 208 143 207 145 205 147 204 150 203 153 202 156 201 161 200 165 199 " style="stroke:gray;fill:none"/><path d="M174 145 174 149 171 152 169 152 166 150 167 148 170 145 " style="stroke:gray;fill:none"/><path d="M358 129 357 131 357 133 361 136 363 138 364 140 361 143 358 144 355 145 351 146 347 147 343 148 336 149 330 150 322 151 314 152 303 153 289 154 285 153 270 155 248 155 231 154 222 153 216 152 211 151 208 150 206 148 207 143 211 141 211 138 210 141 206 143 205 145 205 147 206 149 211 151 216 152 222 153 231 154 248 155 270 155 285 153 289 154 303 153 314 152 322 151 330 150 336 149 343 148 347 147 351 146 355 145 358 144 363 142 364 140 364 138 363 136 359 133 357 132 358 130 360 128 363 128 366 129 369 130 371 131 377 136 378 141 371 148 361 153 358 154 356 154 353 156 349 157 346 158 341 159 337 160 332 161 326 162 320 163 313 164 303 165 293 166 291 166 288 166 255 166 239 165 229 164 223 163 217 162 213 161 209 160 206 159 203 158 199 156 196 154 192 150 191 148 191 146 192 144 195 141 198 139 206 135 210 136 212 136 210 135 206 135 203 136 197 139 194 141 192 143 191 145 191 149 192 151 195 154 198 156 200 157 203 158 206 159 209 160 213 161 217 162 223 163 229 164 239 165 255 166 288 166 291 166 293 166 303 165 313 164 320 163 326 162 332 161 337 160 342 159 346 158 349 157 353 156 356 155 359 154 362 153 372 148 378 142 378 136 373 132 369 130 366 129 363 128 " style="stroke:gray;fill:none"/><path d="M213 128 213 132 215 132 215 129 214 132 " style="stroke:gray;fill:none"/><path d="M195 128 191 129 186 130 182 131 179 133 174 137 171 141 176 136 178 138 182 137 185 136 187 135 189 133 192 132 195 131 197 130 194 129 197 128 " style="stroke:gray;fill:none"/><path d="M192 129 195 130 193 131 190 132 188 134 185 136 182 137 178 138 177 136 181 132 183 131 186 130 " style="stroke:gray;fill:none"/><path d="M168 128 168 130 170 128 " style="stroke:gray;fill:none"/><path d="M215 126 " style="stroke:gray;fill:none"/><path d="M347 124 " style="stroke:gray;fill:none"/><path d="M421 123 418 127 419 129 421 129 424 131 420 132 417 130 419 131 423 132 426 130 422 129 423 126 422 129 420 129 418 127 420 124 423 123 426 126 427 128 426 126 425 124 " style="stroke:gray;fill:none"/><path d="M197 122 200 122 " style="stroke:gray;fill:none"/><path d="M192 122 190 124 192 124 194 123 " style="stroke:gray;fill:none"/><path d="M166 122 166 124 168 124 168 122 " style="stroke:gray;fill:none"/><path d="M167 124 " style="stroke:gray;fill:none"/><path d="M197 119 " style="stroke:gray;fill:none"/><path d="M345 119 " style="stroke:gray;fill:none"/><path d="M218 118 " style="stroke:gray;fill:none"/><path d="M215 118 216 120 216 123 " style="stroke:gray;fill:none"/><path d="M160 117 160 119 162 119 162 117 " style="stroke:gray;fill:none"/><path d="M161 119 " style="stroke:gray;fill:none"/><path d="M342 115 342 118 " style="stroke:gray;fill:none"/><path d="M340 116 " style="stroke:gray;fill:none"/><path d="M166 116 172 115 " style="stroke:gray;fill:none"/><path d="M199 114 199 118 " style="stroke:gray;fill:none"/><path d="M155 114 " style="stroke:gray;fill:none"/><path d="M341 113 " style="stroke:gray;fill:none"/><path d="M242 113 242 126 243 130 244 134 245 137 246 140 248 144 251 146 247 142 246 140 245 137 244 134 243 130 242 126 " style="stroke:gray;fill:none"/><path d="M153 113 152 115 153 120 155 117 153 119 " style="stroke:gray;fill:none"/><path d="M211 113 " style="stroke:gray;fill:none"/><path d="M155 112 " style="stroke:gray;fill:none"/><path d="M343 111 " style="stroke:gray;fill:none"/><path d="M220 111 218 112 " style="stroke:gray;fill:none"/><path d="M166 112 168 113 166 112 168 111 " style="stroke:gray;fill:none"/><path d="M152 111 " style="stroke:gray;fill:none"/><path d="M198 110 203 116 201 118 201 120 203 122 206 122 212 124 209 127 208 125 203 124 199 124 195 125 191 126 190 127 187 128 190 127 194 126 198 125 199 124 203 124 207 125 209 127 211 126 212 124 213 126 212 123 208 122 206 119 205 117 206 120 207 123 203 122 201 119 204 115 201 113 200 111 " style="stroke:gray;fill:none"/><path d="M341 109 341 111 " style="stroke:gray;fill:none"/><path d="M196 108 " style="stroke:gray;fill:none"/><path d="M337 107 339 110 340 107 " style="stroke:gray;fill:none"/><path d="M218 106 220 107 218 108 221 106 " style="stroke:gray;fill:none"/><path d="M183 106 186 107 " style="stroke:gray;fill:none"/><path d="M181 103 " style="stroke:gray;fill:none"/><path d="M246 102 " style="stroke:gray;fill:none"/><path d="M210 101 " style="stroke:gray;fill:none"/><path d="M337 101 " style="stroke:gray;fill:none"/><path d="M187 101 190 104 193 105 191 104 188 102 " style="stroke:gray;fill:none"/><path d="M188 102 " style="stroke:gray;fill:none"/><path d="M178 100 " style="stroke:gray;fill:none"/><path d="M174 100 " style="stroke:gray;fill:none"/><path d="M207 99 " style="stroke:gray;fill:none"/><path d="M334 96 " style="stroke:gray;fill:none"/><path d="M181 96 183 97 " style="stroke:gray;fill:none"/><path d="M171 95 " style="stroke:gray;fill:none"/><path d="M177 93 " style="stroke:gray;fill:none"/><path d="M150 93 148 97 " style="stroke:gray;fill:none"/><path d="M199 90 201 94 " style="stroke:gray;fill:none"/><path d="M152 91 " style="stroke:gray;fill:none"/><path d="M369 88 " style="stroke:gray;fill:none"/><path d="M199 87 195 89 195 91 197 88 199 88 202 88 " style="stroke:gray;fill:none"/><path d="M190 86 191 88 " style="stroke:gray;fill:none"/><path d="M161 86 158 87 156 89 153 93 153 95 152 97 150 99 149 102 148 105 147 109 148 111 146 114 146 117 147 124 149 126 149 129 150 131 152 133 152 136 156 140 162 140 166 137 173 129 179 124 185 121 188 120 190 120 192 119 194 117 196 117 196 113 195 111 191 107 189 107 188 105 181 99 177 96 174 95 170 92 165 87 163 86 " style="stroke:gray;fill:none"/><path d="M148 111 150 115 150 120 148 122 146 117 146 114 " style="stroke:gray;fill:none"/><path d="M161 86 163 86 168 91 171 93 172 93 174 96 177 97 174 98 177 97 179 98 186 105 189 107 190 107 195 112 196 114 195 117 193 117 190 120 187 121 185 121 183 122 180 118 176 116 174 116 176 116 180 118 181 121 183 122 180 124 178 124 176 122 172 121 173 119 171 117 169 117 171 117 173 119 172 122 176 122 178 124 171 130 167 135 165 137 161 140 156 140 154 138 152 135 152 133 149 128 149 126 148 122 150 115 149 111 147 109 148 105 149 102 153 94 156 90 159 87 " style="stroke:gray;fill:none"/><path d="M153 86 " style="stroke:gray;fill:none"/><path d="M367 85 367 88 367 91 371 90 371 85 " style="stroke:gray;fill:none"/><path d="M368 85 371 86 370 91 367 88 " style="stroke:gray;fill:none"/><path d="M167 85 171 89 173 90 171 89 " style="stroke:gray;fill:none"/><path d="M163 84 " style="stroke:gray;fill:none"/><path d="M160 84 " style="stroke:gray;fill:none"/><path d="M174 83 " style="stroke:gray;fill:none"/><path d="M148 83 150 85 153 83 150 85 " style="stroke:gray;fill:none"/><path d="M370 82 " style="stroke:gray;fill:none"/><path d="M156 82 159 82 " style="stroke:gray;fill:none"/><path d="M184 81 186 82 188 84 188 86 188 84 186 82 " style="stroke:gray;fill:none"/><path d="M144 81 " style="stroke:gray;fill:none"/><path d="M195 80 195 85 " style="stroke:gray;fill:none"/><path d="M257 79 259 80 262 81 265 83 267 83 270 84 273 85 276 87 279 88 282 89 285 90 288 91 291 92 294 93 297 94 300 95 303 96 306 97 309 98 312 99 315 100 318 100 321 101 324 102 327 104 331 105 336 105 338 103 335 105 331 105 327 104 324 102 321 101 318 100 315 100 312 99 309 98 306 97 303 96 300 95 297 94 294 93 291 92 288 91 285 90 282 89 279 88 276 87 273 85 270 84 267 83 265 83 262 81 259 80 " style="stroke:gray;fill:none"/><path d="M255 79 251 83 249 86 247 90 247 93 245 96 244 99 243 103 243 106 243 110 243 111 245 113 245 116 248 116 276 130 279 131 281 131 284 133 286 133 289 135 292 136 294 136 299 139 302 140 304 140 309 143 311 144 309 143 304 140 302 140 299 139 294 136 292 136 289 135 286 133 284 133 281 131 279 131 276 130 248 116 244 112 242 108 246 104 248 104 262 111 264 113 270 116 272 116 279 120 281 120 284 122 286 122 289 124 291 124 294 126 296 126 299 128 301 128 304 130 306 130 311 133 313 133 316 135 318 135 326 139 327 142 327 139 324 138 318 135 316 135 313 133 311 133 306 130 304 130 301 128 299 128 296 126 294 126 291 124 289 124 286 122 284 122 281 120 279 120 272 116 270 116 266 114 264 112 251 106 249 104 245 105 243 103 244 99 245 96 247 93 247 90 249 87 250 85 251 89 253 89 255 90 257 90 260 92 262 92 265 93 268 95 271 96 274 97 277 98 280 99 283 100 286 101 289 102 292 103 295 104 298 105 301 106 303 106 306 107 310 108 313 109 316 111 319 112 322 113 325 113 328 115 331 115 334 116 337 117 340 119 342 121 344 124 345 139 344 137 344 123 339 118 337 117 334 116 331 115 328 115 325 113 322 113 319 112 316 111 313 109 310 108 306 107 303 106 301 106 298 105 295 104 292 103 289 102 286 101 283 100 280 99 277 98 274 97 271 96 268 95 265 93 263 93 260 92 257 90 255 90 250 85 " style="stroke:gray;fill:none"/><path d="M182 78 181 80 " style="stroke:gray;fill:none"/><path d="M321 76 " style="stroke:gray;fill:none"/><path d="M188 77 " style="stroke:gray;fill:none"/><path d="M319 75 " style="stroke:gray;fill:none"/><path d="M174 75 176 75 " style="stroke:gray;fill:none"/><path d="M317 74 " style="stroke:gray;fill:none"/><path d="M186 73 184 74 186 79 190 81 192 81 193 79 193 77 192 75 190 74 188 73 " style="stroke:gray;fill:none"/><path d="M186 73 188 73 190 74 193 77 193 79 191 81 188 80 186 79 " style="stroke:gray;fill:none"/><path d="M182 73 179 76 178 79 179 77 " style="stroke:gray;fill:none"/><path d="M151 74 152 76 151 74 153 74 " style="stroke:gray;fill:none"/><path d="M197 71 193 72 191 72 193 72 " style="stroke:gray;fill:none"/><path d="M188 71 " style="stroke:gray;fill:none"/><path d="M277 70 271 71 267 72 264 73 260 74 255 77 253 77 251 78 249 80 246 81 244 83 242 85 230 97 228 100 226 104 226 106 222 113 222 115 220 118 219 123 218 131 218 142 219 144 222 147 227 148 259 149 261 149 287 148 300 147 302 145 303 147 313 145 315 145 318 145 325 145 333 144 338 143 343 142 346 141 348 140 350 138 351 134 350 125 349 121 348 117 347 114 346 110 344 106 342 104 340 99 338 96 335 92 329 86 325 83 321 80 318 79 315 76 317 79 320 80 324 83 328 86 335 93 338 97 340 100 342 105 344 107 346 111 347 114 348 117 349 121 350 125 351 134 350 137 346 141 342 142 338 143 333 144 325 145 318 145 316 146 313 145 302 145 300 147 286 148 261 149 259 149 227 148 223 147 218 142 218 131 219 123 220 119 221 116 222 113 228 101 230 98 242 85 244 83 247 81 250 80 252 78 256 76 258 76 261 74 264 74 267 72 272 71 277 70 292 70 297 71 301 72 305 73 308 74 311 76 313 76 311 75 309 74 306 74 303 73 302 72 298 71 293 70 " style="stroke:gray;fill:none"/><path d="M150 70 147 73 146 75 147 79 150 79 153 79 155 77 158 77 160 77 162 78 164 80 167 81 171 84 174 86 178 89 182 92 187 96 192 100 198 105 205 111 208 115 215 115 215 113 210 106 207 103 200 97 197 95 193 92 190 90 186 87 183 85 180 83 177 82 175 80 172 78 162 73 160 73 157 71 154 70 " style="stroke:gray;fill:none"/><path d="M151 70 153 70 156 71 159 73 161 73 166 76 168 76 171 78 173 80 178 82 181 84 184 86 188 89 192 92 196 95 199 97 206 103 210 108 213 110 214 112 215 114 213 116 210 116 208 114 206 111 199 105 193 100 188 96 183 92 179 89 175 86 172 84 168 81 165 80 163 78 161 77 158 76 155 76 153 79 151 80 147 78 146 75 " style="stroke:gray;fill:none"/><path d="M275 68 " style="stroke:gray;fill:none"/><path d="M272 69 " style="stroke:gray;fill:none"/><path d="M270 69 " style="stroke:gray;fill:none"/><path d="M299 67 " style="stroke:gray;fill:none"/><path d="M144 67 144 69 146 67 " style="stroke:gray;fill:none"/><path d="M292 67 " style="stroke:gray;fill:none"/><path d="M282 67 " style="stroke:gray;fill:none"/><path d="M284 65 " style="stroke:gray;fill:none"/><path d="M65 62 63 63 " style="stroke:gray;fill:none"/><path d="M63 61 " style="stroke:gray;fill:none"/><path d="M278 60 " style="stroke:gray;fill:none"/><path d="M63 58 61 59 60 64 62 66 67 65 68 62 67 60 65 59 " style="stroke:gray;fill:none"/><path d="M63 58 65 59 68 62 66 66 63 66 60 63 60 61 " style="stroke:gray;fill:none"/><path d="M273 35 276 37 276 39 276 36 " style="stroke:gray;fill:none"/><path d="M242 28 249 29 252 29 249 29 " style="stroke:gray;fill:none"/><path d="M262 27 " style="stroke:gray;fill:none"/><path d="M234 25 230 26 227 27 224 28 220 30 217 32 214 34 208 40 206 43 204 46 202 50 201 53 200 56 199 60 199 74 200 77 201 80 202 83 204 86 204 88 206 91 208 94 214 100 216 101 219 102 223 100 225 97 228 93 228 92 237 83 242 79 245 77 248 75 252 72 258 69 261 68 264 67 268 67 271 66 272 65 277 65 280 64 282 62 282 59 281 55 280 52 278 49 278 47 277 45 275 42 266 33 263 31 261 30 259 30 257 28 255 27 252 26 248 25 " style="stroke:gray;fill:none"/><path d="M234 25 248 25 252 26 255 27 257 28 259 30 261 30 265 33 275 43 277 46 280 52 281 55 279 58 276 55 276 53 274 51 271 44 265 38 260 34 259 34 256 30 256 32 258 34 262 37 263 37 271 45 273 48 277 57 282 59 282 61 279 64 277 65 272 65 268 66 264 67 261 68 258 69 250 73 247 75 244 77 241 79 236 83 228 91 225 95 223 98 223 99 221 101 217 101 215 100 208 93 206 90 204 87 202 83 201 80 200 77 199 74 199 60 200 56 201 53 204 47 206 44 208 41 215 34 218 32 221 30 227 27 230 26 " style="stroke:gray;fill:none"/><path d="M338 23 339 29 343 29 346 28 345 23 343 27 343 24 " style="stroke:gray;fill:none"/><path d="M339 24 343 25 342 29 340 29 338 27 " style="stroke:gray;fill:none"/><path d="M339 21 341 21 " style="stroke:gray;fill:none"/></svg>