<svg width="429px" height="547px" xmlns="http://www.w3.org/2000/svg"><path d="M159 524 161 524 " style="stroke:gray;fill:none"/><path d="M92 513 92 511 " style="stroke:gray;fill:none"/><path d="M97 509 94 510 96 510 99 509 " style="stroke:gray;fill:none"/><path d="M102 508 " style="stroke:gray;fill:none"/><path d="M85 504 86 508 89 510 86 508 " style="stroke:gray;fill:none"/><path d="M141 492 140 494 140 496 144 504 146 506 148 508 149 511 157 519 161 522 165 524 171 524 175 520 176 517 177 514 177 504 176 501 174 497 171 496 169 496 166 498 162 499 155 499 152 498 146 492 " style="stroke:gray;fill:none"/><path d="M174 501 177 504 177 514 176 517 175 519 170 524 166 524 162 522 158 519 149 510 149 507 153 503 157 505 166 505 170 503 " style="stroke:gray;fill:none"/><path d="M144 491 150 497 152 498 155 499 162 499 166 498 169 496 171 496 173 497 174 501 172 500 168 504 166 505 157 505 153 503 151 504 149 506 148 508 145 505 143 502 140 496 140 494 " style="stroke:gray;fill:none"/><path d="M175 490 175 492 178 495 179 499 180 506 180 514 179 517 177 520 177 523 173 527 167 526 173 527 175 526 177 524 177 520 179 518 180 514 180 506 179 499 178 495 175 492 " style="stroke:gray;fill:none"/><path d="M131 490 121 500 115 503 113 503 111 504 109 506 107 507 104 507 107 507 111 505 113 503 116 503 118 501 124 497 130 492 " style="stroke:gray;fill:none"/><path d="M178 487 178 490 179 487 180 489 " style="stroke:gray;fill:none"/><path d="M137 487 " style="stroke:gray;fill:none"/><path d="M136 483 137 481 141 481 143 483 138 484 140 485 142 485 142 481 " style="stroke:gray;fill:none"/><path d="M133 481 133 491 136 492 137 494 137 496 141 504 144 507 144 509 149 516 152 518 155 521 155 524 157 524 157 522 151 517 146 513 146 511 144 509 144 507 141 504 137 496 137 494 135 491 135 485 134 483 " style="stroke:gray;fill:none"/><path d="M156 524 " style="stroke:gray;fill:none"/><path d="M134 488 134 491 " style="stroke:gray;fill:none"/><path d="M134 485 134 488 " style="stroke:gray;fill:none"/><path d="M282 478 285 478 " style="stroke:gray;fill:none"/><path d="M282 478 285 478 " style="stroke:gray;fill:none"/><path d="M280 474 278 475 277 477 278 479 279 481 281 483 289 483 289 476 287 474 " style="stroke:gray;fill:none"/><path d="M280 474 286 474 288 475 288 483 280 482 278 479 277 477 " style="stroke:gray;fill:none"/><path d="M130 474 133 479 142 479 141 477 136 477 133 474 " style="stroke:gray;fill:none"/><path d="M130 475 133 474 135 477 141 478 134 479 " style="stroke:gray;fill:none"/><path d="M190 473 189 475 185 476 183 477 181 479 180 484 181 479 183 477 185 476 189 475 " style="stroke:gray;fill:none"/><path d="M100 473 98 474 92 480 92 482 90 485 89 488 88 491 88 502 89 504 92 507 97 507 101 506 104 505 120 497 124 494 127 491 127 489 129 486 129 483 128 481 124 479 115 480 115 478 111 479 109 478 105 474 102 473 " style="stroke:gray;fill:none"/><path d="M94 482 98 487 101 489 104 490 114 490 117 489 121 487 123 486 127 490 123 494 119 497 103 505 100 506 97 507 93 507 89 503 88 501 88 491 89 488 90 485 " style="stroke:gray;fill:none"/><path d="M100 473 102 473 104 474 107 477 111 479 115 480 124 479 126 480 129 483 129 486 127 489 121 487 117 489 114 490 104 490 100 488 97 485 94 482 92 481 " style="stroke:gray;fill:none"/><path d="M29 473 27 476 29 477 31 475 " style="stroke:gray;fill:none"/><path d="M29 473 31 475 29 477 27 475 " style="stroke:gray;fill:none"/><path d="M191 471 " style="stroke:gray;fill:none"/><path d="M26 467 24 469 24 475 25 477 26 479 29 480 31 480 33 479 35 478 35 471 33 468 " style="stroke:gray;fill:none"/><path d="M26 467 33 468 35 471 35 477 33 479 31 480 29 480 27 479 25 477 24 475 24 469 " style="stroke:gray;fill:none"/><path d="M150 465 147 468 144 474 144 476 144 474 147 468 " style="stroke:gray;fill:none"/><path d="M151 463 " style="stroke:gray;fill:none"/><path d="M176 460 173 463 173 467 176 470 178 472 181 473 186 473 189 470 189 466 188 464 184 460 " style="stroke:gray;fill:none"/><path d="M177 460 183 460 189 466 189 469 185 473 181 473 179 472 176 470 174 468 173 466 173 464 " style="stroke:gray;fill:none"/><path d="M133 458 133 463 132 469 130 472 131 470 132 464 133 463 " style="stroke:gray;fill:none"/><path d="M121 457 122 459 122 468 121 470 118 472 121 471 122 469 " style="stroke:gray;fill:none"/><path d="M153 456 " style="stroke:gray;fill:none"/><path d="M197 455 196 463 193 466 192 469 193 466 196 463 " style="stroke:gray;fill:none"/><path d="M102 447 102 460 103 464 104 466 111 473 115 474 120 475 123 474 125 473 128 470 129 468 130 464 131 459 131 455 130 453 127 452 124 454 118 454 112 451 109 449 107 446 " style="stroke:gray;fill:none"/><path d="M104 446 107 447 109 449 111 451 115 453 118 454 125 453 130 454 131 456 131 459 130 464 129 467 128 469 124 473 122 474 120 475 115 474 112 473 104 465 103 463 102 460 102 448 " style="stroke:gray;fill:none"/><path d="M353 439 355 441 356 437 " style="stroke:gray;fill:none"/><path d="M355 437 357 439 355 441 353 439 " style="stroke:gray;fill:none"/><path d="M351 434 348 435 348 442 350 444 353 446 358 446 359 444 359 436 357 434 " style="stroke:gray;fill:none"/><path d="M351 434 357 434 359 436 359 444 357 446 353 446 349 443 349 435 " style="stroke:gray;fill:none"/><path d="M144 434 144 436 141 439 139 443 139 447 137 451 135 454 134 456 136 453 137 450 139 448 139 443 140 441 143 438 " style="stroke:gray;fill:none"/><path d="M113 434 110 437 110 442 113 445 115 447 119 448 123 448 127 444 127 441 126 439 122 435 120 434 " style="stroke:gray;fill:none"/><path d="M114 434 120 434 127 441 127 443 126 445 124 447 122 448 118 447 120 446 122 445 124 443 124 441 120 446 118 447 116 447 113 445 111 443 110 441 110 438 " style="stroke:gray;fill:none"/><path d="M147 431 " style="stroke:gray;fill:none"/><path d="M177 429 175 430 172 432 170 435 169 438 168 442 168 452 169 454 171 454 168 451 168 442 169 439 170 436 172 434 174 432 176 430 178 429 188 429 191 430 193 431 197 435 194 431 192 430 189 429 " style="stroke:gray;fill:none"/><path d="M150 429 153 429 153 435 154 441 155 442 155 445 154 451 153 452 153 454 153 452 154 446 155 445 155 442 154 436 152 428 " style="stroke:gray;fill:none"/><path d="M100 429 100 431 101 435 100 442 99 449 98 450 98 453 99 460 100 461 100 464 99 469 93 475 91 477 89 479 88 482 86 484 84 488 83 491 83 493 84 500 83 502 84 500 85 502 84 500 83 493 83 491 84 488 85 486 87 484 88 481 90 478 94 474 99 470 100 464 100 461 99 454 98 453 98 450 99 443 100 436 101 435 100 431 100 429 102 427 " style="stroke:gray;fill:none"/><path d="M219 411 219 420 218 423 215 429 213 431 212 434 204 435 202 438 204 435 212 434 214 431 215 428 217 426 218 423 219 420 " style="stroke:gray;fill:none"/><path d="M220 406 220 409 " style="stroke:gray;fill:none"/><path d="M98 401 100 402 101 404 105 406 105 412 104 405 100 402 100 400 " style="stroke:gray;fill:none"/><path d="M99 402 " style="stroke:gray;fill:none"/><path d="M220 386 218 387 216 390 215 394 214 398 213 401 212 405 211 409 210 413 209 417 208 420 207 424 208 429 212 429 213 427 213 425 214 422 215 421 216 416 216 412 217 408 218 407 219 403 220 398 220 394 221 391 222 390 222 388 " style="stroke:gray;fill:none"/><path d="M218 393 220 395 220 398 219 403 218 407 217 411 216 412 216 416 215 421 214 424 212 428 209 429 207 427 207 424 208 420 209 417 210 413 211 409 212 405 213 401 214 398 215 395 " style="stroke:gray;fill:none"/><path d="M220 386 222 388 222 390 218 393 217 393 216 390 " style="stroke:gray;fill:none"/><path d="M283 385 286 385 288 387 288 390 285 393 281 393 277 387 277 390 280 393 287 392 290 389 288 388 290 387 287 385 " style="stroke:gray;fill:none"/><path d="M281 385 279 386 279 388 281 390 283 388 " style="stroke:gray;fill:none"/><path d="M281 386 283 388 281 390 279 388 " style="stroke:gray;fill:none"/><path d="M107 383 106 385 105 390 105 397 108 399 104 399 108 400 110 398 111 396 112 393 112 386 111 384 " style="stroke:gray;fill:none"/><path d="M108 383 111 384 112 386 112 392 111 395 110 397 108 399 105 396 105 390 106 385 " style="stroke:gray;fill:none"/><path d="M225 377 226 387 225 391 224 392 224 397 222 400 222 402 221 404 222 402 222 400 224 397 224 392 225 388 228 386 228 384 226 382 228 379 227 381 225 377 227 376 " style="stroke:gray;fill:none"/><path d="M227 386 " style="stroke:gray;fill:none"/><path d="M187 377 189 376 " style="stroke:gray;fill:none"/><path d="M138 376 136 378 134 380 132 382 132 391 134 395 137 399 140 402 143 404 146 406 151 408 153 410 155 411 158 412 162 413 166 414 185 414 189 413 193 412 196 410 199 410 201 409 203 406 200 409 198 410 195 410 192 412 188 413 184 414 167 414 163 413 159 412 156 411 154 410 152 408 147 406 144 404 141 402 137 398 134 394 132 390 132 383 134 380 137 378 " style="stroke:gray;fill:none"/><path d="M228 373 " style="stroke:gray;fill:none"/><path d="M97 371 99 373 102 380 102 383 103 387 102 391 100 394 100 398 100 394 102 391 103 387 103 383 103 380 102 376 99 374 " style="stroke:gray;fill:none"/><path d="M118 367 115 370 112 371 110 371 113 371 116 370 118 369 " style="stroke:gray;fill:none"/><path d="M27 367 25 369 25 373 27 375 31 375 33 373 33 370 30 367 " style="stroke:gray;fill:none"/><path d="M29 367 33 372 30 375 28 375 25 372 25 370 " style="stroke:gray;fill:none"/><path d="M237 363 235 365 " style="stroke:gray;fill:none"/><path d="M26 362 24 363 22 365 21 367 20 370 20 372 24 376 21 373 21 369 21 367 22 365 24 363 26 362 28 362 33 363 35 365 36 367 36 373 35 375 33 377 30 378 27 378 29 379 32 378 36 374 36 367 35 364 33 363 28 362 " style="stroke:gray;fill:none"/><path d="M169 359 168 361 163 362 163 365 166 366 166 369 164 365 164 361 169 361 " style="stroke:gray;fill:none"/><path d="M188 358 186 359 185 361 186 365 185 361 188 358 190 360 190 362 188 365 190 363 190 359 " style="stroke:gray;fill:none"/><path d="M192 352 189 353 188 354 182 353 178 353 175 354 171 358 171 365 169 371 165 371 159 370 156 368 152 368 150 366 150 364 153 362 155 364 157 365 161 364 160 360 155 360 153 359 148 357 145 358 144 361 143 363 143 366 144 369 147 372 153 375 155 376 153 375 149 373 143 367 143 363 144 360 147 357 150 356 154 360 161 361 160 365 157 365 155 363 152 362 150 364 150 366 152 368 156 368 159 370 157 372 157 375 159 377 161 378 165 379 170 380 183 379 185 377 185 373 184 371 187 368 188 372 191 375 193 375 195 374 197 370 198 366 199 360 199 355 198 353 196 352 " style="stroke:gray;fill:none"/><path d="M192 352 194 352 198 354 199 356 199 360 198 366 197 370 196 372 194 374 192 375 190 374 188 372 185 369 185 373 184 378 182 379 170 380 165 379 162 378 160 377 157 374 157 372 159 370 164 370 170 371 170 366 172 357 174 355 178 353 182 353 189 354 " style="stroke:gray;fill:none"/><path d="M187 352 " style="stroke:gray;fill:none"/><path d="M247 348 247 350 245 354 241 358 245 354 246 352 247 350 249 351 247 350 249 349 " style="stroke:gray;fill:none"/><path d="M252 339 251 341 250 344 251 341 " style="stroke:gray;fill:none"/><path d="M332 338 330 340 332 342 334 340 " style="stroke:gray;fill:none"/><path d="M332 338 334 340 332 342 330 340 " style="stroke:gray;fill:none"/><path d="M332 335 330 336 328 339 328 341 329 343 334 344 336 343 338 341 337 337 335 336 " style="stroke:gray;fill:none"/><path d="M332 335 335 336 338 340 334 344 331 344 328 341 328 339 " style="stroke:gray;fill:none"/><path d="M104 330 102 332 98 337 96 340 94 344 93 348 92 351 92 357 93 361 95 365 101 371 104 372 108 373 112 373 115 373 117 373 121 371 122 366 118 362 111 356 110 353 105 348 105 346 107 344 108 342 107 330 " style="stroke:gray;fill:none"/><path d="M106 330 108 332 108 342 106 344 105 346 105 348 106 350 110 354 111 357 116 362 122 367 122 369 120 371 117 373 115 373 112 373 108 373 104 372 102 371 94 363 93 361 92 357 92 351 93 348 94 345 96 341 98 338 102 333 " style="stroke:gray;fill:none"/><path d="M242 327 239 328 236 329 233 330 227 333 225 335 222 336 216 341 208 349 217 341 223 336 226 335 228 333 234 330 237 329 240 328 243 327 247 327 250 330 250 328 248 327 " style="stroke:gray;fill:none"/><path d="M126 326 121 327 118 328 114 332 114 349 115 352 116 354 120 358 122 359 126 360 132 360 135 359 138 357 141 354 142 352 142 350 140 348 142 346 144 349 142 346 139 348 137 347 135 345 135 343 136 339 137 334 137 331 137 329 135 327 132 326 " style="stroke:gray;fill:none"/><path d="M126 326 132 326 134 327 137 330 137 334 137 338 136 342 135 343 135 345 136 347 138 348 140 348 141 353 137 357 134 359 132 360 126 360 123 359 121 358 115 352 114 349 114 333 119 328 121 327 " style="stroke:gray;fill:none"/><path d="M97 331 95 333 95 336 93 338 90 344 89 347 89 354 90 356 89 354 89 347 90 344 92 340 95 337 95 333 97 331 99 331 102 328 104 326 " style="stroke:gray;fill:none"/><path d="M203 318 200 319 198 321 195 324 191 327 189 327 187 328 184 330 182 331 184 331 186 330 188 328 190 327 192 327 196 324 200 321 201 319 " style="stroke:gray;fill:none"/><path d="M233 315 231 316 224 324 220 327 217 329 214 331 208 334 205 335 202 336 199 337 195 338 190 339 184 340 162 339 154 340 154 343 156 345 158 346 163 347 172 347 175 347 180 347 183 347 194 346 202 346 206 350 206 353 205 358 204 363 203 364 203 370 202 374 200 377 197 380 194 382 191 383 188 384 184 385 165 385 161 384 158 383 155 382 152 381 146 378 143 376 141 374 139 372 136 368 131 367 129 369 126 372 123 376 119 379 117 382 118 391 118 394 117 397 115 400 113 403 111 405 110 407 110 409 108 411 107 414 106 417 105 420 104 424 104 428 105 430 109 431 112 428 116 427 118 427 121 428 125 430 130 435 132 438 132 439 137 440 139 438 141 435 144 431 145 429 146 427 144 423 147 420 149 420 151 422 153 423 156 423 158 424 163 425 160 427 158 432 157 435 157 450 156 455 155 459 154 463 148 474 147 477 147 484 149 488 153 492 156 493 162 493 165 492 171 489 174 487 178 483 178 480 175 477 170 471 168 470 168 468 167 466 167 463 168 460 173 455 175 454 178 454 181 454 184 454 186 456 188 457 192 457 195 454 196 451 197 448 198 445 199 441 199 436 200 432 201 431 201 424 202 420 203 417 204 413 205 412 205 409 206 404 208 401 208 398 209 394 210 391 211 387 212 385 214 382 219 377 233 364 238 358 241 354 243 351 245 348 252 334 253 331 253 327 249 323 247 323 245 322 239 316 237 315 " style="stroke:gray;fill:none"/><path d="M234 315 236 315 238 316 244 322 246 323 248 323 250 324 252 326 253 328 253 331 251 334 251 336 247 344 245 347 243 350 241 353 238 357 233 363 218 377 214 381 212 384 211 387 210 391 209 394 208 398 208 401 206 404 205 409 205 412 204 416 203 417 202 420 201 424 201 431 200 435 199 436 199 441 198 445 197 448 196 451 195 453 191 457 189 457 184 454 181 454 178 454 175 454 171 456 168 459 167 461 167 463 167 466 167 468 168 471 170 473 173 476 178 480 178 482 173 487 169 490 165 492 162 493 156 493 154 492 149 487 147 484 147 478 148 475 153 466 154 463 155 459 156 455 157 450 157 435 158 433 163 429 162 424 160 425 154 423 147 419 143 419 143 421 145 424 146 427 144 429 141 433 141 434 139 437 136 440 134 440 132 438 130 435 127 431 131 429 132 427 132 418 131 416 129 413 125 409 123 408 120 407 117 406 114 407 117 407 120 407 124 409 129 414 131 417 132 419 132 426 131 428 129 430 127 431 125 430 121 428 118 427 116 427 112 428 110 429 107 431 104 428 104 424 105 420 106 417 107 414 108 412 110 410 110 408 111 406 113 404 115 401 117 398 118 394 118 391 117 383 118 381 124 376 126 374 129 370 132 367 134 367 136 369 139 374 142 376 152 381 155 382 158 383 161 384 165 385 184 385 188 384 191 383 194 382 198 380 200 378 202 374 203 370 203 364 204 359 205 358 206 353 206 349 203 346 194 346 183 347 180 347 175 347 172 347 163 347 159 346 157 345 154 341 156 339 162 339 184 340 190 339 195 338 199 337 203 336 206 335 218 329 221 327 225 324 231 318 " style="stroke:gray;fill:none"/><path d="M151 314 149 314 151 314 154 314 158 314 168 313 171 313 175 314 171 313 168 313 158 314 154 314 " style="stroke:gray;fill:none"/><path d="M278 310 277 312 276 314 273 317 265 321 257 321 255 322 257 327 258 330 255 333 254 335 253 337 254 335 255 333 258 331 257 327 255 323 257 321 265 321 268 320 270 318 272 317 275 316 277 313 " style="stroke:gray;fill:none"/><path d="M138 313 140 313 141 311 139 310 " style="stroke:gray;fill:none"/><path d="M138 310 140 312 137 312 " style="stroke:gray;fill:none"/><path d="M135 310 " style="stroke:gray;fill:none"/><path d="M260 307 261 309 264 310 267 312 268 310 270 311 268 310 265 310 262 309 " style="stroke:gray;fill:none"/><path d="M406 306 400 306 398 308 399 310 404 315 412 315 412 307 410 306 " style="stroke:gray;fill:none"/><path d="M406 306 410 306 412 308 411 315 404 315 401 312 398 308 400 306 " style="stroke:gray;fill:none"/><path d="M229 301 226 302 224 304 210 311 207 312 204 313 201 314 198 315 194 316 189 317 184 318 174 319 152 319 142 318 141 317 138 318 136 316 133 316 131 318 132 320 137 321 142 325 147 330 149 331 152 332 156 333 161 334 186 334 191 333 195 332 198 331 201 330 204 329 207 327 209 327 213 325 216 323 219 321 229 311 231 308 233 304 233 302 231 300 " style="stroke:gray;fill:none"/><path d="M133 316 136 316 138 319 136 321 134 321 131 318 " style="stroke:gray;fill:none"/><path d="M230 300 233 304 231 306 229 309 229 310 218 321 215 323 212 325 204 329 201 330 198 331 195 332 191 333 186 334 161 334 156 333 152 332 149 331 142 325 137 320 138 318 141 317 151 318 152 319 174 319 184 318 189 317 194 316 198 315 201 314 204 313 207 312 210 311 213 310 223 305 226 303 228 301 " style="stroke:gray;fill:none"/><path d="M281 296 282 303 280 306 279 308 280 306 282 304 " style="stroke:gray;fill:none"/><path d="M96 293 97 295 99 300 101 302 104 302 110 301 114 305 115 307 115 316 113 320 110 323 108 323 106 325 108 323 110 323 112 322 114 319 115 316 115 307 114 304 112 302 110 301 104 302 101 302 99 300 97 295 " style="stroke:gray;fill:none"/><path d="M92 292 " style="stroke:gray;fill:none"/><path d="M246 291 244 293 244 297 245 299 247 300 249 301 251 301 253 299 253 295 251 292 " style="stroke:gray;fill:none"/><path d="M247 291 249 291 251 293 253 296 253 298 249 301 247 299 244 296 244 294 " style="stroke:gray;fill:none"/><path d="M94 291 " style="stroke:gray;fill:none"/><path d="M92 290 " style="stroke:gray;fill:none"/><path d="M240 284 " style="stroke:gray;fill:none"/><path d="M200 282 " style="stroke:gray;fill:none"/><path d="M259 281 257 282 255 284 255 288 256 290 258 292 261 298 261 301 260 303 258 305 255 307 246 306 244 307 242 309 242 311 243 313 245 315 249 317 252 318 255 319 261 319 264 318 267 317 269 316 274 311 277 307 278 304 279 300 279 294 278 291 277 288 272 283 270 282 266 281 " style="stroke:gray;fill:none"/><path d="M259 281 266 281 269 282 271 283 277 289 278 291 279 294 279 300 278 304 277 306 274 310 268 316 264 318 261 319 255 319 252 318 246 315 243 312 242 310 246 306 256 307 259 305 261 301 261 298 260 295 258 291 256 289 255 287 255 285 " style="stroke:gray;fill:none"/><path d="M241 282 " style="stroke:gray;fill:none"/><path d="M121 280 123 280 " style="stroke:gray;fill:none"/><path d="M122 278 " style="stroke:gray;fill:none"/><path d="M232 277 232 287 234 289 236 289 239 286 234 289 232 287 " style="stroke:gray;fill:none"/><path d="M203 277 201 280 " style="stroke:gray;fill:none"/><path d="M242 276 " style="stroke:gray;fill:none"/><path d="M139 272 137 273 137 281 144 280 145 278 145 275 142 272 " style="stroke:gray;fill:none"/><path d="M139 272 141 272 144 279 142 281 138 281 136 279 136 275 " style="stroke:gray;fill:none"/><path d="M235 269 235 271 234 281 235 283 238 284 238 282 239 276 241 274 241 271 239 269 " style="stroke:gray;fill:none"/><path d="M235 270 239 269 241 271 241 273 239 276 239 281 238 283 235 283 234 281 234 272 " style="stroke:gray;fill:none"/><path d="M97 262 96 264 95 268 95 279 96 285 97 288 98 291 99 293 101 295 103 297 105 298 107 297 107 292 106 288 105 283 104 282 103 278 103 265 102 262 " style="stroke:gray;fill:none"/><path d="M97 263 102 263 103 265 103 278 104 282 105 287 106 288 107 292 107 296 105 298 103 297 101 295 99 292 97 288 96 285 95 279 95 268 96 265 " style="stroke:gray;fill:none"/><path d="M101 258 99 258 95 259 92 262 91 264 91 282 93 285 93 287 93 285 91 282 91 264 93 261 95 259 98 259 103 258 " style="stroke:gray;fill:none"/><path d="M234 255 235 257 234 260 235 267 234 260 235 257 " style="stroke:gray;fill:none"/><path d="M111 251 109 255 109 268 112 271 113 275 112 278 114 281 114 285 113 287 113 290 113 292 114 296 118 304 122 308 126 308 128 307 129 305 127 302 123 294 123 292 122 289 121 287 117 283 116 281 115 273 115 269 117 267 117 260 115 251 " style="stroke:gray;fill:none"/><path d="M115 270 116 275 116 282 117 284 122 289 123 292 123 294 127 301 127 303 129 305 126 308 123 308 117 302 115 298 114 295 113 292 113 290 112 288 114 286 114 281 112 277 113 275 " style="stroke:gray;fill:none"/><path d="M113 250 116 253 117 260 117 266 114 269 112 270 109 267 109 256 111 252 " style="stroke:gray;fill:none"/><path d="M273 249 272 251 271 256 271 259 274 259 275 257 271 258 271 256 273 252 274 254 272 251 " style="stroke:gray;fill:none"/><path d="M258 249 258 256 259 258 258 256 259 249 261 251 261 254 260 249 " style="stroke:gray;fill:none"/><path d="M27 242 24 243 23 245 25 249 29 249 31 248 34 242 30 242 34 245 29 249 24 248 23 245 25 243 29 244 28 247 26 245 28 247 29 244 " style="stroke:gray;fill:none"/><path d="M124 239 " style="stroke:gray;fill:none"/><path d="M122 239 120 242 " style="stroke:gray;fill:none"/><path d="M386 240 387 242 390 240 388 238 " style="stroke:gray;fill:none"/><path d="M388 238 390 240 388 242 386 240 " style="stroke:gray;fill:none"/><path d="M242 237 242 240 244 243 245 246 246 249 247 253 248 260 248 272 249 274 252 274 253 272 254 270 255 267 255 256 254 250 253 246 252 242 251 240 247 236 " style="stroke:gray;fill:none"/><path d="M244 236 246 236 251 241 252 243 253 246 254 250 255 256 255 267 254 270 252 272 248 271 248 260 247 253 246 249 245 246 244 245 243 242 243 240 242 238 " style="stroke:gray;fill:none"/><path d="M125 236 128 236 " style="stroke:gray;fill:none"/><path d="M127 237 " style="stroke:gray;fill:none"/><path d="M388 234 385 235 383 237 382 240 382 242 383 244 384 246 391 246 393 245 395 243 394 235 392 234 " style="stroke:gray;fill:none"/><path d="M388 234 392 234 394 235 394 244 391 246 385 246 383 244 382 242 382 240 383 237 385 235 " style="stroke:gray;fill:none"/><path d="M230 234 228 235 227 238 228 240 231 242 230 246 228 242 229 245 232 248 234 252 232 250 231 246 230 241 231 237 233 237 235 239 236 241 236 244 238 246 239 249 236 252 239 256 240 260 240 264 239 267 240 264 240 260 239 256 238 254 237 252 239 250 239 248 238 245 236 243 236 240 235 238 230 237 229 240 227 237 233 235 " style="stroke:gray;fill:none"/><path d="M152 234 149 235 147 236 143 240 142 242 141 245 141 248 141 251 141 253 142 256 143 258 148 263 151 264 162 264 166 262 169 259 171 255 171 244 170 241 164 235 161 234 " style="stroke:gray;fill:none"/><path d="M152 234 161 234 163 235 170 242 171 244 171 255 170 257 164 263 162 264 151 264 149 263 146 261 144 259 142 256 141 253 141 251 141 248 141 245 142 242 148 236 " style="stroke:gray;fill:none"/><path d="M114 227 112 230 111 232 111 235 109 238 110 245 110 247 107 251 106 253 106 255 105 257 106 255 106 253 107 251 109 249 111 247 109 246 111 245 109 244 109 238 111 235 111 232 113 229 116 226 " style="stroke:gray;fill:none"/><path d="M167 225 162 228 154 228 151 229 148 230 145 231 142 233 140 233 137 235 135 235 129 238 126 240 124 243 123 245 123 241 122 243 119 244 120 246 122 244 123 247 122 267 123 272 124 278 125 282 126 286 128 289 128 291 131 297 133 299 133 301 135 304 137 307 135 308 132 307 135 308 137 307 139 308 134 303 133 301 133 299 132 297 130 295 128 291 128 289 126 286 125 282 124 278 123 272 122 267 122 248 123 245 125 242 128 239 131 237 135 235 137 235 140 233 142 233 145 231 148 230 151 229 154 228 162 228 165 226 173 225 188 225 191 226 195 228 198 230 204 236 207 240 208 242 209 245 210 248 210 257 211 261 212 262 212 264 210 267 210 269 209 272 207 276 205 275 207 276 205 278 203 281 203 282 200 284 195 291 191 293 189 294 189 296 191 293 194 292 197 290 201 286 203 283 205 280 207 277 208 275 209 272 209 270 210 267 211 265 213 264 216 267 216 277 215 280 214 283 212 286 204 294 201 296 199 297 195 298 185 298 179 301 176 303 174 305 172 305 165 309 162 310 157 311 148 312 143 311 148 312 157 311 162 310 165 309 172 305 174 305 176 304 178 302 181 300 185 298 195 298 199 297 203 295 206 293 211 288 213 285 214 283 215 280 216 277 216 267 215 265 212 263 211 261 210 257 210 248 209 245 208 242 206 238 203 234 200 231 197 229 191 226 188 225 172 226 " style="stroke:gray;fill:none"/><path d="M170 221 164 222 160 223 158 224 157 222 155 223 154 225 153 223 151 224 149 227 148 225 146 226 145 228 142 230 140 231 138 231 136 232 134 233 136 232 138 231 140 231 147 227 150 226 153 225 156 224 160 223 164 222 170 221 190 221 196 222 201 223 205 224 209 225 212 226 216 228 221 233 222 235 223 238 224 241 225 244 226 248 226 254 227 260 229 263 229 265 228 274 228 277 228 284 227 288 226 292 225 294 223 297 221 299 217 302 211 305 208 306 206 306 203 308 199 308 196 309 195 310 191 311 185 312 177 313 185 312 191 311 195 310 198 309 199 308 203 308 206 306 208 306 211 305 219 301 221 299 223 297 225 295 226 292 227 288 228 284 228 277 228 274 229 265 229 263 227 260 226 254 226 248 225 244 224 241 223 238 222 233 219 230 222 230 219 230 215 228 213 227 210 224 208 223 205 224 202 224 197 223 196 222 190 221 " style="stroke:gray;fill:none"/><path d="M147 227 " style="stroke:gray;fill:none"/><path d="M209 225 " style="stroke:gray;fill:none"/><path d="M152 225 " style="stroke:gray;fill:none"/><path d="M156 224 " style="stroke:gray;fill:none"/><path d="M359 220 360 222 364 222 364 220 " style="stroke:gray;fill:none"/><path d="M359 221 364 221 " style="stroke:gray;fill:none"/><path d="M357 220 355 222 353 225 354 227 356 228 363 228 365 229 365 234 363 235 357 235 354 234 352 232 348 230 345 230 339 231 337 232 335 234 333 235 326 235 322 234 320 232 318 231 312 231 309 233 307 233 305 234 303 237 301 236 299 237 297 238 294 241 292 245 292 247 291 249 287 253 283 261 283 263 281 265 280 268 277 271 276 273 275 276 276 282 276 284 276 282 275 276 276 273 277 271 280 267 282 265 283 263 283 261 286 255 290 251 292 247 292 245 293 243 299 237 301 236 304 237 307 233 309 233 312 231 318 231 320 233 322 234 326 235 333 235 337 233 339 231 345 230 348 230 350 231 353 234 357 235 363 235 365 234 365 229 363 228 356 228 353 224 " style="stroke:gray;fill:none"/><path d="M225 217 229 221 229 224 230 226 234 230 236 230 234 230 233 228 230 226 229 224 229 221 227 218 " style="stroke:gray;fill:none"/><path d="M265 212 268 215 268 218 266 219 266 221 268 222 268 225 268 214 " style="stroke:gray;fill:none"/><path d="M267 221 " style="stroke:gray;fill:none"/><path d="M278 214 278 218 278 226 276 229 276 231 276 229 278 226 278 218 278 214 281 212 283 210 286 213 292 220 293 222 293 226 290 232 288 234 284 235 282 237 281 235 277 233 277 236 276 239 275 242 274 243 274 247 274 243 275 240 276 237 278 233 278 238 278 240 278 238 280 235 283 237 285 235 286 237 283 239 282 241 282 244 281 246 278 248 277 254 276 247 276 255 278 253 278 249 280 248 281 246 282 244 282 241 286 237 287 234 290 232 291 229 293 227 293 222 291 218 283 210 " style="stroke:gray;fill:none"/><path d="M129 210 127 211 125 212 124 214 123 216 124 214 127 211 131 210 " style="stroke:gray;fill:none"/><path d="M220 206 220 208 216 209 218 210 220 210 220 208 222 206 " style="stroke:gray;fill:none"/><path d="M219 210 " style="stroke:gray;fill:none"/><path d="M227 204 224 206 " style="stroke:gray;fill:none"/><path d="M210 204 212 205 215 206 212 205 " style="stroke:gray;fill:none"/><path d="M141 204 139 205 142 203 144 203 " style="stroke:gray;fill:none"/><path d="M262 207 261 218 262 233 261 236 258 239 255 240 256 245 258 245 259 238 261 234 262 230 264 227 263 229 263 219 264 224 266 225 266 232 265 236 263 241 262 239 263 242 264 240 264 237 265 233 266 232 266 225 264 223 262 219 261 208 263 202 " style="stroke:gray;fill:none"/><path d="M255 240 258 240 257 245 " style="stroke:gray;fill:none"/><path d="M166 202 169 202 173 203 176 204 179 205 185 208 187 210 189 211 191 212 190 214 192 212 190 211 188 210 186 208 180 205 177 204 175 204 173 202 170 202 " style="stroke:gray;fill:none"/><path d="M232 201 232 203 " style="stroke:gray;fill:none"/><path d="M230 201 230 204 " style="stroke:gray;fill:none"/><path d="M368 200 368 204 365 209 364 216 361 216 359 218 361 216 365 216 365 209 368 204 " style="stroke:gray;fill:none"/><path d="M323 200 321 201 321 205 323 208 325 210 329 209 329 203 327 201 325 200 " style="stroke:gray;fill:none"/><path d="M323 200 325 200 329 204 329 208 326 210 322 206 321 204 321 202 " style="stroke:gray;fill:none"/><path d="M234 200 235 204 239 208 241 212 241 219 240 223 239 224 238 230 238 232 239 230 239 224 240 220 241 219 241 212 239 209 239 207 236 205 235 203 237 202 237 200 " style="stroke:gray;fill:none"/><path d="M236 202 " style="stroke:gray;fill:none"/><path d="M202 200 " style="stroke:gray;fill:none"/><path d="M199 199 " style="stroke:gray;fill:none"/><path d="M166 199 162 200 161 201 156 201 153 202 150 203 147 204 135 210 131 213 127 216 122 221 120 224 118 227 115 233 115 238 119 238 123 235 125 233 128 231 131 230 133 228 145 222 148 221 151 220 155 219 159 218 164 217 172 216 190 216 194 217 195 218 202 218 206 219 210 220 213 221 214 222 217 223 219 223 223 223 224 219 218 213 214 210 211 208 201 203 198 202 195 201 191 200 187 199 " style="stroke:gray;fill:none"/><path d="M166 199 187 199 191 200 195 201 198 202 201 204 203 204 207 206 210 208 213 210 217 213 224 220 223 223 219 223 217 223 214 222 211 221 210 220 206 219 202 218 195 218 191 217 190 216 172 216 164 217 159 218 155 219 151 220 148 221 145 222 127 231 124 233 122 235 118 238 115 237 115 233 116 231 118 228 120 225 122 222 128 216 132 213 136 210 139 208 145 205 147 205 150 203 153 202 156 201 161 201 " style="stroke:gray;fill:none"/><path d="M197 198 " style="stroke:gray;fill:none"/><path d="M370 197 370 201 372 201 " style="stroke:gray;fill:none"/><path d="M371 197 371 201 " style="stroke:gray;fill:none"/><path d="M248 196 248 198 248 201 250 213 248 212 249 200 251 200 253 198 251 196 " style="stroke:gray;fill:none"/><path d="M249 196 251 196 253 198 250 200 248 198 " style="stroke:gray;fill:none"/><path d="M361 190 360 192 359 194 359 197 360 199 365 200 366 198 366 193 365 191 " style="stroke:gray;fill:none"/><path d="M363 190 365 192 366 194 366 198 364 200 362 200 359 197 359 194 360 192 " style="stroke:gray;fill:none"/><path d="M239 189 239 192 238 194 239 192 " style="stroke:gray;fill:none"/><path d="M230 175 231 178 237 182 238 185 241 188 239 183 243 188 239 182 " style="stroke:gray;fill:none"/><path d="M238 184 " style="stroke:gray;fill:none"/><path d="M164 175 164 178 165 181 168 187 170 191 173 192 171 193 174 194 177 193 187 195 189 194 190 196 192 197 194 197 191 196 195 195 198 196 201 197 204 199 206 199 210 201 212 203 214 204 222 204 224 203 227 201 231 198 236 193 236 188 234 185 232 184 234 183 232 181 234 182 232 184 230 182 230 180 230 183 232 185 235 187 236 189 236 192 229 199 225 202 221 204 215 204 213 203 211 201 207 199 205 199 202 197 199 196 196 195 192 194 188 193 178 193 174 192 168 186 165 180 164 177 " style="stroke:gray;fill:none"/><path d="M191 196 " style="stroke:gray;fill:none"/><path d="M176 194 188 194 " style="stroke:gray;fill:none"/><path d="M173 194 " style="stroke:gray;fill:none"/><path d="M193 174 191 175 188 177 187 180 188 182 190 183 193 183 196 182 198 181 200 180 200 177 199 175 197 174 " style="stroke:gray;fill:none"/><path d="M193 174 197 174 200 177 200 179 198 181 196 182 193 183 190 183 187 179 190 176 " style="stroke:gray;fill:none"/><path d="M227 171 " style="stroke:gray;fill:none"/><path d="M74 171 72 173 70 176 67 178 68 181 70 182 79 182 82 180 83 177 81 175 82 171 " style="stroke:gray;fill:none"/><path d="M74 171 83 173 81 175 83 178 80 181 78 182 70 182 68 181 67 178 69 176 72 175 72 173 " style="stroke:gray;fill:none"/><path d="M330 171 328 172 326 172 323 172 321 172 323 172 326 172 328 173 330 171 332 170 " style="stroke:gray;fill:none"/><path d="M315 170 304 171 288 171 286 172 288 171 304 171 315 170 317 169 " style="stroke:gray;fill:none"/><path d="M274 168 " style="stroke:gray;fill:none"/><path d="M268 168 " style="stroke:gray;fill:none"/><path d="M251 168 260 168 " style="stroke:gray;fill:none"/><path d="M237 167 242 167 " style="stroke:gray;fill:none"/><path d="M225 167 229 168 225 169 229 169 229 167 " style="stroke:gray;fill:none"/><path d="M223 167 " style="stroke:gray;fill:none"/><path d="M330 167 323 168 319 168 323 168 330 167 332 166 " style="stroke:gray;fill:none"/><path d="M320 166 322 166 " style="stroke:gray;fill:none"/><path d="M315 166 " style="stroke:gray;fill:none"/><path d="M201 165 202 168 205 169 207 171 210 172 213 171 213 169 212 172 210 172 204 169 " style="stroke:gray;fill:none"/><path d="M353 165 352 167 352 169 353 171 357 175 359 178 359 179 363 183 361 180 358 176 356 173 352 169 352 167 355 164 357 165 358 167 362 171 364 174 365 177 365 183 365 176 364 173 362 170 360 169 358 165 356 164 " style="stroke:gray;fill:none"/><path d="M326 164 324 165 326 164 332 164 " style="stroke:gray;fill:none"/><path d="M346 163 " style="stroke:gray;fill:none"/><path d="M362 162 364 164 364 166 365 168 368 171 369 174 373 174 379 175 383 179 383 188 380 191 378 191 374 192 371 195 373 193 375 192 377 192 380 191 382 190 383 188 383 179 382 177 379 175 374 175 370 174 368 172 367 169 364 166 364 164 " style="stroke:gray;fill:none"/><path d="M199 159 " style="stroke:gray;fill:none"/><path d="M360 157 361 160 362 157 " style="stroke:gray;fill:none"/><path d="M361 157 361 160 " style="stroke:gray;fill:none"/><path d="M364 156 369 158 376 158 378 156 376 158 369 158 " style="stroke:gray;fill:none"/><path d="M193 155 " style="stroke:gray;fill:none"/><path d="M190 152 " style="stroke:gray;fill:none"/><path d="M230 151 232 151 " style="stroke:gray;fill:none"/><path d="M227 151 " style="stroke:gray;fill:none"/><path d="M282 150 280 151 282 150 291 150 " style="stroke:gray;fill:none"/><path d="M223 150 225 151 " style="stroke:gray;fill:none"/><path d="M378 149 378 153 382 153 382 151 380 149 " style="stroke:gray;fill:none"/><path d="M379 149 382 152 378 152 " style="stroke:gray;fill:none"/><path d="M306 148 298 150 306 148 309 148 " style="stroke:gray;fill:none"/><path d="M189 146 189 150 " style="stroke:gray;fill:none"/><path d="M205 145 205 147 " style="stroke:gray;fill:none"/><path d="M344 144 " style="stroke:gray;fill:none"/><path d="M145 145 145 147 146 151 147 153 149 156 151 158 155 161 156 161 159 164 160 167 162 169 161 177 161 179 162 185 160 187 160 191 161 194 159 198 161 198 161 194 160 191 159 189 161 187 162 185 161 179 161 177 163 172 162 169 160 167 159 165 158 162 153 159 148 154 146 151 145 147 146 144 148 144 " style="stroke:gray;fill:none"/><path d="M3 145 6 148 6 144 " style="stroke:gray;fill:none"/><path d="M5 144 5 148 3 146 " style="stroke:gray;fill:none"/><path d="M206 143 " style="stroke:gray;fill:none"/><path d="M342 142 333 143 324 144 323 145 313 145 305 146 304 147 291 148 273 149 274 151 274 148 291 148 304 147 312 146 313 145 323 145 333 143 335 145 340 145 334 144 342 142 344 142 " style="stroke:gray;fill:none"/><path d="M2 139 4 140 6 140 11 145 10 150 8 151 0 150 0 147 0 151 8 151 11 150 11 145 8 141 4 140 " style="stroke:gray;fill:none"/><path d="M0 139 1 145 " style="stroke:gray;fill:none"/><path d="M213 138 " style="stroke:gray;fill:none"/><path d="M355 136 354 140 356 140 357 138 " style="stroke:gray;fill:none"/><path d="M355 140 " style="stroke:gray;fill:none"/><path d="M355 138 " style="stroke:gray;fill:none"/><path d="M199 135 " style="stroke:gray;fill:none"/><path d="M375 130 380 134 381 137 380 143 380 147 380 143 381 137 380 133 378 131 " style="stroke:gray;fill:none"/><path d="M146 130 146 134 147 138 150 143 152 144 150 145 152 145 152 143 149 142 149 140 147 138 146 134 " style="stroke:gray;fill:none"/><path d="M214 129 " style="stroke:gray;fill:none"/><path d="M360 128 358 129 357 132 360 135 364 138 364 140 361 143 359 144 355 145 352 146 348 147 343 147 339 148 338 149 332 150 324 151 315 152 304 153 289 154 270 155 243 155 227 154 220 153 215 152 211 151 210 150 206 149 210 150 214 151 219 152 220 153 227 154 243 155 270 155 289 154 304 153 315 152 324 151 332 150 338 149 342 148 343 147 348 147 352 146 355 145 359 144 362 143 364 141 364 137 362 135 357 131 360 128 362 128 366 129 369 130 371 131 378 138 378 141 371 148 361 153 358 154 355 155 352 156 349 157 345 158 341 159 336 160 331 161 327 162 320 163 312 164 302 165 286 166 257 165 250 166 247 165 245 166 240 164 232 164 223 163 218 162 214 161 210 160 206 159 203 158 199 156 196 154 192 150 191 148 191 146 192 144 195 141 198 139 206 135 209 135 211 137 211 139 209 141 211 140 210 135 206 135 194 141 192 143 191 145 191 148 192 151 195 154 203 158 206 159 210 160 214 161 218 162 223 163 231 163 240 164 245 166 244 170 232 170 229 171 229 173 231 173 233 170 247 171 249 170 277 171 280 174 282 174 285 177 287 178 291 179 297 180 316 180 319 183 314 188 310 191 307 192 304 194 301 195 300 197 299 200 293 201 287 202 282 202 272 201 268 200 265 199 262 198 250 192 247 190 245 188 246 185 243 182 237 178 246 190 251 192 253 194 255 195 257 195 260 197 260 199 264 198 268 200 265 202 267 204 269 204 270 202 267 201 271 200 279 202 282 202 287 202 293 201 299 200 302 199 308 197 311 196 317 193 319 191 322 190 325 188 337 176 340 172 340 168 340 167 334 166 338 166 341 169 340 171 337 175 324 188 321 190 318 191 315 194 311 196 308 197 305 198 300 197 303 194 309 191 312 192 314 188 320 184 319 182 316 180 308 180 306 178 304 178 301 177 299 176 298 173 298 176 300 176 303 177 307 179 297 180 291 179 287 178 285 177 283 174 279 173 284 172 282 171 284 170 280 170 277 171 249 170 249 167 251 165 257 165 286 166 302 165 312 164 320 163 327 162 331 161 336 160 341 159 345 158 349 157 352 156 356 155 359 153 361 153 364 151 366 151 368 150 370 148 372 148 377 143 378 141 378 138 377 136 372 131 370 130 366 129 362 128 " style="stroke:gray;fill:none"/><path d="M266 203 269 203 " style="stroke:gray;fill:none"/><path d="M230 173 " style="stroke:gray;fill:none"/><path d="M277 171 281 171 " style="stroke:gray;fill:none"/><path d="M280 170 283 170 " style="stroke:gray;fill:none"/><path d="M247 165 249 167 249 169 247 171 245 169 245 167 " style="stroke:gray;fill:none"/><path d="M427 125 428 128 " style="stroke:gray;fill:none"/><path d="M422 125 420 128 422 129 424 127 " style="stroke:gray;fill:none"/><path d="M422 125 424 127 422 129 420 127 " style="stroke:gray;fill:none"/><path d="M360 125 364 125 367 126 368 127 370 128 368 127 365 126 364 125 " style="stroke:gray;fill:none"/><path d="M198 124 194 125 191 126 188 127 186 128 183 131 181 131 178 133 175 136 172 140 169 143 165 151 164 155 163 158 162 162 162 166 162 162 163 158 164 155 165 151 167 148 168 146 170 148 171 151 168 152 170 153 172 151 173 149 173 145 173 147 171 151 171 145 169 144 171 142 175 139 179 133 182 131 187 131 190 131 188 133 185 133 183 134 180 136 177 139 179 137 182 135 185 133 190 132 190 130 188 130 184 130 186 129 191 126 194 125 198 124 206 124 208 126 207 130 204 130 201 131 195 134 192 136 187 141 185 145 185 150 186 152 188 155 190 157 193 159 196 160 198 162 201 163 203 163 206 164 208 166 212 167 217 167 219 168 222 172 224 172 227 175 227 179 225 177 223 174 225 176 227 179 228 181 227 179 228 176 226 173 223 172 221 170 219 168 217 166 222 165 216 165 216 167 212 167 208 166 206 164 204 164 201 162 205 161 207 162 205 161 202 161 199 161 194 159 191 157 188 154 186 151 185 149 185 146 187 142 193 136 195 137 196 134 198 133 200 133 201 131 204 130 208 130 210 129 208 128 207 124 " style="stroke:gray;fill:none"/><path d="M168 146 171 146 " style="stroke:gray;fill:none"/><path d="M353 125 354 127 356 127 356 123 " style="stroke:gray;fill:none"/><path d="M354 123 357 125 355 127 353 125 " style="stroke:gray;fill:none"/><path d="M419 122 415 126 415 128 416 131 419 133 423 133 428 131 423 133 420 133 418 132 416 130 415 128 415 126 419 122 425 123 427 123 425 123 " style="stroke:gray;fill:none"/><path d="M218 116 218 120 " style="stroke:gray;fill:none"/><path d="M218 114 " style="stroke:gray;fill:none"/><path d="M220 111 " style="stroke:gray;fill:none"/><path d="M213 106 216 109 " style="stroke:gray;fill:none"/><path d="M346 105 347 107 348 111 349 113 351 116 353 117 355 117 357 119 356 121 357 119 355 117 353 117 350 114 348 111 348 108 " style="stroke:gray;fill:none"/><path d="M209 101 211 104 214 104 216 106 218 107 219 109 218 111 219 109 221 109 221 107 218 107 215 104 215 102 213 102 212 100 " style="stroke:gray;fill:none"/><path d="M218 108 221 108 " style="stroke:gray;fill:none"/><path d="M211 103 215 103 " style="stroke:gray;fill:none"/><path d="M209 101 212 101 " style="stroke:gray;fill:none"/><path d="M144 93 145 107 " style="stroke:gray;fill:none"/><path d="M202 91 203 96 205 97 206 95 204 94 204 91 " style="stroke:gray;fill:none"/><path d="M202 95 205 95 " style="stroke:gray;fill:none"/><path d="M203 91 203 94 " style="stroke:gray;fill:none"/><path d="M138 90 138 92 143 91 143 89 141 88 " style="stroke:gray;fill:none"/><path d="M141 88 143 90 141 92 138 90 " style="stroke:gray;fill:none"/><path d="M340 87 340 93 341 95 342 97 344 98 344 100 345 102 347 102 347 98 343 94 343 90 343 94 346 97 347 99 346 102 344 100 344 98 341 95 340 93 340 88 342 88 " style="stroke:gray;fill:none"/><path d="M161 86 156 90 154 92 154 94 152 95 151 98 149 101 148 104 148 107 146 110 146 123 147 127 149 130 149 132 153 140 155 142 158 145 160 145 162 144 164 142 167 138 167 137 176 128 179 127 182 124 184 124 186 122 188 121 192 120 195 120 197 119 199 118 199 113 195 109 191 106 190 106 183 99 179 96 175 93 172 91 169 89 166 87 164 86 " style="stroke:gray;fill:none"/><path d="M160 87 164 86 167 88 171 91 174 93 178 96 182 99 188 105 193 109 194 109 200 116 197 119 195 120 192 120 188 121 180 125 178 127 175 128 167 136 165 139 165 140 160 145 158 145 154 141 152 138 149 132 149 130 147 127 146 122 146 110 148 107 148 104 149 101 151 98 152 96 153 98 152 96 154 95 154 93 156 90 158 88 160 87 161 91 156 96 155 98 161 92 " style="stroke:gray;fill:none"/><path d="M367 87 370 88 367 87 370 86 " style="stroke:gray;fill:none"/><path d="M240 83 234 89 " style="stroke:gray;fill:none"/><path d="M365 82 363 83 362 85 363 90 365 92 368 92 372 91 372 89 371 91 368 92 365 92 363 90 362 85 365 82 370 82 372 87 372 83 370 82 " style="stroke:gray;fill:none"/><path d="M149 82 " style="stroke:gray;fill:none"/><path d="M157 80 156 82 158 82 " style="stroke:gray;fill:none"/><path d="M255 79 253 81 248 88 247 91 246 94 245 97 244 100 243 103 242 113 242 124 243 130 244 134 245 137 249 144 251 147 244 148 241 148 226 148 223 147 219 142 217 140 214 140 212 144 208 145 208 147 210 148 216 147 216 145 217 140 219 142 220 144 221 146 221 150 221 146 226 148 242 149 242 152 242 150 244 148 250 148 253 148 271 148 253 148 248 143 245 137 244 134 243 130 242 124 244 112 245 114 248 116 270 127 272 127 279 131 282 132 284 132 289 135 292 136 294 136 297 138 299 138 302 140 304 140 309 143 311 144 309 143 304 140 302 140 299 138 297 138 294 136 292 136 289 135 284 132 282 132 279 131 272 127 270 127 250 117 247 115 243 111 244 105 246 105 249 105 258 109 260 111 270 116 272 116 281 121 283 121 286 123 289 124 291 124 296 127 298 127 301 128 306 131 308 131 311 133 313 133 320 137 322 137 324 138 326 140 326 142 326 139 324 138 322 137 320 137 313 133 311 133 308 131 306 131 301 128 299 128 296 127 291 124 289 124 286 123 283 121 281 121 272 116 270 116 262 112 260 110 249 105 246 105 244 102 244 100 245 97 246 94 247 91 248 88 249 86 251 83 254 81 255 79 259 80 264 83 267 84 270 85 273 86 276 87 279 88 282 89 285 90 288 91 291 92 294 93 297 94 299 94 302 95 305 96 308 97 311 98 314 99 317 100 320 101 323 102 326 103 329 104 332 105 335 106 339 110 337 107 335 106 337 104 339 103 336 104 332 105 330 105 327 104 324 103 321 102 318 101 315 100 312 99 309 98 306 97 303 96 300 95 297 94 294 93 291 92 288 91 285 90 282 89 279 88 276 87 273 86 270 85 267 84 264 83 259 80 " style="stroke:gray;fill:none"/><path d="M210 144 213 144 215 145 215 148 210 148 208 146 " style="stroke:gray;fill:none"/><path d="M214 140 214 145 " style="stroke:gray;fill:none"/><path d="M249 77 " style="stroke:gray;fill:none"/><path d="M319 76 321 77 323 78 325 81 327 82 330 83 334 84 335 86 336 89 337 91 335 88 335 85 333 83 330 83 327 82 323 78 321 77 " style="stroke:gray;fill:none"/><path d="M255 74 " style="stroke:gray;fill:none"/><path d="M308 72 " style="stroke:gray;fill:none"/><path d="M185 72 182 74 181 76 182 78 184 79 187 82 193 84 196 83 196 80 195 77 189 72 " style="stroke:gray;fill:none"/><path d="M185 72 189 72 191 73 195 77 196 80 195 84 192 85 189 82 186 80 185 80 181 76 " style="stroke:gray;fill:none"/><path d="M140 72 139 78 136 79 134 81 132 84 129 85 128 88 129 90 132 90 134 89 138 85 141 85 143 86 141 85 138 85 136 86 132 90 130 90 128 87 131 84 138 78 142 77 143 74 142 72 " style="stroke:gray;fill:none"/><path d="M141 72 143 75 141 77 " style="stroke:gray;fill:none"/><path d="M303 73 305 73 308 74 316 78 320 81 324 84 328 87 337 96 339 99 341 102 341 104 343 106 345 109 346 111 347 114 348 117 349 121 350 126 350 137 347 140 344 137 344 124 342 121 342 119 339 118 337 117 334 116 331 115 328 114 325 113 322 112 319 111 316 110 313 109 310 108 307 107 304 107 301 105 298 105 295 104 292 103 289 101 286 100 283 100 280 99 277 97 275 97 272 96 269 95 266 94 263 93 260 91 258 91 255 90 252 86 253 89 255 90 257 90 260 91 263 93 265 93 268 94 271 95 274 96 277 97 280 99 283 100 286 100 289 101 292 103 295 104 298 105 301 105 304 107 307 107 310 108 313 109 316 110 319 111 322 112 325 113 328 114 331 115 334 116 337 117 340 119 342 121 344 124 345 139 346 141 348 140 350 138 350 126 349 121 348 117 347 114 346 111 343 105 341 103 341 101 339 98 337 95 329 87 325 84 324 84 320 81 317 78 317 76 315 75 312 74 309 74 306 74 303 72 305 71 " style="stroke:gray;fill:none"/><path d="M316 78 " style="stroke:gray;fill:none"/><path d="M313 76 316 76 " style="stroke:gray;fill:none"/><path d="M311 75 314 75 " style="stroke:gray;fill:none"/><path d="M309 74 312 74 " style="stroke:gray;fill:none"/><path d="M299 70 299 72 301 73 " style="stroke:gray;fill:none"/><path d="M300 72 " style="stroke:gray;fill:none"/><path d="M150 70 147 73 146 75 148 79 153 79 156 76 158 76 162 78 164 80 166 80 170 84 173 85 177 88 181 91 185 94 192 100 197 105 204 111 210 116 214 116 214 111 204 101 197 95 193 92 189 89 185 86 182 84 179 82 177 82 175 80 161 73 159 73 156 71 153 70 " style="stroke:gray;fill:none"/><path d="M151 70 153 70 158 73 160 73 163 75 165 75 167 76 169 78 178 82 181 84 184 86 188 89 192 92 196 95 203 101 214 112 215 114 213 116 211 116 206 111 199 105 198 105 193 100 187 95 183 92 179 89 175 86 172 84 168 81 165 80 163 78 159 76 155 76 152 79 149 79 147 77 146 75 " style="stroke:gray;fill:none"/><path d="M144 69 144 71 " style="stroke:gray;fill:none"/><path d="M177 69 180 70 177 69 179 68 " style="stroke:gray;fill:none"/><path d="M161 69 161 71 164 72 168 74 171 74 173 75 175 74 175 72 171 71 169 69 167 68 " style="stroke:gray;fill:none"/><path d="M162 68 167 68 170 71 172 71 175 73 171 74 168 74 166 72 164 72 162 71 " style="stroke:gray;fill:none"/><path d="M302 67 302 69 304 69 304 67 " style="stroke:gray;fill:none"/><path d="M303 69 " style="stroke:gray;fill:none"/><path d="M292 67 299 68 " style="stroke:gray;fill:none"/><path d="M312 66 310 71 311 68 315 65 318 68 318 72 317 74 318 72 317 66 " style="stroke:gray;fill:none"/><path d="M191 65 189 67 185 69 182 70 185 69 187 68 190 67 " style="stroke:gray;fill:none"/><path d="M280 65 282 66 280 65 284 64 " style="stroke:gray;fill:none"/><path d="M139 63 137 64 136 69 139 70 135 66 137 64 139 63 141 63 144 66 146 67 155 67 157 68 159 69 157 68 155 67 146 67 144 66 143 64 141 63 " style="stroke:gray;fill:none"/><path d="M64 60 62 62 64 64 66 62 " style="stroke:gray;fill:none"/><path d="M64 60 66 62 64 64 62 62 " style="stroke:gray;fill:none"/><path d="M194 58 194 63 193 70 194 63 " style="stroke:gray;fill:none"/><path d="M196 57 195 65 196 68 195 70 196 68 195 65 " style="stroke:gray;fill:none"/><path d="M62 58 59 59 58 61 58 64 59 66 68 67 68 59 66 58 " style="stroke:gray;fill:none"/><path d="M66 58 68 60 67 67 59 66 58 64 58 61 61 58 " style="stroke:gray;fill:none"/><path d="M197 51 196 53 196 55 196 53 199 50 " style="stroke:gray;fill:none"/><path d="M195 43 194 48 196 48 " style="stroke:gray;fill:none"/><path d="M195 43 195 48 " style="stroke:gray;fill:none"/><path d="M199 42 198 44 198 46 200 48 202 47 203 45 202 43 " style="stroke:gray;fill:none"/><path d="M202 43 203 45 200 48 198 46 198 44 " style="stroke:gray;fill:none"/><path d="M204 43 205 41 " style="stroke:gray;fill:none"/><path d="M280 39 283 40 287 44 287 49 285 51 285 55 286 59 286 62 286 59 285 55 284 53 287 50 287 43 285 41 282 40 " style="stroke:gray;fill:none"/><path d="M277 37 " style="stroke:gray;fill:none"/><path d="M279 35 279 37 281 37 281 35 " style="stroke:gray;fill:none"/><path d="M280 37 " style="stroke:gray;fill:none"/><path d="M194 35 196 38 194 36 196 36 " style="stroke:gray;fill:none"/><path d="M257 31 257 33 263 37 271 45 273 48 277 56 278 60 278 57 276 55 276 53 275 51 273 49 271 44 264 37 259 33 258 33 " style="stroke:gray;fill:none"/><path d="M221 31 218 32 215 34 206 43 205 46 206 44 216 34 219 32 221 31 223 30 " style="stroke:gray;fill:none"/><path d="M225 29 " style="stroke:gray;fill:none"/><path d="M225 27 " style="stroke:gray;fill:none"/><path d="M338 21 336 22 334 25 335 28 338 30 343 30 347 28 346 22 347 24 347 27 345 29 343 30 339 30 337 29 334 26 334 22 337 22 341 21 343 21 345 20 343 21 341 21 " style="stroke:gray;fill:none"/><path d="M214 21 209 26 207 29 206 32 202 35 203 39 205 39 202 38 202 36 205 34 206 31 208 28 217 20 219 22 219 28 222 28 219 27 219 21 217 20 " style="stroke:gray;fill:none"/><path d="M259 16 257 17 253 22 250 23 247 25 233 25 228 26 228 28 230 26 233 25 248 25 251 27 254 27 262 31 266 34 274 42 276 45 278 48 280 52 280 55 281 57 282 59 277 64 275 65 270 66 267 66 264 68 261 68 258 69 255 71 253 71 249 73 246 75 243 77 240 79 236 82 230 88 227 92 227 93 225 96 220 101 218 101 216 100 207 91 206 88 204 86 201 80 200 77 199 73 199 60 200 57 201 54 202 53 203 50 202 53 201 56 200 59 199 60 199 73 200 77 201 80 203 83 203 85 204 87 207 90 207 92 213 98 215 100 218 101 220 101 222 100 225 97 226 94 230 89 237 82 241 79 244 77 248 74 251 72 253 71 256 70 259 69 262 68 264 71 261 72 263 73 260 74 258 73 257 76 255 76 251 78 247 81 244 83 241 85 235 91 231 96 229 99 228 102 226 104 226 106 224 108 224 110 222 113 221 116 220 119 219 123 218 131 217 127 217 130 214 131 213 134 214 136 216 137 218 134 218 131 219 123 220 119 221 116 222 113 224 109 226 107 226 105 228 101 231 97 235 92 242 85 245 83 248 81 252 78 256 76 258 76 261 74 264 73 267 72 271 71 276 70 293 70 297 72 296 69 294 69 290 69 289 66 286 65 288 64 286 64 287 67 275 68 269 69 268 70 266 70 264 68 267 66 271 65 275 65 278 64 281 61 281 57 280 55 280 52 279 49 278 47 276 44 274 41 267 34 264 32 259 30 257 28 254 27 251 27 248 25 250 23 253 22 257 17 259 16 261 17 264 19 266 24 266 29 267 31 269 33 273 34 277 34 273 34 270 33 266 29 266 24 265 20 263 18 261 17 " style="stroke:gray;fill:none"/><path d="M217 130 218 134 215 136 214 132 " style="stroke:gray;fill:none"/><path d="M259 75 " style="stroke:gray;fill:none"/><path d="M262 72 266 72 " style="stroke:gray;fill:none"/><path d="M265 71 270 71 " style="stroke:gray;fill:none"/><path d="M295 71 " style="stroke:gray;fill:none"/><path d="M269 70 274 70 " style="stroke:gray;fill:none"/><path d="M276 69 290 69 " style="stroke:gray;fill:none"/><path d="M275 68 275 71 " style="stroke:gray;fill:none"/><path d="M288 68 " style="stroke:gray;fill:none"/></svg>