<svg width="429px" height="547px" xmlns="http://www.w3.org/2000/svg"><path d="M175 524 172 526 " style="stroke:gray;fill:none"/><path d="M156 521 158 523 160 524 158 523 " style="stroke:gray;fill:none"/><path d="M149 514 " style="stroke:gray;fill:none"/><path d="M179 512 " style="stroke:gray;fill:none"/><path d="M98 509 " style="stroke:gray;fill:none"/><path d="M105 507 " style="stroke:gray;fill:none"/><path d="M88 507 89 509 94 510 91 510 " style="stroke:gray;fill:none"/><path d="M107 506 " style="stroke:gray;fill:none"/><path d="M109 505 " style="stroke:gray;fill:none"/><path d="M179 503 179 505 " style="stroke:gray;fill:none"/><path d="M117 501 " style="stroke:gray;fill:none"/><path d="M178 500 " style="stroke:gray;fill:none"/><path d="M119 500 " style="stroke:gray;fill:none"/><path d="M121 499 " style="stroke:gray;fill:none"/><path d="M86 497 85 499 " style="stroke:gray;fill:none"/><path d="M159 491 " style="stroke:gray;fill:none"/><path d="M156 490 " style="stroke:gray;fill:none"/><path d="M175 489 174 494 177 498 176 495 173 491 " style="stroke:gray;fill:none"/><path d="M144 479 144 483 143 485 139 486 137 488 137 490 137 493 138 496 140 498 142 499 140 497 140 493 143 490 149 496 152 498 155 499 162 499 165 498 166 497 169 496 172 496 174 498 172 499 170 500 167 504 165 505 158 505 155 504 154 503 152 503 149 506 147 508 145 506 143 503 142 501 140 500 143 503 145 506 145 507 149 509 149 511 151 513 157 519 161 522 165 524 171 524 175 520 176 518 177 515 177 504 176 501 175 499 174 497 172 496 169 496 166 497 163 498 162 499 155 499 153 498 150 496 145 491 143 490 141 491 140 493 139 497 138 495 137 493 137 490 137 488 139 486 143 486 143 484 " style="stroke:gray;fill:none"/><path d="M172 499 175 500 177 504 177 515 176 518 170 524 166 524 162 522 158 519 151 511 149 510 148 507 152 503 154 503 157 504 158 505 165 505 169 503 " style="stroke:gray;fill:none"/><path d="M282 478 285 478 " style="stroke:gray;fill:none"/><path d="M282 478 285 478 " style="stroke:gray;fill:none"/><path d="M128 476 129 478 131 480 131 488 130 491 128 493 130 491 131 488 131 479 " style="stroke:gray;fill:none"/><path d="M121 476 121 478 " style="stroke:gray;fill:none"/><path d="M119 476 119 478 " style="stroke:gray;fill:none"/><path d="M186 476 184 476 182 477 181 479 181 483 181 479 184 476 186 476 188 475 " style="stroke:gray;fill:none"/><path d="M126 476 " style="stroke:gray;fill:none"/><path d="M282 474 280 480 282 482 286 482 288 480 288 478 287 475 284 474 " style="stroke:gray;fill:none"/><path d="M285 475 287 477 288 479 285 482 283 482 279 477 281 475 " style="stroke:gray;fill:none"/><path d="M168 474 166 475 164 476 162 479 160 482 159 484 159 487 161 490 159 487 159 484 161 481 163 478 166 475 " style="stroke:gray;fill:none"/><path d="M128 473 " style="stroke:gray;fill:none"/><path d="M96 473 92 476 91 479 " style="stroke:gray;fill:none"/><path d="M29 473 27 475 31 475 " style="stroke:gray;fill:none"/><path d="M29 473 31 475 27 475 " style="stroke:gray;fill:none"/><path d="M148 469 " style="stroke:gray;fill:none"/><path d="M131 469 " style="stroke:gray;fill:none"/><path d="M29 469 27 470 25 472 24 475 25 477 27 478 24 475 25 472 27 470 29 469 31 470 34 473 33 477 31 478 34 476 33 471 31 470 " style="stroke:gray;fill:none"/><path d="M149 467 " style="stroke:gray;fill:none"/><path d="M102 467 101 471 98 473 93 479 98 474 102 473 104 474 106 476 112 479 116 480 124 479 126 480 129 483 129 487 127 489 126 487 124 486 121 486 116 489 113 490 106 490 103 489 101 488 98 485 97 482 93 481 91 483 90 485 90 487 88 490 88 502 89 504 92 507 97 507 101 506 104 505 107 503 109 503 111 501 118 498 121 496 123 495 125 493 128 489 129 487 129 483 128 481 126 480 124 479 116 480 112 479 108 477 106 475 102 473 99 472 102 470 " style="stroke:gray;fill:none"/><path d="M94 481 97 482 98 484 99 487 101 488 103 489 106 490 113 490 116 489 121 486 124 486 127 489 125 491 123 493 121 495 119 496 117 498 114 499 112 501 108 503 106 503 103 505 100 506 97 507 93 507 88 502 88 490 90 487 90 485 " style="stroke:gray;fill:none"/><path d="M179 463 178 468 " style="stroke:gray;fill:none"/><path d="M176 460 173 463 172 465 173 468 176 471 178 472 181 473 186 473 189 470 189 466 188 464 184 460 " style="stroke:gray;fill:none"/><path d="M177 460 183 460 189 466 189 469 185 473 182 473 179 472 177 471 173 467 172 465 " style="stroke:gray;fill:none"/><path d="M184 458 " style="stroke:gray;fill:none"/><path d="M175 458 " style="stroke:gray;fill:none"/><path d="M196 457 194 461 191 464 191 467 191 464 195 460 " style="stroke:gray;fill:none"/><path d="M120 457 121 469 119 472 120 470 " style="stroke:gray;fill:none"/><path d="M99 451 99 457 " style="stroke:gray;fill:none"/><path d="M102 447 102 451 102 460 103 464 105 467 110 472 114 474 122 474 125 473 128 470 129 468 130 463 131 459 130 454 128 454 125 454 118 454 115 452 113 452 107 446 " style="stroke:gray;fill:none"/><path d="M104 446 106 446 112 452 115 453 118 454 125 454 129 454 131 456 131 459 130 463 129 467 128 469 124 473 122 474 114 474 111 472 105 466 103 463 102 460 102 451 101 449 " style="stroke:gray;fill:none"/><path d="M139 441 138 445 136 447 133 449 133 456 133 449 135 447 137 447 138 445 139 443 " style="stroke:gray;fill:none"/><path d="M123 440 123 443 121 445 123 443 " style="stroke:gray;fill:none"/><path d="M102 438 102 442 101 444 100 446 102 443 " style="stroke:gray;fill:none"/><path d="M133 435 136 436 " style="stroke:gray;fill:none"/><path d="M104 435 104 440 " style="stroke:gray;fill:none"/><path d="M354 434 352 435 350 438 351 440 352 443 354 444 358 443 358 441 356 444 354 444 352 442 351 440 350 438 354 434 356 436 353 439 355 441 358 439 357 437 356 435 " style="stroke:gray;fill:none"/><path d="M357 439 355 441 353 439 " style="stroke:gray;fill:none"/><path d="M155 433 " style="stroke:gray;fill:none"/><path d="M117 433 113 434 110 437 110 442 115 447 119 448 124 448 126 446 127 443 127 441 126 438 124 436 120 434 " style="stroke:gray;fill:none"/><path d="M117 433 120 434 123 436 126 439 127 441 127 443 126 445 123 448 119 448 116 447 110 441 110 438 114 434 " style="stroke:gray;fill:none"/><path d="M212 431 210 433 208 433 205 432 202 436 203 434 205 432 207 432 " style="stroke:gray;fill:none"/><path d="M114 432 " style="stroke:gray;fill:none"/><path d="M119 430 119 432 " style="stroke:gray;fill:none"/><path d="M178 429 174 431 171 434 169 438 168 442 168 451 169 453 171 454 168 451 168 442 169 438 170 436 176 430 178 429 188 429 191 430 193 431 197 435 195 432 191 430 188 429 " style="stroke:gray;fill:none"/><path d="M102 428 101 431 102 435 101 431 " style="stroke:gray;fill:none"/><path d="M148 428 154 426 156 428 156 431 156 427 154 426 " style="stroke:gray;fill:none"/><path d="M142 417 141 420 " style="stroke:gray;fill:none"/><path d="M145 416 " style="stroke:gray;fill:none"/><path d="M115 406 117 406 120 407 124 409 130 415 131 417 131 428 129 430 131 429 131 417 129 413 126 410 120 407 117 406 " style="stroke:gray;fill:none"/><path d="M102 395 101 397 101 399 103 404 106 406 106 409 106 406 103 404 101 399 101 397 " style="stroke:gray;fill:none"/><path d="M279 386 277 388 279 390 281 392 283 392 285 391 285 386 " style="stroke:gray;fill:none"/><path d="M278 389 " style="stroke:gray;fill:none"/><path d="M280 386 286 387 285 391 281 390 283 388 279 389 " style="stroke:gray;fill:none"/><path d="M220 386 217 389 216 391 215 394 214 397 213 401 212 405 211 409 210 412 209 416 208 420 207 424 208 429 212 429 213 427 214 425 215 422 216 417 217 413 218 409 219 404 220 399 221 394 " style="stroke:gray;fill:none"/><path d="M219 388 221 390 221 394 220 399 219 404 218 409 217 413 216 417 215 422 214 425 212 428 209 429 207 427 207 424 208 420 209 416 210 412 211 409 212 405 213 401 214 397 215 394 216 391 " style="stroke:gray;fill:none"/><path d="M220 386 220 389 " style="stroke:gray;fill:none"/><path d="M114 385 116 385 " style="stroke:gray;fill:none"/><path d="M220 384 " style="stroke:gray;fill:none"/><path d="M113 382 115 382 " style="stroke:gray;fill:none"/><path d="M182 382 " style="stroke:gray;fill:none"/><path d="M110 381 " style="stroke:gray;fill:none"/><path d="M223 380 225 384 225 386 223 389 225 387 225 384 " style="stroke:gray;fill:none"/><path d="M221 380 " style="stroke:gray;fill:none"/><path d="M223 377 " style="stroke:gray;fill:none"/><path d="M136 378 134 380 132 384 131 387 132 390 135 396 142 403 145 405 148 407 154 410 157 411 160 412 164 413 171 414 179 414 187 413 191 412 194 411 197 410 200 408 203 406 201 408 197 410 194 411 191 412 187 413 179 414 171 414 164 413 160 412 157 411 154 410 150 408 147 406 144 404 134 394 132 390 131 387 132 384 133 382 139 377 " style="stroke:gray;fill:none"/><path d="M104 375 106 376 105 381 107 384 105 389 104 395 105 398 104 400 106 401 108 401 108 399 111 396 112 393 112 385 110 383 107 383 105 381 " style="stroke:gray;fill:none"/><path d="M108 383 110 383 112 385 112 392 111 395 108 398 104 397 104 395 105 389 106 385 " style="stroke:gray;fill:none"/><path d="M100 373 " style="stroke:gray;fill:none"/><path d="M118 367 115 370 112 371 115 370 117 369 " style="stroke:gray;fill:none"/><path d="M27 367 25 369 25 373 27 375 31 375 33 373 33 370 32 368 30 367 " style="stroke:gray;fill:none"/><path d="M30 368 32 370 33 372 30 375 28 375 25 372 25 370 " style="stroke:gray;fill:none"/><path d="M236 364 " style="stroke:gray;fill:none"/><path d="M152 363 151 367 155 367 154 364 " style="stroke:gray;fill:none"/><path d="M152 363 154 364 154 367 150 365 " style="stroke:gray;fill:none"/><path d="M138 364 " style="stroke:gray;fill:none"/><path d="M28 363 25 365 28 363 30 363 33 364 35 366 35 369 35 366 33 364 30 363 " style="stroke:gray;fill:none"/><path d="M136 362 136 364 136 362 138 360 " style="stroke:gray;fill:none"/><path d="M188 359 186 361 189 362 " style="stroke:gray;fill:none"/><path d="M188 359 186 361 " style="stroke:gray;fill:none"/><path d="M148 357 145 358 144 361 143 363 143 366 144 369 147 372 153 375 155 376 153 375 149 373 143 367 143 363 144 360 147 357 150 356 153 359 158 359 160 357 157 359 154 359 152 357 " style="stroke:gray;fill:none"/><path d="M244 354 242 357 " style="stroke:gray;fill:none"/><path d="M190 352 177 353 172 355 171 358 169 360 163 361 161 360 163 361 168 361 170 358 171 361 169 371 165 370 165 365 160 365 159 370 157 371 156 373 157 375 159 377 161 378 165 379 170 380 170 383 170 381 172 379 183 379 186 377 190 377 192 375 195 374 197 370 198 366 199 360 199 355 196 352 " style="stroke:gray;fill:none"/><path d="M186 369 186 373 184 371 " style="stroke:gray;fill:none"/><path d="M160 365 166 366 165 370 160 370 158 367 " style="stroke:gray;fill:none"/><path d="M190 352 195 352 199 356 199 360 198 366 197 370 196 372 194 374 190 374 188 374 190 377 185 376 187 372 186 369 184 371 185 377 183 379 172 379 169 379 165 379 162 378 160 377 156 373 159 370 166 371 170 370 170 363 171 359 172 356 174 354 177 353 " style="stroke:gray;fill:none"/><path d="M139 352 " style="stroke:gray;fill:none"/><path d="M157 351 155 353 151 354 149 354 151 354 155 353 157 351 160 351 171 352 160 351 " style="stroke:gray;fill:none"/><path d="M140 350 " style="stroke:gray;fill:none"/><path d="M173 349 173 351 " style="stroke:gray;fill:none"/><path d="M199 343 202 343 " style="stroke:gray;fill:none"/><path d="M147 343 148 346 150 346 148 343 150 343 152 345 150 343 " style="stroke:gray;fill:none"/><path d="M142 341 " style="stroke:gray;fill:none"/><path d="M140 341 139 344 141 343 " style="stroke:gray;fill:none"/><path d="M334 340 " style="stroke:gray;fill:none"/><path d="M94 339 92 341 92 343 91 346 90 347 90 349 90 347 91 344 92 341 " style="stroke:gray;fill:none"/><path d="M330 339 331 342 336 342 336 338 " style="stroke:gray;fill:none"/><path d="M332 338 336 339 335 342 332 342 330 340 " style="stroke:gray;fill:none"/><path d="M143 338 " style="stroke:gray;fill:none"/><path d="M147 338 149 339 151 337 " style="stroke:gray;fill:none"/><path d="M141 337 141 339 " style="stroke:gray;fill:none"/><path d="M96 336 " style="stroke:gray;fill:none"/><path d="M143 336 149 335 151 335 149 334 144 334 149 335 142 335 143 331 " style="stroke:gray;fill:none"/><path d="M98 333 100 331 " style="stroke:gray;fill:none"/><path d="M104 330 102 332 99 336 96 340 94 344 93 348 92 352 92 357 93 360 94 363 95 365 100 370 104 372 108 373 116 373 119 372 122 369 122 367 121 364 118 363 111 356 109 353 109 352 105 348 105 346 107 344 108 342 107 330 " style="stroke:gray;fill:none"/><path d="M106 330 108 332 108 341 107 343 105 345 105 348 106 350 109 354 111 357 117 363 121 366 122 368 118 372 116 373 108 373 105 372 101 370 95 364 93 360 92 357 92 352 93 348 94 345 96 341 99 337 102 333 " style="stroke:gray;fill:none"/><path d="M243 327 239 328 236 329 226 334 223 336 220 338 214 343 210 347 209 350 216 342 222 337 225 335 228 333 236 329 239 328 243 327 246 327 248 328 250 331 248 328 246 327 " style="stroke:gray;fill:none"/><path d="M126 326 121 327 118 328 115 331 114 333 114 349 115 352 116 354 120 358 122 358 125 360 131 360 134 359 138 357 141 354 143 350 143 347 141 347 138 348 135 345 135 343 136 339 137 334 138 333 138 331 137 329 135 327 132 326 " style="stroke:gray;fill:none"/><path d="M126 326 132 326 134 327 138 331 138 333 137 338 136 339 135 343 135 345 136 347 140 348 142 350 141 353 137 357 131 360 125 360 121 358 115 352 114 349 114 334 115 332 119 328 121 327 " style="stroke:gray;fill:none"/><path d="M136 324 " style="stroke:gray;fill:none"/><path d="M133 324 " style="stroke:gray;fill:none"/><path d="M253 324 255 321 " style="stroke:gray;fill:none"/><path d="M140 320 " style="stroke:gray;fill:none"/><path d="M129 318 " style="stroke:gray;fill:none"/><path d="M201 316 201 319 199 321 194 325 191 327 187 329 185 329 182 331 180 331 182 331 185 329 187 329 193 326 196 324 201 319 " style="stroke:gray;fill:none"/><path d="M233 315 224 324 220 327 217 329 214 331 210 333 208 333 205 335 203 335 200 337 197 338 193 339 186 340 172 341 166 341 159 340 158 339 154 340 154 343 156 345 159 346 166 347 180 348 180 351 181 347 191 346 203 346 206 349 206 354 205 358 204 359 204 364 203 371 202 374 201 376 197 380 194 382 191 383 188 384 184 385 165 385 161 384 158 383 155 382 152 381 144 377 137 370 134 367 131 367 128 370 122 377 121 377 119 379 118 381 118 395 116 397 115 400 112 403 111 405 111 407 109 409 108 411 107 414 106 417 105 420 104 424 104 428 105 430 109 431 111 429 113 428 116 427 118 427 121 428 125 430 130 435 132 438 132 439 137 440 139 438 142 434 145 430 144 422 145 418 148 420 151 421 153 423 157 423 160 426 161 429 158 432 157 435 158 441 158 444 156 450 157 452 156 456 155 459 154 460 154 464 152 466 148 474 148 477 147 479 147 482 148 484 148 486 149 488 153 492 156 493 162 493 165 492 168 491 171 489 174 487 178 483 178 480 177 478 174 475 170 472 167 468 166 466 166 463 168 460 172 456 176 454 178 454 181 454 183 454 188 457 192 457 195 454 196 451 197 448 198 445 199 441 200 435 200 429 201 424 202 420 203 416 204 412 205 409 206 405 207 402 208 401 208 398 209 394 210 390 211 387 213 383 219 377 233 364 238 358 240 355 243 351 245 348 251 336 251 334 253 331 253 327 249 323 247 323 245 322 242 320 238 316 236 315 " style="stroke:gray;fill:none"/><path d="M159 425 162 425 161 429 " style="stroke:gray;fill:none"/><path d="M234 315 236 315 241 320 244 322 246 323 248 323 253 328 253 331 250 336 250 338 249 340 247 342 245 347 243 350 240 354 238 357 233 363 218 377 213 382 212 384 211 387 210 390 209 394 208 398 208 401 207 404 206 405 205 409 204 412 203 416 202 420 201 424 200 429 200 435 199 441 198 445 197 448 196 451 195 453 191 457 189 457 186 455 183 454 181 454 178 454 176 454 173 455 171 456 168 459 166 463 166 466 168 470 170 473 172 475 178 480 178 482 173 487 170 489 167 491 165 492 162 493 156 493 154 492 149 487 147 482 147 479 148 477 148 475 154 464 154 460 155 457 156 456 157 452 156 450 158 444 158 441 157 435 158 433 162 429 167 429 167 426 165 425 166 429 162 428 163 425 158 424 154 423 151 421 149 421 144 419 144 422 145 429 142 433 139 437 136 440 134 440 132 438 130 435 130 434 126 430 124 429 121 428 118 427 116 427 113 428 109 430 107 431 104 428 104 424 105 420 106 417 107 414 109 410 111 408 111 406 112 404 115 401 118 395 118 381 122 377 128 372 128 371 135 368 137 370 143 377 145 378 147 378 152 381 155 382 158 383 161 384 165 385 184 385 188 384 191 383 194 382 198 380 201 377 202 374 203 371 204 364 204 359 205 355 206 354 206 348 204 346 191 346 180 348 166 347 159 346 157 345 154 341 156 339 158 339 165 340 166 341 172 341 186 340 193 339 197 338 200 337 203 336 206 335 218 329 221 327 225 324 " style="stroke:gray;fill:none"/><path d="M175 316 " style="stroke:gray;fill:none"/><path d="M151 316 " style="stroke:gray;fill:none"/><path d="M182 315 " style="stroke:gray;fill:none"/><path d="M142 315 " style="stroke:gray;fill:none"/><path d="M191 314 " style="stroke:gray;fill:none"/><path d="M276 312 275 314 272 316 275 315 " style="stroke:gray;fill:none"/><path d="M199 311 " style="stroke:gray;fill:none"/><path d="M133 312 137 311 135 310 " style="stroke:gray;fill:none"/><path d="M245 310 " style="stroke:gray;fill:none"/><path d="M261 307 262 309 264 310 270 310 264 310 " style="stroke:gray;fill:none"/><path d="M234 307 234 311 236 311 236 307 " style="stroke:gray;fill:none"/><path d="M235 307 233 309 " style="stroke:gray;fill:none"/><path d="M405 306 403 308 403 312 404 314 406 315 409 315 411 314 412 307 410 306 " style="stroke:gray;fill:none"/><path d="M410 306 412 308 411 314 409 315 406 315 403 312 403 308 405 306 " style="stroke:gray;fill:none"/><path d="M230 304 " style="stroke:gray;fill:none"/><path d="M229 301 226 302 224 304 215 308 213 310 210 311 207 312 204 313 201 314 198 315 194 316 189 317 184 318 174 319 152 319 142 318 141 317 131 318 134 321 136 321 138 322 142 325 147 330 149 331 152 332 156 333 161 334 183 334 189 333 193 332 197 331 201 330 204 329 207 328 213 325 216 323 220 320 228 312 231 308 233 304 233 302 231 300 " style="stroke:gray;fill:none"/><path d="M132 319 " style="stroke:gray;fill:none"/><path d="M229 301 231 301 232 306 229 310 219 320 215 323 212 325 204 329 201 330 197 331 193 332 189 333 183 334 161 334 156 333 152 332 149 331 143 325 139 322 138 322 137 320 135 321 134 317 141 317 151 318 152 319 174 319 184 318 189 317 194 316 198 315 201 314 204 313 207 312 210 311 213 310 223 305 225 303 " style="stroke:gray;fill:none"/><path d="M250 298 " style="stroke:gray;fill:none"/><path d="M99 297 100 299 102 301 110 300 112 300 115 303 116 306 118 308 122 311 120 315 117 315 113 320 110 323 107 324 103 328 109 323 112 322 115 317 117 315 121 316 123 316 122 311 118 308 116 306 115 304 114 301 112 300 109 300 102 301 100 299 " style="stroke:gray;fill:none"/><path d="M238 296 239 298 239 301 241 301 241 298 " style="stroke:gray;fill:none"/><path d="M240 298 240 301 " style="stroke:gray;fill:none"/><path d="M247 295 " style="stroke:gray;fill:none"/><path d="M183 296 186 296 186 294 " style="stroke:gray;fill:none"/><path d="M246 291 244 293 244 297 247 300 251 300 252 300 253 295 251 292 " style="stroke:gray;fill:none"/><path d="M247 291 249 291 251 293 253 296 253 298 249 301 244 296 244 294 " style="stroke:gray;fill:none"/><path d="M189 291 " style="stroke:gray;fill:none"/><path d="M239 290 238 292 238 294 238 292 240 290 240 294 241 290 " style="stroke:gray;fill:none"/><path d="M192 290 " style="stroke:gray;fill:none"/><path d="M230 287 " style="stroke:gray;fill:none"/><path d="M123 286 " style="stroke:gray;fill:none"/><path d="M196 285 194 288 " style="stroke:gray;fill:none"/><path d="M102 282 99 283 " style="stroke:gray;fill:none"/><path d="M93 283 " style="stroke:gray;fill:none"/><path d="M260 281 257 282 255 284 255 287 261 298 261 301 260 303 255 308 252 308 246 306 242 308 242 311 247 316 249 317 253 318 261 319 265 318 269 316 275 310 277 307 278 304 279 301 279 293 278 290 277 288 273 284 269 282 266 281 " style="stroke:gray;fill:none"/><path d="M260 281 266 281 269 282 272 284 277 289 279 293 279 301 278 304 277 306 275 309 268 316 265 318 261 319 253 318 250 317 248 316 242 309 244 307 246 306 252 308 255 308 257 307 260 304 261 301 261 298 260 295 258 291 256 289 255 287 255 285 258 282 " style="stroke:gray;fill:none"/><path d="M249 281 247 283 247 286 247 283 249 281 249 285 " style="stroke:gray;fill:none"/><path d="M108 281 109 284 110 286 108 285 110 284 108 282 110 282 " style="stroke:gray;fill:none"/><path d="M254 276 253 280 " style="stroke:gray;fill:none"/><path d="M231 275 " style="stroke:gray;fill:none"/><path d="M256 272 " style="stroke:gray;fill:none"/><path d="M140 272 138 273 136 276 136 278 138 280 140 281 142 280 144 277 144 275 142 273 " style="stroke:gray;fill:none"/><path d="M140 272 144 277 140 281 136 276 " style="stroke:gray;fill:none"/><path d="M231 269 " style="stroke:gray;fill:none"/><path d="M120 269 " style="stroke:gray;fill:none"/><path d="M93 267 92 269 93 276 92 269 " style="stroke:gray;fill:none"/><path d="M273 266 272 268 269 269 265 268 264 271 266 273 268 273 273 271 268 273 266 273 264 271 267 267 268 269 272 268 " style="stroke:gray;fill:none"/><path d="M119 266 " style="stroke:gray;fill:none"/><path d="M260 265 259 271 260 275 257 278 255 280 257 279 259 277 260 275 259 271 " style="stroke:gray;fill:none"/><path d="M120 264 " style="stroke:gray;fill:none"/><path d="M97 262 96 264 95 268 95 279 96 284 97 289 98 291 100 293 101 296 105 298 107 297 107 292 106 288 105 283 104 282 103 277 103 267 101 262 " style="stroke:gray;fill:none"/><path d="M97 263 100 262 102 264 103 267 103 277 104 282 105 287 106 288 107 292 107 296 105 298 103 297 101 295 99 292 97 289 96 284 95 279 95 268 96 265 " style="stroke:gray;fill:none"/><path d="M277 261 " style="stroke:gray;fill:none"/><path d="M280 260 " style="stroke:gray;fill:none"/><path d="M209 260 208 262 208 265 207 268 206 270 207 268 207 266 208 262 " style="stroke:gray;fill:none"/><path d="M120 260 " style="stroke:gray;fill:none"/><path d="M279 258 " style="stroke:gray;fill:none"/><path d="M120 258 " style="stroke:gray;fill:none"/><path d="M106 257 105 259 103 259 100 258 98 259 100 258 102 258 106 259 " style="stroke:gray;fill:none"/><path d="M257 256 258 258 257 266 258 258 " style="stroke:gray;fill:none"/><path d="M281 255 " style="stroke:gray;fill:none"/><path d="M252 252 250 253 " style="stroke:gray;fill:none"/><path d="M111 251 111 253 109 255 109 268 112 271 113 275 112 278 114 282 114 284 113 287 112 288 112 290 113 293 115 296 115 298 118 304 122 308 125 309 127 308 128 303 126 301 124 297 124 295 123 292 122 289 121 287 117 283 116 280 115 275 115 269 117 267 117 258 115 251 " style="stroke:gray;fill:none"/><path d="M111 252 114 251 116 253 117 258 117 266 115 268 115 275 116 281 117 284 122 289 123 292 124 295 124 297 128 304 128 306 125 309 123 308 117 302 115 298 115 296 113 293 112 290 112 288 114 285 114 281 112 277 113 275 112 270 109 267 109 256 " style="stroke:gray;fill:none"/><path d="M119 250 " style="stroke:gray;fill:none"/><path d="M228 249 " style="stroke:gray;fill:none"/><path d="M287 248 " style="stroke:gray;fill:none"/><path d="M25 246 26 248 " style="stroke:gray;fill:none"/><path d="M288 246 " style="stroke:gray;fill:none"/><path d="M286 245 285 248 " style="stroke:gray;fill:none"/><path d="M118 244 118 246 " style="stroke:gray;fill:none"/><path d="M25 244 27 243 30 244 30 246 28 247 31 246 29 245 31 244 " style="stroke:gray;fill:none"/><path d="M385 242 386 245 391 245 387 245 " style="stroke:gray;fill:none"/><path d="M116 243 116 246 118 242 " style="stroke:gray;fill:none"/><path d="M125 239 " style="stroke:gray;fill:none"/><path d="M388 238 385 239 388 242 390 240 " style="stroke:gray;fill:none"/><path d="M388 238 390 240 388 242 386 240 " style="stroke:gray;fill:none"/><path d="M256 237 254 238 254 241 256 237 258 237 " style="stroke:gray;fill:none"/><path d="M243 236 242 239 244 243 244 245 245 248 246 249 247 253 248 260 249 273 253 273 254 271 255 267 255 253 254 249 253 246 252 242 251 240 247 236 " style="stroke:gray;fill:none"/><path d="M243 237 246 236 251 241 252 243 253 246 254 249 255 253 255 267 254 271 251 274 248 271 248 260 247 253 246 249 245 246 244 245 243 242 242 239 " style="stroke:gray;fill:none"/><path d="M226 236 " style="stroke:gray;fill:none"/><path d="M388 235 386 237 388 235 394 236 394 242 393 244 393 235 " style="stroke:gray;fill:none"/><path d="M293 235 " style="stroke:gray;fill:none"/><path d="M228 238 228 240 229 244 230 248 231 250 235 254 236 258 234 260 235 264 235 266 236 268 234 270 233 272 232 283 232 285 233 288 237 288 239 286 240 284 241 281 242 275 242 272 241 269 240 264 238 262 239 258 238 255 237 254 237 252 239 250 239 247 238 244 237 241 236 239 232 235 " style="stroke:gray;fill:none"/><path d="M237 268 239 268 241 270 242 272 242 275 241 281 239 285 236 288 233 287 232 285 232 283 233 272 " style="stroke:gray;fill:none"/><path d="M238 262 239 267 237 268 235 266 235 264 " style="stroke:gray;fill:none"/><path d="M235 261 " style="stroke:gray;fill:none"/><path d="M231 235 236 240 237 242 237 244 239 247 239 249 237 252 237 255 239 258 236 261 236 257 235 253 230 248 229 244 229 241 228 239 230 237 " style="stroke:gray;fill:none"/><path d="M228 235 " style="stroke:gray;fill:none"/><path d="M131 235 " style="stroke:gray;fill:none"/><path d="M153 234 147 237 144 240 141 246 141 253 143 257 148 262 152 264 160 264 166 261 168 259 171 253 172 250 172 248 171 245 166 238 164 236 160 234 " style="stroke:gray;fill:none"/><path d="M153 234 160 234 162 235 166 238 168 240 170 243 171 245 172 248 172 250 171 253 169 257 164 262 160 264 152 264 150 263 142 255 141 253 141 246 143 242 149 236 " style="stroke:gray;fill:none"/><path d="M133 234 " style="stroke:gray;fill:none"/><path d="M135 233 " style="stroke:gray;fill:none"/><path d="M294 233 296 234 296 232 " style="stroke:gray;fill:none"/><path d="M137 232 " style="stroke:gray;fill:none"/><path d="M113 231 112 233 110 237 112 241 112 246 108 250 107 254 107 252 112 247 112 241 110 237 112 233 " style="stroke:gray;fill:none"/><path d="M114 229 " style="stroke:gray;fill:none"/><path d="M338 228 " style="stroke:gray;fill:none"/><path d="M244 228 244 230 " style="stroke:gray;fill:none"/><path d="M311 227 " style="stroke:gray;fill:none"/><path d="M115 227 " style="stroke:gray;fill:none"/><path d="M255 225 257 225 " style="stroke:gray;fill:none"/><path d="M345 225 342 227 340 227 342 227 345 225 347 224 " style="stroke:gray;fill:none"/><path d="M199 221 " style="stroke:gray;fill:none"/><path d="M196 221 " style="stroke:gray;fill:none"/><path d="M164 220 " style="stroke:gray;fill:none"/><path d="M353 219 " style="stroke:gray;fill:none"/><path d="M177 219 176 221 172 222 166 222 161 223 157 224 154 225 151 226 148 227 145 228 141 230 139 231 141 230 145 228 148 228 151 226 154 225 157 224 161 223 166 222 173 221 187 221 193 222 199 223 203 224 207 225 210 226 213 227 215 228 221 234 222 236 223 239 224 242 225 245 226 249 227 254 228 258 228 282 227 287 226 291 224 295 219 300 205 307 202 308 199 309 195 310 191 311 186 312 180 313 155 312 157 310 161 310 164 309 169 306 171 306 174 305 176 304 179 301 182 299 185 298 195 298 199 297 203 295 206 293 211 288 213 285 214 283 215 280 216 276 216 267 215 265 212 263 211 261 210 255 210 249 209 245 208 242 207 240 205 237 202 233 200 231 197 229 191 226 187 225 170 225 165 226 164 227 158 227 154 228 151 229 147 230 142 233 139 233 129 238 123 243 123 246 122 267 123 274 124 279 125 283 126 286 128 289 128 292 130 294 134 302 134 304 141 311 143 312 156 313 180 313 186 312 191 311 195 310 199 309 202 308 205 307 208 306 214 303 216 301 218 300 220 300 224 296 225 294 226 291 227 287 228 282 228 258 227 254 226 249 225 245 224 242 223 239 222 235 221 233 217 229 211 226 207 225 203 224 199 223 193 222 187 221 " style="stroke:gray;fill:none"/><path d="M199 284 199 287 " style="stroke:gray;fill:none"/><path d="M206 273 208 275 207 277 205 280 200 285 199 282 200 280 202 277 204 274 " style="stroke:gray;fill:none"/><path d="M170 225 187 225 191 226 195 228 198 230 203 235 206 239 208 242 209 245 210 249 211 256 212 262 212 264 210 267 210 270 208 274 205 273 203 275 201 278 199 282 198 285 199 287 195 291 191 293 189 294 189 296 191 293 194 292 197 290 200 287 205 281 207 278 208 276 209 273 209 271 210 267 212 265 214 265 216 267 216 276 215 280 214 283 211 287 204 294 201 296 199 297 195 298 185 298 182 299 180 300 177 302 174 305 171 306 169 306 164 309 161 310 157 310 154 312 144 312 142 311 134 303 128 291 127 288 126 285 125 282 124 278 123 273 122 267 122 248 124 243 130 238 140 233 142 233 147 230 151 229 154 228 158 227 164 227 " style="stroke:gray;fill:none"/><path d="M167 220 " style="stroke:gray;fill:none"/><path d="M355 217 " style="stroke:gray;fill:none"/><path d="M255 217 257 217 " style="stroke:gray;fill:none"/><path d="M127 213 " style="stroke:gray;fill:none"/><path d="M360 211 " style="stroke:gray;fill:none"/><path d="M290 209 " style="stroke:gray;fill:none"/><path d="M272 207 272 215 268 222 268 231 267 234 266 238 265 241 263 244 263 248 264 254 263 257 261 260 262 258 263 255 264 254 263 248 263 244 265 241 266 238 267 234 268 231 268 222 272 215 273 207 275 207 " style="stroke:gray;fill:none"/><path d="M282 204 278 205 278 212 277 217 276 218 276 228 275 231 274 232 274 236 273 240 272 241 271 244 271 250 270 255 269 256 270 263 273 263 274 261 276 258 278 255 280 252 283 245 287 242 288 240 289 238 289 236 291 232 296 228 296 222 291 217 289 214 287 210 286 205 284 204 " style="stroke:gray;fill:none"/><path d="M282 204 284 204 286 205 287 210 290 216 292 219 296 223 296 227 294 229 289 236 289 238 288 240 284 243 282 247 281 250 279 253 277 256 275 258 274 261 272 263 269 262 269 256 270 251 271 250 271 244 272 241 273 237 274 236 274 232 275 229 276 228 276 218 277 213 278 212 279 205 " style="stroke:gray;fill:none"/><path d="M214 204 " style="stroke:gray;fill:none"/><path d="M141 204 139 205 " style="stroke:gray;fill:none"/><path d="M269 202 271 204 275 205 273 205 " style="stroke:gray;fill:none"/><path d="M169 202 171 203 173 203 176 204 179 205 189 210 191 212 191 214 191 211 189 210 179 205 176 204 173 203 171 203 " style="stroke:gray;fill:none"/><path d="M167 202 " style="stroke:gray;fill:none"/><path d="M262 200 260 202 259 211 259 235 259 211 260 202 262 200 267 201 " style="stroke:gray;fill:none"/><path d="M323 200 321 200 320 202 320 204 322 206 326 211 329 210 330 207 330 205 326 200 " style="stroke:gray;fill:none"/><path d="M325 199 329 203 330 205 330 207 328 211 326 211 322 207 321 204 320 202 322 200 " style="stroke:gray;fill:none"/><path d="M368 198 368 200 365 205 365 207 363 210 363 212 360 214 358 218 354 222 349 225 347 228 345 229 340 230 311 230 307 228 303 228 301 230 301 232 300 234 294 240 292 244 292 246 290 249 287 252 283 261 279 265 275 273 274 277 274 280 275 282 275 280 275 277 275 273 278 267 282 263 286 254 289 251 291 248 292 246 292 244 293 242 300 235 301 232 301 230 303 228 307 228 311 230 340 230 345 229 348 228 351 224 359 217 359 216 363 213 363 210 365 207 365 205 367 203 368 200 " style="stroke:gray;fill:none"/><path d="M237 198 237 200 238 204 239 207 240 208 241 212 242 227 241 233 238 234 236 234 229 227 228 224 227 221 227 219 227 221 228 224 229 227 230 229 234 233 236 234 238 234 242 232 242 227 241 212 240 208 239 205 238 204 238 200 " style="stroke:gray;fill:none"/><path d="M179 198 168 199 163 200 162 201 156 201 153 202 150 203 147 204 145 206 143 206 135 210 131 213 127 216 122 221 120 224 118 227 115 233 115 238 119 238 123 235 125 233 128 231 131 230 133 228 145 222 148 221 151 220 155 219 159 218 164 217 172 216 190 216 197 217 204 218 208 219 211 220 214 221 215 222 218 223 222 224 224 223 224 219 218 213 214 210 211 208 203 204 200 203 197 202 194 201 189 200 184 200 " style="stroke:gray;fill:none"/><path d="M179 198 184 200 189 200 194 201 197 202 200 203 203 204 209 207 213 210 217 213 224 220 224 222 222 224 218 223 215 222 212 221 211 220 208 219 204 218 197 217 190 216 172 216 164 217 159 218 155 219 151 220 148 221 145 222 142 224 140 224 132 228 130 230 127 231 124 233 122 235 118 238 115 237 115 233 116 231 118 228 120 225 122 222 128 216 132 213 136 210 150 203 153 202 156 201 162 201 167 200 168 199 " style="stroke:gray;fill:none"/><path d="M299 197 " style="stroke:gray;fill:none"/><path d="M295 197 290 198 276 198 290 198 295 197 297 196 " style="stroke:gray;fill:none"/><path d="M235 197 233 199 231 201 228 203 225 204 223 206 221 206 219 207 217 209 219 207 221 206 223 206 225 205 227 203 230 202 233 200 235 198 237 196 " style="stroke:gray;fill:none"/><path d="M249 194 247 195 247 199 246 208 246 212 247 217 248 218 250 233 248 232 248 218 247 213 246 212 246 208 247 199 246 197 249 194 251 195 254 198 252 205 253 217 253 225 251 227 253 225 253 217 252 205 254 200 255 198 253 196 251 195 " style="stroke:gray;fill:none"/><path d="M230 189 227 191 224 191 221 192 218 193 214 194 211 196 210 198 211 200 215 202 220 202 223 202 225 202 228 200 232 197 234 195 235 192 234 190 232 189 " style="stroke:gray;fill:none"/><path d="M230 189 232 189 235 192 234 194 231 197 227 200 224 202 221 203 215 202 213 201 210 198 214 194 218 193 221 192 224 191 227 191 " style="stroke:gray;fill:none"/><path d="M362 188 359 192 359 196 360 199 361 201 365 200 366 198 366 192 364 190 " style="stroke:gray;fill:none"/><path d="M363 190 366 193 366 198 362 201 360 199 359 196 358 194 " style="stroke:gray;fill:none"/><path d="M169 188 170 190 173 192 181 193 188 193 192 194 196 195 199 196 202 197 207 200 209 201 207 199 205 199 202 197 199 196 196 195 192 194 188 193 181 193 174 192 172 191 " style="stroke:gray;fill:none"/><path d="M367 188 " style="stroke:gray;fill:none"/><path d="M196 184 " style="stroke:gray;fill:none"/><path d="M167 184 " style="stroke:gray;fill:none"/><path d="M368 183 369 195 " style="stroke:gray;fill:none"/><path d="M166 182 " style="stroke:gray;fill:none"/><path d="M368 180 " style="stroke:gray;fill:none"/><path d="M319 179 321 179 " style="stroke:gray;fill:none"/><path d="M165 179 " style="stroke:gray;fill:none"/><path d="M74 178 77 178 " style="stroke:gray;fill:none"/><path d="M74 178 77 178 " style="stroke:gray;fill:none"/><path d="M194 174 190 176 188 178 188 180 189 182 192 183 196 182 198 181 200 180 200 177 198 175 196 174 " style="stroke:gray;fill:none"/><path d="M194 174 196 174 198 175 200 177 200 179 198 181 196 182 192 183 190 182 188 179 192 175 " style="stroke:gray;fill:none"/><path d="M298 173 298 176 301 177 304 178 306 178 304 178 301 177 299 176 " style="stroke:gray;fill:none"/><path d="M322 171 324 173 327 172 324 172 " style="stroke:gray;fill:none"/><path d="M164 171 167 175 170 179 171 183 173 185 176 187 184 187 189 186 192 186 194 185 192 186 189 186 184 187 176 187 173 185 171 183 171 180 167 176 167 174 " style="stroke:gray;fill:none"/><path d="M74 172 72 174 71 176 70 179 71 181 74 181 72 181 70 179 71 176 78 172 78 174 80 177 79 180 77 181 80 179 80 176 78 174 77 171 " style="stroke:gray;fill:none"/><path d="M221 170 223 172 226 176 229 180 229 181 235 187 236 189 234 186 228 179 225 175 225 174 " style="stroke:gray;fill:none"/><path d="M333 169 328 175 326 177 325 175 325 178 321 182 323 181 327 177 " style="stroke:gray;fill:none"/><path d="M325 178 " style="stroke:gray;fill:none"/><path d="M348 168 347 170 345 172 344 175 341 179 329 191 324 195 321 197 309 203 306 204 303 204 298 205 295 206 293 207 292 209 291 211 292 213 294 216 299 221 303 224 307 226 309 226 307 225 304 224 300 221 294 215 291 211 293 208 295 206 298 206 303 205 307 204 310 203 322 197 325 195 330 191 341 180 344 176 345 173 347 170 " style="stroke:gray;fill:none"/><path d="M337 168 338 170 " style="stroke:gray;fill:none"/><path d="M208 166 206 168 207 170 210 172 212 172 213 167 215 167 219 171 217 173 217 176 220 178 222 179 224 179 226 181 226 184 224 186 218 189 215 189 213 188 208 183 206 182 199 183 206 182 211 187 215 189 218 189 224 186 226 185 226 180 224 179 222 179 219 177 218 173 219 170 216 167 211 166 " style="stroke:gray;fill:none"/><path d="M208 166 210 166 212 168 211 172 209 171 206 168 " style="stroke:gray;fill:none"/><path d="M345 165 " style="stroke:gray;fill:none"/><path d="M225 165 223 166 224 169 227 169 225 169 223 167 225 165 228 167 229 169 227 166 " style="stroke:gray;fill:none"/><path d="M354 163 351 166 351 170 357 176 359 179 359 180 362 183 363 185 365 184 366 182 366 177 363 171 360 167 356 163 " style="stroke:gray;fill:none"/><path d="M355 163 360 168 363 172 365 175 366 177 366 181 365 183 363 184 361 182 358 178 356 175 354 173 352 171 351 169 351 167 " style="stroke:gray;fill:none"/><path d="M345 161 342 162 343 164 343 162 346 161 347 164 347 161 " style="stroke:gray;fill:none"/><path d="M359 156 357 158 358 160 364 166 365 170 364 166 361 163 359 161 357 158 " style="stroke:gray;fill:none"/><path d="M361 155 363 155 " style="stroke:gray;fill:none"/><path d="M167 155 " style="stroke:gray;fill:none"/><path d="M263 151 263 153 " style="stroke:gray;fill:none"/><path d="M271 150 271 152 " style="stroke:gray;fill:none"/><path d="M212 148 217 148 " style="stroke:gray;fill:none"/><path d="M170 148 171 151 169 153 173 149 173 147 " style="stroke:gray;fill:none"/><path d="M173 148 171 151 " style="stroke:gray;fill:none"/><path d="M379 145 376 147 378 147 " style="stroke:gray;fill:none"/><path d="M174 142 173 144 " style="stroke:gray;fill:none"/><path d="M380 142 " style="stroke:gray;fill:none"/><path d="M1 142 0 145 1 149 3 149 0 148 0 146 2 141 5 141 7 142 10 145 9 149 6 148 6 144 4 147 5 144 5 149 7 149 10 148 10 145 9 143 7 142 5 141 " style="stroke:gray;fill:none"/><path d="M329 140 331 141 " style="stroke:gray;fill:none"/><path d="M213 141 216 141 217 144 218 146 217 144 216 140 " style="stroke:gray;fill:none"/><path d="M208 139 " style="stroke:gray;fill:none"/><path d="M175 140 177 139 " style="stroke:gray;fill:none"/><path d="M342 138 " style="stroke:gray;fill:none"/><path d="M221 138 222 140 222 142 222 140 " style="stroke:gray;fill:none"/><path d="M380 136 380 138 " style="stroke:gray;fill:none"/><path d="M354 136 354 140 360 140 354 139 355 136 357 138 360 138 358 138 356 137 " style="stroke:gray;fill:none"/><path d="M376 131 379 134 378 132 " style="stroke:gray;fill:none"/><path d="M191 130 189 133 191 132 " style="stroke:gray;fill:none"/><path d="M147 131 " style="stroke:gray;fill:none"/><path d="M358 129 358 133 361 136 363 138 364 140 361 143 359 144 355 145 352 146 348 147 344 148 338 149 331 150 323 151 313 151 304 152 303 153 284 153 272 154 271 155 251 155 229 154 220 153 215 152 211 151 208 150 205 147 205 145 207 143 211 140 211 136 209 135 206 135 203 137 201 137 197 139 195 141 191 146 191 148 192 151 195 154 203 158 206 159 210 160 214 161 218 162 223 163 232 164 239 164 248 166 246 171 244 169 244 167 243 171 239 171 234 170 231 174 233 177 243 187 247 190 250 192 260 197 263 198 266 199 269 200 276 201 294 201 299 200 302 198 305 198 308 197 311 196 317 193 319 191 321 191 325 188 337 176 340 172 341 170 341 168 340 166 335 166 328 167 323 168 322 169 315 170 302 171 286 172 283 172 277 171 252 172 250 171 248 169 248 167 250 165 254 165 291 166 303 165 313 164 320 163 326 162 331 161 336 160 341 159 346 158 349 157 353 156 356 154 358 154 361 153 366 150 368 150 372 148 377 143 378 141 378 138 377 136 372 131 370 131 367 129 363 128 " style="stroke:gray;fill:none"/><path d="M235 170 238 170 250 171 251 172 277 171 282 171 284 173 285 177 287 177 290 178 292 179 297 180 316 180 319 183 314 188 310 191 307 192 305 194 302 195 301 199 299 200 294 201 276 201 269 200 266 199 263 198 260 197 252 193 249 191 245 188 232 175 232 173 " style="stroke:gray;fill:none"/><path d="M335 166 340 167 341 169 340 171 337 175 324 188 320 191 317 192 315 194 313 195 311 195 308 197 306 197 304 198 302 196 304 194 307 193 309 191 312 190 315 187 319 184 321 185 323 184 325 182 328 181 333 176 331 178 326 182 323 183 319 184 318 181 316 180 297 180 292 179 290 178 287 177 290 174 292 174 294 177 294 175 292 174 290 174 287 177 284 176 285 172 287 171 302 171 315 170 322 169 327 168 328 167 " style="stroke:gray;fill:none"/><path d="M360 128 363 128 367 129 371 131 378 138 378 141 371 148 361 153 358 154 356 154 353 156 349 157 346 158 341 159 336 160 331 161 326 162 320 163 313 164 303 165 291 166 254 165 250 165 247 165 240 165 232 164 223 163 218 162 214 161 210 160 206 159 203 158 199 156 196 154 192 150 191 148 191 146 192 144 195 141 198 139 206 135 208 135 210 136 211 139 206 143 205 145 205 147 206 149 210 150 214 151 215 152 220 153 229 154 251 155 271 155 283 154 284 153 303 153 312 152 313 151 323 151 331 150 338 149 344 148 348 147 352 146 355 145 359 144 363 142 364 140 364 138 363 136 358 132 358 130 " style="stroke:gray;fill:none"/><path d="M212 129 212 133 212 134 216 134 216 132 215 128 " style="stroke:gray;fill:none"/><path d="M214 128 216 132 214 135 211 131 " style="stroke:gray;fill:none"/><path d="M199 129 " style="stroke:gray;fill:none"/><path d="M196 128 194 130 " style="stroke:gray;fill:none"/><path d="M422 125 422 129 424 127 " style="stroke:gray;fill:none"/><path d="M422 125 424 127 422 129 420 127 " style="stroke:gray;fill:none"/><path d="M198 124 194 125 191 126 188 127 184 129 181 131 178 133 172 139 169 143 165 152 162 152 161 149 159 148 157 148 155 146 152 142 150 139 149 137 148 133 148 136 150 139 152 142 155 145 156 148 159 148 162 151 161 155 162 157 160 160 160 164 162 166 163 177 162 180 163 183 166 188 166 190 167 192 168 194 166 196 163 197 161 198 163 197 168 195 168 193 166 190 166 187 164 185 163 183 162 180 163 177 162 163 163 162 163 159 163 162 161 165 160 160 161 158 164 157 165 153 165 151 167 147 169 144 172 140 176 136 179 137 182 135 184 135 186 134 184 135 181 135 179 137 176 136 179 133 184 132 186 132 183 131 185 129 188 127 191 127 194 125 198 124 206 125 207 128 205 130 203 130 200 131 192 135 189 137 186 140 185 143 185 151 187 155 190 158 193 160 197 162 200 163 203 164 206 165 203 164 200 162 198 162 194 160 191 158 187 154 185 151 185 144 186 141 190 137 194 134 196 133 198 133 203 130 205 130 207 129 207 124 209 126 209 128 208 124 " style="stroke:gray;fill:none"/><path d="M163 153 163 157 161 155 " style="stroke:gray;fill:none"/><path d="M352 123 353 125 357 127 353 126 " style="stroke:gray;fill:none"/><path d="M421 122 419 123 417 125 418 131 420 132 424 132 427 131 427 128 426 125 425 123 423 122 " style="stroke:gray;fill:none"/><path d="M421 122 423 122 426 125 426 128 426 131 424 132 420 132 418 131 417 125 419 123 " style="stroke:gray;fill:none"/><path d="M214 121 214 123 216 123 216 121 " style="stroke:gray;fill:none"/><path d="M215 123 " style="stroke:gray;fill:none"/><path d="M245 116 " style="stroke:gray;fill:none"/><path d="M245 113 248 116 270 127 272 127 279 131 282 132 284 132 289 135 291 135 294 136 299 139 301 139 304 140 305 143 308 142 310 143 308 142 304 140 302 140 299 139 294 136 292 136 289 135 284 132 282 132 279 131 272 127 270 127 250 117 247 115 " style="stroke:gray;fill:none"/><path d="M211 113 " style="stroke:gray;fill:none"/><path d="M216 110 " style="stroke:gray;fill:none"/><path d="M246 104 248 104 258 109 260 111 270 116 272 116 281 121 283 121 286 123 289 124 291 124 296 127 298 127 301 128 306 131 308 131 311 133 313 133 320 137 322 137 324 138 326 142 326 139 324 138 322 137 320 137 313 133 311 133 308 131 306 131 301 128 299 128 296 127 291 124 289 124 286 123 283 121 281 121 272 116 270 116 262 112 260 110 248 104 " style="stroke:gray;fill:none"/><path d="M247 102 " style="stroke:gray;fill:none"/><path d="M215 102 217 103 220 104 222 106 221 110 222 112 220 114 217 113 221 117 221 120 220 124 219 125 218 133 218 140 220 144 222 146 226 148 248 149 250 149 248 149 226 148 224 147 219 142 218 140 218 133 219 125 220 121 221 120 222 116 221 114 223 112 221 110 221 104 218 104 " style="stroke:gray;fill:none"/><path d="M335 99 336 102 " style="stroke:gray;fill:none"/><path d="M148 100 " style="stroke:gray;fill:none"/><path d="M210 98 " style="stroke:gray;fill:none"/><path d="M149 97 " style="stroke:gray;fill:none"/><path d="M207 95 " style="stroke:gray;fill:none"/><path d="M201 94 206 100 213 106 204 98 " style="stroke:gray;fill:none"/><path d="M336 91 341 96 343 100 344 102 343 99 341 96 338 92 " style="stroke:gray;fill:none"/><path d="M365 89 366 91 372 89 371 91 " style="stroke:gray;fill:none"/><path d="M199 88 197 89 197 91 199 92 201 92 199 92 197 90 199 88 201 88 204 91 203 89 201 88 " style="stroke:gray;fill:none"/><path d="M252 86 253 89 255 90 257 90 260 91 263 93 265 93 268 94 271 95 274 97 277 98 280 99 283 100 286 100 289 101 292 103 295 104 298 105 301 105 304 107 307 107 310 108 313 109 316 110 319 111 322 112 325 113 328 114 331 115 334 116 337 117 340 119 340 117 337 117 335 117 332 116 329 115 326 114 323 113 320 112 317 111 316 110 314 110 311 109 310 108 307 107 304 107 301 105 298 105 295 104 292 103 289 101 286 100 283 100 280 99 277 98 274 97 271 95 269 95 266 94 263 93 260 91 258 91 255 90 " style="stroke:gray;fill:none"/><path d="M161 86 159 87 157 88 154 92 152 94 151 96 151 99 150 101 147 104 149 105 147 108 146 113 147 126 149 128 149 130 150 133 154 141 156 143 159 144 162 143 164 141 168 136 168 135 174 129 177 127 180 125 183 123 187 121 190 121 195 120 199 116 198 112 192 107 186 102 182 99 177 95 173 92 170 90 167 88 163 86 " style="stroke:gray;fill:none"/><path d="M161 86 163 86 165 87 168 90 171 92 172 92 176 95 180 98 185 102 190 106 197 112 199 114 199 116 195 120 191 120 187 121 179 125 176 127 173 129 168 134 165 138 165 139 161 143 159 144 157 143 154 140 152 137 150 133 149 130 149 128 147 126 146 113 147 108 149 105 149 102 151 99 151 97 152 95 157 89 160 90 158 93 156 95 160 91 159 88 " style="stroke:gray;fill:none"/><path d="M369 85 367 88 371 87 " style="stroke:gray;fill:none"/><path d="M369 85 371 87 367 87 " style="stroke:gray;fill:none"/><path d="M174 83 " style="stroke:gray;fill:none"/><path d="M367 83 366 85 367 83 370 82 372 85 372 83 370 82 " style="stroke:gray;fill:none"/><path d="M154 81 153 84 148 84 146 81 147 84 155 85 155 88 157 84 160 84 162 83 160 82 162 81 160 80 " style="stroke:gray;fill:none"/><path d="M158 79 160 81 159 84 155 85 154 82 " style="stroke:gray;fill:none"/><path d="M252 78 250 80 246 83 245 83 230 98 227 102 227 104 225 108 224 110 225 108 227 103 230 99 247 83 " style="stroke:gray;fill:none"/><path d="M150 75 152 76 " style="stroke:gray;fill:none"/><path d="M314 75 317 75 320 77 323 79 326 82 329 83 332 86 333 88 331 84 326 82 322 78 319 76 316 75 " style="stroke:gray;fill:none"/><path d="M154 74 " style="stroke:gray;fill:none"/><path d="M262 72 " style="stroke:gray;fill:none"/><path d="M260 72 " style="stroke:gray;fill:none"/><path d="M263 70 " style="stroke:gray;fill:none"/><path d="M185 70 182 72 180 72 178 75 171 75 177 76 181 72 185 70 187 73 184 73 182 75 182 78 186 81 189 83 191 84 195 83 195 78 192 74 196 73 197 70 195 73 192 74 191 72 191 74 195 78 195 82 193 84 191 84 187 81 183 78 182 76 185 73 187 73 189 72 187 70 " style="stroke:gray;fill:none"/><path d="M151 70 149 71 147 73 147 77 147 78 153 79 156 76 158 76 162 78 164 80 167 81 171 84 174 86 178 89 182 92 187 96 192 100 198 105 204 111 210 116 214 113 214 111 204 101 197 95 193 92 189 89 185 86 182 84 179 82 175 80 173 80 171 78 166 76 164 74 161 74 156 71 153 70 " style="stroke:gray;fill:none"/><path d="M151 70 153 70 158 73 160 73 163 74 167 76 169 78 178 82 181 84 184 86 188 89 192 92 196 95 203 101 214 112 215 114 213 116 211 116 206 111 199 105 193 100 188 96 183 92 179 89 175 86 172 84 168 81 165 80 163 78 159 76 155 76 152 79 149 79 146 75 " style="stroke:gray;fill:none"/><path d="M149 67 146 70 149 67 154 67 156 68 154 67 " style="stroke:gray;fill:none"/><path d="M63 61 64 64 66 63 65 61 64 64 " style="stroke:gray;fill:none"/><path d="M284 59 " style="stroke:gray;fill:none"/><path d="M64 59 " style="stroke:gray;fill:none"/><path d="M60 59 59 61 59 65 61 67 64 67 67 66 68 64 66 59 68 61 68 64 66 66 64 67 61 67 59 65 59 61 62 59 " style="stroke:gray;fill:none"/><path d="M271 35 273 35 275 37 276 40 278 42 280 45 281 47 282 50 283 53 283 56 283 53 282 50 281 47 279 43 277 40 275 38 275 36 273 35 " style="stroke:gray;fill:none"/><path d="M257 31 258 33 263 37 271 45 273 48 273 50 275 52 277 57 279 58 278 54 275 53 273 49 273 47 271 44 264 37 259 33 257 33 " style="stroke:gray;fill:none"/><path d="M219 30 " style="stroke:gray;fill:none"/><path d="M258 26 262 27 265 30 262 27 " style="stroke:gray;fill:none"/><path d="M341 25 341 28 " style="stroke:gray;fill:none"/><path d="M341 25 341 28 " style="stroke:gray;fill:none"/><path d="M234 25 229 26 226 28 224 28 221 31 213 33 213 35 208 40 206 43 203 47 202 49 201 52 201 54 200 56 198 57 197 59 197 62 197 59 199 57 200 60 199 73 200 77 201 80 202 83 206 91 210 96 212 98 215 100 218 101 220 101 222 100 224 98 226 95 228 92 228 91 237 82 241 79 244 77 248 74 251 72 253 71 255 71 260 68 264 67 267 66 271 65 275 65 279 64 282 61 283 63 281 66 284 66 293 67 299 68 302 70 304 72 301 72 298 72 293 71 292 70 279 70 271 71 267 72 264 74 262 74 259 75 257 76 255 77 251 82 249 86 248 89 248 92 246 95 246 97 244 100 244 104 243 107 243 110 243 112 242 124 243 129 244 133 245 136 246 139 249 145 252 148 256 149 265 149 286 148 298 147 311 146 324 145 331 144 337 143 342 142 344 141 342 142 337 142 332 143 331 144 324 145 311 146 298 147 286 148 265 149 256 149 253 148 248 143 246 139 245 136 244 133 243 129 242 124 243 112 243 110 243 107 244 105 244 100 246 97 246 95 248 92 248 89 249 86 250 84 255 79 259 80 264 83 267 84 270 85 273 86 276 87 279 88 282 89 285 90 288 91 291 92 294 93 297 94 299 94 302 95 305 96 308 97 311 98 314 99 317 100 320 101 323 102 326 103 329 104 332 105 335 106 337 107 340 109 342 114 342 119 343 122 344 123 344 138 349 139 350 128 349 122 348 118 347 115 346 112 345 109 343 105 341 103 341 101 339 98 336 94 328 86 325 84 324 84 323 82 321 81 318 79 311 76 309 75 307 73 305 73 304 71 301 69 299 68 293 67 285 67 281 65 283 64 284 61 282 61 281 58 281 55 279 52 279 49 277 47 276 44 273 40 268 35 264 32 261 30 258 29 256 27 252 26 248 25 " style="stroke:gray;fill:none"/><path d="M279 70 292 70 296 71 300 72 306 73 308 74 311 76 317 79 320 81 323 84 327 86 336 95 339 99 341 102 341 104 343 106 345 110 345 112 347 115 348 118 349 122 350 128 350 137 345 139 344 137 344 123 343 119 342 118 341 113 341 111 342 109 339 108 337 107 335 106 337 104 339 104 336 104 332 105 330 105 327 104 324 103 321 102 318 101 315 100 312 99 309 98 306 97 303 96 300 95 297 94 294 93 291 92 288 91 285 90 282 89 279 88 276 87 273 86 270 85 267 84 264 83 261 81 259 79 256 77 260 75 263 74 265 74 268 72 272 71 " style="stroke:gray;fill:none"/><path d="M214 32 217 33 213 34 " style="stroke:gray;fill:none"/><path d="M234 25 248 25 252 26 255 27 257 28 260 30 263 32 267 35 273 41 276 45 277 48 279 50 279 52 281 55 281 58 282 60 278 64 275 65 270 66 267 66 264 67 260 68 255 71 253 71 249 73 246 75 243 77 240 79 236 82 228 90 227 93 225 96 220 101 218 101 216 100 213 98 212 96 206 90 204 87 202 83 201 80 200 77 199 73 199 61 200 56 201 53 202 50 203 48 206 44 208 41 214 35 217 33 220 32 223 29 225 28 227 28 229 26 " style="stroke:gray;fill:none"/><path d="M339 21 337 23 338 29 340 30 342 30 344 29 346 28 345 23 341 21 " style="stroke:gray;fill:none"/><path d="M339 21 341 21 343 22 346 25 346 27 344 29 342 30 340 30 337 27 337 23 " style="stroke:gray;fill:none"/></svg>