<svg width="429px" height="547px" xmlns="http://www.w3.org/2000/svg"><path d="M141 492 141 496 145 505 147 507 149 509 150 512 156 518 160 521 163 523 166 524 170 524 172 523 175 520 176 517 177 514 177 505 176 502 175 499 173 497 169 497 167 498 163 499 154 499 152 498 149 496 146 492 144 491 " style="stroke:gray;fill:none"/><path d="M144 491 146 493 148 496 151 498 154 499 163 499 167 498 169 497 171 496 174 502 172 501 170 502 167 505 165 506 158 506 155 505 154 504 152 504 150 507 152 504 154 504 157 505 158 506 165 506 168 505 174 502 177 505 177 514 176 517 175 519 171 523 169 524 167 524 164 523 161 521 157 518 150 511 150 509 146 506 144 503 141 496 140 494 " style="stroke:gray;fill:none"/><path d="M162 479 160 482 159 484 161 490 159 488 159 485 161 481 168 474 " style="stroke:gray;fill:none"/><path d="M101 473 99 474 97 475 95 477 92 481 90 485 89 488 88 492 88 501 89 504 91 506 93 507 96 507 100 506 103 505 106 504 108 503 110 501 116 498 118 498 120 497 124 494 127 491 128 488 128 486 128 483 125 480 115 480 111 479 109 478 107 476 104 475 " style="stroke:gray;fill:none"/><path d="M101 473 103 474 105 476 111 479 115 480 125 480 128 486 128 488 127 490 123 494 119 497 117 498 115 498 109 501 107 503 105 504 103 504 100 506 96 507 94 507 92 506 89 503 88 500 88 492 89 488 92 483 93 481 98 486 103 490 107 491 112 491 115 490 118 489 119 488 122 487 124 490 124 488 122 487 119 488 116 489 115 490 112 491 107 491 103 490 101 489 97 485 95 483 93 481 94 479 99 474 " style="stroke:gray;fill:none"/><path d="M179 459 176 460 174 461 173 463 173 468 176 471 178 472 181 473 186 473 189 470 189 466 188 464 185 461 181 459 " style="stroke:gray;fill:none"/><path d="M179 459 181 459 183 460 189 466 189 469 185 473 181 473 177 471 173 467 173 464 " style="stroke:gray;fill:none"/><path d="M120 456 122 459 122 467 121 469 118 472 121 470 122 467 122 458 " style="stroke:gray;fill:none"/><path d="M102 447 102 460 103 463 104 466 110 472 112 473 115 474 122 474 125 473 127 471 129 467 130 464 130 459 130 456 129 453 126 453 118 454 115 452 113 452 110 450 106 446 " style="stroke:gray;fill:none"/><path d="M105 446 108 449 111 451 115 453 118 454 126 453 129 454 130 459 130 464 129 467 127 470 124 473 122 474 115 474 112 473 104 465 103 463 102 460 102 448 " style="stroke:gray;fill:none"/><path d="M124 441 122 443 120 446 122 445 123 443 " style="stroke:gray;fill:none"/><path d="M113 434 110 437 110 442 112 445 115 447 119 448 123 448 127 444 127 442 126 439 121 434 " style="stroke:gray;fill:none"/><path d="M114 434 120 434 126 440 126 444 126 445 124 447 122 448 119 448 116 447 113 445 111 443 110 441 110 438 " style="stroke:gray;fill:none"/><path d="M179 429 175 430 171 434 170 436 169 439 168 443 168 452 169 454 171 454 168 451 168 443 169 439 171 435 176 430 180 429 187 429 190 430 194 432 197 435 195 432 191 430 187 429 " style="stroke:gray;fill:none"/><path d="M218 387 217 389 215 393 214 397 213 402 213 405 212 409 211 412 210 413 209 417 208 421 207 425 210 426 208 425 208 422 209 418 210 413 211 410 212 406 213 405 214 402 214 397 215 393 217 389 219 387 221 389 221 394 220 398 218 400 216 400 219 401 218 406 217 411 216 415 215 419 214 423 212 427 209 429 207 427 209 429 212 428 214 424 215 420 216 415 217 411 217 407 218 403 219 402 220 398 221 394 221 388 " style="stroke:gray;fill:none"/><path d="M107 383 106 385 106 390 104 393 104 399 106 401 108 400 110 398 111 396 106 401 104 399 104 393 106 391 107 387 109 387 111 389 110 394 107 395 109 395 111 394 111 387 112 385 111 383 " style="stroke:gray;fill:none"/><path d="M108 383 110 383 112 386 110 388 106 385 " style="stroke:gray;fill:none"/><path d="M137 377 134 380 132 384 132 390 133 393 135 396 141 402 145 405 148 407 156 411 159 412 163 413 167 414 184 414 188 413 191 412 194 411 197 410 200 409 202 408 203 406 201 408 199 409 197 409 194 411 191 412 188 413 184 414 167 414 164 413 160 412 157 411 147 406 143 403 135 395 133 392 132 390 132 384 134 381 139 377 " style="stroke:gray;fill:none"/><path d="M187 372 " style="stroke:gray;fill:none"/><path d="M27 367 25 369 25 373 27 375 32 374 33 372 33 370 30 367 " style="stroke:gray;fill:none"/><path d="M29 367 33 372 30 375 28 375 25 372 25 370 " style="stroke:gray;fill:none"/><path d="M157 364 160 364 159 360 " style="stroke:gray;fill:none"/><path d="M160 361 159 364 156 362 " style="stroke:gray;fill:none"/><path d="M148 358 146 359 144 362 144 366 145 369 147 371 150 373 154 375 156 376 154 375 152 374 149 372 144 367 143 364 145 361 148 358 150 358 " style="stroke:gray;fill:none"/><path d="M187 352 184 354 180 353 178 353 175 354 170 359 170 361 168 364 168 369 168 364 170 362 171 358 172 367 170 371 161 371 158 369 152 369 149 366 150 360 149 366 150 368 152 369 158 369 160 371 158 372 158 375 160 377 162 378 166 379 183 379 183 377 185 373 183 371 185 369 186 363 186 356 184 354 187 352 191 354 189 357 190 364 189 367 188 369 190 371 192 373 190 372 189 370 188 368 189 365 191 363 191 361 189 357 191 355 192 353 194 352 196 353 198 358 198 362 197 368 196 371 194 374 192 376 187 376 185 378 188 376 194 375 196 372 197 369 198 363 199 358 199 355 197 353 194 352 191 353 " style="stroke:gray;fill:none"/><path d="M178 353 180 353 183 354 186 357 186 363 185 368 183 371 184 376 183 378 167 379 163 378 161 377 158 373 160 371 171 371 171 368 172 358 176 354 " style="stroke:gray;fill:none"/><path d="M105 330 99 336 96 340 95 342 94 345 93 348 92 352 92 357 93 360 94 363 95 365 100 370 102 371 105 372 108 373 116 373 119 372 122 369 122 366 121 364 117 362 111 356 110 353 105 348 105 346 107 344 108 342 108 333 107 331 " style="stroke:gray;fill:none"/><path d="M106 331 108 333 108 341 105 346 105 348 106 350 110 354 111 357 116 362 119 364 121 366 122 368 118 372 116 373 108 373 105 372 102 371 94 363 93 360 92 357 92 352 93 348 94 345 96 341 99 337 " style="stroke:gray;fill:none"/><path d="M244 327 240 328 237 329 234 330 226 334 223 336 219 339 209 349 208 351 221 338 224 336 227 334 237 329 240 328 244 327 246 327 248 328 250 331 249 328 247 327 " style="stroke:gray;fill:none"/><path d="M127 326 122 327 118 328 115 331 114 333 114 349 115 352 116 354 120 358 122 359 126 360 131 360 134 359 139 355 142 352 143 350 143 347 141 347 138 348 136 346 135 344 135 342 136 338 137 337 137 329 135 327 132 326 " style="stroke:gray;fill:none"/><path d="M140 348 143 348 142 351 " style="stroke:gray;fill:none"/><path d="M127 326 132 326 134 327 137 330 137 337 136 341 135 342 135 345 136 347 139 348 142 351 139 355 137 357 134 359 131 360 126 360 123 359 121 358 115 352 114 349 114 333 119 328 122 327 " style="stroke:gray;fill:none"/><path d="M201 316 201 318 196 323 193 325 190 327 187 328 185 330 183 330 181 331 183 331 186 330 188 328 191 327 194 325 197 323 203 318 203 316 202 318 " style="stroke:gray;fill:none"/><path d="M234 315 232 316 224 324 220 327 217 329 214 331 208 334 206 334 203 336 200 337 196 338 191 339 184 340 161 339 154 340 154 343 156 345 159 346 164 347 192 347 199 346 200 345 202 345 206 349 206 354 205 359 204 365 203 371 202 374 200 377 197 380 194 382 191 383 188 384 184 385 165 385 161 384 157 383 154 381 152 381 144 377 137 370 134 367 132 367 130 368 128 370 124 375 119 379 118 381 117 384 117 387 118 394 115 400 113 402 112 405 110 407 110 409 108 411 107 414 106 417 105 421 104 425 104 429 106 431 108 431 110 430 112 428 121 428 125 430 130 435 132 438 132 439 137 440 139 438 142 434 144 431 145 429 145 423 144 419 146 419 151 422 154 423 157 424 160 425 163 424 161 427 161 429 158 432 157 435 157 450 156 455 155 459 154 463 152 466 152 468 148 475 147 478 147 483 148 486 149 488 152 491 156 493 162 493 165 491 167 491 171 489 174 487 178 483 178 479 176 477 170 472 167 468 167 466 167 462 171 458 173 456 175 454 184 454 186 456 188 457 191 457 193 456 195 454 195 452 196 448 197 444 198 443 199 439 200 435 201 430 201 424 202 420 203 416 204 412 205 409 206 408 206 404 207 401 208 398 209 397 209 394 210 390 211 387 213 383 220 376 232 365 237 359 240 355 243 351 244 348 246 346 251 336 251 334 253 331 253 327 252 325 249 324 245 322 242 319 237 315 " style="stroke:gray;fill:none"/><path d="M236 315 240 319 244 322 246 323 248 323 250 324 252 326 253 328 253 331 251 334 251 336 247 344 244 347 243 350 240 354 237 358 232 364 219 376 213 382 212 384 211 387 210 390 209 394 209 397 208 400 207 401 206 404 206 408 205 411 204 412 203 416 202 420 201 424 201 430 200 435 199 439 198 443 197 447 196 451 195 453 191 457 189 457 184 454 175 454 173 455 171 456 167 461 167 463 167 466 167 469 170 473 173 476 178 480 178 482 173 487 170 489 167 491 165 491 162 493 156 493 153 491 149 487 147 483 147 478 152 469 153 466 154 463 155 459 156 455 157 450 157 435 158 433 162 429 164 429 163 424 160 424 157 424 154 423 147 419 143 419 143 422 145 424 145 428 144 430 142 433 139 437 136 440 134 440 132 438 130 435 127 431 131 429 132 427 132 420 131 417 129 413 126 410 120 407 113 407 120 407 122 408 125 410 129 414 131 418 132 421 132 426 131 428 129 430 126 431 124 429 121 428 112 428 110 429 107 431 104 428 104 425 105 421 106 417 107 414 111 406 113 404 115 401 118 395 117 387 117 384 119 380 125 375 128 372 131 368 133 367 135 368 137 370 142 376 152 381 154 381 157 383 161 384 165 385 184 385 188 384 191 383 194 382 198 380 200 378 202 374 203 371 204 365 205 359 206 354 206 348 203 345 200 345 193 346 192 347 164 347 159 346 157 345 154 341 156 339 161 339 184 340 191 339 196 338 200 337 203 336 206 335 209 333 211 333 215 331 218 329 221 327 225 324 233 316 " style="stroke:gray;fill:none"/><path d="M187 312 190 313 190 311 " style="stroke:gray;fill:none"/><path d="M187 312 190 312 " style="stroke:gray;fill:none"/><path d="M201 310 " style="stroke:gray;fill:none"/><path d="M196 309 192 311 196 312 198 311 198 309 " style="stroke:gray;fill:none"/><path d="M192 311 196 311 " style="stroke:gray;fill:none"/><path d="M195 310 198 310 " style="stroke:gray;fill:none"/><path d="M261 306 262 309 264 310 268 311 271 310 268 311 264 310 262 308 " style="stroke:gray;fill:none"/><path d="M137 306 " style="stroke:gray;fill:none"/><path d="M217 301 212 303 208 305 207 307 205 306 204 308 200 308 202 308 204 309 205 307 207 308 208 306 210 307 212 306 218 303 220 302 219 300 " style="stroke:gray;fill:none"/><path d="M203 309 " style="stroke:gray;fill:none"/><path d="M206 308 " style="stroke:gray;fill:none"/><path d="M208 306 211 306 " style="stroke:gray;fill:none"/><path d="M210 305 213 305 " style="stroke:gray;fill:none"/><path d="M212 304 215 304 " style="stroke:gray;fill:none"/><path d="M214 303 217 303 " style="stroke:gray;fill:none"/><path d="M216 302 219 302 " style="stroke:gray;fill:none"/><path d="M219 302 " style="stroke:gray;fill:none"/><path d="M231 299 229 300 228 302 226 302 224 304 210 311 207 312 204 313 201 314 198 315 194 316 189 317 184 318 175 319 151 319 142 318 138 318 136 316 134 316 132 318 133 320 135 321 137 321 141 325 147 330 150 331 153 332 157 333 162 334 184 334 190 333 194 332 198 331 201 330 204 329 216 323 220 320 228 312 231 308 233 304 233 300 " style="stroke:gray;fill:none"/><path d="M134 316 136 316 138 319 135 321 132 318 " style="stroke:gray;fill:none"/><path d="M231 299 233 301 232 304 231 302 231 307 229 310 219 320 215 323 210 325 208 327 206 328 204 328 201 330 198 331 194 332 190 333 184 334 162 334 157 333 153 332 150 331 148 330 142 325 139 322 141 320 139 322 137 320 142 318 151 319 175 319 184 318 189 317 194 316 198 315 201 314 204 313 207 312 210 311 213 310 225 304 227 302 229 302 " style="stroke:gray;fill:none"/><path d="M221 298 223 300 " style="stroke:gray;fill:none"/><path d="M222 300 " style="stroke:gray;fill:none"/><path d="M247 291 245 292 244 297 245 299 249 301 251 301 253 299 253 295 251 292 " style="stroke:gray;fill:none"/><path d="M249 291 251 293 253 296 253 298 247 300 245 298 244 296 244 294 246 292 " style="stroke:gray;fill:none"/><path d="M199 284 " style="stroke:gray;fill:none"/><path d="M228 282 228 285 227 290 225 293 223 295 225 297 225 293 227 290 228 285 " style="stroke:gray;fill:none"/><path d="M224 297 " style="stroke:gray;fill:none"/><path d="M259 281 257 282 255 286 255 288 256 290 258 292 260 295 261 298 261 301 260 303 256 307 254 308 250 308 243 307 242 309 242 311 247 316 249 317 252 318 255 319 261 319 264 318 267 317 269 316 274 311 276 308 278 304 279 300 279 294 278 291 276 287 273 284 269 282 266 281 " style="stroke:gray;fill:none"/><path d="M259 281 266 281 269 282 272 284 276 288 278 291 279 294 279 300 278 304 277 306 275 309 268 316 264 318 261 319 255 319 252 318 248 316 242 310 243 308 249 307 255 308 257 307 260 304 261 301 261 298 260 295 258 291 256 289 256 285 256 284 " style="stroke:gray;fill:none"/><path d="M238 279 " style="stroke:gray;fill:none"/><path d="M140 272 136 274 136 280 138 281 142 281 144 280 143 273 " style="stroke:gray;fill:none"/><path d="M140 272 142 273 144 275 143 280 141 281 139 281 137 280 136 275 138 273 " style="stroke:gray;fill:none"/><path d="M236 272 236 279 238 271 " style="stroke:gray;fill:none"/><path d="M97 262 97 264 96 267 95 268 95 277 96 284 97 288 98 291 99 293 103 298 107 298 108 295 107 292 106 288 105 285 104 284 103 279 103 269 102 262 " style="stroke:gray;fill:none"/><path d="M97 263 102 263 103 269 103 279 104 284 105 287 106 288 107 292 108 295 107 297 103 296 105 294 103 296 99 292 97 288 96 284 95 277 95 268 96 265 " style="stroke:gray;fill:none"/><path d="M113 250 110 253 109 256 108 260 108 265 109 267 111 269 112 271 113 274 112 279 114 282 114 285 113 292 114 295 115 298 118 304 122 308 128 308 129 306 130 304 132 307 133 305 134 307 136 309 138 309 141 312 139 313 137 311 139 313 141 313 142 311 143 314 146 314 147 312 150 313 160 315 150 314 179 314 164 315 179 315 183 314 183 312 179 312 150 313 143 312 140 311 137 308 135 306 133 304 135 303 134 301 131 295 129 292 128 290 128 292 129 294 131 296 132 299 130 300 129 305 128 302 126 300 123 294 123 292 122 289 121 287 117 283 116 281 115 274 115 269 117 267 117 263 116 256 116 253 115 251 " style="stroke:gray;fill:none"/><path d="M178 313 183 313 " style="stroke:gray;fill:none"/><path d="M143 313 146 313 " style="stroke:gray;fill:none"/><path d="M131 302 131 305 " style="stroke:gray;fill:none"/><path d="M133 301 133 304 " style="stroke:gray;fill:none"/><path d="M113 250 116 256 117 263 117 266 115 268 114 271 116 276 116 282 117 284 122 289 123 292 123 294 125 297 125 299 126 301 128 303 129 305 128 307 123 308 117 302 116 300 116 298 114 295 113 292 113 287 114 281 112 278 112 276 113 273 113 269 111 268 108 265 108 260 109 256 111 252 " style="stroke:gray;fill:none"/><path d="M122 248 122 265 123 273 124 278 125 282 127 285 127 288 127 285 126 282 125 278 124 277 123 272 122 265 " style="stroke:gray;fill:none"/><path d="M125 243 " style="stroke:gray;fill:none"/><path d="M28 243 26 245 29 246 " style="stroke:gray;fill:none"/><path d="M28 243 26 245 " style="stroke:gray;fill:none"/><path d="M122 242 121 245 120 243 120 245 122 246 " style="stroke:gray;fill:none"/><path d="M124 238 " style="stroke:gray;fill:none"/><path d="M223 237 223 239 224 242 225 246 226 247 227 251 227 260 229 260 229 258 227 257 227 251 226 247 225 243 224 242 223 239 " style="stroke:gray;fill:none"/><path d="M228 260 " style="stroke:gray;fill:none"/><path d="M126 237 126 239 123 240 125 241 " style="stroke:gray;fill:none"/><path d="M243 237 243 242 244 245 245 248 246 249 247 252 248 257 249 273 253 273 254 271 255 267 255 259 254 250 253 246 252 243 250 239 247 236 " style="stroke:gray;fill:none"/><path d="M246 236 251 241 252 243 253 246 254 250 255 259 255 267 254 270 253 272 250 273 248 271 248 257 247 252 246 249 245 246 244 245 243 242 243 238 " style="stroke:gray;fill:none"/><path d="M132 236 129 239 131 238 134 236 " style="stroke:gray;fill:none"/><path d="M229 235 228 237 228 241 229 245 230 248 231 250 235 254 234 260 236 264 236 267 233 272 232 278 232 286 233 288 236 289 240 285 241 282 242 273 242 271 241 269 239 267 238 256 239 250 239 247 238 244 237 241 236 239 232 235 " style="stroke:gray;fill:none"/><path d="M231 235 237 241 238 244 239 247 239 250 238 256 239 268 242 271 242 273 241 282 240 284 235 289 232 286 232 279 233 272 234 270 236 268 236 264 234 260 235 254 234 252 230 248 229 245 228 241 228 237 " style="stroke:gray;fill:none"/><path d="M152 234 149 235 147 237 145 239 143 241 141 245 141 253 142 256 143 258 147 262 151 264 161 264 164 263 166 261 168 259 170 257 171 255 171 244 169 240 165 236 161 234 " style="stroke:gray;fill:none"/><path d="M153 234 161 234 164 236 170 242 171 244 171 254 170 256 168 259 166 261 163 263 160 264 152 264 148 262 142 256 141 253 141 245 142 243 144 240 148 236 150 235 " style="stroke:gray;fill:none"/><path d="M146 226 142 228 140 228 137 230 138 231 133 232 132 234 136 235 138 231 140 231 145 228 148 228 " style="stroke:gray;fill:none"/><path d="M134 234 " style="stroke:gray;fill:none"/><path d="M137 230 141 230 " style="stroke:gray;fill:none"/><path d="M140 229 143 229 " style="stroke:gray;fill:none"/><path d="M147 228 " style="stroke:gray;fill:none"/><path d="M211 227 215 227 217 230 220 232 218 230 220 229 222 231 223 234 221 234 223 235 223 233 222 231 220 229 218 228 213 225 " style="stroke:gray;fill:none"/><path d="M218 230 " style="stroke:gray;fill:none"/><path d="M212 227 " style="stroke:gray;fill:none"/><path d="M173 225 166 227 164 226 157 227 154 229 150 229 147 230 142 233 140 233 138 234 140 233 142 233 147 230 150 229 154 229 157 227 164 226 166 227 173 225 188 225 192 226 194 227 197 229 206 238 209 244 210 248 211 256 212 264 212 266 210 268 210 270 209 273 207 276 203 276 201 280 200 282 201 280 202 278 207 276 206 278 205 280 203 283 200 287 197 290 192 293 190 295 187 297 184 298 182 300 179 301 176 304 170 307 168 307 165 309 162 310 157 311 151 311 157 311 162 310 165 309 168 307 170 307 178 303 181 300 184 299 186 297 188 296 190 295 196 297 198 297 204 294 207 292 210 289 212 286 215 280 216 277 216 268 213 266 211 262 210 255 210 248 209 244 208 241 206 239 205 236 199 230 196 228 192 226 188 225 " style="stroke:gray;fill:none"/><path d="M212 266 214 266 216 268 216 277 215 280 213 284 210 288 205 293 202 295 198 297 196 297 194 298 191 295 194 292 198 289 200 287 202 285 205 281 206 278 208 276 209 273 209 271 210 268 " style="stroke:gray;fill:none"/><path d="M204 225 207 225 209 226 207 225 209 224 207 225 206 223 " style="stroke:gray;fill:none"/><path d="M205 225 " style="stroke:gray;fill:none"/><path d="M152 224 149 224 153 225 150 226 152 226 157 225 157 223 " style="stroke:gray;fill:none"/><path d="M152 224 157 224 " style="stroke:gray;fill:none"/><path d="M159 223 161 224 161 222 " style="stroke:gray;fill:none"/><path d="M160 224 " style="stroke:gray;fill:none"/><path d="M184 220 195 221 184 222 195 221 200 222 196 223 200 224 202 224 202 222 200 222 195 221 194 220 " style="stroke:gray;fill:none"/><path d="M199 223 202 223 " style="stroke:gray;fill:none"/><path d="M179 221 175 221 179 221 181 222 179 221 181 220 " style="stroke:gray;fill:none"/><path d="M167 220 163 222 166 223 173 222 173 220 " style="stroke:gray;fill:none"/><path d="M163 222 167 222 " style="stroke:gray;fill:none"/><path d="M171 222 " style="stroke:gray;fill:none"/><path d="M166 221 170 221 " style="stroke:gray;fill:none"/><path d="M164 202 168 202 173 203 177 204 185 208 188 210 190 212 190 214 192 212 189 210 180 206 178 204 174 203 169 202 " style="stroke:gray;fill:none"/><path d="M322 199 320 201 319 203 321 205 323 205 325 207 327 207 327 203 325 201 322 203 325 201 327 203 325 207 324 205 321 205 319 203 320 201 322 199 326 199 330 203 329 213 327 213 323 209 322 207 324 210 327 213 330 212 330 203 326 199 " style="stroke:gray;fill:none"/><path d="M166 199 162 200 157 201 154 202 151 203 148 204 145 206 143 206 135 210 131 213 120 224 118 227 115 233 114 236 115 238 119 238 123 235 125 233 128 231 131 229 143 223 145 223 148 221 151 220 155 219 159 218 164 217 171 216 190 216 196 217 202 218 206 219 210 220 211 221 215 222 218 223 224 223 224 220 223 218 218 213 214 210 211 208 203 204 201 204 198 202 195 201 191 200 187 199 " style="stroke:gray;fill:none"/><path d="M166 199 187 199 191 200 195 201 198 202 210 208 213 210 217 213 223 219 223 223 218 223 215 222 211 221 207 220 206 219 202 218 196 217 190 216 171 216 164 217 159 218 155 219 151 220 148 221 145 223 143 223 138 226 136 226 130 229 127 231 125 233 122 235 118 238 116 238 114 236 115 233 117 231 118 228 120 225 132 213 136 210 139 209 141 207 143 206 145 206 148 204 151 203 154 202 157 201 162 200 " style="stroke:gray;fill:none"/><path d="M255 194 257 196 255 197 257 197 257 195 " style="stroke:gray;fill:none"/><path d="M334 193 332 194 " style="stroke:gray;fill:none"/><path d="M332 192 " style="stroke:gray;fill:none"/><path d="M361 189 358 190 356 192 357 195 358 197 360 198 361 202 364 203 366 198 367 195 366 197 364 202 362 202 361 198 363 198 360 197 360 194 364 190 363 193 364 196 365 194 364 189 " style="stroke:gray;fill:none"/><path d="M364 190 364 193 " style="stroke:gray;fill:none"/><path d="M358 190 361 191 361 193 359 197 357 195 356 192 " style="stroke:gray;fill:none"/><path d="M228 179 230 182 236 189 236 193 231 198 227 201 224 203 222 204 215 204 206 199 204 197 200 197 197 196 196 195 193 195 191 194 193 195 196 195 199 196 202 199 206 199 208 200 215 204 222 204 226 202 229 200 233 197 235 195 236 193 236 189 235 187 229 181 " style="stroke:gray;fill:none"/><path d="M203 199 " style="stroke:gray;fill:none"/><path d="M228 177 " style="stroke:gray;fill:none"/><path d="M364 173 365 175 366 178 366 183 364 185 362 184 365 185 366 183 366 178 365 175 " style="stroke:gray;fill:none"/><path d="M229 172 227 173 229 174 " style="stroke:gray;fill:none"/><path d="M225 172 " style="stroke:gray;fill:none"/><path d="M318 171 " style="stroke:gray;fill:none"/><path d="M303 170 288 171 303 170 316 170 " style="stroke:gray;fill:none"/><path d="M355 169 357 172 359 176 359 179 361 182 360 180 359 178 359 176 356 170 356 166 358 168 361 172 363 176 363 181 363 176 362 173 360 170 357 166 " style="stroke:gray;fill:none"/><path d="M335 166 329 172 325 173 323 173 321 172 323 173 325 173 328 173 330 172 333 169 336 166 340 167 341 169 340 171 337 175 324 188 321 190 318 192 315 194 313 194 306 198 303 199 301 199 299 197 301 195 307 192 310 193 311 191 313 189 317 186 318 186 318 181 314 180 308 180 306 178 304 178 301 177 299 176 297 173 298 176 301 177 303 177 307 179 296 180 291 179 287 178 285 177 283 175 284 172 286 172 286 170 283 169 281 168 263 168 260 168 255 169 253 169 247 168 246 167 243 167 231 169 234 169 231 171 231 174 232 176 230 176 232 176 239 183 237 184 232 179 241 188 245 191 248 193 251 195 253 195 252 192 249 190 246 189 242 186 239 183 234 177 231 174 231 172 233 170 249 170 280 171 282 172 284 177 286 177 290 178 291 179 296 180 314 180 317 181 319 184 317 186 313 189 310 191 301 195 299 196 300 198 298 200 295 201 276 201 269 200 265 199 264 198 261 197 259 197 261 197 264 198 268 199 272 200 273 202 275 202 295 201 298 200 299 199 303 199 306 198 309 196 311 196 319 192 322 190 325 188 337 176 340 172 341 170 341 168 340 166 " style="stroke:gray;fill:none"/><path d="M274 202 " style="stroke:gray;fill:none"/><path d="M251 192 253 194 250 194 " style="stroke:gray;fill:none"/><path d="M248 190 251 192 247 192 " style="stroke:gray;fill:none"/><path d="M245 190 248 190 " style="stroke:gray;fill:none"/><path d="M239 183 243 186 246 189 244 190 241 188 238 185 " style="stroke:gray;fill:none"/><path d="M243 167 246 167 252 168 253 169 255 169 260 168 263 168 281 168 284 170 286 171 281 172 250 171 234 169 " style="stroke:gray;fill:none"/><path d="M328 165 328 167 325 168 321 168 319 166 321 166 318 166 321 168 325 168 329 167 " style="stroke:gray;fill:none"/><path d="M324 165 326 165 " style="stroke:gray;fill:none"/><path d="M354 163 350 167 350 169 351 171 357 178 356 175 350 169 350 167 354 163 356 163 359 166 362 169 363 171 362 169 361 167 358 164 356 163 " style="stroke:gray;fill:none"/><path d="M196 160 198 161 203 164 206 165 209 165 213 166 216 167 220 169 222 171 226 177 225 174 223 172 217 167 213 166 209 165 206 165 203 164 198 161 " style="stroke:gray;fill:none"/><path d="M192 155 194 156 " style="stroke:gray;fill:none"/><path d="M190 157 194 159 192 158 190 154 " style="stroke:gray;fill:none"/><path d="M273 151 281 151 " style="stroke:gray;fill:none"/><path d="M283 150 287 150 " style="stroke:gray;fill:none"/><path d="M299 149 308 149 " style="stroke:gray;fill:none"/><path d="M187 149 " style="stroke:gray;fill:none"/><path d="M340 145 " style="stroke:gray;fill:none"/><path d="M339 143 333 143 325 144 324 145 312 146 325 144 333 145 336 145 332 144 339 143 342 144 341 142 " style="stroke:gray;fill:none"/><path d="M218 139 219 141 219 143 223 147 225 147 227 149 231 150 235 150 231 149 249 148 264 150 251 151 265 150 271 150 263 149 288 148 304 147 305 146 310 148 309 146 305 146 289 147 288 148 262 149 250 149 232 148 231 147 226 148 223 147 220 144 219 141 " style="stroke:gray;fill:none"/><path d="M226 148 232 148 " style="stroke:gray;fill:none"/><path d="M189 139 186 142 185 144 185 146 185 150 187 151 185 150 185 146 191 141 187 145 186 147 185 144 191 139 " style="stroke:gray;fill:none"/><path d="M217 129 216 131 216 137 219 136 219 130 216 136 216 131 " style="stroke:gray;fill:none"/><path d="M359 128 357 130 358 133 360 135 364 138 364 140 361 143 359 144 356 145 352 146 348 147 343 148 337 149 330 150 322 151 313 152 302 153 288 154 269 155 265 155 257 154 249 155 231 154 221 153 215 152 210 151 208 150 205 147 205 145 209 142 211 140 210 135 207 135 204 136 201 137 197 139 191 145 191 149 192 151 194 153 197 155 201 157 204 158 207 159 210 160 214 161 218 162 223 163 231 163 238 164 239 165 255 166 258 166 255 166 239 165 232 164 231 163 223 163 218 162 214 161 210 160 207 159 204 158 201 157 199 156 196 154 191 149 191 146 198 139 204 136 207 135 209 135 211 137 211 139 208 142 205 145 205 148 207 150 210 151 215 152 221 153 231 154 249 155 256 155 264 154 265 155 269 155 288 154 302 153 313 152 322 151 330 150 337 149 343 148 348 147 352 146 356 145 359 144 362 143 364 141 364 137 362 135 358 132 358 130 360 128 362 128 365 129 368 130 372 132 378 138 378 140 377 142 371 148 363 152 361 152 358 154 355 155 352 156 349 157 345 158 341 159 336 160 331 161 326 162 320 163 313 164 303 165 288 166 265 166 288 166 303 165 313 164 320 163 326 162 331 161 336 160 341 159 345 158 349 157 352 156 355 155 359 154 361 152 363 152 366 151 372 148 377 143 378 140 378 138 377 136 373 132 371 131 368 130 365 129 362 128 " style="stroke:gray;fill:none"/><path d="M200 124 195 125 192 126 189 127 186 128 182 130 179 132 171 140 168 144 166 148 165 151 164 154 163 158 162 162 162 169 163 175 164 178 165 181 168 187 170 190 173 191 175 192 177 194 182 194 176 193 183 192 185 193 185 195 189 195 189 193 184 193 176 193 174 192 172 191 169 188 167 185 165 181 164 178 163 175 162 169 162 162 163 158 164 154 165 151 166 148 167 146 171 141 181 131 184 129 186 128 189 127 192 126 195 125 200 124 206 124 209 127 207 129 205 130 203 130 200 131 198 133 196 134 194 134 192 137 195 134 203 130 205 130 209 128 208 125 206 124 " style="stroke:gray;fill:none"/><path d="M186 194 189 194 " style="stroke:gray;fill:none"/><path d="M245 105 249 105 258 109 260 111 272 117 274 117 283 122 286 123 289 124 291 124 298 128 300 128 303 129 306 131 308 131 313 134 315 134 322 138 324 138 327 142 326 139 324 138 322 138 315 134 313 134 308 131 306 131 303 129 301 129 298 128 291 124 289 124 286 123 283 122 274 117 272 117 262 112 260 110 249 105 " style="stroke:gray;fill:none"/><path d="M161 86 159 87 156 90 152 95 150 99 149 102 148 105 147 109 147 122 148 127 149 131 154 141 157 144 161 144 164 141 169 135 169 134 174 129 178 126 181 125 183 123 189 120 192 120 197 119 199 117 198 112 192 107 186 102 182 99 177 95 173 92 170 90 167 88 163 86 " style="stroke:gray;fill:none"/><path d="M161 86 163 86 165 87 168 89 171 91 175 94 180 98 184 101 190 106 196 111 199 114 199 117 197 119 193 119 189 120 179 125 176 127 173 129 170 132 165 138 165 139 160 144 158 144 153 139 149 131 148 127 147 122 147 109 148 105 149 102 150 99 151 97 156 91 159 88 160 90 158 93 156 95 160 91 159 88 " style="stroke:gray;fill:none"/><path d="M256 79 254 80 250 84 247 90 247 93 245 96 244 99 243 102 242 113 242 125 243 130 244 134 245 137 246 140 248 144 250 146 253 147 251 146 247 142 246 140 245 137 244 134 243 130 242 125 244 112 245 114 248 116 270 127 272 127 279 131 282 132 284 132 289 135 292 136 294 136 297 138 299 138 302 140 304 140 309 143 311 144 309 143 304 140 302 140 299 138 297 138 294 136 292 136 289 135 284 132 282 132 279 131 272 127 270 127 250 117 247 115 243 111 243 102 244 99 245 96 247 93 247 90 249 86 256 79 259 80 264 83 267 84 270 85 273 86 276 87 279 88 281 88 284 90 287 91 291 92 294 93 297 94 300 95 303 96 306 97 309 98 312 99 315 100 318 101 321 102 324 103 327 104 330 105 333 106 335 106 337 104 339 104 337 104 335 105 332 105 330 105 327 104 324 103 321 102 318 101 315 100 312 99 309 98 306 97 303 96 300 95 297 94 294 93 291 92 287 91 284 90 281 88 279 88 276 87 273 86 270 85 267 84 264 83 259 80 " style="stroke:gray;fill:none"/><path d="M161 76 162 78 165 79 169 82 173 85 177 88 182 92 186 95 191 99 197 104 204 111 210 116 214 115 215 113 214 111 205 102 197 95 193 92 189 89 185 86 182 84 179 82 171 78 168 78 166 76 " style="stroke:gray;fill:none"/><path d="M162 77 165 76 168 78 170 78 178 82 181 84 184 86 188 89 192 92 196 95 204 102 215 113 211 116 205 111 198 104 192 99 187 95 183 92 178 88 174 85 170 82 166 79 164 78 " style="stroke:gray;fill:none"/><path d="M162 77 " style="stroke:gray;fill:none"/><path d="M187 72 184 73 182 75 183 79 186 81 189 83 191 84 195 83 195 79 194 76 191 73 189 72 " style="stroke:gray;fill:none"/><path d="M187 72 189 72 194 77 195 79 195 82 193 84 191 84 189 82 185 79 184 79 182 77 182 75 184 73 " style="stroke:gray;fill:none"/><path d="M159 72 161 73 163 73 165 74 163 73 161 73 " style="stroke:gray;fill:none"/><path d="M266 70 264 71 266 70 268 70 " style="stroke:gray;fill:none"/><path d="M150 71 147 74 148 78 150 79 152 79 154 77 156 76 160 78 156 76 156 74 156 71 154 71 " style="stroke:gray;fill:none"/><path d="M155 71 157 73 156 75 154 77 151 79 149 78 147 75 " style="stroke:gray;fill:none"/><path d="M292 71 295 71 299 72 304 73 307 74 310 75 314 77 317 78 318 80 322 83 326 85 336 95 339 99 341 104 343 106 344 108 344 110 346 112 347 115 348 118 349 122 350 127 350 137 347 140 344 137 344 124 337 117 334 116 331 115 328 114 325 113 322 112 319 111 316 110 313 109 310 108 307 107 304 106 301 105 298 104 295 104 292 103 289 101 287 101 284 100 281 99 278 98 275 97 272 96 269 95 266 94 263 92 261 92 258 91 255 90 252 86 253 89 255 90 257 90 260 91 263 92 266 94 268 94 271 95 274 96 277 97 280 98 283 99 286 100 289 101 292 103 295 104 298 104 301 105 304 106 307 107 310 108 313 109 316 110 319 111 322 112 325 113 328 114 331 115 334 116 337 117 339 118 343 122 344 124 344 138 346 140 344 141 346 140 348 140 350 138 350 127 349 122 348 118 347 115 346 112 344 109 344 107 343 105 341 103 340 100 338 97 336 94 327 86 324 83 324 81 321 81 319 80 317 78 317 76 313 76 311 75 314 74 312 73 309 73 312 74 308 75 305 73 307 72 303 71 301 73 300 70 298 70 295 71 294 69 " style="stroke:gray;fill:none"/><path d="M323 83 " style="stroke:gray;fill:none"/><path d="M316 78 " style="stroke:gray;fill:none"/><path d="M302 72 306 72 " style="stroke:gray;fill:none"/><path d="M299 72 " style="stroke:gray;fill:none"/><path d="M271 69 " style="stroke:gray;fill:none"/><path d="M288 68 291 69 275 70 270 71 267 72 266 73 263 74 260 73 262 72 260 72 257 73 255 74 258 75 254 76 252 78 250 79 248 81 246 82 243 82 239 84 234 89 239 84 241 83 244 84 242 85 240 86 235 91 234 93 233 91 232 93 232 96 229 99 228 102 226 105 223 107 224 109 222 110 223 112 223 114 221 117 220 115 221 117 220 121 219 118 219 121 221 121 221 117 224 112 224 110 225 106 227 104 228 101 231 98 233 96 234 93 242 85 245 84 246 82 249 80 252 78 254 78 255 76 258 76 261 75 264 73 267 72 270 71 275 70 291 69 " style="stroke:gray;fill:none"/><path d="M223 112 " style="stroke:gray;fill:none"/><path d="M224 109 " style="stroke:gray;fill:none"/><path d="M232 96 " style="stroke:gray;fill:none"/><path d="M233 92 233 95 " style="stroke:gray;fill:none"/><path d="M244 84 " style="stroke:gray;fill:none"/><path d="M257 74 261 74 " style="stroke:gray;fill:none"/><path d="M276 68 279 68 " style="stroke:gray;fill:none"/><path d="M236 25 231 26 227 27 224 28 220 30 217 32 213 35 208 40 206 43 204 46 203 48 203 50 201 53 200 56 199 60 199 75 200 78 201 81 206 91 209 95 213 99 216 101 221 101 225 96 228 92 231 88 240 79 243 78 246 75 249 73 257 69 260 68 263 67 267 66 271 65 275 64 278 64 278 62 279 59 281 56 282 61 280 63 282 61 282 57 280 54 280 52 279 49 277 45 272 39 267 34 264 32 261 30 258 31 254 30 250 28 245 27 242 27 238 29 230 37 228 41 228 43 226 46 225 49 224 54 224 58 225 62 226 65 227 68 229 72 232 76 234 78 237 79 238 81 229 90 226 94 226 95 224 98 221 101 217 101 214 99 209 94 205 89 201 81 200 78 199 75 199 60 200 56 201 53 203 50 203 48 206 44 208 41 215 34 219 31 222 29 224 28 227 27 231 26 236 25 247 25 251 26 252 27 255 28 257 28 255 28 252 27 248 26 247 25 " style="stroke:gray;fill:none"/><path d="M242 27 245 27 250 28 254 30 258 31 262 31 266 34 272 40 277 46 280 52 281 56 279 58 279 61 278 63 274 64 270 65 266 66 262 67 259 68 256 69 248 73 246 75 242 78 240 79 238 80 236 79 231 74 228 70 227 68 226 65 225 62 224 58 224 54 225 49 226 46 228 43 228 41 229 39 240 28 " style="stroke:gray;fill:none"/></svg>